<svg id="Layer_1" data-name="Layer 1" xmlns="http://www.w3.org/2000/svg" viewBox="0 0 582.85 595.28"><title>ICONS</title><path d="M126.25,337H115.51a12.79,12.79,0,0,1-12.79-12.79V281.29a12.79,12.79,0,0,1,12.79-12.79h10.74Z" fill="#6b6b6b"/><path d="M422.19,337h10.74a12.79,12.79,0,0,0,12.79-12.79V281.29a12.79,12.79,0,0,0-12.79-12.79H422.19Z" fill="#6b6b6b"/><path d="M373.78,191.16H174.66a37,37,0,0,0-37,37V452.79a37,37,0,0,0,37,37H373.78a37,37,0,0,0,37-37V228.16A37,37,0,0,0,373.78,191.16ZM220.37,217a8.2,8.2,0,0,1,8.2-8.2h91.29a8.2,8.2,0,0,1,8.2,8.2v5.7a8.2,8.2,0,0,1-8.2,8.2H228.57a8.2,8.2,0,0,1-8.2-8.2Zm-.31,238.36a3,3,0,0,1-1.62,2.21h0a4.26,4.26,0,0,1-1.32.43c-10.8,1.38-51.78,2-55.2-10.58V430.65c0-5.7,5.48-10.27,11.89-9.77,9,.7,22.4,4.12,38,15.74.63.46,1.28.9,1.95,1.31C215.89,439.28,221.79,444.06,220.06,455.39ZM161.9,378.64V260.22A17.06,17.06,0,0,1,179,243.16H369.47a17.06,17.06,0,0,1,17.06,17.06V378.64c-23.6,11.19-65.08,18.61-112.31,18.61S185.49,389.83,161.9,378.64Zm224.63,68.82c-3.42,12.55-44.4,12-55.2,10.58a4.26,4.26,0,0,1-1.32-.43h0a3,3,0,0,1-1.62-2.21c-1.72-11.33,4.18-16.11,6.34-17.46.66-.41,1.32-.85,1.94-1.31,15.59-11.62,29-15,38-15.74,6.41-.5,11.89,4.07,11.89,9.77Z" fill="#6b6b6b"/><path d="M167.61,477h52.76v33.52A11.4,11.4,0,0,1,209,521.88H179a11.41,11.41,0,0,1-11.41-11.41Z" fill="#6b6b6b"/><path d="M328.06,477h52.76v33.52a11.4,11.4,0,0,1-11.4,11.41H339.47a11.41,11.41,0,0,1-11.41-11.41Z" fill="#6b6b6b"/></svg>