<svg id="Layer_1" data-name="Layer 1" xmlns="http://www.w3.org/2000/svg" viewBox="0 0 582.85 595.28"><title>ICONS</title><path d="M383.91,104.67a64.68,64.68,0,0,0-11.77,6.77L359.22,89.07,371,82.28Zm-48.23,7.94-6.79,11.76,22.23,12.83A63.72,63.72,0,0,1,358,125.48Zm10.14,43.92H320.28v13.58h25.45c-.2-2.11-.32-4.24-.32-6.4A65.46,65.46,0,0,1,345.82,156.53Zm-16.93,45.73L335.68,214l21.9-12.63a64.26,64.26,0,0,1-6.75-11.8Zm30.33,35.3L371,244.35l12.56-21.77a65,65,0,0,1-11.74-6.83Zm43.92-9.69V253h13.58v-25.1a66,66,0,0,1-13.58,0Zm45.73,16.48,11.77-6.79-12.59-21.81a65,65,0,0,1-11.74,6.83ZM484.17,214l6.8-11.76L469,189.59a64.84,64.84,0,0,1-6.75,11.8Zm-10-43.91h25.45V156.53H474a65.47,65.47,0,0,1,.4,7.18C474.44,165.87,474.33,168,474.13,170.11ZM491,124.37l-6.8-11.76-22.28,12.87a64.29,64.29,0,0,1,6.85,11.72Zm-30.33-35.3-11.77-6.79L436,104.67a64.68,64.68,0,0,1,11.77,6.77ZM416.72,99.55V73.67H403.14V99.55a66,66,0,0,1,13.58,0Zm41.8,64.16a48.59,48.59,0,1,0-48.59,48.59A48.65,48.65,0,0,0,458.52,163.71Zm-13.58,0a35,35,0,1,1-35-35A35,35,0,0,1,444.94,163.71ZM275.38,294.16V274.84l-55.13-53.7L64.76,372.58H84.6L220.25,240.46Zm-55.13-34.74L336.51,372.65V508.33H103.89V372.75Zm5,132.93,15.18-53.49H201.22l-23.78,80.23h40.11L200,481.49l62.9-89.14Zm63.71-85,66.94,65.19h19.84L302.55,301.3V282.7l42.59,41.49,9.48-9.73L253.23,215.7l-9.48,9.73,45.21,44v37.92Z" fill="#6b6b6b"/></svg>