<svg id="Layer_1" data-name="Layer 1" xmlns="http://www.w3.org/2000/svg" viewBox="0 0 582.85 595.28"><title>ICONS</title><path d="M151.68,165C122.15,165,98.2,204,98.2,242.05c0,27.53,11.94,52.34,30.68,62.3,4.88,2.59,7.74,3.55,7.44,20.83-.43,25.58-3.78,186.92-3.78,186.92s-1.14,16.73,14.61,16.73c1.63,0,3.14,0,4.53,0s2.9,0,4.54,0c15.74,0,14.61-16.73,14.61-16.73S167.48,350.76,167,325.18c-.29-17.28,2.56-18.24,7.45-20.83,18.73-10,30.67-34.77,30.67-62.3C205.16,204,181.22,165,151.68,165Z" fill="#6b6b6b"/><path d="M300.35,167.44h-7.57v89.17a3.42,3.42,0,0,1-3.28,3.55h-1a3.42,3.42,0,0,1-3.28-3.55l-1.88-89.17H274l-2,89.17a3.42,3.42,0,0,1-3.28,3.55h-1a3.42,3.42,0,0,1-3.28-3.55l-1.95-89.17h-9.29l-1.88,89.17a3.42,3.42,0,0,1-3.28,3.55h-1a3.42,3.42,0,0,1-3.28-3.55V167.44h-7.57S224.58,273,228.83,285.13c3.77,10.76,13.28,17,19.88,22.23,2.79,2.2,4.4,8.23,4.24,17.82-.44,25.58-3.79,186.92-3.79,186.92s-1.13,16.73,14.61,16.73c1.64,0,3.15,0,4.54,0s2.9,0,4.54,0c15.74,0,14.6-16.73,14.6-16.73s-3.35-161.34-3.78-186.92c-.17-9.59,1.45-15.62,4.24-17.82,6.6-5.2,16.11-11.47,19.88-22.23C312,273,300.35,167.44,300.35,167.44Z" fill="#6b6b6b"/></svg>