<svg id="Layer_1" data-name="Layer 1" xmlns="http://www.w3.org/2000/svg" viewBox="0 0 582.85 595.28"><title>ICONS</title><path d="M253.41,480.83a9.21,9.21,0,0,1-8.57-5.84c-.51-1.28-12.39-31.91-13.86-74.47-1.95-56.68,15.8-107.52,51.33-147A9.22,9.22,0,1,1,296,265.85c-78.21,86.9-34.48,201.24-34,202.39a9.21,9.21,0,0,1-5.19,11.95A9.33,9.33,0,0,1,253.41,480.83Z" fill="#6b6b6b"/><path d="M235,425.54a9.2,9.2,0,0,1-4.42-1.13,140.59,140.59,0,0,1-40.35-36c-16.45-21.94-31.67-57.94-10.81-104.87,19.37-43.59,61.08-71,94.59-93,23.21-15.26,45.14-29.68,45.14-41.44a9.21,9.21,0,0,1,15.73-6.51c7.71,7.71,34.23,73.22,39.09,135.66a9.22,9.22,0,0,1-18.38,1.43c-3.42-44-17.59-86.39-26.69-108.67C319.38,182.76,303,193.53,284.1,206c-31.5,20.7-70.7,46.47-87.87,85.12-13.83,31.11-10.9,60.16,8.72,86.33a122.46,122.46,0,0,0,34.46,30.85A9.21,9.21,0,0,1,235,425.54Z" fill="#6b6b6b"/><path d="M457.34,463.86a13.54,13.54,0,0,1-19,1.89l-95.91-79.27a13,13,0,0,1-3.77-5.1l-14,16.71a10.16,10.16,0,0,1,.29,13.36,10.27,10.27,0,0,1-14.42,1.33l-41.75-34.5a10.19,10.19,0,0,1,5.61-18,10.27,10.27,0,0,1,6.33,1.47l43.16-51.66a10.18,10.18,0,0,1,6.64-17,10.27,10.27,0,0,1,7.49,2.3l41.74,34.5a10.16,10.16,0,0,1,1.33,14.35,10.28,10.28,0,0,1-13.26,2.16l-13.77,16.48a13.23,13.23,0,0,1,5.74,2.75l95.91,79.28A13.37,13.37,0,0,1,457.34,463.86Z" fill="#6b6b6b"/></svg>