<svg id="Layer_1" data-name="Layer 1" xmlns="http://www.w3.org/2000/svg" viewBox="0 0 582.85 595.28"><title>ICONS</title><path d="M182,300.53c-1.4,0-3.05.12-6.17.37v31.91c2.5.08,3.52.13,5.68.13,5.55,0,9.35-1.87,11.79-5.7a21.29,21.29,0,0,0,2.83-11.45C196.09,305.38,191.63,300.53,182,300.53Z" fill="#6b6b6b"/><path d="M139,300.53c-1.31,0-3.16,0-3.79.1V314a19.44,19.44,0,0,0,3.23.24c9.4,0,10.51-3.81,10.51-7.13C148.9,305.11,149,300.53,139,300.53Z" fill="#6b6b6b"/><path d="M270.16,288.36A17.41,17.41,0,0,0,252.75,271H117a17.4,17.4,0,0,0-17.41,17.4v57.06A17.41,17.41,0,0,0,117,362.83h135.8a17.42,17.42,0,0,0,17.41-17.41ZM153.78,319.79c-4.09,3.13-9.57,4.72-16.12,4.72a23.12,23.12,0,0,1-2.5-.08v19.65H123.91V291.79l2.12-.35a80.73,80.73,0,0,1,13-1.22c6.36,0,11.5,1.49,15.24,4.45a14.81,14.81,0,0,1,5.94,12.1A15.66,15.66,0,0,1,153.78,319.79Zm48,14.69c-4.71,5.82-11.78,8.76-21.31,8.76-2.82,0-6.87-.33-13.17-1l-1.54-.24V291.77l1.52-.25c7.71-.88,12.17-1.3,14.92-1.3,8.81,0,15.51,2.74,19.88,8.15,3.52,4.33,5.34,10.19,5.34,17.42C207.45,323.47,205.59,329.76,201.81,334.48Zm44-33.52h-22.5v10h20.63V322.2H223.28v21.88H211.41V291h34.37Z" fill="#6b6b6b"/><path d="M279.53,160.32V161H154.68C145,161,137,168.37,137,178v84.18h14.37V186.36A11.65,11.65,0,0,1,163,174.71H279.53v82c0,9.59,7.83,18,17.42,18H378.9V476.06a11.67,11.67,0,0,1-11.52,11.76H314.74a8.52,8.52,0,0,1-1,1.61L304,502.2h71.72a17.81,17.81,0,0,0,17.55-17.8V274.21Z" fill="#6b6b6b"/><path d="M215.61,487.82H163a11.74,11.74,0,0,1-11.61-11.76V371H137V484.4a17.88,17.88,0,0,0,17.64,17.79h71.68l-9.73-12.74A9,9,0,0,1,215.61,487.82Z" fill="#6b6b6b"/><path d="M303.28,477.2H284.53V412.7a7.93,7.93,0,0,0-7.71-8H253.54a8,8,0,0,0-7.76,8v64.5h-18.7a4.34,4.34,0,0,0-3.68,6.91l38.11,49.51a4.69,4.69,0,0,0,7.35,0L307,484.11A4.33,4.33,0,0,0,303.28,477.2Z" fill="#6b6b6b"/></svg>