<svg xmlns="http://www.w3.org/2000/svg" viewBox="0 0 177 264.9" class="map-svg map-municipalities" data-id="1" data-district="aveiro">
<g data-title="aveiro" data-district-id="1">
	<g id="bg" class="map-bg">
		<path d="M29.9,104.8l2.3,14.6l9.7,1.4l2.7-2.7l1.6,0.2l-3.3-3.9v-4.8l5-1.4l1.1-2.9l-4.8-1.9l-2.7-2.6h-4.1l-2.6-0.9L29.9,104.8z"></path>
		<path d="M61.2,202l-0.5-3.5l3.2,0.4l2.4-4.1l2.4,1.5l3.7-0.8l7.8-5l3.3,0.9l-1.3-5.6l-2.1-0.9l-4.2-1.9l-2.4-4.8l1.7-1.3l-2.7-2.1
			l-4.1,3.4l-7.5-3.2l-0.3-0.7l-0.2,0.1l-1.2-0.5l-1.2,5.9l-4.4,4.1l-3.7,0.7l-1.5-5.9l-3.2,3.6l1.5,5.4l-1.8,2.3l-1,4.4l2,2l1,2.4
			l7.7,1.9l1.6,3.5L61.2,202z"></path>
		<path d="M65.8,89.3l2-2.1l-3-0.8l-1.2,2.4h-2.4L57.7,90l-4.9,2.7L41.7,93l-6.2,6.2l2,0.7h4.4l2.8,2.7l5.5,2.2l-1.6,4.1l-4.8,1.4
			v3.8l3.4,4.1l1.9,4.1l-0.3,2.5l3.1,0.4l2.7,2.2l3.3,1.3l1.6,3.6l5.4-0.1l7.5-8.4l-4.2-5.5l-1-9.4l1.4-1l0.2-0.3l0.1,0.1l0.7-0.5
			l-0.4-2.4l-6.3-3.2L62.3,92l3.5-0.7V89.3z"></path>
		<path d="M25.7,125.9v-14l2.5-9.5l3.7-9.2l-5-0.1l-8.8,34.3l5.7,0.6L25.7,125.9z"></path>
		<path d="M96.9,110l-2.8-2.3l-3.3-1.2l-0.3-1.7l-2.5-0.3l-12.5,2.7l-0.4,3.7h-2.2l-3.9-2.1l-0.9,0.5l0.9,8.6l4.6,5.9l-8.2,9.3
			l-6.5,0.2l-1.7-3.9l-3.1-1.2l-2.6-2.2l-3.8-0.4l0.5-3.1l-0.1-0.1L44,122l-1.3,0.5l1,2.5l5.5,2.6l1.8,3.7l3.4,1.3l3.4,8.2l0.1,2.5
			l1.8,0.5l2,4.3l0.2,2.1l2.7,2.5l2.9,5.4l5.2-0.1l5.5-3.1l0.7-7.5l1.1-1.6l-1.2-2.9l2.7-6.4l5.5-1l7.8-3.4l-0.3-4.1l0,0L96.9,110z"></path>
		<path d="M50.6,183.5l2.6-0.5l4-3.7l1.4-6.6l1.7,0.7l4.4-2.7l1.3-3.4l3.1-1.3l-0.6-2.4l0.2-4.6H67l-3.1-5.8l-2.9-2.6l-0.2-2.3
			l-1.7-3.7l-2.1-0.5l-0.1-3.2l-3.2-7.6l-3.4-1.2l-1.8-3.8l-5.5-2.7l-1.1-2.8l-1.3,0.4l-6.8,0.4l-0.1,6.2l2.7,3.9l-9.4,8v3.1
			l3.9,6.2l4,2.2l5.7,9.2l5.6,3.2l-0.1,4l3,1.2l-1.2,3.9l1.2,3.1v0.1L50.6,183.5z"></path>
		<path d="M102.9,28.6l0.1,2.6h5.4l2.5,2.3l-0.9,2h2.5l0.5,2.7l4.2-0.2l1.4,5.3l2.3,2l13.7-1.9l2.8,0.2l-0.2-2.7l-1.2-7.6l2.2-0.8
			l1-3.3l-1.7-3.9l3.6-5.1l-3.4-6.7l-10-1.6l-0.9-4.5l-2.5-0.6l-4.2,7.6l-2.9-0.1l-6.4,6.5l-3.9-3.4l-7-0.8l-0.6,7.6l4.5,2
			L102.9,28.6z"></path>
		<path d="M130.3,107.8l-3.8-3.9l-5.3-0.1l-1.5-2.1l-7.2,2.8l-1.8-2l-5.2-5l-4.5,0.9l-1.8,2.9l-2.1,0.7v3.4l-2.1,1.9l2.9,2.3
			l-2.5,18.5l0.4,4.1l0.9,1.1l8.1-2.1l1.2,3l-0.1,5.6l3,2.3l-0.3,2.5l7.1,4.4l2.3-2.4l2.8,0.2l4.5-3.4l0.4-2.8l-2.3-3.5l-0.3-6.1
			l-1.7,0.5l-1.3-2.7l-2.9-2l-1.3-9.9l12.9-5.7L130.3,107.8z"></path>
		<path d="M50.5,35.3l-2.9,3.1l0.6,2l0,0l2.9,1.5L50,52l1.9,3.1v4l3.5,4v4.1l-1.3,1.3l2,2.4l2.2,2.7l3.3,0.5l4.5-6l5.3-0.7l0.5-0.3
			l5.8-7.5l2.7,2.2v1.4h0.2v0.1l2-0.1v-2.3l1.8-1.1l0.6-5.1h3.8l1.8-1.2l0,0l0,0l0.7-0.5l0.7-2.5l-1.1-3.3l1.5-5.4L94,42l0.8-2.6
			l5.6-5.8l0.7-1.7l-0.8-1.9l-8.4-3.1l-1-6l-4.5-4.1l-2,2.4l-7-2.8l-0.6,4.2l4.7,3.1l-4.7,2.2l-0.1,3.6l-4.4,1.1l-5.1-10.1L63.5,22
			l-3.9,6.7L52,29.5L51.6,29l-0.7,1.4L50.5,35.3z"></path>
		<path d="M98.7,73.6l1.3-2.2l-1.8-3.2l4.4-3.5l-2.7-2.4h-0.1l-5-7.1l-4-0.7l-1.7,1.2h-3.3l-0.5,4.6l-1.8,1.1v2.7l-2.8,0.1l0.4,4.7
			l-2.6,4l-4.3-0.8l-2.4-3.8l-2.6,0.3l-0.7,4.8l0.9,1.3l-0.7,2.8l-5.3,5.2l1.5,2.7l4.6,1.3l-2.8,2.9V92l-3.4,0.7l0.5,8.4l6.2,3.1
			l0.6,3.5l-0.8,0.5l3.3,1.8h1.1l0.4-3.6l13.3-2.8l3.4,0.3l0.3,1.9l2.6,1l2-1.8v-2.6l-0.4,0.1l-4.9-4l0.7-3.2l6.5-0.6l0.4-2.6
			l-2-0.5L96.3,86l-3.1-1.2l-0.5-8.1l3.2-3.8L98.7,73.6z"></path>
		<path d="M133.6,80.7l-6.1,2.8l-2.9-7.4l-6.9-5.1l-5.6-1.5l-2.1-1.3l-6.7-2.9l-4,3.2l1.7,2.9l-1.8,3.3L96.3,74l-2.7,3.1l0.5,7.1
			l3.1,1.1l0.2,5.6l2.2,0.5l-0.8,4.1l-6.5,0.6l-0.4,2.1l4.1,3.3l2.6-1l1.8-2.9l5.4-1.1l5.6,5.4l1.4,1.5l7.2-2.8l1.7,2.3l5.2,0.1
			l3.9,3.9l1.6-3.5l1.9-2.4v-3.4l2.6-0.9l1.5-8.1l-3.6-7.9H133.6z"></path>
		<path d="M18.6,141.3l2.6-6.6l0.3-4.1l1.5-1.7l-5.1-0.6l-3.8,14.5l0.3,2.8L18.6,141.3z"></path>
		<path d="M119.4,195.3l-4.5-4.2l-6.9-0.4l-7.6,3.8l-9.9-2.8l-3.3,2.1l-2.5-1.4v0.2l-4.4-1.1l-7.5,4.9l-4.2,0.8l-2-1.1l-2.2,3.8
			l-2.6-0.4l0.4,3l-5.6,2.5l0.3,0.8L54.8,221l3.2,4.6l12.7-6.4h3.2l-0.2,1l8.7,2l4.3,3.7l2.6-0.9l1.2,2.2l9.5-1.7l4.6,0.8l3.4-2.2
			l3,2.2l0.1-0.4l-0.4-2.7l3.5-3.7l-0.9-2.5l5.6-4.8l-0.3-5.7l-3.8-4.2l0.4-4.8L119.4,195.3z"></path>
		<path d="M42.9,194.7l1.1-5.1l1.7-2.1l-1.5-5.5l3.8-4.3l-1.1-3l1.1-3.4l-2.4-0.9l-3.3,1.3l-1.1,1.9l-7.3-1.1l-3.4,1.8l-0.5-4.8
			l-18.2-0.9l-1.7-1.1l-4.2,19.9l21.2,21.1l2.5,4.8l7.3,4.2l5.6-0.3l0.3-12.6l2.6-6.2l0.4,0.1l-0.6-1.6L42.9,194.7z"></path>
		<path d="M167,59.8l-2.6-10.1l10.4-11.8l-1-9l-1.8,0.3l-0.7,3.7l-3.7,2l-4.3,5.8l-2.4-1.4L148.1,34l-3.1,0.5l1-5.2l-4.3-0.9
			l-1.6,0.9l-1.1,4l-2,0.6l1.1,6.9l0.3,3.8l-3.8-0.3l-14,2l-2.8-2.5l-1.3-4.9l-4.2,0.3l-0.6-2.8h-3l1.1-2.7l-1.7-1.6H103v0.6
			l-1.3,0.7l-0.1-0.2l-0.5,0.9l-5.5,5.8l-0.9,3L93,42.8l-1.2,4.4l1.1,3.3l-0.7,3l-0.3,0.2l3.4,0.7l5.3,7.3l2.9,2.7l6.9,3l2,1.2
			l5.7,1.6l7.3,5.4l2.6,6.7l5.4-2.5h0.9v-0.2l7.1-2.9l3.3,3.7l5.1,2.3l6.3-6.2l7.9,5l7.2-2.6v-3.2l-5.4-9.3L167,59.8z"></path>
		<path d="M136.4,156.2l-5.6-4.2l-6.5-1.9l0.8-5.4l-4,3l-2.7-0.2l-2.6,2.7l-8.2-5.2l0.3-2.5l-2.9-2.3l0.1-5.9l-0.8-2.1l-8,2.1
			l-1.1-1.4l-7.9,3.5l-5.1,0.9l-2.4,5.6l1.3,3l-1.3,1.8l-0.7,7.8l-6.2,3.4l-3.3,0.1l-0.2,4.5l0.8,3.1l-3.5,1.4l-1.2,3.3l-4.1,2.5
			l0.2,0.5l6.7,2.8l4.2-3.5l4.2,3.4l-2.1,1.5l2,3.8l3.8,1.8l2.6,1.1l1.4,6l2.7,1.6l3.2-2.1l10,2.8l7.5-3.7l7.5,0.4l4.9,4.6l6.9-3.5
			l4.8,1.2l3.7-3.4l-4.9-7.2l-3.8-1.5l-0.9-7.9l-3.9-10.3l12.2-4.3L136.4,156.2z"></path>
		<path d="M108,225.2l-3.2,2.1l-4.8-0.9l-10,1.8l-1.1-2.1l-2.5,0.9l-4.4-4l-8.4-1.9l-0.4,2.4l5.8,5.3l-0.5,8.5l-1.5,5.8l1.4,3.9
			l-0.2,6l-10.7,0.7l1.1,6.5l14.3,1.1l0.7,2.1h3l1.2-11.8l8.7-1.8l1.9-8.4l6,3.3l5.3-2.2l-0.4-6.8l1.5-8.4L108,225.2z"></path>
		<path d="M77.8,60.9l-5.3,6.9l2.2,3.5l3.4,0.6l2.1-3.2l-0.5-4.4h-0.2v-2.1L77.8,60.9z"></path>
		<path d="M30.8,168.7l0.4,4.2l2.5-1.3l7.1,1l0.9-1.6l3.5-1.4l0.1-3.5l-5.3-3l-5.7-9.2l-4.1-2.2l-4-6.5l-1.7-1.5h-3.3l-1.7,2.8
			l-2.5,0.7l-3.2,3.2l-3.5,16.1l1.8,1.2L30.8,168.7z"></path>
		<path d="M47.4,41.3l-0.8-3.1l3-3.3l0.4-4.8l1-1.9l-2.1-2.8L40,28.2l-2.4,15l6.9,0.5L47.4,41.3z"></path>
		<path d="M34.6,86.3l8.1,5.7l-0.1,0.1l10-0.3l4.7-2.6l3.7-1.3h2.1l1-2.1l-1.9-3.2l5.7-5.6l0.5-2.2l-0.8-1.2l0.7-4.9l-1.7,0.2
			L62,75.1l-4.2-0.6l-2.4-3.1l-2.5-2.9l1.5-1.7v-3.4l-3.4-4v-4.1l-2-3l1.1-9.9l-1.6-0.8v0.1l-3.7,2.9l-7.3-0.4l-0.4,2.5l-8.9,41.5
			l-1,4l5,0.1L34.6,86.3z"></path>
	</g>
	<path id="bgwhite" class="bg-white" d="M165.5,56.7l-2.6-9.9L173.3,35l-1-9.8l-2.7,0.4l-0.6,3.8l-3.5,1.9l-4.2,5.5l-2-1.2l-13-5.3
			l-2.5,0.4l1-4.9l-5-1.1l-2,1v0.1l-1.6-3.6l3.6-5.1l-3.7-7.2l-9.8-1.5l-0.9-4.5l-3.2-0.8l-4.2,7.7l-2.9-0.2L109,17l-3.6-3.2
			l-7.7-0.9L97,21.4l4.4,2l-0.8,2l0.1,3.2l0,0v0.7l-0.6,0.3l-0.3-0.7l0,0l-1-2.4l-8.3-3.1l-0.9-5.8l-5-4.7l-2.1,2.6l-7.2-2.9
			l-0.8,5.1l4.2,2.8l-4.1,1.9l-0.1,3.5l-3.6,0.9l-5.1-10.1l-4.3,1.8l-3.8,6.6l-7.1,0.7L50,25l0,0l-2.5-3.3l-9.5,3l-2.5,15.8l0,0
			l-0.5,3l-8.9,41.4l-1.2,4.5l0,0l-9.1,35.2l0,0l-3.9,15v0.1l0.4,3.9l4.9-5.1l2.8-6.7l0.3-4.2l2-2.2l0,0l2.2-2.5v-14.2l2.4-9.4
			l3.9-9.9l0,0l2.2-5.7l7.1,5l-0.4,0.4l0,0l-6.8,6.8l0,0l-5.3,5.3l2.2,15.6l10.2,1.5l2.7-2.6l2.2,0.2l1.4,3l-4.5-0.4l-1.8,0.7l0,0
			l-1.6,0.6l-7.2,0.3l-0.2,6.8l2.6,3.6l-9.3,7.9v3.3l-1.8-1.6h-3.7L17,143l-2.4,0.6l-3.5,3.5l-3.5,16.6l0,0l-4.4,20.6v0.3l21.3,21.3
			l2.5,4.9l7.6,4.3l6.2-0.3l0.3-12.9l2.4-5.7l0.8,0.2l0,0l7.7,2l1.7,3.7l0,0l0.5,1.1L52,218.5l3.6,5l13-6.5H71l-0.1,0.8l0,0
			l-0.5,3.2l5.8,5.3l-0.4,8.2l-1.6,5.9l1.4,3.9l-0.1,5.5l-10.8,0.6l1.2,7.5l14.4,1.1l0.8,2.2h3.7l1.2-11.9l8.6-1.9l1.8-8l5.7,3.1
			l5.8-2.4l-0.5-7.1l1.6-8.5l0,0l0.2-1.3l-0.4-2.5l3.6-3.8l-0.9-2.5l5.5-4.8l-0.3-6.2l-3.7-4.2l0.3-4.3l4.6-2.4l0,0l7-3.6l4.9,1.3
			l4.2-3.9l-5.3-7.6l-3.6-1.5l-0.9-7.6l-3.8-9.9l11.6-4.2l2.8-2.2l-6.1-4.6l-6.3-1.8l0.9-6.1l0,0l0.5-3.2l-2.4-3.6l-0.3-6.5
			l-1.9,0.5l-1.1-2.4l-2.9-2l-1.2-9.4l12.7-5.7l1.7-3.7l0,0l1.9-4.1l1.9-2.4v-3.2l2.6-0.9l1.6-8.5l-3.9-8.3l0,0l-0.2-0.4l6.3-2.6
			l3,3.5l5.6,2.6l6.3-6.2l7.8,4.9l7.7-2.9v-3.6l-5.4-9.3L165.5,56.7z M78.1,60.7L78.1,60.7z M69.9,64.7L69.9,64.7h-0.2l0.4-0.2
			L69.9,64.7z"></path>
	<path id="oliveiradobairro" d="M64.3,191.8l2.4,1.5l3.7-0.8l7.8-5l3.3,0.9l-1.3-5.6l-2.1-0.9l-4.2-1.9l-2.4-4.8l1.7-1.3l-2.7-2.1
		l-4.1,3.4l-7.5-3.2l-0.3-0.7l-0.2,0.1l-1.2-0.5l-1.2,5.9l-4.4,4.1l-3.7,0.7l-1.5-5.9l-3.2,3.6l1.5,5.4l-1.8,2.3l-1,4.4l2,2l1,2.4
		l7.7,1.9l1.6,3.5l5-2.2l-0.5-3.5l3.2,0.4L64.3,191.8z" data-municipality-id="13" data-title="Oliveira do Bairro"><title>Oliveira do Bairro</title></path>
	<path id="estarreja" d="M63.8,86.3l2-2.1l-3-0.8l-1.2,2.4h-2.4L55.7,87l-4.9,2.7L39.7,90l-6.2,6.2l2,0.7h4.4l2.8,2.7l5.5,2.2
		l-1.6,4.1l-4.8,1.4v3.8l3.4,4.1l1.9,4.1l-0.3,2.5l3.1,0.4l2.7,2.2l3.3,1.3l1.6,3.6l5.4-0.1l7.5-8.4l-4.2-5.5l-1-9.4l1.4-1l0.2-0.3
		l0.1,0.1l0.7-0.5l-0.4-2.4l-6.3-3.2L60.3,89l3.5-0.7V86.3z" data-municipality-id="8" data-title="Estarreja"><title>Estarreja</title></path>
	<g id="murtosa" data-municipality-id="11" data-title="Murtosa">
		<path d="M44.2,115.3l-3.3-3.9v-4.8l5-1.4l1.1-2.9l-4.8-1.9l-2.7-2.6h-4.1l-2.6-0.9l-4.9,4.9l2.3,14.6l9.7,1.4l2.7-2.7L44.2,115.3z
			"></path>
		<path d="M21.8,125l1.9-2.1v-14l2.5-9.5l3.7-9.2l-5-0.1l-8.8,34.3L21.8,125z"></path>
	<title>Murtosa</title></g>
	<path id="albergariaavelha" d="M94.9,107l-2.8-2.3l-3.3-1.2l-0.3-1.7l-2.5-0.3l-12.5,2.7l-0.4,3.7h-2.2l-3.9-2.1l-0.9,0.5l0.9,8.6
		l4.6,5.9l-8.2,9.3l-6.5,0.2l-1.7-3.9l-3.1-1.2l-2.6-2.2l-3.8-0.4l0.5-3.1l-0.1-0.1L42,119l-1.3,0.5l1,2.5l5.5,2.6l1.8,3.7l3.4,1.3
		l3.4,8.2l0.1,2.5l1.8,0.5l2,4.3l0.2,2.1l2.7,2.5l2.9,5.4l5.2-0.1l5.5-3.1l0.7-7.5l1.1-1.6l-1.2-2.9l2.7-6.4l5.5-1l7.8-3.4l-0.3-4.1
		l0,0L94.9,107z" data-municipality-id="2" data-title="Albergaria-a-Velha"><title>Albergaria-a-Velha</title></path>
	<path id="castelodepaiva" d="M100.9,25.6l0.1,2.6h5.4l2.5,2.3l-0.9,2h2.5l0.5,2.7l4.2-0.2l1.4,5.3l2.3,2l13.7-1.9l2.8,0.2l-0.2-2.7
		l-1.2-7.6l2.2-0.8l1-3.3l-1.7-3.9l3.6-5.1l-3.4-6.7l-10-1.6l-0.9-4.5l-2.5-0.6l-4.2,7.6l-2.9-0.1l-6.4,6.5l-3.9-3.4l-7-0.8
		l-0.6,7.6l4.5,2L100.9,25.6z" data-municipality-id="6" data-title="Castelo de Paiva"><title>Castelo de Paiva</title></path>
	<path id="severdovouga" d="M124.5,100.9l-5.3-0.1l-1.5-2.1l-7.2,2.8l-1.8-2l-5.2-5L99,95.4l-1.8,2.9L95.1,99v3.4l-2.1,1.9l2.9,2.3
		l-2.5,18.5l0.4,4.1l0.9,1.1l8.1-2.1l1.2,3l-0.1,5.6l3,2.3l-0.3,2.5l7.1,4.4l2.3-2.4l2.8,0.2l4.5-3.4l0.4-2.8l-2.3-3.5l-0.3-6.1
		l-1.7,0.5l-1.3-2.7l-2.9-2l-1.3-9.9l12.9-5.7l1.5-3.4L124.5,100.9z" data-municipality-id="17" data-title="Sever do Vouga"><title>Sever do Vouga</title></path>
	<path id="santamariadafeira" d="M49.6,26l-0.7,1.4l-0.4,4.9l-2.9,3.1l0.6,2l0,0l2.9,1.5L48,49l1.9,3.1v4l3.5,4v4.1l-1.3,1.3l2,2.4
		l2.2,2.7l3.3,0.5l4.5-6l5.3-0.7l0.5-0.3l5.8-7.5l2.7,2.2v1.4h0.2v0.1l2-0.1v-2.3l1.8-1.1l0.6-5.1h3.8l1.8-1.2l0,0l0,0l0.7-0.5
		l0.7-2.5l-1.1-3.3l1.5-5.4L92,39l0.8-2.6l5.6-5.8l0.7-1.7L98.3,27l-8.4-3.1l-1-6l-4.5-4.1l-2,2.4l-7-2.8l-0.6,4.2l4.7,3.1l-4.7,2.2
		l-0.1,3.6l-4.4,1.1l-5.1-10.1L61.5,19l-3.9,6.7L50,26.5L49.6,26z" data-municipality-id="15" data-title="Santa Maria da Feira"><title>Santa Maria da Feira</title></path>
	<path id="oliveiradeazemeis" d="M96.7,70.6l1.3-2.2l-1.8-3.2l4.4-3.5l-2.7-2.4h-0.1l-5-7.1l-4-0.7l-1.7,1.2h-3.3l-0.6,4.6l-1.7,1.1
		v2.7l-2.8,0.1l0.4,4.7l-2.6,4l-4.3-0.8l-2.4-3.8l-2.6,0.3l-0.7,4.8l0.9,1.3l-0.7,2.8l-5.3,5.2l1.5,2.7l4.6,1.3l-2.8,2.9V89
		l-3.4,0.7l0.5,8.4l6.2,3.1l0.6,3.5l-0.8,0.5l3.3,1.8h1.1l0.4-3.6l13.3-2.8l3.4,0.3l0.3,1.9l2.6,1l2-1.8v-2.6l-0.4,0.1l-4.9-4
		l0.7-3.2l6.5-0.6l0.4-2.6l-2-0.5L94.3,83l-3.1-1.2l-0.5-8.1l3.2-3.8L96.7,70.6z" data-municipality-id="12" data-title="Oliveira de Azemeis"><title>Oliveira de Azemeis</title></path>
	<path id="valedecambra" d="M131.6,77.7l-6.1,2.8l-2.9-7.4l-6.9-5.1l-5.6-1.5l-2.1-1.3l-6.7-2.9l-4,3.2l1.7,2.9l-1.8,3.3L94.3,71
		l-2.7,3.1l0.5,7.1l3.1,1.1l0.2,5.6l2.2,0.5l-0.8,4.1l-6.5,0.6l-0.4,2.1l4.1,3.3l2.6-1l1.8-2.9l5.4-1.1l5.6,5.4l1.4,1.5l7.2-2.8
		l1.7,2.3l5.2,0.1l3.9,3.9l1.6-3.5l1.9-2.4v-3.4l2.6-0.9l1.5-8.1l-3.6-7.9H131.6z" data-municipality-id="19" data-title="Vale de Cambra"><title>Vale de Cambra</title></path>
	<g id="aveiro" data-municipality-id="5" data-title="Aveiro">
		<path d="M64,164.3l3.1-1.3l-0.6-2.4l0.2-4.6H65l-3.1-5.8l-2.9-2.6l-0.2-2.3l-1.7-3.7l-2.1-0.5l-0.1-3.2l-3.2-7.6l-3.4-1.2
			l-1.8-3.8l-5.5-2.7l-1.1-2.8l-1.3,0.4l-6.8,0.4l-0.1,6.2l2.7,3.9l-9.4,8v3.1l3.9,6.2l4,2.2l5.7,9.2l5.6,3.2l-0.1,4l3,1.2l-1.2,3.9
			l1.2,3.1v0.1l1.5,5.6l2.6-0.5l4-3.7l1.4-6.6l1.7,0.7l4.4-2.7L64,164.3z"></path>
		<path d="M12.4,142.6l4.2-4.3l2.6-6.6l0.3-4.1l1.5-1.7l-5.1-0.6l-3.8,14.5L12.4,142.6z"></path>
	<title>Aveiro</title></g>
	<path id="anadia" d="M112.8,199.3l0.4-4.8l4.2-2.2l-4.5-4.2l-6.9-0.4l-7.6,3.8l-9.9-2.8l-3.3,2.1l-2.5-1.4v0.2l-4.4-1.1l-7.5,4.9
		l-4.2,0.8l-2-1.1l-2.2,3.8l-2.6-0.4l0.4,3l-5.6,2.5l0.3,0.8L52.8,218l3.2,4.6l12.7-6.4h3.2l-0.2,1l8.7,2l4.3,3.7l2.6-0.9l1.2,2.2
		l9.5-1.7l4.6,0.8l3.4-2.2l3,2.2l0.1-0.4l-0.4-2.7l3.5-3.7l-0.9-2.5l5.6-4.8l-0.3-5.7L112.8,199.3z" data-municipality-id="3" data-title="Anadia"><title>Anadia</title></path>
	<path id="vagos" d="M43.2,193.9l-2.3-2.2l1.1-5.1l1.7-2.1l-1.5-5.5l3.8-4.3l-1.1-3l1.1-3.4l-2.4-0.9l-3.3,1.3l-1.1,1.9l-7.3-1.1
		l-3.4,1.8l-0.5-4.8l-18.2-0.9l-1.7-1.1l-4.2,19.9l21.2,21.1l2.5,4.8l7.3,4.2l5.6-0.3l0.3-12.6l2.6-6.2l0.4,0.1L43.2,193.9z" data-municipality-id="18" data-title="Vagos"><title>Vagos</title></path>
	<path id="arouca" d="M165,56.8l-2.6-10.1l10.4-11.8l-1-9l-1.8,0.3l-0.7,3.7l-3.7,2l-4.3,5.8l-2.4-1.4L146.1,31l-3.1,0.5l1-5.2
		l-4.3-0.9l-1.6,0.9l-1.1,4l-2,0.6l1.1,6.9l0.3,3.8l-3.8-0.3l-14,2l-2.8-2.5l-1.3-4.9l-4.2,0.3l-0.6-2.8h-3l1.1-2.7l-1.7-1.6H101
		v0.6l-1.3,0.7l-0.1-0.2l-0.5,0.9l-5.5,5.8l-0.9,3L91,39.8l-1.2,4.4l1.1,3.3l-0.7,3l-0.3,0.2l3.4,0.7l5.3,7.3l2.9,2.7l6.9,3l2,1.2
		l5.7,1.6l7.3,5.4l2.6,6.7l5.4-2.5h0.9v-0.2l7.1-2.9l3.3,3.7l5.1,2.3l6.3-6.2l7.9,5l7.2-2.6v-3.2l-5.4-9.3L165,56.8z" data-municipality-id="4" data-title="Arouca"><title>Arouca</title></path>
	<path id="agueda" d="M134.4,153.2l-5.6-4.2l-6.5-1.9l0.8-5.4l-4,3l-2.7-0.2l-2.6,2.7l-8.2-5.2l0.3-2.5l-2.9-2.3l0.1-5.9l-0.8-2.1
		l-8,2.1l-1.1-1.4l-7.9,3.5l-5.1,0.9l-2.4,5.6l1.3,3l-1.3,1.8l-0.7,7.8l-6.2,3.4l-3.3,0.1l-0.2,4.5l0.8,3.1l-3.5,1.4l-1.2,3.3
		l-4.1,2.5l0.2,0.5l6.7,2.8l4.2-3.5l4.2,3.4l-2.1,1.5l2,3.8l3.8,1.8l2.6,1.1l1.4,6l2.7,1.6l3.2-2.1l10,2.8l7.5-3.7l7.5,0.4l4.9,4.6
		l6.9-3.5l4.8,1.2l3.7-3.4l-4.9-7.2l-3.8-1.5l-0.9-7.9l-3.9-10.3l12.2-4.3L134.4,153.2z" data-municipality-id="1" data-title="Águeda"><title>Águeda</title></path>
	<path id="mealhada" d="M108.8,224.3l-2.8-2.1l-3.2,2.1l-4.8-0.9l-10,1.8l-1.1-2.1l-2.5,0.9l-4.4-4l-8.4-1.9l-0.4,2.4l5.8,5.3
		l-0.5,8.5l-1.5,5.8l1.4,3.9l-0.2,6l-10.7,0.7l1.1,6.5l14.3,1.1l0.7,2.1h3l1.2-11.8l8.7-1.8l1.9-8.4l6,3.3l5.3-2.2l-0.4-6.8
		L108.8,224.3z" data-municipality-id="10" data-title="Mealhada"><title>Mealhada</title></path>
	<path id="saojoaodamadeira" d="M75.8,57.9l-5.3,6.9l2.2,3.5l3.4,0.6l2.1-3.2l-0.5-4.4h-0.2v-2.1L75.8,57.9z" data-municipality-id="16" data-title="São João da Madeira"><title>São João da Madeira</title></path>
	<path id="ilhavo" d="M10.1,164.7l18.7,1l0.4,4.2l2.5-1.3l7.1,1l0.9-1.6l3.5-1.4l0.1-3.5l-5.3-3l-5.7-9.2l-4.1-2.2l-4-6.5l-1.7-1.5
		h-3.3l-1.7,2.8l-2.5,0.7l-3.2,3.2l-3.5,16.1L10.1,164.7z" data-municipality-id="9" data-title="Ilhavo"><title>Ilhavo</title></path>
	<path id="espinho" d="M42.5,40.7l2.9-2.4l-0.8-3.1l3-3.3l0.4-4.8l1-1.9l-2.1-2.8L38,25.2l-2.4,15L42.5,40.7z" data-municipality-id="7" data-title="Espinho"><title>Espinho</title></path>
	<path id="ovar" d="M30.2,89.3l2.4-6l8.1,5.7l-0.1,0.1l10-0.3l4.7-2.6l3.7-1.3h2.1l1-2.1l-1.9-3.2l5.7-5.6l0.5-2.2l-0.8-1.2l0.7-4.9
		l-1.7,0.2L60,72.1l-4.2-0.6l-2.4-3.1l-2.5-2.9l1.5-1.7v-3.4l-3.4-4v-4.1l-2-3l1.1-9.9l-1.6-0.8v0.1l-3.7,2.9l-7.3-0.4l-0.4,2.5
		l-8.9,41.5l-1,4L30.2,89.3z" data-municipality-id="14" data-title="Ovar"><title>Ovar</title></path>
</g>
</svg>