<svg xmlns="http://www.w3.org/2000/svg" viewBox="0 0 339.8 298.3" class="map-svg map-municipalities" data-id="10" data-district="leiria">
<g data-title="leiria" data-district-id="10">
	<g id="map-bg" class="map-bg">
		<path d="M41.7,252l-1-6.6l-7-10.7l-9.3,7.1l-6.3,4.1l-9.8-5l-1.6,4.7l9.8,2.2l6.9,19.9l11.4,1.9l8.5-10.3L41.7,252z"></path>
		<path class="st0" d="M53.4,257.2l4.8-3.5l0.8-2.1l6.6,0.7l1.6,4.5l4.1,1.7l0.7-3.4l6.9,0.3l1.9,1.7l1.8-2.2l2.2,0.5L86,253
			l2.4,1.5l4.7-2.2l-1.1-2.7l-7.3-4.4l-1.8-7l-8-1.5h-0.1l-10.6-5.3l-6.6-1.6l0.7,0.9l-4.4,2.8l-6-9.8l-13.5,10.2l7.1,10.9l1.1,6.8
			l1.4,6.5l0.1-0.1c0,0,2.2,3.8,2.2,4.7c0,0.2,0.5,0.4,1.4,0.5l2.4-6.7L53.4,257.2z"></path>
		<path class="st0" d="M85.4,261.4l-0.8-5.1l-1.6-0.4l-2.1,2.6l-2.4-2.2l-5.6-0.2l-0.8,3.8l-5.7-2.4l-1.5-4.4l-5.2-0.5l-0.6,1.7
			l-5.3,3.9l-2.8-0.5l-2,5.6c3.2,0.2,8.6,0.1,8.6,0.1l4.4,9.5l-3.8,13.2l2.5,1.9l2.8,5l1.9-2.2l7.6-3.2l5-13.5l9.6-9.1l-0.2-1.9
			L85.4,261.4z"></path>
		<path d="M83.7,184.6l2.2,8.8l3.6,1.3l3-2.5l-1-9.7l1.9-3l-1.3-3.8l7.3-2l9.9,1.3l1.4-5.8l-1.3-2.4l-0.3-5.3l3,0.8l0.4-5.8l2.2-2.6
			l-0.4-1.2l-2.6,0.6l-1.3-2.1l-8.5,0.8l-1.9,4.4l-4.4-0.2l-2.4-2.8l-2.2-0.9l-3,12.4l1.9,7.3l-10.4,12.7L83.7,184.6z"></path>
		<path d="M234.6,69.2l6.4,1.6l-1.2,8.8l5.1,0.8l2.6-1.2h2.6l6,4l5.8-3.3l2.9,2.6l3.2-0.1l-1.1-7.1l1.3-2.2l-1.7-5.9l7.9-3.5
			l-1.5-6.3l-2-3.5l-5.1,5.5l-1.9,3.1l-8.5-4.1l4.1-0.6v-4.7l4.4-1l-5.7-8.5V37l-7.6-6.9l-0.9,1.5l1.6,3.8l-1.6,1.9l-6.3-3.5
			l-11.3,7.9l-4.8,0.6l-1.2,7.9l-1.3,1.7l0.8,3.9L234.6,69.2z"></path>
		<path d="M299.9,47.3l-1,3.3l3.2-0.1l0.2,2.4l2.1,1.8l1.5-2.5l-0.5-2l5.6-2.7l-0.9-4.2l2.6-3.6l2.2-3.9V31l1-5.2h3.5l3.1-12.1
			l-10.1-6l-3.8,7.5l-2.6,3.6l-1.3,6.4l-4.7,5.3L299.9,47.3z"></path>
		<path d="M111.4,129.8l3.4-5.1l2.5,8.9l6.1,3.4l0.1-0.1l0.7,0.1l2.8-3.7l0.3-3.9l2.5-1l1.6-3.8l3.1,1.4l5.2-5.6l-0.6-3.9l0.9-5.7
			l-4.2-2.9l-3,0.8l-3.3-6.4l4.2-5.1l-0.2-2.6l-4.6-4.5l-2.4-9l4.8-1.5l2.8-3.1l-2.8-2.7l-5.2-0.8l-1.4,3.1l-3.1-1.4l-6.7-0.5
			l-13.3,34l-3,12.3l10.7,8.8L111.4,129.8z"></path>
		<path d="M110.6,233l0.2-1.8l-3.2-0.2l-3.8-4.9l4.8-1.6l3.2-4.2l0.1-4.9l-6.4-0.3l-3.2-3.2l-8.7-3.4l-5.2-0.2l-0.7,2.3l-4.8,3.3
			l-5.7-1.9l-0.1-5.2l-4-3.5l-2.6-5.7l-3-0.5l-16,24.6l5.2,6.9l7.9,1.9l10.7,5.3l8.4,1.6l1.9,7.2l7.2,4.3l1.7,3.9l-6.1,2.8l-2-1.2
			l-0.9,1.6l0.8,4.9l2,1.9l0.1,1.5l3.1-2.9h7.2l2.9,4.1l7.2,0.6l2.9-6.9l-3.2-3.5l-0.3-11.7l5.5-6.5L110.6,233z"></path>
		<path d="M182.2,181.5l-4.4-3.6l0.2-2.9l-5.3-11.4l-2.7,0.5l-1.9-3h-2l-0.7-1.8l-2-0.9l-4.3,1.2l-6.9-4.5l-1.8-0.1l-2.6-1.2
			l-5.6-0.6l-2-2.6l-8.5,4.9l0,0l-5.4,2.9l4.5,14.4l2.7,3.1l4-1.9l4.7,4.7l-5.8,9.6l0.8,6.3l-2.5,5l-1.4,11.9l8-3.7l34.3-1.6
			l-4.7-15.1l4.4-2.5l4.4,3.1l4.1-2.2l4.1-5.8l-5.6-2.2H182.2z"></path>
		<path d="M293.6,70l-0.9-8.3l1.9-3.7l-1.1-5l4.3-2.3l1.1-3.5l0.1-17.1l4.7-5.3l0.9-4.6l-7-4l-1.2,3.1l-6.4,1.9l-8.1,12.6l4.7,7.3
			h3.8l-2.6,9.4l-5.6-3.7l-1.9-5.7h-2.2l-0.7,5.7l-5.8,6.3l2.3,4l1.7,7.2l-7.8,3.5l1.2,4.1l13.2-3.2l1.6,5.8l-4.1,8.2l-2.3,3.4
			l-1.8,9.8l-0.1,4.1l1.7,2.3l9.1,1.5l1.2-7.3L291,95l-2.5-5.1l12.6-5h0.2l0.5-4.7l-4.3-9.8L293.6,70z"></path>
		<path d="M318.4,29.4l0.7-2.6h-2.3l-0.9,4.3v5l-2.4,4.1l-2.3,3.3l0.9,4.5l-5.5,2.8l0.4,1.6l-2.3,3.8l-3.4-2.8l-0.1-1.9l-3,0.1
			l-3.5,1.9l1,4.6l-1.9,3.8l0.7,7.2l3.7,0.4l4.6,10.5l-0.5,4.8l5.4-0.5l2.8-4.8l1.3-3.4l4.1,1.2l5.7-3.1l3.1-11.4l1.9-5.7l5.7-9.7
			L318.4,29.4z"></path>
		<path d="M274.6,101.9l1.1,0.2l-1.2-1.8l0.1-4.5l1.8-10.1l2.5-3.6l3.8-7.7l-1.2-4.5l-12.1,2.9l0.1,0.1l-1.6,2.6l1.3,7.8l-4.7,0.2
			l-2.7-2.3l-5.7,3.2l-6.3-4.2h-2.1l-2.7,1.2l-5.6-0.8l0.1-0.3l-1.5,2.9l0.8,5.2l0,0l-0.3,3.7l0.8-0.3l6.9,32.2l5.7-1.3l0.6-5.3
			l6.7-1.9l4.1,2.8l9.1-6.3l3.5,3.8l1.9-0.3l-1.9-5.4l1.9-2.5L274.6,101.9z"></path>
		<path d="M187.9,165.2l-4.3-10.2l-2.2-1.6l-3.6-7.1l-4.8-1.9l-6.8-2.7l-2.4,1.5l-6.6-0.5l-3.6-6l-3.7-0.2l-2.1,3.8l-4.2,1.1l-3,4.3
			l-0.1,3.7l2.3,2.8l5.2,0.6l2.7,1.2l1.8,0.1l6.8,4.4l4.1-1.2l2.8,1.3l0.6,1.5h1.8l1.9,2.9l2.8-0.5l5.8,12.4l-0.3,2.6l4,3.1l5.7,2.3
			l2-2.8l-3.8-7.6L187.9,165.2z"></path>
		<path d="M136.2,194.5l-0.9-6.4l0.1-0.2l5.5-9l-3.6-3.7l-4.1,1.9l-3.3-3.8l-4.9-15.4l5.5-2.9l-0.4-1.4l0.4-2.1l-1.1-1.1l-0.7-4.6
			L126,146l-3.5-3.1l0.8-4.9l-6.9-3.7l-2-7.2l-2.6,3.8l-3-0.7l-10.4-8.6l-7.2,29.9l2.7,1l2.2,2.7l3.3,0.1l1.9-4.3l9.6-0.9l1.3,2
			l2.7-0.6l1,2.6l-2.4,2.8l-0.5,6.7l-2.8-0.7l0.2,3.6l1.4,2.6l-1.8,7l-10.5-1.4l-6.1,1.7l1.1,3.2l-2,3.2l1.1,9.8l-3.9,3.2l-4.6-1.6
			l-2.2-8.5l-4.2,0.2l-6.1,7.4v4.7l-0.9-0.1l2.2,4.7l4.2,3.7l0.1,4.9l4.6,1.5l4.1-2.7l0.7-2.8l6.2,0.3l9.1,3.6l3,3l7,0.3l-0.1,6.3
			l-3.6,4.7l-3.7,1.3l2.6,3.3l3.8,0.3l-0.3,2.5l2.8,3.9l0.7-0.8l7-0.7l10.1-22.6l1.5-13.3L136.2,194.5z"></path>
		<path d="M189.8,94.2l-4.7-3.8l-4.9,1.6l-4.3-1.8l-2.8-7.6l-4.3-3.7l-1.3-8.5l-20.6-12.1l-4.8-0.5l-1.3-2l-1.8,1.3l-2.5-3.3
			l-11.8-4.5l-9.4,23.9l6.5,0.5l2.4,1l1.3-2.9l6.3,1.1l3.7,3.5l-3.7,4.1l-4.1,1.3l2.1,7.8l4.6,4.6l0.3,3.4l-4,4.8l2.7,5.1l2.6-0.7
			l5.1,3.5l-1,6.2l0.6,4.3l-5.9,6.4l-2.9-1.2l-1.3,3.2l-2.3,0.9l-0.4,3.6l-3.7,4.9l0,0l-0.6,3.9l2.7,2.5l3.3-0.3l0.7,5.2l1.3,1.3
			l-0.5,2.3l0.3,1l8.1-4.6l0.1-4.6l3.4-4.8l4.1-1.1l2.2-3.9l4.9,0.2l3.6,6.1l5.7,0.4l2.6-1.6l7.2,2.9l5.3,2l3.6,7.2l2.3,1.7
			l10.4-4.6l3.7-6l-1.5-3.1l1.5-5.1l-10.7-1.2l-0.3-6l4.1-0.3l-3.1-15.2l6.9-5.9l6.5-0.9l0.2-3.3L189.8,94.2z"></path>
		<path d="M238.8,79.4l1.1-7.8l-5.9-1.5l-9.4-13.9l-0.7-3.3l-0.4,0.5l-2.8-2.9l-1.6-21.4l-10.7-1.3l-4.7,10.8l-6,1.8l-0.6-5.9
			l-7.9-6.7l-4.1,1.6L163,24.7l-5.3,9.1l-9.5-5l-6.3,0.9l-7.2-5.6l-2.6,6.3l-7,18l12,4.6l2.1,2.7l1.9-1.3l1.6,2.5l4.5,0.5l21.2,12.4
			l1.4,8.6l4.1,3.5l2.8,7.5l3.5,1.6l5.1-1.8l5.1,4.2l12.8,8.9l-0.1,3.7l2.5-0.3l4.7,4.1l13.6-9.5l4.7-6.3l3.5,3.8L234,94l3.5-1.4
			l0.3-4.2l-0.9-5.4L238.8,79.4z"></path>
	</g>
	<g id="bg-white" class="bg-white">
		<path d="M40.2,247.9l-1.1-6.6L31.9,230l-9.8,7.4l-6.1,4l-10-5.2L4.1,242l10,2.2l6.9,19.9l12,2l8.9-10.7L40.2,247.9z"></path>
		<path class="st1" d="M51.5,253.8l5-3.7l0.7-1.9l5.9,0.6l1.6,4.5l4.9,2l0.7-3.6l6.3,0.2l2.2,1.9l1.9-2.4l2.3,0.5l1.2-2.2l2.2,1.3
			l5.4-2.5l-1.4-3.2l-7.2-4.3l-1.8-7.1l-8.2-1.6L62.5,227l-8-1.9l1.2,1.6l-3.6,2.3l-6-9.8L31.9,230l7.3,11.2l1.1,6.8l1.7,7.5
			l0.3-0.3c0.8,1.2,1.4,2.5,1.8,3.9c0,0.7,0.9,0.8,1.8,1h0.4l2.4-6.7L51.5,253.8z"></path>
		<path class="st1" d="M83.9,257.2l-0.8-5.3l-2.3-0.5l-1.9,2.4l-2.2-1.9l-6.2-0.2l-0.7,3.6l-4.9-2l-1.6-4.5l-5.9-0.6l-0.7,1.9
			l-5,3.7l-3-0.5l-2.4,6.7H47c2.8,0.2,7.1,0.1,8.3,0.1l4.2,9l-3.8,13.4l2.7,2l3.1,5.6l2.3-2.7l7.7-3.2l5.1-13.6l9.7-9.2l-0.3-2.3
			L83.9,257.2z"></path>
		<path d="M81.3,181.2l2.2,8.6l4.1,1.5l3.5-2.9l-1.1-9.8l1.9-3.1l-1.2-3.5l6.7-1.8l10.2,1.3l1.6-6.3l-1.3-2.6l-0.3-4.4l2.9,0.7
			l0.5-6.2l2.3-2.7l-0.7-1.9l-2.7,0.6l-1.3-2l-9,0.8l-1.9,4.3l-3.9-0.1l-2.3-2.7l-2.9-1.2l-3.1,13.1l1.9,7.2l-11,13.3L81.3,181.2z"></path>
		<path d="M297.5,26.3l-0.1,17l-1.2,3.8l3.5-0.1l0.1,2.1l2.7,2.3l2-3.1l-0.5-1.8l5.5-2.8l-0.8-4.3l2.4-3.5l2.3-3.9v-5l0.9-4.7h3.5
			l3.3-12.9L310.2,3l-4,7.9l-2.7,3.6l-1.3,6.5L297.5,26.3z"></path>
		<path d="M107.1,125.7l2.5,0.6l3-4.4l2.3,8l6.9,3.9l0.1-0.3h0.5l3-4l0.4-3.8l2.4-0.9l1.5-3.5l3,1.3l5.5-6l-0.6-4.1l1-6l-4.7-3.1
			l-2.8,0.7l-3-5.8l4.1-4.9l-0.3-3l-4.5-4.6l-2.3-8.4l4.4-1.3l3.3-3.6l-3.3-3.1l-5.7-1l-1.4,3l-2.6-1.2l-7.2-0.5l-13.5,34.4l-3,12.5
			L107.1,125.7L107.1,125.7z"></path>
		<path d="M109.1,228.9l0.2-2.2l-3.4-0.2l-3.3-4.1l4.3-1.4l3.4-4.5l0.1-5.6l-6.7-0.3l-3.1-3l-8.8-3.6l-5.8-0.2l-0.7,2.5l-4.4,3
			l-5.2-1.7l-0.1-5l-4.1-3.6l-2.6-5.8l-3.6-0.7l-16.5,25.2l5.6,7.3l8.1,2l10.6,5.2l8.2,1.6l1.8,7.1l7.3,4.3l1.4,3.3l-5.4,2.5
			l-2.2-1.3l-1.2,2.2l0.9,5.2l1.9,2l0.3,2.3l3.6-3.5h6.8l2.8,4.1l7.8,0.6l3.1-7.5l-3.2-3.6l-0.3-11.3l5.7-6.7L109.1,228.9z"></path>
		<path d="M176.3,173.7l0.2-2.7l-5.5-12l-2.8,0.5l-1.9-2.9h-1.9l-0.6-1.6l-2.4-1.1l-4.2,1.2l-6.9-4.5l-1.8-0.1l-2.5-1.1l-5.5-0.7
			l-2.2-2.7l-8.9,5l-5.7,3.1l4.6,14.8l3.1,3.6l4-1.9l4.1,4.2l-5.6,9.4l0.8,6.3l-2.5,4.9l-1.5,12.9l8.7-4l34.9-1.6l-4.8-15.4l3.8-2.1
			l4.4,3.1l4.5-2.4l4.5-6.4l-6.2-2.4L176.3,173.7z"></path>
		<path d="M295.8,66l-3.7-0.5l-0.9-7.7l2-3.7l-1.1-4.8l4.1-2.3l1.2-3.7l0.1-17l4.7-5.3l1-5.1l-7.8-4.4l-1.4,3.4l-6.3,1.9l-8.4,13
			l5,7.8h3.4l-2.2,8.1l-4.9-3.3l-2-5.8h-3l-0.6,5.9l-6,6.5l2.4,4.2L273,60l-7.8,3.5l1.4,5l13.2-3.2l1.5,5.1l-4,8l-2.3,3.4l-1.9,10.1
			l-0.1,4.3l1.9,2.6l9.8,1.6l1.3-7.5l3.7-1.7l-2.5-5l12-4.8l0.6-0.1l0.5-5.2L295.8,66z"></path>
		<path d="M317,25.3l0.7-3l-3.4,0.1l-0.9,4.6v5l-2.3,3.9l-2.4,3.5l0.8,4.4l-5.5,2.7l0.5,1.8l-1.9,3.1l-2.8-2.2l-0.1-2.2l-3.7,0.1
			l-3.9,2.2l1.1,4.8l-1.9,3.7l0.8,7.7l3.7,0.5l4.5,10.1l-0.5,5.2l6.2-0.6l3-5l1.1-3l3.9,1.2l6-3.4l3.2-11.5l1.9-5.6l5.8-10.1
			L317,25.3z"></path>
		<path class="st1" d="M276.4,103.6l-2.8-5.1l1.3,0.2l-1.9-2.6l0.1-4.3l1.8-10l2.4-3.5l4-7.9l-1.4-5.2l-13.2,3.2l-1.5-5.1L273,60
			l-1.5-6.6L269,49l-5.5,6l-1.7,2.8l-6.6-3.2l2.9-0.4v-4.8l4.7-1l-6-9v-6.7l-8.2-7.5l-1.4,2.3l1.5,3.7l-1.1,1.3l-6.2-3.4l-11.5,8
			l-5,0.7l-1.3,8.1l-1.4,1.7l0.9,4.2l9.3,13.7l6.1,1.6l-1.2,8.4l-1.8,3.5l0.8,5.3l-0.4,4.5l1-0.4l6.9,32l6.5-1.4l0.6-5.4l6.1-1.7
			l4.2,2.9l9.1-6.2l3.4,3.7l2.8-0.5l-2-5.7L276.4,103.6z M266.8,69.1l-1.4,2.3l1.2,7.5l-4,0.1l-2.8-2.4l-5.8,3.2l-6.1-4.1h-2.3
			l-2.8,1.2l-4.9-0.8l0,0l4.9,0.8l2.6-1.2h2.4l6.1,4.1l5.8-3.2l2.8,2.4l4-0.1l-1.2-7.4L266.8,69.1L266.8,69.1L266.8,69.1z"></path>
		<path d="M186.4,161.2l-4.4-10.5l-2.2-1.6l-3.6-7.2l-5.1-2l-6.9-2.7l-2.6,1.5l-6.1-0.5l-3.6-6l-4.3-0.2l-2.2,3.9l-4.1,1l-3.2,4.6
			l-0.1,4.1l2.5,3.1l5.4,0.6l2.6,1.2l1.8,0.1l6.9,4.5l4.2-1.2l2.4,1.1l0.6,1.6h1.9l2,2.9l2.7-0.5l5.6,12l-0.3,2.7l4.2,3.3l6.2,2.5
			l2.3-3.4l-3.8-7.7L186.4,161.2z"></path>
		<path d="M134.7,190.5l-0.8-6.3l5.6-9.4l-4.1-4.2l-4.1,1.9l-3-3.5l-4.7-14.9l5.5-2.9l-0.5-1.7l0.5-2.1l-1.2-1.2l-0.8-4.9l-3,0.2
			l-3.1-2.8l0.8-4.9l-6.9-3.8l-2.3-8.1l-3,4.5l-2.5-0.6l-11-9.1l-7.5,31.1l3,1.1l2.2,2.8l3.9,0.1l1.9-4.3l9-0.9l1.3,2.1l2.7-0.6
			l0.7,1.9l-2.3,2.7l-0.4,6.2l-2.9-0.7l0.2,4.3l1.3,2.7l-1.5,6.4l-10.3-1.4l-6.7,1.8l1.2,3.5l-1.9,3.1l1.1,9.8l-3.5,2.9l-4.1-1.5
			l-2.2-8.6l-4.9,0.2l-6.3,7.7v4.3l-1.2-0.2l2.5,5.7l4.2,3.7l0.1,5l5.2,1.7l4.4-3l0.7-2.5l5.7,0.2l8.9,3.5l3.1,3.1l6.7,0.3l-0.1,5.6
			l-3.4,4.5l-4.3,1.4l3.3,4.1l3.5,0.2l-0.3,2.2l3.3,4.6l1-1.2l7-0.6l10.2-22.9l1.6-13.3L134.7,190.5z"></path>
		<path d="M200.5,102.6l0.2-4l-12.6-8.8l-4.9-4l-5,1.7l-3.9-1.7l-2.8-7.6l-4.2-3.6l-1.3-8.5l-20.9-12.2l-4.7-0.5l-1.5-2.3l-1.8,1.3
			l-2.3-3l-12.4-4.7l-9.8,25l7.1,0.5l2.7,1.2l1.4-3l5.8,1l3.2,3.1l-3.2,3.6l-4.5,1.3l2.3,8.4l4.6,4.6l0.2,3l-4.1,4.9l3,5.8l2.8-0.7
			l4.7,3.1l-1,6l0.6,4.1l-5.5,6l-3-1.3l-1.5,3.5l-2.4,1l-0.3,3.7l-3.4,4.4l-0.3-0.1l-0.8,4.9l3.1,2.8l3-0.3l0.8,5l1.2,1.2l-0.5,2.1
			l0.5,1.7l8.8-5l0.2-4.7l3.2-4.6l4.1-1.1l2.2-3.8l4.3,0.2l3.6,6l6.1,0.5l2.6-1.6l6.9,2.8l5.1,2l3.6,7.2l2.7,1.9l10.7-4.8l4-6.3
			l-1.6-3.3l1.7-5.4l-10.9-1.3l-0.3-5.1l4.2-0.3l-3.2-15.4l6.6-5.7L200.5,102.6z"></path>
		<path d="M235.5,79.1l1.7-3.4l1.3-8.5l-6.2-1.6L223.1,52l-0.9-4.2l-0.7,0.8l-2.3-2.3l-1.6-21.7l-11.5-1.3l-4.8,10.8l-5.2,1.7
			l-0.6-5.6l-8.2-6.9l-4.2,1.6l-22.3-4.8l-5.3,9.1l-9.2-4.9l-6.2,0.9l-7.7-6l-2.7,7l-7.3,18.4l12.4,4.8l2.3,3l1.8-1.3l1.5,2.3
			l4.7,0.4L166,66.1l1.3,8.5l4.2,3.6l2.8,7.6l3.9,1.7l5-1.7l4.9,4l12.6,8.8l-0.2,4l2.9-0.4l4.9,4.2l13.8-9.7l4.5-5.9l3.6,3.9
			l2.1-4.3l3.6-1.5l0.4-4.5L235.5,79.1z"></path>
	</g>
	<path id="peniche" d="M39.7,248L39.7,248l-1-6.6l-7-10.7l-9.3,7.1l-6.3,4.1l-9.8-5l-1.6,4.7l9.8,2.2l6.9,19.9l11.4,1.9l8.5-10.3
		L39.7,248z" data-municipality-id="145" data-title="Peniche"><title>Peniche</title></path>
	<path id="obidos" class="st2" d="M48.2,252.7l3.2,0.5l4.8-3.5l0.8-2.1l6.6,0.7l1.6,4.5l4.1,1.7l0.7-3.4l6.9,0.3l1.9,1.7l1.8-2.2
		l2.2,0.5L84,249l2.4,1.5l4.7-2.2l-1.1-2.7l-7.3-4.4l-1.8-7l-8-1.5h-0.1l-10.6-5.3l-6.6-1.6l0.7,0.9l-4.4,2.8l-6-9.8l-13.5,10.2
		l7.1,10.9l1.1,6.8l1.4,6.5l0.1-0.1c0,0,2.2,3.8,2.2,4.7c0,0.2,0.5,0.4,1.4,0.5L48.2,252.7z" data-municipality-id="143" data-title="Óbidos"><title>Óbidos</title></path>
	<path id="bombarral" class="st2" d="M85.3,259.3l-1.9-1.9l-0.8-5.1l-1.6-0.4l-2.1,2.6l-2.4-2.2l-5.6-0.2l-0.8,3.8l-5.7-2.4
		l-1.5-4.4l-5.2-0.5l-0.6,1.7l-5.3,3.9l-2.8-0.5l-2,5.6c3.2,0.2,8.6,0.1,8.6,0.1l4.4,9.5l-3.8,13.2l2.5,1.9l2.8,5l1.9-2.2l7.6-3.2
		l5-13.5l9.6-9.1L85.3,259.3z" data-municipality-id="136" data-title="Bombarral"><title>Bombarral</title></path>
	<path id="nazare" d="M110.5,152.5l2.2-2.6l-0.4-1.2l-2.6,0.6l-1.3-2.1l-8.5,0.8l-1.9,4.4l-4.4-0.2l-2.4-2.8l-2.2-0.9l-3,12.4
		l1.9,7.3l-10.4,12.7l4.2-0.3l2.2,8.8l3.6,1.3l3-2.5l-1-9.7l1.9-3l-1.3-3.8l7.3-2l9.9,1.3l1.4-5.8l-1.3-2.4l-0.3-5.3l3,0.8
		L110.5,152.5z" data-municipality-id="142" data-title="Nazaré"><title>Nazaré</title></path>
	<path id="ansiao" d="M223.6,51.8l9,13.4l6.4,1.6l-1.2,8.8l5.1,0.8l2.6-1.2h2.6l6,4l5.8-3.3l2.9,2.6l3.2-0.1l-1.1-7.1l1.3-2.2
		l-1.7-5.9l7.9-3.5l-1.5-6.3l-2-3.5l-5.1,5.5l-1.9,3.1l-8.5-4.1l4.1-0.6v-4.7l4.4-1l-5.7-8.5V33l-7.6-6.9l-0.9,1.5l1.6,3.8l-1.6,1.9
		l-6.3-3.5l-11.3,7.9l-4.8,0.6l-1.2,7.9l-1.3,1.7L223.6,51.8z" data-municipality-id="134" data-title="Ansião"><title>Ansião</title></path>
	<path id="castanheiradepera" d="M302.7,21.2l-4.7,5.3l-0.1,16.8l-1,3.3l3.2-0.1l0.2,2.4l2.1,1.8l1.5-2.5l-0.5-2l5.6-2.7l-0.9-4.2
		l2.6-3.6l2.2-3.9V27l1-5.2h3.5l3.1-12.1l-10.1-6l-3.8,7.5l-2.6,3.6L302.7,21.2z" data-municipality-id="138" data-title="Castanheira de Pera"><title>Castanheira de Pera</title></path>
	<path id="marinhagrande" d="M107.3,125.3l2.1,0.5l3.4-5.1l2.5,8.9l6.1,3.4l0.1-0.1l0.7,0.1l2.8-3.7l0.3-3.9l2.5-1l1.6-3.8l3.1,1.4
		l5.2-5.6l-0.6-3.9l0.9-5.7l-4.2-2.9l-3,0.8l-3.3-6.4l4.2-5.1l-0.2-2.6l-4.6-4.5l-2.4-9l4.8-1.5l2.8-3.1l-2.8-2.7l-5.2-0.8l-1.4,3.1
		l-3.1-1.4l-6.7-0.5l-13.3,34l-3,12.3L107.3,125.3z" data-municipality-id="141" data-title="Marinha Grande"><title>Marinha Grande</title></path>
	<path id="caldasdarainha" d="M106.2,240l5.5-6.5l-3.1-4.5l0.2-1.8l-3.2-0.2l-3.8-4.9l4.8-1.6l3.2-4.2l0.1-4.9l-6.4-0.3l-3.2-3.2
		l-8.7-3.4l-5.2-0.2l-0.7,2.3l-4.8,3.3l-5.7-1.9l-0.1-5.2l-4-3.5l-2.6-5.7l-3-0.5l-16,24.6l5.2,6.9l7.9,1.9l10.7,5.3l8.4,1.6
		l1.9,7.2l7.2,4.3l1.7,3.9l-6.1,2.8l-2-1.2l-0.9,1.6l0.8,4.9l2,1.9l0.1,1.5l3.1-2.9h7.2l2.9,4.1l7.2,0.6l2.9-6.9l-3.2-3.5L106.2,240
		z" data-municipality-id="137" data-title="Caldas da Rainha"><title>Caldas da Rainha</title></path>
	<path id="portodemos" d="M180.3,177.5h-0.1l-4.4-3.6l0.2-2.9l-5.3-11.4l-2.7,0.5l-1.9-3h-2l-0.7-1.8l-2-0.9l-4.3,1.2l-6.9-4.5
		l-1.8-0.1l-2.6-1.2l-5.6-0.6l-2-2.6l-8.5,4.9l0,0l-5.4,2.9l4.5,14.4l2.7,3.1l4-1.9l4.7,4.7l-5.8,9.6l0.8,6.3l-2.5,5l-1.4,11.9
		l8-3.7l34.3-1.6l-4.7-15.1l4.4-2.5l4.4,3.1l4.1-2.2l4.1-5.8L180.3,177.5z" data-municipality-id="147" data-title="Porto de Mós"><title>Porto de Mós</title></path>
	<path id="figueirodosvinhos" d="M299.1,80.9h0.2l0.5-4.7l-4.3-9.8l-3.9-0.4l-0.9-8.3l1.9-3.7l-1.1-5l4.3-2.3l1.1-3.5l0.1-17.1
		l4.7-5.3l0.9-4.6l-7-4l-1.2,3.1l-6.4,1.9l-8.1,12.6l4.7,7.3h3.8l-2.6,9.4l-5.6-3.7l-1.9-5.7h-2.2l-0.7,5.7l-5.8,6.3l2.3,4l1.7,7.2
		l-7.8,3.5l1.2,4.1l13.2-3.2l1.6,5.8l-4.1,8.2l-2.3,3.4l-1.8,9.8l-0.1,4.1l1.7,2.3l9.1,1.5l1.2-7.3L289,91l-2.5-5.1L299.1,80.9z" data-municipality-id="139" data-title="Figueiró dos Vinhos"><title>Figueiró dos Vinhos</title></path>
	<path id="pedrogaogrande" d="M316.4,25.4l0.7-2.6h-2.3l-0.9,4.3v5l-2.4,4.1l-2.3,3.3l0.9,4.5l-5.5,2.8l0.4,1.6l-2.3,3.8l-3.4-2.8
		l-0.1-1.9l-3,0.1l-3.5,1.9l1,4.6l-1.9,3.8l0.7,7.2l3.7,0.4l4.6,10.5l-0.5,4.8l5.4-0.5l2.8-4.8l1.3-3.4l4.1,1.2l5.7-3.1l3.1-11.4
		l1.9-5.7l5.7-9.7L316.4,25.4z" data-municipality-id="144" data-title="Pedrógão Grande"><title>Pedrógão Grande</title></path>
	<path id="alvaiazere" d="M272.6,97.9l1.1,0.2l-1.2-1.8l0.1-4.5l1.8-10.1l2.5-3.6l3.8-7.7l-1.2-4.5l-12.1,2.9l0.1,0.1l-1.6,2.6
		l1.3,7.8l-4.7,0.2l-2.7-2.3l-5.7,3.2l-6.3-4.2h-2.1l-2.7,1.2l-5.6-0.8l0.1-0.3l-1.5,2.9l0.8,5.2l0,0l-0.3,3.7l0.8-0.3l6.9,32.2
		l5.7-1.3l0.6-5.3l6.7-1.9l4.1,2.8l9.1-6.3l3.5,3.8l1.9-0.3l-1.9-5.4l1.9-2.5L272.6,97.9z" data-municipality-id="133" data-title="Alvaiázere"><title>Alvaiázere</title></path>
	<path id="batalha" d="M175.8,142.3l-4.8-1.9l-6.8-2.7l-2.4,1.5l-6.6-0.5l-3.6-6l-3.7-0.2l-2.1,3.8l-4.2,1.1l-3,4.3l-0.1,3.7
		l2.3,2.8l5.2,0.6l2.7,1.2l1.8,0.1l6.8,4.4l4.1-1.2l2.8,1.3l0.6,1.5h1.8l1.9,2.9l2.8-0.5l5.8,12.4l-0.3,2.6l4,3.1l5.7,2.3l2-2.8
		l-3.8-7.6l1.2-7.3l-4.3-10.2l-2.2-1.6L175.8,142.3z" data-municipality-id="135" data-title="Batalha"><title>Batalha</title></path>
	<path id="alcobaca" d="M131.7,195.3l2.5-4.8l-0.9-6.4l0.1-0.2l5.5-9l-3.6-3.7l-4.1,1.9l-3.3-3.8l-4.9-15.4l5.5-2.9l-0.4-1.4
		l0.4-2.1l-1.1-1.1l-0.7-4.6L124,142l-3.5-3.1l0.8-4.9l-6.9-3.7l-2-7.2l-2.6,3.8l-3-0.7l-10.4-8.6l-7.2,29.9l2.7,1l2.2,2.7l3.3,0.1
		l1.9-4.3l9.6-0.9l1.3,2l2.7-0.6l1,2.6l-2.4,2.8l-0.5,6.7l-2.8-0.7l0.2,3.6l1.4,2.6l-1.8,7l-10.5-1.4l-6.1,1.7l1.1,3.2l-2,3.2
		l1.1,9.8l-3.9,3.2l-4.6-1.6l-2.2-8.5l-4.2,0.2l-6.1,7.4v4.7l-0.9-0.1l2.2,4.7l4.2,3.7l0.1,4.9l4.6,1.5l4.1-2.7l0.7-2.8l6.2,0.3
		l9.1,3.6l3,3l7,0.3l-0.1,6.3l-3.6,4.7l-3.7,1.3l2.6,3.3l3.8,0.3l-0.3,2.5l2.8,3.9l0.7-0.8l7-0.7l10.1-22.6L131.7,195.3z" data-municipality-id="132" data-title="Alcobaça"><title>Alcobaça</title></path>
	<path id="leiria" d="M185.9,130.4l-0.3-6l4.1-0.3l-3.1-15.2l6.9-5.9l6.5-0.9l0.2-3.3l-12.4-8.6l0,0l-4.7-3.8l-4.9,1.6l-4.3-1.8
		l-2.8-7.6l-4.3-3.7l-1.3-8.5l-20.6-12.1l-4.8-0.5l-1.3-2l-1.8,1.3l-2.5-3.3l-11.8-4.5l-9.4,23.9l6.5,0.5l2.4,1l1.3-2.9l6.3,1.1
		l3.7,3.5l-3.7,4.1l-4.1,1.3l2.1,7.8l4.6,4.6l0.3,3.4l-4,4.8l2.7,5.1l2.6-0.7l5.1,3.5l-1,6.2l0.6,4.3l-5.9,6.4l-2.9-1.2l-1.3,3.2
		l-2.3,0.9l-0.4,3.6l-3.7,4.9l0,0l-0.6,3.9l2.7,2.5l3.3-0.3l0.7,5.2l1.3,1.3l-0.5,2.3l0.3,1l8.1-4.6l0.1-4.6l3.4-4.8l4.1-1.1
		l2.2-3.9l4.9,0.2l3.6,6.1l5.7,0.4l2.6-1.6l7.2,2.9l5.3,2l3.6,7.2l2.3,1.7l10.4-4.6l3.7-6l-1.5-3.1l1.5-5.1L185.9,130.4z" data-municipality-id="140" data-title="Leiria"><title>Leiria</title></path>
	<path id="pombal" d="M235.8,84.4l-0.9-5.4l1.9-3.6l1.1-7.8l-5.9-1.5l-9.4-13.9l-0.7-3.3l-0.4,0.5l-2.8-2.9l-1.6-21.4l-10.7-1.3
		l-4.7,10.8l-6,1.8l-0.6-5.9l-7.9-6.7l-4.1,1.6L161,20.7l-5.3,9.1l-9.5-5l-6.3,0.9l-7.2-5.6l-2.6,6.3l-7,18l12,4.6l2.1,2.7l1.9-1.3
		l1.6,2.5l4.5,0.5l21.2,12.4l1.4,8.6l4.1,3.5l2.8,7.5l3.5,1.6l5.1-1.8l5.1,4.2l12.8,8.9l-0.1,3.7l2.5-0.3l4.7,4.1l13.6-9.5l4.7-6.3
		l3.5,3.8L232,90l3.5-1.4L235.8,84.4z" data-municipality-id="146" data-title="Pombal"><title>Pombal</title></path>
</g>
</svg>