<svg xmlns="http://www.w3.org/2000/svg" viewBox="0 0 190.8 214.8" class="map-svg map-municipalities" data-id="11" data-district="lisboa">
<g data-title="lisboa" data-district-id="11">
	<g id="map-bg" class="map-bg">
		<path d="M81.6,183.7l0.2-0.3l-4-5.9l-0.2-1.4l-1.7-0.5l-0.1-3l-2.9-0.2l-0.6,3.5l-2.5,2.4l2.2,10.5l-4.9,0.4l0.6,2.4l8.6-0.9
			l2.8,3.9l2.1-4.1l-1.5-3l0.1-2.5L81.6,183.7z"></path>
		<path d="M83.2,180.2l6.1-4.3l3.9-3.7l-0.5-0.2l-0.7-2.9h-1.2l-2.1,1.6l-2-3.6l-5.6-0.1l-0.4-2.8l-5.9-1.5l-0.7,1.6l-0.1,2.2
			l3.7,1.9l0.1,4.3l-1.3-0.1l0.2,2.4l1.6,0.6l0.2,1.6l3.6,5.4L83.2,180.2z"></path>
		<path d="M53.3,49.7l-0.8,2.9l1.3,1.1l5.7-3.3l0.8,1.1l2.8-4l9.7-1.6l-0.4-5.2l9.2,0.4l5.7,5L87,41.8L86.9,42l-3.8-5.5l-0.5-8.6
			l2.5-4l-2.5-3.6l-0.5-6.5L69.5,11l-1.3-1.7l-5,2.5l-1,3.3l-1.8-0.6l-1,5.6l-11.6-4.5l1.5,4.5l-2.2,25.2l-1.4,3.1l5.4-1.4
			L53.3,49.7z"></path>
		<path d="M84.9,105.1l-2.3,1.5l-1.5-2l-1.1,0.7l2.3,4.6l-1,8.7l-5.3,1.1l-0.4,1.6l-1.6,2.2l4.9-0.6l2.6-1.2l2.7-0.3l1.2,1.6
			l4.3-1.6l0.9-1.4l-3.7-3.3l1.9-3.7l3.9,0.4l0.2,3.7l1.3,1.1l-0.1-3.1l5.3-1.3v-2.5l3-3.4l1.5,1.7l-0.2,3.7l0.8,0.2l0.1-1.8
			l1.9-1.2l-1.6-1.8l0.9-7.8l0.1-1.6l-5.6-1.8l-6.7,1.4l-2.3,2.2L92,103l-3.6,2.2L84.9,105.1z"></path>
		<path d="M93.8,50.5l4.1-0.9l6.7,5.4l10.4-1.7l5.5,0.8l5.1-3.2l0.2-1.7l3.6,0.5l0,0l4.7-17.2l1.5-3.2l-1.1,0.1l1.2-11.3l-5.3-1.8
			h-6.5l-2-4.8l-6.3-0.5l-9.4,6.3l-1,4.3l-3.7,2.5l-1.3,6.1l-4.5,6l-2.8-1l-1,3.3l-2.8,1L87.7,41l0.4,5.8L93.8,50.5z"></path>
		<path d="M123.9,112.5l-4.4-11.1l-1.8,1.5l-2.6-0.2l-1.3,1.6l-5-3.9l-0.1,2.8l-2.2-1.6l-0.8,6.8l1.9,2.3l-2.3,1.4l-0.1,2.3
			l-2.3-0.4l0.3-4.1l-0.8-0.9l-2.3,2.6v2.8l-5.2,1.3l0.2,4l-3-2.2l-0.1-3.4l-2.8-0.3l-1.3,2.7l3.7,3.4l-1.1,1.8l1.4,1.8l-0.7,5.3
			l0.7,0.7l2.4-3.1l6.8,1l0.7,2.8l3.7,2.1l5.3-2.7l-0.9-1.7v-2.8l-4-3.5l4.5-3.5l7.6,4.1l0.7-1.3l4.5-0.9l1.6,0.3l-0.2-2.5l0.7-1.7
			L123.9,112.5z"></path>
		<path class="st0" d="M131,52.1l-1-1.5l0,0l-3.5-0.5l-0.2,1.3l-5.6,3.5l-5.6-0.8l-10.6,1.6l-6.7-5.3L94,51.2l-1,1.5l5.4,15.1
			l-6.5,6.9l0.8,3.8l7.7,5.5v0.2c-0.3,1.9-0.4,3.9-0.5,5.9c0.2,0.2,0.5,0.7,0.7,2.1l0,0l0.1,4.8l6,1.9l-0.1,2l1.4,1l0.1-2.9l5.6,4.4
			l1.1-1.4l2.7,0.2l2.5-1.8l1.8,4.6l2.9-1.9l4.5,0.8l1.2,3.3l3.1,0.1l2.6-4.1l8.4,4.4l3.5-4.8h-0.3l-0.6-5l-2.6,1.4l-3.5-2.3
			l2.6-6.4l2-9.9l-4.1-4v-1.9l9.1,0.1l-1.1-3.8l-3.1-3.8l-0.1-5.6l-2.5,0.9l-6.9-6l0.8-4.2L131,52.1z"></path>
		<path d="M105.5,159.9l-3.1-0.6l0.1-8.2l3.9-1.6l0.4-1.4l-4.3-6.4l10.2-1.6l0.4-5.8l-1.6-1l-0.3-2.9v-0.1l-5.7,2.9l-4.3-2.5
			l-0.7-2.6l-5.9-0.9l-2.1,2.7l-0.6-0.4l0.7,0.8l-0.9,2.7l-3.6,1.8l-2.5,2.6l-2.9,0.9l-1-2.7l-5.8-1.2l-1.1,2.3l1,2.8l0.8,4.6
			l-1.1,2.9l0.8,1.8l-2.5,3.5l-0.1-0.1l0.2,1.6l1.1,1.3v1.9l-2.2,0.1l1.8,4.7l6.8,1.8l0.4,2.6l5.4,0.2l1.7,3.1l1.6-1.2h2.1l0.8,3.1
			l2.1,1l1.8,2.4l7.7,3l4.5-2.6l0.8-9l2.2-4.1l-6.4-0.2L105.5,159.9z"></path>
		<path class="st0" d="M30.3,91.3l6.2-3.6L39,91l2.4-0.7l4.2,1.5l0.1,6.2l3.6,0.3l1.6,2.9l-1.4,1.8l1.2,1.2l3.6-0.7l1.3,2.4l1.9-2.5
			l-0.1-4.7l2.3-0.1l1.1,2.4l5.8,0.1l4,4.2l2.2,0.2l4.9-4.2l1.9,3.2l0.1-0.1l0,0l1.6-1l1.5,2l1.9-1.2l3.5,0.1l2.9-1.8l-0.6-1.8
			l2.9-2.6l6.6-1.4l-0.1-4.6c-0.1-0.5-0.2-1-0.4-1.5c-0.1,0-0.1-0.1-0.1-0.1c-0.1-0.2-0.3-0.3,0-3.5c0.1-1.1,0.2-2.3,0.3-2.8
			L92,78.9l-0.9-4.5l6.5-6.8l-5.4-15l1-1.6l-5.7-3.7l-6.2-5.5l-8-0.3l0.3,5l-10.1,1.7l-3.1,4.5l-1.1-1.3l-5.6,3.2l-2-1.8l0.8-3
			l-1.7-2.1l-5.5,1.4L35,72.5l-5.5,12.3l1,5.8L30.3,91.3z"></path>
		<path d="M96.8,175.4L95,173l-1.1-0.5l-4.1,4l0,0l-6,4.2l-1.2,2.6l0.3,0.5l-2.3,1.6l-0.1,2l1.5,3.1l-2.5,4.9l-3.1,6.2l-0.9,2.6
			l0.5,0.2l22.4-3.5l9.9-11.3l1.1-13.5l-4.3,2.6L96.8,175.4z"></path>
		<path d="M164.9,99.9h0.1l-6.6-1.3l-0.6,2.9l2.6,1.5l-0.5,2.4l-7.5,1l-1.6-2.7l1.4-2.4l-0.8-0.7l-2.5,1.9l-4.3,5.9l-8.4-4.3
			l-2.4,3.9l-4-0.2l-1.2-3.4l-3.8-0.7l-2.8,1.8l2.6,6.7l1.5,3.9l-0.7,1.8l0.3,3.4l-2.5-0.5l-4,0.8l-0.8,1.7l-8-4.3l-3.3,2.6l3.6,3.2
			v2.9l1.3,2.4l0.3,2.7l1.6,1l-0.4,7l-9.7,1.5l3.9,5.7l-0.7,2.1l-3.7,1.5l-0.1,7.1l2.9,0.5l0.6,1.9l5.9,0.3l-0.1,0.6l0.5-0.9
			l2.1-6.5l6.3-5.8l4.2-5.6l1.8-8l3.8-9.1l2.3,0.3l1.2,9l-2.8,8.6l4.6,5.5l-2.8,4.1l5.8,9.3l7.3-13.4l4.5-1.7l1-10.1l4.8-4.8
			l0.3-7.8l10.1-5l-5.8-3.8l2.5-0.8l-0.3-3.2l5.3-8.9L164.9,99.9z"></path>
		<path d="M179,80.5l-0.2-4l-4.6-3.5l-4.5,0.2l-7.3-4.5l-2.8-6l-8.3-9.6l5.3,0.7l-0.2-3.5l5.3-0.5l5.3,2l6-1.5l2.5-3.5l-4.3-8.3
			l-6.5-2.3l-3.3-6.5l-9.3,3.7l-2.8-1.5l-2,2.3l-7.5-5.3l-3.3,0.3l-1.6,3.6l-4.7,16.8l1.2,1.7l7.1-0.1l-0.9,4.7l6.2,5.4l3.1-1
			l0.1,6.3l3,3.8l1.5,4.9l-9.4-0.1v0.7l4.2,4.1l-2.1,10.3l-2.4,6l2.6,1.8l3.2-1.7l0.7,5.7V102l3.1-2.4l1.8,1.6l-1.6,2.5l1.2,1.8
			l6.4-0.8l0.4-1.3l-2.6-1.5l0.7-4.2l10.5,2.1l7.1-0.4l5-9h4.3L179,80.5z"></path>
		<path d="M75.8,201.3l2.9-6l-2.8-3.7l-8.8,0.8l-0.7-3.1h-0.1l-0.3-2.4l-4.5-0.9l-2.6,1.5l-1.3-1.2l-1.4,5.7l-1.7,0.3l0.7,3.3
			l-1.5,6.6l-2.5,0.9l1.4,4.7l8.6-5.6l10.6,0.2l3,1.5l0.9-2.6H75.8z"></path>
		<path d="M31.7,127.1l-2.3,1l-0.1,0.5l1.7,1.5l3.5-1.4l4.3,5l0.1,4.3l4.8,2.2l1.7-0.8l2.3,4L51,145l4.5-0.4l2,1l1.1-2.2l5-2.1
			l1.8,0.2l3.2,7.5l4.4-2.2l0.6,4.5l1.8-2.6l-0.7-1.7l1.1-3l-0.7-4.3l-1.2-3.1l1.5-3.1l6.8,1.4l1,2.5l2-0.6l2.5-2.6l3.4-1.7l0.6-2
			l-1.2-1.4l0.6-5.4l-1.2-1.6l-4.7,1.8l-1.3-1.7l-2.2,0.3l-2.6,1.2l-6.8,0.7l2.6-3.4l0.4-1.9l5.3-1.1l1-8l-2.2-4.3h-0.1l-1.8-3.1
			l-4.4,3.8l-2.8-0.2l-4-4.2l-6-0.1l-1.1-2.4l-1,0.1l0.2,4.2l-2.9,3.6l-1.5-3l-3.4,0.7l-2-2.1l1.4-1.9L48.8,99l-3.9-0.3l-0.1-6.4
			L41.3,91l-2.6,0.8l-2.4-3.2l-6.2,3.7l-3.4,14.4l4,17.4L31.7,127.1z"></path>
		<path class="st0" d="M53.1,201.6l1.3-6l-0.8-3.9l2-0.4l1.3-5.7l-0.3-0.2l-1,1.9l-3.2,1.6l-1.4-3.2l-8.1,4.6l-4.9-6.1
			c-0.2,0.2-0.4,0.6-0.7,0.9c-1.1,1.3-1.4,1.4-1.7,1.4l0,0c-0.2,0-0.3-0.1-0.4-0.2c-0.4-0.4-4.9-3.5-7.7-5.4l-10.7,0.9l-1.7,1.4
			l1.7,2.8L14,199.9l14.1,4.8l1.8-3.8l5-0.2l16.1,8.1l0.8-0.5l-1.7-5.5L53.1,201.6z"></path>
		<path class="st0" d="M16.6,181.1l11.2-0.9l0.1,0.1c1.7,1.1,6.8,4.6,7.9,5.5c0.7-0.7,1.4-1.5,2-2.3L38,183l5.1,6.3l8.2-4.7l1.4,3.3
			l2.2-1.2l1.4-2.5l2.6,2.3l2.4-1.3l5.3,1l0.3,2.2L71,188l-2.1-10l2.7-2.5l0.7-3.9l3.9,0.2h0.3l0,0H77l-0.1-3l-3.7-2l0.1-2.8
			l0.7-1.5l-2.3-6.2l2.4-0.1v-0.9L73,154l-0.7-6.1l-4.2,2l-3.3-7.8l-1.2-0.2l-4.6,2l-1.3,2.6l-2.4-1.2l-4.6,0.3l-3.7-1.7l-2.1-3.6
			l-1.4,0.6l-5.6-2.4l-0.1-4.6l-3.8-4.4l-3.4,1.4l-1.9-1.7L10,175.1l4.4,7.3L16.6,181.1z"></path>
	</g>
	<path id="bg-white" class="bg-white" d="M177.5,76.4l-0.2-4.2l-4.9-3.7l-4.5,0.2l-7.1-4.4l-2.7-5.9l-7.5-8.6l4.6,0.6l-0.3-3.6l4.7-0.5l5.3,2l6.4-1.5
		l2.8-4l-4.5-8.7l-6.6-2.3l-3.4-6.8l-9.5,3.9l-2.9-1.6l-2,2.2l-7.3-5.1l-3.8,0.3l0,0l-1.1,0.2l1.3-11.2l-5.7-1.9h-6.4l-2-4.7
		l-6.8-0.6l-9.6,6.5l-1,4.3L99,19.8L97.7,26l-4.2,5.6l-2.9-1.1l-1.1,3.6l-2.7,1l-1.6,1.8l0,0l-0.3,0.3l-3.3-4.9L81.1,24l2.6-4.2
		l-2.6-3.6l-0.6-6.8L67.8,6.6l-1.4-2l-5.6,2.8l-1,3L58,9.9l-1,5.5l-12-4.7l1.8,5.4l-2.2,25l-1.8,4l0,0L32.5,68.3l-5.6,12.4l1,5.9
		l-0.4,1.7l0,0l-3.3,14.3v0.1l4,17.6l0.9,2.6l-2,0.9l-0.4,0.9l0,0l-19,46.6l4.8,7.8l0,0l1.8,3l-2.8,14.1l14.9,5.1l1.9-3.9l4.6-0.2
		l16.2,8.1l1.4-0.9l0,0l8.8-5.7l10.3,0.2l3.3,1.5l0,0L74,201l22.7-3.6l10.1-11.6l1.2-14.6l0,0l0.8-8.9l1.2-2.2l0,0l1-1.8l0.3-0.7
		l0,0l0.2-0.2l2-6.5l6.3-5.8l4.2-5.6l1.9-8.1l3.6-8.7l1.5,0.1l1.2,8.6l-2.8,8.7l4.5,5.5l-2.8,4l6.4,10.3l7.6-14l4.7-1.8l1-10.2
		l4.8-4.8l0.3-7.7l10.6-5.3l-5.7-3.6l1.9-0.6l-0.3-3.5l5.5-9.1l-3.7-2.9l1.9-0.1l0,0l7.5-0.4l5-9h4.8L177.5,76.4z"></path>
	<path id="amadora" d="M79.6,179.7l0.2-0.3l-4-5.9l-0.2-1.4l-1.7-0.5l-0.1-3l-2.9-0.2l-0.6,3.5l-2.5,2.4l2.2,10.5l-4.9,0.4l0.6,2.4
		l8.6-0.9l2.8,3.9l2.1-4.1l-1.5-3l0.1-2.5L79.6,179.7z" data-municipality-id="149" data-title="Amadora"><title>Amadora</title></path>
	<path id="odivelas" d="M81.2,176.2l6.1-4.3l3.9-3.7l-0.5-0.2l-0.7-2.9h-1.2l-2.1,1.6l-2-3.6l-5.6-0.1l-0.4-2.8l-5.9-1.5l-0.7,1.6
		l-0.1,2.2l3.7,1.9l0.1,4.3l-1.3-0.1l0.2,2.4l1.6,0.6l0.2,1.6l3.6,5.4L81.2,176.2z" data-municipality-id="158" data-title="Odivelas"><title>Odivelas</title></path>
	<path id="lourinha" d="M43.7,44.4l5.4-1.4l2.2,2.7l-0.8,2.9l1.3,1.1l5.7-3.3l0.8,1.1l2.8-4l9.7-1.6l-0.4-5.2l9.2,0.4l5.7,5L85,37.8
		L84.9,38l-3.8-5.5l-0.5-8.6l2.5-4l-2.5-3.6l-0.5-6.5L67.5,7l-1.3-1.7l-5,2.5l-1,3.3l-1.8-0.6l-1,5.6l-11.6-4.5l1.5,4.5l-2.2,25.2
		L43.7,44.4z" data-municipality-id="156" data-title="Lourinhã"><title>Lourinhã</title></path>
	<path id="sobraldemonteagraco" d="M82.9,101.1l-2.3,1.5l-1.5-2l-1.1,0.7l2.3,4.6l-1,8.7l-5.3,1.1l-0.4,1.6l-1.6,2.2l4.9-0.6
		l2.6-1.2l2.7-0.3l1.2,1.6l4.3-1.6l0.9-1.4l-3.7-3.3l1.9-3.7l3.9,0.4l0.2,3.7l1.3,1.1l-0.1-3.1l5.3-1.3v-2.5l3-3.4l1.5,1.7l-0.2,3.7
		l0.8,0.2l0.1-1.8l1.9-1.2l-1.6-1.8l0.9-7.8l0.1-1.6l-5.6-1.8l-6.7,1.4l-2.3,2.2L90,99l-3.6,2.2L82.9,101.1z" data-municipality-id="161" data-title="Sobral de Monte Agraço"><title>Sobral de Monte Agraço</title></path>
	<path id="cadaval" d="M86.1,42.8l5.7,3.7l4.1-0.9l6.7,5.4l10.4-1.7l5.5,0.8l5.1-3.2l0.2-1.7l3.6,0.5l0,0l4.7-17.2l1.5-3.2l-1.1,0.1
		l1.2-11.3l-5.3-1.8h-6.5l-2-4.8L113.6,7l-9.4,6.3l-1,4.3l-3.7,2.5l-1.3,6.1l-4.5,6l-2.8-1l-1,3.3l-2.8,1L85.7,37L86.1,42.8z" data-municipality-id="152" data-title="Cadaval"><title>Cadaval</title></path>
	<path id="arrudadosvinhos" d="M121.9,108.5l-4.4-11.1l-1.8,1.5l-2.6-0.2l-1.3,1.6l-5-3.9l-0.1,2.8l-2.2-1.6l-0.8,6.8l1.9,2.3
		l-2.3,1.4l-0.1,2.3l-2.3-0.4l0.3-4.1l-0.8-0.9l-2.3,2.6v2.8l-5.2,1.3l0.2,4l-3-2.2l-0.1-3.4l-2.8-0.3l-1.3,2.7l3.7,3.4l-1.1,1.8
		l1.4,1.8l-0.7,5.3l0.7,0.7l2.4-3.1l6.8,1l0.7,2.8l3.7,2.1l5.3-2.7l-0.9-1.7v-2.8l-4-3.5l4.5-3.5l7.6,4.1l0.7-1.3l4.5-0.9l1.6,0.3
		l-0.1-2.5l0.6-1.7L121.9,108.5z" data-municipality-id="150" data-title="Arruda dos Vinhos"><title>Arruda dos Vinhos</title></path>
	<path id="alenquer" class="st1" d="M129,48.1l-1-1.5l0,0l-3.5-0.5l-0.2,1.3l-5.6,3.5l-5.6-0.8l-10.6,1.7l-6.7-5.3L92,47.3l-1,1.4
		l5.4,15.1l-6.5,6.9l0.8,3.8l7.7,5.5v0.2c-0.3,1.9-0.4,3.9-0.5,5.9c0.2,0.2,0.5,0.7,0.7,2.1l0,0l0.1,4.8l6,1.9l-0.1,2l1.4,1l0.1-2.9
		l5.6,4.4l1.1-1.4l2.7,0.2l2.5-1.8l1.8,4.6l2.9-1.9l4.5,0.8l1.2,3.3l3.1,0.1L134,99l8.4,4.4l3.5-4.8h-0.3l-0.6-5l-2.6,1.4l-3.5-2.3
		l2.6-6.4l2-9.9l-4.1-4v-1.9l9.1,0.1l-1.1-3.8l-3.1-3.8l-0.1-5.6l-2.5,0.9l-6.9-6l0.8-4.2L129,48.1z" data-municipality-id="148" data-title="Alenquer"><title>Alenquer</title></path>
	<path id="loures" d="M104.4,145.5l0.4-1.4l-4.3-6.4l10.2-1.6l0.4-5.8l-1.6-1l-0.3-2.9v-0.1l-5.7,2.9l-4.3-2.5l-0.7-2.6l-5.9-0.9
		l-2.1,2.7l-0.6-0.4l0.7,0.8l-0.9,2.7l-3.6,1.8l-2.5,2.6l-2.9,0.9l-1-2.7l-5.8-1.2l-1.1,2.3l1,2.8l0.8,4.6l-1.1,2.9l0.8,1.8
		l-2.5,3.5l-0.1-0.1l0.2,1.6l1.1,1.3v1.9l-2.2,0.1l1.8,4.7l6.8,1.8l0.4,2.6l5.4,0.2l1.7,3.1l1.6-1.2h2.1l0.8,3.1l2.1,1l1.8,2.4
		l7.7,3l4.5-2.6l0.8-9l2.2-4.1l-6.4-0.2l-0.6-2l-3.1-0.6l0.1-8.2L104.4,145.5z" data-municipality-id="155" data-title="Loures"><title>Loures</title></path>
	<path id="torresvedras" class="st1" d="M28.3,87.3l6.2-3.6L37,87l2.4-0.7l4.2,1.5l0.1,6.2l3.6,0.3l1.6,2.9L47.6,99l1.2,1.2l3.6-0.7
		l1.3,2.4l1.9-2.5l-0.1-4.7l2.3-0.1l1.1,2.4l5.8,0.1l4,4.2l2.2,0.2l4.9-4.2l1.9,3.2l0.1-0.1l0,0l1.6-1l1.5,2l1.9-1.2l3.5,0.1
		l2.9-1.8l-0.6-1.8l2.9-2.6l6.6-1.4L98,88.1c-0.1-0.5-0.2-1-0.4-1.5c-0.1,0-0.1-0.1-0.1-0.1c-0.1-0.2-0.3-0.3,0-3.5
		c0.1-1.1,0.2-2.3,0.3-2.8L90,74.9l-0.9-4.5l6.5-6.8l-5.4-15l1-1.6l-5.7-3.7l-6.2-5.5l-8-0.3l0.3,5l-10.1,1.7l-3.1,4.5l-1.1-1.3
		l-5.6,3.2l-2-1.8l0.8-3l-1.7-2.1l-5.5,1.4L33,68.5l-5.5,12.3l1,5.8L28.3,87.3z" data-municipality-id="162" data-title="Torres Vedras"><title>Torres Vedras</title></path>
	<path id="lisboa" d="M103.1,174.7l-8.3-3.3L93,169l-1.1-0.5l-4.1,4l0,0l-6,4.2l-1.2,2.6l0.3,0.5l-2.3,1.6l-0.1,2l1.5,3.1l-2.5,4.9
		l-3.1,6.2l-0.9,2.6l0.5,0.2l22.4-3.5l9.9-11.3l1.1-13.5L103.1,174.7z" data-municipality-id="154" data-title="Lisboa"><title>Lisboa</title></path>
	<path id="vilafrancadexira" d="M162.9,95.9h0.1l-6.6-1.3l-0.6,2.9l2.6,1.5l-0.5,2.4l-7.5,1l-1.6-2.7l1.4-2.4l-0.8-0.7l-2.5,1.9
		l-4.3,5.9l-8.4-4.3l-2.4,3.9l-4-0.2l-1.2-3.4l-3.8-0.7l-2.8,1.8l2.6,6.7l1.5,3.9l-0.7,1.8l0.3,3.4l-2.5-0.5l-4,0.8l-0.8,1.7l-8-4.3
		l-3.3,2.6l3.6,3.2v2.9l1.3,2.4l0.3,2.7l1.6,1l-0.4,7l-9.7,1.5l3.9,5.7l-0.7,2.1l-3.7,1.5l-0.1,7.1l2.9,0.5l0.6,1.9l5.9,0.3
		l-0.1,0.6l0.5-0.9l2.1-6.5l6.3-5.8l4.2-5.6l1.8-8l3.8-9.1l2.3,0.3l1.2,9l-2.8,8.6l4.6,5.5l-2.8,4.1l5.8,9.3l7.3-13.4l4.5-1.7
		l1-10.1l4.8-4.8l0.3-7.8l10.1-5l-5.8-3.8l2.5-0.8l-0.3-3.2l5.3-8.9L162.9,95.9z" data-municipality-id="163" data-title="Vila Franca de Xira"><title>Vila Franca de Xira</title></path>
	<path id="azambuja" d="M177,76.5l-0.2-4l-4.6-3.5l-4.5,0.2l-7.3-4.5l-2.8-6l-8.3-9.6l5.3,0.7l-0.2-3.5l5.3-0.5l5.3,2l6-1.5l2.5-3.5
		l-4.3-8.3l-6.5-2.3l-3.3-6.5l-9.3,3.7l-2.8-1.5l-2,2.3l-7.5-5.3l-3.3,0.3l-1.6,3.6l-4.7,16.8l1.2,1.7l7.1-0.1l-0.9,4.7l6.2,5.4
		l3.1-1l0.1,6.3l3,3.8l1.5,4.9l-9.4-0.1v0.7l4.2,4.1l-2.1,10.3l-2.4,6l2.6,1.8l3.2-1.7l0.7,5.7V98l3.1-2.4l1.8,1.6l-1.6,2.5l1.2,1.8
		l6.4-0.8l0.4-1.3l-2.6-1.5l0.7-4.2l10.5,2.1l7.1-0.4l5-9h4.3L177,76.5z" data-municipality-id="151" data-title="Azambuja"><title>Azambuja</title></path>
	<path id="oeiras" d="M73.7,197.3h0.1l2.9-6l-2.8-3.7l-8.8,0.8l-0.7-3.1h-0.1l-0.3-2.4l-4.5-0.9l-2.6,1.5l-1.3-1.2l-1.4,5.7
		l-1.7,0.3l0.7,3.3l-1.5,6.6l-2.5,0.9l1.4,4.7l8.6-5.6l10.6,0.2l3,1.5L73.7,197.3z" data-municipality-id="159" data-title="Oeiras"><title>Oeiras</title></path>
	<path id="mafra" d="M29.7,123.1l-2.3,1l-0.1,0.5l1.7,1.5l3.5-1.4l4.3,5l0.1,4.3l4.8,2.2l1.7-0.8l2.3,4L49,141l4.5-0.4l2,1l1.1-2.2
		l5-2.1l1.8,0.2l3.2,7.5l4.4-2.2l0.6,4.5l1.8-2.6l-0.7-1.7l1.1-3l-0.7-4.3l-1.2-3.1l1.5-3.1l6.8,1.4l1,2.5l2-0.6l2.5-2.6l3.4-1.7
		l0.6-2l-1.2-1.4l0.6-5.4l-1.2-1.6l-4.7,1.8l-1.3-1.7l-2.2,0.3l-2.6,1.2l-6.8,0.7l2.6-3.4l0.4-1.9l5.3-1.1l1-8l-2.2-4.3h-0.1
		l-1.8-3.1l-4.4,3.8l-2.8-0.2l-4-4.2l-6-0.1l-1.1-2.4l-1,0.1l0.2,4.2l-2.9,3.6l-1.5-3l-3.4,0.7l-2-2.1l1.4-1.9L46.8,95l-3.9-0.3
		l-0.1-6.4L39.3,87l-2.6,0.8l-2.4-3.2l-6.2,3.7l-3.4,14.4l4,17.4L29.7,123.1z" data-municipality-id="157" data-title="Mafra"><title>Mafra</title></path>
	<path id="cascais" class="st1" d="M48.2,198.6l2.9-1l1.3-6l-0.8-3.9l2-0.4l1.3-5.7l-0.3-0.2l-1,1.9l-3.2,1.6l-1.4-3.2l-8.1,4.6
		l-4.9-6.1c-0.2,0.2-0.4,0.6-0.7,0.9c-1.1,1.3-1.4,1.4-1.7,1.4l0,0c-0.2,0-0.3-0.1-0.4-0.2c-0.4-0.4-4.9-3.5-7.7-5.4l-10.7,0.9
		l-1.7,1.4l1.7,2.8L12,195.9l14.1,4.8l1.8-3.8l5-0.2l16.1,8.1l0.8-0.5L48.2,198.6z" data-municipality-id="153" data-title="Cascais"><title>Cascais</title></path>
	<path id="sintra" class="st1" d="M14.6,177.1l11.2-0.9l0.1,0.1c1.7,1.1,6.8,4.6,7.9,5.5c0.7-0.7,1.4-1.5,2-2.3L36,179l5.1,6.3
		l8.2-4.7l1.4,3.3l2.2-1.2l1.4-2.5l2.6,2.3l2.4-1.3l5.3,1l0.3,2.2L69,184l-2.1-10l2.7-2.5l0.7-3.9l3.9,0.2h0.3l0,0H75l-0.1-3l-3.7-2
		l0.1-2.8l0.7-1.5l-2.3-6.2l2.4-0.1v-0.9L71,150l-0.7-6.1l-4.2,2l-3.3-7.8l-1.2-0.2l-4.6,2l-1.3,2.6l-2.4-1.2l-4.6,0.3l-3.7-1.7
		l-2.1-3.6l-1.4,0.6l-5.6-2.4l-0.1-4.6l-3.8-4.4l-3.4,1.4l-1.9-1.7l-18.4,46l4.4,7.3L14.6,177.1z" data-municipality-id="160" data-title="Sintra"><title>Sintra</title></path>
</g>
</svg>