<svg xmlns="http://www.w3.org/2000/svg" viewBox="0 0 348.8 306.3" class="map-svg map-municipalities" data-id="12" data-district="portalegre">
<g data-title="portalegre" data-district-id="12">
	<g id="map-bg" class="map-bg">
		<path d="M235.6,67l0.2,13.6l-2.4,1.6l0.9,1.7l1.6,0.9l-1.6,9.4l-4.4,3.5l2.6,5v6.6l2.3,3.9l-1.1,1.6l6.8,0.8l0.3,5.5l6,1l1.6-7.2
			l9.8-1.3l-1.2-7.1l-1.1-6.8l4.8-10.8l-2-3.8l2-10.1l-9.7-5.1l-3.2-3.5l-2.6,1.4l-4.4-3.1l-2.4,3.7L235.6,67z"></path>
		<path class="st0" d="M219.8,165.2l0.1-1.2l-5-4l-4.3-6.3l-2.8-1.2l-0.5-6.2l-4-1.7l-0.7-4.3l5.2-2l1-0.6L208,136l0.3-9l3.1-2.6
			l0.6-3.4l-2.1-1.8l0.6-2.2l-3.2-2l-0.1-0.1l-7.2-9.6l-8.4,0.1l-1.1-2.2l-4.4-4.6l-5.2,0.3l-3.6-5.9v-0.1c-0.2-1.9-0.8-7.7-0.9-9.2
			c-0.6-0.2-2.3-0.7-3.9-1l-6.6,5.3l-2.1,6.4l0.8,3.1l-1.2,3.8l-7.6-1.8l-5.2,0.6V100l-0.2,0.6l-5,3.6l-3.2-0.5l-2.9,3l-19.5,7.8
			l-1.4,0.9l1.6,2.1l3.7-1.5l11.2,0.6l3.6-0.3l5.4,3.3l3.3-2.5l1,4.2l3.9,2.6l6.9,2.7l5.4,10.3l6.6,4.2l18.1,12.6l2.4,0.7l3.1,2.5
			l8.9,0.7l3.4,3.3l8.7,4L219.8,165.2z"></path>
		<path d="M144.6,178.3l4.8-0.7v0.2l3.9-1.5l0.9,3.7l11.1,1.7l4.2,0.1l2.2,2.7l0.8,0.3l1-3.6l2.2-2.1v-2.6l2.5-1.3l2.1,0.2l2.6-2
			l3,0.5l4.7,0.3l5.9-4.9l1.3,0.8l0.9-1.8l4.8,1.9l0.3-0.2l0.3,0.5h0.1l2.9-2.1l-0.4-4.7l0.3-1.7l-0.8-0.3l-3.3-3.2l-8.8-0.7
			l-3.2-2.5l-2.4-0.7l0,0L170.3,142l-6.8-4.4l-5.3-10.2l-6.7-2.6l-4.4-2.9l-0.7-2.9l-2.5,1.9l-5.7-3.4l-2.3,0.2l-1.2,10.6l-6,3.5
			l-2.9,1.7l-2.2-0.6l-0.2,1l2.6,2l0.1,7.3l-2.5,3.9l1.9,1.2l7.3-0.1l-3.6,4l-0.1,1.8l1.5,0.5l1.4,2.4l4.7,0.6l0.2,2.6l-2,1.6
			l0.4,1.9l2.4,2.4l-3.8,2.7l0.4,0.8l2.4,0.9l5-3.2l2.7,4.7l-1.2,1.6L144.6,178.3z"></path>
		<path d="M203.7,213.1l3-0.3l2.3-5l-5.4-7.1l1.9-3l-1.5-2.4v-3.7l-2.4-2l-3.2-7.7l0.8-3l-2.8-1.6l0.1-2.3l5.9-4l-3.2-1.3l-1,1.9
			l-1.6-0.9l-5.7,4.7l-5.1-0.4l-2.6-0.4l-2.6,2l-2.2-0.2l-1.6,0.8v2.4l-2.3,2.2l-1.3,4.6l-2.1-1l-2.1-2.5l-3.8-0.1l0,0l-11.9-1.8
			l-0.7-3.2l-3,1.1l1,5.8l-0.9,1.3l3,2.5l3.2-2.5l0.7,2.9l1.9,3.1h2.2l-0.3,10.5l-0.8,1.4l0.3,1.3l1.8-1.6l4.9,4.2l-2,4l-2.3,0.7
			l1,2.3l5.4,0.6l1.2,1.4l2.5-1.7l7.8,5.7l0.7,2.3l1.3-0.9l1.6,0.4v-3l7.1-1.9l1.2,1.9l2.3-1.8l3.6,4.7l2.4-0.5l1.7,1.6l0,0l1.7-2.8
			l-0.5-2.6L203.7,213.1z"></path>
		<path d="M274.1,157.6L274.1,157.6l-9.1,2.7l0,0l-4.7,0.4l-5.1,1.7l-3.1-1.9l-1.9-0.1l-3,1.2l-1-1.3l-0.3,0.3l4.4,5.2l-2.5,1.9
			l-1,2l-4.7,1.6l-2.9,3.8l2.8,1l6.1,7.7l-2.3,2.5l-0.1,3.4l-1.8,2.2l3.4,1.2l0.7,1.3l1.9-0.1l2,6.1l7.9,1.1l1.5,4.6l4.4-2.5
			l8.1-0.1l2.4,1.9l4.6,0.6l4,2.3l2.6,4.2l5.8,0.4l3.3,2.8l0.4,3.1h2l1.9-1.8l2.3-0.1l1.1-3.8l-1.4-3.2l2.1-0.8l-2.4-3.7l-2.7-1.1
			l-2.9-3.3l0.2-8.6l2.8-2l-0.8-2.7l-1.8-0.6l2.6-19.3l-17-4.8l-7-6.4L274.1,157.6z"></path>
		<path d="M217,45.8l0.5,9.1l-3.9,0.5h-0.1l-15.6-5.8l0.6,4.3l1.6,0.1l1.3,3.9l-6.9,0.5l0.7,3.9l2,2.2l0.8,8.3l-3.6,1.8l0.4,2.8
			l-2.8,1.5l-1.8-0.8l-0.6,0.5l2.3,4.5l-0.1,14.1v0.1l-0.7,4.6l1.3,2.4l7.5-0.1l1.1-3.8l8.2-1.2l2.9,1.2l1.9-3.1l12.5-2.3l2.7,1.8
			l4.1-3.2l1.3-8.2l-1.1-0.6l-1.6-2.9l2.8-1.9l-0.2-14.7l3.5,1.6l1.9-2.9l-0.4-0.3l0.2-9.5l-10.9-2.1l-4.3-8.3l-7.6-5.9l-0.1,2.9
			l-1.4,0.1L217,45.8z"></path>
		<path class="st0" d="M258.4,114.8L258.4,114.8l-9.2,1.1l-1.6,7.4l-7.9-1.3l-0.3-5.5l-7.7-0.9l1.8-2.5l-2.1-3.6V103l-2.8-5.3
			l-2.4-1.5l-11.6,2.2l-2.2,3.5l-3.5-1.4l-7.2,1.1l-0.9,3.2l7.1,9.5l3.7,2.3l-0.6,2.3l2,1.8l-0.8,4.6l-3,2.5l-0.3,8.2l1.3,2.4
			l-1.9,1.2l-4.4,1.7l0.4,2.8l4.1,1.7l0.5,6.2l2.5,1l4.4,6.4l5.3,4.2l-0.2,1.8l9.2,3.8l0.2,1.7h3.4l1.3,2.1c1-0.4,1.3-0.2,1.4-0.1
			c0.1,0.1,0.2,0.2,0.3,0.4c0.4,0.6,0.8,1.1,1.3,1.6h0.1l3.3-4.4l4.6-1.6l1-1.8l1.7-1.3l-4.3-5.1l2-1.8l1.2,1.6l2.4-1l2.5,0.1
			l2.9,1.8l4.7-1.6l4.8-0.3l8.9-2.6l1.4-0.9l-2-12l3.2-11.3l-7.4-5.4v-3.9L258.4,114.8z"></path>
		<path d="M95.1,79l11.3,7.9l1.6,4l-1.6,4l-2.4,0.9l-2.5,4.6h-0.1l2.9,6.2l13,8.3l2.1-1.3v-0.1l19.3-7.7l3.2-3.2l3.3,0.5l4.4-3.2
			l3.3-8.6l-3.4-2l-2.6,0.7l-8.4-6.9v-3.3l-4.9-0.3l-0.9-5.8l-5.9-1l-5.4-5.6v-3.2l4.5-0.5l3.2-4.6l-12.5-8.9l-1-2.5l-9.5-2.9
			l-1.8-2.3l-1,2.4l-2.3,2.5l0.6,1.4l-2.9,9.6l-4.8,3.6l1.3,7.1l-2.9,1.8L95.1,79z"></path>
		<path d="M319.5,251.5l-3.6-1.6l-1.1-2.1l-2.7-4.1L309,233l-1.8-1.1l-1.5-3.4l-3.4-3.3l-2.9-0.1l-3.2-2.1l-0.7-6.7l-2.8-2.3
			l-5.9-0.5l-2.8-4.4l-3.5-2l-4.8-0.7l-2.3-1.7l-7.4,0.1l-4.4,2.4l-10.3,11.1l0.2,4.4l-7.4,17.4l2.2,0.8l0.8,5.3l-1.9,1.3l2.3,1
			l-2.4,3.6l-7.2,1.1l1.5,2.6l-1.1,2l1,2l-5.4,3l-1.5,1.6l2.5,0.9l0.3,3.3l-4.3,0.1l3.1,3.1l4.6,12.4l6-2.7l-0.5,3.1l3.7-1.2v2.4
			l7.2-2.4l-0.3-5.9l6.3-5.4l3.5,4.2l6.6-3.6l-0.3-3.2h3.5l2.6,5.3l3.7,0.3l-0.6,2.7l1.8,5l-4.9,8.7l2.8,0.3L278,295l5.5,3.9l2-3.3
			l6.3-3.2l10.1-12.8l7.5,0.9l6.3-13.4l6.6-2.1l0.6-6.9l-3.5-6.5L319.5,251.5z"></path>
		<path class="st0" d="M122.5,65v1.7l4.9,5l6.3,1l0.9,5.8l5,0.2v3.9l7.5,6.2l2.5-0.7l4.6,2.8l-3.1,8.1l4.8-0.5l6.8,1.6l0.8-2.5
			l-0.8-3.1l2.4-7.1l7.2-5.9l0.3,0.1c0,0,1.1,0.3,2.3,0.6c0.7,0.2,1.2,0.3,1.6,0.4c0.6,0.2,1.1,0.4,1.1,0.9c0,0.3,0.5,5.7,0.9,9.3
			l3.1,5.1l5.1-0.3l3.5,3.7l0.6-4l0.1-13.7l-2.7-5.2l1.9-1.4l1.9,0.9l1.6-0.9l-0.4-2.8l3.6-1.8l-0.8-7.2l-2-2.1l-0.8-5.5l6.6-0.6
			l-0.6-1.8l-1.8-0.2l-1-7l17.2,6.4l2.6-0.4l-0.4-7.9l-2-6l1.9-0.2l0.1-2.6l-2.6-2l-2.9-10.4l-4.6-4.2l-1.1-9.2l-4-0.6l-10.4,3.9
			l0.3,3.3L177.3,25l-4.9-9.2L162,22.3l0.9,5.1l-4.3,7.4H152l-2.9,8.3l-5.8,5.1l-8.3,3l-0.4,3.4l-4.3,5.1l-0.3-0.2l-3.6,5L122.5,65z
			"></path>
		<path class="st0" d="M231.5,252.4v11.2l1.7-1.8l4.6-2.6l-0.8-1.5l1.1-2l-2-3.5l8.3-1.2l1.4-2.1l-3-1.3l3.1-2.1l-0.6-3.9l-2.7-1
			l7.7-18.2l-0.2-4.7l10.2-10.9l-0.1-0.2l0.1-0.1l-1.3-4.2l-8-1l-1.9-6l-1.8,0.1l-0.8-1.5l-4.5-1.6l2.7-3.2l0.1-3.4l1.9-2.1
			l-5.3-6.7l-4-1.3l-0.1-0.1c-0.5-0.6-1-1.2-1.5-1.8c-0.3,0.1-0.5,0.2-0.8,0.3l-0.4,0.2l-1.4-2.4h-3.8l-0.2-2l-8.5-3.4l-5.4-0.6
			h-0.1l-7.1-3.3l-0.2,1.2l0.5,5.2l-3.9,2.8l-0.7-0.3l-6,4.1l-0.1,1l2.9,1.6l-0.9,3.5l3,7.1l2.6,2.1v4l1.6,2.7l-1.8,3l5.3,7
			l-2.9,6.2l-2.7,0.4l-0.3,4l0.2,1.2l0.2-0.4l4.3,7.2h3.7l3.9-1.2l0.5,4.5l3.1,0.3l3.4,4.1l-2.7,6.8l2.5,1.5l-1.9,2.8L231.5,252.4z"></path>
		<path d="M339.3,210l2-6.3l-8.1-12.5l-10.9-7.4l-16.4,6.3l-5.5-2l0.8,2.7l-3,2.2l-0.2,7.5l2.4,2.9l2.8,1.1l3.3,5.1l-2.2,0.9
			l1.1,2.6l-1.4,4.8l-2.8,0.2l-1.9,1.8H297l0.3,2.4l2.4,1.6l3.1,0.1l3.8,3.8l1.4,3.3l2,1.1l3.1,11l2.7,4l0.9,1.8l3.7,1.7l3.9-3.8
			l1.2-4.8l17-28.6L339.3,210z"></path>
		<path d="M200.7,223.8l-0.6-0.6l-2.5,0.5l-3.4-4.3l-2.3,1.9l-1.5-2.3l-5.5,1.5v3.5l-2.5-0.6l-2.2,1.4l-1-3.3l-6.8-5l-2.7,1.7
			l-1.6-1.8l-4.5-0.4l-0.6,2.6l-2.4,2.4l-2.9-1l-0.4,2.8l-2.9-0.2l-0.2-2l-2.6-1.5l-2.5,1.4l-1.9-0.9l-2.9,3.3l-2.3-1.1l-0.5,2.6
			l-4.1,0.5l-3.9-7.6l-2.6-0.5l-2.1,3.3v2.1l-3,4l-1.5-1.9l-3.5,0.4V222l-1.7-0.8l-0.2,2.7l1.2,2.1l-0.8,1.4l2.3,1.7l-3.2,2.5
			l-4.3,0.8l2.7,3.3l1.9,2.5l-0.1,2.4l1.8,4.2h2.9l0.5,5l4.9,2.2l15.9,2.8l0.4-3.6l3.1,1.4l5.8-2.5l1.5-5l3.7-4l3.5,5.8l3.4,1.7
			l0.9-2.3l3.5-2.9l7,5.5l2.7-0.1l-0.7-2.8l3.8,0.6l-2.4-2.8l3-1.8l6.1-6.5l7.7,1.7l0.3-2.9l4.8-2l0.4-4.6l-2.8-3.8L200.7,223.8z"></path>
		<path d="M61.4,211l3.1-3.1l0.1-2l5.1-3.7l-0.1-3.3l6.5-8.6l0.6-3.9l5.3-3.9l3,1.6l5.6,0.5l1.3-1.3l1.8-2.4l3.7,2.8l1.5,0.2
			l0.8-2.7l3.3,1.8l2.1-2.3l-0.6-2.2l-1.5-1.4l-0.4-3.5l3.3-6.5l-0.2-2l3-3.6l4.1-1.5l-0.4-2.5l1.8-0.9l1.7,2.1l3.7,0.2l-0.4-5.3
			l1-1.8l4.5,2.5l3.3-0.1l0.2-2.5l2-2.3l-5,0.1l-3.1-2l2.9-4.6l-0.1-6.4l-2.7-2.1l0.4-3l3,0.9l2.6-1.5l5.5-3.2l1.1-9.8l-10.9-0.6
			l-4.2,1.7l-2.3-2.8l-0.2,0.1l-13.7-8.8l-3.3-7.1l-3.9-0.4l-2.7,5.7l-6.4-0.3l0.5,8.3l-9.1,12.8l-3.7,7.8l-8.2-0.3l-0.4-3.3
			l-4.2-0.6l-4.5,6.3l0.9,6l-7.2,6.2l-0.9,3.8l-10.1,7.4l-1.5,4.1l-14.7,5.9l-9.7,17l-2.5,0.3l0.4,3.2l11.9,6.2l0.5,5.5L26,205
			l4.9,0.8l0.3,9l5.6,6.8l3.8-1.6l1.2,3.6l-1.7,1.8l2.4,2.5l6.4-9.5l4.7-4.4l1.8,3l1.9-2.4l0.5-1.7l1.6-1.9H61.4z"></path>
		<path d="M119.7,229.1l-1.9-1.3l1-1.8l-1.1-1.8l0.5-4.6l3.7,1.6v2.2l2.9-0.3l1,1.2l1.9-2.5v-2l2.7-4.3l3.8,0.8l3.9,7.4l2.5-0.4
			l0.6-3.2l2.8,1.4l2.9-3.3l2.1,1l2.6-1.4l3.7,2l0.1,1.7l1,0.1l0.3-3.1l3.6,1.2l1.7-1.7l0.5-2.2l-1.7-4l3.1-0.9l1.3-2.8l-3.5-3
			l-2.4,2.1l-0.9-3.4l0.9-1.6l0.2-9.1h-1.6l-2.3-3.7l-0.4-1.5l-2.5,2l-4.6-3.7l1.4-1.8l-1-5.5l-4.7,0.6l-1.9-6.3l1.2-1.4l-1.7-3
			l-4.6,2.9l-3.3-1.3l-1-2.1l3.5-2.5l-1.7-1.6l-0.6-2.9l2-1.7v-1.1l-4.3-0.6l-1.5-2.5l-0.8-0.3l-0.1,0.2l-4.6,0.1l-3.8-2.1l-0.3,0.6
			l0.5,6.2l-5.4-0.3l-1.5-1.8l-0.3,0.2l0.5,2.6l-4.8,1.7l-2.4,3l0.1,1.8l-3.2,6.6l0.3,2.6l1.4,1.3l0.9,3.2l-3.2,3.5l-2.8-1.6
			l-0.7,2.3l-2.8-0.4l-3-2.3l-1.3,1.5l-1.6,1.7l-6.3-0.5l-2.6-1.3l-4.3,3.2l-0.7,3.7l-6.3,8.5v3.5l-5.1,3.7l-0.1,1.9l-3.8,3.8h-1.9
			l-1,1.1l2.2,4.1h2.3l0.5-2.9l5.8,0.2l0.3,2.7l-2.8-0.3l-2,4.5l4.2,9.5l3.3-1.5l1-7.9l1.9-4.9l8,2.6l0.8,4.6l5.5,3l0.4,7.2
			l-1.4,6.6l3.8-1.3l8.8-2.4l3.4-6.5l8,0.3l0.4,0.5l4.6-0.9L119.7,229.1z"></path>
	</g>
	<g id="bg-white" class="bg-white">
		<path d="M233.1,62.2l0.2,14.1l-2.6,1.8l1.2,2.2l1.4,0.8l-1.4,8.8l-4.7,3.7l2.8,5.3v6.5l2.2,3.8l-1.4,2l7.2,0.8l0.3,5.5l6.8,1.1
			l1.7-7.2l10-1.4l-2.4-14.3l4.9-10.8l-2.1-3.9l2.1-10.3l-10-5.2l-3.4-3.8l-2.7,1.5l-4.5-3.3l-2.5,3.8L233.1,62.2z"></path>
		<path d="M132.8,159.9l2.1,2l-3.6,2.6l0.6,1.4l2.9,1.1l4.8-3l2.2,3.9l-1.2,1.5l1.6,5.4l4.8-0.7l0.1,0.3l3.9-1.5l0.8,3.5l11.5,1.8
			l3.9,0.1l2.2,2.6l1.4,0.6l1.2-4l2.2-2.2v-2.5l2.1-1.1l2.1,0.2l2.6-1.9l2.9,0.4l4.8,0.3l5.8-4.8l1.5,0.9l1-1.9l4.6,1.9l0.1-0.1
			l0.1,0.2l0.4,0.1l3.4-2.4l-0.4-4.9l0.3-1.9l-1-0.5l-3.4-3.3l-8.8-0.6l-3.1-2.5l-2.5-0.7l-18.2-12.7l-6.6-4.3l-5.4-10.2l-6.7-2.6
			l-4.2-2.8l-0.8-3.5l-2.9,2.3l-5.5-3.4l-3,0.2l-1.1,10.8l-8.6,5l-2.6-0.8l-0.2,1.9l2.6,2l0.1,7l-2.7,4.2l2.5,1.5l6.2-0.1l-2.8,3.3
			l-0.2,2.3l1.7,0.6l1.4,2.4l4.6,0.7l0.1,1.9l-2,1.6L132.8,159.9z"></path>
		<path d="M202.2,209.6l2.8-0.4l2.6-5.5l-5.4-7l1.9-3l-1.6-2.5v-3.8l-2.5-2.1l-3.1-7.4l0.8-3.3l-2.8-1.5l0.1-1.8l6.4-4.4L197,165
			l-1,1.9l-1.5-0.8l-5.7,4.7l-4.9-0.2l-2.8-0.5l-2.6,2l-2.2-0.2l-2,1v2.5l-2.2,2.1l-1.2,4.2l-1.5-0.7l-2.2-2.6l-4-0.1l-11.5-1.8
			l-0.8-3.4l-3.8,1.5l1,6l-1.1,1.5l3.7,3l2.9-2.3l0.5,2.3l2.1,3.4h1.9l-0.2,9.9l-0.8,1.5l0.6,2.2l2-1.9l4.2,3.7l-1.6,3.5l-2.7,0.8
			l1.3,3.1l5.5,0.5l1.4,1.6l2.6-1.7l7.4,5.4l0.8,2.8l1.7-1.1l2,0.4V216l6.4-1.7l1.3,2.1l2.3-1.9l3.5,4.5l2.5-0.4l1.4,1.3l0.2,0.2
			l0.5-0.1l1.9-3.1l-0.5-2.8L202.2,209.6z"></path>
		<path d="M271.9,153.1l-8.9,2.7l-4.7,0.4l-5,1.6l-3-1.8l-2.2-0.1l-2.7,1.1l-1.1-1.4l-1.1,0.9l4.4,5.2l-2.1,1.6l-1.1,2l-4.6,1.6
			l-3.4,4.5l3.3,1.1l5.7,7.3l-2.1,2.3l-0.1,3.4l-2.2,2.6l3.9,1.4l0.8,1.4l1.9-0.1l1.9,6.1l7.9,1l1.6,4.9l4.8-2.7l7.8-0.1l2.4,1.8
			l4.7,0.7l3.7,2.1l2.7,4.3l5.9,0.5l3.1,2.6l0.3,3.3h2.7l1.9-1.8l2.5-0.2l1.2-4.2l-1.2-2.9l2.1-0.9l-2.8-4.3l-2.7-1.1l-2.7-3.1
			l0.2-8.1l2.9-2.2l-1-3.2l-1.7-0.6l2.6-19.3l-17.3-4.9l-7.1-6.6L271.9,153.1z"></path>
		<path d="M212.7,36.5l1.8,5.3l0.4,8.6l-3.3,0.5l-16.4-6l0.8,5.4l1.7,0.2l1,2.9L192,54l0.7,4.6l2,2.1l0.8,7.9l-3.6,1.7l0.3,2.8
			l-2.2,1.3l-1.9-0.9l-1.2,0.9l2.5,4.8l-0.1,14l-0.7,4.7l1.4,2.9l8.3-0.1l1.1-3.8l7.7-1.2l3.2,1.3l2-3.2l12.1-2.3l2.9,1.9l4.5-3.5
			l1.4-8.7l-1.3-0.8l-1.4-2.4l2.7-1.8L233,62.1l3.2,1.5l2.4-3.7l-0.6-0.5l0.2-9.6l-11.1-2.2l-4.2-8.1l-8.5-6.6l-0.1,3.4L212.7,36.5z
			"></path>
		<path class="st1" d="M256.9,110.6l-0.1-0.4l-10,1.3l-1.6,7.3l-7-1.1l-0.3-5.5l-7.3-0.9l1.5-2.1l-2.2-3.7V99l-2.9-5.6l-2.6-1.7
			l-12,2.2l-2.1,3.3l-3.2-1.3l-7.7,1.1l-1.1,3.8l7.2,9.7l3.5,2.2l-0.6,2.2l2.1,1.8l-0.7,4.1l-3.1,2.5l-0.3,8.5l1.1,2.1l-1.5,1
			l-4.8,1.8l0.5,3.5l4.1,1.7l0.5,6.2l2.6,1.1l4.3,6.3l5.2,4.2l-0.2,1.9l9.3,3.8l0.2,1.9h3.6l1.4,2.2l0.4-0.1c0.2-0.1,0.8-0.3,1-0.2
			v0.1v0.1c0.4,0.6,0.9,1.2,1.4,1.7l0.1,0.1l0.6,0.2l3.4-4.6l4.6-1.6l1-1.9l2-1.6l-4.3-5.1l1.2-1.1l1.1,1.5l2.6-1.1l2.3,0.1l3,1.8
			l4.9-1.7l4.7-0.3l9-2.6l1.8-1.1l-2-12.3l3.2-11.5l-7.6-5.4V119L256.9,110.6z"></path>
		<path d="M92.7,75.4l11.3,7.8l1.5,3.7l-1.5,3.6l-2.3,0.9l-2.5,4.5l-0.6-0.1l3.3,7.2l13.4,8.4l2.3-1.4l19.3-7.7l3.2-3.2l3.3,0.5
			l4.6-3.4l3.5-9.1l-3.9-2.4l-2.6,0.7l-8-6.5v-3.6l-4.9-0.3l-1-5.8l-6-1l-5.2-5.3v-2.5l4.2-0.5l3.7-5.2l-12.7-9.2L114,43l-9.6-2.9
			l-2.2-2.9l-1.4,3.2L98.4,43l0.7,1.5l-2.9,9.4l-4.8,3.6l1.3,7l-3,1.9L92.7,75.4z"></path>
		<path d="M318.4,247.4l-4.2-1.9l-1-2l-2.7-4l-3-10.8l-1.9-1.1l-1.5-3.3l-3.6-3.6l-3-0.1l-2.8-1.9L294,212l-3.1-2.5l-5.9-0.4
			l-2.7-4.3l-3.6-2.1l-4.8-0.7l-2.3-1.8l-7.8,0.1l-4.4,2.5l-10.6,11.3l0.2,4.5l-7.5,17.8l2.4,0.9l0.7,4.6l-2.4,1.7l2.5,1.1l-1.9,3
			l-7.7,1.1l1.7,3l-1,2l0.9,1.8l-5.1,2.8l-2.1,2.2l3,1.1l0.2,2.4l-5,0.2l3.9,3.8l4.8,12.8l5.5-2.6l-0.5,3l3.9-1.2v2.4l8.2-2.7
			l-0.3-6.1l5.8-4.9l3.4,4.1l7.2-3.9l-0.2-3h2.6l2.5,5.3l3.5,0.3l-0.5,2.2l1.7,5l-5.2,9.1l2.9,0.3l-1.5,3l6.2,4.4l2.2-3.6l6.2-3.2
			l10.1-12.7l7.6,0.9l6.3-13.5l6.8-2.1l0.6-7.4l-3.4-6.3L318.4,247.4z"></path>
		<path class="st1" d="M120,60.5v2.3l5.1,5.3l6.1,1l0.9,5.8l4.9,0.2v3.7l7.9,6.5l2.6-0.7l4,2.5l-3.2,8.4l0,0l-0.3,0.8l-4.7,3.4
			l-3.3-0.5l-3,3.1l-19.5,7.8l-1.9,1.2l2.2,2.8l4-1.6l11.2,0.6l3.4-0.3l5.5,3.4l2.9-2.3l0.8,3.6l4.1,2.7l6.8,2.6l5.2,10.1l0.1,0.1
			l6.7,4.3l18.1,12.6l2.4,0.7l3.2,2.5l8.9,0.7l3.3,3.2l8.8,4l5,0.6l0.2-2l-5.1-4.1l-4.3-6.3l-2.6-1.1l-0.5-6.2l-4.1-1.7l-0.6-3.7
			l4.8-1.9l1.4-0.9l-1.1-2l0.3-8.7l3.1-2.5l0.7-3.9l-2.1-1.8l0.6-2.2l-3.4-2.1l-7.3-9.8l-8.3,0.1l-1-1.9l-4.6-4.9l-5.2,0.3l-3.4-5.6
			l0,0c-0.2-1.9-0.8-7.7-0.9-9.2v-0.3l-0.3-0.1c-0.7-0.2-2.5-0.7-3.9-1.1l-0.2-0.1l-6.8,5.6l-2.2,6.7l0.8,3.1l-1,3.3l-7.3-1.7
			l-4.7,0.5v-0.1l4.8-0.5l7.2,1.7l1-3.1l-0.8-3.1l2.3-6.8l6.9-5.6l0,0c0.2,0,1.2,0.3,2.2,0.5c0.7,0.2,1.2,0.3,1.6,0.4
			s0.7,0.3,0.7,0.4c0,0.4,0.6,6.2,0.9,9.3l3.3,5.6l5.1-0.3l4,4.2l0.8-5.1l0.1-13.9l-2.5-4.9l1.3-1L190,74l2.1-1.2l-0.4-2.8l3.6-1.8
			l-0.8-7.7l-2-2.1l-0.7-4.8l6.7-0.6l-0.9-2.7l-1.7-0.2l-0.8-5.8l16.5,6.1l3.2-0.5l-0.4-8.4l-1.8-5.6l1.7-0.2l0.1-3.3l-2.6-2
			L209,20.2v-0.1l-4.6-4.1l-1.2-9.4l-4.5-0.7l-10.8,4l0.3,3.3l-12.5,6.7l-4.9-9.2l-11.1,7l0.9,5.2l-4.1,7h-6.7l-2.9,8.5l-5.6,4.9
			l-8.5,3l-0.4,3.6l-3.9,4.6l-0.3-0.2l-3.7,5.4L120,60.5z"></path>
		<path class="st1" d="M229,248.7v12.2l2.5-2.6l5-2.8l-0.9-1.7l1.1-2l-1.7-3.1l7.8-1.1l1.8-2.8l-2.7-1.1l2.6-1.7l-0.7-4.5l-2.5-1
			l7.5-17.7v-0.1l-0.2-4.6l10.3-11l-0.1-0.1l0,0l-1.6-4.9l-8-1l-1.9-6.1l-1.9,0.1l-0.7-1.4l-4.1-1.4l2.3-2.8l0.1-3.4l2-2.3l-5.6-7.1
			l-4-1.3l0,0c-0.5-0.5-1-1.1-1.4-1.8l-0.2-0.3l-0.4,0.1c-0.3,0.1-0.6,0.2-0.9,0.3l0,0l-1.4-2.2h-3.6l-0.2-1.9l-8.8-3.5l-5.5-0.6
			l-7.7-3.5l-0.4,1.9l0.5,5l-3.5,2.5l-0.6-0.3l-6.5,4.4l0.2,1.5l2.8,1.6l-0.8,3.3l3.1,7.3l2.5,2.1v3.8l1.5,2.5l-1.8,3l5.3,7
			l-2.7,5.7l-2.8,0.4l-0.4,4.4l0.5,2.6l0.5-0.8l4,6.8h4l3.4-1.1l0.4,4.2l3.3,0.3l3.1,3.8l-2.7,6.9l2.4,1.5L219,241L229,248.7z"></path>
		<path d="M337.9,205.9l2-6.2l-8.2-12.7l-11.3-7.8l-16.5,6.3l-6.3-2.1l1,3.2l-2.9,2.2l-0.2,7.9l2.6,3.1l2.7,1.1l3,4.5l-2.2,0.8
			l1.3,2.9l-1.3,4.4l-2.6,0.1l-1.9,1.8h-2.6l0.3,3.2l2.8,1.8l2.9,0.1l3.7,3.6l1.4,3.4l1.9,1.1l3.1,10.8l2.7,4l1,2l4.2,1.9l4.3-4.2
			l1.1-4.8l17.2-28.8L337.9,205.9z"></path>
		<path d="M199.8,220.1l-1.6-1.4l-2.4,0.5l-3.5-4.5l-2.3,1.9l-1.4-2.2l-6.2,1.7v3.3l-2-0.5l-1.9,1.1l-0.8-2.8l-7.3-5.3l-2.6,1.7
			l-1.4-1.6l-5.3-0.6l-0.5,3l-2.1,2.1l-3.3-1.1l-0.3,2.8l-2-0.1l-0.2-1.9l-3.1-1.7l-2.5,1.4l-2-0.9l-2.9,3.2l-2.5-1.2l-0.6,2.9
			l-3.4,0.5l-3.9-7.5l-3.2-0.7l-2.3,3.7v2.1l-2.5,3.3l-1.3-1.6l-3.2,0.4v-2.5l-2.6-1.1l-0.3,3.5l1.2,2l-1,1.6l2.2,1.5l-2.7,2l-4.9,1
			l3.2,3.9l1.8,2.3l-0.1,2.4l1.9,4.6h2.9l0.4,4.9l5.2,2.2l16.5,2.9l0.4-3.4l2.7,1.2l6.3-2.6l1.5-5.2l3.2-3.4l3.1,5.4l4,2l1.1-2.7
			l3.1-2.6l6.9,5.4l3.4-0.2l-0.7-2.6l4.5,0.7l-2.9-3.3l2.5-1.6l6-6.3l8,1.8l0.3-3.2l4.7-2l0.5-5.1l-2.4-3.4L199.8,220.1z"></path>
		<path d="M59.6,207.5l3.4-3.4l0.1-2l5.1-3.6l-0.1-3.5l6.5-8.5l0.6-3.8l4.8-3.6l2.8,1.5l6,0.5l1.4-1.5l1.6-2l3.4,2.5l2.1,0.4L98,178
			l3.1,1.7l2.6-2.9l-0.7-2.6l-1.5-1.3l-0.4-3.2l3.3-6.5l-0.2-1.9l2.8-3.4l4.4-1.6l-0.5-2.5l1.2-0.6l1.6,2l4.4,0.3l-0.4-5.8l0.7-1.3
			l4.2,2.4l3.9-0.1l0.2-2.8l2.7-3h-6l-2.6-1.6l2.7-4.2l-0.1-6.9l-2.6-2.1l0.3-2l2.6,0.7l8.5-4.9l1.1-10.6l-11.5-0.6l-4,1.6l-2.2-2.9
			l-0.3,0.2l-13.4-8.5l-3.4-7.3L94,95.4l-2.7,5.7l-6.6-0.3l0.4,8.6l-9,12.7l-3.5,7.6l-7.5-0.3l-0.4-3.2l-4.8-0.7l-4.8,6.7l0.9,5.9
			l-7.2,6.1l-0.9,3.8l-10.1,7.4l-1.4,4l-14.7,5.9l-9.6,16.9l-2.8,0.4l0.6,4l11.8,6.1l0.5,5.3l1.5,3.4l4.7,0.8l0.3,8.8l6,7.2l3.5-1.5
			l1,2.8l-1.8,1.9l3.2,3.3l6.7-10l4.2-3.9l1.9,3l2.3-2.9l0.5-1.8l1.4-1.6H59.6z"></path>
		<path d="M118.6,225.1l-2.1-1.5l0.9-1.6l-1.2-2l0.4-3.7l2.8,1.2v2.5l3.2-0.4l1.2,1.5l2.4-3.1v-2.1l2.4-3.8l3.3,0.7l3.9,7.4l3.2-0.4
			l0.6-2.9l2.6,1.2l2.9-3.3l2,1l2.5-1.4l3.2,1.7l0.2,1.9l1.8,0.1l0.4-2.9l3.2,1.1l2.1-2l0.5-2.6l-1.5-3.6l2.7-0.8l1.6-3.3l-4.1-3.6
			l-2.1,1.9l-0.7-2.5l0.9-1.5l0.2-9.7h-1.8l-2.1-3.4l-0.6-2.2l-2.8,2.2l-3.9-3.1l1.2-1.5l-1.1-6.3l-4.8,0.7l-1.6-5.6l1.1-1.5
			l-2.1-3.8l-4.7,3l-3-1.1l-0.6-1.5l3.6-2.6l-2.1-1.9l-0.4-2.5l1.9-1.7v-1.7l-4.5-0.6l-1.5-2.5l-1.6-0.5v0.3l-4.1,0.1l-4.1-2.3
			l-0.6,1.2l0.5,5.8l-4.6-0.3l-1.6-1.9l-1.1,0.5l0.5,2.5L107,158l-2.7,3.4l0.2,1.8l-3.2,6.6l0.3,3l1.5,1.3l0.7,2.8l-2.7,2.9l-3-1.7
			l-0.8,2.6l-2.2-0.4l-3.3-2.5l-1.5,1.9l-1.5,1.5l-6-0.4l-2.8-1.5l-4.7,3.5l-0.6,3.8l-6.5,8.5l0.1,3.5l-5.1,3.6l-0.1,2l-3.5,3.5h-2
			l-1.3,1.5l2.5,4.7h3.1l0.4-2.9l4.9,0.1l0.2,1.8l-2.6-0.3l-2.1,5l4.4,10.2l4-1.9l1.1-8l1.7-4.5l7.3,2.4l0.7,4.6l5.5,2.9l0.4,6.8
			l-1.6,7.4l4.7-1.5l8.9-2.5l3.4-6.4l7.5,0.3l0.4,0.5l5-0.9L118.6,225.1z"></path>
	</g>
	<path id="marvao" d="M236.4,64.4l-2.8-1.4l0.2,13.6l-2.4,1.6l0.9,1.7l1.6,0.9l-1.6,9.4l-4.4,3.5l2.6,5v6.6l2.3,3.9l-1.1,1.6
		l6.8,0.8l0.3,5.5l6,1l1.6-7.2l9.8-1.3l-1.2-7.1l-1.1-6.8l4.8-10.8l-2-3.8l2-10.1l-9.7-5.1l-3.2-3.5l-2.6,1.4l-4.4-3.1L236.4,64.4z" data-municipality-id="173" data-title="Marvão"><title>Marvão</title></path>
	<path id="crato" class="st2" d="M217.8,161.2l0.1-1.2l-5-4l-4.3-6.3l-2.8-1.2l-0.5-6.2l-4-1.7l-0.7-4.3l5.2-2l1-0.6L206,132l0.3-9
		l3.1-2.6l0.6-3.5l-2.1-1.8l0.6-2.2l-3.2-2l-0.1-0.1l-7.2-9.6l-8.4,0.1l-1.1-2.2l-4.4-4.6l-5.2,0.3l-3.6-5.9v-0.1
		c-0.2-1.9-0.8-7.7-0.9-9.2c-0.6-0.2-2.3-0.7-3.9-1l-6.6,5.3l-2.1,6.4l0.8,3.1l-1.2,3.8l-7.6-1.8l-5.2,0.6v0l-0.2,0.6l-5,3.6
		l-3.2-0.5l-2.9,3l-19.5,7.8l-1.4,0.9l1.6,2.1l3.7-1.5l11.2,0.6l3.6-0.3l5.4,3.3l3.3-2.5l1,4.2l3.9,2.6l6.9,2.7l5.4,10.3l6.6,4.2
		l18.1,12.6l2.4,0.7l3.1,2.5l8.9,0.7l3.4,3.3l8.7,4L217.8,161.2z" data-municipality-id="169" data-title="Crato"><title>Crato</title></path>
	<path id="alterdochao" d="M201.8,166l0.3,0.5h0.1l2.9-2.1l-0.4-4.7l0.3-1.7l-0.8-0.3l-3.3-3.2l-8.8-0.7l-3.2-2.5l-2.4-0.7l0,0
		L168.3,138l-6.8-4.4l-5.3-10.2l-6.7-2.6l-4.4-2.9l-0.7-2.9l-2.5,1.9l-5.7-3.4l-2.3,0.2l-1.2,10.6l-6,3.5l-2.9,1.7l-2.2-0.6l-0.2,1
		l2.6,2l0.1,7.3l-2.5,3.9l1.9,1.2l7.3-0.1l-3.6,4l-0.1,1.8l1.5,0.5l1.4,2.4l4.7,0.6l0.2,2.6l-2,1.6l0.4,1.9l2.4,2.4l-3.8,2.7
		l0.4,0.8l2.4,0.9l5-3.2l2.7,4.7l-1.2,1.6l1.4,4.8l4.8-0.7v0.2l3.9-1.5l0.9,3.7l11.1,1.7l4.2,0.1l2.2,2.7l0.8,0.3l1-3.6l2.2-2.1
		v-2.6l2.5-1.3l2.1,0.2l2.6-2l3,0.5l4.7,0.3l5.9-4.9l1.3,0.8l0.9-1.8l4.8,1.9L201.8,166z" data-municipality-id="164" data-title="Alter do Chão"><title>Alter do Chão</title></path>
	<path id="fronteira" d="M200.4,167l-3.2-1.3l-1,1.9l-1.6-0.9l-5.7,4.7l-5.1-0.4l-2.6-0.4l-2.6,2l-2.2-0.2l-1.6,0.8v2.4l-2.3,2.2
		l-1.3,4.6l-2.1-1l-2.1-2.5l-3.8-0.1l0,0l-11.9-1.8l-0.7-3.2l-3,1.1l1,5.8l-0.9,1.3l3,2.5l3.2-2.5l0.7,2.9l1.9,3.1h2.2l-0.3,10.5
		l-0.8,1.4l0.3,1.3l1.8-1.6l4.9,4.2l-2,4l-2.3,0.7l1,2.3l5.4,0.6l1.2,1.4l2.5-1.7l7.8,5.7l0.7,2.3l1.3-0.9l1.6,0.4v-3l7.1-1.9
		l1.2,1.9l2.3-1.8l3.6,4.7l2.4-0.5l1.7,1.6l0,0l1.7-2.8l-0.5-2.6l0.4-5.1l3-0.3l2.3-5l-5.4-7.1l1.9-3l-1.5-2.4v-3.7l-2.4-2l-3.2-7.7
		l0.7-3l-2.7-1.6l0.1-2.3L200.4,167z" data-municipality-id="171" data-title="Fronteira"><title>Fronteira</title></path>
	<path id="arronches" d="M273.9,152.6l-1.8,1l0,0l-9.1,2.7l0,0l-4.7,0.4l-5.1,1.7l-3.1-1.9l-1.9-0.1l-3,1.2l-1-1.3l-0.3,0.3l4.4,5.2
		l-2.5,1.9l-1,2l-4.7,1.6l-2.9,3.8l2.8,1l6.1,7.7l-2.3,2.5l-0.1,3.4l-1.8,2.2l3.4,1.2l0.7,1.3l1.9-0.1l2,6.1l7.9,1.1l1.5,4.6
		l4.4-2.5l8.1-0.1l2.4,1.9l4.6,0.6l4,2.3l2.6,4.2l5.8,0.4l3.3,2.8l0.4,3.1h2l1.9-1.8l2.3-0.1l1.1-3.8l-1.4-3.2l2.1-0.8l-2.4-3.7
		l-2.7-1.1l-2.9-3.3l0.2-8.6l2.8-2l-0.8-2.7l-1.8-0.6l2.6-19.3l-17-4.8L273.9,152.6z" data-municipality-id="165" data-title="Arronches"><title>Arronches</title></path>
	<path id="castelodevide" d="M214.8,36.8l-1.4,0.1l1.6,4.9l0.5,9.1l-3.9,0.5h-0.1l-15.6-5.8l0.6,4.3l1.6,0.1l1.3,3.9l-6.9,0.5
		l0.7,3.9l2,2.2l0.8,8.3l-3.6,1.8l0.4,2.8l-2.8,1.5l-1.8-0.8l-0.6,0.5l2.3,4.5l-0.1,14.1v0.1l-0.7,4.6l1.3,2.4l7.5-0.1l1.1-3.8
		l8.2-1.2l2.9,1.2l1.9-3.1l12.5-2.3l2.7,1.8l4.1-3.2l1.3-8.2l-1.1-0.6l-1.6-2.9l2.8-1.9l-0.2-14.7l3.5,1.6l1.9-2.9l-0.4-0.3l0.2-9.5
		l-10.9-2.1l-4.3-8.3l-7.6-5.9L214.8,36.8z" data-municipality-id="168" data-title="Castelo de Vide"><title>Castelo de Vide</title></path>
	<path id="portalegre" class="st0" d="M256.4,110.8L256.4,110.8l-9.2,1.1l-1.6,7.4l-7.9-1.3l-0.3-5.5l-7.7-0.9l1.8-2.5l-2.1-3.6V99
		l-2.8-5.3l-2.4-1.5l-11.6,2.2l-2.2,3.5l-3.5-1.4l-7.2,1.1l-0.9,3.2l7.1,9.5l3.7,2.3l-0.6,2.3l2,1.8l-0.8,4.6l-3,2.5l-0.3,8.2
		l1.3,2.4l-1.9,1.2l-4.4,1.7l0.4,2.8l4.1,1.7l0.5,6.2l2.5,1l4.4,6.4l5.3,4.2l-0.2,1.8l9.2,3.8l0.2,1.7h3.4l1.3,2.1
		c1-0.4,1.3-0.2,1.4-0.1c0.1,0.1,0.2,0.2,0.3,0.4c0.4,0.6,0.8,1.1,1.3,1.6h0.1l3.3-4.4l4.6-1.6l1-1.8l1.7-1.3l-4.3-5.1l2-1.8
		l1.2,1.6l2.4-1l2.5,0.1l2.9,1.8l4.7-1.6l4.8-0.3l8.9-2.6l1.4-0.9l-2-12l3.2-11.3l-7.4-5.4v-3.9L256.4,110.8z" data-municipality-id="177" data-title="Portalegre"><title>Portalegre</title></path>
	<path id="gaviao" d="M93.1,75l11.3,7.9l1.6,4l-1.6,4l-2.4,0.9l-2.5,4.6h-0.1l2.9,6.2l13,8.3l2.1-1.3v-0.1l19.3-7.7l3.2-3.2l3.3,0.5
		l4.4-3.2l3.3-8.6l-3.4-2l-2.6,0.7l-8.4-6.9v-3.3l-4.9-0.3l-0.9-5.8l-5.9-1l-5.4-5.6v-3.2l4.5-0.5l3.2-4.6l-12.5-8.9l-1-2.5
		l-9.5-2.9l-1.8-2.3l-1,2.4L99,43.1l0.6,1.4l-2.9,9.6l-4.8,3.6l1.3,7.1l-2.9,1.8L93.1,75z" data-municipality-id="172" data-title="Gavião"><title>Gavião</title></path>
	<path id="elvas" d="M317.5,247.5l-3.6-1.6l-1.1-2.1l-2.7-4.1L307,229l-1.8-1.1l-1.5-3.4l-3.4-3.3l-2.9-0.1l-3.2-2.1l-0.7-6.7
		l-2.8-2.3l-5.9-0.5l-2.8-4.4l-3.5-2l-4.8-0.7l-2.3-1.7l-7.4,0.1l-4.4,2.4l-10.3,11.1l0.2,4.4l-7.4,17.4l2.2,0.8l0.8,5.3l-1.9,1.3
		l2.3,1l-2.4,3.6l-7.2,1.1l1.5,2.6l-1.1,2l1,2l-5.4,3l-1.5,1.6l2.5,0.9l0.3,3.3l-4.3,0.1l3.1,3.1l4.6,12.4l6-2.7l-0.5,3.1l3.7-1.2
		v2.4l7.2-2.4l-0.3-5.9l6.3-5.4l3.5,4.2l6.6-3.6l-0.3-3.2h3.5l2.6,5.3l3.7,0.3l-0.6,2.7l1.8,5l-4.9,8.7l2.8,0.3L276,291l5.5,3.9
		l2-3.3l6.3-3.2l10.1-12.8l7.5,0.9l6.3-13.4l6.6-2.1l0.6-6.9l-3.5-6.5L317.5,247.5z" data-municipality-id="170" data-title="Elvas"><title>Elvas</title></path>
	<path id="nisa" class="st2" d="M128,55.5l-3.6,5l-4,0.4v1.7l4.9,5l6.3,1l0.9,5.8l5,0.2v3.9l7.5,6.2l2.5-0.7l4.6,2.8l-3.1,8.1
		l4.8-0.5l6.9,1.7l0.8-2.5l-0.8-3.1l2.4-7.1l7.2-5.9l0.3,0.1c0,0,1.1,0.3,2.3,0.6c0.7,0.2,1.2,0.3,1.6,0.4c0.6,0.2,1.1,0.4,1.1,0.9
		c0,0.3,0.5,5.7,0.9,9.3l3.1,5.1l5.1-0.3l3.5,3.7l0.6-4l0.1-13.7l-2.7-5.2l1.9-1.4l1.9,0.9l1.6-0.9l-0.4-2.8l3.6-1.8l-0.8-7.2
		l-2-2.1l-0.8-5.5l6.6-0.6l-0.6-1.8l-1.8-0.2l-1-7l17.2,6.4l2.6-0.4l-0.4-7.9l-2-6l1.9-0.2l0.1-2.6l-2.6-2l-2.9-10.4l-4.6-4.2
		l-1.1-9.2l-4-0.6l-10.4,3.9l0.3,3.3L175.3,21l-4.9-9.2L160,18.3l0.9,5.1l-4.3,7.4H150l-2.9,8.3l-5.8,5.1l-8.3,3l-0.4,3.4l-4.3,5.1
		L128,55.5z" data-municipality-id="175" data-title="Nisa"><title>Nisa</title></path>
	<path id="monforte" class="st2" d="M229.5,248.4v11.2l1.7-1.8l4.6-2.6l-0.8-1.5l1.1-2l-2-3.5l8.3-1.2l1.4-2.1l-3-1.3l3.1-2.1
		l-0.6-3.9l-2.7-1l7.7-18.2l-0.2-4.7l10.2-10.9l-0.1-0.2l0.1-0.1l-1.3-4.2l-8-1l-1.9-6l-1.8,0.1l-0.8-1.5l-4.5-1.6l2.7-3.2l0.1-3.4
		l1.9-2.1l-5.3-6.7l-4-1.3l-0.1-0.1c-0.5-0.6-1-1.2-1.5-1.8c-0.3,0.1-0.5,0.2-0.8,0.3l-0.4,0.2l-1.4-2.4h-3.8l-0.2-2l-8.5-3.4
		l-5.4-0.6h-0.1l-7.1-3.3l-0.2,1.2l0.5,5.2l-3.9,2.8l-0.7-0.3l-6,4.1l-0.1,1l2.9,1.6l-0.9,3.5l3,7.1l2.6,2.1v4l1.6,2.7l-1.8,3l5.3,7
		l-2.9,6.2l-2.7,0.4l-0.3,4l0.2,1.2l0.2-0.4l4.3,7.2h3.7l3.9-1.2l0.5,4.5l3.1,0.3l3.4,4.1l-2.7,6.8l2.5,1.5l-1.9,2.8L229.5,248.4z" data-municipality-id="174" data-title="Monforte"><title>Monforte</title></path>
	<path id="campomaior" d="M337.3,206l2-6.3l-8.1-12.5l-10.9-7.4l-16.4,6.3l-5.5-2l0.8,2.7l-3,2.2l-0.2,7.5l2.4,2.9l2.8,1.1l3.3,5.1
		l-2.2,0.9l1.1,2.6l-1.4,4.8l-2.8,0.2l-1.9,1.8H295l0.3,2.4l2.4,1.6l3.1,0.1l3.8,3.8l1.4,3.3l2,1.1l3.1,11l2.7,4l0.9,1.8l3.7,1.7
		l3.9-3.8l1.2-4.8l17-28.6L337.3,206z" data-municipality-id="167" data-title="Campo Maior"><title>Campo Maior</title></path>
	<path id="sousel" d="M198.7,219.8l-0.6-0.6l-2.5,0.5l-3.4-4.3l-2.3,1.9l-1.5-2.3l-5.5,1.5v3.5l-2.5-0.6l-2.2,1.4l-1-3.3l-6.8-5
		l-2.7,1.7l-1.6-1.8l-4.5-0.4l-0.6,2.6l-2.4,2.4l-2.9-1l-0.4,2.8l-2.9-0.2l-0.2-2l-2.6-1.5l-2.5,1.4l-1.9-0.9l-2.9,3.3l-2.3-1.1
		l-0.5,2.6l-4.1,0.5l-3.9-7.6l-2.6-0.5l-2.1,3.3v2.1l-3,4l-1.5-1.9l-3.5,0.4V218l-1.7-0.8l-0.2,2.7l1.2,2.1l-0.8,1.4l2.3,1.7
		l-3.2,2.5l-4.3,0.8l2.7,3.3l1.9,2.5l-0.1,2.4l1.8,4.2h2.9l0.5,5l4.9,2.2l15.9,2.8l0.4-3.6l3.1,1.4l5.8-2.5l1.5-5l3.7-4l3.5,5.8
		l3.4,1.7l0.9-2.3l3.5-2.9l7,5.5l2.7-0.1l-0.7-2.8l3.8,0.6l-2.4-2.8l3-1.8l6.1-6.5l7.7,1.7l0.3-2.9l4.8-2l0.4-4.6l-2.8-3.8
		L198.7,219.8z" data-municipality-id="178" data-title="Sousel"><title>Sousel</title></path>
	<path id="pontedesor" d="M55.8,208.9l1.6-1.9h2l3.1-3.1l0.1-2l5.1-3.7l-0.1-3.3l6.5-8.6l0.6-3.9l5.3-3.9l3,1.6l5.6,0.5l1.3-1.3
		l1.8-2.4l3.7,2.8l1.5,0.2l0.8-2.7l3.3,1.8l2.1-2.3l-0.6-2.2l-1.5-1.4l-0.4-3.5l3.3-6.5l-0.2-2l3-3.6l4.1-1.5l-0.4-2.5l1.8-0.9
		l1.7,2.1l3.7,0.2l-0.4-5.3l1-1.8l4.5,2.5l3.3-0.1l0.2-2.5l2-2.3l-5,0.1l-3.1-2l2.9-4.6l-0.1-6.5l-2.7-2l0.4-3l3,0.9l2.6-1.5
		l5.5-3.2l1.1-9.8l-10.9-0.6l-4.2,1.7l-2.3-2.8l-0.2,0.1l-13.7-8.8l-3.3-7.1l-3.9-0.4l-2.7,5.7l-6.4-0.3l0.5,8.3l-9.1,12.8l-3.7,7.8
		l-8.2-0.3l-0.4-3.3l-4.2-0.6l-4.5,6.3l0.9,6l-7.2,6.2l-0.9,3.8l-10.1,7.4l-1.5,4.1l-14.7,5.9l-9.7,17L9.9,183l0.4,3.2l11.9,6.2
		l0.5,5.5L24,201l4.9,0.8l0.3,9l5.6,6.8l3.8-1.6l1.2,3.6l-1.7,1.8l2.4,2.5l6.4-9.5l4.7-4.4l1.8,3l1.9-2.4L55.8,208.9z" data-municipality-id="176" data-title="Ponte de Sor"><title>Ponte de Sor</title></path>
	<path id="avis" d="M111.3,227.4l4.6-0.9l1.8-1.4l-1.9-1.3l1-1.8l-1.1-1.8l0.5-4.6l3.7,1.6v2.2l2.9-0.3l1,1.2l1.9-2.5v-2l2.7-4.3
		l3.8,0.8l3.9,7.4l2.5-0.4l0.6-3.2l2.8,1.4l2.9-3.3l2.1,1l2.6-1.4l3.7,2l0.1,1.7l1,0.1l0.3-3.1l3.6,1.2l1.7-1.7l0.5-2.2l-1.7-4
		l3.1-0.9l1.3-2.8l-3.5-3l-2.4,2.1l-0.9-3.4l0.9-1.6l0.2-9.1h-1.6l-2.3-3.7l-0.4-1.5l-2.5,2l-4.6-3.7l1.4-1.8l-1-5.5l-4.7,0.6
		l-1.9-6.3l1.2-1.4l-1.7-3l-4.6,2.9l-3.3-1.3l-1-2.1l3.5-2.5l-1.7-1.6l-0.6-2.9l2-1.7v-1.1l-4.3-0.6l-1.5-2.5l-0.8-0.3l-0.1,0.2
		l-4.6,0.1l-3.8-2.1l-0.3,0.6l0.5,6.2l-5.4-0.3l-1.5-1.8l-0.3,0.2l0.5,2.6l-4.8,1.7l-2.4,3l0.1,1.8l-3.2,6.6l0.3,2.6l1.4,1.3
		l0.9,3.2l-3.2,3.5l-2.8-1.6l-0.7,2.3l-2.8-0.4l-3-2.3l-1.3,1.5l-1.6,1.7l-6.3-0.5l-2.6-1.3l-4.3,3.2l-0.7,3.7l-6.3,8.5v3.5
		l-5.1,3.7l-0.1,1.9l-3.8,3.8h-1.9l-1,1.1l2.2,4.1h2.3l0.5-2.9l5.8,0.2l0.3,2.7l-2.8-0.3l-2,4.5l4.2,9.5l3.3-1.5l1-7.9l1.9-4.9
		l8,2.6l0.8,4.6l5.5,3l0.4,7.2l-1.4,6.6l3.8-1.3l8.8-2.4l3.4-6.5l8,0.3L111.3,227.4z" data-municipality-id="166" data-title="Avis"><title>Avis</title></path>
</g>
</svg>