<svg xmlns="http://www.w3.org/2000/svg" viewBox="0 0 142.3 76.3" class="map-svg map-municipalities" data-id="14" data-district="madeira">
<g data-title="madeira" data-district-id="14">
	<g id="map-bg" class="map-bg">
		<path d="M135.8,6.9l1.3-0.9l0.4,7.4l-8.5,4.2l-3.8,4.1l-4.2,2.5l-3.2-2.5L121,15l0.5-4.4l10.2-5.8L135.8,6.9z"></path>
		<path d="M8.9,29.1l12-11.5l5.1-0.2l4.1,4.2l2.5,4.5l3.9,1.3l3.2,2l3.3-0.1l5.2,2.5l2.1-1.8l4.1-0.2l5.9-4.2l8.5,1.4l7.8-1.8
			l5.1,5.6l2.9,0.7l-0.6,2l11.7,7.7l2.2-0.4l1.9,1.4l10.9,3.3l5.1-0.8l3.1,0.5l-0.4,1.3l-8,0.6l-5.3,2.2l-5,8.7l-2,0.5l-4.6,7.6
			L91.5,67l-1,1.8h-4.1l-1-1.8l-11.1,0.9l-5.9,3.3l-9.1-4.8l-4.1,0.2l-14.6-7.1h-3.2l-19-12.1l-7-9l-0.5-3.8L8,30.8L8.9,29.1z"></path>
	</g>
	<g id="bg-white" class="bg-white">
		<path class="st0" d="M53.2,56.9l0.6-0.5c0.9-0.8,2.9-3,2.3-5.3c0-0.1-0.1-0.3-0.1-0.4c-0.2-0.4-0.3-0.9-0.2-1.4
			c0.2-0.8,0.7-1.4,1.3-1.8c0.5-0.3,0.8-0.7,1.1-1.2c0.1-0.3,0.1-0.6,0.1-0.9c0-0.4,0-0.7,0.1-1c0.1-0.2,0.2-0.5,0.3-0.7
			c0.1-0.1,0.2-0.3,0.2-0.4c0.3-0.5,0.3-1.1,0.1-1.6c-0.7,0-1.5,0-2.2-0.1c-1.2-0.1-2.3-0.1-3.5,0c-0.9,0.1-1.8,0.2-2.7,0.4
			s-1.8,0.3-2.8,0.4h-0.1l-0.3,2c-0.1,0.9-0.8,1.7-1.7,1.8c-0.3,0.1-0.6,0.2-0.9,0.4c-0.5,0.5-0.8,1.2-0.8,1.9
			c-0.1,0.7-0.2,1.3-0.6,1.9c-0.4,0.5-0.9,1-1.4,1.3c-0.3,0.2-0.6,0.4-0.9,0.6c-1,0.9-1.3,3.7-1.2,6.4l10.6,5.2
			c0.1-2.1,0.4-4.5,0.9-5.1C52,58,52.6,57.4,53.2,56.9z"></path>
		<path class="st0" d="M43,30.7c0.1,0.6-0.2,1.1-0.6,1.5c-0.3,0.3-0.7,0.5-1.1,0.5c0.1,0.9,0.1,1.8,0,2.6c-0.2,1-0.8,1.9-1.8,2.3
			c0.6,0.2,1.1,0.5,1.6,0.9c0.4,0.3,0.7,0.6,1,1c0.2,0.3,0.5,0.6,0.8,0.8c1.4,1.1,3.2,1.5,4.9,1.3c0.9-0.1,1.8-0.2,2.7-0.4
			s1.8-0.3,2.8-0.4c1.2-0.1,2.4-0.1,3.6,0c0.8,0,1.5,0.1,2.3,0.1l0.1-0.1l0.1,0.1c1,0,2.1-0.1,3.1-0.4l0.2-0.1
			c0.4-0.1,0.9-0.3,1.3-0.3c-0.5-1.2-0.9-2.4-1-3.7v-0.3c0-1,0.3-2,0.9-2.8c0.1-0.2,0.3-0.3,0.4-0.4c0.3-0.2,0.5-0.5,0.6-0.8
			c0.1-0.4,0.2-0.7,0.2-1.1c0.1-0.8-0.1-1.6-0.5-2.2c-0.1-0.1-0.2-0.2-0.3-0.3c-0.2-0.1-0.3-0.2-0.5-0.4c-0.3-0.3-0.5-0.7-0.7-1.1
			c-0.1-0.3-0.2-0.6-0.4-0.8c-0.2-0.3-0.8-0.8-1.3-1.4l-0.7-0.7l-3.1-0.5L51.7,28l-4.1,0.1l-2.1,1.8l-2.2-1
			c-0.2,0.2-0.4,0.5-0.6,0.7c0,0.2,0,0.4,0.1,0.6C42.9,30.4,43,30.5,43,30.7z"></path>
		<path class="st0" d="M63.2,25.9c0.2,0.3,0.4,0.6,0.5,1c0.1,0.3,0.3,0.7,0.5,0.9c0.1,0.1,0.2,0.2,0.4,0.3c0.1,0.1,0.3,0.2,0.4,0.3
			c0.6,0.8,0.9,1.8,0.8,2.7c0,0.5-0.1,1-0.2,1.4c-0.2,0.4-0.5,0.7-0.8,0.9l-0.4,0.4c-0.5,0.7-0.7,1.5-0.7,2.4v0.3
			c0.1,1.3,0.5,2.5,1,3.6c0.3,0.1,0.6,0.2,0.8,0.4c0.2,0.2,0.4,0.4,0.5,0.6c0,0.1,0.1,0.1,0.1,0.2c0.2,0.3,0.5,0.6,0.8,0.9
			c0.3,0.3,0.5,0.5,0.8,0.8c0.6,0.7,0.8,1.7,0.4,2.6c-0.1,0.1-0.2,0.3-0.2,0.4c-0.2,0.3-0.3,0.5-0.3,0.6s0.2,0.2,0.5,0.3
			s0.9,0.3,1.3,0.4c1.4,0.4,2.9,0.8,3.8,2c0.2,0.3,0.3,0.5,0.4,0.8c0.3-0.8,0.7-1.5,1.1-2.2c0.2-0.4,0.5-0.7,0.8-1
			c0.2-0.1,0.3-0.2,0.5-0.2c0.1,0,0.3-0.1,0.4-0.2c0.5-0.3,0.7-1,0.5-2.3V44l0.1-0.1c0.8-0.5,1.8-0.7,2.8-0.5H80
			c1.1,0.1,1.9-0.1,2.2-0.6c0.2-0.5,0.2-1.1,0.1-1.7c-0.2-0.7-0.2-1.3,0-2c0.2-0.4,0.4-0.7,0.7-1c0.6-0.6,1.3-1.4,2-2.1l1.1-1.2
			v-0.1l-4.8-3.1l0.5-2.1L79,29l-5.1-5.6l-7.8,1.8l-4.3-0.7l0,0C62.4,25,63,25.6,63.2,25.9z"></path>
		<path class="st0" d="M17.8,26.6v0.2c0.1,0.6,0.2,1.1,0.5,1.2c0.1,0,0.2,0,0.2,0c0.2,0,0.4,0.1,0.6,0.2c0.2,0.2,0.4,0.5,0.4,0.8
			l0.1,0.2c0.3,0.7,1.4,0.8,2.2,0.6l0.5-0.2c0.8-0.4,1.8-0.4,2.6-0.2l0.3,0.1l-0.1,0.3c-0.4,1.1,0.1,2.4,1.2,2.9l0.4,0.1
			c0.4,0.1,0.7,0.2,1,0.5c0.4,0.4,0.6,1,0.6,1.6c0,0.2,0.1,0.4,0.1,0.6c0.4,1.2,1.4,2,2.7,2.2c1.1,0.2,2.3,0.2,3.4,0l0.5-0.1
			c1-0.1,2.1-0.1,3.1,0c0.2-0.1,0.3-0.2,0.5-0.2h0.1c0.8-0.4,1.4-1.1,1.5-2c0.2-0.9,0.2-1.9,0-2.8l-0.1-0.5l0.5,0.1
			c0.7,0.1,1.3-0.4,1.4-1c0-0.1,0-0.1,0-0.2s-0.1-0.2-0.1-0.4c-0.1-0.3-0.1-0.7-0.1-1c0.2-0.3,0.4-0.5,0.6-0.8L40,27.7l-3-0.1
			l-3.2-2.1l-4-1.2l-2.5-4.5l-4.1-4.3l-5.1,0.3l-6.3,6.1c0.9,0.3,1.7,0.6,2.5,1.1C16.4,24.1,17.7,25.5,17.8,26.6z"></path>
		<path class="st0" d="M113.1,42.8l-5.1,0.8l-10.8-3.3l-2-1.3L93,39.4l-6.2-4.1l-1.2,1.3c-0.7,0.8-1.4,1.5-2,2.1
			c-0.2,0.2-0.4,0.5-0.6,0.8c-0.2,0.5-0.2,1.1,0,1.6c0.2,0.7,0.2,1.5-0.2,2.2c-0.5,0.8-1.4,1.1-2.8,1h-0.1c-0.7-0.1-1.5-0.1-2.1,0.2
			c0.1,1,0.1,2.2-0.9,2.8c-0.2,0.1-0.3,0.2-0.5,0.2c-0.1,0-0.3,0.1-0.4,0.2c-0.3,0.2-0.5,0.4-0.6,0.7c-0.5,0.8-0.9,1.7-1.2,2.5H74
			c0.1,0.2,0.2,0.3,0.2,0.5c0.3,0.4,0.7,0.8,1.1,1.2c0.7-1.6,1.9-2.9,3.5-3.7c1.3-0.8,2.8-1.1,4.3-0.7h0.1c0.2,0.1,0.5,0.2,0.7,0.2
			c0.2-0.1,0.4-0.3,0.5-0.5c0.2-0.3,0.4-0.5,0.7-0.7c0.6-0.2,1.2-0.2,1.7,0.1c1.9,0.9,3.6,2,5.2,3.4c0.4,0.3,0.7,0.6,1.1,0.9
			c1.7,1.1,3.5,2.2,5.3,3.1l4-7l5.4-2.2l8-0.7l0.4-1.2L113.1,42.8z"></path>
		<path class="st0" d="M29.3,48.7c0.6-0.8,1.5-1.4,2.4-1.5c0.8-0.1,1.5-0.5,2-1.1c0.2-0.4,0.3-0.7,0.3-1.1c0-0.2,0-0.3,0.1-0.5v-0.1
			l0.1-0.1c0.3-0.3,2.5-2.9,4.2-3.3c0.1-0.7,0-1.5-0.3-2.2c-0.1-0.2-0.2-0.5-0.2-0.8c-0.9-0.1-1.8,0-2.6,0.1l-0.5,0.1
			c-1.2,0.2-2.4,0.2-3.7,0c-1.5-0.2-2.7-1.3-3.2-2.7c0-0.2-0.1-0.4-0.1-0.6c0-0.4-0.1-0.8-0.4-1.1c-0.2-0.1-0.5-0.2-0.7-0.3
			c-0.1,0-0.3-0.1-0.4-0.1c-0.7-0.3-1.3-0.8-1.6-1.5c-0.3-0.6-0.3-1.2-0.2-1.9c-0.6,0-1.3,0.1-1.9,0.3L22,30.5
			c-1.2,0.3-2.7,0.1-3.1-1c0-0.1-0.1-0.2-0.1-0.3c0-0.1-0.1-0.3-0.2-0.4c-0.1,0-0.2-0.1-0.3-0.1c-0.1,0-0.3,0-0.4-0.1
			c-0.8-0.2-0.9-1.1-1-1.8v-0.2c-0.1-0.9-1.4-2.1-3.1-3.1c-0.9-0.5-1.8-0.9-2.7-1.1L6,27.3l-1,1.6l2.9,3.8l0.6,3.7l7,9.1l12.1,7.7
			c0.2-0.7,0.4-1.4,0.6-2.1C28.6,50.3,28.9,49.5,29.3,48.7z"></path>
		<path class="st0" d="M79.1,60c-0.2-0.3-0.3-0.7-0.4-1.1l-0.2-0.6c-0.4-1.6-1.1-3-2.1-4.2c-0.3-0.3-0.7-0.6-1.1-0.9
			c-0.6-0.4-1.2-1-1.7-1.6c-0.2-0.3-0.3-0.6-0.5-0.9c-0.1-0.3-0.3-0.6-0.5-0.9c-0.7-1-2-1.4-3.4-1.8c-0.5-0.1-0.9-0.2-1.4-0.4
			c-0.3-0.1-0.5-0.2-0.7-0.5H67c0.1,0.1,0,0,0-0.1c-0.1-0.4,0-0.9,0.4-1.2c0.1-0.1,0.1-0.2,0.2-0.3c0.2-0.6,0.1-1.3-0.4-1.8
			c-0.2-0.3-0.4-0.5-0.7-0.8c-0.3-0.3-0.6-0.6-0.9-1c-0.1-0.1-0.1-0.1-0.1-0.2c-0.1-0.2-0.2-0.4-0.4-0.5c-0.5-0.5-1.4-0.2-2.3,0.1
			l-0.2,0.1c-0.9,0.3-1.9,0.4-2.8,0.4c0.2,0.6,0.1,1.3-0.2,1.8c-0.1,0.2-0.2,0.3-0.2,0.5c-0.1,0.2-0.2,0.4-0.3,0.6
			C59,44.9,59,45.1,59,45.4c0.1,1.1-0.5,2.1-1.5,2.6c-0.5,0.4-1,0.8-1.1,1.3c0,0.3,0.1,0.7,0.2,1c0.1,0.2,0.1,0.3,0.1,0.5
			c0.7,2.5-1.3,4.8-2.5,6l-0.6,0.5c-0.6,0.5-1.2,1.1-1.7,1.8c-0.3,0.5-0.7,3-0.8,5l1.3,0.6l4.1-0.3l3.7,2c0.6-1.2,1-2.4,1.3-3.6
			c0-1.5,0.5-2.5,1.3-3c0.1-0.1,0.2-0.1,0.4-0.2c0.1-0.1,0.3-0.1,0.4-0.2c0.4-0.4,0.4-1,0.1-1.5c-0.3-0.4-0.6-0.8-1-1.2l-0.3-0.3
			c-0.6-0.5-1-1.2-1.1-2c0-0.8,0.4-1.6,0.9-2.2c0.3-0.4,0.6-0.9,0.8-1.4c0.1-0.3,0.1-0.6,0.1-0.9c-0.1-1,0.5-1.9,1.4-2.3l2-1.1
			l0.3,0.5l-0.7,0.4l-1.3,0.7c-0.2,0.1-0.5,0.3-0.7,0.5c-0.1,0.1-0.1,0.2-0.2,0.3c-0.1,0.3-0.2,0.7-0.2,1s-0.1,0.7-0.1,1
			c0,0.1-0.1,0.3-0.2,0.4c-0.2,0.4-0.4,0.8-0.7,1.1c-0.2,0.3-0.4,0.6-0.6,0.9c-0.2,0.3-0.2,0.6-0.2,0.9c0.1,0.6,0.4,1.1,0.9,1.5
			l0.3,0.3c0.5,0.4,0.8,0.8,1.1,1.4c0.3,0.6,0.3,1.2,0.1,1.8c-0.1,0.2-0.2,0.4-0.4,0.5c-0.2,0.1-0.4,0.2-0.5,0.3l-0.3,0.1
			c-0.3,0.2-0.6,0.5-0.7,0.9c-0.2,0.5-0.3,1-0.3,1.6c-0.3,1.4-0.8,2.7-1.4,3.9l4.7,2.5l5.9-3.3l11.1-0.8c-0.2-0.3-0.5-0.6-0.7-0.9
			C80.8,62.9,79.9,61.5,79.1,60z"></path>
		<path class="st0" d="M91.6,51.1c-1.5-1.3-3.2-2.4-5.1-3.3c-0.5-0.2-0.9-0.3-1.1-0.1c-0.2,0.1-0.3,0.3-0.5,0.5
			c-0.2,0.3-0.5,0.6-0.9,0.7c-0.4,0.1-0.8,0-1.1-0.2h-0.1c-1.3-0.3-2.6-0.1-3.7,0.6c-1.5,0.7-2.6,2-3.2,3.6c0.3,0.2,0.6,0.5,0.9,0.8
			c1.1,1.3,1.9,2.8,2.2,4.5l0.2,0.6c0.8,1.8,1.8,3.5,3.2,5c0.7,0.9,1.4,1.8,2,2.7l-0.6,0.4c-0.3-0.5-0.7-1-1.1-1.6l0.9,1.6h4.1
			l1-1.8l2.2-1l4.5-7.6l2.1-0.5l0.6-1c-1.9-0.9-3.7-1.9-5.4-3.1L91.6,51.1z"></path>
		<path class="st0" d="M41.6,51.1c0.5-0.3,0.9-0.6,1.2-1.1s0.4-1.1,0.5-1.6c0-0.9,0.4-1.7,1-2.3c0.3-0.2,0.7-0.4,1.1-0.5
			c0.5-0.2,0.9-0.3,1.1-0.6c0.1-0.2,0.1-0.4,0.1-0.6l0.3-1.9c-1.7,0.1-3.3-0.4-4.6-1.5c-0.3-0.3-0.6-0.6-0.9-0.9
			c-0.3-0.3-0.6-0.6-0.9-0.9c-0.6-0.5-1.3-0.8-2.1-0.9c0,0.1,0,0.3,0.1,0.4c0.4,0.9,0.5,1.9,0.3,2.9l-0.1,0.2h-0.2
			c-1.2,0.1-3.1,2.2-3.9,3c0,0.1,0,0.3-0.1,0.4c0,1.5-1.3,2.8-2.8,2.8c-0.9,0.2-1.7,0.5-2,1.1c-0.3,0.8-0.6,1.6-0.8,2.4
			c-0.2,0.8-0.5,1.6-0.7,2.3l6.3,4H38l1.3,0.7c0-2.3,0.2-5.4,1.4-6.5C41,51.5,41.3,51.3,41.6,51.1z"></path>
		<path d="M6.2,27.3l12-11.5l5.1-0.3l4.1,4.3l2.5,4.5l3.9,1.2l3.2,2.1l3.3-0.2l5.2,2.5l2.1-1.8l4.1-0.1l5.9-4.3l8.5,1.4l7.8-1.8
			L79,29l2.9,0.6l-0.5,2.1L93,39.4l2.2-0.4l1.9,1.4l10.9,3.2l5.1-0.8l3.1,0.6l-0.4,1.2l-7.9,0.7l-5.4,2.2l-5,8.6l-2,0.6L91,64.2
			l-2.2,1l-1,1.8h-4.1l-1-1.8L71.6,66l-5.9,3.3l-9.1-4.8l-4.1,0.3L38,57.6h-3.3l-19-12l-7-9.1l-0.5-3.7L5.3,29L6.2,27.3z"></path>
	</g>
	<path id="ribeirabrava" class="st1" d="M57.1,47.5c0.5-0.3,0.8-0.7,1.1-1.2c0.1-0.3,0.1-0.6,0.1-0.9c0-0.4,0-0.7,0.1-1
		c0.1-0.2,0.2-0.5,0.3-0.7c0.1-0.1,0.2-0.3,0.2-0.4c0.3-0.5,0.3-1.1,0.1-1.6c-0.7,0-1.5,0-2.2-0.1c-1.2-0.1-2.3-0.1-3.5,0
		c-0.9,0.1-1.8,0.2-2.7,0.4s-1.8,0.3-2.8,0.4h-0.1l-0.3,2c-0.1,0.9-0.8,1.7-1.7,1.8c-0.3,0.1-0.6,0.2-0.9,0.4
		c-0.5,0.5-0.8,1.2-0.8,1.9c-0.1,0.7-0.2,1.3-0.6,1.9c-0.4,0.5-0.9,1-1.4,1.3c-0.3,0.2-0.6,0.4-0.9,0.6c-1,0.9-1.3,3.7-1.2,6.4
		l10.6,5.2c0.1-2.1,0.4-4.5,0.9-5.1c0.5-0.7,1.1-1.3,1.8-1.9l0.6-0.5c0.9-0.8,2.9-3,2.3-5.3c0-0.1-0.1-0.3-0.1-0.4
		c-0.2-0.4-0.3-0.9-0.2-1.4C55.9,48.5,56.4,47.9,57.1,47.5z" data-municipality-id="198" data-title="Ribeira Brava"><title>Ribeira Brava</title></path>
	<path id="saovicente" class="st1" d="M42.8,29.6c0,0.2,0,0.4,0.1,0.6c0,0.1,0.1,0.3,0.1,0.5c0.1,0.6-0.2,1.1-0.6,1.5
		c-0.3,0.3-0.7,0.5-1.1,0.5c0.1,0.9,0.1,1.8,0,2.6c-0.2,1-0.8,1.9-1.8,2.3c0.6,0.2,1.1,0.5,1.6,0.9c0.4,0.3,0.7,0.6,1,1
		c0.2,0.3,0.5,0.6,0.8,0.8c1.4,1.1,3.2,1.5,4.9,1.3c0.9-0.1,1.8-0.2,2.7-0.4s1.8-0.3,2.8-0.4c1.2-0.1,2.4-0.1,3.6,0
		c0.8,0,1.5,0.1,2.3,0.1l0.1-0.1l0.1,0.1c1,0,2.1-0.1,3.1-0.4l0.2-0.1c0.4-0.1,0.9-0.3,1.3-0.3c-0.5-1.2-0.9-2.4-1-3.7v-0.3
		c0-1,0.3-2,0.9-2.8c0.1-0.2,0.3-0.3,0.4-0.4c0.3-0.2,0.5-0.5,0.6-0.8c0.1-0.4,0.2-0.7,0.2-1.1c0.1-0.8-0.1-1.6-0.5-2.2
		c-0.1-0.1-0.2-0.2-0.3-0.3c-0.2-0.1-0.3-0.2-0.5-0.4c-0.3-0.3-0.5-0.7-0.7-1.1c-0.1-0.3-0.2-0.6-0.4-0.8c-0.2-0.3-0.8-0.8-1.3-1.4
		l-0.7-0.7l-3.1-0.5L51.7,28l-4.1,0.1l-2.1,1.8l-2.2-1C43.1,29.1,43,29.4,42.8,29.6z" data-municipality-id="201" data-title="S찾o Vicente"><title>S찾o Vicente</title></path>
	<path id="santana" class="st1" d="M61.9,24.5c0.6,0.6,1.1,1.1,1.4,1.5c0.2,0.3,0.4,0.6,0.5,1c0.1,0.3,0.3,0.7,0.5,0.9
		c0.1,0.1,0.2,0.2,0.4,0.3c0.1,0.1,0.3,0.2,0.4,0.3c0.6,0.8,0.9,1.8,0.8,2.7c0,0.5-0.1,1-0.2,1.4c-0.2,0.4-0.5,0.7-0.8,0.9l-0.4,0.4
		c-0.5,0.7-0.7,1.5-0.7,2.4v0.3c0.1,1.3,0.5,2.5,1,3.6c0.3,0.1,0.6,0.2,0.8,0.4c0.2,0.2,0.4,0.4,0.5,0.6c0,0.1,0.1,0.1,0.1,0.2
		c0.2,0.3,0.5,0.6,0.8,0.9c0.3,0.3,0.5,0.5,0.8,0.8c0.6,0.7,0.8,1.7,0.4,2.6C68.1,45.8,68,46,68,46.1c-0.2,0.3-0.3,0.5-0.3,0.6
		s0.2,0.2,0.5,0.3s0.9,0.3,1.3,0.4c1.4,0.4,2.9,0.8,3.8,2c0.2,0.3,0.3,0.5,0.4,0.8c0.3-0.8,0.7-1.5,1.1-2.2c0.2-0.4,0.5-0.7,0.8-1
		c0.2-0.1,0.3-0.2,0.5-0.2c0.1,0,0.3-0.1,0.4-0.2c0.5-0.3,0.7-1,0.5-2.3v-0.2l0.1-0.1c0.8-0.5,1.8-0.7,2.8-0.5H80
		c1.1,0.1,1.9-0.1,2.2-0.6c0.2-0.5,0.2-1.1,0.1-1.7c-0.2-0.7-0.2-1.3,0-2c0.2-0.4,0.4-0.7,0.7-1c0.6-0.6,1.3-1.4,2-2.1l1.1-1.2v-0.1
		l-4.8-3.1l0.5-2.1L79,29l-5.1-5.6l-7.8,1.8L61.9,24.5L61.9,24.5z" data-municipality-id="200" data-title="Santana"><title>Santana</title></path>
	<path id="portomoniz" class="st1" d="M14.4,23c2,1.1,3.3,2.5,3.5,3.6v0.2c0.1,0.6,0.2,1.1,0.5,1.2c0.1,0,0.2,0,0.2,0
		c0.2,0,0.4,0.1,0.6,0.2c0.2,0.2,0.4,0.5,0.4,0.8l0.1,0.2c0.3,0.7,1.4,0.8,2.2,0.6l0.5-0.2c0.8-0.4,1.8-0.4,2.6-0.2l0.3,0.1
		l-0.1,0.3c-0.4,1.1,0.1,2.4,1.2,2.9l0.4,0.1c0.4,0.1,0.7,0.2,1,0.5c0.4,0.4,0.6,1,0.6,1.6c0,0.2,0.1,0.4,0.1,0.6
		c0.4,1.2,1.4,2,2.7,2.2c1.1,0.2,2.3,0.2,3.4,0l0.5-0.1c1-0.1,2.1-0.1,3.1,0c0.2-0.1,0.3-0.2,0.5-0.2h0.1c0.8-0.4,1.4-1.1,1.5-2
		c0.2-0.9,0.2-1.9,0-2.8l-0.1-0.5l0.5,0.1c0.7,0.1,1.3-0.4,1.4-1c0-0.1,0-0.1,0-0.2S42,30.8,42,30.6c-0.1-0.3-0.1-0.7-0.1-1
		c0.2-0.3,0.4-0.5,0.6-0.8l-2.4-1.1L37,27.6l-3.2-2.1l-4-1.2l-2.5-4.5l-4.1-4.3l-5.1,0.3l-6.3,6.1C12.7,22.2,13.6,22.5,14.4,23z" data-municipality-id="196" data-title="Porto Moniz"><title>Porto Moniz</title></path>
	<path id="machico" class="st1" d="M113.1,42.8l-5.1,0.8l-10.8-3.3l-2-1.3L93,39.4l-6.2-4.1l-1.2,1.3c-0.7,0.8-1.4,1.5-2,2.1
		c-0.2,0.2-0.4,0.5-0.6,0.8c-0.2,0.5-0.2,1.1,0,1.6c0.2,0.7,0.2,1.5-0.2,2.2c-0.5,0.8-1.4,1.1-2.8,1h-0.1c-0.7-0.1-1.5-0.1-2.1,0.2
		c0.1,1,0.1,2.2-0.9,2.8c-0.2,0.1-0.3,0.2-0.5,0.2c-0.1,0-0.3,0.1-0.4,0.2c-0.3,0.2-0.5,0.4-0.6,0.7c-0.5,0.8-0.9,1.7-1.2,2.5H74
		c0.1,0.2,0.2,0.3,0.2,0.5c0.3,0.4,0.7,0.8,1.1,1.2c0.7-1.6,1.9-2.9,3.5-3.7c1.3-0.8,2.8-1.1,4.3-0.7h0.1c0.2,0.1,0.5,0.2,0.7,0.2
		c0.2-0.1,0.4-0.3,0.5-0.5c0.2-0.3,0.4-0.5,0.7-0.7c0.6-0.2,1.2-0.2,1.7,0.1c1.9,0.9,3.6,2,5.2,3.4c0.4,0.3,0.7,0.6,1.1,0.9
		c1.7,1.1,3.5,2.2,5.3,3.1l4-7l5.4-2.2l8-0.7l0.4-1.2L113.1,42.8z" data-municipality-id="194" data-title="Machico"><title>Machico</title></path>
	<path id="calhetamadeira" class="st1" d="M28.4,51.2c0.2-0.8,0.5-1.7,0.8-2.5c0.6-0.8,1.5-1.4,2.4-1.5c0.8-0.1,1.5-0.5,2-1.1
		c0.2-0.4,0.3-0.7,0.3-1.1c0-0.2,0-0.3,0.1-0.5v-0.1l0.1-0.1c0.3-0.3,2.5-2.9,4.2-3.3c0.1-0.7,0-1.5-0.2-2.2
		c-0.1-0.2-0.2-0.5-0.2-0.8c-0.9-0.1-1.8,0-2.6,0.1l-0.5,0.1c-1.2,0.2-2.4,0.2-3.7,0c-1.5-0.2-2.7-1.3-3.2-2.7
		c0-0.2-0.1-0.4-0.1-0.6c0-0.4-0.1-0.8-0.4-1.1c-0.2-0.1-0.5-0.2-0.7-0.3c-0.1,0-0.3-0.1-0.4-0.1c-0.7-0.3-1.3-0.8-1.6-1.5
		c-0.3-0.6-0.3-1.2-0.2-1.9c-0.6,0-1.3,0.1-1.9,0.3L22,30.5c-1.2,0.3-2.7,0.1-3.1-1c0-0.1-0.1-0.2-0.1-0.3c0-0.1-0.1-0.3-0.2-0.4
		c-0.1,0-0.2-0.1-0.3-0.1c-0.1,0-0.3,0-0.4-0.1c-0.8-0.2-0.9-1.1-1-1.8v-0.2c-0.1-0.9-1.4-2.1-3.1-3.1c-0.9-0.5-1.8-0.9-2.7-1.1
		L6,27.3l-1,1.6l2.9,3.8l0.6,3.7l7,9.1l12.1,7.7C28,52.6,28.2,51.9,28.4,51.2z" data-municipality-id="191" data-title="Calheta(Madeira)"><title>Calheta(Madeira)</title></path>
	<path id="santacruz" class="st1" d="M92.8,52l-1.1-0.9c-1.5-1.3-3.2-2.4-5.1-3.3c-0.5-0.2-0.9-0.3-1.1-0.1
		c-0.2,0.1-0.3,0.3-0.5,0.5c-0.2,0.3-0.5,0.6-0.9,0.7c-0.4,0.1-0.8,0-1.1-0.2h-0.1c-1.3-0.3-2.6-0.1-3.7,0.6c-1.5,0.7-2.6,2-3.2,3.6
		c0.3,0.2,0.6,0.5,0.9,0.8c1.1,1.3,1.9,2.8,2.2,4.5l0.2,0.6c0.8,1.8,1.8,3.5,3.2,5c0.7,0.9,1.4,1.8,2,2.7l-0.6,0.4
		c-0.3-0.5-0.7-1-1.1-1.6l0.9,1.6h4.1l1-1.8l2.2-1l4.5-7.6l2.1-0.5l0.6-1C96.3,54.1,94.5,53.1,92.8,52z" data-municipality-id="199" data-title="Santa Cruz"><title>Santa Cruz</title></path>
	<path id="pontadosol" class="st1" d="M40.7,51.8c0.3-0.3,0.6-0.5,0.9-0.7c0.5-0.3,0.9-0.6,1.2-1.1s0.4-1.1,0.5-1.6
		c0-0.9,0.4-1.7,1-2.3c0.3-0.2,0.7-0.4,1.1-0.5c0.5-0.2,0.9-0.3,1.1-0.6c0.1-0.2,0.1-0.4,0.1-0.6l0.3-1.9c-1.7,0.1-3.3-0.4-4.6-1.5
		c-0.3-0.3-0.6-0.6-0.9-0.9c-0.3-0.3-0.6-0.6-0.9-0.9c-0.6-0.5-1.3-0.8-2.1-0.9c0,0.1,0,0.3,0.1,0.4c0.4,0.9,0.5,1.9,0.3,2.9
		l-0.1,0.2h-0.2c-1.2,0.1-3.1,2.2-3.9,3c0,0.1,0,0.3-0.1,0.4c0,1.5-1.3,2.8-2.8,2.8c-0.9,0.2-1.7,0.5-2,1.1
		c-0.3,0.8-0.6,1.6-0.8,2.4c-0.2,0.8-0.5,1.6-0.7,2.3l6.3,4H38l1.3,0.7C39.3,56,39.5,52.9,40.7,51.8z" data-municipality-id="195" data-title="Ponta do Sol"><title>Ponta do Sol</title></path>
	<path id="funchal" class="st2" d="M81.1,63.5c-1.1-1.4-1.9-2.9-2.4-4.5l-0.2-0.6c-0.4-1.6-1.1-3-2.1-4.2c-0.3-0.3-0.7-0.6-1.1-0.9
		c-0.6-0.4-1.2-1-1.7-1.6c-0.2-0.3-0.3-0.6-0.5-0.9c-0.1-0.3-0.3-0.6-0.5-0.9c-0.7-1-2-1.4-3.4-1.8c-0.5-0.1-0.9-0.2-1.4-0.4
		c-0.3-0.1-0.5-0.2-0.7-0.5l-0.9,0.5l-1.3,0.7c-0.7,0.3-1.1,1-1,1.7c0,0.3-0.1,0.7-0.1,1c-0.2,0.6-0.5,1.1-0.9,1.6
		c-0.5,0.5-0.8,1.1-0.8,1.8c0.1,0.6,0.4,1.2,0.9,1.5l0.3,0.2c0.5,0.4,0.9,0.8,1.2,1.4c0.4,0.8,0.3,1.7-0.4,2.3
		c-0.2,0.1-0.4,0.2-0.5,0.3l-0.3,0.1c-0.6,0.3-0.9,1.1-0.9,2.4c0,1.4-0.5,2.8-1.2,4l4.6,2.4l5.9-3.3L82.4,65
		C81.9,64.6,81.5,64,81.1,63.5z" data-municipality-id="193" data-title="Funchal"><title>Funchal</title></path>
	<path id="portosanto" d="M134.3,5.8l1.3-0.9l0.5,7.4l-8.6,4.2l-3.8,4.1l-4.1,2.5l-3.2-2.5l3.1-6.7l0.5-4.4l10.2-5.8L134.3,5.8z" data-municipality-id="197" data-title="Porto Santo"><title>Porto Santo</title></path>
	<path id="camaradelobos" class="st1" d="M67.2,45.9c0.1-0.1,0.1-0.2,0.2-0.3c0.2-0.6,0.1-1.3-0.4-1.8c-0.2-0.3-0.4-0.5-0.7-0.8
		s-0.6-0.6-0.9-1c-0.1-0.1-0.1-0.1-0.1-0.2c-0.1-0.2-0.2-0.4-0.4-0.5c-0.5-0.5-1.4-0.2-2.3,0.1l-0.2,0.1c-0.9,0.3-1.9,0.4-2.8,0.4
		c0.2,0.6,0.1,1.3-0.2,1.8c-0.1,0.2-0.2,0.3-0.2,0.5c-0.1,0.2-0.2,0.4-0.3,0.6c0.1,0.1,0.1,0.3,0.1,0.6c0.1,1.1-0.5,2.1-1.5,2.6
		c-0.5,0.4-1,0.8-1.1,1.3c0,0.3,0.1,0.7,0.2,1c0.1,0.2,0.1,0.3,0.1,0.5c0.7,2.5-1.3,4.8-2.5,6l-0.6,0.5c-0.6,0.5-1.2,1.1-1.7,1.8
		c-0.3,0.5-0.7,3-0.8,5l1.3,0.6l4.1-0.3l3.7,2c0.6-1.2,1-2.4,1.3-3.6c0-1.5,0.5-2.5,1.3-3c0.1-0.1,0.2-0.1,0.4-0.2
		c0.1-0.1,0.3-0.1,0.4-0.2c0.4-0.4,0.4-1,0.1-1.5c-0.3-0.4-0.6-0.8-1-1.2l-0.3-0.3c-0.6-0.5-1-1.2-1.1-2c0-0.8,0.4-1.6,0.9-2.2
		c0.3-0.4,0.6-0.9,0.8-1.4c0.1-0.3,0.1-0.6,0.1-0.9c-0.1-1,0.5-1.9,1.4-2.3l2-1.1l0.3,0.6C66.7,46.7,66.8,46.2,67.2,45.9z" data-municipality-id="192" data-title="C창mara de Lobos"><title>C창mara de Lobos</title></path>
</g>
</svg>