<svg xmlns="http://www.w3.org/2000/svg" viewBox="0 0 296.2 184.3" class="map-svg map-municipalities" data-id="15" data-district="acores">
<g data-title="acores" data-district-id="15">
	<g id="map-bg" class="map-bg">
		<path d="M13.1,30.2l2.3,0.2l2.3,5.3l2.7-1.3l3.2,6.7l-2.1,3.3l-1.6,6.3l-2.7,1.9L11.5,53l-2.9-1.1L7.5,48l0.8-1L8,44.9l-0.2-2.4
			l2.1-8.2l1.8-1.1l0.4-2.8L13.1,30.2z"></path>
		<path class="st0" d="M25.1,15.7c0-0.3,0.9-9.2,0.9-9.2h1.6l1,1.4L29,6.4l1.9,3.1l-0.2,3.6l-2.9,2.2l-1.9,1L25.1,15.7z"></path>
		<path d="M129.4,12.5l2-1.1V8.6l7.1-0.2l2,4.8l3,1.1l0.4,3.4l-2.4,2.3l-4.2-1.1l-4.1-0.5l-3.1-4.7L129.4,12.5z"></path>
		<path d="M142.2,11.8l0.1,1.3l1,0.2L144,12L142.2,11.8z"></path>
		<path d="M144.8,18.3l-0.2,1l1.3,0.8l0.5-1l-0.6-0.8H144.8z"></path>
		<path d="M57.5,69.4l6.2-0.6l2.8-4l2.1,0.1l6.1,5.1l2.4-0.2l1.1,1.7l-0.6,7.3L76,79.2l0.2,2.2l-0.7,1.1L74,81.6l-3.2,0.2l-7.6-0.5
			l-1.1-5.2l-2-0.8l-4.7-2.7l1-2.5L57.5,69.4z"></path>
		<path d="M88.1,81.4l2-2.8l3.2-1l2.2,1.5l1-1l7,0.6l2.5,1.2l2,0.3l3.3,4.7l1.5-0.3l1.3,1l2.8,0.6l1,1.6l2.7,0.6l3.2,2.7l6.7,0.9
			l4,1.2l2.5,3.4l-1.4,0.8l-5.4,1.1l-7-1.5l-7.5,3.5l-1.8-2.9l-11.3-1.3l-6.2-0.6l-4.3-2.8l-3.6-1.8l-2.2-7.6l0.4-2.1H88.1z"></path>
		<path d="M108.5,52l23.3,9.4l1.3-1.2l4.1,1.8l9.2,6.3l3.1-0.3l12.7,7.5l-0.2,1.2l-7.3,1.9l-6.2-3.9l-7.2-3.3l-3.5,0.1l-5.4-3.1
			l-12.1-5.1l-1.7-1.4l-2.1-0.6l-0.7-1.9l-3-1.8l-4.6-4.6L108.5,52z"></path>
		<path d="M186,42l10.1-0.1l2.2,0.2l2-0.4l3.5,2.3h6.2l4.6,3.2l1.6,5.5l-1.1,0.8l1.6,1.7l0.5,1l-3.3,2.6l-0.8,4.2H211l-0.7,0.3
			l-1.7-0.8l-2.1,0.2l-1.5-0.9l-5.5-0.1l-1.4,1.4l-2.2-1.2l-5.3-0.3l-2.2-2.1l-4.7-3l-1.6-5.9l0.1-5L186,42z"></path>
		<path d="M218.3,106.6l6.9-3.8l8.2,5.1v4.1l9.7,2.6h6.4l4.5-3.5l2.9,2.7h6.1l6.4-4.7l19,1.1l1.4,6.7l-1.1,1.1v4.2l-3.2,2.7
			l-9.6-0.6l-2.4,1.8l-15.9,2.6l-6.5-0.2l-7.1-4.7l-11,2.2l-5.1-4.9l-10.8-8.9L218.3,106.6z"></path>
		<path class="st0" d="M270.4,166l1.5-1.4l1.5,0.6l0.8-1.9l1-0.6l2,1l1-0.3c0.3-0.6,0.6-1.2,1-1.8h5l1.7,1.3l-0.6,2.4l2.2,1.8h1
			l1.4,3.4l0.2,2.4l-5.7,0.8l-2.6-2.6l-2.4,0.1l-3.1,1.3l-3.1-0.3l-0.7-3.2l-1.8-2L270.4,166z"></path>
	</g>
	<g id="bg-white" class="bg-white">
		<path d="M10.4,28.4l2.3,0.1l2.3,5.3l2.8-1.3l3.1,6.7l-2.1,3.3l-1.6,6.4l-2.7,1.9l-5.6,0.4l-3-1.2l-1.1-3.9l0.8-1l-0.3-2l-0.2-2.5
			l2.1-8.1L9,31.4l0.4-2.8L10.4,28.4z"></path>
		<path d="M126.7,10.6l2-1V6.7l7.1-0.2l2,4.8l3,1.1l0.4,3.4l-2.3,2.3l-4.3-1l-4.1-0.6l-3-4.6L126.7,10.6z"></path>
		<path d="M139.5,9.9l0.1,1.3l1,0.3l0.8-1.4L139.5,9.9z"></path>
		<path d="M142.1,16.4l-0.2,1.1l1.3,0.7l0.5-0.9l-0.6-0.9H142.1z"></path>
		<path d="M54.9,67.5L61,67l2.8-4.1l2.1,0.1l6.1,5.1l2.4-0.2l1.1,1.8l-0.6,7.2l-1.6,0.5l0.3,2.1l-0.8,1.2l-1.4-1l-3.3,0.2l-7.6-0.5
			l-1.1-5.1l-2-0.9l-4.7-2.7l1-2.5L54.9,67.5z"></path>
		<path d="M85.4,79.6l2-2.8l3.2-1l2.2,1.4l1-0.9l7,0.6l2.5,1.1l2,0.4l3.3,4.6l1.5-0.3l1.3,1.1l2.8,0.6l1,1.5l2.8,0.6l3.1,2.7l6.7,1
			l4.1,1.1l2.4,3.4l-1.4,0.9l-5.4,1l-6.9-1.4l-7.6,3.5l-1.8-2.9l-11.3-1.4l-6.2-0.6L89.4,91l-3.6-1.7l-2.2-7.6l0.4-2.1H85.4z"></path>
		<path d="M105.8,50.1l23.3,9.5l1.3-1.3l4.1,1.8l9.2,6.3l3.1-0.3l12.8,7.6l-0.3,1.1l-7.3,2l-6.2-3.9l-7.2-3.4l-3.5,0.1l-5.3-3.1
			l-12.2-5.1l-1.6-1.3l-2.2-0.6l-0.7-1.9l-2.9-1.9l-4.7-4.5L105.8,50.1z"></path>
		<path d="M183.4,40.2l10-0.2l2.2,0.3l2-0.5l3.5,2.3h6.2l4.6,3.3l1.7,5.4l-1.2,0.9l1.6,1.6l0.5,1.1l-3.3,2.6l-0.8,4.1h-2l-0.8,0.3
			l-1.7-0.8l-2.1,0.2l-1.5-0.8l-5.4-0.1l-1.5,1.3l-2.2-1.1l-5.3-0.3l-2.2-2.1l-4.7-3l-1.6-5.9l0.1-5L183.4,40.2z"></path>
		<path d="M215.6,104.8l6.9-3.9l8.2,5.1v4.2l9.7,2.5h6.4l4.5-3.4l2.9,2.7h6.1l6.4-4.7l19,1.1l1.4,6.7l-1.1,1.1v4.1l-3.2,2.7
			l-9.6-0.5l-2.4,1.8l-15.9,2.5l-6.5-0.2l-7.1-4.7l-11,2.2l-5.1-4.9l-10.8-8.8L215.6,104.8z"></path>
		<path class="st1" d="M267.7,164.2l1.4-1.4l1.5,0.6l0.8-1.9l1-0.6l2,1l1-0.3c0.3-0.6,0.6-1.2,1-1.8h5l1.7,1.3l-0.6,2.4l2.2,1.8h1
			l1.4,3.4l0.2,2.4l-5.7,0.8l-2.6-2.6l-2.4,0.1l-3.1,1.3l-3.1-0.3l-0.7-3.2l-1.8-2L267.7,164.2z"></path>
		<path class="st2" d="M23,14.1c0-0.3,0.8-9.5,0.8-9.5h1.6L26.5,6l0.3-1.4l1.9,3.2l-0.2,3.7l-2.9,2.3l-1.8,1L23,14.1z"></path>
	</g>
	<g id="santacruzdagraciosa" data-municipality-id="215" data-title="Santa Cruz da Graciosa">
		<path d="M126.7,10.6l2-1V6.7l7.1-0.2l2,4.8l3,1.1l0.4,3.4l-2.3,2.3l-4.3-1l-4.1-0.6l-3-4.6L126.7,10.6z"></path>
		<path d="M139.5,9.9l0.1,1.3l1,0.3l0.8-1.4L139.5,9.9z"></path>
		<path d="M142.1,16.4l-0.2,1.1l1.3,0.7l0.5-0.9l-0.6-0.9H142.1z"></path>
	<title>Santa Cruz da Graciosa</title></g>
	<path id="horta" d="M54.9,67.5L61,67l2.8-4.1l2.1,0.1l6.1,5.1l2.4-0.2l1.1,1.8l-0.6,7.2l-1.6,0.5l0.3,2.1l-0.8,1.2l-1.4-1l-3.3,0.2
		l-7.6-0.5l-1.1-5.1l-2-0.9l-4.7-2.7l1-2.5L54.9,67.5z" data-municipality-id="205" data-title="Horta"><title>Horta</title></path>
	<path id="viladoporto" class="st3" d="M267.7,164.2l1.4-1.4l1.5,0.6l0.8-1.9l1-0.6l2,1l1-0.3c0.3-0.6,0.6-1.2,1-1.8h5l1.7,1.3
		l-0.6,2.4l2.2,1.8h1l1.4,3.4l0.2,2.4l-5.7,0.8l-2.6-2.6l-2.4,0.1l-3.1,1.3l-3.1-0.3l-0.7-3.2l-1.8-2L267.7,164.2z" data-municipality-id="219" data-title="Vila do Porto"><title>Vila do Porto</title></path>
	<path id="santacruzdasflores" class="st4" d="M18.7,42.7l0.1-0.2l2.1-3.3l-3.2-6.7L15,33.9l-2.3-5.3l-2.3-0.1l-1,0.2L9,31.4
		l-1.8,1.1l-1.7,6.4C10.1,39.4,14.6,40.7,18.7,42.7z" data-municipality-id="216" data-title="Santa Cruz das Flores"><title>Santa Cruz das Flores</title></path>
	<path id="lajesdasflores" class="st4" d="M5.4,39.7l-0.2,0.9L5.4,43l0.3,2.1l-0.8,1l1,3.9l3,1.2l5.7-0.4l2.7-1.9l1.3-5.4
		C14.5,41.4,10,40.1,5.4,39.7z" data-municipality-id="207" data-title="Lajes das Flores"><title>Lajes das Flores</title></path>
	<path id="saoroquedopico" class="st4" d="M101.1,82.3c-0.5,2-0.6,4-0.5,6c3.5-0.6,7,0.4,10.4,1.4l2.1,0.6c2.1,0.6,4.3,1.1,6.4,1.5
		c3.2,0.6,6.4,0.2,9.3-1.3l-1.1-0.3l-6.6-1l-3.1-2.7l-2.8-0.6l-1-1.5l-2.8-0.6l-1.3-1.1l-1.5,0.3l-3.3-4.6l-2-0.4l-1.6-0.8
		C101.7,78.9,101.4,80.6,101.1,82.3z" data-municipality-id="217" data-title="São Roque do Pico"><title>São Roque do Pico</title></path>
	<path id="madalena" class="st4" d="M101.9,91.8c-0.6-0.6-1.1-1.3-1.5-2c-1.1-1.8-0.6-4.8,0-7.6c0.4-1.7,0.6-3.5,0.6-5.2l-0.1-0.1
		L94,76.3l-1.1,1l-2.1-1.4l-3.3,1l-1.9,2.8H84l-0.4,2.1l2.2,7.6l3.6,1.6l4.3,2.8l6.2,0.6l4.2,0.5C103.5,93.8,102.7,92.8,101.9,91.8z
		" data-municipality-id="209" data-title="Madalena"><title>Madalena</title></path>
	<path id="lajesdopico" class="st4" d="M131.9,91.3l-2-0.6c-2.3,1.4-4.9,2.1-7.5,2.1c-1,0-1.9-0.1-2.9-0.3c-2.1-0.4-4.3-0.9-6.5-1.5
		l-2.1-0.6c-3.3-1-6.7-2-10-1.4c0,0.1,0.1,0.3,0.2,0.4c0.5,0.7,0.9,1.3,1.5,1.9c1,1.1,1.8,2.4,2.5,3.7l6.2,0.7l1.8,2.9l7.5-3.5
		l7,1.4l5.4-1.1l1.4-0.9L131.9,91.3z" data-municipality-id="208" data-title="Lajes do Pico"><title>Lajes do Pico</title></path>
	<path id="velas" d="M138.5,62.9l-4-2.8l-4.1-1.8l-1.3,1.3l-23.3-9.5l-0.3,1.1l4.7,4.5l2.9,1.9l0.7,1.9l2.2,0.6l1.6,1.3l12.2,5.1
		l1.6,0.9L138.5,62.9z" data-municipality-id="218" data-title="Velas"><title>Velas</title></path>
	<path id="calhetaacores" d="M146.8,66.1l-3.1,0.3l-4.6-3.1l-7,4.6l3,1.7l3.5-0.1l7.2,3.4l6.2,3.9l7.3-2l0.3-1.1L146.8,66.1z" data-municipality-id="203" data-title="Calheta (Açores)"><title>Calheta (Açores)</title></path>
	<path id="praiadavitoria" class="st4" d="M194.2,43.6c0,0.3,0,0.6-0.1,0.9c-0.1,0.6-0.1,1.3,0.1,1.9c0.4,1.1,1.7,1.6,4,1.7h0.3
		l0.1,2c0.7,0.1,1.4,0.1,2.1,0c1.2-0.2,2.4-0.1,3.5,0.4c0.7,0.4,1.3,1,1.8,1.7l0.3,0.4c1.6,1.6,3.5,2.9,5.5,3.8l2.7-2.1l-0.5-1.1
		l-1.6-1.6l1.2-0.9l-1.6-5.4l-4.6-3.3h-6.2l-3.5-2.3l-2,0.5l-2.2-0.3h-1.9C192.9,41.3,194.2,42.9,194.2,43.6z" data-municipality-id="213" data-title="Praia da Vitória"><title>Praia da Vitória</title></path>
	<path id="angradoheroismo" class="st4" d="M205.8,53.2l-0.3-0.4c-0.4-0.6-0.9-1.1-1.5-1.5c-0.9-0.4-2-0.5-3-0.3
		c-0.9,0.1-1.7,0.1-2.6-0.1l-0.3-0.1l-0.1-1.9c-1.6-0.1-3.7-0.5-4.4-2.2c-0.2-0.7-0.3-1.5-0.1-2.3c0-0.3,0.1-0.6,0.1-0.9
		c0-0.5-1.7-2.4-3.1-3.5l-7.1,0.1l-3.9,3.6l-0.1,5l1.6,5.9l4.6,3l2.2,2.1l5.3,0.3l2.2,1.2l1.4-1.4l5.4,0.1l1.5,0.9l2.1-0.2l1.6,0.8
		l0.8-0.3h2L211,57C209.2,56.1,207.4,54.8,205.8,53.2z" data-municipality-id="202" data-title="Angra do Heroísmo"><title>Angra do Heroísmo</title></path>
	<path id="pontadelgada" class="st4" d="M237.9,117.3c-1.1-0.6-2.1-1.1-3-0.6l-0.5,0.2v-0.6c0-0.9,1.1-3.1,2.2-4.6l-5.9-1.5V106
		l-8.2-5l-6.9,3.8l-1.3,5.6l10.9,8.9l5.1,4.9l6-1.2L237.9,117.3z" data-municipality-id="211" data-title="Ponta Delgada"><title>Ponta Delgada</title></path>
	<path id="lagoaacores" class="st4" d="M252,126.2c0-0.9,0.1-1.9,0.1-2.5c0.1-1.3,0.3-2.5,0.7-3.7l-1.3-0.3
		c-2.5-0.7-5.1-1.1-7.7-1.2h-0.7c-1,0.1-2.1,0-3-0.2c-0.5-0.2-1-0.4-1.5-0.7l-1.5,5.1l4.2-0.8l7.1,4.7l3.6,0.1
		C252,126.6,252,126.4,252,126.2z" data-municipality-id="206" data-title="Lagoa (Açores)"><title>Lagoa (Açores)</title></path>
	<path id="ribeiragrande" class="st4" d="M235.2,115.8c1.2-0.1,2.4,0.3,3.3,1c0.6,0.3,1.1,0.6,1.8,0.9c0.9,0.2,1.9,0.3,2.8,0.2h0.8
		c2.7,0.1,5.3,0.5,7.9,1.2c2,0.5,4,0.9,6,1.1c4.3,0.4,8.5-0.6,12.7-1.5c1.5-0.2,3-0.7,4.3-1.4c0.5-1.2-0.2-2.6-1-4
		c-0.7-1.1-1.2-2.4-1.3-3.8c0-0.2,0-0.7,0-1.3v-0.5l-5.7-0.3l-6.3,4.7h-6.1l-2.9-2.7l-4.5,3.4h-6.3l-3.1-0.8
		C236.5,113.1,235.8,114.4,235.2,115.8z" data-municipality-id="214" data-title="Ribeira Grande"><title>Ribeira Grande</title></path>
	<path id="vilafrancadocampo" class="st4" d="M269.8,119.5c-3.3,0.8-6.7,1.3-10.1,1.4c-0.7,0-1.3,0-2-0.1c-1.3-0.1-2.7-0.3-4-0.6
		c-0.4,1.1-0.7,2.4-0.7,3.6c0,0.6-0.1,1.5-0.1,2.4v0.5l2.1,0.1l15.3-2.4C269.4,122.9,269.2,121.1,269.8,119.5z" data-municipality-id="220" data-title="Vila Franca do Campo"><title>Vila Franca do Campo</title></path>
	<path id="corvo" class="st4" d="M22.4,13.8c0-0.3,0.9-9.2,0.9-9.2H25L26,6l0.3-1.4l1.9,3.1L28,11.2l-2.9,2.2l-1.9,1L22.4,13.8z" data-municipality-id="204" data-title="Corvo"><title>Corvo</title></path>
	<path id="nordeste" class="st4" d="M275.6,116.6c0.3-0.2,0.7-0.5,1.1-0.6c0.9-0.3,1.8-0.5,2.8-0.5l6.7-0.5v0h1.1l-1.6-6.6
		l-12.5-0.7v0.4c0,0.6,0,1.1,0,1.3c0.1,1.2,0.5,2.4,1.2,3.4C275.1,113.9,275.6,115.2,275.6,116.6z" data-municipality-id="210" data-title="Nordeste"><title>Nordeste</title></path>
	<path id="povoacao" class="st4" d="M286.2,115.8L286.2,115.8l-6.7,0.5c-0.9,0-1.7,0.2-2.5,0.5c-0.4,0.2-0.8,0.4-1.1,0.7
		c-0.2,0.1-0.4,0.3-0.6,0.4c-1.4,0.8-2.9,1.3-4.5,1.5c-0.8,1.3-0.7,3.9,0.3,4.9l2.2-1.7l9.6,0.5l3.3-2.7v-4.2l0.4-0.4H286.2z" data-municipality-id="212" data-title="Povoação"><title>Povoação</title></path>
</g>
</svg>