<svg xmlns="http://www.w3.org/2000/svg" viewBox="0 0 317.3 383.4" class="map-svg map-municipalities" data-id="16" data-district="santarem">
<g data-title="santarem" data-district-id="16">
	<g id="map-bg" class="map-bg">
		<path d="M55.7,280.4l0.7,0.8l2.2-3l2.4,3.6l0.6,3.9l3.9,0.8l4.7,5.5l7.5-0.2l0.8,4.8l1,0.4l1.8-3.9l6.4,2.5l4.1-1.4l10.2-7
			l3.5-0.3l3.2-5.6l2.2-2.2l2.6-5l3-0.6l-5.9-15.2l3.3-3l-5.1-6.4l-0.1-3.1l-4.5-1.7l-1.1,3.2l-4.4,1.2l-2.5-1.8l-5.2,0.4l-2-1.9
			l-3.5-0.2l-3.4-2.2l-0.1,0.6l-0.1,0.1l-11.1,13.9l-1.1,5.7l-5.1,4.5l-3.7-1l-1.7,0.3l-4.4,8.2l3.2,1.5L55.7,280.4z"></path>
		<path d="M119.3,250.4l3.9,0.9l3.2-1.7l3.9-0.1l4.8-1.6l3.7,5.1l1.9-1.9l3.8,0.5l2.5-2.7l0.3,0.1l-0.4-1.1l-2.8,0.2l-3.3-0.8
			l3.6-5.9l2.5-0.6l1.8-2.7l0.1-2.3l1.6-1.4l0.1-1.7l-2.2-1.3l-2.6-2.3l-1.1-3.3l-1.2-1.4l-0.5-2.9l-2-2.3l-7-1.8l-6.6,5l-6.1,7.2
			l-2.8-4.1l-13-11.8l-4.2-8.2l-8.1,2.2l-2.7,4.5l-0.9,11.3l0.3,3.3l-7.2,13.1l-0.3,1.5l3.6,2.3l3.7,0.2l1.9,1.9l5-0.4l2.5,1.7
			l3.1-0.8l1.3-3.9l6.6,2.5l0.1,3.5l4.1,5.2L119.3,250.4z"></path>
		<path d="M120.8,188.1l-0.7-2.7l-4.7-0.4l-1.8,3.1l-7.4,0.7l-1.4,3.6l-0.4,8.2l-2.2,4.1l4.2,8.2l13,11.7l1.9,2.8l5.1-6l6-4.5h-0.2
			l0.2-6.6l4.7-3.7l-0.1-0.9l-7-1.2l-6.2-5.3v-7.4L120.8,188.1z"></path>
		<path d="M103.5,133l0.2,8l2,3.3l3.1-0.6l2.5,6.4h1l1.6-3.5l5.3,5.3l5.6,0.4l9-3.1l4.8-7.2l1.2-2.8l-1-0.3l-2.8-1.6v-7.9l2.4-4.3
			l3.3-2l4.9-2.8v-3.2h0.4l-3.1-7.5l-6.3-4.5l7.2-9.9l-8.4-13.7v-4.4l-1.1-1l-9.9,8.6l-6.6,3.2l-4.2,8.4l-15.3,11.8l-0.1-0.1
			l-7.2,7.8l0.8,1l8.4,4.6l0.9,3.7l4,3.3l-0.4,3.4L103.5,133z"></path>
		<path d="M142.4,124.2l-3,1.8l-2.1,3.7v6.8l2,1.2l2,0.5l3.4-3.5l-0.3-7.9l2.2-5L142.4,124.2z"></path>
		<path d="M123.3,179.4l5.7-2.7l6.3-10.6l9.5-6.1l5.4-13.5l-1.9-2.4l0.8-7.2l2-1.6l-0.5-1.5l-4.5,1.4l0,0l-4.4,4.5l-0.6-0.2
			l-1.4,3.1l-5,7.7l-9.8,3.3l-2.7-0.2l-1.7,1.8l-0.9,8.5l-2.6,1.7l2.9,4.3l4.1-0.2l2.1,4.3l-3,2.5l0.9,1.9l-1,1L123.3,179.4z"></path>
		<path d="M221.3,87.2l-3.5,4.3l-0.3,5.3l-1.7,2l0.9,2.4l-0.5,5.9l1.9-0.6v5l11.3,6.7l6.6-3.1l-1.9-8.2l5.9-0.9l1.4,0.8l1-2.6
			l1-14.7l-3.9-2.5l-0.6-3.5l-1.7-2.3l-10.6-1.4l-2.3-2.2l-2.2-0.4l-0.4,3l-1.6,3.5L221.3,87.2z"></path>
		<path class="st0" d="M193.6,128.5l-3.4-10.4l-4.5,0.8l-5.5-0.6l-2.8,5.5l1.1,5.6l-1.7,1.5l3.4,4.8l3.9,11l4.3,4.8v2.2l-0.6,2.4
			l0.6,3.7l3.4,9.6l1.6,2.9l0,0c1,0,2,0,2.9-0.1l3.4-3l2.7-8l-1.6-3l-0.1-2l-2.4-2.3l-3.7-9.4l-3.4-5.4v-4.2l-3.1-1.4l-0.2-2.6
			l4.5-0.2L193.6,128.5z"></path>
		<path d="M63,265.8l1.2,0.3l4.3-3.7l1-5.6l11.3-13.9l0.5-3.5l7.1-12.9l-0.1-1.7l-1.8,1.3l-0.9,2.7l-3.4,1.4l-0.1-4.7l-1.4-4l-0.9,3
			l-4.8,5.1l-1.3-3.4l-3.5-2.9l-4.5-6.8l-4-0.3l-1.3,3.6l-7.1,0.7l-0.4,2l-7,3.6l-4.4-1.8l-6.8-0.1L34,228l-1.7,0.8l-3.4-0.5
			l11.3,13.5l9.4,5.9l2.6-0.5l6,6.9l-0.3,1.3L63,265.8z"></path>
		<path class="st0" d="M192,172.5l-1.4-2.6l-3.5-9.9l-0.7-4.1l0.7-2.5v-1.5l-4.1-4.6l-4-11.1l-3.2-4.5l-2,1.8l-9.5-0.6l-4.5,2
			l-8.4,1.6l-1.1,0.9l-0.7,6.2l2,2.6l-5.9,14.5l-9.6,6.2l-6.1,10.7l-6.8,3.3l-0.7-0.6l-1.4,0.4l-4.7,3l4.9,0.4l0.8,3.4l3.1,3.9v7.3
			l5.5,4.7l7.7,1.2l0.3,2.6l-4.8,3.8l-0.2,5.1l0,0l8.1,2.1l2.4,2.9l0.5,2.8l1.2,1.4l1.1,3.2l2.2,2l2.8,1.6l-0.1,3.1l-1.6,1.4
			l-0.1,2.2l-2.3,3.4l-2.4,0.5l-2.4,4l1.3,0.3l3.6-0.2l0.8,2.3l-0.7,0.2l10.9,2.9l2.4,8.4l2.2,0.2l2.1-2.2l1-4.2l3.6-0.2l6-1.9
			l0.2-2.8l2.5-0.7l3.7-6.2l4.9-9.7l10.6-6.7l6.2-0.5l2.7-4.5l10.5-7.9l0.7-3.4l0.8-0.7l-0.2-0.3l-2.4-4.7l-3.7,0.1l-2.6-3l-2.4,0.6
			l-6.2-6.9l-1.1-5.9H197l-1.5-6.4l-2.2-3.1l-2.3-5.8l0.3-0.3C191.4,173,191.7,172.7,192,172.5z"></path>
		<path d="M154.4,43l0.1,11.5l4.7-1l2.1,2.1l4,2.4l1.5-0.6l0.2-2.2l5.7-3.2l7.7,1.4l-1.2,4L177,60l2.4,9.1l3.3-1.3l2.4-3.4l0.6-6.5
			l2.9,2.4l1.4,6.9l9.5-0.2l1.9,2.7l0.3,0.1l3.1-0.2l1.2-5.4l-0.4-14.1l-2.1-0.2V39.1l3.1-4.3l-5.3-9.4l-4.6,3.5l-4.3-2.4l-1.6-6.9
			l-2.8,1.3l-9.5-2.2l2.4,4.5l-1.3,2.6l1.1,5.3l-1.7,0.7l-2.3-4.2l-6.3,2.4l-3.4,5.1l-4.1-2.9l-6.5,1l-1.6,4.9l-0.8,0.3l0.9,2.7
			L154.4,43z"></path>
		<path d="M94,319.3l2.2-1.1l-1.2-2.5l-16.1-8.5l-0.6-2.1l-2.1-0.9v-2.7l2.7-2.4l0.1-0.9l-1.6-0.7l-0.8-4.3l-7,0.1l-4.8-5.6
			l-4.3-0.9l-0.7-4.6l-1.3-1.8l-2.1,2.8l-2.3-2.6l2-3.4l-2-1l-10.7,0.7l4.7,2.8l-5.3,6.7l-0.7,6.5l-3.7,1.6l7.2,2.9v2.2l-10.8,3.1
			l0.4,8.6l-5.2,6.2l0.3,2.7l-1,6.2l-4.1,0.8l-3.5,9l-4.3,1.8l-2,4.7l3.8,0.8l6.3,7.8l-0.4,4.9l-4.2,1.4l6,8.3l0.3,2.6l1.5,1.4
			l0.1,4.1l2.7,1.4l1-1.8l-1.3-1l0.7-3.1l4.1,2l13.2-7.2l5.7,6.8l6.9,3l9.5-3.7l1.4-10.5l11.4-22l7.5,6.7l0.2,0.1v-0.1v-11l-1.5-2.4
			L94,319.3z"></path>
		<path d="M231,348.8l-4.9-3.7l-2.6,3.9l-1.1-6.1l-5.1-2.3l0.2-5.3l5.7-5.2l-5.1-4l-2.6,1.8l-1.9-1.9l-2.4,0.8l-0.6-3l-16.4-7.4
			l6.3-6l3.3-10.3l-1.1-5.7l5.6-6.7l-2.2-3.7l-2.6,0.9l-2,0.2l-4-5.1l-1.9-11.9l-3.3,0.4l-2.5-1.6l0.6-7.8l-13.9-5.8l-6.1,1.9
			l-2.8,0.2l-0.9,3.6l-2.9,3l-3.6-0.4l-2.4-8.5l-10.3-2.7L145,253l-3.8-0.5l-2.6,2.4l-4-5.5l-4,1.4l-3.9,0.1l-3.3,1.8l-3.9-0.9
			l-4.5,2.8l0.6,0.8l-3.4,3.3l6,15.8l-3.9,0.7l-2.4,4.7l-2.1,2.2l-3.5,6l-3.9,0.4l-10,6.9l-4.7,1.6l-5.8-2.3l-1.5,3.3l-0.3,1.8
			l-2.6,2.3v1.2l1.9,0.8l0.6,2.2l16,8.5l2,4l-2.9,1.4l-3.3,10.9l1.3,2.1v11.6l-0.2,0.4l6.6,3.2l3.6-6.8l2.6-0.5l0.9-2.5l4.1,0.8
			l-2.1,3.4L109,355l-2.9,1.8l7.5,5.6l10,1.3l13.3-14.3l6,4.1l7-5.1l0.9-4.4l5.5-4.6l2.7,4.8l6.9-5.1l-0.7-2.9l2.9-2.6l9.5,5.2
			l4.3-5.3l2.5,3.7l3-7.4l1.3,3.6l5,3.9l3.5,0.2l-1.2,4.3l5.6,4.4l5.9-3.5l6.4,5l-1.5,4.7l2.3,1.3l4.7-2l-0.6,5.5l10,3.4l-0.1-5.4
			l3.9-3.9L231,348.8z"></path>
		<path d="M17.2,201.6l9.5,4.6l1.1-0.5l2.1,1.5l1.2-1.9l5.6-2v-0.1l4.4-1.5l3.9,2.4l3.1-1.9l2.6,0.7l3.5-2.4l-2.4-5.5l2.9-1l1.2,2.5
			l1.9,0.3l1.4,1.6l2.6,0.2l-2.1-8.5l-2.4-0.9l-4.7-4.9l2.3-3.7l0.4-3.1l1.6-4.4l3.4-3.7l-0.1-0.3l-7.8,0.8l-6.8-13l-12.9-2l-0.6-3
			l3.6-2.7l-0.5-2.4l3.1-1.4L37,135.1l-2.5-4.7h-2.6l-10.8,24.4l-4.2-0.7L8.7,160l-2.1,12.2l4,7l-1.8,8.3l4,2.7l-1.7,11.5
			L17.2,201.6z"></path>
		<path d="M175.1,113.6l-1.9-0.3l-2.3,4.9l0.2,5.9l-6.3,3.3l-5.2-3.9l-4.9-8.7l-6.8,2.9v4.4l-2.2,5l0.3,6.7l5.5-1.6l0.9,3l7.1-1.4
			l4.6-2.1l9.3,0.5l3.7-3.3l-1.1-5.3l3.9-7.6l-1.9-0.5L175.1,113.6z"></path>
		<path class="st0" d="M312.5,94.5l-0.1-2.5l-4.8-8.4l-3.7-2.1l0.3-3.8l-4-1l-0.4-3.1l-6.3-3.4l-7.1-7.1l-2-0.3l-0.5,2.9l-7.8-1.2
			l1.5-4.6l-1-21.9l-4-1l-5.2,5.5l-2-0.4l-1.9-3.7l-8.3-0.8l-3.6,1.9l0.7,5.2l-3.3,9.6l1.5,8.2l-4.6,0.4l-0.7,4.1l5.1,13.3l-2.5-1
			l-5.1,2.6l-3.7-0.5l1.2,1.6l0.6,3.2l4,2.6l-1,15.2l6,7.1l-0.2,0.4c-0.8,1.7-1.6,3.7-1.7,4.3c0.7,1.1,1.4,2.1,2.2,3.1l0.2,0.2l-1,8
			l5.6,1l3.6-2.8l4.1,2.1l0.9,0.3l-0.3-1l2.3-1.6l-2-4.4l1-2.9l4-1.4l5.9-11.1l-0.8-2.6l3.6-4.1l11.5,4.6l0.1,2.1l9,4.9l3.8,4.9
			l4,0.1l3.8-7.2l1.8-9.2l3.1-3.1L312.5,94.5z"></path>
		<path class="st0" d="M265.6,135.8l-1.8-6.6l-1.8-0.7l0,0l-3.4-1.7l-3.4,2.7l-7.4-1.3l1.1-8.7c-2.3-3-2.3-3.4-2.3-3.6
			s0-0.5,1.7-4.5l-5-5.8l-1.1,3l-2.4-1.2l-4.1,0.6l1.9,7.9l-8.2,3.8l-12.5-7.4v-3.9l-2.1,0.7l0.7-7.7l-1.1-2.8l1.9-2.3l0.3-5.2
			L220,87l-1.2-3.3l1.8-3.9l0.4-2.9l-0.4-0.1l-15-6l-3.2,0.2l-3.7,10.5l-1.8,2.4l7.6,2.5l-1,2.6l-3.8,1.6c-0.1,0.4-0.3,1.3-0.5,2.2
			c-0.6,2.2-1,2.9-1.6,2.9c-0.5,0.1-3.9,1.2-6.9,2.4l-1.2,1.9l-0.3,3.9l-9.2,3.2l-5.2,3.4l-0.7,1.4l1.7,0.3l3,2l3.3,0.8l-0.9,1.9
			l4.8,0.5l5.5-1l4,12.1l-1.8,3.2l-3.9,0.2v0.5l3.2,1.4v4.7l3.3,5.2l3.6,9.2l2.6,2.5l0.1,2.3l1.7,3.2l-3,8.9l-4,3.5h-0.2
			c-1.3,0.3-2.6,0.3-3.8,0.1c-0.1,0.1-0.3,0.3-0.5,0.5l2,4.9l2.3,3.2l1.3,5.7h3.4l1.2,6.6l5.5,6.1l2.4-0.6l2.8,3.1l3.9-0.1l2.6,5.3
			l0.2,0.2l5.8-4.7l-0.7-7.3l5.2-6h4.7l0.7,3.8l8.8,0.1l2.7-8.1l2-0.7l4.4-7.2l0.5-2l4-3l-0.7-8.8l7.1-1.6l2.2-4.8l7-0.3l1.9-4.1
			l4.6-2.6l-1.2-5.2L265.6,135.8z"></path>
		<path d="M39.7,146.2l-3,1.4l0.5,2.1l-3.7,2.7l0.3,1.4l12.6,1.9l6.8,12.8l7.8-0.8l0.8,1.9l-3.7,4.2l-1.5,4l-0.4,3.3l-1.9,3l3.8,4
			l2.7,1l2.7,10.9l-4.9-0.3l-1.5-1.7l-2.1-0.3l-1-2.1l-0.4,0.2l2.2,5.2l-4.8,3.3l-2.7-0.7l-3.3,2.1l-4.1-2.6l-1.2,0.4l6.7,6.9
			l3.9,0.1l3.4,7.7l-0.2,0.9l6-0.5l1.3-3.8l5.6,0.4l4.8,7.2l3.6,3l0.7,1.8l3.2-3.4l1.9-6.7l2.8,8.1v3.1l1.2-0.5l0.8-2.5l2.8-2.1
			l0.9-11.4l3.1-5.2l8.8-2.4l2.1-3.9l0.4-8.2l1.8-4.5l7.5-0.7l2.2-3.9l5.4-3.4l0.8-0.2l-0.1-0.1l1.3-1.4l-1-2l3.1-2.5l-1.3-2.6
			l-4,0.2l-4.1-5.9l3.3-2.2l0.8-8.3l1.3-1.3l-1.9-0.2l-4.3-4.3l-1.2,2.6h-2.7l-2.4-6.2l-3,0.5l-2.2-3.7l-1.3,0.5l-0.3,4.6l-3.9-0.7
			l-3.1,4.4l-3.4-2.7l-1.1,1.4l-2.4-0.2l-0.9,4l-4.4-2.7l-1.9-3.1l-6.2,5.6l-5.2,0.6l-1.9-4l2.5-3.5l-0.3-2.7l2.9-0.7l1.1-2.7
			l2.8,1.9l3.8-0.9l0.7-2.1l-2.2-3.6l-2.4,0.1l-1.5-2.7l-3.7,0.5l-2-5.7l-0.6,0.1l-11.2-2.6l-10,3.3l-9.4-0.7l-1.5,2.3l2.5,4.7
			L39.7,146.2z"></path>
		<path d="M99.4,61.2l-2.6,4.4l-13,6.3l3.4,8.6l0.7,13l3.5,4.5l2.4,1l5.7,7.3l14.1-10.8l4.2-8.6l6.8-3.3l10.2-8.7l0.2-2.5l-2.6-2.7
			l1.3-2l1.5-5.5l-0.1-2.9l1.4-4.3l3.8-0.5v-3.8l4.5-1.1l7.4,5.1v3.8l1.5,1.1l1.1-1.4l-1.6-3l-0.1-12.4l0.5-1.7l-0.8-2.2l-4.4,1.9
			l0.8-7.6l-3.7-5.6l-1.1-9.6l-2.3-11.2l-6.5,2.6l-1.3,4.1l-3.7-4.1l-6,11.3l-8.4,2.4l-5.5,3.5l-3.1-4.1l-5.5-0.1l-11.7,5.7l-1.3,7
			l2.1,5.5l1.6,3.4l-3.9,1.1l0.1,2.8l11.8,5.4l-1,3.4L99.4,61.2z"></path>
		<path class="st0" d="M187.7,103.1l0.2-3.4l1.6-2.6l0.2-0.1c2.3-0.9,6.1-2.2,7.3-2.5c0.6-1.4,1-2.9,1.3-4.4l0.1-0.3l3.9-1.7
			l0.3-0.8l-8.1-2.7l2.8-3.7l3.4-9.8l-2-2.8l-9.9,0.3l-1.5-7.6l-0.7-0.6l-0.4,4.4l-2.8,4l-5,2l-2.9-11.1l2.5-3l0.7-2.3l-5.9-1
			l-4.7,2.6l-0.2,2.4l-2.9,1l-4.6-2.8l-1.7-1.7l-3.8,0.9l1.3,2.6l-2.2,3l-3.1-2.3v-3.8l-6.4-4.4l-2.9,0.7v3.9l-4.2,0.6l-1.1,3.3
			l0.2,2.9l-1.7,5.8l-0.9,1.3l2.4,2.4l-0.4,3.1l1.6,1.6v4.6l8.7,14.1l-6.9,9.6l5.6,3.9l3.1,7.5l7.2-3.1l5.4,9.5l4.3,3.2l4.9-2.6
			l-0.2-5.4l4-8.2l5.7-3.7L187.7,103.1z"></path>
		<path d="M71.3,131.9l3.6-0.5l1.6,2.8l2.4-0.1l2.8,4.8l-1.1,3.3l-5.1,1.2l-1.9-1.3l-0.7,1.8l-2.5,0.6l0.2,2.1l-2.3,3.3l1.2,2.4
			l3.8-0.4l7.1-6.4l2.6,4.1l2.5,1.6l0.8-3.3l2.8,0.2l1.5-1.8l3.3,2.6l2.8-3.9l3.3,0.5l0.3-3.9l2.1-0.8l-0.2-8.5l2.3-1.3l0.3-2.1
			l-3.8-3.1l-0.9-3.5l-8.2-4.5l-1.6-2.1l8.1-8.7l-5.4-6.9l-2.2-0.9l-6.2,10l-3.1,0.2l-1,2.3l-6.4-4.1l-1.7,1.4l4.5,16.8l-7.2,1.5
			L71.3,131.9z"></path>
	</g>
	<g id="bg-white" class="bg-white">
		<path d="M53.1,276.5l1.3,1.5l2.2-3l2,2.9l0.6,4.2l4,0.9l4.8,5.5l7.3-0.2l0.8,4.6l1.6,0.7l1.9-3.9l6.1,2.4l4.3-1.4l10.1-7l3.7-0.3
			l3.3-5.8l2.1-2.1l2.6-5l3.3-0.6l-5.9-15.4l3.4-3.2l-5.3-6.6l-0.1-3.2l-5.3-2.1l-1.1,3.5l-4,1l-2.5-1.7l-5.1,0.4l-2-1.9l-3.5-0.2
			l-3.9-2.6l-0.2,1.3l-11.3,13.9l-1.1,5.7l-4.8,4.2l-3.5-0.9l-2.1,0.3l-4.7,8.9l3.2,1.5L53.1,276.5z"></path>
		<path d="M143.9,130.7l-0.3,0.1v0.2l-4,4.1l-0.8-0.2l-1.5,3.5l-4.9,7.5l-9.5,3.2l-2.9-0.2l-2,2l-0.9,8.5l-2.8,1.9l3.3,4.9l4.1-0.2
			l1.7,3.6l-3,2.5l1,2l-1.2,1.1l1,0.8l6.2-2.9l6.3-10.6l9.5-6.2l5.6-13.9l-2-2.4l0.8-6.9l2-1.6l-0.7-2.3L143.9,130.7z"></path>
		<path d="M217.5,79.7l1.2,3.4l-3.4,4.2l-0.3,5.3l-1.8,2.1l1,2.5l-0.6,6.7l2-0.7v4.6l11.8,7l7.2-3.4l-1.9-8l5.2-0.8l1.8,0.8l1.2-3.1
			l1.1-15l-4-2.6l-0.6-3.4l-1.9-2.6l-10.6-1.3l-2.4-2.2l-2.8-0.6l-0.5,3.4L217.5,79.7z"></path>
		<path class="st1" d="M192.2,124.5l-3.6-11.1l-4.9,0.9l-5.8-0.6l-3,6l1.1,5.5l-1.8,1.6l3.6,5.1l3.9,10.9l4.3,4.8v1.9l-0.6,2.5
			l0.7,3.9l3.5,9.7l1.7,3l0.1,0.2h0.2h0.5c0.7,0,1.7-0.1,2.5-0.2h0.2l3.6-3.2l2.8-8.4l-1.6-3.1l-0.1-2.1l-2.5-2.4l-3.7-9.4l-3.3-5.3
			v-4.4l-3.1-1.4l-0.1-1.8l4.3-0.2L192.2,124.5z"></path>
		<path d="M60.7,262.2l1.7,0.5l4.5-4.1L68,253l11.2-13.8l0.1-0.1l0.5-3.5l7.1-12.8v-0.2l-0.1-2.8l-2.7,2l-0.9,2.6l-2.5,1.1l-0.1-4
			l-1.9-5.7l-1.3,4.4l-4.2,4.5l-1.1-2.8l-3.5-2.9l-4.7-7l-4.5-0.3l-1.3,3.6l-7.3,0.7l-0.4,2.2l-6.5,3.3l-4.2-1.6l-7.4-0.2l-0.8,4
			l-1.2,0.6l-4.6-0.7l12.1,14.5l9.7,6.1l2.5-0.5l5.7,6.6l-0.3,1.1L60.7,262.2z"></path>
		<path d="M151.9,38.9l0.1,12.3l5-1.2l1.9,1.9l4.3,2.6l2.1-0.7l0.2-2.3l5.3-2.9l7,1.2l-1,3.3l-2.3,2.8l2.6,9.9l3.9-1.6l2.6-3.6
			l0.5-5.7l2.1,1.7l1.4,7.2l9.6-0.3l1.9,2.6l0.5,0.2l3.6-0.2l1.3-5.8l0,0L204,45.7l-2-0.3V35.2l3.2-4.3l-5.7-10.3l-4.9,3.7l-3.7-2.1
			l-1.8-7.3l-3.1,1.4l-10.5-2.4l2.9,5.3l-1.4,2.5l1.1,5.1l-0.9,0.4l-2.3-4.3l-6.8,2.7l-3.2,4.8l-3.9-2.7l-6.9,1l-1.7,5l-1,0.5l1,2.9
			L151.9,38.9z"></path>
		<path d="M88.9,327.2l3.5-11.5l2.5-1.3l-1.5-3l-16.1-8.5l-0.6-2.2l-2-0.8v-2.2l2.6-2.3l0.3-1.5l-1.8-0.8l-0.7-4.5l-7.2,0.2
			l-4.8-5.6l-4.2-0.9l-0.6-4.1l-1.7-2.6l-2.2,2.9l-1.7-2l2.1-3.5l-2.5-1.3l-12.5,0.8l5.5,3.4l-5,6.3l-0.7,6.3l-4.5,2l8,3.2v1.5
			l-10.8,3.1l0.4,8.9l-5.2,6.1l0.3,2.9l-0.9,5.8l-4,0.8l-3.6,9.1l-4.2,1.7l-2.4,5.4l4.2,0.9l6.1,7.5l-0.4,4.4l-4.5,1.5l6.3,8.8
			l0.3,2.7l1.5,1.3l0.1,4.2l3.4,1.7l1.4-2.5l-1.3-1.1l0.5-2.2l3.8,1.9l13-7.2l5.5,6.6l7.2,3.2l10-3.9l1.4-10.7l11-21.4l7.1,6.3
			l0.7,0.3l0.2-0.4l0.1-11.4L88.9,327.2z"></path>
		<path d="M229.4,344.5l-5.4-4.1l-2.2,3.3l-1-5.1l-5-2.3l0.2-4.8l6-5.5l-5.8-4.5l-2.6,1.7l-1.8-1.8l-2.2,0.7l-0.5-2.7l-16-7.2
			l5.8-5.6l3.4-10.3v-0.2l-1.1-5.6l5.7-6.8l-2.6-4.3l-2.9,1l-1.7,0.1l-3.7-4.7l-2-12.3l-3.6,0.5l-2.1-1.4l0.6-7.9l-14.4-5.9l-6.2,2
			l-3.1,0.2l-1,3.8l-2.5,2.7l-3.1-0.4l-2.4-8.4l-10.9-2.9l-2.5,2.7l-3.8-0.6l-2.3,2.3l-3.9-5.4l-4.3,1.5l-3.9,0.1l-3.3,1.8l-3.9-0.9
			l-5.2,3.2l0.8,0.9l-3.4,3.1l6,15.6l-3.6,0.7l-2.5,4.8l-2.1,2.1l-3.4,6l-3.8,0.3l-10,6.9l-4.5,1.6l-6-2.4l-1.7,3.7l-0.4,1.7
			l-2.6,2.4v1.8l1.9,0.8l0.7,2.2l16,8.4l1.7,3.5l-2.7,1.3l-3.4,11.2l1.4,2.3v11.3l-0.3,0.8l7.4,3.6l3.7-7.1l2.7-0.4l0.9-2.5l2.9,0.6
			l-1.8,3l0.4,12l-3.3,2l8.2,6.1l10.4,1.5l13.1-14.3l6,4.1l7.4-5.4l1-4.4l4.9-4.2l2.7,4.8l7.5-5.6l-0.6-2.9l2.3-2.2l9.7,5.3l4.1-5.2
			l2.6,3.9l2.9-7l0.9,2.5l5.2,4.1l3.1,0.1l-1.2,4.1l6.2,4.8l5.8-3.5l5.9,4.6l-1.5,4.7l2.9,1.7l4.1-1.8l-0.5,5l11,3.8l-0.1-5.8
			l4.1-4.2L229.4,344.5z"></path>
		<path d="M15.1,198.1l9.6,4.7l1.1-0.5l2.2,1.6l1.4-2.2l6-2.1l-0.1-0.1l3.7-1.3l4,2.5l3.1-1.9l2.7,0.6l4-2.7l-2.3-5.4l1.9-0.7
			l1.1,2.4l2.1,0.3l1.4,1.6l3.5,0.2l-2.3-9.4l-2.6-0.9l-4.3-4.6l2-3.3l0.5-3.3l1.6-4.2l3.5-3.9l-0.4-0.9l-7.8,0.7l-6.8-12.9
			l-12.8-1.9l-0.5-2.4l3.7-2.7l-0.5-2.3l3-1.4l-1.3-10.6l-2.7-5.2h-3.2l-10.8,24.3l-4-0.6l-8.6,6.1l-2.1,12.6l4,6.9l-1.8,8.5
			l3.9,2.8l-1.6,11.7L15.1,198.1z"></path>
		<path d="M176.1,111.1l-2.8-1.9l-2.4-0.5l-2.5,5.4l0.2,5.7l-5.8,3l-4.8-3.6l-5.1-9l-7.3,3.1l-3.3-8.1l-6.1-4.2l7.2-9.8l-8.5-13.8
			v-4.5l-1.5-1.5l-10.3,8.8l-6.7,3.3l-4.2,8.5l-14.8,11.4l-0.1-0.2l-7.9,8.6l1,1.3l8.4,4.6l0.9,3.6l3.9,3.3l-0.3,2.9l-2.3,1.3
			l0.2,8.4l2.2,3.7l3.1-0.6l2.5,6.3h1.6l1.5-3.1l4.8,4.8l5.9,0.5l9.3-3.2l4.9-7.4l1.5-3.3l-1.5-0.5l-2.5-1.4v-7.5l2.3-4.1l8.3-4.8
			v-3h0.3v3.2l-8.4,4.8l-2.2,4v7.2l2.2,1.3l2.5,0.7l3.7-3.9l-0.3-8l2.5-5.7v0.8l-2.2,5l0.3,7.5l5.6-1.7l0.9,2.9l7.6-1.4l4.6-2.1
			l9.4,0.5l4-3.7l-1.1-5.3l4.1-8L176.1,111.1z"></path>
		<path class="st1" d="M311,90.2l-0.1-2.4l-4.9-8.6l-3.5-2l0.3-3.9l-4-1l-0.4-3.1l-6.5-3.5l-7.2-7.2l-2.7-0.4l-0.5,2.9l-6.8-0.9
			L276,56l-1-22.4l-4.6-1.1l-5.2,5.5l-1.5-0.3l-1.9-3.7l-8.8-0.9l-4,2.1l0.7,5.4l-3.3,9.6l1.4,7.8l-4.5,0.4l-0.8,4.6l4.7,12.4
			l-1.6-0.6l-5.1,2.6l-4.7-0.6l1.8,2.4l0.6,3.3l4,2.6l-1,15.1l6,7v0.1c-0.8,1.7-1.6,3.8-1.8,4.3v0.2l0.1,0.2
			c0.7,1.1,1.4,2.2,2.2,3.2l0,0l-1,8.3l6.3,1.1l3.6-2.8l3.9,1.9l1.8,0.7l-0.5-1.7l2.4-1.7l-2.3-4.5l0.8-2.4l3.9-1.4l6.1-11.4
			l-0.8-2.5l3.1-3.6l10.9,4.4l0.1,2l9.2,5l3.9,5l4.5,0.2l4-7.5l1.8-9.1l3.4-3.4L311,90.2z"></path>
		<path class="st1" d="M264.1,131.5l-1.8-6.6l-2-0.8l-3.8-1.9L253,125l-6.7-1.2l1-8.4l-0.1-0.2c-2-2.6-2.2-3.2-2.2-3.3
			c0.4-1.5,1-2.9,1.7-4.3l0.1-0.3l-5.7-6.7l-1.3,3.3l-2-1l-4.8,0.7l1.9,8l-7.6,3.5l-12-7.2v-4.4l-2,0.7l0.6-7l-1-2.6l1.8-2.2
			l0.2-5.3l3.4-4.2l-1.2-3.3l1.7-3.7l0.5-3.5l-0.7-0.1l-15.2-6l-3.6,0.2L196,77.2l-2.2,2.9l7.8,2.6l-0.8,1.9l-3.9,1.6l-0.1,0.2
			c-0.1,0.4-0.3,1.3-0.5,2.1c-0.5,1.8-0.8,2.6-1.2,2.6c-0.7,0.1-4.9,1.6-7,2.4l-0.2,0.1l-1.3,2.2l-0.3,3.7l-8.9,3.1l-5.4,3.5l-1,2.2
			l2.3,0.4l2.9,1.9l2.8,0.7l-1,1.9l5.6,0.6l5.1-0.9l3.7,11.4l-1.6,2.7l-4.1,0.2l0.1,1.3l3.1,1.3v4.5l3.3,5.2l3.7,9.3l2.5,2.5
			l0.1,2.1l1.6,3.3l-2.8,8.5l-3.8,3.3l0,0c-1.2,0.2-2.4,0.3-3.6,0.1l-0.3-0.1l-0.2,0.2c-0.1,0.1-0.3,0.3-0.5,0.5l-0.2,0.2l2.1,5.1
			l2.3,3.2l1.4,6h3.4l1.2,6.4l5.8,6.4l2.4-0.6l2.7,3l3.8-0.1l2.5,5l0.6,0.7l6.4-5.1l-0.7-7.3l4.9-5.7l4-0.1l0.7,3.8l9.5,0.1l2.8-8.2
			l2-0.7l4.5-7.4l0.6-2l4-3.1l-0.7-8.6l6.9-1.6l2.2-4.7l7-0.3l2-4.2l4.8-2.7l-1.4-5.7L264.1,131.5z"></path>
		<path class="st1" d="M37.1,141.9l-3,1.4l0.5,2.3l-3.7,2.7l0.4,2l12.8,2l6.8,12.9l7.8-0.8l0.5,1.3l-3.6,4l-1.5,4.1l-0.5,3.3l-2,3.3
			l4,4.2l2.7,1.1l2.4,9.9l-4.1-0.2l-1.4-1.6l-2.1-0.3l-1.1-2.2l-1.3,0.5l2.2,5.4l-4.3,2.9l-2.7-0.6l-3.2,2l-4-2.5l-2.2,0.8l7.4,7.5
			l3.7,0.1l3.2,7.2l-0.3,1.5l7-0.6l1.3-3.7l5,0.3l4.6,7l3.6,3l0.9,2.4l3.8-4l1.5-5.3l2.2,6.5l0.1,3.7l2-0.9l0.9-2.6l2.9-2.1
			l0.9-11.5l3-5l8.8-2.4l2.2-4.1l0.4-8.5l1.7-4.1l7.5-0.8l1.8-3.1l5.8,0.4l0.8,3l3.1,3.9v7.4l5.8,4.9l7.4,1.2l0.2,1.9l-4.8,3.8
			l0.1,5.2v0.4h-0.3l0.2-5.9l4.8-3.8l-0.2-1.5l-7.3-1.2l-5.9-5v-7.4l-3-3.8l-0.7-3l-5.4-0.4l-1.8,3.1l-7.5,0.8l-1.6,3.8l-0.5,8.3
			l-2.2,4.2l4.3,8.5l13,11.8l2.3,3.3l5.5-6.5l6.9-5.2l7.7,2l2.2,2.6l0.5,2.8l1.2,1.4l1.1,3.2l2.3,2.1l2.6,1.5l-0.1,2.5l-1.6,1.4
			l-0.1,2.2l-2.1,3.1l-2.4,0.5l-2.9,4.8l2.1,0.5l3.3-0.2l0.5,1.5l-0.3,0.1l-0.4-1.3l-3.2,0.2l-2.5-0.6l3.2-5.2l2.4-0.5l2-3l0.1-2.3
			l1.6-1.4l0.1-2.2l-2.4-1.4l-2.4-2.2l-1.1-3.2l-1.2-1.5l-0.6-2.8l-2.1-2.5l-7.5-1.9L125,218l-5.8,6.8l-2.5-3.6l-13-11.8l-4.3-8.5
			l-8.7,2.4l-2.9,4.8L87,219.6l0.2,3.1l-7.1,12.9l-0.3,2l4,2.5l3.6,0.2l1.9,1.9l5.1-0.4l2.5,1.7l3.6-0.9l1.2-3.6l5.8,2.3l0.1,3.3
			l4.5,5.6l5.3-3.3l3.9,0.9l3.2-1.7l3.8-0.1l4.6-1.5l3.8,5.3l2.2-2.1l3.8,0.5l2.5-2.7h0.2l0.7,0.2l0,0l10.4,2.8l2.4,8.4l2.8,0.3
			l2.4-2.5l1-4l3.3-0.2l6.5-2l0.2-2.8l2.3-0.6l3.8-6.4l4.9-9.6l10.3-6.4l6.3-0.6l2.8-4.6l10.6-8l0.7-3.4l1.1-0.9l-0.6-0.6l-2.5-4.9
			l-3.8,0.1l-2.7-3l-2.4,0.6l-5.9-6.6l-1.2-6.2h-3.4l-1.4-6l-2.3-3.2l-2.2-5.4l0.1-0.1c0.3-0.3,0.5-0.6,0.9-0.9l0.3-0.3l-1.6-2.9
			l-3.5-9.8l-0.7-4l0.6-2.4v-1.8l-4.2-4.6l-3.9-11l-3.6-5l-2.2,2l-9.4-0.5l-4.5,2l-8.5,1.6l-1.4,1.1l-0.7,6.6l2,2.5l-5.7,14.1
			l-9.5,6.2l-6.3,10.6l-6.4,3.1l-0.6-0.5l-1.7,0.5l-5.8,3.6l0.3-0.5l5.2-3.3l1.6-0.5l-0.5-0.4l1.2-1.2l-1-2l3-2.5l-1.5-3.3l-4.1,0.2
			l-3.6-5.3l3-2l0.9-8.4l1.9-2l-2.8-0.2l-4.6-4.6l-1.4,2.9h-2l-2.5-6.3l-3,0.5l-2.3-3.6l-2,0.8l-0.3,4.3l-3.6-0.7l-3,4.3l-3.4-2.7
			l-1.2,1.6l-2.6-0.2l-0.9,3.8l-3.7-2.3l-2.2-3.4l-6.5,5.9l-4.6,0.5l-1.6-3.4l2.4-3.4l-0.2-2.5l2.8-0.7l0.9-2.4l2.5,1.7l4.3-1
			l0.8-2.6l-2.4-4.1L74,131l-1.5-2.7l-3.7,0.4l-2-5.7l-0.9,0.2l-11.2-2.6l-10,3.3l-9.7-0.8l-1.8,2.8l2.6,4.9L37.1,141.9z"></path>
		<path d="M96.9,57.1l-2.5,4.1l-13.2,6.5l3.5,8.9l0.7,13.1l3.7,4.7l2.4,1l5.9,7.5l14.5-11l0.1-0.1l4.2-8.5l6.7-3.3l10.3-8.9l0.4-2.9
			l-2.6-2.6l1.1-1.7l1.7-5.6l-0.2-2.9l1.3-4l3.9-0.5v-3.8l3.9-0.9l7,4.8v3.8l2.2,1.5l1.4-2l-1.6-3.2l-0.1-12.2l0.5-1.8l-1-2.8
			l-4.1,1.8l0.7-7l-3.7-5.7l-1.1-9.5l-2.5-11.8L133.2,5l-1.1,3.5l-3.6-4l-6.3,11.8l-8.1,2.3l-5.2,3.3l-3-3.9l-5.9-0.1l-12.1,5.9
			l-1.3,7.3l2.1,5.7l1.4,2.9l-3.8,1l0.2,3.6l11.7,5.3l-0.9,3.1L96.9,57.1z"></path>
		<path class="st1" d="M177.4,102.5l8.8-3.1l0.2-3.6l1.4-2.3l0,0c3.8-1.4,6.4-2.3,7.2-2.5h0.2l0.1-0.2c0.6-1.5,1-3,1.3-4.6v-0.1
			l3.9-1.6l0.6-1.5l-7.9-2.6l2.4-3.1l3.6-10.2l-2.3-3.3l-9.7,0.3l-1.5-7.3l-1.5-1.2l-0.5,5.2l-2.6,3.8l-4.3,1.6l-2.7-10.3l2.3-2.8
			l1-3l-6.6-1.2l-5.1,2.8l-0.2,2.3l-2.4,0.8l-4.4-2.6l-1.9-1.9l-4.7,1.1l1.5,2.9l-1.8,2.4l-2.5-1.8v-3.7l-6.8-4.6l-3.4,0.9v3.8
			l-4,0.6l-1.2,3.7l0.2,2.9l-1.6,5.7l-1,1.6L134,68l-0.4,3.1l1.6,1.7v4.5l8.6,13.9l-7,9.7l5.9,4.1l3.2,7.8l7.2-3.1l5.2,9.1l4.7,3.6
			l5.4-2.8l-0.2-5.6l3.8-8L177.4,102.5z"></path>
		<path d="M69,128.4l3.7-0.4l1.5,2.7l2.4-0.1l2.5,4.3l-0.9,2.9l-4.6,1.1l-2.2-1.5l-0.9,2.1l-2.6,0.7l0.2,2.3l-2.4,3.3l1.5,3.1
			l4.4-0.6l6.6-6l2.3,3.6l3.4,2.1l0.8-3.6l2.7,0.2l1.3-1.6l3.3,2.7l2.9-4.2l3.5,0.6l0.4-4.1l2.1-0.9l-0.2-8.5l2.3-1.3l0.3-2.6
			l-3.9-3.2l-0.8-3.6l-8.4-4.5l-1.2-1.6l8.1-8.8l-5.8-7.3l-2.7-1.2l-6.3,10.3l-3.2,0.1l-0.8,2.1l-6.3-4l-2.1,1.8l4.4,16.6l-7.2,1.6
			L69,128.4z"></path>
	</g>
	<path id="salvaterrademagos" d="M53.7,276.4l0.7,0.8l2.2-3l2.4,3.6l0.6,3.9l3.9,0.8l4.7,5.5l7.5-0.2l0.8,4.8l1,0.4l1.8-3.9l6.4,2.5
		l4.1-1.4l10.2-7l3.5-0.3l3.2-5.6l2.2-2.2l2.6-5l3-0.6l-5.9-15.2l3.3-3l-5.1-6.4l-0.1-3.1l-4.5-1.7l-1.1,3.2l-4.4,1.2l-2.5-1.8
		l-5.2,0.4l-2-1.9l-3.5-0.2l-3.4-2.2l-0.1,0.6l-0.1,0.1l-11.1,13.9l-1.1,5.7l-5.1,4.5l-3.7-1l-1.7,0.3l-4.4,8.2l3.2,1.5L53.7,276.4z
		" data-municipality-id="232" data-title="Salvaterra de Magos"><title>Salvaterra de Magos</title></path>
	<path id="almeirim" d="M117.3,246.4l3.9,0.9l3.2-1.7l3.9-0.1l4.8-1.6l3.7,5.1l2-1.9l3.7,0.5l2.5-2.7l0.3,0.1l-0.4-1.1l-2.8,0.2
		l-3.3-0.8l3.6-5.9l2.5-0.6l1.8-2.7l0.1-2.3l1.6-1.4l0.1-1.7l-2.2-1.3l-2.6-2.3l-1.1-3.3l-1.2-1.4l-0.5-2.9l-2-2.3l-7-1.8l-6.6,5
		l-6.1,7.2l-2.8-4.1l-13-11.8l-4.2-8.2l-8.1,2.2l-2.7,4.5l-0.9,11.3l0.3,3.3l-7.2,13.1l-0.3,1.5l3.6,2.3l3.7,0.2l1.9,1.9l5-0.4
		l2.5,1.7l3.1-0.8l1.3-3.9l6.6,2.5l0.1,3.5l4.1,5.2L117.3,246.4z" data-municipality-id="298" data-title="Almeirim"><title>Almeirim</title></path>
	<path id="alpiarca" d="M118.8,184.1l-0.7-2.7l-4.7-0.4l-1.8,3.1l-7.4,0.7l-1.4,3.6l-0.4,8.2l-2.2,4.1l4.2,8.2l13,11.7l1.9,2.8
		l5.1-6l6-4.5h-0.2l0.2-6.6l4.7-3.7l-0.1-0.9l-7-1.2l-6.2-5.3v-7.4L118.8,184.1z" data-municipality-id="299" data-title="Alpiarça"><title>Alpiarça</title></path>
	<path id="torresnovas" d="M101.5,129l0.2,8l2,3.3l3.1-0.6l2.5,6.4h1l1.6-3.5l5.3,5.3l5.6,0.4l9-3.1l4.8-7.2l1.2-2.8l-1-0.3
		l-2.8-1.6v-7.9l2.4-4.3l3.3-2l4.9-2.8v-3.2h0.4l-3.1-7.5l-6.3-4.5l7.2-9.9l-8.4-13.7v-4.4l-1.1-1l-9.9,8.6l-6.6,3.2l-4.2,8.4
		l-15.3,11.8l-0.1-0.1l-7.2,7.8l0.8,1l8.4,4.6l0.9,3.7l4,3.3l-0.4,3.4L101.5,129z" data-municipality-id="236" data-title="Torres Novas"><title>Torres Novas</title></path>
	<path id="entroncamento" d="M140.4,120.2l-3,1.8l-2.1,3.7v6.8l2,1.2l2,0.5l3.4-3.5l-0.3-7.9l2.2-5L140.4,120.2z" data-municipality-id="226" data-title="Entroncamento"><title>Entroncamento</title></path>
	<path id="golega" d="M121.3,175.4l5.7-2.7l6.3-10.6l9.5-6.1l5.4-13.5l-1.9-2.4l0.8-7.2l2-1.6l-0.5-1.5l-4.5,1.4l0,0l-4.4,4.5
		l-0.6-0.2l-1.4,3.1l-5,7.7l-9.8,3.3l-2.7-0.2l-1.7,1.8l-0.9,8.5l-2.6,1.7l2.9,4.3l4.1-0.2l2.1,4.3l-3,2.5l0.9,1.9l-1,1L121.3,175.4
		z" data-municipality-id="228" data-title="Golegã"><title>Golegã</title></path>
	<path id="sardoal" d="M219.7,76.2l-1.6,3.5l1.2,3.5l-3.5,4.3l-0.3,5.3l-1.7,2l0.9,2.4l-0.5,5.9l1.9-0.6v5l11.3,6.7l6.6-3.1
		l-1.9-8.2l5.9-0.9l1.4,0.8l1-2.6l1-14.7l-3.9-2.5l-0.6-3.5l-1.7-2.3l-10.6-1.4l-2.3-2.2l-2.2-0.4L219.7,76.2z" data-municipality-id="234" data-title="Sardoal"><title>Sardoal</title></path>
	<path id="constancia" class="st2" d="M191.6,124.5l-3.4-10.4l-4.5,0.8l-5.5-0.6l-2.8,5.5l1.1,5.6l-1.7,1.5l3.4,4.8l3.9,11l4.3,4.8
		v2.2l-0.6,2.4l0.6,3.7l3.4,9.6l1.6,2.9l0,0c1,0,2,0,2.9-0.1l3.4-3l2.7-8l-1.6-3l-0.1-2l-2.4-2.3l-3.7-9.4l-3.4-5.4v-4.2l-3.1-1.4
		l-0.2-2.6l4.5-0.2L191.6,124.5z" data-municipality-id="224" data-title="Constância"><title>Constância</title></path>
	<path id="cartaxo" d="M39.5,220.3l-6.8-0.1L32,224l-1.7,0.8l-3.4-0.5l11.3,13.5l9.4,5.9l2.6-0.5l6,6.9l-0.3,1.3l5.1,10.4l1.2,0.3
		l4.3-3.7l1-5.6l11.3-13.9l0.5-3.5l7.1-12.9l-0.1-1.7l-1.8,1.3l-0.9,2.7l-3.4,1.4l-0.1-4.7l-1.4-4l-0.9,3l-4.8,5.1l-1.3-3.4
		l-3.5-2.9l-4.5-6.8l-4-0.3l-1.3,3.6l-7.1,0.7l-0.4,2l-7,3.6L39.5,220.3z" data-municipality-id="222" data-title="Cartaxo"><title>Cartaxo</title></path>
	<path id="chamusca" class="st2" d="M190,168.5l-1.4-2.6l-3.5-9.9l-0.7-4.1l0.7-2.5v-1.5l-4.1-4.6l-4-11.1l-3.2-4.5l-2,1.8l-9.5-0.6
		l-4.5,2l-8.4,1.6l-1.1,0.9l-0.7,6.2l2,2.6l-5.9,14.5l-9.6,6.2l-6.1,10.7l-6.8,3.3l-0.7-0.6l-1.4,0.4l-4.7,3l4.9,0.4l0.8,3.4
		l3.1,3.9v7.3l5.5,4.7l7.7,1.2l0.3,2.6l-4.8,3.8l-0.2,5.1l0,0l8.1,2.1l2.4,2.9l0.5,2.8l1.2,1.4l1.1,3.2l2.2,2l2.8,1.6l-0.1,3.1
		l-1.6,1.4l-0.1,2.2l-2.3,3.4l-2.4,0.5l-2.4,4l1.3,0.3l3.6-0.2l0.8,2.3l-0.7,0.2l10.9,2.9l2.4,8.4l2.2,0.2l2.1-2.2l1-4.2l3.6-0.2
		l6-1.9l0.2-2.8l2.5-0.7l3.7-6.2l4.9-9.7l10.6-6.7l6.2-0.5l2.7-4.5l10.5-7.9l0.7-3.4l0.8-0.7l-0.2-0.3l-2.4-4.7l-3.7,0.1l-2.6-3
		l-2.4,0.6l-6.2-6.9l-1.1-5.9H195l-1.5-6.4l-2.2-3.1l-2.3-5.8l0.3-0.3C189.4,169,189.7,168.7,190,168.5z" data-municipality-id="223" data-title="Chamusca"><title>Chamusca</title></path>
	<path id="ferreiradozezere" d="M152.9,37.1l-0.5,1.9l0.1,11.5l4.7-1l2.1,2.1l4,2.4l1.5-0.6l0.2-2.2l5.7-3.2l7.7,1.4l-1.2,4L175,56
		l2.4,9.1l3.3-1.3l2.4-3.4l0.6-6.5l2.9,2.4l1.4,6.9l9.5-0.2l1.9,2.7l0.3,0.1l3.1-0.2l1.2-5.4l-0.4-14.1l-2.1-0.2V35.1l3.1-4.3
		l-5.3-9.4l-4.6,3.5l-4.3-2.4l-1.6-6.9l-2.8,1.3l-9.5-2.2l2.4,4.5l-1.3,2.6l1.1,5.3l-1.7,0.7l-2.3-4.2l-6.3,2.4l-3.4,5.1l-4.1-2.9
		l-6.5,1l-1.6,4.9l-0.8,0.3L152.9,37.1z" data-municipality-id="227" data-title="Ferreira do Zêzere"><title>Ferreira do Zêzere</title></path>
	<path id="benavente" d="M89.8,340.7v-0.1v-11l-1.5-2.4l3.7-11.9l2.2-1.1l-1.2-2.5l-16.1-8.5l-0.6-2.1l-2.1-0.9v-2.7l2.7-2.4
		l0.1-0.9l-1.6-0.7l-0.8-4.3l-7,0.1l-4.8-5.6l-4.3-0.9l-0.7-4.6l-1.3-1.8l-2.1,2.8l-2.3-2.6l2-3.4l-2-1l-10.7,0.7l4.7,2.8l-5.3,6.7
		l-0.7,6.5l-3.7,1.6l7.2,2.9v2.2l-10.8,3.1l0.4,8.6l-5.2,6.2l0.3,2.7l-1,6.2l-4.1,0.8l-3.5,9l-4.3,1.8l-2,4.7l3.8,0.8l6.3,7.8
		l-0.4,4.9l-4.2,1.4l6,8.3l0.3,2.6l1.5,1.4l0.1,4.1l2.7,1.4l1-1.8l-1.3-1l0.7-3.1l4.1,2l13.2-7.2l5.7,6.8l6.9,3l9.5-3.7l1.4-10.5
		l11.4-22l7.5,6.7L89.8,340.7z" data-municipality-id="221" data-title="Benavente"><title>Benavente</title></path>
	<path id="coruche" d="M229,344.8l-4.9-3.7l-2.6,3.9l-1.1-6.1l-5.1-2.3l0.2-5.3l5.7-5.2l-5.1-4l-2.6,1.8l-1.9-1.9l-2.4,0.8l-0.6-3
		l-16.4-7.4l6.3-6l3.3-10.3l-1.1-5.7l5.6-6.7l-2.2-3.7l-2.6,0.9l-2,0.2l-4-5.1l-1.9-11.9l-3.3,0.4l-2.5-1.6l0.6-7.8l-13.9-5.8
		l-6.1,1.9l-2.8,0.2l-0.9,3.6l-2.9,3l-3.6-0.4l-2.4-8.5l-10.3-2.7L143,249l-3.8-0.5l-2.6,2.4l-4-5.5l-4,1.4l-3.9,0.1l-3.3,1.8
		l-3.9-0.9l-4.5,2.8l0.6,0.8l-3.4,3.3l6,15.8l-3.9,0.7l-2.4,4.7l-2.1,2.2l-3.5,6l-3.9,0.4l-10,6.9l-4.7,1.6l-5.8-2.3l-1.5,3.3
		l-0.3,1.8l-2.6,2.3v1.2l1.9,0.8l0.6,2.2l16,8.5l2,4l-2.9,1.4l-3.3,10.9l1.3,2.1v11.6l-0.2,0.4l6.6,3.2l3.6-6.8l2.6-0.5l0.9-2.5
		l4.1,0.8l-2.1,3.4L107,351l-2.9,1.8l7.5,5.6l10,1.3l13.3-14.3l6,4.1l7-5.1l0.9-4.4l5.5-4.6l2.7,4.8l6.9-5.1l-0.7-2.9l2.9-2.6
		l9.5,5.2l4.3-5.3l2.5,3.7l3-7.4l1.3,3.6l4.9,3.9l3.6,0.2l-1.2,4.3l5.6,4.4l5.9-3.5l6.4,5l-1.5,4.7l2.3,1.3l4.7-2l-0.6,5.5l10,3.4
		l-0.1-5.4l3.9-3.9L229,344.8z" data-municipality-id="225" data-title="Coruche"><title>Coruche</title></path>
	<path id="riomaior" d="M15.2,197.6l9.5,4.6l1.1-0.5l2.1,1.5l1.2-1.9l5.6-2v-0.1l4.4-1.5l3.9,2.4l3.1-1.9l2.6,0.7l3.5-2.4l-2.4-5.5
		l2.9-1l1.2,2.5l1.9,0.3l1.4,1.6l2.6,0.2l-2.1-8.5l-2.4-0.9l-4.7-4.9l2.3-3.7l0.4-3.1l1.6-4.4l3.4-3.7l-0.1-0.3l-7.8,0.8l-6.8-13
		l-12.9-2l-0.6-3l3.6-2.7l-0.5-2.4l3.1-1.4L35,131.1l-2.5-4.7h-2.6l-10.8,24.4l-4.2-0.7L6.7,156l-2.1,12.2l4,7l-1.8,8.3l4,2.7
		l-1.7,11.5L15.2,197.6z" data-municipality-id="231" data-title="Rio Maior"><title>Rio Maior</title></path>
	<path id="vilanovadabarquinha" d="M173.1,109.6l-1.9-0.3l-2.3,4.9l0.2,5.9l-6.3,3.3l-5.2-3.9l-4.9-8.7l-6.8,2.9v4.4l-2.2,5l0.3,6.7
		l5.5-1.6l0.9,3l7.1-1.4l4.6-2.1l9.3,0.5l3.7-3.3l-1.1-5.3l3.9-7.6l-2-0.5L173.1,109.6z" data-municipality-id="237" data-title="Vila Nova da Barquinha"><title>Vila Nova da Barquinha</title></path>
	<path id="macao" class="st2" d="M310.5,90.5l-0.1-2.5l-4.8-8.4l-3.7-2.1l0.3-3.8l-4-1l-0.4-3.1l-6.3-3.4l-7.1-7.1l-2-0.3l-0.5,2.9
		l-7.8-1.2l1.5-4.6l-1-21.9l-4-1l-5.2,5.5l-2-0.4l-1.9-3.7l-8.3-0.8l-3.6,1.9l0.7,5.2l-3.3,9.6l1.5,8.2l-4.6,0.4l-0.7,4.1l5.1,13.3
		l-2.5-1l-5.1,2.6l-3.7-0.5l1.2,1.6l0.6,3.2l4,2.6l-1,15.2l6,7.1l-0.2,0.4c-0.8,1.7-1.6,3.7-1.7,4.3c0.7,1.1,1.4,2.1,2.2,3.1
		l0.2,0.2l-1,8l5.6,1l3.6-2.8l4.1,2.1l0.9,0.3l-0.3-1l2.3-1.6l-2-4.4l1-2.9l4-1.4l5.9-11.1l-0.8-2.6l3.6-4.1l11.5,4.6l0.1,2.1l9,4.9
		l3.8,4.9l4,0.1l3.8-7.2l1.8-9.2l3.1-3.1L310.5,90.5z" data-municipality-id="229" data-title="Mação"><title>Mação</title></path>
	<path id="abrantes" class="st2" d="M263.6,131.8l-1.8-6.6l-1.8-0.7l0,0l-3.4-1.7l-3.4,2.7l-7.4-1.3l1.1-8.7c-2.3-3-2.3-3.4-2.3-3.6
		s0-0.5,1.7-4.5l-5-5.8l-1.1,3l-2.4-1.2l-4.1,0.6l1.9,7.9l-8.2,3.8l-12.5-7.4v-3.9l-2.1,0.7l0.7-7.7l-1.1-2.8l1.9-2.3l0.3-5.2
		L218,83l-1.2-3.3l1.8-3.9l0.4-2.9l-0.4-0.1l-15-6l-3.2,0.2l-3.7,10.5l-1.8,2.4l7.6,2.5l-1,2.6l-3.8,1.6c-0.1,0.4-0.3,1.3-0.5,2.2
		c-0.6,2.2-1,2.9-1.6,2.9c-0.5,0.1-3.9,1.2-6.9,2.4l-1.2,1.9l-0.3,3.9l-9.2,3.2l-5.2,3.4l-0.7,1.4l1.7,0.3l2.9,2l3.3,0.8l-0.9,1.9
		l4.8,0.5l5.5-1l4,12.1l-1.8,3.2l-3.9,0.2v0.5l3.2,1.4v4.7l3.3,5.2l3.6,9.2l2.6,2.5l0.1,2.3l1.7,3.2l-3,8.9l-4,3.5H195
		c-1.3,0.3-2.6,0.3-3.8,0.1c-0.1,0.1-0.3,0.3-0.5,0.5l2,4.9l2.3,3.2l1.3,5.7h3.4l1.2,6.6l5.5,6.1l2.4-0.6l2.8,3.1l3.9-0.1l2.6,5.3
		l0.2,0.2l5.8-4.7l-0.7-7.3l5.2-6h4.8l0.7,3.8l8.8,0.1l2.7-8.1l2-0.7l4.4-7.2l0.5-2l4-3l-0.7-8.8l7.1-1.6l2.2-4.8l7-0.3l1.9-4.1
		l4.6-2.6l-1.2-5.2L263.6,131.8z" data-municipality-id="300" data-title="Abrantes"><title>Abrantes</title></path>
	<path id="santarem" d="M36.3,130.7l1.4,11.5l-3,1.4l0.5,2.1l-3.7,2.7l0.3,1.4l12.6,1.9l6.8,12.8l7.8-0.8l0.8,1.9l-3.7,4.2l-1.5,4
		l-0.4,3.3l-1.9,3l3.8,4l2.7,1l2.7,10.9l-4.9-0.3l-1.5-1.7l-2.1-0.3l-1-2.1l-0.4,0.2l2.2,5.2l-4.8,3.3l-2.7-0.7l-3.3,2.1l-4.1-2.6
		l-1.2,0.4l6.7,6.9l3.9,0.1l3.4,7.7l-0.2,0.9l6-0.5l1.3-3.8l5.6,0.4l4.8,7.2l3.6,3l0.7,1.8l3.2-3.4l1.9-6.7l2.8,8.1v3.1l1.2-0.5
		l0.8-2.5l2.8-2.1l0.9-11.4l3.1-5.2l8.8-2.4l2.1-3.9l0.4-8.2l1.8-4.5l7.5-0.7l2.2-3.9l5.4-3.4l0.8-0.2l-0.1-0.1l1.3-1.4l-1-2
		l3.1-2.5l-1.3-2.6l-4,0.2l-4.1-5.9l3.3-2.2l0.8-8.3l1.3-1.3l-1.9-0.2l-4.3-4.3l-1.2,2.6h-2.7l-2.4-6.2l-3,0.5l-2.2-3.7l-1.3,0.5
		l-0.3,4.6l-3.9-0.7l-3.1,4.4l-3.4-2.7l-1.1,1.4l-2.4-0.2l-0.9,4l-4.4-2.7l-1.9-3.1l-6.2,5.6l-5.2,0.6l-1.9-4l2.5-3.5l-0.3-2.7
		l2.9-0.7l1.1-2.7l2.8,1.9l3.8-0.9l0.7-2.1l-2.2-3.6l-2.4,0.1l-1.5-2.7l-3.7,0.5l-2-5.7l-0.6,0.1l-11.2-2.6l-10,3.3l-9.4-0.7
		l-1.5,2.3L36.3,130.7z" data-municipality-id="233" data-title="Santarém"><title>Santarém</title></path>
	<path id="ourem" d="M97.4,57.2l-2.6,4.4l-13,6.3l3.4,8.6l0.7,13l3.5,4.5l2.4,1l5.7,7.3l14.1-10.8l4.2-8.6l6.8-3.3l10.2-8.7l0.2-2.5
		l-2.6-2.7l1.3-2l1.5-5.5l-0.1-2.9l1.4-4.3l3.8-0.5v-3.8l4.5-1.1l7.4,5.1v3.8l1.5,1.1l1.1-1.4l-1.6-3l-0.1-12.4l0.5-1.7l-0.8-2.2
		l-4.4,1.9l0.8-7.6l-3.7-5.6l-1.1-9.6l-2.3-11.2l-6.5,2.6l-1.3,4.1l-3.7-4.1l-6,11.3l-8.4,2.4l-5.5,3.5l-3.1-4.1l-5.5-0.1l-11.7,5.7
		l-1.3,7l2.1,5.5l1.6,3.4l-3.9,1.1l0.1,2.8l11.8,5.4l-1,3.4L97.4,57.2z" data-municipality-id="230" data-title="Ourém"><title>Ourém</title></path>
	<path id="tomar" class="st2" d="M185.7,99.1l0.2-3.4l1.6-2.6l0.2-0.1c2.3-0.9,6.1-2.2,7.3-2.5c0.6-1.4,1-2.9,1.3-4.4l0.1-0.3
		l3.9-1.7l0.3-0.8l-8.1-2.7l2.8-3.7l3.4-9.8l-2-2.8l-9.9,0.3l-1.5-7.6l-0.7-0.6l-0.4,4.4l-2.8,4l-5,2l-2.9-11.1l2.5-3l0.7-2.3
		l-5.9-1l-4.7,2.6l-0.2,2.4l-2.9,1l-4.6-2.8l-1.7-1.7l-3.8,0.9l1.3,2.6l-2.2,3l-3.1-2.3v-3.8l-6.4-4.4l-2.9,0.7v3.9l-4.2,0.6
		l-1.1,3.3l0.2,2.9l-1.7,5.8l-0.9,1.3l2.4,2.4l-0.4,3.1l1.6,1.6v4.6l8.7,14.1l-6.9,9.6l5.6,3.9l3.1,7.5l7.2-3.1l5.4,9.5l4.3,3.2
		l4.9-2.6l-0.2-5.4l4-8.2l5.7-3.7L185.7,99.1z" data-municipality-id="235" data-title="Tomar"><title>Tomar</title></path>
	<path id="alcanena" d="M67.7,123.3l1.6,4.6l3.6-0.5l1.6,2.8l2.4-0.1l2.8,4.8l-1.1,3.3l-5.1,1.2l-1.9-1.3l-0.7,1.8l-2.5,0.6l0.2,2.1
		l-2.3,3.3l1.2,2.4l3.8-0.4l7.1-6.4l2.6,4.1l2.5,1.6l0.8-3.3l2.8,0.2l1.5-1.8l3.3,2.6l2.8-4l3.3,0.6l0.3-3.9l2.1-0.8l-0.2-8.5
		l2.3-1.3l0.3-2.1l-3.8-3.1l-0.9-3.5l-8.2-4.5l-1.6-2.1l8.1-8.7L91,96.1l-2.2-0.9l-6.2,10l-3.1,0.2l-1,2.3l-6.4-4.1l-1.7,1.4
		l4.5,16.8L67.7,123.3z" data-municipality-id="301" data-title="Alcanena"><title>Alcanena</title></path>
</g>
</svg>