<svg xmlns="http://www.w3.org/2000/svg" viewBox="0 0 292.8 355.4" class="map-svg map-municipalities" data-id="17" data-district="setubal">
<g data-title="setubal" data-district-id="17">
	<g id="map-bg" class="map-bg">
		<path d="M71.1,50.8l5.1-1.1l0.6,1.8L75,52.6l-0.1,0.2l2.2,1.6l2.4,9.8l2.4-0.3l0.9,1.7l1.7-0.5l1-2.8l3.2,2l3.8-1.8l-1.4-13.6
			L89.2,47l-2.7-0.1l-2.6-2.5l-5-1.5l-10.5,2.6L66.6,43l-6.9,1.9L59,52.8l6-2.4L71.1,50.8z"></path>
		<path class="st0" d="M30.4,68.5L28,78.7l2.1,0.9l-1.6,2.9l4.8,7.7l3.5-0.9l4.6,1.5l4.1,6.1l3.1,0.2l4.8-3.6l0.1,1
			c0.1,1.8,0.3,4.5,0.4,5.8c1.2-0.5,2.5-1,3.8-1.3l-1.1-2.8l2.4-6.5L58.3,85l0.1-0.2c0.3-0.4,0.6-0.8,0.8-1.2
			c-0.1-0.4-0.6-2.1-1-3.6l-0.4-1l-0.3,2.8l-6.1-12.5l-5.4-1l-1.2,8.2L41.9,70h-4.1l-0.2-1.2l4.8-1.2l-0.2-2l-2.3,0.2L39,65.4
			l-1.8,1.5L30.4,68.5z"></path>
		<path d="M115.6,50l-2.6,1.6l-1.7,7.1l-17.9,1.5l0.3,2.9l-5.1,2.5L86.1,64l-0.8,1.9l-2,0.7l2.2,4.2l-2.3,2.4l1.5,2.8l-2.8,0.8
			l-5.6-5.1l-0.8,0.5l1.6,8l-7.7,1.9l1.2,2.8l-2.5,1l-1.8,3l2.6,4.4l4.2,3.7l1.5-1.5l3.6,5.2l4.8,2l1.1-1.3l1.5,1.7l1.6-3.8l6.1,0.4
			l2.4-2.2l2.7,0.4l1.7-1.6v-2.5L109,94l2,1.8l1.4-3.1l3.5,0.5l2.3,3.1l14.4-5.9l2.8-0.2l0.1,1.1l0.9-0.6l1.8,0.4l-2.7,3.3l1.1,12.2
			l2.3-0.4l0.5,4.1l4.6-1.9l5.3-7.1l10.2-4.1l-3.8-17.5l10.8-10.8l-1.8-5.5l-11,4l-7.1-4l3-5.4l-7.8-2.4l-5.4-1.4l-5.4,8l-5.4-1.9
			l-1.2-5.1l1.6-2.8l5.4,0.3l3.4-3.5l4.6,0.9l2.8-6.2l-11.8-3.1l-3.3-2.1l-4.9,1.1l-2.8-2.2l-3.9,8.7L115.6,50z"></path>
		<path d="M143.7,43.2l-3.7,8.2l-4.8-1l-3.4,3.5l-5.2-0.3l-1,1.8l0.9,4.1l4,1.4l5.5-8l6.1,1.7l9.1,2.8l-3.1,5.5l5.7,3.3l11.6-4.2
			l2,6.1l6.8-4.1l0.9-3.9l4.8-1.8l7.5-5.5l2.8-5.2l3.8-0.5l0.3-3.2l-2.8-4l5.7-6.2l-0.4-2.3l-12.1,0.2l-8-3l-3.4,0.7l-6.2-3.4
			l1.4-3.9l0.5-10.9l1.8-1.6l-0.2-3.6l-4.8,0.9l-1,2.9h-2.5l0.5,1.7l-3.2,4.7l-3.7-0.7l-2.2-2.3l-4.3-2.4l-5.7-6l0.9,3.9l-10.1,17.6
			l-2.1,11.2l-3.8,0.9l2.3,1.4L143.7,43.2z"></path>
		<path d="M75.8,79.4l-1.5-7.7l2.1-1.5l5.8,5.4l0.9-0.3L81.8,73l2.4-2.4l-2.9-5.5l-2.6,0.3L76.1,55l-1.9-1.4l-1.3,1.7l-3.2-0.4
			l-1.5,5.3l2.9,0.9l0.5,5l-8.2-4.8l-0.5,2.5L60.6,61l-0.1-0.5l-0.3,0.3l-0.4,7.9l3.3,0.9l3.7,4.2l2.8,0.4L69.4,81L75.8,79.4z"></path>
		<path d="M32.3,90.8l-5.1-8.3l1.3-2.4l-1.8-0.7l2.8-11.8l7.3-1.7l1.2-1.1l-2.5-1.2l0.3-8.2l-22.1,3.2l-6,4l4.8,7.8l12.4,24.9
			L32.3,90.8z"></path>
		<path d="M78.9,41.7l5.6,1.7l2.4,2.4l2.8,0.1l2.4,2.5l1.1,10.7l17.2-1.4l1.7-6.8l2.4-1.5l-0.1-3.4l4.2-9.1L111,31l-11.6,6.4
			l-5.2-1.2l-0.3,3l2.1,0.9l0.4,1.3l-3.8-0.6v-4.9l-2.3-0.2l-0.5-4.1l-10.2,2.1l-1.2,2.5l-9.3,3.4l-0.7,2.8l-0.7,0.2l1.1,1.6
			L78.9,41.7z"></path>
		<path d="M250,204.1l-4.6,8.1l-12-0.6l-1.8,4l-7.6-0.5l-7.3-6.5l0.5-2.1l-13.7-11.4l-0.3-4.4l-2.3,0.8l-2.5,5.7l-7.6-2.6l-1.7-2.1
			l-2.2,1.5l-7.2-3.9l-3.2,1.2l-7.8-2.3l-3.8-9.5v-2.6l-13.6,2.2l-13.4-1.2l-3.2-5.3l-5.8,1.2l-4.5-15.2l-3.3-12.7l-0.5,0.5
			l-4.3-7.6v-3l-2.7-4.5l-4-2.1L97.3,116l-2.8,2l21.2,23.8l11.8,38.5l-5.5,50.5l-0.6,1.8l13.6,1.7l8.6,4.1l4.1,0.9l-0.1-4.2
			l-2.9-3.5l6.4,0.6l5.6-1.2l2.2,4.9l2.2,1.2l0.5,4.2l2.4,2l7.8,0.3l0.8,3.3l10.6,3.1l2.7,3.6l17.7,6l1.6,2.3l2.5-1l2.3,1.6l3.7-1.4
			l1.2-3l2-0.7l-1.5-6.4l2.9-0.8l-0.7-0.6l3.6-12.9l2.9-1.2l4.2,3.9l2.9-8l-1.3-4.1l5.6,0.5l-0.4-5l6.9,5.4l4.5-0.6v-10.5l2.7-5.3
			l1.4,2.7l8.7,0.1l0.3-0.5l-5-4.4L250,204.1z"></path>
		<path d="M280.5,174.4l-4.8-4.4l-5.3-6.1H265l-12.6-3.9l-2.3-4.8l-6.1-1.8l-5.3,0.3l9.2-13.3l-2.8-2.5l3.2-1.3l-0.9-2.5l-9.1-1.7
			l-0.2-4.5l1.8-0.9l-4.4-15.1l-5.7-5.5l-2.9-7.5l-8.2,4.1l-2.8,4.1l-8.4-2l-7,3.2l-0.7-5.9l-3.7,2.5l-0.7-6.9l-5.7,2.5l3.7,7.3
			l-6.2,2.7l-1.1-4.8l-9.4-1.3l-0.7-5l-3.4,1.1l-5.4-2.7l-7.1,0.4l-10.1,4l-5.3,7l-5.2,2.3l2.1,20.9l4.8-0.9l5.9,7.8l-0.9,2.5
			l-16.4-2.1v-2.5l-1.8-0.6l0.6,4.3l-2.5,1.1l-3.1,0.2l-4.1-3.1l-1.7-6.2l-3.6-0.9l0.2,4.5l5,5.8l-2.1,2.5l3.5,13.5l4.3,14.2
			l5.5-1.1l3.3,5.5l12.7,1.1l14.8-2.4v3.7l3.5,8.8l7,2l3.3-1.2l7,3.8l2.5-1.7l2.1,2.6l6.4,2.2l2.3-5.2l4-1.4l0.4,5.4l14,11.5
			l-0.5,2.1l6.5,5.8l6.4,0.5l1.8-4l12.1,0.6l5-8.9l5.6,6.7l4.8,4.3l3.4-5.5l9.6-0.2l0.6-3.5l12.4-1.6l0.4-12.5L280.5,174.4z"></path>
		<path class="st0" d="M239,263.4l-6.8,0.7l-6.6-3.9l0.7-1.8l-7.2-7.4l-2.4,0.7l1.5,6.4l-2.5,0.8l-1.2,3l-4.6,1.7l-2.2-1.5l-2.8,1.1
			l-1.9-2.7l-17.7-6l-2.6-3.5l-10.9-3.2l-0.7-3.2l-7.3-0.2l-3.1-2.5l-0.5-4.1l-2.1-1.1l-1.9-4.4l-4.9,1l-3.9-0.4l1.4,1.8l0.1,5.9
			l-5.5-1.2l-8.6-4.1l-13.6-1.7l-7.6,21.6l6.3,4.1l-2.4,7.4l1.3,0.9l4.1-6.6l5,6.9l-0.6,6.7l4.3,4l3.3,0.1l0.4,3.9l2.8,4.4l6.4-2.2
			l0.7,5.3l1.6,2.3l2.4-0.8l-2.2,4.7l3.7,2.5l-3.9,1.6l2.1,2.4l-5,8.4l-3.5-0.1l-0.7,5.2l1.7,2.5l0.8,10.6l-5.1,0.8l-0.5,0.9
			l6.7,9.4l3,0.7l2,7.3l4.6-0.2l-1.1-4.1l3-0.9l4.8,3.7l3.7,0.9l2,2l3-3.6l5.3,0.5v-12.7l4.1-5.5l5.3-0.4l-2.1-6.6l3.4-5.2h17.1
			l3.4-4.1l5.2,3l1.8-3.7l24.6,7.8l-1.1-6.9l6-4.3l-0.2-3.9l2.7-2.7l-1.3-1.7l1.2-7.1c-0.7-0.1-1.3,0-2,0.1c0.9-1.2,3.6-5.6,3.6-5.6
			l0.4-12.6l-5.5-8.7L239,263.4z"></path>
		<path d="M110.1,114l6.6,3.2l4.8,1.3l-1.4,2.3l1.4,2.1l3.2-1.4l3.2-4.1l1.2,1.1h2.5l0.8-4.6l-7.5-2l-6.4-0.2l0.3-2.3l5.9,0.7v-3.2
			l-3-0.5l1.7-6.6l5.4,4.6l4.8-9.1l-0.7-2.5l1.6-0.9l-0.1-0.5l-1.5,0.1l-15.1,6.1l-2.5-3.4l-2.2-0.3l-1.7,3.7l-2.8-2.5l-7.4-0.2v1.9
			l-2.5,2.3l-2.6-0.4l-2.4,2.1l-5.8-0.4l-2,4.7l-1.8-2l-0.8,0.9l-5.8-2.5l-3.1-4.3l-1.3,1.3l-5-4.5l-2.9-4.8l-1.8,0.2l1.2,4.5
			l-1.9,5l-2.3,6.6l0.2,4.7l-2,2.2L60,118l2.9,1.8l5.1,8.8l3.6-1.6l3.9-6l10.4-2.5l3.3-6.6l9.7-4.5L110.1,114z"></path>
		<path d="M140.3,319.3l-1.8-2.6l0.9-6.6l3.8,0.1l4.2-7.1l-2.6-2.9l3.4-1.4l-2.8-1.9l1.6-3.3l-0.9,0.3l-2.1-3.3l-0.6-4.2l-5.9,2.1
			l-3.5-5.4l-0.3-3.2l-2.8-0.1l-4.9-4.6l0.6-6.8l-3.8-5.2l-3.9,6.2l-3-2.1l2.4-7.4l-5.3-3.5l-6.2,17.4l-8.2,13.9l-0.8,1.6l3.4-1.6
			l3.7-1.1l1.8,1.8l-1.1,3l4.3-0.7l8.4,2.7l3.2,11l1.6,24l2.7,3.4l4.9-1.9l4.7-0.4l0.4,0.7l0.5-0.9l4.7-0.7L140.3,319.3z"></path>
		<path class="st0" d="M59.1,118.7l-1.7-6.6l2.1-2.3l-0.2-4.5l2.4-6.9l1.7-4.6l-1.1-4.3l-1.7,0.2L60,89.9l-2.3,6.2l1.4,3.6l-0.6,0.2
			c-1.6,0.5-3.2,1-4.7,1.7c-0.1,0.2-0.3,0.2-0.4,0.2h-0.1c-0.5,0-0.5-0.5-0.6-0.8s0-0.4-0.1-0.8c0-0.6-0.1-1.3-0.1-2.3
			s-0.1-1.7-0.1-2.3l-3.5,2.6l-4-0.2l-4.2-6.3l-4-1.3l-2.9,0.7l-8.4,5.2l0.4,0.8l0.7,11.2l6.8-2.7l2.9,1.6l-9.1,4.1l-1.1,3.9
			l-9.4,26l5.9,1.1l6.6-5.7L41,135l2.9-2.9l11,2.3l12.2-5.4l-5-8.5L59.1,118.7z"></path>
		<path class="st0" d="M54.5,66.2l0.9,2.7l3,3.9L58,76.5l1.2,3.2c0.5,1.3,0.8,2.6,1.1,3.9c0,0.1,0,0.4-0.9,1.6l0.5,3.5H60l5.6-0.7
			l1.7-2.9l1.8-0.8l-1-2.2l0.3-6.9l-2.2-0.3l-3.8-4.3l-3.8-1.1l0.5-9.2l1.3-1.2l-0.2-1.5L51,62l1.4,3.4L54.5,66.2z"></path>
	</g>
	<g id="bg-white" class="bg-white">
		<path d="M69.1,48.3l4.8-1l0.3,1l-1.4,0.9l-0.6,0.6l2.4,1.9l2.5,10l2.6-0.3l0.9,1.8l2.3-0.7l0.8-2.4l3,1.8l4.3-2.1l-1.4-14.1
			l-2.2-2.2l-2.7-0.1l-2.6-2.5l-5.2-1.5l-10.3,2.5l-1.8-2.5l-7.6,2.1l-0.8,9l6.7-2.5L69.1,48.3z"></path>
		<path class="st1" d="M28,65.1L25.4,76l2,0.9l-1.5,2.6l5.1,8.2l3.7-1l4.4,1.4l4.1,6.2l3.5,0.2l4.2-3.1v0.1c0.1,2,0.3,4.6,0.4,5.8
			l0.1,0.7l0.6-0.3c1.2-0.5,2.5-1,3.8-1.3l0.5-0.1l-1.2-3.1l2.4-6.5l-0.7-4.6l0,0c0.3-0.4,0.6-0.8,0.9-1.3l0.1-0.2v-0.2
			c-0.1-0.5-0.6-2.2-1-3.6l-1.1-3.1L55.3,77l-5.4-11.1l-6.3-1.2l-1.1,7l-2.3-5.1h-4l-0.1-0.4L41,65l-0.3-2.9L38,62.3l-1-0.5
			l-1.9,1.6L28,65.1z"></path>
		<path d="M113.1,46.8l-2.5,1.5l-1.7,6.9l-18.1,1.5l0.3,3.1L86.7,62l-2.9-1.8L83,62.5l-2.4,0.7l2.3,4.5l-2.4,2.4l1.5,2.6l-2,0.6
			L74.4,68l-1.5,1l1.6,7.8l-7.7,2l1.2,2.8l-2.2,1l-2,3.3l2.7,4.7l4.6,4.1l1.4-1.5l3.4,4.9l5.2,2.2l1-1.1l1.7,1.8l1.7-4.2l5.9,0.4
			l2.5-2.2l2.6,0.4l2.1-1.8v-2.3l8.2,0.2l2.4,2.1l1.5-3.4l3,0.4l2.3,3.3l14.7-6l2.2-0.2l0.2,1.4l1.4-0.9l0.8,0.2l-2.3,2.9l1.2,12.8
			l2.3-0.3l0.4,4.2l5.4-2.2l5.3-7.1l10.5-4.2l-3.9-17.7L165,66l-2-6.2l-11.2,4.1l-6.5-3.7l3-5.5l-8.4-2.6l-5.7-1.5l-5.4,8l-4.8-1.7
			l-1-4.6l1.3-2.3l5.3,0.2l3.4-3.4l4.6,0.9l3.3-7.1l-12.3-3.3l-3.4-2.2l-4.9,1.1l-3.1-2.3l-4.2,9.3L113.1,46.8z"></path>
		<path d="M141,40.5l-3.3,7.3l-4.7-0.9l-3.4,3.4l-5.2-0.2l-1.3,2.2l1,4.5l4.6,1.7l5.5-8L140,52l8.5,2.7l-3,5.4l6.3,3.7l11.3-4.2
			l2,6.2l7.5-4.5l0.9-3.9l4.6-1.6l7.6-5.6l2.8-5.1l3.9-0.6l0.4-3.8l-2.7-3.7l5.6-6.1l-0.5-3l-12.4,0.2l-8.1-3.1l-3.3,0.7l-5.7-3.1
			l1.3-3.5l0.5-10.8l1.8-1.6l-0.2-4.4l-5.6,1.1l-1.1,2.8h-2.8l0.6,2.2l-2.8,4.1l-3.3-0.6l-2-2.2l-4.3-2.4L140.9,0l1.2,5.5L132,23
			l-2.1,11l-4.6,1.1l3.3,2.1L141,40.5z"></path>
		<path d="M60.6,59.7l-1.5-1.9l-0.2-1.4l-1.2,1.2L57.2,66l3.6,1.1l3.7,4.2l2.6,0.4l-0.3,7l7.6-1.9L72.8,69l1.6-1.1l5.6,5.3l1.8-0.6
			l-1.4-2.5l2.4-2.4l-3.2-6.2l-2.5,0.3l-2.6-10.1l-2.4-1.8l-1.5,1.8l-3.3-0.3l-1.7,6.2l3,0.9l0.4,3.7l-7.9-4.7L60.6,59.7z"></path>
		<path d="M31,87.9l-5.2-8.4l1.4-2.6l-1.9-0.8L27.9,65l7.1-1.7l1.9-1.6L34,60.3l0.4-8.4l-22.7,3.3L5,59.4l5.1,8.2L22.8,93L31,87.9z"></path>
		<path d="M76.9,39.3l5.3,1.6l2.5,2.4l2.7,0.1l2.2,2.3l1.2,10.9l18-1.5l1.7-6.9l2.5-1.5l-0.1-3.5l4.3-9.4l-8.2-6.4l-11.7,6.5
			l-5.5-1.3l-0.5,4l2.3,0.9l0.1,0.3l-2.6-0.4v-5l-2.3-0.2L88.2,28l-10.9,2.3L76,32.8l-9.3,3.4L66,39l-1.1,0.4l1.7,2.4L76.9,39.3z"></path>
		<path d="M247.9,200.2l-4.8,8.5l-12-0.6l-1.8,4l-7.1-0.5l-6.9-6.2l0.5-2.1L202,191.9l-0.4-4.9l-3.1,1.1l-2.4,5.5l-7-2.5l-1.9-2.3
			l-2.4,1.6l-7-3.9l-3.3,1.3l-7.4-2.2l-3.7-9.2v-3.1l-14.1,2.3l-13.1-1.2l-3.3-5.4l-5.7,1.2l-4.4-14.8l-3.5-13.6l-0.6,0.8l-3.9-7v-3
			l-2.8-4.7l-4.1-2.1l-12.6-13.5l-3.5,2.6l21.5,24.2l11.7,38.2l-5.5,50.4l-0.8,2.3l14.1,1.8l8.6,4.1l4.8,1l-0.1-5l-2.2-2.7l5.2,0.5
			l5.3-1.1l2.1,4.7l2.1,1.1l0.5,4.2l2.8,2.2l7.5,0.3l0.8,3.2l10.8,3.2l2.6,3.5l17.7,6l1.7,2.5l2.7-1l2.2,1.5l4.1-1.5l1.3-3l2.2-0.7
			l-1.5-6.4l3.2-1l-1-1l3.4-12.3l2.4-1l4.5,4.2l3.2-8.9l-1.1-3.5l5.4,0.5l-0.3-4.5l6.2,4.8l5.1-0.6v-10.8l2.2-4.4l1.1,2.1l9.3,0.1
			l0.7-1l-5.3-4.7L247.9,200.2z"></path>
		<path d="M278.9,171.1l-4.8-4.5l-5.5-6.2h-5.5l-12.4-3.8l-2.3-4.8l-6.3-1.9l-4.4,0.3l8.9-12.9l-2.6-2.2l2.9-1.2l-1.1-3.2l-9-1.8
			l-0.2-3.7l1.9-0.9l-4.6-15.7l-5.7-5.5l-3-7.9l-8.8,4.4l-2.8,3.9l-8.2-1.9l-6.4,3l-0.8-6l-3.7,2.5l-0.7-6.8l-6.8,2.9l3.7,7.3
			l-5.2,2.3l-1-4.6l-9.4-1.2l-0.7-5.2l-3.8,1.1l-5.2-2.6l-7.4,0.4l-10.3,4.1l-5.3,7l-5.5,2.3l2.3,21.9l5-1l5.5,7.4l-0.6,1.9
			l-15.6-2.1v-2.4l-2.9-0.9l0.6,4.7l-2,0.9l-2.8,0.1l-3.8-2.8l-1.8-6.3l-4.5-1.1l0.2,5.3l4.8,5.7l-1.9,2.3l3.5,13.7l4.4,14.7
			l5.7-1.2l3.2,5.5l13,1.1h0.1l14.2-2.3v3.1l3.6,9.2l7.4,2.2l3.3-1.3l7,3.9l2.4-1.7l1.9,2.5l7,2.3l2.4-5.4l3.2-1.1l0.4,4.9
			l13.8,11.5l-0.5,2.1l6.9,6.1l6.9,0.5l1.8-4l12.1,0.6l4.8-8.5l5.2,6.2l5.2,4.7l3.6-5.8l9.7-0.2l0.6-3.6l12.5-1.6l0.4-13
			L278.9,171.1z"></path>
		<path class="st1" d="M237.3,259.9l-7,0.7l-6.1-3.6l0.7-1.7l-7.7-7.8l-3.1,0.9l1.5,6.4l-2.3,0.8l-1.3,3l-4.1,1.6l-2.3-1.5l-2.6,1
			l-1.8-2.5l-17.7-6l-2.6-3.5l-10.8-3.1l-0.8-3.3l-7.5-0.2l-2.8-2.3l-0.5-4.1l-2.1-1.1l-2-4.6l-5.2,1.1l-5-0.5l2.1,2.6l0.1,5.1
			l-4.8-1l-8.6-4.1l-14.3-1.7l-7.9,22.4l6.3,4.1l-2.4,7.4l2.1,1.5l4-6.4l4.4,6.1l-0.6,6.8l4.6,4.2l3,0.1l0.4,3.5l3.1,4.9l6.2-2.1
			l0.6,4.8l1.9,2.7l1.7-0.5l-1.9,4.1l3.3,2.2l-3.7,1.5l2.4,2.6l-4.7,7.8l-3.6-0.1l-0.8,5.9l1.8,2.5l0.8,10l-4.9,0.8l-0.6,1.3l7,9.8
			l2.9,0.7l2,7.4l5.6-0.2l-1.1-4.2l2.3-0.7l4.6,3.6l3.8,0.9l2.2,2.2l3.2-3.8l5.6,0.6v-13l3.9-5.2l5.8-0.4l-2.3-7l3.1-4.7h17.1l3.3-4
			l5.3,3.1l1.8-3.8l24.9,8l-1.1-7.4l6-4.2l-0.2-4l2.8-2.8l-1.4-2l1.3-7.5h-0.5c-0.1,0-0.5,0-1,0c1.1-1.7,2.9-4.6,3-4.7l0.1-0.1
			l0.4-12.9l-5.6-8.8L237.3,259.9z"></path>
		<path d="M107.8,111.5l6.8,3.2l4.1,1.1l-1.2,2l1.8,2.8l3.7-1.7l3-3.8l1,0.9h3.1l0.8-5.5l-7.9-2.1l-6-0.2l0.2-1.3l6,0.8v-4.2
			l-2.9-0.5l1.4-5.3l5.2,4.5l5.2-9.8l-0.6-2.3l1.5-0.9l-0.1-1.4l-2.1,0.2L116,94l-2.4-3.3l-2.8-0.3l-1.6,3.4l-2.4-2.2l-8-0.2v2.2
			l-2.2,1.9l-2.7-0.3l-2.4,2.1l-5.9-0.4l-1.8,4.3l-1.7-1.9l-1,1.1l-5.2-2.3l-3.4-4.7l-1.4,1.4l-4.7-4.1l-3-5.1L60.8,86l1.2,4.9
			l-1.8,4.8l-2.3,6.7l0.2,4.6l-2.1,2.3l1.6,6.1l2.9,1.7l5.3,9.2l4.2-1.9l3.9-6l10.3-2.5l3.4-6.6l9.2-4.3L107.8,111.5z"></path>
		<path d="M139.5,326l-0.7-9.9l-1.8-2.5l0.8-6l3.7,0.2l4.6-7.8l-2.5-2.6l3.7-1.5l-3.3-2.1l1.9-4l-1.5,0.5l-2-2.8l-0.6-4.8l-6.1,2.2
			l-3.2-5l-0.4-3.5l-3-0.1l-4.6-4.3l0.6-6.8l-4.3-5.9l-4.1,6.4l-2.2-1.6l2.4-7.4l-6.2-4.1l-6.3,18l-8.2,13.9l-1.6,2.9l4.7-2.3l3.5-1
			l1.3,1.4l-1.2,3.5l5-0.8l8,2.6l3.1,10.7l1.6,24v0.1l3,3.8l5.3-2l4.2-0.4l0.8,1.1l0.8-1.4L139.5,326z"></path>
		<path class="st1" d="M57.5,115.4l-1.6-6.1L58,107l-0.2-4.6l2.4-6.8l1.8-4.8L60.7,86l-2.1,0.3l-1,0.2l-2.4,6.7l1.2,3.2l0,0
			c-1.6,0.5-3.3,1.1-4.8,1.7l-0.1,0.1l-0.1,0.1c0-0.1-0.1-0.2-0.1-0.3c0-0.2,0-0.4-0.1-0.8c0-0.6-0.1-1.3-0.1-2.3S51,93.2,51,92.6
			l-0.1-0.9l-4.1,3.1l-3.6-0.2L39,88.3l-4.3-1.4l-3,0.8l-8.9,5.5l0.6,1.1l0.8,11.8l7.2-2.8l1.8,1l-8.4,3.8l-1.1,4.1l-9.6,26.6
			l6.7,1.2l6.7-5.8l11.9-1.6l2.8-2.8l10.9,2.3l12.8-5.7l-5.3-9.2L57.5,115.4z"></path>
		<path class="st1" d="M52.1,63.5l0.8,2.4l3,3.9l-0.4,3.6l1.2,3.3c0.4,1.2,0.7,2.5,1,3.8c0,0,0,0.3-0.8,1.4l-0.1,0.2l0.6,4.2h0.4
			l6-0.8l1.8-3l2.1-0.9l-1-2.6l0.3-7.2l-2.5-0.4l-3.7-4.2l-3.6-1l0.5-8.6l1.3-1.2l-0.3-2.5l-10.3,5l1.7,4L52.1,63.5z"></path>
	</g>
	<path id="seixal" class="st2" d="M40.2,62.6l-2.3,0.2L37,62.4l-1.8,1.5l-6.9,1.6L26,75.7l2.1,0.9l-1.6,2.9l4.8,7.7l3.5-0.9l4.6,1.5
		l4.1,6.1l3.1,0.2l4.8-3.6l0.1,1c0.1,1.8,0.3,4.5,0.4,5.8c1.2-0.5,2.5-1,3.8-1.3l-1.1-2.8l2.4-6.6l-0.7-4.7l0.1-0.2
		c0.3-0.4,0.6-0.8,0.8-1.2c-0.1-0.4-0.6-2.1-1-3.6l-0.4-1l-0.3,2.8l-6.1-12.5L44,65.3l-1.2,8.2L39.9,67h-4.1l-0.2-1.2l4.8-1.2
		L40.2,62.6z" data-municipality-id="247" data-title="Seixal"><title>Seixal</title></path>
	<path id="palmela" d="M151.7,64.4l-7.1-4l3-5.4l-7.8-2.4l-5.4-1.4l-5.4,8l-5.4-1.9l-1.2-5.1l1.6-2.8l5.4,0.3l3.4-3.5l4.6,0.9
		l2.8-6.2l-11.8-3.1l-3.3-2.1l-4.9,1.1l-2.8-2.2l-3.9,8.7l0.1,3.7l-2.6,1.6l-1.7,7.1l-17.9,1.5l0.3,2.9l-5.1,2.5L84.1,61l-0.8,1.9
		l-2,0.7l2.2,4.2l-2.3,2.4l1.5,2.8l-2.8,0.8l-5.6-5.1l-0.8,0.5l1.6,8l-7.7,1.9l1.2,2.8l-2.5,1l-1.8,3l2.6,4.4l4.2,3.7l1.5-1.5
		l3.6,5.2l4.8,2l1.1-1.3l1.5,1.7l1.6-3.8l6.1,0.4l2.4-2.2l2.7,0.4l1.7-1.6v-2.5L107,91l2,1.8l1.4-3.1l3.5,0.5l2.3,3.1l14.4-5.9
		l2.8-0.2l0.1,1.1l0.9-0.6l1.8,0.4l-2.7,3.3l1.1,12.2l2.3-0.4l0.5,4.1l4.6-1.9l5.3-7.1l10.2-4.1l-3.8-17.5l10.8-10.8l-1.8-5.5
		L151.7,64.4z" data-municipality-id="245" data-title="Palmela"><title>Palmela</title></path>
	<g id="montijo" data-municipality-id="244" data-title="Montijo">
		<path d="M69.1,47.8l5.1-1.1l0.6,1.8L73,49.6l-0.1,0.2l2.2,1.6l2.4,9.8l2.4-0.3l0.9,1.7l1.7-0.5l1-2.8l3.2,2l3.8-1.8l-1.4-13.6
			L87.2,44l-2.7-0.1l-2.6-2.5l-5-1.5l-10.5,2.6L64.6,40l-6.9,1.9L57,49.8l6-2.4L69.1,47.8z"></path>
		<path d="M128.9,36.7l12.8,3.5l-3.7,8.2l-4.8-1l-3.4,3.5l-5.2-0.3l-1,1.8l0.9,4.1l4,1.4l5.5-8l6.1,1.7l9.1,2.8l-3.1,5.5l5.7,3.3
			l11.6-4.2l2,6.1l6.8-4.1l0.9-3.9l4.8-1.8l7.5-5.5l2.8-5.2l3.8-0.5l0.3-3.2l-2.8-4l5.7-6.2l-0.4-2.3l-12.1,0.2l-8-3l-3.4,0.7
			l-6.2-3.4l1.4-3.9L167,8.1l1.8-1.6l-0.2-3.6l-4.8,0.9l-1,2.9h-2.5l0.5,1.7l-3.2,4.7l-3.7-0.7l-2.2-2.3l-4.3-2.4l-5.7-6l0.9,3.9
			l-10.1,17.6l-2.1,11.2l-3.8,0.9L128.9,36.7z"></path>
	<title>Montijo</title></g>
	<path id="moita" d="M73.8,76.4l-1.5-7.7l2.1-1.5l5.8,5.4l0.9-0.3L79.8,70l2.4-2.4l-2.9-5.5l-2.6,0.3L74.1,52l-1.9-1.4l-1.3,1.7
		l-3.2-0.4l-1.5,5.3l2.9,0.9l0.5,5l-8.2-4.8l-0.5,2.5L58.6,58l-0.1-0.5l-0.3,0.3l-0.4,7.9l3.3,0.9l3.7,4.2l2.8,0.4L67.4,78
		L73.8,76.4z" data-municipality-id="243" data-title="Moita"><title>Moita</title></path>
	<path id="almada" d="M30.3,87.8l-5.1-8.3l1.3-2.4l-1.8-0.7l2.8-11.8l7.3-1.7l1.2-1.1l-2.5-1.2l0.3-8.2l-22.1,3.2l-6,4l4.8,7.8
		l12.4,24.9L30.3,87.8z" data-municipality-id="240" data-title="Almada"><title>Almada</title></path>
	<path id="alcochete" d="M66.8,41.2l10.1-2.5l5.6,1.7l2.4,2.4l2.8,0.1l2.4,2.5l1.1,10.7l17.2-1.4l1.7-6.8l2.4-1.5l-0.1-3.4l4.2-9.1
		L109,28l-11.6,6.4l-5.2-1.2l-0.3,3l2.1,0.9l0.4,1.3l-3.8-0.6v-4.9l-2.3-0.2l-0.5-4.1l-10.2,2.1l-1.2,2.5l-9.3,3.4l-0.7,2.8
		l-0.7,0.2L66.8,41.2z" data-municipality-id="239" data-title="Alcochete"><title>Alcochete</title></path>
	<path id="grandola" d="M252.6,206.7l-4.6-5.6l-4.6,8.1l-12-0.6l-1.8,4l-7.6-0.5l-7.3-6.5l0.5-2.1l-13.7-11.4l-0.3-4.4l-2.3,0.8
		l-2.5,5.7l-7.6-2.6l-1.7-2.1l-2.2,1.5l-7.2-3.9l-3.2,1.2l-7.8-2.3l-3.8-9.5v-2.6l-13.6,2.2l-13.4-1.2l-3.2-5.3l-5.8,1.2l-4.5-15.2
		l-3.3-12.7l-0.5,0.5l-4.3-7.6v-3l-2.7-4.5l-4-2.1L95.3,113l-2.8,2l21.2,23.8l11.8,38.5l-5.5,50.5l-0.6,1.8l13.6,1.7l8.6,4.1
		l4.1,0.9l-0.1-4.2l-2.9-3.5l6.4,0.6l5.6-1.2l2.2,4.9l2.2,1.2l0.5,4.2l2.4,2l7.8,0.3l0.8,3.3l10.6,3.1l2.7,3.6l17.7,6l1.6,2.3l2.5-1
		l2.3,1.6l3.7-1.4l1.2-3l2-0.7l-1.5-6.4l2.9-0.8l-0.7-0.6l3.6-12.9l2.9-1.2l4.2,3.9l2.9-8l-1.3-4.1l5.6,0.5l-0.4-5l6.9,5.4l4.5-0.6
		v-10.5l2.7-5.3l1.4,2.7l8.7,0.1l0.3-0.5L252.6,206.7z" data-municipality-id="242" data-title="Grândola"><title>Grândola</title></path>
	<path id="alcacerdosal" d="M278.5,171.4l-4.8-4.4l-5.3-6.1H263l-12.6-3.9l-2.3-4.8l-6.1-1.8l-5.3,0.3l9.2-13.3l-2.8-2.5l3.2-1.3
		l-0.9-2.5l-9.1-1.7l-0.2-4.5l1.8-0.9l-4.4-15.1l-5.7-5.5l-2.9-7.5l-8.2,4.1l-2.8,4.1l-8.4-2l-7,3.2l-0.7-5.9l-3.7,2.5l-0.7-6.9
		l-5.7,2.5l3.7,7.3l-6.2,2.7l-1.1-4.8l-9.4-1.3l-0.7-5l-3.4,1.1l-5.4-2.7l-7.1,0.4l-10.1,4l-5.3,7l-5.2,2.3l2.1,20.9l4.8-0.9
		l5.9,7.8l-0.9,2.5l-16.4-2.1v-2.5l-1.8-0.6l0.6,4.3l-2.5,1.1l-3.1,0.2l-4.1-3.1l-1.7-6.2l-3.6-0.9l0.2,4.5l5,5.8l-2.1,2.5l3.5,13.5
		l4.3,14.2l5.5-1.1l3.3,5.5l12.7,1.1l14.8-2.4v3.7l3.5,8.8l7,2l3.3-1.2l7,3.8l2.5-1.7l2.1,2.6l6.4,2.2l2.3-5.2l4-1.4l0.4,5.4
		l14,11.5l-0.5,2.1l6.5,5.8l6.4,0.5l1.8-4l12.1,0.6l5-8.9l5.6,6.7l4.8,4.3l3.4-5.5l9.6-0.2l0.6-3.5l12.4-1.6l0.4-12.5L278.5,171.4z" data-municipality-id="238" data-title="Alcácer do Sal"><title>Alcácer do Sal</title></path>
	<path id="santiagodocacem" class="st2" d="M237,260.4l-6.8,0.7l-6.6-3.9l0.7-1.8l-7.2-7.4l-2.4,0.7l1.5,6.4l-2.5,0.8l-1.2,3
		l-4.6,1.7l-2.2-1.5l-2.8,1.1l-1.9-2.7l-17.7-6l-2.6-3.5l-10.9-3.2l-0.7-3.2l-7.3-0.2l-3.1-2.5l-0.5-4.1l-2.1-1.1l-1.9-4.4l-4.9,1
		l-3.9-0.4l1.4,1.8l0.1,5.9l-5.5-1.2l-8.6-4.1l-13.6-1.7l-7.6,21.6l6.3,4.1l-2.4,7.4l1.3,0.9l4.1-6.6l5,6.9l-0.6,6.7l4.3,4l3.3,0.1
		l0.4,3.9l2.8,4.4l6.4-2.2l0.7,5.3l1.6,2.3l2.4-0.8l-2.2,4.7l3.7,2.5l-3.9,1.6l2.1,2.4l-5,8.4l-3.5-0.1l-0.7,5.2l1.7,2.5l0.8,10.6
		l-5.1,0.8l-0.5,0.9l6.7,9.4l3,0.7l2,7.3l4.6-0.2l-1.1-4.1l3-0.9l4.8,3.7l3.7,0.9l2,2l3-3.6l5.3,0.5v-12.7l4.1-5.5l5.3-0.4l-2.1-6.6
		l3.4-5.2h17.1l3.4-4.1l5.2,3l1.8-3.7l24.6,7.8l-1.1-7l6-4.3l-0.2-3.9l2.7-2.7l-1.3-1.7l1.2-7.1c-0.7-0.1-1.3,0-2,0.1
		c0.9-1.2,3.6-5.6,3.6-5.6l0.4-12.6l-5.5-8.7L237,260.4z" data-municipality-id="246" data-title="Santiago do Cacém"><title>Santiago do Cacém</title></path>
	<path id="setubal" d="M108.1,111l6.6,3.2l4.8,1.3l-1.4,2.3l1.4,2.1l3.2-1.4l3.2-4.1l1.2,1.1h2.5l0.8-4.6l-7.5-2l-6.4-0.2l0.3-2.3
		l5.9,0.7v-3.2l-3-0.5l1.7-6.6l5.4,4.6l4.8-9.1l-0.7-2.5l1.6-0.9l-0.1-0.5l-1.5,0.1l-15.1,6.1l-2.5-3.4l-2.2-0.3l-1.7,3.7l-2.8-2.5
		l-7.4-0.2v1.9l-2.5,2.3l-2.6-0.4l-2.4,2.1l-5.8-0.4l-2,4.7l-1.8-2l-0.8,0.9l-5.8-2.5l-3.1-4.3l-1.3,1.3l-5-4.5l-2.9-4.8l-1.8,0.2
		l1.2,4.5l-1.9,5l-2.3,6.6l0.2,4.7l-2,2.2L58,115l2.9,1.8l5.1,8.8l3.6-1.6l3.9-6l10.4-2.5l3.3-6.6l9.7-4.5L108.1,111z" data-municipality-id="249" data-title="Setúbal"><title>Setúbal</title></path>
	<path id="sines" d="M133.8,327.2l0.5-0.9l4.7-0.7l-0.7-9.3l-1.8-2.6l0.9-6.6l3.8,0.1l4.2-7.1l-2.6-2.9l3.4-1.4l-2.8-1.9l1.6-3.3
		l-0.9,0.3l-2.1-3.3l-0.6-4.2l-5.9,2.1l-3.5-5.4l-0.3-3.2l-2.8-0.1l-5-4.6l0.7-6.8l-3.8-5.2l-3.9,6.2l-3-2.1l2.4-7.4l-5.3-3.5
		l-6.2,17.4l-8.2,13.9l-0.8,1.6l3.4-1.6l3.7-1.1l1.8,1.8l-1.1,3l4.3-0.7l8.4,2.7l3.2,11l1.6,24l2.7,3.4l4.9-1.9l4.7-0.4L133.8,327.2
		z" data-municipality-id="250" data-title="Sines"><title>Sines</title></path>
	<path id="sesimbra" class="st2" d="M57.1,115.7l-1.7-6.6l2.1-2.3l-0.2-4.5l2.4-6.9l1.7-4.6l-1.1-4.3l-1.7,0.2L58,86.9l-2.3,6.2
		l1.4,3.6l-0.6,0.2c-1.6,0.5-3.2,1-4.7,1.7c-0.1,0.2-0.3,0.2-0.4,0.2h-0.1c-0.5,0-0.5-0.5-0.6-0.8s0-0.4-0.1-0.8
		c0-0.6-0.1-1.3-0.1-2.3s-0.1-1.7-0.1-2.3l-3.5,2.6l-4-0.2l-4.2-6.3l-4-1.3l-2.9,0.7l-8.4,5.2l0.4,0.8l0.7,11.2l6.8-2.7l2.9,1.6
		l-9.1,4.1l-1.1,3.9l-9.4,26l5.9,1.1l6.6-5.7L39,132l2.9-2.9l11,2.3l12.2-5.4l-5-8.5L57.1,115.7z" data-municipality-id="248" data-title="Sesimbra"><title>Sesimbra</title></path>
	<path id="barreiro" class="st2" d="M66.2,79l0.3-6.9l-2.2-0.3l-3.8-4.3l-3.8-1.1l0.5-9.2l1.3-1.2l-0.2-1.5L49,59l1.4,3.4l2.1,0.7
		l0.9,2.7l3,3.9L56,73.4l1.2,3.2c0.5,1.3,0.8,2.6,1.1,3.9c0,0.1,0,0.4-0.9,1.6l0.5,3.5h0.2l5.6-0.7l1.7-2.9l1.8-0.8L66.2,79z" data-municipality-id="241" data-title="Barreiro"><title>Barreiro</title></path>
</g>
</svg>