<svg xmlns="http://www.w3.org/2000/svg" viewBox="0 0 203.8 188.3" class="map-svg map-municipalities" data-id="18" data-district="vianadocastelo">
<g data-title="vianadocastelo" data-district-id="18">
	<g id="map-bg" class="map-bg">
		<path d="M198.7,39.1l-8.4-10l-8.7,2.2l-5.2,3.5l-1.1-10l-2.5-6.8l1.1-4.6l-2.8-5.7l-7.3,5.7l-3-1.6l-1.6,5.2l-8.4,1.1l-10.3,8.5
			l-0.8,4l-0.4-0.1l0.8,4.8l3.2,2.1l-1.3,2.5l4.3,3.3l2,11.2l1.9,1.8l0.1,6.6l2.5,1.8l2.6-3l1-5.8l3.2-3.6l4.3-0.4l1.2,1.5l4.2-3.4
			l3.6,0.6l0.4,10.2l-5.7,12.1l1,5.7l1.7,3.2l9.5-12.7v-8.9l5.2,0.5l3.2-4.9l10.6-2.8L198.7,39.1z"></path>
		<path d="M37.7,88.8l0.9,3.7l1.3,1.9l2.8-0.8l2.8,1.6l3.5,0.7l0.1,2l2.3,0.1l8.9,4.9l2.1,0.7l1.1-2.2l0.1-1.6l-1.7-5.1l-0.3-1.8
			l2.8-5.5l4-2.6l0.3-2.1l-1.3-3.8h-1l-3.9-1.3L62,67.8l-1.4-0.2l-0.7-4.2l-0.7-4.9l-3,2.7h-6.8l-7,7.6l0.5,6.3l-7.6,6.7L37.7,88.8z
			"></path>
		<path d="M64.9,87.8L62.3,93l0.2,1.5l1.6,5l3.7,1.7l1.8,3.2l2.9-0.3l2.8-5.3l3.3-0.3l2,0.9l1.2-1l3.2-1.5l4.1,2.1l2.4,0.5l4,2.2
			l1.1-3.5l1.3-2.6l5.6-6.7l-0.3-6.4l-4-6.7v-2.6L101,69l0.9-2.2l-1.3-1L96.5,66l-4.1-1.5l0.1-0.6l-4.4-2.8l-4.6,8.5l-6.6,2.1
			L69,78.9h-1l1.4,3.7L69,85.1L64.9,87.8z"></path>
		<path d="M168,78.7l-1.1-6l5.8-12.1l-0.4-9.5l-2.8-0.5l-4.5,3.6l-1.4-1.8l-3.7,0.5l-2.9,3.2l-1,5.8l-3.1,3.6l-3.3-2.4v-3.4
			l-2.8-1.3l-5.5-0.2l-7.4,4.3l-4.7,0.5l-2.2,1l-9.2,0.1l-5.8,1.5l-4.1-0.6l-5.3,1.9l-1,2.4l-1.8,4v2.3l4,6.7l0.3,6.8L98.4,96
			l-1.2,2.5l-1.2,3.8l-0.5,2.9l-0.9,1l0.3,3.8l1.1,2.2l1.4,8.6l4.3,1.3l3.7-0.8l2.1-2.9l6.3-1.1L127,114l11.1,1.2l4-5l4.7-0.7
			l5.5-9.2l4.7-0.3l14.9-4.5l0.7-0.4l-4.9-10l2.2-2.9L168,78.7z"></path>
		<path d="M91.8,45.7l2.8,1.6L94,54.1l-0.8,9.5l0,0l0,0l-0.1,0.5l3.5,1.2l4.2-0.1l1.6,1.1l5.4-1.9l4.1,0.5l5.8-1.5h9.2l2.1-1
			l4.7-0.5l7.4-4.4l5.9,0.2l2.6,1.3v-2.5l-1.9-1.8l-2-11.1l-4.5-3.6l1.3-2.4l-2.9-1.9l-1-5.5l-6.2-2l-4.6,4.1l-4.9-1.1l-3.8,1.4
			h-2.5l-2.9-2.1l-19.3,1.7l-0.3,4.9l-4.2,1.6l0.7,2.6L91.8,45.7z"></path>
		<path d="M61.2,67l1.4,0.2l0.5,9.9l3.4,1.2h2.3l7.7-7.2l6.6-2l4.8-8.8l4.7,2.9l0.7-9.1l0.7-6.4l-2.7-1.6L90,41.5l-0.7-2.6l-5.5,2
			l-8.1-3.2l-10.9,7.4l-2.4,10.6L59.8,58l0.7,5.3L61.2,67z"></path>
		<path d="M172.9,95.7L172.9,95.7l-0.8,0.4l-15,4.5l-4.4,0.3l-5.5,9.2l-4.8,0.7l-4,5l-11.3-1.2L114,118l-6.2,1l-1.7,2.5l2.7,1.5
			l-2,2.6l0.2,2.3l2.3,2.1l-0.4,2.4l-1.2,1.9l0.3,2l2.9,3.4l0.9-0.3l2.2-3.3l4.7-3.2l9.3-0.9l2.7-3.3l4.9,3l5.1-1.4l5.2,1.1
			l17.9-9.1l7.6-7.3l4-0.3v1.1l4.7,0.5l0.7-14.4l-3.6-7.9L172.9,95.7z"></path>
		<path class="st0" d="M107.1,134.2l1.3-2l0.3-1.9l-2.2-2.1l-0.3-2.7l1.8-2.2l-2.3-1.3l-3.9,0.9l-4.8-1.5l-1.4-8.9l-1.1-2.2
			l-0.3-4.3l0.9-1l0.4-2.5l-4.1-2.2L89,99.8l-3.9-2l-2.9,1.3l-1.4,1.2l-2.3-1l-2.8,0.2l-2.8,5.4l-3.5,0.3l-2-3.4l-3.1-1.5l-0.1,1.3
			l-1.4,2.9l-1.3-0.5l-2.1,3l1.3,4.7l-2.7,2.5h0.1l-1.1,4.3l-0.1,3.9l-2.1,3.1l0.9,2.5l3.6,4.5l0.4,2.3l2.5,3.2l1,6.7l3.8,1.8l0.6,5
			l-2.6,3l3.1,3.2l0.3,7.2l0.1,0.4l0.3-0.1l9,6.4l2.5-2.7h3.3l3.3,6.2c0,0,4.9-0.6,4.9,0s2.3-10.5,2.3-10.5l-2.9-3.1l1.4-2.9
			l4.3-0.4l1.7-15l1.7-5.1l4.5-0.6l-0.4,4.5l6-2l-2.8-3.4L107.1,134.2z"></path>
		<path d="M12.9,112.4l2.5,1.3l-0.4,7.1l5,3l2.9-6.3l14.7,1.1l3.5,1.4l0.1-9.2l3.8-0.5l2.7,2l3.7-0.8l3.8,1.6l2.1,0.8l2.7-2.5
			l-1.3-4.6l2.2-3.1l-0.9-0.3l-8.8-4.8l-2.7-0.1l-0.1-2.1l-3.1-0.6l-2.7-1.5l-3,0.8L38,92.7l-0.9-3.8l-2.3-6.7l-1.9,1.6l-3,0.2
			l-4.8,0.8l-2.4,5.3l-7.3,8.6l1.2,3.9l-3.9,5.1L12.9,112.4z"></path>
		<path d="M67.8,165.4l-0.2-0.5l-0.2-7.1l-3.3-3.4l2.8-3.2l-0.6-4.3l-3.7-1.8l-1.1-6.9L59,135l-0.4-2.2l-3.5-4.5l-1-2.9l2.2-3.3
			l0.1-3.8l1-3.7l-2.4-0.9l-3.7-1.6l-3.8,0.9l-2.7-2.1l-3,0.4l-0.1,9.6l-4.2-1.7l-14.2-1l-3.1,6.4l-5.2-3.1l-0.1,1.2l-3.1,10.7
			l4.4,14.6l7.8,9.7l5.8,21.6l11.8-1.4l0.4-2.7l5.5,0.2l1.1-4.1l13.5-2.8l2.7,2.1l3.1,1l-0.8-6.1L67.8,165.4z"></path>
	</g>
	<g id="bg-white" class="bg-white">
		<path class="st1" d="M197.2,34.9l-8.8-10.4l-9,2.3l-4.6,3.2l-1-9.2l-2.5-6.7l1.1-4.6l-3.1-6.4L161.8,9l-3.2-1.8l-1.7,5.4l-8.2,1.1
			l-10.5,8.7l-0.7,3.7l-0.3-0.1l0,0l-6.8-2.2l-4.6,4.1l-4.8-1l-3.9,1.3h-2.2l-3-2.2L92,27.8l-0.3,5l-4.3,1.6l0,0l-5.5,2l-8.2-3.2
			l-11.2,7.6L60,51.4l-2.7,2.4l0,0L54,56.7h-6.8l-7.3,8l0.6,6.2L33,77.3l0,0l-2.3,2l-2.9,0.2l-5.1,0.8l-2.4,5.5l-7.5,8.8l1.2,3.9
			l-3.8,5l0.2,5.1l2.5,1.3l-0.4,7l-0.1,1.6l-3.1,10.8l4.4,14.7l7.9,9.8l5.8,21.9l12.7-1.5l0.4-2.7l5.4,0.2l1.2-4.2l12.9-2.7l2.6,2
			l4,1.3l-0.9-6.4l0.4-0.1l0,0l0.5-0.1l9.2,6.5l2.7-2.9h2.8l3.4,6.3H85c1.4-0.2,2.9-0.3,4.3-0.2v0.2h0.4c0.2,0,0.3,0,0.5-0.5v-0.1
			v0.1c0.3-0.9,0.9-3.5,2.3-10.2l0.1-0.3l-2.9-3l1.1-2.4l4.4-0.4l1.7-15.4l1.6-4.7l3.6-0.5l-0.4,4.6l7-2.4l0,0l1.4-0.5l2.2-3.4
			l4.6-3.1l9.3-0.9l2.6-3.1l4.7,2.9l5.2-1.4l5.2,1.1l18.1-9.1l7.6-7.3l3.4-0.2v1l5.6,0.6l0.8-14.9v-0.1l-3.8-8.4l-4.4,1.6l-0.1-0.1
			l0,0l-4.8-9.8l2.2-2.9l0,0l9.8-13l0.1-0.1v-8.6l4.9,0.5l3.3-5l10.8-2.8L197.2,34.9z"></path>
	</g>
	<path id="melgaco" d="M188.3,25.1l-8.7,2.2l-5.2,3.5l-1.1-10l-2.5-6.8l1.1-4.6l-2.8-5.7l-7.3,5.7l-3-1.6l-1.6,5.2l-8.4,1.1
		l-10.3,8.5l-0.8,4l-0.4-0.1l0.8,4.8l3.2,2.1l-1.3,2.5l4.3,3.3l2,11.2l1.9,1.8l0.1,6.6l2.5,1.8l2.6-3l1-5.8l3.2-3.6l4.3-0.4l1.2,1.5
		l4.2-3.4l3.6,0.6l0.4,10.2l-5.7,12.1l1,5.7l1.7,3.2l9.5-12.7v-8.9l5.2,0.5l3.2-4.9l10.6-2.8l-0.1-13.8L188.3,25.1z" data-municipality-id="253" data-title="Melgaço"><title>Melgaço</title></path>
	<path id="vilanovadecerveira" d="M33.3,77.8l2.4,7l0.9,3.7l1.3,1.9l2.8-0.8l2.8,1.6l3.5,0.7l0.1,2l2.3,0.1l8.9,4.9l2.1,0.7l1.1-2.2
		l0.1-1.6l-1.7-5.1l-0.3-1.8l2.8-5.5l4-2.6l0.3-2.1l-1.3-3.8h-1l-3.9-1.3L60,63.8l-1.4-0.2l-0.7-4.2l-0.7-4.9l-3,2.7h-6.8l-7,7.6
		l0.5,6.3L33.3,77.8z" data-municipality-id="260" data-title="Vila Nova de Cerveira"><title>Vila Nova de Cerveira</title></path>
	<path id="paredesdecoura" d="M62.9,83.8L60.3,89l0.2,1.5l1.6,5l3.7,1.7l1.8,3.2l2.9-0.3l2.8-5.3l3.3-0.3l2,0.9l1.2-1l3.2-1.5
		l4.1,2.1l2.4,0.5l4,2.2l1.1-3.5l1.3-2.6l5.6-6.7l-0.3-6.4l-4-6.7v-2.6L99,65l0.9-2.2l-1.3-1L94.5,62l-4.1-1.5l0.1-0.6l-4.4-2.8
		l-4.6,8.5l-6.6,2.1L67,74.9h-1l1.4,3.7L67,81.1L62.9,83.8z" data-municipality-id="255" data-title="Paredes de Coura"><title>Paredes de Coura</title></path>
	<path id="arcosdevaldevez" d="M166,74.7l-1.1-6l5.8-12.1l-0.4-9.5l-2.8-0.5l-4.5,3.6l-1.4-1.8l-3.7,0.5l-2.9,3.2l-1,5.8l-3.1,3.6
		l-3.3-2.4v-3.4l-2.8-1.3l-5.5-0.2l-7.4,4.3l-4.7,0.5l-2.2,1l-9.2,0.1l-5.8,1.5l-4.1-0.6l-5.3,1.9l-1,2.4l-1.8,4v2.3l4,6.7l0.3,6.8
		L96.4,92l-1.2,2.5L94,98.3l-0.5,2.9l-0.9,1l0.3,3.8l1.1,2.2l1.4,8.6l4.3,1.3l3.7-0.8l2.1-2.9l6.3-1.1L125,110l11.1,1.2l4-5l4.7-0.7
		l5.5-9.2L155,96l14.9-4.5l0.7-0.4l-4.9-10l2.2-2.9L166,74.7z" data-municipality-id="251" data-title="Arcos de Valdevez"><title>Arcos de Valdevez</title></path>
	<path id="moncao" d="M88.6,37.3l1.2,4.4l2.8,1.6L92,50.1l-0.8,9.5l0,0l0,0l-0.1,0.5l3.5,1.2l4.2-0.1l1.6,1.1l5.4-1.9l4.1,0.5
		l5.8-1.5h9.2l2.1-1l4.7-0.5l7.4-4.4l5.9,0.2l2.6,1.3v-2.5l-1.9-1.8l-2-11.1l-4.5-3.6l1.3-2.4l-2.9-1.9l-1-5.5l-6.2-2l-4.6,4.1
		l-4.9-1.1l-3.8,1.4h-2.5l-2.9-2.1l-19.3,1.7l-0.3,4.9l-4.2,1.6L88.6,37.3z" data-municipality-id="254" data-title="Monção"><title>Monção</title></path>
	<path id="valenca" d="M58.5,59.3l0.7,3.7l1.4,0.2l0.5,9.9l3.4,1.2h2.3l7.7-7.2l6.6-2l4.8-8.8l4.7,2.9l0.7-9.1l0.7-6.4l-2.7-1.6
		L88,37.5l-0.7-2.6l-5.5,2l-8.1-3.2l-10.9,7.4l-2.4,10.6L57.8,54L58.5,59.3z" data-municipality-id="258" data-title="Valença"><title>Valença</title></path>
	<path id="pontedabarca" d="M170.9,91.7L170.9,91.7l-0.8,0.4l-15,4.5l-4.4,0.3l-5.5,9.2l-4.8,0.7l-4,5l-11.3-1.2L112,114l-6.2,1
		l-1.7,2.5l2.7,1.5l-2,2.6l0.2,2.3l2.3,2.1l-0.4,2.4l-1.2,1.9l0.3,2l2.9,3.4l0.9-0.3l2.2-3.3l4.7-3.2l9.3-0.9l2.7-3.3l4.9,3l5.1-1.4
		l5.2,1.1l17.9-9.1l7.6-7.3l4-0.3v1.1l4.7,0.5l0.7-14.4l-3.6-7.9L170.9,91.7z" data-municipality-id="256" data-title="Ponte da Barca"><title>Ponte da Barca</title></path>
	<path id="pontedelima" class="st2" d="M108.3,135.9l-2.8-3.4l-0.4-2.4l1.3-2l0.3-1.9l-2.2-2.1l-0.3-2.7l1.8-2.2l-2.3-1.3l-3.9,0.9
		l-4.8-1.5l-1.4-8.9l-1.1-2.2l-0.3-4.3l0.9-1l0.4-2.5l-4.1-2.2L87,95.7l-3.9-2L80.2,95l-1.4,1.2l-2.3-1l-2.8,0.2l-2.8,5.4l-3.5,0.3
		l-2-3.4l-3.1-1.5l-0.1,1.3l-1.4,2.9l-1.3-0.5l-2.1,3l1.3,4.7l-2.7,2.5h0.1l-1.1,4.3l-0.1,3.9l-2.1,3.1l0.9,2.5l3.6,4.5l0.4,2.3
		l2.5,3.2l1,6.7l3.8,1.8l0.6,5l-2.6,3l3.1,3.2l0.3,7.2l0.1,0.4l0.3-0.1l9,6.4l2.5-2.7h3.3l3.3,6.2c0,0,4.9-0.6,4.9,0
		s2.3-10.5,2.3-10.5l-2.9-3.1l1.4-2.9l4.3-0.4l1.7-15l1.7-5.1l4.5-0.6l-0.4,4.5L108.3,135.9z" data-municipality-id="257" data-title="Ponte de Lima"><title>Ponte de Lima</title></path>
	<path id="caminha" d="M10.9,108.4l2.5,1.3l-0.4,7.1l5,3l2.9-6.3l14.7,1.1l3.5,1.4l0.1-9.2l3.8-0.5l2.7,2l3.7-0.8l3.8,1.6l2.1,0.8
		l2.7-2.5l-1.3-4.6l2.2-3.1L58,99.4l-8.8-4.8l-2.7-0.1l-0.1-2.1l-3.1-0.6l-2.7-1.5l-3,0.8L36,88.7l-0.9-3.8l-2.3-6.7l-1.9,1.6
		l-3,0.2l-4.8,0.8l-2.4,5.3l-7.3,8.6l1.2,3.9l-3.9,5.1L10.9,108.4z" data-municipality-id="252" data-title="Caminha"><title>Caminha</title></path>
	<path id="vianadocastelo" d="M65.8,161.4l-0.2-0.5l-0.2-7.1l-3.3-3.4l2.8-3.2l-0.6-4.3l-3.7-1.8l-1.1-6.9L57,131l-0.4-2.2l-3.5-4.5
		l-1-2.9l2.2-3.3l0.1-3.8l1-3.7l-2.4-0.9l-3.7-1.6l-3.8,0.9l-2.7-2.1l-3,0.4l-0.1,9.6l-4.2-1.7l-14.2-1l-3.1,6.4l-5.2-3.1l-0.1,1.2
		l-3.1,10.7l4.4,14.6l7.8,9.7l5.8,21.6l11.8-1.4l0.4-2.7l5.5,0.2l1.1-4.1l13.5-2.8l2.7,2.1l3.1,1l-0.8-6.1L65.8,161.4z" data-municipality-id="259" data-title="Viana do Castelo"><title>Viana do Castelo</title></path>
</g>
</svg>