<svg xmlns="http://www.w3.org/2000/svg" viewBox="0 0 464.8 328.3" class="map-svg map-municipalities" data-id="2" data-district="beja">
<g data-title="beja" data-district-id="2">
	<g id="map-bg" class="map-bg">
		<path d="M129.7,151.9l-5.1,3l-0.7,6.9l-0.2-0.2l4.9,12.8l3.7,1l2,1.7l4.8-1.9l1.5,1.9l4-0.6l1.2-3.6l2.4,1.9l1.8-1l3.3,1.3
			l2.8-1.4l3.9,5.4l2,0.6l-1.9-4.6l5.6-2.1l4.6,5.4l0.8,2.5l2-0.3l9.4-5l2.2-2.3l6.5-3.2l-3.2-5.3l1.6-5.7l-1.4-0.2l-4.4-9.7
			l1.9-4.7l3.1-1.1l0.2-0.8l-3.4-2.5l1.4-4l2.8-1.4l1.5-6.3l-3.3-11.6l-4.9-0.3l-2.3,3.8l-3.3,1.2l0.9,2.3l-2.3,0.9l-3.6-0.7l-2,2.4
			l-19.3-4.9l-12-3h-5.3v11.9l-3.6,5.2l2.4,2.1l-2.6,4.9l2.5,3.5l-2.9,2.3V151.9z"></path>
		<path d="M238.8,48.5l-5.2,0.1l1,2.4l4.8,1.4l4.9,7.8l-0.9,4.7l4.3,1.4l-1.6,7.4l1.7,0.4l-0.4,3.8l2.7,1.9l0.8,3.1l-4.5,1.2
			l0.1,1.1l5.5,1.3l-2.5,2.2l1.4,1.7l-0.4,2.9l3.8,1.2l2-2.8l-1.3-1.3l-2.6-3.6l6.8-1.5l-0.8,2.6l2.9,0.2l1.7-2.2l-1.7-4.4l3.3-2.5
			l7.4-0.4L285.5,89l1.7-6.2l3.1,0.1l5.4-7.3l2.8-9.8l5.7-4.7l11.1,5.4l6.6,0.4l3.9-3.5L325,59l-1.3-1v0.1l-15.4-1.7l-1.7,1.4
			l-5.5-4l-11.4-2.3l-7.1,2.3l-13.7-5.1l-2-3.2l-4.9-4.3l-9.4-3.1l-6.6,3.4l-2-4l-3-0.4l-0.3,1.7l0.6,4.3L238.8,48.5z"></path>
		<path d="M114,102.2l1.1,4l2.6,3l2.6-0.9l1.5,1.5l5.2-2l4.6,8.7l1.2,0.6h6.6l12.2,3.1L170,125l2-2.4l4,0.7l0.8-0.3l-0.8-2.4
			l4.1-1.4l2.5-4.1l5.2,0.3l0.5-1.7l4.1-0.9l0.8-0.6c-0.7-0.4-1.4-0.7-2.2-1c-0.2,0-0.4-0.1-0.5-0.3c-0.1-0.1-0.5-0.5-0.2-2.9v-0.4
			l4-0.9l1.5-1.3l-2.8-2.7l0.6-3.6l4.2-0.4l2.1-5.4l3.3-12.8l-0.1-1.4L203,79l0.1-0.2l-0.3-6.4l6-4.3l-3.3-3.6l-2.1,1.4l-2.6-2.5
			l-1.5,2.8l-19.4,3.4l-1.8-8.1l-2.8-3.4l1.8-1.8l-2.6-6.9l-2.1-1.4v0.2L161.7,50l-2.4,2.7l-7.6,0.5L147,61l-6.9-0.3l-4.4-1.8
			l-0.5,6.4l-1.8,8.4L130,74l-5.9-5.2L123,73l-3.7,0.5v5.6l-3.5,5.8l-2.6-3.7l-2-0.4l-3.4,10.6l-2.3,2l5.6,8.8L114,102.2L114,102.2z
			"></path>
		<path d="M231.2,206.5l-2-6.5h5.2l1.1-4.6l-4-0.9l-2.2-3.9l4.2-2L230,188l-1.8-5.9l-4.6-3l-0.9,1.1l1.2,3.5l-3.2,0.4l-2.9-4.7
			l-5.1-3.2l-1.2-3.1h-1.4l-2.4,5.3l-4.8-1.9l-4.4-8.1l-5.8,3.8l-0.8-1l-6.4,3.1l-2.2,2.3l-9.8,5.3l-3.2,0.3l-1.2-3.2l-3.8-4.4
			l-3.5,1.3l2.4,5.8l-4-1.2l-0.2,3l-4.4,3.2l-0.9,2.3l-3.8,1.3l-5.4,4l0.8,1.6l3.9-0.8l6.5,1.8v3.4l4.9,5.5l1,2.3l3.2,2.1l1.8,6.2
			l-2.1,4.3l1.1,4l3.9,1.3v0.1l4.8,2.9l4.3-2.5l5.1,4.7l2.1,1.1l3.4-2.1l3.4,3l3.9-3.4l8,3.7l-2.7,3.5l4,5.4v3.3l-2.2-0.4l0.4,1.1
			l1.7,0.6l4.6-2.1l8.1-3.2l1.9,0.5l1-1.5l2.2-1l1.5-7.7l-4.6-1.3l-3.8-7.3l2.7-2.2l4.5,2l1,2.5l2.3,1.7l3,1.2l2.3-2.9l-1.1-1.4
			l-3.7,1.7l-1.2-4.6l0.7-4l5.5-0.1l3.3,1.1l-1.1-2.6l2.1-2.2L231.2,206.5z"></path>
		<path d="M172.3,32.7l-0.1,13.9l3.1,2.1l3,8l-1.6,1.6l2.3,2.8l1.6,7.1l17.5-3.1l2.1-3.7l3,2.9l5.9-3.9l3.2-4l2.6,2.6l1.1-5.1l4.3-1
			v-1.8l-2.7-2.4v-2.9l-5.9-8.1l4.4-1.7l2.4-1.8l-0.9-2.3l-0.5-8l-9.6-5.5l-3.5,5.4h-6.8l-4-8.3l-4.6,0.3l-2,2.6l-15.7,2.3l-2.3-4.9
			l-3.4,0.6l-0.6,3.1l2.8,0.6L172.3,32.7z"></path>
		<path d="M108.2,276.8l-1.1-3.6l3.4-1.8l2.3-6.1l-3.6-4.2l6.7-3.4l1.8-3l-2-0.9l0.4-4.1l3.5,0.4l5.1-5.2l4.2,0.2l-3.4-8.8l-2.6-2
			l0.3-2.3l-1.4-2.1l0.7-12.9l1.7-1.5l-3.1-3.1l-1.5,0.7l-4.8-1.4l-2.8,0.9l-2.5-1.3l-0.8-2.5l-10.2-3.6l-5.1,1.1l-2.3-3.4l9.4-8.6
			l3.7,0.1l3.9-3.4v-2.9l5.6-3l-2.3-3.1l-1.1,1.8l-2.1-2.3l1.3-10.2l-1.5-3.1l-0.3-12l-7.9-0.8l-1,2.4l-5.2-2.1l-2.7,3.3l-14.3,0.2
			l-4.2,2.7l0.7,9.5l-7.2,0.4l-2.1,9.6v6.9h-5.7l-2.1,3.6l-2-1.5l-6.8-3.5l-2.6-0.9l-2.5,3.8h-2.9l-0.9-6.4l-3-0.5l-4.7-9.6
			l-7.2-1.6l-5.9,3.8l-2.3-5.4l-2.4,6l-2.2,15.7l2.6,3.5l2.6,5L9,236.8l1.3,3.5l4.7,10.8l1.4,7.6l-2.1,3.7l-1.5,19.8l2.4,3.8
			l6.4,0.3l2.7,1.4l0.8,3.9l2.4,1.5l1.5,4.2l15.7-1.4l2.6,4.1l3.7,4l3.8-7.5l9.4-1.4l2.8-1.8l13.7,9.3l2.9-1.7l11.7,2.3l1.2-2
			l5.6-0.7l1.5-10.1l9-2l0.9-8.9l-1.6-1.5L108.2,276.8z"></path>
		<path d="M220,34.7l-3.3,2.4l-2.9,1.2l5.1,7.1v2.7l2.7,2.4V54l-4.5,1l-1.4,6.5l-3.3-3.1l-2.4,3l-3.7,2.5l4.2,4.4l-6.6,4.8l0.2,5.3
			l7.6,3.7l2.5-1.4l3.2,0.5l0.6-2.8l9.3-4.1l3.6,2l1.9-1.9h2.5l2.1-4.7h3.8l1.7-9.2l-4.4-7.1l-4.8-1.4l-2.1-4.6l6.4-0.2l2-4.3
			l-0.6-4.1l0.4-1.8h-0.1l-21.2-12.3l0.4,6.9L220,34.7z"></path>
		<path d="M381.9,127.5l-7-0.3l-5.6-7.5l-1.5-4.3l-3.4-0.1l-1.1-0.8l-3.9,2l-4-4.5l-1-7.8l-10.5-8.7l-3,0.8l-5.2-0.7l-2.1-2.6
			l3.1-3.1l-2.1-1.2l-2.6,2.2l-3.5-0.7l-1.3,1.9l-7.4-0.8l-0.7-2.5l-3.4-0.5l-1.2-3.2l2.9-1.8l-0.6-1.8l1.4-2.2l-2.8-3.5l0.7-8H315
			l-10.6-5.1l-4.8,3.8l-2.8,9.6l-5.9,8.2l-2.8-0.2l-1.4,5.2l5.4,6.1l-1.6,2.7l-2.5,0.1l3,19.9l-6.1,3.7l-5.3,12.1l2.2,3.5l8.4,5.8
			l-1.2,3.3l-2.1,0.4l1.7,23l2.6,3.1l-2.8,16.3l1.9,1.4l1.9-2.1l3.5,0.8l9.3-6.3l9.1,4l2.2-3.9l4.8,1.7l4.1-0.8l1.1,3.1l7.2,2.8
			l0.7,2.7l7.4,0.2l0.9-1.3v-3.3l4.3-1.7l10.8-10.1l12.3-12.3l1.1-4.6l4.4-7.6l-0.5-5.5l2-0.9l3-7h2.2l-1.4-2.7l1.4-8.5L381.9,127.5
			z"></path>
		<path d="M438.9,83l-6.6,3.4h-0.2l-3.6-0.2c-0.6,0.1-6,1.5-9.6,2.5l-0.3,0.1l-0.2-0.2c-0.8-0.6-1.5-1.2-2.2-1.8
			c-0.2-0.3-1.3-1.9-1.8-2.7c-0.5,0.1-1,0.2-1.2,0.3c-0.4,0.2-0.7,0-1.2-0.4l-1.3-1c-0.9-0.7-2.2-1.7-3.8-3
			c-2.1-1.7-4.3-3.5-5.1-4.1l-1.7,0.8l-1.2-2.3c-3-0.3-7.2-0.7-7.5-0.7l0,0c-0.2,0-0.5-0.1-0.6-0.4c-0.2-0.4-0.3-0.6,2.5-5l0.1-0.1
			l2.7-1.3l1,2.6l7.3,2.5l0.9-2.7l-0.1-0.7l0,0l-9.7-20.7l1.5-7.3l-11.6-4.4l-4.6-4.9l-0.6-6.5l-5.6-9.8l-8.4,4.1l-4.2-1.2l-4,7.3
			l-8.6-0.9l-4.9,9.1l-4.9,2.3l-1.1,5.7l-4.9,1.5l-4,6.9l-4.6,0.9l-1.1,5.8l2.1,1.8l1.1,5.5l-4.8,4.4l-5-0.3l-0.7,7.5l3,3.8
			l-1.5,2.4l0.6,2.2l-2.8,1.8l0.5,1.5l3.5,0.5l0.7,2.5l5.8,0.7l1.4-1.9l3.6,0.7l2.8-2.4l4.4,2.6l-3.4,3.4l1,1.3l4.4,0.6l3.5-0.9
			l11.4,9.5l1.1,7.9l3.1,3.4l3.6-1.9l1.4,1l3.9,0.2l1.7,4.9l5.1,6.9l6,0.3l0.5-0.3l-1.9-4.4l3.5-2.7l4.9-0.8l5.5-2.7l3.2-0.3
			l5.8,2.3l3.2-1.2l1.8-1.8l2.4,1.8l2.9-1.2l-1.7-6.6l7.6-6.4l6.9,4l0.8,3.2l5.2,1.8l5-3.2l5,1.1l-0.9-7.3l3-2.9l1.1-13.5l-1.2-1.7
			L438.9,83z"></path>
		<path d="M451.3,61.9l7.6-8.2l-1.2-1.2l-1.1-4.4l-2,2.7l-0.6-2.6l-5.3,5.9l-1.4-1.7l-7.3,1.1l-0.5,2.9l-3.4,4.3l-3.5-1.8l-4.1,2.7
			l1.1-2.3L427,59l-0.3,2.7l-4.6,1.8l-4.3-5l-5.3-0.1l-0.8,5l-4.7-0.8l-1,3.3l0.7,3.4l-1.4,4.2l-9.1-3.1l-0.7-1.9l-1.1,0.6
			c-0.8,1.2-1.5,2.5-2,3.3c1.8,0.1,5.7,0.5,7.1,0.7h0.4l1,1.8l1.3-0.6l0.3,0.3c3.6,2.9,9.3,7.6,10.6,8.5c0.5-0.1,1.1-0.2,1.6-0.3
			l0.4-0.1l0.2,0.4c0.8,1.3,1.8,2.8,1.9,3c0.5,0.5,1.1,1,1.7,1.4c9.3-2.4,9.5-2.4,9.6-2.4s2.6,0.1,3.6,0.2l6.6-3.4l6.1,0.6l1,1.3
			l3.2,0.4l2.6-12.8l1.7-2.6l-3.3-2.1L451.3,61.9z"></path>
		<path d="M141.8,292l4.4-6v-3.5h4.4l1.6-1.9l-6.5-12.1l0.9-5.4l-3.8-7.5l0.9-2.5l-4.2-2.4l0.9-3.7h3.3l3.7-3.5l3.3,2.6l3.7-1.3
			l0.3-3.3l2.5-1.6l3,1.1l4.4-6.7l4.3,6.1l2.1-7.5l-1.6-5.9l-3.8-1.2l-1.5-5.2l2.2-4.3l-1.6-5.3l-3.1-2l-1.1-2.5l-5.1-5.7v-2.9
			l-5.3-1.4l-4.5,0.9l-1.7-3.5l6.4-4.7l3.4-1.3l0.8-2l4.2-3.1l0.3-2.9l-3.3-4.6l-2.4,1.2l-3.3-1.3l-1.9,1.1l-1.7-1.3l-0.8,2.7
			l-5.5,0.8l-1.4-1.8l-4.6,1.9l-2.4-2.1l-4-1l-5.3-13.7l-0.4-1.2l-5.3-3.4l-7.7-0.8l0.2,11.5l1.7,3.2l-1.3,10l0.5,0.5l1.2-1.9
			l4.3,5.8l-6.2,3.3v2.8l-4.7,4.1l-3.8-0.1l-8.1,7.5l1.2,1.7l4.6-0.9l11.1,3.9l0.9,2.6l1.5,0.8l2.7-0.9l4.7,1.5l1.9-1l4.7,4.7
			l-2.3,2.1l-0.7,11.9l1.4,2.2l-0.3,2l2.3,1.8l4.4,11l-5.7-0.3l-5.1,5.3l-2.9-0.4l-0.1,1.9l2.5,1.1l-2.8,4.5l-5.6,2.9l3,3.6
			l-2.6,7.2l-2.9,1.6l0.6,1.9l3.2,1.1l2.4,2.1l-1,9.1l4.7-1l3,1.3l2.6-1.5l1.8,1.8l2.3-3.3l1.2,1.2l7.9,0.9l0.8,4.6L141.8,292z"></path>
		<path d="M226.5,284l0.3-2.9l-5.9-5.1l5.3-3.2v-3l-1.3-0.9l-4.5,0.2l-0.7-3.6l3-2.1l4.8-3l-8.9-7.7l11-5.9l-4.6-5.9l-1.9,0.8
			l-1.2,2l-2.4-0.7l-7.7,3.1l-5,2.3l-2.8-0.9l-1.4-3.8l3,0.5v-1.3l-4.4-5.9l2.3-3l-5.8-2.7l-4.2,3.6l-3.5-3.1l-3.2,2l-2.8-1.6
			l-4.6-4.1l-4.1,2.4l-4.3-2.6l1.4,5l-3,10.5l-4.7-6.8l-3.9,6l-3.4-1.3l-1.5,1l-0.3,3.4l-5.1,1.8l-3-2.3l-3.3,3.1h-2.8l-0.4,1.8
			l4.3,2.4l-1.1,3l3.7,7.4l-0.8,5.3l6.7,12.6l-2.7,3h-3.6v2.6l-5.1,6.9l-2.8,0.1l0.6,0.4l-2.1,1.8l0.4,4.5l5.8-0.2l9,9.7l3,0.3
			l0.5,3L167,317l16.9,1l3.8,2.7l3-2.7l8.5-8l4.9-1.2l1.5-2.6l-2.1-1.5v-6.8l3.4-2.9l10.2-1.2l9.1,0.7l1-2.4l2.8-0.3l-0.1-4.5
			L226.5,284z"></path>
		<path d="M238.5,173.2l6.7,2.2l9.6-6l4.1,3.1l1.1,9.1l3.4,2.9l5.5-4.6l0,0l8.7-5.8l8.8,1.8l2-4l-1-1.2l-1.8-24.6l2.5-0.5l0.6-1.6
			l-7.8-5.4l-2.7-4.4l5.7-13.1l5.7-3.5l-3.1-20.4l3.2-0.2l0.8-1.3l-4.2-4.8l-0.1,0.4L271.6,80l-6.5,0.4l-2.3,1.7l1.6,4.1l-2.5,3.4
			l-5.2-0.4l0.6-2.1l-2.7,0.6l1.4,1.9l1.9,2l-3.1,4.5l-5.8-1.9l0.5-3.4l-1.8-2.2l1.5-1.4l-4.1-1L245,83l4.3-1.1l-0.4-1.4l-2.9-2
			l0.4-3.5l-1.9-0.4l1.7-7.5l-3-0.9l-0.9,4.8h-4.1l-2.1,4.6h-2.8l-2.1,2.3l-4-2.2l-8.1,3.5l-0.6,3.4l-4.1-0.6l-2.6,1.6l-7.6-3.8v0.9
			v0.1l-3.4,13l-2.4,6.2l-4,0.4l-0.3,2l3.4,3.2l-2.8,2.4l-3.4,0.8c0,0.4,0,0.9,0,1.3c1.1,0.4,2.2,0.9,3.2,1.5l0.9,0.5l-2.8,2
			l-3.6,0.8l-0.2,0.6l3.6,12.9l-1.7,7.2L188,137l-0.9,2.6l3.2,2.4l-0.4,2.3l-3.2,1.2l-1.5,3.6l3.9,8.5l2.1,0.4l-1.8,6.6l3.3,5.4
			l0.3,0.5l6-3.9l4.8,8.9l3.2,1.3l2.2-4.9h3.1l1.4,3.5l5,3.1l2.6,4.2l0.8-0.1l-0.9-2.6l2-2.6l2.8,1.8c0.7-0.2,7.8-3.7,12.2-5.9
			L238.5,173.2z"></path>
		<path d="M226.2,179.3v-0.1h-0.1L226.2,179.3z"></path>
		<path d="M333.2,194l-0.8-3l-7.1-2.7l-0.9-2.6l-3.4,0.6l-4.1-1.5l-2.2,3.9l-9.6-4.1l-9.1,6.1l-3.4-0.7l-2.1,2.5l-3.5-2.6l2.9-16.5
			l-0.6-0.7l-2.2,4.4l-9.3-1.9l-8.2,5.5l-6.3,5.3l-4.6-3.9l-1.1-9l-2.9-2.2l-9.4,5.8l-6.8-2.2l-5.8,2.8c-3,1.4-4.5,2.2-5.4,2.6
			l1.9,1.2l1.7,5.6l6.8,1.1L231,191l1.2,2.2l4.7,1.1l-1.5,6.9h-4.5l1.4,4.5l7.4,7.8l-2.4,2.4l2,4.5l-5.9-2l-4.2,0.1l-0.5,2.6
			l0.8,2.9l3.2-1.5l2.4,2.9l-3.5,4.5l-4.1-1.7l-2.6-2l-1-2.4l-3.3-1.5l-1.3,1l3.1,5.9l5.2,1.5l-1.7,8.7l5.8,7.4l-10.8,5.8l8.8,7.6
			l-6.3,3.9l-2.3,1.6l0.4,1.7l3.9-0.1l2.1,1.5v4.3l-4.4,2.7l5,4.4l-0.2,3l2.7,2.7l7-1.2l0.6-2.7l6.4-1.4l1.4-2l1.7,0.6l11-5.8l0.5-3
			l3.2,2.1l9.4-5.9l13.3-1.8l10.2,3.8l1.4-2.7l3.6-0.1l0.9-4.1l3.4-0.3l1.4-3.4l2.3,1.4L320,258l1.1-3l-2.7-2.7L318,249l3.5-1.2
			l-1.4-2.1l3.3-2.9l0.3-4.6l-1.4-0.8l1.2-2.4l2.1-0.2l5.6-9.7l4.7-9.9l-0.8-3l1.5-2.7l-1.2-2.6l1.7-0.8l3.4-9l-0.2-2.7l0.2-0.2
			L333.2,194z"></path>
	</g>
	<polygon id="bg-white" class="bg-white" points="450.2,58.4 458.3,49.7 456.6,48 455.1,41.8 453.1,44.5 452.5,42.1 446.7,48.6 445.7,47.3 
		437.1,48.6 436.6,52 433.8,55.4 430.5,53.7 429,54.8 429.1,54.5 424.1,53.9 423.8,57 420.4,58.3 416.3,53.5 409.6,53.4 408.9,58.2 
		404.3,57.5 403,61.8 394.5,43.8 396.2,36 384,31.3 379.8,26.9 379.2,20.5 373,9.7 364.1,14 359.5,12.7 355.4,20.1 346.8,19.2 
		341.8,28.6 336.7,31 335.6,36.6 330.9,38.1 327,44.9 322.1,45.8 320.9,52.2 320.7,52 320.7,53 306,51.4 304.6,52.5 299.5,48.9 
		287.6,46.5 280.6,48.7 267.6,43.9 265.7,40.8 260.5,36.3 250.5,33 244.4,36.1 242.7,32.6 238.9,32.1 238.9,32 238.3,32 238.2,32 
		238.2,32 238,32 215.4,18.9 215.4,18.9 205.2,13.1 201.5,18.8 195.8,18.8 191.8,10.5 186.1,10.8 184.1,13.5 169.5,15.6 167.2,10.7 
		162.3,11.5 161.4,16.3 164.7,17 169.3,28.9 169.2,43.1 169.4,43.3 169.4,43.4 159.2,45.1 156.8,47.7 149.1,48.2 144.5,56 
		138.3,55.7 132.8,53.5 132.2,61.2 130.6,68.8 128.3,69 121.5,63 120.2,68.1 116.3,68.6 116.3,74.8 113.7,79.1 111.8,76.3 
		108.5,75.6 104.9,86.8 102.2,89.2 108.6,99.2 111.2,99.2 112.2,102.7 115.4,106.4 118,105.4 119.6,107 124.5,105.1 128.9,113.3 
		130.6,114.1 130.9,114.1 130.9,126.1 127,131.8 129.4,133.9 126.9,138.7 129.2,141.9 126.7,143.9 126.7,147.3 121.7,150.3 
		121,156.5 120.8,155.9 115,152.2 106.7,151.4 106.7,151.3 97.2,150.3 96.3,152.5 91.3,150.5 88.4,154 74.3,154.2 69.4,157.4 
		70,166.5 63.1,166.8 60.8,177.3 60.8,183.3 55.5,183.3 53.7,186.4 52.5,185.5 45.6,182 42.2,180.8 39.6,184.8 38.1,184.8 
		37.2,178.5 34,178 29.3,168.4 21.2,166.6 16,170 13.2,163.5 9.8,171.8 7.6,188.1 10.3,191.8 12.8,196.5 6,232.9 7.4,236.7 
		12,247.4 13.4,254.5 11.3,258.1 9.8,278.5 12.6,283 19.3,283.3 21.4,284.4 22.2,288.2 24.7,289.8 26.3,294.4 42.2,293 44.5,296.6 
		49.2,301.7 53.5,293.4 62.6,292.1 65,290.5 78.7,299.8 81.8,298 93.8,300.3 95.1,298.1 101,297.4 102.5,287.2 111.5,285.2 
		111.5,285.2 116.5,284.1 119.7,285.5 122,284.1 124.1,286.3 126.4,283 127,283.6 134.5,284.4 135.3,288.5 134.5,288.5 135.4,289.1 
		135.4,289.1 135.4,289.1 136.5,289.9 135.1,291.2 135.6,297.1 141.9,296.9 150.8,306.6 153.4,306.8 153.9,309.6 164.8,314 
		181.6,315 185.8,318 189.4,314.7 197.7,306.9 202.8,305.7 204.9,301.9 202.5,300.2 202.5,294.4 205.3,292 215.1,290.8 224.8,291.6 
		225.9,289 229,288.7 228.9,282.9 228.9,282.9 236.4,281.6 237,278.8 243.2,277.5 244.4,275.8 245.8,276.3 257.6,270.1 257.9,268.1 
		260.4,269.7 270.1,263.6 283,261.8 293.8,265.8 295.3,262.9 299.1,262.8 300,258.6 303.3,258.3 304.5,255.5 306.1,256.4 
		318.7,254.9 320.3,250.7 317.4,247.8 317.1,245.7 321.1,244.3 319.4,241.9 322.4,239.3 322.7,233.6 321.6,233 322.1,231.9 
		324.2,231.7 330.1,221.5 335,211.3 334.2,208.3 335.7,205.5 334.7,203.4 335.9,202.8 339.5,193.2 339.3,190.9 341.6,189.1 
		340.7,189.1 341.5,187.9 341.5,185 345.3,183.5 356.3,173.2 368.8,160.7 369.9,156 374.4,148.2 374,143.1 375.7,142.4 378.6,135.6 
		381.7,135.6 379.7,131.7 381.4,121.6 380.9,121.9 379.2,118 381.9,115.9 386.7,115.2 392.2,112.5 395,112.2 400.9,114.6 
		404.7,113.2 406,111.8 408.2,113.4 412.4,111.7 410.6,104.9 417.2,99.3 423.1,102.8 424,106.1 430.1,108.2 435.2,105 441.2,106.3 
		440.2,98.1 443.1,95.3 444.3,80.9 447.8,81.3 450.5,67.8 452.7,64.5 449.2,62.3 	"></polygon>
	<path id="aljustrel" d="M187.8,130.7l1.5-6.3l-3.3-11.6l-4.9-0.3l-2.3,3.8l-3.3,1.2l0.9,2.3l-2.3,0.9l-3.6-0.7l-2,2.4l-19.3-4.9
		l-12-3h-5.3v11.9l-3.6,5.2l2.4,2.1l-2.6,4.9l2.5,3.5l-2.9,2.3v3.5l-5.1,3l-0.7,6.9l-0.2-0.2l4.9,12.8l3.7,1l2,1.7l4.8-1.9l1.5,1.9
		l4-0.6l1.2-3.6l2.4,1.9l1.8-1l3.3,1.3l2.8-1.4l3.9,5.4l2,0.6l-1.9-4.6l5.6-2.1l4.6,5.4l0.8,2.5l2-0.3l9.4-5l2.2-2.3l6.5-3.2
		l-3.2-5.3l1.6-5.7l-1.4-0.2l-4.4-9.7l1.9-4.7l3.1-1.1l0.2-0.8l-3.4-2.5l1.4-4L187.8,130.7z" data-municipality-id="20" data-title="Aljustrel">
	<title>Aljustrel</title></path>
	<path id="vidigueira" d="M238.7,34.8l0.6,4.3l-2.5,5.4l-5.2,0.1l1,2.4l4.8,1.4l4.9,7.8l-0.9,4.7l4.3,1.4l-1.6,7.4l1.7,0.4l-0.4,3.8
		l2.7,1.9l0.8,3.1l-4.5,1.2l0.1,1.1l5.5,1.3l-2.5,2.2l1.4,1.7l-0.4,2.9l3.8,1.2l2-2.8l-1.3-1.3l-2.6-3.6l6.8-1.5l-0.8,2.6l2.9,0.2
		l1.7-2.2l-1.7-4.4l3.3-2.5l7.4-0.4L283.5,85l1.7-6.2l3.1,0.1l5.4-7.3l2.8-9.8l5.7-4.7l11.1,5.4l6.6,0.4l3.9-3.5L323,55l-1.3-1v0.1
		l-15.4-1.7l-1.7,1.4l-5.5-4l-11.4-2.3l-7.1,2.3l-13.7-5.1l-2-3.2l-4.9-4.3l-9.4-3.1l-6.6,3.4l-2-4l-3-0.4L238.7,34.8z" data-municipality-id="33" data-title="Vidigueira">
	<title>Vidigueira</title></path>
	<path id="ferreiradoalentejo" d="M112,98.2l1.1,4l2.6,3l2.6-0.9l1.5,1.5l5.2-2l4.6,8.7l1.2,0.6h6.6l12.2,3.1L168,121l2-2.4l4,0.7
		l0.8-0.3l-0.8-2.4l4.1-1.4l2.5-4.1l5.2,0.3l0.5-1.7l4.1-0.9l0.8-0.6c-0.7-0.4-1.4-0.7-2.2-1c-0.2,0-0.4-0.1-0.5-0.3
		c-0.1-0.1-0.5-0.5-0.2-2.9v-0.4l4-0.9l1.5-1.3l-2.8-2.7l0.6-3.6l4.2-0.4l2.1-5.4l3.3-12.8l-0.1-1.4L201,75l0.1-0.2l-0.3-6.4l6-4.3
		l-3.3-3.6l-2.1,1.4l-2.6-2.5l-1.5,2.8l-19.4,3.4l-1.8-8.1l-2.8-3.4l1.8-1.8l-2.6-6.9l-2.1-1.4v0.2L159.7,46l-2.4,2.7l-7.6,0.5
		L145,57l-6.9-0.3l-4.4-1.8l-0.5,6.4l-1.8,8.4L128,70l-5.9-5.2L121,69l-3.7,0.5v5.6l-3.5,5.8l-2.6-3.7l-2-0.4l-3.4,10.6l-2.3,2
		l5.6,8.8L112,98.2L112,98.2z" data-municipality-id="27" data-title="Ferreira do Alentejo">
	<title>Ferreira do Alentejo</title></path>
	<path id="castroverde" d="M215.8,175.4l-5.1-3.2l-1.2-3.1h-1.4l-2.4,5.3l-4.8-1.9l-4.4-8.1l-5.8,3.8l-0.8-1l-6.4,3.1l-2.2,2.3
		l-9.8,5.3l-3.2,0.3l-1.2-3.2l-3.8-4.4l-3.5,1.3l2.4,5.8l-4-1.2l-0.2,3l-4.4,3.2l-0.9,2.3l-3.8,1.3l-5.4,4l0.8,1.6l3.9-0.8l6.5,1.8
		v3.4l4.9,5.5l1,2.3l3.2,2.1l1.8,6.2l-2.1,4.3l1.1,4l3.9,1.3v0.1l4.8,2.9l4.3-2.5l5.1,4.7l2.1,1.1l3.4-2.1l3.4,3l3.9-3.4l8,3.7
		l-2.7,3.5l4,5.4v3.3l-2.2-0.4l0.4,1.1l1.7,0.6l4.6-2.1l8.1-3.2l1.9,0.5l1-1.5l2.2-1l1.5-7.7l-4.6-1.3l-3.8-7.3l2.7-2.2l4.5,2l1,2.5
		l2.3,1.7l3,1.2l2.3-2.9l-1.1-1.4l-3.7,1.7l-1.2-4.6l0.7-4l5.5-0.1l3.3,1.1l-1.1-2.6l2.1-2.2l-6.7-7.1l-2-6.5h5.2l1.1-4.6l-4-0.9
		l-2.2-3.9l4.2-2L228,184l-1.8-5.9l-4.6-3l-0.9,1.1l1.2,3.5l-3.2,0.4L215.8,175.4z" data-municipality-id="25" data-title="Castro Verde">
	<title>Castro Verde</title></path>
	<path id="alvito" d="M170.3,28.7l-0.1,13.9l3.1,2.1l3,8l-1.6,1.6l2.3,2.8l1.6,7.1l17.5-3.1l2.1-3.7l3,2.9l5.9-3.9l3.2-4l2.6,2.6
		l1.1-5.1l4.3-1v-1.8l-2.7-2.4v-2.9l-5.9-8.1l4.4-1.7l2.4-1.8l-0.9-2.3l-0.5-8l-9.6-5.5l-3.5,5.4h-6.8l-4-8.3l-4.6,0.3l-2,2.6
		l-15.7,2.3l-2.3-4.9l-3.4,0.6l-0.6,3.1l2.8,0.6L170.3,28.7z" data-municipality-id="22" data-title="Alvito">
	<title>Alvito</title></path>
	<path id="odemira" d="M111.5,275.5l-1.6-1.5l-3.7-1.2l-1.1-3.6l3.4-1.8l2.3-6.1l-3.6-4.2l6.7-3.4l1.8-3l-2-0.9l0.4-4.1l3.5,0.4
		l5.1-5.2l4.2,0.2l-3.4-8.8l-2.6-2l0.3-2.3l-1.4-2.1l0.7-12.9l1.7-1.5l-3.1-3.1l-1.5,0.7l-4.8-1.4l-2.8,0.9l-2.5-1.3l-0.8-2.5
		l-10.2-3.6l-5.1,1.1l-2.3-3.4l9.4-8.6l3.7,0.1l3.9-3.4v-2.9l5.6-3l-2.3-3.1l-1.1,1.8l-2.1-2.3l1.3-10.2l-1.5-3.1l-0.3-12l-7.9-0.8
		l-1,2.4l-5.2-2.1l-2.7,3.3l-14.3,0.2l-4.2,2.7l0.7,9.5l-7.2,0.4l-2.1,9.6v6.9h-5.7l-2.1,3.6l-2-1.5l-6.8-3.5l-2.6-0.9l-2.5,3.8
		h-2.9l-0.9-6.4l-3-0.5l-4.7-9.6l-7.2-1.6l-5.9,3.8l-2.3-5.4l-2.4,6l-2.2,15.7l2.6,3.5l2.6,5L7,232.8l1.3,3.5l4.7,10.8l1.4,7.6
		l-2.1,3.7l-1.5,19.8l2.4,3.8l6.4,0.3l2.7,1.4l0.8,3.9l2.4,1.5l1.5,4.2l15.7-1.4l2.6,4.1l3.7,4l3.8-7.5l9.4-1.4l2.8-1.8l13.7,9.3
		l2.9-1.7l11.7,2.3l1.2-2l5.6-0.7l1.5-10.1l9-2L111.5,275.5z" data-municipality-id="30" data-title="Odemira">
	<title>Odemira</title></path>
	<path id="cuba" d="M216.9,27.6l1.1,3.1l-3.3,2.4l-2.9,1.2l5.1,7.1v2.7l2.7,2.4V50l-4.5,1l-1.4,6.5l-3.3-3.1l-2.4,3l-3.7,2.5
		l4.2,4.4l-6.6,4.8l0.2,5.3l7.6,3.7l2.5-1.4l3.2,0.5l0.6-2.8l9.3-4.1l3.6,2l1.9-1.9h2.5l2.1-4.7h3.8l1.7-9.2l-4.4-7.1l-4.8-1.4
		l-2.1-4.6l6.4-0.2l2-4.3l-0.6-4.1l0.4-1.8h-0.1l-21.2-12.3L216.9,27.6z" data-municipality-id="26" data-title="Cuba">
	<title>Cuba</title></path>
	<path id="serpa" d="M380.1,123.4l-0.2,0.1l-7-0.3l-5.6-7.5l-1.5-4.3l-3.4-0.1l-1.1-0.8l-3.9,2l-4-4.5l-1-7.8l-10.5-8.7l-3,0.8
		l-5.2-0.7l-2.1-2.6l3.1-3.1l-2.1-1.2l-2.6,2.2l-3.5-0.7l-1.3,1.9l-7.4-0.8l-0.7-2.5l-3.4-0.5l-1.2-3.2l2.9-1.8l-0.6-1.8l1.4-2.2
		l-2.8-3.5l0.7-8H313l-10.6-5.1l-4.8,3.8l-2.8,9.6l-5.9,8.2l-2.8-0.2l-1.4,5.2l5.4,6.1l-1.6,2.7l-2.5,0.1l3,19.9l-6.1,3.7l-5.3,12.1
		l2.2,3.5l8.4,5.8l-1.2,3.3l-2.1,0.4l1.7,23l2.6,3.1l-2.8,16.3l1.9,1.4l1.9-2.1l3.5,0.8l9.3-6.3l9.1,4l2.2-3.9l4.8,1.7l4.1-0.8
		l1.1,3.1l7.2,2.8l0.7,2.7l7.4,0.2l0.9-1.3v-3.3l4.3-1.7l10.8-10.1l12.3-12.3l1.1-4.6l4.4-7.6l-0.5-5.5l2-0.9l3-7h2.2l-1.4-2.7
		L380.1,123.4z" data-municipality-id="32" data-title="Serpa">
	<title>Serpa</title></path>
	<path id="moura" d="M443.3,81.1l-1.3-1.6l-5.1-0.5l-6.6,3.4h-0.2l-3.6-0.2c-0.6,0.1-6,1.5-9.6,2.5l-0.3,0.1l-0.2-0.2
		c-0.8-0.6-1.5-1.2-2.2-1.8c-0.2-0.3-1.3-1.9-1.8-2.7c-0.5,0.1-1,0.2-1.2,0.3c-0.4,0.2-0.7,0-1.2-0.4l-1.3-1c-0.9-0.7-2.2-1.7-3.8-3
		c-2.1-1.7-4.3-3.5-5.1-4.1l-1.7,0.8l-1.2-2.3c-3-0.3-7.2-0.7-7.5-0.7l0,0c-0.2,0-0.5-0.1-0.6-0.4c-0.2-0.4-0.3-0.6,2.5-5l0.1-0.1
		l2.7-1.3l1,2.6l7.3,2.5l0.9-2.7l-0.1-0.7l0,0l-9.7-20.7l1.5-7.3l-11.6-4.4l-4.6-4.9l-0.6-6.5l-5.6-9.8l-8.4,4.1l-4.2-1.2l-4,7.3
		l-8.6-0.9l-4.9,9.1l-4.9,2.3l-1.1,5.7l-4.9,1.5l-4,6.9l-4.6,0.9l-1.1,5.8l2.1,1.8l1.1,5.5l-4.8,4.4l-5-0.3l-0.7,7.5l3,3.8l-1.5,2.4
		l0.6,2.2l-2.8,1.8l0.5,1.5l3.5,0.5l0.7,2.5l5.8,0.7l1.4-1.9l3.6,0.7l2.8-2.4l4.4,2.6l-3.4,3.4l1,1.3l4.4,0.6l3.5-0.9l11.4,9.5
		l1.1,7.9l3.1,3.4l3.6-1.9l1.4,1l3.9,0.2l1.7,4.9l5.1,6.9l6,0.3l0.5-0.3l-1.9-4.4l3.5-2.7l4.9-0.8l5.5-2.7l3.2-0.3l5.8,2.3l3.2-1.2
		l1.8-1.8l2.4,1.8l2.9-1.2l-1.7-6.6l7.6-6.4l6.9,4l0.8,3.2l5.2,1.8l5-3.2l5,1.1l-0.9-7.3l3-2.9L443.3,81.1z" data-municipality-id="29" data-title="Moura">
	<title>Moura</title></path>
	<path id="barrancos" d="M449.3,57.9l7.6-8.2l-1.2-1.2l-1.1-4.4l-2,2.7l-0.6-2.6l-5.3,5.9l-1.4-1.7l-7.3,1.1l-0.5,2.9l-3.4,4.3
		l-3.5-1.8l-4.1,2.7l1.1-2.3L425,55l-0.3,2.7l-4.6,1.8l-4.3-5l-5.3-0.1l-0.8,5l-4.7-0.8l-1,3.3l0.7,3.4l-1.4,4.2l-9.1-3.1l-0.7-1.9
		l-1.1,0.6c-0.8,1.2-1.5,2.5-2,3.3c1.8,0.1,5.7,0.5,7.1,0.7h0.4l1,1.8l1.3-0.6l0.3,0.3c3.6,2.9,9.3,7.6,10.6,8.5
		c0.5-0.1,1.1-0.2,1.6-0.3l0.4-0.1l0.2,0.4c0.8,1.3,1.8,2.8,1.9,3c0.5,0.5,1.1,1,1.7,1.4c9.3-2.4,9.5-2.4,9.6-2.4s2.6,0.1,3.6,0.2
		l6.6-3.4l6.1,0.6l1,1.3l3.2,0.4l2.6-12.8l1.7-2.6l-3.3-2.1L449.3,57.9z" data-municipality-id="23" data-title="Barrancos">
	<title>Barrancos</title></path>
	<path id="ourique" d="M136.2,288.1l3.6-0.1l4.4-6v-3.5h4.4l1.6-1.9l-6.5-12.1l0.9-5.4l-3.8-7.5l0.9-2.5l-4.2-2.4l0.9-3.7h3.3
		l3.7-3.5l3.3,2.6l3.7-1.3l0.3-3.3l2.5-1.6l3,1.1l4.4-6.7l4.3,6.1l2.1-7.5l-1.6-5.9l-3.8-1.2l-1.5-5.2l2.2-4.3l-1.6-5.3l-3.1-2
		l-1.1-2.5l-5.1-5.7v-2.9l-5.3-1.4l-4.5,0.9l-1.7-3.5l6.4-4.7l3.4-1.3l0.8-2l4.2-3.1l0.3-2.9l-3.3-4.6l-2.4,1.2l-3.3-1.3l-1.9,1.1
		l-1.7-1.3l-0.8,2.7l-5.5,0.8l-1.4-1.8l-4.6,1.9l-2.4-2.1l-4-1l-5.3-13.7l-0.4-1.2l-5.3-3.4l-7.7-0.8l0.2,11.5l1.7,3.2l-1.3,10
		l0.5,0.5l1.2-1.9l4.3,5.8l-6.2,3.3v2.8l-4.7,4.1l-3.8-0.1l-8.1,7.5l1.2,1.7l4.6-0.9l11.1,3.9l0.9,2.6l1.5,0.8l2.7-0.9l4.7,1.5
		l1.9-1l4.7,4.7l-2.3,2.1l-0.7,11.9l1.4,2.2l-0.3,2l2.3,1.8l4.4,11l-5.7-0.3l-5.1,5.3l-2.9-0.4l-0.1,1.9l2.5,1.1l-2.8,4.5l-5.6,2.9
		l3,3.6l-2.6,7.2l-2.9,1.6l0.6,1.9l3.2,1.1l2.4,2.1l-1,9.1l4.7-1l3,1.3l2.6-1.5l1.8,1.8l2.3-3.3l1.2,1.2l7.9,0.9L136.2,288.1z" data-municipality-id="31" data-title="Ourique">
	<title>Ourique</title></path>
	<path id="almodovar" d="M224.5,280l0.3-2.9l-5.9-5.1l5.3-3.2v-3l-1.3-0.9l-4.5,0.2l-0.7-3.6l3-2.1l4.8-3l-8.9-7.7l11-5.9l-4.6-5.9
		l-1.9,0.8l-1.2,2l-2.4-0.7l-7.7,3.1l-5,2.3l-2.8-0.9l-1.4-3.8l3,0.5v-1.3l-4.4-5.9l2.3-3l-5.8-2.7l-4.2,3.6l-3.5-3.1l-3.2,2
		l-2.8-1.6l-4.6-4.1l-4.1,2.4l-4.3-2.6l1.4,5l-3,10.5l-4.7-6.8l-3.9,6l-3.4-1.3l-1.5,1l-0.3,3.4l-5.1,1.8l-3-2.3l-3.3,3.1h-2.8
		l-0.4,1.8l4.3,2.4l-1.1,3l3.7,7.4l-0.8,5.3l6.7,12.6l-2.7,3h-3.6v2.6l-5.1,6.9l-2.8,0.1l0.6,0.4l-2.1,1.8l0.4,4.5l5.8-0.2l9,9.7
		l3,0.3l0.5,3L165,313l16.9,1l3.8,2.7l3-2.7l8.5-8l4.9-1.2l1.5-2.6l-2.1-1.5v-6.8l3.4-2.9l10.2-1.2l9.1,0.7l1-2.4l2.8-0.3l-0.1-4.5
		L224.5,280z" data-municipality-id="21" data-title="Almodôvar">
	<title>Almodôvar</title></path>
	<path id="beja" d="M220.1,178.6l-0.9-2.6l2-2.6l2.8,1.8c0.7-0.2,7.8-3.7,12.1-5.9l0.2-0.1l6.7,2.2l9.6-6l4.1,3.1l1.1,9.1l3.4,2.9
		l5.5-4.6l0,0l8.7-5.8l8.8,1.8l2-4l-1-1.2l-1.8-24.6l2.5-0.5l0.6-1.6l-7.8-5.4l-2.7-4.4l5.7-13.1l5.7-3.5l-3.1-20.4l3.2-0.2l0.8-1.3
		l-4.2-4.8l-0.1,0.4L269.4,76l-6.5,0.4l-2.3,1.7l1.6,4.1l-2.5,3.4l-5.2-0.4l0.6-2.1l-2.7,0.6l1.4,1.9l1.9,2l-3.1,4.5l-5.8-1.9
		l0.5-3.4l-1.8-2.2l1.5-1.4l-4.1-1L243,79l4.3-1.1l-0.4-1.4l-2.9-2l0.4-3.5l-1.9-0.4l1.7-7.5l-3-0.9l-0.9,4.8h-4.1l-2.1,4.6h-2.8
		l-2.1,2.3l-4-2.2l-8.1,3.5l-0.6,3.4l-4.1-0.6l-2.6,1.6l-7.6-3.8v0.9v0.1l-3.4,13l-2.4,6.2l-4,0.4l-0.3,2l3.4,3.2l-2.8,2.4l-3.4,0.8
		c0,0.4,0,0.9,0,1.3c1.1,0.4,2.2,0.9,3.2,1.5l0.9,0.5l-2.8,2l-3.6,0.8l-0.2,0.6l3.6,12.9l-1.7,7.2L186,133l-0.9,2.6l3.2,2.4
		l-0.4,2.3l-3.2,1.2l-1.5,3.6l3.9,8.5l2.1,0.4l-1.8,6.6l3.3,5.4l0.3,0.5l6-3.9l4.8,8.9l3.2,1.3l2.2-4.9h3.1l1.4,3.5l5,3.1l2.6,4.2
		L220.1,178.6z" data-municipality-id="24" data-title="Beja">
	<title>Beja</title></path>
	<path id="mertola" d="M338.7,190.1l-7.5-0.1l-0.8-3l-7.1-2.7l-0.9-2.6l-3.4,0.6l-4.1-1.5l-2.2,3.9l-9.6-4.1l-9.1,6.1l-3.4-0.7
		l-2.1,2.5l-3.5-2.6l2.9-16.5l-0.6-0.7l-2.2,4.4l-9.3-1.9l-8.2,5.5l-6.3,5.3l-4.6-3.9l-1.1-9l-2.9-2.2l-9.4,5.8l-6.8-2.2l-5.8,2.8
		c-3,1.4-4.5,2.2-5.4,2.6l1.9,1.2l1.7,5.6l6.8,1.1L229,187l1.2,2.2l4.7,1.1l-1.5,6.9h-4.5l1.4,4.5l7.4,7.8l-2.4,2.4l2,4.5l-5.9-2
		l-4.2,0.1l-0.5,2.6l0.8,2.9l3.2-1.5l2.4,2.9l-3.5,4.5l-4.1-1.7l-2.6-2l-1-2.4l-3.3-1.5l-1.3,1l3.1,5.9l5.2,1.5l-1.7,8.7l5.8,7.4
		l-10.8,5.8l8.8,7.6l-6.3,3.9l-2.3,1.6l0.4,1.7l3.9-0.1l2.1,1.5v4.3l-4.4,2.7l5,4.4l-0.2,3l2.7,2.7l7-1.2l0.6-2.7l6.4-1.4l1.4-2
		l1.7,0.6l11-5.8l0.5-3l3.2,2.1l9.4-5.9l13.3-1.8l10.2,3.8l1.4-2.7l3.6-0.1l0.9-4.1l3.4-0.3l1.4-3.4l2.3,1.4L318,254l1.1-3l-2.7-2.7
		L316,245l3.5-1.2l-1.4-2.1l3.3-2.9l0.3-4.6l-1.4-0.8l1.2-2.4l2.1-0.2l5.6-9.7l4.7-9.9l-0.8-3l1.5-2.7l-1.2-2.6l1.7-0.8l3.4-9
		l-0.2-2.7L338.7,190.1z" data-municipality-id="28" data-title="Mértola">
	<title>Mértola</title></path>
</g>
</svg>