<svg xmlns="http://www.w3.org/2000/svg" viewBox="0 0 276.8 308.3" class="map-svg map-municipalities" data-id="20" data-district="viseu">
<g data-title="viseu" data-district-id="20">
	<g id="map-bg" class="map-bg">
		<path d="M135.6,84l-2.4-0.8l-4.1-2.1l-3.9,0.2l-2-1.3l4.2-6.2L128,72l-2.8,0.4l-5.3,0.2l-4,1.8l-1.9-0.1l-1.3,4.5l-1.1,0.6v2
			l-5.4,6.7l-4.6-0.5l-1.4,2.4L94,91.1l-5.4-6.8l-4.1,1.2l-9.3-1.1l-9.5,12.1l2.1,5.9l4.9-2.7l1.1,2.3l4-2.2l6,2.4l0.2,4l5.6-0.9
			l-0.1,4.2l-2.2,3.7l1.3,2.8l3.6-1l2.6-2.7l2.3,1.8l-2,3.8l1.7,3.1l3.5-2.1l1.2,4.5l-1.6,4.8l8.8,3.8l-1,5.3l2,1.4l3.8,0.3l2.6,4
			l0.2,1.9l4.8,0.2l8.2,2.7l4,0.7l4.3-7.2l1.6-5.1l5.8-5.2l0.5-2.9l-5.2-3.4l-0.8-4.2l-6.2-5.2l-1.2-2.9l2.1-1.5l0.8-5l2,0.5
			l8.2-8.1l1.9-3.4l2.5,3.6l5.5,1.6l2.9-3.6l2.1,0.6l-0.2-3.4l-0.9,0.2l-1.2-3l1.4-1.3l-0.5-1.9l-2.9,0.5l-4.3-1.8l-2.7,1.5
			l-1.1,2.1l-4.1,4l-7.6-9.3l0.1-0.7H135.6z"></path>
		<path class="st0" d="M31.7,194.5l1.9,1.2l-1.8,5.3l4,3.1l1-0.5l0.7-2.8l7.8,0.6l-0.3,3.2l6,4.6l6.3,0.2l4.6-4.2l1.4-8.8l12.4,1.5
			l9-6.7l8.4-11.8l3.2-10.8l-1.8-5.5l-3.4-0.3l-1.5,2.4l-3.1-2.4l-3.6,3.3l-1.9-0.8l-5.7,2.3l-6.7-0.4l-2.4-0.7l0.4,2.4l-0.4,0.2
			c-0.7,0.3-1.4,0.7-2,1.2c0.1,0.4,0.4,1.5,0.6,2.4l0.1,0.3l-4.4,4.8l-13.9,2.5l-6.9-1.9l-1.6,3.4l-4.3,1.9l1.1,5.4l-3.3,3.3
			L31.7,194.5z"></path>
		<path d="M45.6,145.2l-7.4,10.9l0.2,1.2l4.5,1.6l1.6,2.3l8,1.2l4-1.8l1.6,2.4l10.8,3.4l6.2,0.3l6-2.3l1.7,0.7l3.7-3.5l2.9,2.3
			l1.2-2l0,0l0,0l3.8-6l9.2,1.1l10.6-6l2.3-5h-1.2l-0.3-2.6l-2.1-3.3l-3.6-0.3l-2.8-2l0.9-5.1l-8.9-3.9l1.8-5.5l-0.7-2.7l-3.3,1.9
			l-2.4-4.6l1.7-3.5l-0.7-0.6l-2.1,2.2l-4.8,1.3l-2-4.2l2.4-3.9l0.1-2.6l-5.5,0.9l-0.3-4.5l-4.8-2l-4.7,2.6l-1-2.3l-4,2.2l0.1,0.4
			l-1.1,8.1l6.1,10.9l-0.9,3.5l-7.4,2.3l-7.5-5.9l-5.9,6.8l-3.7-0.3l-6.8-4.9l-5.7,2.4l4.5,9.2l-2.3,7.1L45.6,145.2z"></path>
		<path d="M156.8,60.5l3.2,1.4l-4.5,6.5l-7-0.6l-2.2,5.2l-3.5,0.5l-5.1,7.6l-0.5,3.3l6.5,7.9l3.1-3l1.1-2.2l3.6-2l4.4,1.9l3.6-0.6
			l1,3.5l-1.4,1.3l0.6,1.4l6.1-0.9l0.1-8.2l1.5-4.4l-0.7-2.9l0.4-6.6l6.3,0.8l5.8,5.4l2.5-3.3l1.4-1.8l0.8,0.5l-1.1-1.8l-2,1.3
			l-1.6-4.2l-3.1-2.1l-2.7,4.3l-5.3-4.6l1.6-5l3.2-0.3l0.2-1.7l-5.7-4.3l-7.2,0.2l0.8,2.9l-3.4,1L156.8,60.5z"></path>
		<path d="M175.5,126.7l-6.3-9.7l4.7-6.6l2.4-10.5l-1.9-2.2l-11.8,2.3l-2.1-1.7l-2.1-0.5l-2.9,3.6l-6.6-1.9l-1.7-2.5l-1.1,2
			l-8.8,8.7l-1.3-0.4l-0.8,4.2l-1.7,1.3l0.7,1.8l6.3,5.3l0.8,4.1l5.5,3.5l-0.5,2.8l0,0l9.5,12.8l3.6,6.9l-1.2,2.7h2l2.7,2.4l2.6-0.6
			l2.7,1.2l-0.4-8.9l3.7-6.8l2.5-6.1l-2.4-1.8l0.6-2.5L175.5,126.7z"></path>
		<path d="M38.5,202.1l-0.6,2.4l-0.9,0.4l4.6,2.4l1.8,3.4l5.3,2.2l-1.6,3l0.9,4.9l2.2,0.9l2.6-4.4l3.7-2.9l1.7-3.6l0.1-0.4l-0.5,0.4
			l-7.1-0.3l-6.8-5.2l0.3-2.8L38.5,202.1z"></path>
		<path d="M271.5,30.2l-3.2,1l-9.2-1.1l-1.1-3l-2.9-0.5l0.2-3.7l-3.1-2.7l-0.7-5.4l-11-5.3l-5.6-0.9l-3.3,4.1l-9.8,1.1l-4.3,5.8
			l-5.4-3.6l-1.3,4.4l-0.1,0.1l1.2,2.9l3.5,1.1l0.9,3.5l-0.6,1.3l3.4,4.5l-3.2,4.5l-4.3,2l-0.1,0.9l3.5,1.7l1.8-1.1l5.3,1.9l7.5,0.1
			l0.2,2.7l-6.1,0.9l-1.2,2l-2.1,1.1l1.4,8.2l1.4,1.1v5.3l-1.8,2.3l0.4,1.5l-0.6,4.6l3.7,2.6l7.6,3l2.7-5.7V62l3.7-4l6.8,0.3
			l0.5-2.5l8.7,1.9l-0.5,2.5l8.8-0.1l3.7-17.7l5.6-9.6L271.5,30.2z"></path>
		<path d="M192.5,107.1l16.1-4l2.2-3.3l-2.4-5l2.4-3.3l2.1-0.3l1.7-14.3l-3.3-3.9l-2.6,0.1l-3.3-5.9l-6.4-2l-0.8-1.9l-4.5-2.6
			l-2.7,3.7l0.1,4.8l-2.4,3.9l-4.5-1.2l-0.2-0.4l-1.4,1.7l-3.3,4.2l-6.4-5.9l-4.8-0.6l-0.3,5.2l0.8,3l-1.5,4.5l-0.1,9l-6,0.9l0.3,4
			l1.7,1.3l11.9-2.4l2.6,3.2l-2.5,11.3l-4.5,6.2l5.8,8.8l1.6-1.2l4.2,1.7l0.8-4.2l2.6-0.5l-2-1.3l2.4-2.5l-0.6-2.5l5.6-4.5
			L192.5,107.1z"></path>
		<path d="M108.8,237.2l-1.6-6.7l-0.1,0.2l-5.5-2.4l-1.1,1.1l-4-0.9v-4.6l3.8-1.6l1.7-7.4l-5.6-3.8l-3.5,1l-5.4-4.3L86,205l-4.1-0.4
			l-6.1-5.4l-11.5-1.3l-1.2,8l-3.7,3.4h0.1l-0.2,1.8l-1.9,4l-3.8,3l-2.9,5l-3.7-1.5l-1.1-5.9l1.2-2.2l-4.5-2l-1.9-3.4l-4.4-2.4
			l-13.4,5.6l1,3.4v3l2.7,3.6l1.7,9.4l2.9,0.3l4.5,7.2l2.9-0.2l3-1.2l6.5,7.5l1.8,6.4l7.4,2.5l0.3,6.3l1.5,0.3l4.4-2.1l3.9,0.5
			l5.5-3.5l1,2.5l3.7,0.5l4.3-3.4l1.5,1.4h3.7l4.6-1.6l2.7-1.6l1.2-2.1l-0.5-2.9l3.3-2L108.8,237.2z"></path>
		<path d="M194.1,30.7l-3.8,4l2.1,11.1l1.5,0.7l0.6,5.4l-1,1.7v5.7l5.6,3.2l0.8,1.8l6.2,1.9l3.3,5.8l2.4-0.1l3.4,3.9l3-4.3l2.2-0.4
			l0.2-2.1l-0.4-1.9l1.9-2.3v-4.5l-1.3-1l-1.6-9.4l2.5-1.4l1.3-2.1l5.6-0.9l-0.1-0.6l-6.6-0.1l-5-1.7l-1.9,1.1l-4.7-2.3l0.3-2.3
			l4.6-2.2l2.5-3.5l-3.3-4.5l0.7-1.5l-0.7-2.5l-3.3-1.1l-1.4-3.1l-8.3,6.4l-8-1.4l-3,1l-0.8-0.3l0.6,2.2L194.1,30.7z"></path>
		<path d="M195.1,144.4l1.3-3.9l3.8-5.3l0.1-0.3l-3.7-1.9l-3.9-9.7l-2.1-1.3l-3.7,0.6h-0.1l-3,0.6l-0.9,4.8l-4.8-2l-1.1,0.8h0.1
			l-3.9,3.4l-0.3,1.4l2.4,1.9l-2.8,7l-3.6,6.6l0.5,10.3l-4-1.7l-2.9,0.6l-2.7-2.5h-2l-2.5,12.1l3.2,1.7l-2,13.2l1.6,2.4l5-5l10,2.3
			L184,171l6.7,2.9l9.2-4.7l-0.1-1.4l6.2-6.3l-4.3-6.2l-10-4.5l0.6-3.4L195.1,144.4z"></path>
		<path d="M135.4,205.7l2.4-0.1l5.9-6.4l3.3-0.8l3.9,1l4.7-2.7l2-1.1l-2.4-2l-3.6-1.1l5.5-8.8l-1.7-2.7l1.9-12.7l-3.3-1.8l2.7-12.7
			h-0.2l1.6-3.8l-3.3-6.3l-8.9-12l-5.7,5.1l-1.6,5l-4.8,8l-4.8-0.9l0,0l-8.1-2.7l-3.2-0.1l-2.6,5.7l-11.2,6.3l-8.9-1l-3.1,4.9
			l3.5,0.4l2.1,6.4l-3.3,11.3l-0.1,0.1l-8.6,12h-0.1l-8.6,6.4l5.6,4.9l4.3,0.4l1.7,3.1l4.7,3.8l3.5-0.9l6.7,4.5l-2.1,8.7l-3.6,1.5v3
			l2.6,0.5l1.1-1.1l6.2,2.6v0.1l4.9,1.1l8.6-9l-1.1-2.6l4.5-4.9l-0.4-0.4l3.5-4.7L135.4,205.7z"></path>
		<path d="M163.3,37l-1.2,5.3l1.7,1.7l-3.7,5.1v2.8l7.7-0.3l6.5,5l-0.4,3.2l-3.4,0.3l-1.1,3.7l3.7,3.2l2.7-4.1l4.3,2.9l1.3,3.2
			l1.8-1.3l1.7,3.2l3.3,0.9l1.8-2.9l-0.1-4.9l2.8-3.9l-0.3-0.1v-6.7l0.9-1.6l-0.5-4.4l-1.5-0.8l-2.2-12.2l3.1-3.2l-2.9-1.2l-1-3.4
			l-5-1.5l-7.5,6.8l-9.6-1.4l0.1,4L163.3,37z"></path>
		<path d="M214.5,182.7l-0.4-3.1l-6.1,0.5l-7.9-7.1l-0.1-2.6l-9.2,4.7l-6.6-2.8l-10.8,9.4l-10-2.2l-5.5,5.5l-0.1-0.3l-4.5,7.2
			l2.5,0.7l2.6,2.3l4.2-1.1l2.3,2.1l-0.4,3.1l1.6,1l4.9-1.9l3.7,1.8v0.7l5.3,0.7l6.8-0.2l2.9-4.2l9.7-2.1l3.7-1.9l4.6,2.1l2.4-1.2
			l2.6-3.3l-3-1.8l2.1-5.5L214.5,182.7z"></path>
		<path d="M203.2,194.1l-3.4,1.8l-9.5,2l-2.9,4.3l-7.4,0.3l-6.5-0.9v-1l-2.6-1.2l-4.9,1.8l-2.7-1.6l0.4-3.3l-1.4-1.3l-3.6,1l0.1,0.3
			l-2.6,1.4l-5.2,2.9l-4-1.1l-2.7,0.7l-6,6.6l-2.7,0.1l-7.4,3.2l-2.8,3.7l3.6,0.4l1.7,2.7l5.9-0.4l3.4,2.8l10.9,9.6l9.3-1.3l1.5,3.9
			l-0.2,2.5l10.6-4.9l8.9-3.1l0.1-1.3l7.1-2.9l12.5-1.4l0.7-4.4l6.3-17l-0.7-3L203.2,194.1z"></path>
		<path d="M137.2,41.9l-4,3.8l-3.9,7.9v1.8l-6.9,10l-0.5,3.5l-1.2,2.5l4.4-0.2l4.5-0.5l-1.2,3.6l-3.6,5.4l0.7,0.4l3.8-0.2l4.3,2.3
			l2.2,0.7h0.5l0.3-2.2l5.5-8.2l3.4-0.6l2.3-5.3l7.1,0.6l3.3-4.8l-2.7-1.3l1.2-5.1l2.9-0.9l-0.5-2.1H159v-4.2l3.3-4.7l-1.4-1.5
			l1.4-6.2l2.9-2.5l-0.1-3.6l-10.8-1.5l-2.1-2.5l-3.6-0.5l-3.1,5l-7.8-3.7l-8.5,0.3l-0.2,0.9l6.1,9.8L137.2,41.9z"></path>
		<path class="st0" d="M251.2,115.9l-4,2.7l-6-2.2l-0.6-6.7l3.1-5.7l-7.2-9l2.5-1.6l-0.1-3.1c-0.4-0.3-1.1-0.8-1.9-1.3
			s-1.1-0.8-1.5-1c-0.6-0.5-0.9-0.7-0.8-1.1c-0.2-0.8-1.6-3.8-2.9-6.6l0.1-0.1l-7.6-3L220,74l0.2-1.8l-1.4,0.3l-3,4.4l-1.9,15.3
			l-2.5,0.4l-1.7,2.4l2.4,5l-2.8,4.1l-15.9,4l-1.5,3.6l-5.3,4.2l0.5,2.3l-1.9,2l1.9,1.2l0.5-0.1v0.1l3.2-0.6l2.7,1.7l3.9,9.6
			l3.1,1.6l2.9-8.9l4.8-4.4h10l2.2,4.6l3,2.1l11.7,13.8l5.6-5.9l1.1-3.8l6-11.1l2.6-0.6l2.9,2.5l1.2-1.7l-1.4-2.7l1.4-1.2l0.3-6.1
			L253,110L251.2,115.9z"></path>
		<path class="st0" d="M259.1,84.4l-5.1-2.1l-0.4-7.2L264,75l0.8-2l-2.5-8.9l0.6-2.9l-9.9,0.2l0.6-2.9l-6.5-1.4l-0.5,2.3l-7.2-0.3
			l-3,3.3v11.2l-3.2,6.7c0.3,0.6,0.8,1.7,1.2,2.7c0.6,1.2,1.1,2.4,1.5,3.6c0.5,0.4,2.3,1.7,3.9,2.8l0.2,0.2l0.1,4.3l-2,1.2l6.6,8.3
			l6.1,5.3l4.3,0.3l1.1-3.7l8.2-4.9l-0.1-2.5l2.6-10.4L259.1,84.4z"></path>
		<path d="M150.5,230l-11.3-9.9l-3-2.4l-6.1,0.3l-1.8-2.7l-3-0.4l-4.1,4.5l1.1,2.6l-8.5,9l0.1,0.1l1.1,12.8l1.1,2.1v2.8l1.6,2.3
			l5.2,6.6l9.7-9.3l10.2-4.8l0.9-2.9l9.8-0.4l5.5-5.2l1.3-0.6l0.3-2.9l-1.1-2.7L150.5,230z"></path>
		<path d="M39.8,59.2l0.4,3l2.4,4.2l-1.9,4l0.3,5.1l2.4-1.4l3.6,0.6l-0.7,4.6l0.8,1.7l3.4-1l8.3,2.5l6.7,3.4l8-7.7l0.3-3.3l2.2,0.2
			l0.6,7.5L76,83.4l8.4,1L89,83l5.5,6.9l5-0.9l1.5-2.6l4.7,0.5l4.8-5.9v-1.5l-0.7-2.3l-4.4-1.6l-1.9,2.2l-3.5-2.7l2.5-6.7l-1.2-2.3
			l-1.5-4.3l-7.2-7.7l-0.5-6.8l-5.4,2.1l-8-1.2l-4.3-2.3l-9.6,5.7l-18.1-3.8l-3.3,5.3l-2.7,0.1l-3.9,3.6l-2-0.9l-1.5,0.7l3.6,2.9
			L39.8,59.2z"></path>
		<path d="M100.8,61.2l1.5,4.5l1.4,2.6l-2.3,6.5l1.9,1.5l1.8-2l5.6,2.1l0.6,1.9l0.5-0.3l1.4-5l2.5,0.3l3.6-1.7l1.5-3l0.6-3.6
			l6.8-9.9v-1.8l4.1-8.3l3.5-3.3l-1.7-3l-5.6-8.9l-1.4,4.9l-2.2,0.5l-1.7,4.8l-7.8-0.3l-4.5-0.9l-2.2,2l-15.6,6.1l0.6,6.7
			L100.8,61.2z"></path>
		<path class="st0" d="M21.6,180.1l2.7-1v4l1.9,5.2L25,199l5.8,1.2l0.1,0.1l1.4-4.1l-1.7-1.1v-2.9l3.2-3.2l-1.2-5.7l4.8-2l1.8-3.9
			l7.6,2L60,177l3.7-4c-0.3-0.8-0.4-1.7-0.6-2.6c0-0.3,0-0.7,2.3-1.9l-0.4-2.2l-7.6-2.4l-1.3-2l-3.5,1.6l-8.8-1.4l-1.6-2.4l-4.8-1.7
			l-0.3-2.2l6.7-10l-7.4-2l-0.4,0.1l-5.8,15.7L16,164.9l1.8,9.2L21.6,180.1z"></path>
		<path class="st0" d="M82.3,276.1l1.2-2l0.5-3.2l-2-0.8l-1-4.9l3.4-2.3l2.4-6H83l-1.1-1l-4,3l-4.9-0.6l-0.7-1.9l-4.6,2.9l-4-0.5
			l-4.1,2c-0.9,3.5-2.1,9-2.2,9.8c0.2,0.7,0.9,3.8,1.1,4.4l0,0l0.1,4.4l-2.7,3.6l2.1,4l-3.1,5.6l-0.2,3.5l1.7-1.3l5.4,1.4l3.7,0.8
			l0.8-2.1l3.2,1.4l7.5-7.6l3.1-0.3l2.1-3.1h2.9l2-2.9l-2.1-1L82.3,276.1z"></path>
		<path d="M115,249.2v-2.9l-1.1-2.1v-0.1l-1-12.1l-4.4-0.9l1.5,6.5l-10.9,8.8l-2.8,1.7l0.5,2.5l-1.6,2.7l-3,1.8l-4.2,1.5l-2.8,7
			l-3,2l0.8,3.7l2.3,0.9l-0.7,4.3l-1,1.7l2.2,4.6l1.9,0.9l0.9-1.3l4.6,0.2l9-5.3l2.6-0.3l4.8-5.8l3.5-0.4l6.9-8.4l2-1.9l-5.2-6.8
			L115,249.2z"></path>
		<path class="st0" d="M54.6,283l2.9-3.9l-0.1-3.9c-0.4-1.6-1-4.1-1.1-4.4s-0.1-0.3,1.1-5.5c0.4-1.8,0.8-3.6,1.1-4.5l-2-0.5
			l-0.3-6.4l-7.3-2.5l-1.8-6.7l-5.8-6.6l-2.4,1l-2.5,0.2l0.1,0.1l-3.8,3l-1.6-1.5l-3.6,0.2l-1.7,2.2l-9.7,3.1l-0.5,4.1l3.8,5.1
			l0.3,7l-6.1,4.7l1.1,3l-3.8,2.7l0.7,2.6l-1,11l2.9-0.6l4.1,5l0.9-2.2h4.1l3.2,1.9l2.4,4.1l8.6,5.9l4.6,0.1l0.1-2l6.1-4l5.7,2.5
			l0.4-0.3v-0.9l0.2-3.8l2.9-5.3L54.6,283z"></path>
	</g>
	<g id="bg-white" class="bg-white">
		<path d="M127.2,144.3l4.3,0.8l4.5-7.6l1.7-5l5.8-5.2l0.6-3.4l-5.3-3.5l-0.9-4.2l-6.2-5.2l-1-2.4l2-1.5l0.8-4.6l1.6,0.5l8.4-8.3
			l1.6-2.9l2.1,3.1l6.1,1.8l2.9-3.6l2.5,0.6l-0.3-4.6l-1.1,0.2l-0.9-2.3l1.4-1.3l-0.7-2.6l-3.3,0.5l-4.3-1.8l-3.1,1.7l-1.1,2.2
			l-3.7,3.5l-7.1-8.7l0.2-1h-1l-2.3-0.7l-4.2-2.2l-3.8,0.2l-1.5-0.9l3.9-5.8l0.9-2.7l-3.5,0.5l-5.4,0.2l-4,1.8l-2.1-0.2l-1.4,4.8
			l-1.2,0.6v2.1l-5.2,6.3l-4.5-0.4l-1.5,2.5l-5.7,1l-5.4-6.9L82.5,81l-9.6-1.1l-9.7,12.5l2.3,6.7l4.9-2.7l1.1,2.3l4.3-2.4l5.6,2.2
			l0.2,4.3l5.5-0.9l-0.1,3.5l-2.3,3.7l1.6,3.4l4.2-1l2.3-2.6l1.6,1.3l-1.8,3.7l2,3.7l3.4-1.9l1,3.7l-1.8,5l9,4l-1,5.1l2.3,1.7
			l3.7,0.3l2.5,3.6l0.2,2.3l5.1,0.2L127.2,144.3z"></path>
		<path class="st1" d="M44.7,176.1l-7.2-1.9l-1.7,3.6l-4.5,1.9l1.2,5.6l-3.2,3.2v2.3l1.8,1.2l-1.8,5.3l4.5,3.5l1.5-0.7l0.7-2.6
			l6.9,0.5l-0.3,3l6.3,4.9l6.7,0.2l4.9-4.5l1.3-8.5l12.1,1.4l9.1-6.8l8.6-11.9l3.3-11.1l-1.9-5.9l-4-0.4l-1.4,2.2l-3-2.3l-3.6,3.4
			l-2-0.7l-5.8,2.3l-6.5-0.4l-3.1-1l0.5,2.9H64c-0.7,0.4-1.4,0.8-2.1,1.3l-0.2,0.2v0.3c0.1,0.5,0.4,1.6,0.6,2.5l0,0l-4.1,4.5
			L44.7,176.1z"></path>
		<path d="M101.7,153.5l10.9-6.2l2.7-5.7l-1.5-0.1l-0.3-2.3l-2.3-3.6l-3.7-0.3l-2.5-1.8l1-5.1l-8.9-3.9l1.7-5.1l-0.9-3.5l-3.4,1.9
			l-2.1-3.9l1.9-3.7l-1.5-1.1l-2.2,2.5l-4.4,1.1l-1.6-3.6l2.3-3.8L87,102l-5.6,0.9l-0.2-4.3l-5.3-2.1l-4.4,2.4l-1.1-2.3l-4.8,2.6
			l0.2,0.7l-1.1,8.2l6,10.9l-0.8,3l-6.8,2.1l-7.7-6l-6,7l-3.4-0.3l-6.8-5l-6.5,2.7l4.7,9.5l-2.4,7.4l7.8,2.1L35.7,152l0.3,1.6
			l4.6,1.7l1.6,2.4l8.4,1.3l3.7-1.8l1.5,2.3l10.9,3.3l6.5,0.4l5.9-2.3l1.8,0.8l3.6-3.4l3,2.3l5.1-8.1L101.7,153.5z"></path>
		<path d="M213,20.9l0.7,3.1l-0.6,1.4l3.4,4.4l-2.9,4.1l-4.4,2.1l-0.2,1.5l4,1.9l1.9-1l5,1.8l7.2,0.1l0.1,1.8l-5.8,0.8l-1.3,2.1
			l-2.2,1.2l1.5,8.7l1.3,1.1v5l-1.8,2.2l0.4,1.8l-0.7,4.7l4,2.8l8.1,3.3l3-6.2V58.2l3.4-3.7l7,0.3l0.5-2.4l7.8,1.7l-0.6,2.7l9.8-0.2
			l3.8-18l5.6-9.7l-1.2-3.3l-3.6,1.1l-8.7-1l-1.1-3l-2.7-0.6l0.1-3.5l-3.2-2.7l-0.7-5.4L238.7,5l-6.1-0.9l-3.2,4.1l-9.9,1.1
			l-4.1,5.7l-5.6-3.8l-1.4,4.9l-0.4,0.3l1.6,3.4L213,20.9z"></path>
		<path d="M184.4,114l-0.5-2.4l5.5-4.4l1.5-3.7l16-4l2.5-3.6l-2.4-5l2.1-2.9l2.2-0.4l1.9-14.9l-3.7-4.2l-2.5,0.1l-3.3-5.9l-6.3-1.9
			l-0.8-1.9l-5-2.8l-3.1,4.1l0.1,4.9l-2.1,3.4l-4-1.1l-0.1-0.2l-0.4-0.7l0,0l-1-1.9l-2,1.3l-1.4-3.7l-3.6-2.5l-2.7,4.3l-4.6-4
			l1.3-4.4l3.3-0.4l0.3-2.3l-6-4.6l-8,0.2l0.8,3l-3.2,1l-1,4.3l3,1.3l-4,5.7l-7-0.5l-2.2,5.2l-3.5,0.6l-5.3,7.8l-0.6,3.6l7.1,8.5
			l3.4-3.3l1.2-2.3l3.2-1.8l4.4,1.9l3.2-0.5l0.8,2.8l-1.4,1.3l0.9,2.1l6.9-1.1l0.1-8.6l1.6-4.4l-0.8-2.9l0.3-6l5.7,0.7l6,5.6
			l2.9-3.7l1.1-1.4l0.1,0.1l-4.1,5.2l-6.1-5.7l-5.5-0.6l-0.3,5.7l0.8,3l-1.5,4.4l-0.1,8.7l-6,0.9l0.3,4.6l2,1.7l11.9-2.4l2.3,2.7
			l-2.5,11L168,113l6.2,9.6l1.8-1.4l4.4,1.9l0.9-4.5l3.5-0.6l-2.6-1.7L184.4,114z"></path>
		<path d="M191.3,26.9l-3.6,3.6l2.2,11.6l1.5,0.8l0.6,4.9l-1,1.6v6.2l5.8,3.2l0.7,1.9l6.3,1.9l3.3,5.9l2.5-0.1l3.6,4.2l3.3-4.6
			l2.3-0.5l0.3-2.5l-0.4-1.8l1.9-2.3v-4.8l-1.3-1.1l-1.6-8.9l2.3-1.2l1.4-2.1l5.7-0.8l-0.1-1.6l-7-0.1l-5.1-1.8l-1.9,1.1l-4.2-2
			l0.2-1.7l4.5-2.1l2.8-4l-3.4-4.4l0.7-1.4l-0.7-3l-3.4-1.1l-1.6-3.4l-8.6,6.6l-8-1.4l-2.9,1l-1.6-0.5l1,3.2L191.3,26.9z"></path>
		<path d="M193.6,140.7l1.3-3.9l3.7-5.3l0.3-0.9l-3.9-2l-3.9-9.6l-2.4-1.5l-3.7,0.6h-0.1l-3.5,0.7l-0.9,4.5l-4.5-1.9l-1.3,1
			l-0.3,0.4l0,0l-3.6,3.1l-0.5,1.9l2.4,1.9l-2.6,6.5l-3.7,6.8l0.5,9.6l-3.5-1.4l-2.7,0.5l-2.7-2.4h-2.6l-2.7,12.9l3.3,1.7l-2,13
			l2,3.1l5.2-5.2l10,2.2l10.9-9.4l6.7,2.8l9.6-4.9l-0.1-1.5l6.4-6.5l-4.7-6.6l-9.7-4.4l0.4-2.9L193.6,140.7z"></path>
		<path d="M160.9,32.7l-1.3,5.7l1.5,1.7l-3.5,4.9v3.4l8-0.2l6.2,4.7l-0.4,2.5l-3.3,0.3l-1.2,4.3l4.3,3.8l2.7-4.3l3.8,2.6l1.4,3.7
			l2-1.4l1.5,2.9l3.8,1.1l2.1-3.3l-0.1-4.9l3.1-4.2l-0.6-0.3v-6.3l0.9-1.6l-0.5-4.9l-1.5-0.7l-2.2-11.7l3.4-3.6l-3.3-1.4l-1-3.4
			l-5.5-1.6l-7.6,6.7l-9.9-1.3l0.1,4.3L160.9,32.7z"></path>
		<path d="M213.1,179.1l-0.6-4l-6.3,0.5l-7.6-6.9l-0.2-3.1l-9.6,5l-6.7-2.9l-10.8,9.5l-10-2.3l-5.3,5.3l-0.2-0.4l-5.2,8.4l2.9,0.8
			l2.7,2.4l4.3-1.1l1.9,1.8l-0.4,3.1l2.1,1.3l4.9-1.8l3.2,1.5v0.9l5.8,0.7l7-0.2l3-4.2l9.5-2.1l3.6-1.8l4.6,2.1l2.6-1.4l3.1-3.9
			l-3.1-1.8l1.8-4.9L213.1,179.1z"></path>
		<path class="st1" d="M201.2,189.6l-3.6,1.8l-9.6,2.1l-2.9,4.2L178,198l-6-0.8v-0.9l-3-1.5l-4.9,1.9l-2.2-1.3l0.4-3.2l-1.8-1.7
			l-4.2,1.1l-2.6-2.3l-3.2-1l5.3-8.6L154,177l2-12.9l-3.3-1.7l2.7-12.9l0,0l1.4-3.3l-3.5-6.6l-9.1-12.3l0.1-0.1l9.1,12.3l3.5,6.7
			l-1.4,3.2h2.4l2.7,2.4l2.7-0.5l3.3,1.4l-0.4-9.5l3.7-6.8l2.6-6.5l-2.4-1.8l0.5-2l3.5-3l-6.4-9.8l4.5-6.4l2.5-10.9l-2.2-2.7
			l-11.9,2.4l-2-1.6l-2.6-0.7l-2.9,3.6l-6.2-1.8l-2-3l-1.5,2.6l-8.5,8.4l-1.6-0.4l-0.8,4.5l-1.9,1.4l1,2.3l6.2,5.2l0.9,4.1l5.3,3.5
			l-0.6,3.5l-5.8,5.2l-1.6,5l-4.6,7.7l-4.4-0.8l-8.1-2.7l-3.7-0.2l-2.7,5.8l-10.9,6.2l-9.1-1l-3.7,5.8l4,0.4l2,6l-3.2,11L83,187.6
			l-9.2,6.9l6.2,5.3l4.2,0.4l1.6,2.9l5.1,4.1l3.5-1l6.2,4.2l-1.9,8.1l-3.7,1.6v3.7l3.2,0.7l1.1-1.1l5.4,2.3v0.1l-5.4-2.3l-1.1,1.1
			l-3.4-0.7V220l3.7-1.6l1.9-8l-6.1-4.1l-3.5,1l-5.1-4.1l-1.6-3l-4.2-0.4l-6.2-5.3l-12.1-1.4l-1.3,8.4l-3.6,3.3l-0.2,0.2l0,0
			l-1.2,1.1l-6.8-0.3l-6.4-5l0.3-3l-6.6-0.5l-0.6,2.6l-1.6,0.7l5.3,2.9L41,207l5,2.1l-1.4,2.6l1,5.4l2.9,1.1l2.7-4.6l3.7-2.9
			l1.9-3.7l0.1-1.3H57l-0.1,1.2l-1.8,3.8l-3.7,2.9l-2.8,4.8l-3.1-1.2l-1.1-5.5l1.4-2.5l-4.9-2l-1.8-3.4l-4.8-2.6l-14,5.8l1.2,3.8
			v3.1l2.7,3.6l1.7,9.7l3.1,0.3l4.5,7.3l3.2-0.2l2.8-1.1l6.2,7.1l1.8,6.5l7.4,2.5l0.3,6.4l2,0.5l4.5-2.2l4,0.5l5.1-3.2l0.8,2.2
			l4.2,0.5l4.2-3.2l1.3,1.2h3.9l4.8-1.7l2.8-1.6l1.4-2.4l-0.5-2.7l3.1-1.9l10.6-8.5l-1.7-7.1l5,1.1l8.9-9.4l-1.1-2.6l4.6-5l3.6,0.4
			l1.7,2.7l6-0.3l3.2,2.6l11.1,9.7l9.2-1.2l1.3,3.3l-0.3,3.3l11.3-5.2l9.3-3.2l0.1-1.4l6.7-2.7l12.8-1.5l0.8-4.7l6.3-17.2l-0.8-3.4
			L201.2,189.6z M122.6,209.8l3.2-4.2l7.7-3.4l2.5-0.1l6-6.5l3.1-0.8l3.9,1.1l5-2.9l2.2-1.1l0.1,0.1l-2.2,1.2l-5,2.9L145,195l-3,0.8
			l-6,6.5l-2.4,0.1l-7.7,3.4L122.6,209.8L122.6,209.8z"></path>
		<path d="M134.6,37.8l-3.7,3.6l-4.1,8v1.9l-6.8,9.9l-0.6,3.6l-1.6,3.2l5.4-0.3l3.7-0.4l-1,2.8l-3.8,5.7l1.3,0.8l3.8-0.2l4.3,2.2
			l2.1,0.8h1.1l0.4-2.5l5.3-8l3.5-0.5l2.2-5.2l7.1,0.5l3.8-5.6l-2.9-1.2l1-4.5l3.1-1l-0.7-2.9l0,0v-3.6l3.4-4.8l-1.5-1.7l1.3-5.8
			l3-2.5l-0.2-4.2l-11-1.6l-2-2.5l-4.1-0.6l-3.1,4.9l-7.5-3.5l-9,0.3l-0.4,1.5l6.3,10L134.6,37.8z"></path>
		<path class="st1" d="M257.3,79.9l-4.8-1.9l-0.3-6.4l10.2-0.2l1-2.4l-2.5-8.9l0.7-3.4l-9.9,0.2l0.5-2.7l-7.5-1.6l-0.5,2.4l-7-0.3
			l-3.3,3.6v11.3l-3.1,6.4l-8.2-3.3l-4.1-2.9l0.3-2.1l-2.2,0.4l-3.2,4.6l-1.9,15l-2.3,0.3l-2,2.8l2.4,5l-2.5,3.8l-16,4l-1.5,3.7
			l-5.5,4.4l0.5,2.4l-2.1,2.2l2.5,1.6h0.2v0.1l3.5-0.6l2.4,1.5l3.9,9.7l3.8,2l3.1-9.3l4.5-4.2h9.5l2.1,4.4l3.1,2.1l12,14.1l6-6.4
			l1.1-3.8l5.9-10.9l2.1-0.5l3.1,2.7l1.6-2.4l-1.4-2.6l1.3-1.1l0.4-6.8l-2.7-0.2l-1.9,6l-3.6,2.4l-5.5-2l-0.5-6.3l3.1-5.9l-7.1-8.8
			l2.3-1.4l-0.1-3.6L237,86c-0.4-0.3-1.1-0.8-1.9-1.3s-1.1-0.8-1.4-1s-0.6-0.5-0.7-0.6V83v-0.1c-0.2-0.8-1.5-3.6-2.7-6.2l0.1-0.1
			l0.1,0.2c0.3,0.6,0.8,1.7,1.2,2.7c0.6,1.1,1,2.3,1.4,3.5v0l0.1,0.1c0.6,0.5,2.4,1.8,3.9,2.8l0.1,3.8l-2.2,1.4l7,8.8l6.3,5.4
			l4.8,0.4l1.2-3.9l8.3-4.9l-0.1-2.7l2.7-10.8L257.3,79.9z"></path>
		<path d="M157.8,224.3l-9.1,1.2l-11.2-9.7l-3.1-2.6l-6.1,0.3l-1.7-2.7l-3.5-0.4l-4.5,4.9l1.1,2.6l-8.9,9.4l0.6,0.2l1.1,12.4
			l1.1,2.2v2.9l1.7,2.4l5.5,7.1l10.1-9.7l10.3-4.9l0.8-2.7l9.7-0.4l5.6-5.3l1.5-0.6l0.3-3.4L157.8,224.3z"></path>
		<path d="M37.3,55.7l0.4,2.6l2.3,4.1l-1.9,3.9l0.5,6.1l2.9-1.8l3,0.5l-0.7,4.3l1.1,2.2l3.6-1.1l8.1,2.5l7,3.5l8.4-8.1l0.3-3
			l1.2,0.2l0.6,6.9L73,79.8l9.5,1.1l4.4-1.3l5.4,6.8l5.5-0.9l1.5-2.5l4.6,0.4l5.1-6.3v-1.6l-0.8-2.6l-4.9-1.9l-1.9,2.1L98.6,71
			l2.4-6.7L99.7,62l-1.5-4.4l-7.1-7.7l-0.6-7.3l-5.8,2.3l-7.8-1.2l-4.5-2.4l-9.7,5.8l-18.3-3.8l-3.2,5.3l-2.8,0.2l-3.7,3.4l-1.9-0.8
			l-2.5,1l4.4,3.6L37.3,55.7z"></path>
		<path d="M98.3,57.4l1.6,4.5l1.2,2.4l-2.3,6.6l2.6,2l1.8-2l5.1,1.9L109,75l1.2-0.6l1.4-4.8l2.2,0.2l3.9-1.8l1.6-3.2l0.5-3.7
			l6.9-9.9v-1.8l4-8.1l3.7-3.5l-1.8-3.4l-6.2-9.9l-1.7,5.8l-2.2,0.5l-1.6,4.7l-7.4-0.3l-4.8-1l-2.2,2.2l-15.9,6.2l0.6,7.2L98.3,57.4
			z"></path>
		<path class="st1" d="M19.4,176.8l2.4-0.9v3.2l1.9,5.3l-1.2,11l6.1,1.2l0.6,0.5l1.7-5.1l-1.8-1.2v-2.4l3.2-3.2l-1.2-5.6l4.6-2
			l1.7-3.6l7.3,2l13.6-2.5l4-4.4l-0.1-0.3c-0.3-0.8-0.4-1.6-0.6-2.4c0-0.2,0.8-0.8,2-1.4l0.3-0.2l-0.5-2.9l-7.8-2.4l-1.4-2.2
			l-3.7,1.7l-8.5-1.3l-1.6-2.3l-4.7-1.7l-0.3-1.8l7-10.5l-8.2-2.2l-0.8,0.1l-5.8,15.8l-14.4,5.3l1.9,9.6L19.4,176.8z"></path>
		<path class="st1" d="M80.9,272.1l1.1-1.7l0.6-3.8l-2.2-0.9l-0.9-4.4l3.2-2.2l2.7-6.9h-4.3l-1.3-1.2l-4.1,3.2l-4.3-0.5l-0.8-2.1
			l-5,3.1l-4-0.5l-4.4,2.2l-0.1,0.2c-0.7,3-2.1,9-2.2,9.8v0.1v0.1c0.2,0.7,0.9,3.9,1.1,4.4l0.1,4.2l-2.8,3.8l2.1,4l-2.9,5.4
			l-0.3,4.8l2.4-1.7l5.2,1.4l4.1,0.9l0.8-2l3.1,1.3l7.6-7.7l3.2-0.3l2-3h2.9l2.5-3.6l-2.5-1.2L80.9,272.1z"></path>
		<path d="M113.5,245v-2.9l-1.1-2l-1.1-12.5l-5.5-1.2l1.7,7L96.8,242l-3,1.9l0.5,2.6l-1.4,2.4l-2.9,1.7l-4.4,1.6l-2.8,7.1l-3.1,2.1
			l0.8,4.2l2.2,0.9l-0.6,3.9l-1,1.7l2.3,5l2.5,1.2l1-1.4l4.4,0.3l9.1-5.4l2.6-0.3l4.9-5.9l3.4-0.3l7-8.5l2.4-2.3l-5.5-7.1L113.5,245
			z"></path>
		<path class="st1" d="M55.3,283.1l-2.1-4l2.8-3.8l-0.1-4.1v-0.1c-0.1-0.4-1-4.1-1.1-4.4s0.5-2.7,1.1-5.2c0.4-1.8,0.8-3.6,1-4.5
			l0.1-0.5l-2-0.5l-0.3-6.4l-7.3-2.5l-1.8-6.5l-6.1-7.1l-2.6,1.1l-3.3,0.2l0.3,0.4l-3.1,2.4l-1.5-1.4l-4,0.2l-1.8,2.2l-9.9,3.2
			l-0.6,4.6l3.8,5.2l0.2,6.6l-6.2,4.7l1.1,3l-3.8,2.7l0.8,2.9l-1,11.5l3.2-0.7l4.5,5.4l1.1-2.7h3.6l3,1.8l2.4,4l8.9,6.2l5.2,0.1
			l0.1-2.2l5.7-3.7l5.7,2.5l0.9-0.6l0.2-4.8L55.3,283.1z"></path>
	</g>
	<path id="castrodeaire" d="M71.8,98l4-2.2l6,2.4l0.2,4l5.6-0.9l-0.1,4.2l-2.2,3.7l1.3,2.8l3.6-1l2.6-2.7l2.3,1.8l-2,3.8l1.7,3.1
		l3.5-2.1l1.2,4.5l-1.6,4.8l8.8,3.8l-1,5.3l2,1.4l3.8,0.3l2.6,4l0.2,1.9l4.8,0.2l8.2,2.7l4,0.7l4.3-7.2l1.6-5.1l5.8-5.2l0.5-2.9
		l-5.2-3.4l-0.8-4.2l-6.2-5.2l-1.2-2.9l2.1-1.5l0.8-5l2,0.5l8.2-8.1l1.9-3.4l2.5,3.6l5.5,1.6l2.9-3.6l2.1,0.6l-0.2-3.4l-0.9,0.2
		l-1.2-3l1.4-1.3l-0.5-1.9l-2.9,0.5l-4.3-1.8l-2.7,1.5l-1.1,2.1l-4.1,4l-7.6-9.3l0.1-0.7h-0.5l-2.4-0.8l-4.1-2.1l-3.9,0.2l-2-1.3
		l4.2-6.2L126,68l-2.8,0.4l-5.3,0.2l-4,1.8l-1.9-0.1l-1.3,4.5l-1.1,0.6v2l-5.4,6.7l-4.6-0.5L98.2,86L92,87.1l-5.4-6.8l-4.1,1.2
		l-9.3-1.1l-9.5,12.1l2.1,5.9l4.9-2.7L71.8,98z" data-municipality-id="302" data-title="Castro de Aire"><title>Castro de Aire</title></path>
	<path id="vouzela" class="st2" d="M29.7,190.5l1.9,1.2l-1.8,5.3l4,3.1l1-0.5l0.7-2.8l7.8,0.6l-0.3,3.2l6,4.6l6.3,0.2l4.6-4.2
		l1.4-8.8l12.4,1.5l9-6.7l8.4-11.8l3.2-10.8l-1.8-5.5l-3.4-0.3l-1.5,2.4l-3.1-2.4l-3.6,3.3l-1.9-0.8l-5.7,2.3l-6.7-0.4l-2.4-0.7
		l0.4,2.4l-0.4,0.2c-0.7,0.3-1.4,0.7-2,1.2c0.1,0.4,0.4,1.5,0.6,2.4l0.1,0.3l-4.4,4.8l-13.9,2.5l-6.9-1.9l-1.6,3.4l-4.3,1.9l1.1,5.4
		l-3.3,3.3L29.7,190.5z" data-municipality-id="291" data-title="Vouzela"><title>Vouzela</title></path>
	<path id="saopedrodosul" d="M43.6,141.2l-7.4,10.9l0.2,1.2l4.5,1.6l1.6,2.3l8,1.2l4-1.8l1.6,2.4l10.8,3.4l6.2,0.3l6-2.3l1.7,0.7
		l3.7-3.5l2.9,2.3l1.2-2l0,0l0,0l3.8-6l9.2,1.1l10.6-6l2.3-5h-1.2l-0.3-2.6l-2.1-3.3l-3.6-0.3l-2.8-2l0.9-5.1l-8.9-3.9l1.8-5.5
		l-0.7-2.7l-3.3,1.9l-2.4-4.6l1.7-3.5l-0.7-0.6l-2.1,2.2l-4.8,1.3l-2-4.2l2.4-3.9l0.1-2.6l-5.5,0.9L80.7,99l-4.8-2l-4.7,2.6l-1-2.3
		l-4,2.2l0.1,0.4l-1.1,8.1l6.1,10.9l-0.9,3.5l-7.4,2.3l-7.5-5.9l-5.9,6.8l-3.7-0.3l-6.8-4.9l-5.7,2.4l4.5,9.2l-2.3,7.1L43.6,141.2z" data-municipality-id="283" data-title="São Pedro do Sul"><title>São Pedro do Sul</title></path>
	<path id="tarouca" d="M154.8,56.5l3.2,1.4l-4.5,6.5l-7-0.6l-2.2,5.2l-3.5,0.5l-5.1,7.6l-0.5,3.3l6.5,7.9l3.1-3l1.1-2.2l3.6-2
		l4.4,1.9l3.6-0.6l1,3.5l-1.4,1.3l0.6,1.4l6.1-0.9l0.1-8.2l1.5-4.4l-0.7-2.9l0.4-6.6l6.3,0.8l5.8,5.4l2.5-3.3l1.4-1.8l0.8,0.5
		l-1.1-1.8l-2,1.3l-1.6-4.2l-3.1-2.1l-2.7,4.3l-5.3-4.6l1.6-5l3.2-0.3l0.2-1.7l-5.7-4.3l-7.2,0.2l0.8,2.9l-3.4,1L154.8,56.5z" data-municipality-id="287" data-title="Tarouca"><title>Tarouca</title></path>
	<path id="vilanovadepaiva" d="M173.5,122.7l-6.3-9.7l4.7-6.6l2.4-10.5l-1.9-2.2L160.6,96l-2.1-1.7l-2.1-0.5l-2.9,3.6l-6.6-1.9
		l-1.7-2.5l-1.1,2l-8.8,8.7l-1.3-0.4l-0.8,4.2l-1.7,1.3l0.7,1.8l6.3,5.3l0.8,4.1l5.5,3.5l-0.5,2.8l0,0l9.5,12.8l3.6,6.9l-1.2,2.7h2
		l2.7,2.4l2.6-0.6l2.7,1.2l-0.4-8.9l3.7-6.8l2.5-6.1l-2.4-1.8l0.6-2.5L173.5,122.7z" data-municipality-id="289" data-title="Vila Nova de Paiva"><title>Vila Nova de Paiva</title></path>
	<path id="saojoaodapesqueira" d="M209.9,19.4l3.5,1.1l0.9,3.5l-0.6,1.3l3.4,4.5l-3.2,4.5l-4.3,2l-0.1,0.9l3.5,1.7l1.8-1.1l5.3,1.9
		l7.5,0.1l0.2,2.7l-6.1,0.9l-1.2,2l-2.1,1.1l1.4,8.2l1.4,1.1v5.3l-1.8,2.3l0.4,1.5l-0.6,4.6l3.7,2.6l7.6,3l2.7-5.7V58l3.7-4l6.8,0.3
		l0.5-2.5l8.7,1.9l-0.5,2.5l8.8-0.1l3.7-17.7l5.6-9.6l-1-2.6l-3.2,1l-9.2-1.1l-1.1-3l-2.9-0.5l0.2-3.7l-3.1-2.7l-0.7-5.4l-11-5.3
		l-5.6-0.9l-3.3,4.1l-9.8,1.1l-4.3,5.8l-5.4-3.6l-1.3,4.4l-0.1,0.1L209.9,19.4z" data-municipality-id="281" data-title="São João da Pesqueira"><title>São João da Pesqueira</title></path>
	<path id="moimentadabeira" d="M190.5,103.1l16.1-4l2.2-3.3l-2.4-5l2.4-3.3l2.1-0.3l1.7-14.3l-3.3-3.9l-2.6,0.1l-3.3-5.9l-6.4-2
		l-0.8-1.9l-4.5-2.6l-2.7,3.7l0.1,4.8l-2.4,3.9l-4.5-1.2l-0.2-0.4l-1.4,1.7l-3.3,4.2l-6.4-5.9l-4.8-0.6l-0.3,5.2l0.8,3l-1.5,4.5
		l-0.1,9l-6,0.9l0.3,4l1.7,1.3l11.9-2.4l2.6,3.2l-2.5,11.3l-4.5,6.2l5.8,8.8l1.6-1.2l4.2,1.7l0.8-4.2l2.6-0.5l-2-1.3l2.4-2.5
		l-0.6-2.5l5.6-4.5L190.5,103.1z" data-municipality-id="303" data-title="Moimenta da Beira"><title>Moimenta da Beira</title></path>
	<path id="tondela" d="M106.8,233.2l-1.6-6.7l-0.1,0.2l-5.5-2.4l-1.1,1.1l-4-0.9v-4.6l3.8-1.6l1.7-7.4l-5.6-3.8l-3.5,1l-5.4-4.3
		L84,201l-4.1-0.4l-6.1-5.4l-11.5-1.3l-1.2,8l-3.7,3.4h0.1l-0.2,1.8l-1.9,4l-3.8,3l-2.9,5l-3.7-1.5l-1.1-5.9l1.2-2.2l-4.5-2
		l-1.9-3.4l-4.4-2.4l-13.4,5.6l1,3.4v3l2.7,3.6l1.7,9.4l2.9,0.3l4.5,7.2l2.9-0.2l3-1.2l6.5,7.5l1.8,6.4l7.4,2.5l0.3,6.3l1.5,0.3
		l4.4-2.1l3.9,0.5l5.5-3.5l1,2.5l3.7,0.5l4.3-3.4l1.5,1.4h3.7l4.6-1.6l2.7-1.6l1.2-2.1l-0.5-2.9l3.3-2L106.8,233.2z" data-municipality-id="288" data-title="Tondela"><title>Tondela</title></path>
	<path id="tabuaco" d="M188.2,25.1l3.9,1.6l-3.8,4l2.1,11.1l1.5,0.7l0.6,5.4l-1,1.7v5.7l5.6,3.2l0.8,1.8l6.2,1.9l3.3,5.8l2.4-0.1
		l3.4,3.9l3-4.3l2.2-0.4l0.2-2.1l-0.4-1.9l1.9-2.3v-4.5l-1.3-1l-1.6-9.4l2.5-1.4l1.3-2.1l5.6-0.9l-0.1-0.6l-6.6-0.1l-5-1.7l-1.9,1.1
		l-4.7-2.3l0.3-2.3l4.6-2.2l2.5-3.5l-3.3-4.5l0.7-1.5l-0.7-2.5l-3.3-1.1l-1.4-3.1l-8.3,6.4l-8-1.4l-3,1l-0.8-0.3L188.2,25.1z" data-municipality-id="286" data-title="Tabuaço"><title>Tabuaço</title></path>
	<path id="satao" d="M193.1,140.4l1.3-3.9l3.8-5.3l0.1-0.3l-3.7-1.9l-3.9-9.7l-2.1-1.3l-3.7,0.6h-0.1l-3,0.6l-0.9,4.8l-4.8-2
		l-1.1,0.8h0.1l-3.9,3.4l-0.3,1.4l2.4,1.9l-2.8,7l-3.6,6.6l0.5,10.3l-4-1.7l-2.9,0.6l-2.7-2.5h-2l-2.5,12.1l3.2,1.7l-2,13.2l1.6,2.4
		l5-5l10,2.3L182,167l6.7,2.9l9.2-4.7l-0.1-1.4l6.2-6.3l-4.3-6.2l-10-4.5l0.6-3.4L193.1,140.4z" data-municipality-id="284" data-title="Sátão"><title>Sátão</title></path>
	<path id="viseu" d="M133.4,201.7l2.4-0.1l5.9-6.4l3.3-0.8l3.9,1l4.7-2.7l2-1.1l-2.4-2l-3.6-1.1l5.5-8.8l-1.7-2.7l1.9-12.7l-3.3-1.8
		l2.7-12.7h-0.2l1.6-3.8l-3.3-6.3l-8.9-12l-5.7,5.1l-1.6,5l-4.8,8l-4.8-0.9l0,0l-8.1-2.7l-3.2-0.1l-2.6,5.7l-11.2,6.3l-8.9-1
		l-3.1,4.9l3.5,0.4l2.1,6.4l-3.3,11.3l-0.1,0.1l-8.6,12h-0.1l-8.6,6.4l5.6,4.9l4.3,0.4l1.7,3.1l4.7,3.8l3.5-0.9l6.7,4.5l-2.1,8.7
		l-3.6,1.5v3l2.6,0.5l1.1-1.1l6.2,2.6v0.1l4.9,1.1l8.6-9l-1.1-2.6l4.5-4.9l-0.4-0.4l3.5-4.7L133.4,201.7z" data-municipality-id="290" data-title="Viseu"><title>Viseu</title></path>
	<path id="armamar" d="M164.3,30.4l-3,2.6l-1.2,5.3l1.7,1.7l-3.7,5.1v2.8l7.7-0.3l6.5,5l-0.4,3.2l-3.4,0.3l-1.1,3.7l3.7,3.2l2.7-4.1
		l4.3,2.9l1.3,3.2l1.8-1.3l1.7,3.2l3.3,0.9l1.8-2.9l-0.1-4.9l2.8-3.9l-0.3-0.2v-6.6l0.9-1.6l-0.5-4.4l-1.5-0.8l-2.2-12.2l3.1-3.2
		l-2.9-1.2l-1-3.4l-5-1.5l-7.5,6.8l-9.6-1.4L164.3,30.4z" data-municipality-id="304" data-title="Armamar"><title>Armamar</title></path>
	<path id="penalvadocastelo" d="M212.5,178.7l-0.4-3.1l-6.1,0.5l-7.9-7.1l-0.1-2.6l-9.2,4.7l-6.6-2.8l-10.8,9.4l-10-2.2l-5.5,5.5
		l-0.1-0.3l-4.5,7.2l2.5,0.7l2.6,2.3l4.2-1.1l2.3,2.1l-0.4,3.1l1.6,1l4.9-1.9l3.7,1.8v0.7l5.3,0.7l6.8-0.2l2.9-4.2l9.7-2.1l3.7-1.9
		l4.6,2.1l2.4-1.2l2.6-3.3l-3-1.8l2.1-5.5L212.5,178.7z" data-municipality-id="278" data-title="Penalva do Castelo"><title>Penalva do Castelo</title></path>
	<path id="mangualde" d="M201.2,190.1l-3.4,1.8l-9.5,2l-2.9,4.3l-7.4,0.3l-6.5-0.9v-1l-2.6-1.2l-4.9,1.8l-2.7-1.6l0.4-3.3l-1.4-1.3
		l-3.6,1l0.1,0.3l-2.6,1.4l-5.2,2.9l-4-1.1l-2.7,0.7l-6,6.6l-2.7,0.1l-7.4,3.2l-2.8,3.7l3.6,0.4l1.7,2.7l5.9-0.4l3.4,2.8l10.9,9.6
		l9.3-1.3l1.5,3.9l-0.2,2.5l10.6-4.9l8.9-3.1l0.1-1.3l7.1-2.9l12.5-1.4l0.7-4.4l6.3-17l-0.7-3L201.2,190.1z" data-municipality-id="305" data-title="Mangualde"><title>Mangualde</title></path>
	<path id="lamego" d="M133.1,34.1l2.1,3.8l-4,3.8l-3.9,7.9v1.8l-6.9,10l-0.5,3.5l-1.2,2.5l4.4-0.2l4.5-0.5l-1.2,3.6l-3.6,5.4
		l0.7,0.4l3.8-0.2l4.3,2.3l2.2,0.7h0.5l0.3-2.2l5.5-8.2l3.4-0.6l2.3-5.3l7.1,0.6l3.3-4.8l-2.7-1.3l1.2-5.1l2.9-0.9l-0.5-2.1H157
		v-4.2l3.3-4.7l-1.4-1.5l1.4-6.2l2.9-2.5l-0.1-3.6l-10.8-1.5l-2.1-2.5l-3.6-0.5l-3.1,5l-7.8-3.7l-8.5,0.3l-0.2,0.9L133.1,34.1z" data-municipality-id="306" data-title="Lamego"><title>Lamego</title></path>
	<path id="sernancelhe" class="st2" d="M252.9,106.2l-1.9-0.1l-1.8,5.8l-4,2.7l-6-2.2l-0.6-6.7l3.1-5.7l-7.2-9l2.5-1.6l-0.1-3.1
		c-0.4-0.3-1.1-0.8-1.9-1.3s-1.1-0.8-1.5-1c-0.6-0.5-0.9-0.7-0.8-1.1c-0.2-0.8-1.6-3.8-2.9-6.6l0.1-0.1l-7.6-3L218,70l0.2-1.8
		l-1.4,0.3l-3,4.4l-1.9,15.3l-2.5,0.4l-1.7,2.4l2.4,5l-2.8,4.1l-15.9,4l-1.5,3.6l-5.3,4.2l0.5,2.3l-1.9,2l1.9,1.2l0.5-0.1v0.1
		l3.2-0.6l2.7,1.7l3.9,9.6l3.1,1.6l2.9-8.9l4.8-4.4h10l2.2,4.6l3,2.1l11.7,13.8l5.6-5.9l1.1-3.8l6-11.1l2.6-0.6l2.9,2.5l1.2-1.7
		l-1.4-2.7l1.4-1.2L252.9,106.2z" data-municipality-id="285" data-title="Sernancelhe"><title>Sernancelhe</title></path>
	<path id="penedono" class="st2" d="M257.1,80.4l-5.1-2.1l-0.4-7.2L262,71l0.8-2l-2.5-8.9l0.6-2.9l-9.9,0.2l0.6-2.9l-6.5-1.4
		l-0.5,2.3l-7.2-0.3l-3,3.3v11.2l-3.2,6.7c0.3,0.6,0.8,1.7,1.2,2.7c0.6,1.2,1.1,2.4,1.5,3.6c0.5,0.4,2.3,1.7,3.9,2.8l0.2,0.2
		l0.1,4.3l-2,1.2l6.6,8.3l6.1,5.3l4.3,0.3l1.1-3.7l8.2-4.9l-0.1-2.5l2.6-10.4L257.1,80.4z" data-municipality-id="279" data-title="Penedono"><title>Penedono</title></path>
	<path id="nelas" d="M158.6,227.6l-1.1-2.7l-9,1.1l-11.3-9.9l-3-2.4l-6.1,0.3l-1.8-2.7l-3-0.4l-4.1,4.5l1.1,2.6l-8.5,9l0.1,0.1
		l1.1,12.8l1.1,2.1v2.8l1.6,2.3l5.2,6.6l9.7-9.3l10.2-4.8l0.9-2.9l9.8-0.4l5.5-5.2l1.3-0.6L158.6,227.6z" data-municipality-id="276" data-title="Nelas"><title>Nelas</title></path>
	<path id="cinfaes" d="M37.8,55.2l0.4,3l2.4,4.2l-1.9,4l0.3,5.1l2.4-1.4l3.6,0.6l-0.7,4.6l0.8,1.7l3.4-1l8.3,2.5l6.7,3.4l8-7.7
		l0.3-3.3l2.2,0.2l0.6,7.5L74,79.4l8.4,1L87,79l5.5,6.9l5-0.9l1.5-2.6l4.7,0.5l4.8-5.9v-1.5l-0.7-2.3l-4.4-1.6l-1.9,2.2L98,71.1
		l2.5-6.7l-1.2-2.3l-1.5-4.3l-7.2-7.7l-0.5-6.8l-5.4,2.1l-8-1.2l-4.3-2.3l-9.6,5.7l-18.1-3.8l-3.3,5.3l-2.7,0.1l-3.9,3.6l-2-0.9
		l-1.5,0.7l3.6,2.9L37.8,55.2z" data-municipality-id="307" data-title="Cinfães"><title>Cinfães</title></path>
	<path id="resende" d="M91.7,49.6l7.1,7.6l1.5,4.5l1.4,2.6l-2.3,6.5l1.9,1.5l1.8-2l5.6,2.1l0.6,1.9l0.5-0.3l1.4-5l2.5,0.3l3.6-1.7
		l1.5-3l0.6-3.6l6.8-9.9v-1.8l4.1-8.3l3.5-3.3l-1.7-3l-5.6-8.9l-1.4,4.9l-2.2,0.5l-1.7,4.8l-7.8-0.3l-4.5-0.9l-2.2,2l-15.6,6.1
		L91.7,49.6z" data-municipality-id="280" data-title="Resende"><title>Resende</title></path>
	<g id="oliveiradefrades" data-municipality-id="277" data-title="Oliveira de Frades">
		<path d="M41.4,206.7l5.3,2.2l-1.6,3l0.9,4.9l2.2,0.9l2.6-4.4l3.7-2.9l1.7-3.6l0.1-0.4l-0.5,0.4l-7.1-0.3l-6.8-5.2l0.3-2.8
			l-5.7-0.4l-0.6,2.4l-0.9,0.4l4.6,2.4L41.4,206.7z"></path>
		<path class="st2" d="M19.6,176.1l2.7-1v4l1.9,5.2L23,195l5.8,1.2l0.1,0.1l1.4-4.1l-1.7-1.1v-2.9l3.2-3.2l-1.2-5.7l4.8-2l1.8-3.9
			l7.6,2L58,173l3.7-4c-0.3-0.8-0.4-1.7-0.6-2.6c0-0.3,0-0.7,2.3-1.9l-0.4-2.2l-7.6-2.4l-1.3-2l-3.5,1.6l-8.8-1.4l-1.6-2.4l-4.8-1.7
			l-0.3-2.2l6.7-10l-7.4-2l-0.4,0.1l-5.8,15.7L14,160.9l1.8,9.2L19.6,176.1z"></path>
	<title>Oliveira de Frades</title></g>
	<path id="santacombadao" class="st2" d="M82.9,277.6l-2.6-5.5l1.2-2l0.5-3.2l-2-0.8l-1-4.9l3.4-2.3l2.4-6H81l-1.1-1l-4,3l-4.9-0.6
		l-0.7-1.9l-4.6,2.9l-4-0.5l-4.1,2c-0.9,3.5-2.1,9-2.2,9.8c0.2,0.7,0.9,3.8,1.1,4.4l0,0l0.1,4.4l-2.7,3.6l2.1,4l-3.1,5.6l-0.2,3.5
		l1.7-1.3l5.4,1.4l3.7,0.8l0.8-2.1l3.2,1.4l7.5-7.6l3.1-0.3l2.1-3.1h2.9l2-2.9L82.9,277.6z" data-municipality-id="282" data-title="Santa Comba Dão"><title>Santa Comba Dão</title></path>
	<path id="carregaldosal" d="M114.8,247.7l-1.8-2.5v-2.9l-1.1-2.1v-0.1l-1-12.1l-4.4-0.9l1.5,6.5l-10.9,8.8l-2.8,1.7l0.5,2.5
		l-1.6,2.7l-3,1.8l-4.2,1.5l-2.8,7l-3,2l0.8,3.7l2.3,0.9l-0.7,4.3l-1,1.7l2.2,4.6l1.9,0.9l0.9-1.3l4.6,0.2l9-5.3l2.6-0.3l4.8-5.8
		l3.5-0.4l6.9-8.4l2-1.9L114.8,247.7z" data-municipality-id="308" data-title="Carregal do Sal"><title>Carregal do Sal</title></path>
	<path id="mortagua" class="st2" d="M51.6,292.2l0.2-3.8l2.9-5.3l-2.1-4l2.9-3.9l-0.1-3.9c-0.4-1.6-1-4.1-1.1-4.4s-0.1-0.3,1.1-5.5
		c0.4-1.8,0.8-3.6,1.1-4.5l-2-0.5l-0.3-6.4l-7.3-2.5l-1.8-6.7l-5.8-6.6l-2.4,1l-2.5,0.2l0.1,0.1l-3.8,3L29,237l-3.6,0.2l-1.7,2.2
		l-9.7,3.1l-0.5,4.1l3.8,5.1l0.3,7l-6.1,4.7l1.1,3l-3.8,2.7l0.7,2.6l-1,11l2.9-0.6l4.1,5l0.9-2.2h4l3.2,1.9l2.4,4.1l8.6,5.9l4.6,0.1
		l0.1-2l6.1-4l5.6,2.5l0.4-0.3L51.6,292.2z" data-municipality-id="275" data-title="Mortágua"><title>Mortágua</title></path>
</g>
</svg>