<svg xmlns="http://www.w3.org/2000/svg" viewBox="0 0 253.8 177.3" class="map-svg map-municipalities" data-id="3" data-district="braga">
<g data-title="braga" data-district-id="3">
	<g id="map-bg" class="map-bg">
		<path d="M132,39.2l-3.3,1.6l-6,4.8l-4.4,3.3l-0.6,0.6l4.9,2.6l3.9,0.5l3-3l2.3,0.7l6.6-3.9l1.6,0.8l-2,2.6l2.5,2.8l1.5-1.3
			l1.7,2.7l0.2,1.7l2.3,3.9l0.3,1.6l9.4,0.4l3.4-2.1l0.7-4.2l3.1-2.7l7.8-1.3l1.3-1.8l4.3-1l0.4-1.7l4.8-2.6l4.3-14.3l3.8-3.5
			l-1.3-5.1l2.1-6.4l3-1.2l-2.3-5.3l-10.8,2.5l-2.1-0.9l-5.2,2l-8.1-4.1l-1.6,3.8l-4.7-1.2l-2.5,1.5l-18.2,12l-4.6-2.9l-2.2,6H130
			l-0.8,7.4L132,39.2z"></path>
		<path d="M74.8,68.5l-0.3,0.2l0.8,2.3l0.2,3.8l-1.6,2.4l2,5.4l6.9,0.4l2.8,4.1l2.1,0.4l-0.5-2l2.4-3.6l5.2-2.2l1.3-2.4l4.8-0.8
			l2.4-13.2l3.2-1.5l0.5-3.9h2.3l4-5.3l3.3-3.1l0.3-0.5l0.2,0.1l0.8-0.7l4.4-3.3l6-4.9l2.7-1.3l-2.5-4.3l0.8-7.6l-11.2-0.4l-3.5-2.6
			l-1.7,2.8l-17.1,5.8l-1.1,2.8l-6.8,2l-0.5-3.3l-1.7-0.4l-4.8,4.8l-1.6,14.3l-5.2,4.1l1.4,4.7L74.8,68.5z"></path>
		<path d="M28.6,112.3l3.6-0.2l2,2.3l1.8,0.2l0.3-3.8l-3.2-9.4l-3,0.1l-1.3-1.6l1.6-3.9l0.5-9.6l-3.1-3l3.9-8.5L29,70.6L28.4,72
			l-1.3,0.2L23.4,71l-1.5,3.2L13.5,76l-3-1.5l0.8,3.5l-0.1,4.8l4.3,9.9v4l1.5,4.2l-0.9,11.7l3.2,3.5l-0.3,3.1l7,1.4l0.4-3.8l2.2-2
			V112.3z"></path>
		<path d="M108.6,75.9l3-2.4l7-0.7l1.6,1.1l7.5-3.8l1.5-6.5l7.9-2.5l1.6,0.1l2.4-0.6l4.7,0.6l-0.2-1.3l-2.4-4l-0.1-1.7l-1.3-1.9
			l-1.4,1.3l-3.2-3.8l1.7-2.3l-0.5-0.3l-6.5,3.8l-2.1-0.6l-3,2.9l-4.4-0.5l-5.2-2.9l-3.4,3.1l-4.2,5.6h-2l-0.5,3.7l-3.2,1.5
			l-2.4,12.8l2.9,1.1l2.9-3L108.6,75.9z"></path>
		<path d="M248.5,85.9l-9.1-12.4l-6.8,8.6l-3-0.5l-3.7,1.5l-8.6-3l-2.3,0.5l-2.2-3.8l-7.9,1.2l-1-4.9l-5.4,4.8l-6,3.1l-4.9,9.1
			l2,0.9l-1.7,1.6l2.9,5.2l-0.2,8.2l0.2,4.4l-2.2,3.2l-0.2,0.5l5.6,3.4l3-0.6l5.1-0.2l1.4,4.1l12.4,5.7l2,0.4l-0.8-2.2l1.4-1.7
			l0.1-6.6l5.3-3.6l1.5,1.8l3.5-1v-8l2,1.7l5.6-1.2l0.5-3.6l5.8-3.8l-1.1-2.3l2.1-1.2l-1.1-3l3.4-0.1L248.5,85.9z"></path>
		<path d="M83.3,106.6l-3.8,3.9l2.2,5.6l8.5,1l3.2,3.8l3.3-2.8l3.2,3.5l7.7-7.6l1.9-1l1.6-4l-1-2.5l3.4-7.3l5.8-0.7l2.2-1.3l3.8,1
			l5.7-1.6l1.4-4.9l-2.5-2.4l-2-4.1l-6.7-1.8l-0.2-1.8l2.8-2.3l-0.9-5.9l-2.7,1.3l-1.7-1.2l-6.6,0.7l-3.3,2.6l-1.3-1.2l-2.7,2.9
			l-3.5-1.3L96.6,78l-1.3,2.2l-5.2,2.2l-2.2,3.3l0.8,2.7l-3.2-0.6L83.2,89l2.7,4.5v4.8l-3.6,4.8L83.3,106.6z"></path>
		<path d="M158.5,94.6l4.6,1.4l4.3-2.5l-1.8-7.7l1.9-1.6l-1-2.4l-11-0.8l-1-6.7l1.6-2.6l-3.5-3.6l-6.1,3l-4.1-3.9l-0.5-5.8l-0.8-0.1
			l-2.3,0.6l-1.7-0.1l-7.3,2.4l-1.5,6.4l-4.8,2.4l1,6.6l-2.8,2.3l0.1,1l6.6,1.7l2,4.3l2.8,2.6l-1.5,5.3l2.4,3.8l3-0.2l4.7-3.4
			l1.6,5.6l2.1,0.6l3.5-7l-1.1-3.4l6.7-2l1.2-2.5L158,88l-0.2,5.3L158.5,94.6z"></path>
		<path d="M176.4,49.2l-3.8,0.9l-1.3,1.9l-7.9,1.3l-2.8,2.3L160,60l-3.9,2.2l-10.2-0.3l0,0l-3.3-0.4l0.5,5.4l3.5,3.4l6.2-3l4.1,4.3
			l-1.7,2.8l0.9,5.9l10.9,0.8l1.3,3.3l-2,1.7l1.8,7.4l1.1,1.1l2.9-1.3l3.2,1.8l1.9-1.9l3.3-0.8l1.5-2.3l3-1.1l2,0.8l5-9.3l6.1-3.1
			l5.6-5.1l-0.1-0.6l0.6-10.9l3.2-8l-10.8-5.2l-20.4,2.5L176.4,49.2z"></path>
		<path d="M175.8,149.1l0.7-3.9l1.4-7.4l-1.1-3l3.2-1.8l0.5-5.1l5-1.8l-0.2-2.2l2.1-2.2l-1.4-2.8l2-5.6l2.1-3.1L190,106l0,0l0.1-8
			l-3-5.5l1.3-1.3l-1.4-0.6l-2-0.8l-2.6,0.9l-1.5,2.3l-3.4,0.9l-2,2.1l-3.4-1.9l-3.1,1.4l-1.3-1.4l-4.5,2.7l-4.9-1.6l-6.4,1.3
			l-3.4,5.6l-0.3,6.1l3.2,3.4l1.2,6.2l-4.7,5.9l-0.3,4.5l3.3,3.3l0.3,3.6l-5.2,1.3l-0.2,1.2l5.7,1.8l0.4-1.3l9.2,1.2l1.5,3.5h2.5
			l1.2,5.6l3.3,0.2v2.1L175.8,149.1z"></path>
		<path d="M145.4,135.9l5.1-1.3l-0.3-2.8l-3.3-3.3l0.3-5.1l4.6-5.7l-1.1-5.8l-3.2-3.5l0.4-6.5l3.6-6l6.3-1.3l-0.7-1.1l0.2-4.7
			l-1.1,0.1l-1.1,2.5l-6.3,1.9l0.9,2.9l-3.8,7.9l-3.1-1l-1.4-5l-4,2.9l-3.6,0.4l-2.7-4.1l-5.7,1.6l-3.8-1l-2.1,1.3l-5.5,0.6
			l-3.2,6.7l1,2.5l-1.8,4.5l-2,1l-7.6,7.6l-0.3-0.3l4.8,5.4l2.7-0.4l1.8,1.9l-2.4,2.8l2.7,1.3l3.8,1.1l0.8,3.3l-1.7,4.8l1.8,2
			l0.2,3.7l-3.2,1l-1.5,4.2l3-0.5l3.3,1l10-3.5l0.1,0.6l1.1-0.1l0.2-1.7l-0.9-0.8l-0.4-5.1l2.9-3.2l3.7,0.8l-0.4,2.5l6.3,3.2
			l1.9-3.2l2.1,0.2l3.1,1.5l0.6-0.5l3.9-0.5l0.9-3.6l-6.3-2L145.4,135.9z"></path>
		<path d="M65.8,131.5l0.8,2.4l2.3-0.7l5-8l-3.9-6.1l5.8-2.1l1.4,1.9l3.8-2.6l-2.3-5.9l3.8-4l-0.9-3.5l3.6-4.8v-4.5l-2.9-4.8
			l2.6-1.5l-2.5-3.7l-7-0.3l-2.3-6.2l1.7-2.5l-0.2-3.5l-0.8-2.2l-4.5,1.8L64,64.9l-4.4,1.8l-5.5-2.8l-0.2-1.8l-3.1-0.9l-1.5,7.2
			l-4-2.9h-6.5L35.9,68l-5.5-0.6l-1.1,2.5l3.1,4.9l-3.8,8.4l3,2.9l-0.5,10l-1.5,3.7l0.8,1l3.2-0.1l3.4,10.1l-0.3,4.5l-2.8-0.2
			l-2-2.3l-2.7,0.1v2.2l-2.1,2l-0.4,3.6h0.1l3.1,4.2l4.5-0.7l2.6,3.3l2.3-1.3l6.8,1.7l2.7,7.6l5.7,2.7l5.4-6.7H65.8z"></path>
		<path d="M218.1,127.7L218.1,127.7l-2.4-0.5l-12.7-5.9l-1.3-3.9l-4.6,0.2l-3.2,0.7l-5.7-3.5l-1.5,4.1l1.5,2.9l-2.2,2.4l0.2,2.4
			l-5,1.8l-0.5,5l-3.1,1.7l1,2.7l-1.4,7.5l-0.8,4.4l-6.8,1.7v3.1l13.3,8l1.4,1.6l3.2-4.9l7.3,8.8l3.3-0.2l0.8-3l5.6-5.3l5.4-10.1
			l1.5-4l-4-2.5l2.6-0.3l-0.3-2.5l3,1.4v-4.7l5.6-4.5L218.1,127.7z"></path>
		<path d="M141.1,143.6l-2,3.4l-7.3-3.7l0.3-2.4l-2.7-0.6l-2.4,2.8l0.3,4.5l1.1,0.8l-0.4,2.7h-1.5l0.8,3.3l6.7,6.1l3-1.1l1.8-9.3
			l6.5-5l-2.7-1.3L141.1,143.6z"></path>
		<path d="M113.9,147.2l-0.2-3l-1.8-2l1.7-5.1l-0.6-2.7l-3.5-0.9l-3.6-1.7l2.6-3.1l-1.2-1.1l-2.6,0.3l-8.1-8.8l-3.3,2.8l-3.4-4.1
			l-8.4-1l-4.5,3.1l-1.5-2.1l-4.5,1.6l3.7,5.8l-5.3,8.6l-3.3,1l-0.8-2.6h-5.1l-5,6.3l2.7,1.3l2-0.8l2.6,4.9l-6.7,2.3l3.9,15.5l2-2.8
			l19.2-0.7l2.5-5.7l13.8-2.4l1.1,3.8l3.8-0.2l6.2-6.8l3,1.1L113.9,147.2z"></path>
	</g>
	<path id="bg-white" class="bg-white" d="M248.1,81l-9.7-13.2l-7,8.9l-2.8-0.5l-3.6,1.5l-8.6-2.9l-2.1,0.4l-2.1-3.8l-7.8,1.2l-1.1-5l0,0l-0.2-0.8
		l0.7-10.8l3.3-8.3l-11.3-5.4l-19.9,2.4l0.2-1l0.3-1.4l4.8-2.6l4.3-14.4l3.9-3.5l-1.3-5.3l2-6.1l3.3-1.3l-2.7-6.2l-11.1,2.6
		l-2.2-0.9l-5.1,2l-8.4-4.3l-1.7,3.9l-4.4-1.1l-2.7,1.7l-17.9,11.7l-4.9-3l-2.3,6.2h-1.1l0,0l-11.6-0.4l-3.8-2.9l-1.9,3.1l-17.1,5.8
		l-1.1,2.8l-6,1.8l-0.5-3.1l-2.3-0.5l-5.1,5.2l-1.6,14.2l-5.3,4.2l1.4,4.9l-0.6,6.5l-0.5,0.2l-4.4,1.7l-5.3-5.8l-4.6,1.9l-5-2.6
		l-0.1-1.9l-4-1L48,62.7l-3.5-2.5h-6.8l-2.9,2.5L29.1,62l-1.3,3.1l0,0l-0.7,1.6l-0.9,0.1l-4-1.3l-1.5,3.4l-8.1,1.7l-3.8-1.9l1.1,4.5
		L9.7,78l4.4,10v3.9l1.4,4.2l-0.8,11.8l3.1,3.5l-0.3,3.4l7.8,1.5l0,0h0.2l3.3,4.3l4.4-0.7l2.8,3.4l2.5-1.4l6.3,1.5l2.7,7.6l5.9,2.8
		l0,0l3.6,1.7l1.7-0.8l2.2,4.1l-6.7,2.3l4.4,16.9l2.5-3.5l19.2-0.7l2.5-5.7l13.1-2.3l1.1,3.7l4.4-0.2l6.1-6.7l2.5,0.9l-1.7,5.2
		l3.7-0.7l3.3,1l9.6-3.3v0.1l0,0l1.1,4l6.9,6.4l3.7-1.3l1.7-9.4l6.7-5.2l0,0l0.8-0.6l4-0.5l1.2-4.4l0,0l0.3-1l8.6,1.1l1.5,3.5h2.4
		l1.1,5.6l3.3,0.2v1.9v0.4v3.5l13.4,8l1.9,2.1l3.1-4.9l7,8.4l3.9-0.2l0.9-3.2l5.6-5.2l5.4-10.3l1.6-4.3l-3.1-2l1.8-0.2l-0.3-2.1
		l2.8,1.3v-5.2l5.7-4.5l-0.2-4.9v-0.1l0,0l-0.1-0.3v-0.1l0,0l-0.8-2.3l1.2-1.6l0.2-6.6l4.7-3.2l1.4,1.7l4.2-1.2v-7.2l1.3,1.1
		l6.2-1.3l0.6-3.8l5.9-3.9l-1.1-2.3l2.1-1.1l-1-2.8l3.1-0.1L248.1,81z"></path>
	<path id="terrasdebouro" d="M128.2,29.6l2.8,4.7l-3.2,1.7l-6,4.8l-4.5,3.3l-0.5,0.5l4.9,2.7l3.9,0.4l3-3l2.2,0.7l6.7-3.8l1.5,0.7
		l-1.9,2.6l2.4,2.9l1.6-1.4l1.7,2.7l0.2,1.7l2.3,4l0.3,1.6l9.4,0.3l3.4-2l0.7-4.3l3.1-2.6l7.8-1.3l1.3-1.9l4.3-1L176,42l4.8-2.7
		l4.3-14.2l3.8-3.5l-1.4-5.1l2.2-6.5l3-1.2l-2.3-5.3L179.6,6l-2.2-0.8l-5.1,2L164.2,3l-1.7,3.8l-4.6-1.1l-2.5,1.5l-18.2,11.9
		l-4.7-2.8l-2.1,5.9h-1.3L128.2,29.6z" data-municipality-id="43" data-title="Terras de Bouro"><title>Terras de Bouro</title></path>
	<path id="vilaverde" d="M73.9,63.7l-0.4,0.1l0.9,2.3l0.2,3.8l-1.7,2.4l2,5.5l7,0.3l2.8,4.1l2.1,0.4l-0.5-1.9l2.4-3.7l5.2-2.2
		l1.3-2.3l4.7-0.8l2.5-13.2l3.1-1.5l0.6-3.9h2.2l4.1-5.4l3.3-3.1l0.3-0.5l0.1,0.1l0.8-0.7l4.5-3.3l6-4.8l2.7-1.4l-2.6-4.2l0.9-7.6
		l-11.3-0.4l-3.5-2.7l-1.6,2.8l-17.1,5.8l-1.1,2.8l-6.8,2l-0.5-3.3l-1.7-0.3L80,33.7l-1.6,14.2l-5.2,4.2l1.3,4.6L73.9,63.7z" data-municipality-id="46" data-title="Vila Verde"><title>Vila Verde</title></path>
	<path id="esposende" d="M25.1,115.7l0.4-3.8l2.1-2v-2.5l3.7-0.2l2,2.4l1.8,0.1l0.3-3.7l-3.2-9.5l-3.1,0.2L27.9,95l1.5-3.9l0.5-9.6
		l-3-3l3.8-8.5l-2.6-4.2l-0.6,1.4l-1.4,0.1l-3.6-1.1L21,69.3l-8.4,1.8l-3-1.5l0.8,3.5l-0.2,4.8l4.4,10v4L16,96l-0.8,11.8l3.2,3.4
		l-0.4,3.2L25.1,115.7z" data-municipality-id="39" data-title="Esposende"><title>Esposende</title></path>
	<path id="amares" d="M107.7,71l3-2.4l7-0.6l1.6,1.1l7.5-3.8l1.5-6.5l7.8-2.6l1.7,0.2l2.3-0.7l4.8,0.6l-0.3-1.3l-2.3-4l-0.2-1.6
		l-1.2-1.9l-1.4,1.3l-3.3-3.8l1.8-2.4l-0.5-0.2l-6.6,3.7l-2.1-0.6l-2.9,3l-4.4-0.6l-5.3-2.8l-3.3,3.1l-4.2,5.6h-2l-0.5,3.6l-3.2,1.5
		l-2.4,12.9l2.8,1.1l2.9-3.1L107.7,71z" data-municipality-id="34" data-title="Amares"><title>Amares</title></path>
	<path id="cabeceirasdebasto" d="M247.5,81.1l-9.1-12.5l-6.8,8.7l-3-0.5l-3.6,1.5l-8.6-3l-2.3,0.5l-2.2-3.8l-7.9,1.1l-1.1-4.9
		l-5.4,4.9l-5.9,3.1l-4.9,9l1.9,0.9l-1.6,1.7l2.9,5.1l-0.2,8.2l0.2,4.4l-2.2,3.2l-0.2,0.6l5.6,3.4l3-0.7l5.1-0.1l1.4,4.1l12.4,5.7
		l1.9,0.3l-0.7-2.1l1.3-1.7l0.2-6.6l5.3-3.7l1.5,1.8l3.5-0.9v-8l2,1.7l5.6-1.2l0.5-3.7l5.8-3.8l-1.2-2.3l2.2-1.1l-1.2-3l3.5-0.2
		L247.5,81.1z" data-municipality-id="37" data-title="Cabeceiras de Basto"><title>Cabeceiras de Basto</title></path>
	<path id="braga" d="M81.4,98.2l1,3.5l-3.8,4l2.2,5.5l8.5,1l3.2,3.8l3.3-2.8l3.2,3.6l7.6-7.7l2-0.9l1.5-4.1l-1-2.5l3.5-7.2l5.7-0.7
		l2.3-1.4l3.8,1l5.7-1.6l1.4-4.9l-2.6-2.4l-1.9-4l-6.7-1.9l-0.2-1.7l2.8-2.3l-0.9-6l-2.8,1.4l-1.7-1.2l-6.5,0.6l-3.3,2.6l-1.3-1.1
		l-2.8,2.9l-3.4-1.4l-4.6,0.8l-1.3,2.3l-5.1,2.1L87,80.8l0.8,2.7l-3.3-0.6l-2.2,1.3l2.7,4.4v4.9L81.4,98.2z" data-municipality-id="36" data-title="Braga"><title>Braga</title></path>
	<path id="povoadelanhoso" d="M157.6,89.7l4.6,1.4l4.2-2.4l-1.8-7.7l2-1.7l-1-2.4l-11-0.8l-1.1-6.7l1.6-2.5l-3.4-3.6l-6.1,2.9
		l-4.1-3.9l-0.5-5.8l-0.8-0.1l-2.3,0.7l-1.7-0.2l-7.3,2.4l-1.5,6.4l-4.8,2.5l1,6.6l-2.8,2.3l0.1,0.9l6.6,1.8l2,4.2l2.8,2.6l-1.5,5.4
		l2.4,3.8l3-0.3l4.7-3.4l1.5,5.6l2.2,0.7l3.5-7.1L147,88l6.7-2.1l1.1-2.5l2.3-0.2l-0.2,5.3L157.6,89.7z" data-municipality-id="42" data-title="Póvoa de Lanhoso"><title>Póvoa de Lanhoso</title></path>
	<path id="vieiradominho" d="M175.5,44.4l-3.8,0.9l-1.3,1.8l-7.9,1.3l-2.8,2.4l-0.7,4.3l-3.8,2.3L145,57l0,0l-3.3-0.4l0.4,5.4
		l3.6,3.4l6.1-3l4.2,4.4l-1.7,2.7l0.9,6l10.9,0.8l1.3,3.2l-2,1.7l1.7,7.5l1.1,1.1l3-1.3l3.2,1.8l1.9-1.9l3.2-0.8l1.5-2.3l3.1-1.1
		l2,0.8l5-9.3l6-3.2l5.7-5l-0.2-0.7l0.7-10.9l3.1-8l-10.7-5.1l-20.4,2.5L175.5,44.4z" data-municipality-id="44" data-title="Vieira do Minho"><title>Vieira do Minho</title></path>
	<path id="fafe" d="M168.7,143.7v2.1l6.1-1.5l0.8-4l1.3-7.3l-1-3l3.2-1.9l0.5-5l4.9-1.8l-0.1-2.2l2.1-2.3l-1.5-2.7l2.1-5.7l2.1-3.1
		l-0.2-4.2l0,0l0.2-8l-3.1-5.5l1.4-1.3l-1.4-0.6l-2-0.8l-2.6,0.9l-1.5,2.4l-3.4,0.8l-2.1,2.1l-3.4-1.9l-3,1.4l-1.3-1.3l-4.6,2.6
		l-4.8-1.5l-6.4,1.3l-3.4,5.5l-0.3,6.1l3.1,3.5l1.2,6.2l-4.6,5.8l-0.4,4.6l3.3,3.3l0.4,3.5l-5.2,1.4l-0.2,1.1l5.7,1.8l0.3-1.2
		l9.3,1.1l1.5,3.5h2.5l1.2,5.6L168.7,143.7z" data-municipality-id="40" data-title="Fafe"><title>Fafe</title></path>
	<path id="guimaraes" d="M144.1,133.2l0.4-2.2l5.1-1.3l-0.3-2.7l-3.4-3.4l0.4-5l4.6-5.8l-1.1-5.7l-3.2-3.5l0.3-6.6l3.6-6l6.4-1.2
		l-0.7-1.2l0.2-4.7l-1.1,0.1l-1.1,2.5l-6.3,1.9l0.9,3l-3.8,7.8l-3.1-1l-1.4-5l-4,3l-3.6,0.3l-2.7-4.1l-5.8,1.6l-3.7-1l-2.1,1.3
		L113,95l-3.1,6.6l1,2.5l-1.8,4.6l-2,1l-7.6,7.6l-0.4-0.3l4.9,5.3l2.6-0.3l1.9,1.8l-2.4,2.9l2.7,1.3l3.8,1l0.7,3.3l-1.6,4.9l1.8,1.9
		l0.2,3.7l-3.3,1L109,148l3-0.5l3.3,1l9.9-3.5l0.2,0.6l1-0.1l0.3-1.6l-1-0.8l-0.3-5.1l2.9-3.3l3.6,0.8l-0.3,2.5l6.3,3.3l1.9-3.3
		l2.1,0.2l3.1,1.5l0.6-0.5l3.8-0.5l1-3.5L144.1,133.2z" data-municipality-id="41" data-title="Guimarães"><title>Guimarães</title></path>
	<path id="barcelos" d="M59,126.6h5.8l0.8,2.4l2.4-0.7l5-7.9l-4-6.2l5.8-2.1l1.5,2l3.8-2.7l-2.3-5.9l3.8-4l-1-3.4l3.7-4.9v-4.4
		l-2.9-4.9l2.6-1.4l-2.5-3.7l-7-0.4l-2.3-6.2l1.7-2.5l-0.2-3.5l-0.8-2.1l-4.5,1.7L63.1,60l-4.5,1.9L53.2,59L53,57.2l-3.1-0.8
		l-1.5,7.1l-4-2.8h-6.5l-3,2.5l-5.4-0.7L28.4,65l3.1,5l-3.8,8.4l2.9,2.9l-0.5,10l-1.4,3.6l0.8,1.1l3.2-0.2l3.4,10.1l-0.3,4.5
		l-2.9-0.2l-1.9-2.3l-2.7,0.2v2.1l-2.2,2l-0.3,3.7l0,0L29,120l4.4-0.6l2.7,3.3l2.3-1.4l6.8,1.7l2.7,7.6l5.7,2.7L59,126.6z" data-municipality-id="35" data-title="Barcelos"><title>Barcelos</title></path>
	<path id="celoricodebasto" d="M217.2,122.8l-2.4-0.5l-12.8-5.8l-1.3-3.9l-4.5,0.1l-3.2,0.7l-5.7-3.5l-1.5,4.1l1.5,2.9l-2.2,2.4
		l0.2,2.4l-5.1,1.9l-0.4,4.9l-3.1,1.8l0.9,2.6l-1.3,7.6l-0.9,4.3l-6.7,1.7v3.2l13.2,7.9l1.5,1.7l3.2-5l7.3,8.8l3.3-0.2l0.8-2.9
		l5.6-5.4l5.3-10.1l1.5-3.9l-4-2.5l2.7-0.3l-0.3-2.5l3,1.3V132l5.6-4.5L217.2,122.8z" data-municipality-id="38" data-title="Celorico de Basto"><title>Celorico de Basto</title></path>
	<path id="vizela" d="M141.7,138.9l-1.5-0.1l-2.1,3.4l-7.3-3.8l0.4-2.4l-2.7-0.5l-2.4,2.7l0.3,4.5l1,0.9l-0.4,2.6l-1.4,0.1l0.8,3.2
		l6.6,6.1l3.1-1l1.7-9.4l6.6-5L141.7,138.9z" data-municipality-id="47" data-title="Vizela"><title>Vizela</title></path>
	<path id="vilanovadefamalicao" d="M113,142.3l-0.2-2.9l-1.9-2.1l1.7-5l-0.6-2.7l-3.4-1l-3.6-1.7l2.5-3l-1.1-1.2l-2.7,0.3l-8-8.8
		l-3.3,2.8l-3.5-4.1l-8.3-1l-4.5,3.1l-1.5-2l-4.5,1.6l3.7,5.8l-5.3,8.5l-3.3,1l-0.8-2.6h-5.1l-5.1,6.3l2.8,1.3l2-0.8l2.6,5l-6.8,2.3
		l4,15.4l2-2.8l19.2-0.7l2.5-5.6l13.7-2.5l1.2,3.8l3.8-0.1l6.2-6.8l3,1L113,142.3z" data-municipality-id="45" data-title="Vila Nova de Famalicão"><title>Vila Nova de Famalicão</title></path>
</g>
</svg>