<svg xmlns="http://www.w3.org/2000/svg" viewBox="0 0 309.2 329.3" class="map-svg map-municipalities" data-id="4" data-district="braganca">
<g data-title="braganca" data-district-id="4">
	<g id="map-bg" class="map-bg">
		<path d="M132.3,41.4l5,7.4l-4.2,11l-0.1,4.1l-13.3,0.3l-0.3,1.9l5.9,1.5l6.2,4.8l-2.6,4.9l-4.4,1.4l0.3,2.7l-3.6,5l3.5,3.3
			l-2.1,1.3l2.9,4.8l6.2,0.7l2.2-0.5l2.2,1.2l3-0.5l3.6,4.5l-5.4,5.7l-0.3,9.3l-3.2,1.8l-3.1,7.3l0.5,2.1l-1.3,4.6l3.2,4.5l-0.8,5.5
			l1,0.8l15.7-1.1l3.4-2h4.3l-0.1,5.7l12.7,6.7l1.1,2.9l4.9,3.3l3.2-1.2l3.1,1.3l4.7,0.1l1.5-5.3l-2-6.5l1.8-0.7v-2.8l3.3-0.8
			l2.9-12.9l2-2l-1-3.4l0.1-4.3l-1-3.1l10.8-0.1l3.2,2.3l4.1-0.5l-0.2-4.1l4.6-6.7l0.5,0.3l-0.2-2.3l1.9-1l-3.5-11.8l-2.2-0.5l3-3.6
			l0.3-3.6l2.2-5.5v-4l4.1-7.8l-0.8-6.1l0.8-7.3l2.7-4.7l-12.3-3.5l0.8-3.4l1.5-3.4l0.4-2l2.1-4.3l-0.3-5.3l-9.3-8.4l-3.8,5.9
			l-3.2,1l-0.8,2.5l-3-0.8l-15.6,3l-13.4-4l-3.5-7.1l-0.8-5.8l-9.3-2.7l0.2,7.1l-4.7,8.8l-10.3-1.1l-2.8,1.5l-5,9.8L132.3,41.4z"></path>
		<path d="M67.4,83.4l-1,10.8l-1.7,0.5l3,4.4l3.7-0.1l6.6,6.1l2.6-3l5.4,4l0.6-1.1l4.6,2.7l4.7-0.4l2.8,6.7l5.2,0.3l5-9.5l12.9,5.9
			l0.3,1.8l3.2,0.2l2.2-6.7l4.7,1.1l4.3-0.9l4.8-5.1l-2.6-3.2l-2.8,0.4l-2.1-1.1l-2.1,0.4l-6.9-0.8l-3.7-6.1l1.8-1.2l-3.1-3l3.9-5.4
			l-0.4-3.2l4.9-1.5l1.9-3.7l-5.3-4.1l-6.7-1.7l0.7-3.8l13.2-0.3l0.1-3.2l4-10.7l-4.8-7.2l-0.3-4.4l0.1-0.2l4.3-8.5l-9.6-2.3
			l-3.3,0.5l-3.6-8.3l-6.2-1.6l-7.1,9.1L97,23.7L89.8,25l-2.3-7.6l-11.8-5h-3.8l-2.5,4.1l-4.5-1.3L62.8,19l0.8,3.8l-1.3,5l3.5,7
			l-1,1.6l-3.5,11.2l-2.2,0.1l2.5,4.5l-3.3,7.6v5.3l-0.5,3.7l4.8,11.3L67.4,83.4z"></path>
		<path d="M142.2,201.4l-6.2-4.3l-2.8-2.6v-2.3l-0.9-1.8l-0.1-2.8l-5.8-3.5l-0.6-1.2l-4-2L107.1,193l-0.3,4.1l-8.2,2.8l-2.8-1.4
			l-2.1,0.5l0.6,2.4l2.2,0.5l1.9,2.7l-1.3,3l0.7,2.6l2.5,1l0.8,2.5l-4.1,4v3.1l-2.1,0.7v4.4l0.9,1.8l-3.4,4.1l2.8,1.4H97l11.4,14.6
			l11.3,4l5.4-0.5l1.5,2.4l3.1-1.2l-1.1-3.6l3-0.7l2.9,1.7l2.4-1.7l-0.5-4.1l7.5-13l4.2,0.7l2-4.8l-0.7-1.6l2.1-5l-1.5-1.1l-5.1,2.8
			l-8.2-6.9l1.9-5.8l-0.3-2.2l4.1-3.1L142.2,201.4z"></path>
		<path d="M91.2,231.3h0.2l3.1-3.8l-0.7-1.3v-5.5L96,220v-2.8l3.8-3.8l-0.4-1.4l-2.4-1l-1.1-3.5l1.2-2.7l-1.3-2l-2.3-0.4l-0.8-3.2
			l-6.8,1.7l-4.3-1.6l-2.1,1l1.1,4.9l-3.8,2.5l-2,4.2l-6.4,0.5l-1.9-4.2l-6.8-1l-4.9,2.4l-0.6,3.9l-2.8-0.3l-2.9,3.3l-0.5,2.8
			l-5.6-0.6l-1.2,2.4l-1.4,0.3L38,223l5.1,0.8l-1.4,6.9l-2.4,0.8l-2,4l2.6,2.5l3.3-2.3l2.1,2.1l6.7-1l-2.3,9.1l1,0.5l-0.5,3.2
			l2.2,2.6l0.7,4.8l3.2,0.1l1.9-2.5l3.3,1.5l-0.1,0.3l4.3-5.7l2.9-1.7l1.9,0.8l3.3-1.7l5.3,2.3l6.3,4.1l1.3-7l-0.6-5.1l2.5-3.2
			L91.2,231.3z"></path>
		<path d="M217.1,110.9l-0.2-2.1l-4,5.8l0.3,4.7l-5.6,0.8l-3.3-2.4l-8.9,0.1l0.6,1.9l-0.1,4.3l1.2,3.8l-2.3,2.3l-3,13.2l-3.1,0.8
			v2.6l-1.6,0.7l1.8,5.7l-1.6,5.9l1.5,3.7l-1.6,1.3v3.6l3.7,5.5l-0.9,6l-2,4.2l0.2,0.7l5.1-1.5l5.6-1.7l4.6,2.2l-0.4,1.6l4.2,0.4
			l2.5-1.7l2,3.1l3.3,0.9l2-1.3l4.4,0.5l0.4-3l1.7,0.8l6.6-1.4l1.7-2l-0.6-2.1l2.4-1.4l-0.5-5.6l-3.8-3.8l0.2-3.7l3.7,0.2l0.8-7.9
			l3-2.5l2.6,2.8l5.5,1.3l0.2,3l3.7,6.7v2.8l6.4,2.1l4.9-5.4l-1.4-6.5l-6.2-1.3l0.1-2.9l-3.6-2.2l1.6-4.9l3.1-1.7l1.4-7.2l3.7-4.6
			l-1.9-3.9l-0.7-8.1l-1.3-2.2l2-7.5l-6-2.2l-5.6,0.4l-4.2-1.5l-1.8,6.1l-2.8-0.6l-6.1,3.8l-5.3-2l-1.5-2.5L217.1,110.9z"></path>
		<path d="M189.8,173.4l-3.7-5.4v-4.5l1.4-1.2l-1.1-2.8l-5.1-0.1l-2.8-1.2l-3.3,1.3l-5.7-3.7l-1.1-2.9l-12.9-6.9l0.1-5.2h-2.9
			l-3.4,1.9l-16.3,1.2l-1.9-1.5l0.8-5.6l-3.2-4.7l1.4-4.7l-0.6-2.2l3.5-8l2.9-1.6l0.3-8.3l-4.1,0.9l-3.9-0.9l-2.1,6.6l-4.9-0.4
			l-0.4-2.1l-11.4-5.2l-4.9,9.3l-6.6-0.4l-2.7-6.6l-4.2,0.3l-4-2.3l-0.7,1.2l-5.5-4.1l-2.3,2.5l0.3,4.7l-1.2,2.6l7,4.3l0.3,2.4
			l-1.6,3l0.6,2.5l-1,4.4l1.9,2.2l3.7,0.4l-0.9,8.7l3.9,3.6l3.8-1.9l5.8,2.1l-2.5,1.9l0.1,9l1.2,2.5l-5.1,7.2l-2.9,5.1l2.5,3
			l6.1,3.1l1.5,5.5l-3.1,1.9l2.2,6.7l-3.8,3.5l-0.8,3.1l2.2,1.1l7.1-2.4l0.2-3.8l15.7-12.9l4.9,2.5l0.7,1.2l5.9,3.7l0.2,3.1l0.9,1.8
			v2.1l2.4,2.3l6,4.1l8.1-6.5l3.5-0.4l1,3.8l1.3,0.9l-0.5,1.7l2,0.7l6.7-2.8l1.5-3.3l4.8-0.9l3.4-2.8l4,0.5l8.9-6.4l-0.5-1.7l2-4.4
			L189.8,173.4z"></path>
		<path d="M245.5,218.6l-2.1-0.6v-2.7l-7.4-5l-0.4-6.9l-6.5-2.8l-1.9-5.9l-5.5-7.1l-4.3-0.5l-2.1,1.4l-4.2-1.1l-1.6-2.6l-2,1.3
			l-5.7-0.5l0.5-2l-3.5-1.7l-5.2,1.7l-5,1.5v0.2l-9.8,7.1l-3.9-0.4l-3.4,2.6l-4.4,0.9l-1.5,3.1l-7.5,3.2l-3.2-1.3l0.4-1.9l-0.9-0.7
			l-0.9-3.2l-2.3,0.3l-7.9,6.3l0.2,3.3l-4,3.1l0.2,1.8l-1.7,5.3l7.1,6l5-2.7l2.7,1.9l-2.2,5.4l0.6,1.7l-2.5,5.9l-4.2-0.7l-6.9,12
			l0.4,4.5l-3.4,2.4l-3.2-1.8l-1.4,0.3l1,3.5l-2.6,1l1.4,3.7l14.1,1l2.4,4.6l2.2,0.7l0.4,1.9l4.8,1.6l-0.1-0.3l7.3-1.1l1.3-6.6
			l2.2-2.1l0.2-2.2l7-4.5l7.2,10.2l4.5,4.2l-0.2-0.6l7.3-8.1h2.3l1.1-4.3l7.8-1l2.9,2.6l2.4-4.3l1.9,5l8.6-2.2l0.3-3.5l6.7-5.8
			l3.4,4l6.3-4.1l-2.4-2.7l1.5-3l10.7-3l1-5.3l3.7-2.6l-1.7-1.2l1.8-4L245.5,218.6z"></path>
		<path d="M178,261.8L178,261.8l-6.7-9.4l-5.7,3.6l-0.2,2.1l-2.2,2.2l-1.4,7l-7.8,1.1l-1.1,3.9l4.6,7.1v3.1l-2.1,0.7
			c0.2,0.8,0.1,1.6-0.3,2.4c-0.1,0.2-0.3,0.3-0.5,0.3c-1.1-0.2-2.2-0.4-3.2-0.7l-7.1,6.1l-2.3-0.5l-4.9,4l-2.4,2.7l-2-0.2l-1.6,1.5
			l-2.8-1.2l-4.3,0.9l-2.9-0.5l-7-0.9l-2.2,1.4l2.4,1.4l1.2,2.7l-0.7,1.1l2,9.9l-2.1,1.8l-1.9,3.8l-3.1,1.7l1.5,1.9l4.3-2.3l9,1.3
			l4-2.5l2.8,1l16.1,2.2l7-3l0.3-2.8l3.5-2l9.4-15.6l-4.6-9.8l8.8-6.6l6.8-7.1l6-6.6l-0.5-1.3L178,261.8z"></path>
		<path d="M300.7,139.5l-7-2.4l-5.8-10.1l-9.8-7.6l-14.6-5.8l-4.6,1.5l-0.7-0.3l-1.8,6.9l1.2,2.1l0.7,8.1l2.1,4.4l-4,4.9l-1.5,7.4
			l-3.1,1.8l-1.2,3.6l3.4,2.1l-0.1,2.6l6,1.3l1.7,7.7l-5.7,6.4l-7.8-2.6v-3.3l-3.8-6.7l-0.2-2.4l-4.9-1.2l-2.2-2.3l-1.9,1.5
			l-0.8,8.6l-3.7-0.2l-0.1,2.1l3.7,3.7l0.6,6.7l-2.3,1.4l0.6,1.7l-2.3,2.8l-7.3,1.5l-0.7-0.3l-0.3,1.9l5.7,7.2l1.8,5.6l6.6,2.8
			l0.4,7.1l7.5,5v2.5l1.5,0.4l3.2,2.6l0.4-1h6.4l2.7-4.8l-2.8-0.5l-0.9-5.4l6.2-3.2l4.1,4.2l8.2-2l-0.4-4.2l-4.8-2.6l2-3h3.5
			l4.6-6.8l-2.6-3.8l5.1-5l0.2-4.3l5.3-3.7l-0.3-3l2.6-0.3l-1.5-5.5l9.8-6.9l1.7-6.8l6.3-5.8L300.7,139.5z"></path>
		<path d="M57.3,273.1l4.8-2.6l0.3-4.1l-3.2-2.3l1-6l0.7-0.9l-2.4-1.1l-1.7,2.2l-4.7-0.1l-0.7-5.4l-2.3-2.8l0.4-2.9l-1-0.6l2-8.3
			l-5.6,0.8l-1.9-1.8l-3.3,2.3l-3.9-3.6l2.7-5.1l2.2-0.8l1.1-5.2L37,224l-0.2,0.1l-7.1-1.4l-7.6,2l-4,5l2.6,2.6l-3.6,5.5l-3.5,1.1
			l1,6.5l-1.5,2.1l0.2,2.8l1.8,3.5l-7.6-1.3l-1,8.5l-2,2.2l9.6,5.5l3.3,7.3v5l3.3,0.7l2.7,3.1l7.3,0.5l3-1l1.5,2.1l5,1.3l8.1-3.1
			l5.2,2.2c0.5-0.9,2.1-3.2,2.5-3.9L57.3,273.1z"></path>
		<path d="M21.8,209.3l1.7,2.8l-2.2,1.2l2,4.1l9,4.7h-0.2l4.4,0.9l2.8-2.7l1.2-0.2l1.3-2.5l5.3,0.5l0.4-2.1l3.4-4l2.4,0.3l0.5-3.4
			l5.7-2.8l7.7,1.2l1.9,3.9l5-0.3l1.9-4l3.4-2.2l-1.1-5l3.3-1.6l4.3,1.6l9.5-2.2l1-3.6l3.4-3.2l-2.1-6.9l3-1.9l-1.2-4.2l-5.8-3
			l-3.2-3.8l3.4-5.8l4.8-6.7l-1.1-2.2l-0.1-9.7l1.4-1.1l-3.5-1.3l-4.1,2.1l-4.9-4.5l0.9-8.2l-3-0.3l-2.6-2.9l1-4.7l-0.5-2.7l1.6-3
			l-0.2-1.5l-7.4-4.5l1.5-3.3l-0.3-4.6l-6.4-5.9l-3.9,0.1L63.6,95l-2.1,0.7l-0.9,4.3l-2.3,1.5l-1,11.3L49,127.2l-1,6.9l-1,10l-1.1,4
			l2.5,7.6l3.9,4.8l-1,4l-12.1,1.7l-2.6,5.1l-1.3,8.6l1.3,2.5l-8.3,1.4l-0.5,2.6l-2.7-0.7l-4.6,4l0.8,2.3l-0.8,11.2L21.8,209.3z"></path>
		<path d="M113.9,314.7l1.8-1.5l-2-9.7l0.6-1l-0.8-1.8l-3.7-2.2l4.1-2.5l7.4,0.9l2.7,0.4l4.5-0.9l2.4,1.1l1.5-1.4l1.9,0.2l2.1-2.3
			l5.3-4.4l2.2,0.5l7.1-6.1l0.3,0.1c1.1,0.3,2.4,0.6,3,0.7c0-0.6,0-1.2-0.1-1.8l-0.1-0.5l2.2-0.7v-2l-4.7-7.3l1-3.9l-4.9-1.6
			l-0.3-1.9l-2-0.6l-2.3-4.4l-14.1-1l-1.7-4.4l-1.2,0.5l-1.6-2.6l-5,0.4l-11.8-4.2l-11.3-14.5h-1.6l-3.1-1.5l-2.3,7l-2.3,3l0.6,4.8
			l-1.6,8.8l-7.5-4.9l-4.8-2l-3.2,1.5l-1.9-0.8l-2.3,1.3l-5.1,6.9l-0.8,5.1l3.1,2.4l-0.4,5.3l-4.9,2.6l-1.2,9.5l-0.1,0.1
			c-0.6,0.8-2,3-2.4,3.8l6.1,2.5l8.5,0.8l3.3-9.5l5-1.8l0.8-5.5l2.8-0.5L80.9,284l-3,1.2l-0.5,2.3l8,0.3l3,2.3l-5.6,8.3l-0.2,6.3
			l13.3,7.8v3l6.1,4.5l3.1-1.3l3.8,1.3l3.1-1.7L113.9,314.7z"></path>
	</g>
	<g id="bg-white" class="bg-white">
		<path d="M129.6,33.4l0.3,4.1l4.8,7.4l-4,10.7l-0.2,3.8l-13.2,0.3l-0.5,2.7l6.3,1.6l5.8,4.6l-2.3,4.3l-4.6,1.5l0.3,2.9l-3.7,5.1
			l3.3,3.2l-2,1.3l3.3,5.3l6.5,0.8l2.1-0.4l2.2,1.1l2.9-0.5l3.1,3.9l-5.2,5.6l-0.3,9.2l-3.1,1.7l-3.2,7.7l0.5,2.1l-1.3,4.6l3.1,4.7
			l-0.8,5.5l1.5,1.1l15.9-1.1l3.5-2h3.6l-0.1,5.5l12.8,6.7l1.1,3l5.3,3.5l3.2-1.3l2.9,1.2l5.3,0.2l1.6-5.9l-1.9-6.1l1.7-0.6v-2.8
			l3.3-0.8l2.9-13l2.1-2.2l-1.1-3.6l0.1-4.2l-0.8-2.6l9.9-0.1l3.3,2.4l4.8-0.7l-0.3-4.4l4.3-6.1l0,0l-4.2,6.1l0.2,4.5l-4.9,0.7
			l-3.2-2.4l-9.8,0.1l0.8,2.4l-0.1,4.3l1.1,3.7l-2.1,2.1l-3,13.1l-3.2,0.8v2.7l-1.7,0.7l1.9,6l-1.6,5.9l1.4,3.5l-1.5,1.3v4l3.7,5.4
			l-0.9,5.8l-2,4.3l0.4,1.3l5.5-1.6l5.4-1.7l4.1,1.9l-0.4,1.8l4.9,0.5l2.3-1.5l1.8,2.8l3.7,1.1l2-1.4l4.7,0.6l0.4-2.9l1.3,0.6
			l6.9-1.5l1.9-2.3l-0.6-1.9l2.4-1.4l-0.5-6.1l-3.8-3.8l0.1-3l3.8,0.3l0.8-8.2l2.5-2.1l2.4,2.6l5.2,1.2l0.2,2.7l3.7,6.7v3l7.1,2.4
			l5.3-5.8l-1.6-7.1l-6.1-1.3l0.1-2.8l-3.5-2.1l1.4-4.3l3.1-1.7l1.5-7.4l3.8-4.7l-2-4.1L255,120l-1.2-2.2l1.9-7.7l-6.4-2.3l-5.6,0.3
			l-4.6-1.7l-1.8,6.2l-2.6-0.6l-6.1,3.8l-4.9-1.8l-1.4-2.4l-6.8-4.9l-0.1-1.8l0,0l-0.2-3l1.9-1l-3.6-12.5l-1.7-0.4l2.6-3.1l0.3-3.7
			l2.2-5.4v-4.1l4.2-7.8l-0.9-6.3l0.8-7.1l2.9-5.1l-12.4-3.5l0.7-3l1.5-3.3l0.3-2l2.2-4.4l-0.3-5.6l-9.9-9l-4,6.3l-3.3,1l-0.7,2.3
			l-2.7-0.7l-15.5,2.9l-13.2-3.8l-3.3-6.9l-0.9-6l-10.2-3l0.2,7.7l-4.5,8.4l-10.1-1.2l-3.1,1.8l-5,9.9L129.6,33.4z"></path>
		<path d="M60.2,76.4l4.7,3.2L64,89.8l-2.1,0.6l3.5,5.2l3.8-0.1l6.8,6.3l2.7-3l5.4,4l0.7-1.1l4.3,2.5l4.5-0.3l2.7,6.6l5.8,0.4l5-9.4
			l12.3,5.5l0.3,1.9l4,0.4l2.1-6.7l4.4,1l4.6-1l5.1-5.5l-3-3.8l-2.9,0.5l-2.2-1.1l-2.1,0.4l-6.6-0.8l-3.3-5.4l1.9-1.3l-3.2-3.1
			l3.7-5.2l-0.3-3l4.6-1.5l2.2-4.2l-5.6-4.4l-6.4-1.7l0.6-2.9l13.1-0.3l0.2-3.6l4-10.8l-4.8-7.3l-0.3-4.2l4.7-9.1l-10.4-2.5l-3,0.5
			l-3.6-8.2l-6.7-1.8l-7.1,9.1l-8.3-2.2H95l-6.8,1.2L85.9,13l-12-5.1h-4.3l-2.4,4l-4.5-1.3l-2.4,4.3l0.8,3.9l-1.3,5.1l3.4,6.9
			l-0.9,1.4l-3.4,10.9l-2.6,0.2l2.8,4.9l-3.3,7.5v5.4l-0.5,3.8L60.2,76.4z"></path>
		<path d="M130.8,186.3l-0.1-2.9l-5.9-3.6l-0.7-1.3l-4.3-2.2l-15.2,12.5l-0.2,3.9l-7.8,2.6l-2.8-1.3l-2.7,0.6l0.8,3.3l2.3,0.4
			l1.6,2.4l-1.3,2.8l0.9,3l2.5,1.1l0.6,1.9l-4,4v2.9l-2.1,0.7v4.9l0.8,1.6l-3.6,4.4l3.3,1.6l1.8,0.1l11.4,14.5l11.5,4.1l5.2-0.5
			l1.6,2.5l3.9-1.4l-1-3.7l2.2-0.4l3,1.7l2.9-2l-0.4-4.3l7.2-12.6l4.2,0.7l2.2-5.3l-0.7-1.6l2.2-5.2l-2-1.4l-5.1,2.7l-7.7-6.5
			l1.8-5.6l-0.2-2l4-3l-0.2-3.3l-6.4-4.3l-2.6-2.6v-2.1L130.8,186.3z"></path>
		<path d="M152,190.1l0.9,3.5l1.1,0.8l-0.4,1.8l2.5,1l7.1-3.1l1.4-3.1l4.7-0.9l3.4-2.7l3.9,0.4l9.4-6.7l-0.6-1.8l2-4.3l0.9-5.8
			l-3.7-5.4v-4.1l1.5-1.2l-1.4-3.5l-5.2-0.1l-3-1.2l-3.3,1.3l-5.3-3.6l-1.1-2.9l-12.8-6.8l0.1-5.4h-3.5l-3.4,1.9l-16,1.2l-1.5-1.2
			l0.7-5.5l-3.1-4.7l1.3-4.6l-0.5-2.1l3.3-7.7l3-1.7l0.3-9.2l-4.6,1l-4.2-1l-2.2,6.7l-4.1-0.4l-0.3-1.9l-12.1-5.5l-5,9.3l-5.9-0.3
			l-2.7-6.7l-4.5,0.4l-4.3-2.5l-0.7,1.1l-5.4-4L76,102l0.3,4.7l-1.4,2.9l7.2,4.4l0.3,2l-1.6,3l0.5,2.6l-1,4.5l2.3,2.6L86,129
			l-0.9,8.5l4.3,4l4-2l4.7,1.7l-2,1.5l0.1,9.3l1.2,2.5l-5,7l-3.2,5.4l2.8,3.2l6,3.2l1.4,4.9l-3,1.9l2.1,6.7l-3.6,3.4l-1,3.7l2.7,1.3
			l7.7-2.5l0.2-4l15.3-12.5l4.4,2.3l0.7,1.2l5.9,3.6l0.1,2.8l0.9,2v2.1l2.6,2.5l6.4,4.3l8.2-6.6L152,190.1z"></path>
		<path d="M247.3,217l-3.5-2.8l-1.9-0.6V211l-7.4-5l-0.5-7l-6.5-2.8l-1.8-5.7l-5.8-7.4l-4.7-0.6l-2,1.4l-3.8-1l-1.8-2.8l-2.2,1.5
			l-5-0.5l0.5-1.8l-4-1.9l-5.4,1.7l-5.5,1.6l0.1,0.4l-9.4,6.8l-4-0.5l-3.4,2.7l-4.6,0.9l-1.5,3.2l-7.1,3.1l-2.6-1l0.5-1.8l-1.1-0.8
			l-0.9-3.5l-2.9,0.3l-8.2,6.6l0.2,3.3l-4.1,3l0.2,2l-1.8,5.5l7.6,6.4l5.1-2.7l2.1,1.5l-2.1,5.2l0.7,1.7l-2.3,5.4l-4.2-0.7
			l-7.2,12.5l0.5,4.3l-3,2.1l-3.1-1.7l-2.1,0.4l1,3.6l-2.6,1l1.7,4.5l14.1,1l2.4,4.5l2.1,0.7l0.3,1.9l5.1,1.7l-1.1,4.2l4.6,7.2v2.6
			l-2.1,0.7v0.4c0.2,1.5-0.1,1.9-0.1,2l0.1-0.5c0.1-0.7,0-1.3-0.1-2l0,0l2.1-0.7v-2.5l-4.6-7.3l1.1-4.2l-5.1-1.7l-0.3-1.9l-2.1-0.7
			l-2.4-4.5l-14.1-1l-1.7-4.5l-1.3,0.5l-1.6-2.5l-5.2,0.5l-11.5-4.1l-11.4-14.5H93l-3.5-1.7l-2.5,7.4l-2.4,3l0.6,5l-1.5,8l-7-4.6
			l-5-2.1l-3.3,1.7l-1.9-0.8L64,247l-5.4,7.1l-0.9,5.5l3.1,2.4l-0.3,4.8l-4.9,2.6l-1.2,9.7l0,0c-0.6,1-2,3-2.4,3.8l-0.3,0.5l6.6,2.8
			l9,0.9l3.4-9.6l5-1.8l0.8-5.4l1.9-0.3l-0.1,9.8l-2.9,1.1l-0.7,3.2l8.4,0.4l2.5,1.9l-5.5,8l-0.2,6.8l13.3,7.8v3l6.6,4.8l3.2-1.4
			l3.9,1.3l3.4-1.9l2-3.8l1.9-1.7l-2-9.8l0.7-1l-1-2.2l-3.1-1.8l3.2-2l7.2,0.9l2.8,0.5l4.4-0.9l2.6,1.1l1.6-1.5l1.9,0.2l2.2-2.5
			l5.1-4.2l2.2,0.5l7.1-6.1l0,0c1,0.3,2.4,0.6,3,0.8l0.4,0.1h-0.1c-1.1-0.2-2.1-0.4-3.1-0.7l-0.3-0.1l-7.1,6.1l-2.3-0.5l-5.1,4.2
			l-2.2,2.5l-1.9-0.2l-1.6,1.5l-2.6-1.1l-4.4,0.9l-2.8-0.5l-7.2-0.9l-3.1,1.9l3,1.8l1,2.3l-0.7,1l2,9.8l-1.8,1.7l-2,3.8l-3.5,1.9
			l2.2,2.7l4.5-2.4l9,1.3l3.9-2.5l2.6,0.9l16.3,2.2l7.4-3.1l0.3-2.9l3.4-1.9l9.7-15.9l-4.6-9.7l8.5-6.4l6.8-7.1l6.2-6.8l-0.6-1.7
			l-6.1-5.8l0,0l-7-9.8l-6.3,4l-0.2,2.1l-2.1,2.1l-1.4,6.8L152,264v-0.1l7.1-1l1.4-6.8l2.1-2.1l0.2-2.1l6.4-4.1l7.1,9.9l6,5.6
			l-0.8-2.3l7-7.7h2.5l1.2-4.4l7.2-0.9l3.1,2.9l2.3-3.9l1.6,4.4l9.4-2.4l0.4-3.6l6.1-5.4l3.4,3.9l7.2-4.7l-2.6-2.8l1.2-2.5l10.9-3
			l1-5.4l4-3l-1.9-1.3L247.3,217z"></path>
		<path d="M299,135l-7-2.3l-5.7-9.9l-9.9-7.8l-14.9-5.9l-4.6,1.4l-1.1-0.3l-1.9,7.6l1.2,2.1l0.7,8l2,4.3L254,137l-1.5,7.3l-3.2,1.7
			l-1.3,4.2l3.5,2.2l-0.1,2.7l6.1,1.3l1.6,7.2l-5.4,5.9l-7.1-2.4V164l-3.8-6.6l-0.2-2.7l-5.2-1.2l-2.3-2.6l-2.5,2l-0.7,8.2l-3.8-0.2
			l-0.1,2.9l3.7,3.7l0.6,6.3l-2.4,1.3l0.6,1.9l-1.9,2.4l-7.1,1.5l-1.2-0.5l-0.3,2.7l5.8,7.3l1.8,5.8l6.5,2.8l0.5,7l7.4,5v2.5
			l1.8,0.6l3.6,2.9l0.5-1.2h6.4l3.2-5.7l-3.2-0.6l-0.7-4.7l5.5-2.9l4.1,4.1l8.8-2.1l-0.4-4.9l-4.6-2.5l1.6-2.3h3.5l4.9-7.3l-2.6-3.8
			l5-4.8l0.2-4.3l5.3-3.6l-0.3-2.8l2.8-0.4l-1.6-5.7l9.7-6.8l1.6-6.9l6.5-6L299,135z"></path>
		<path d="M54.4,279.2l0.1-0.1l1.2-9.7l4.9-2.6l0.3-4.7l-3.2-2.4l0.9-5.6L64,247l2.6-1.5l1.9,0.8l3.3-1.7l5.1,2.1l6.9,4.5l1.4-7.8
			l-0.6-5l2.3-3l2.6-7.6l0,0l3.6-4.4l-0.8-1.6v-5l2.1-0.7v-2.9l3.9-3.9l-0.6-1.9l-2.5-1l-0.9-3.1l1.2-2.8l-1.6-2.3l-2.3-0.5
			l-0.8-3.3l-7.2,1.7l-4.3-1.6l-2.7,1.2l1.1,5l-3.6,2.4l-1.9,4.1l-5.8,0.5l-1.9-4.1l-7.2-1.1L52,205l-0.6,3.7l-2.6-0.3l-3.1,3.6
			l-0.4,2.5l-5.4-0.6l-1.2,2.5l-1.4,0.2l-2.6,2.5l5.6,0.8l-1.2,6.2l-2.3,0.8l-2.3,4.5l3.2,3l3.3-2.3l2,1.9l6.1-0.9l-2.1,8.7l1,0.6
			l-0.4,3.1l2.2,2.7l0.7,5l3.9,0.1l1.8-2.4l2.5,1.1v0.1l-2.4-1.1l-1.8,2.4l-4-0.1l-0.7-5.1l-2.3-2.7l0.4-3l-1-0.6l2.1-8.7l-6.1,0.9
			l-2-1.9l-3.3,2.3l-3.3-3.1l2.4-4.6l2.2-0.8l1.2-6l-5.5-0.8l-0.1,0.1l-7-1.4l-7.9,2.1l-4.4,5.5l2.7,2.7l-3.3,5l-3.7,1.2l1,6.7
			l-1.5,2.1l0.2,3L12,249l-6.9-1l-1,8.8l-2.3,2.5l10,5.7l3.2,7v5.3l3.5,0.7l2.7,3.2l7.6,0.5l2.7-0.9l1.4,2l5.3,1.4l8.1-3.1l5.4,2.3
			L52,283C52.3,282.4,53.5,280.6,54.4,279.2z"></path>
		<path d="M18,199.1L18,199.1l1.3,6.3l1.5,2.5l-2.1,1.2l2.2,4.7l8,4.1l-1,0.3l6.8,1.3l2.8-2.7l1.3-0.2l1.3-2.5l5.4,0.5l0.4-2.4
			l3.2-3.6l2.6,0.3l0.6-3.7l5.3-2.6l7.2,1.1l2,4.1l5.7-0.5l1.9-4l3.6-2.4l-1.2-5l2.8-1.2l4.3,1.6l9.9-2.4l1-3.7l3.6-3.4l-2.2-6.8
			l3.1-1.9l-1.3-4.8l-6-3l-2.9-3.4l3.2-5.5l5-7l-1.2-2.3l-0.1-9.4l1.9-1.4l-4.5-1.7l-4,2l-4.4-4.1l0.9-8.4l-3.4-0.3l-2.3-2.7l1-4.5
			l-0.5-2.6l1.6-3l-0.3-1.9l-7.2-4.4l1.4-3l-0.3-4.9l-6.7-6.2l-3.8,0.1l-3.5-5.3L59,91.3l-0.8,4.4l-2.4,1.5l-1,11.4l-8.2,14.3
			l-1.1,7.2l-1,9.9l-1.2,4.1l2.6,7.8l3.9,4.7l-0.9,3.5l-12,1.6l-2.8,5.4l-1.4,8.9l1.1,2l-7.9,1.3l-0.5,2.5l-2.4-0.6l-5.1,4.4
			l0.9,2.5L18,199.1z"></path>
	</g>
	<path id="braganca" d="M130.1,33.5l0.2,3.9l5,7.4l-4.2,11l-0.1,4.1l-13.3,0.3l-0.3,1.9l5.9,1.5l6.2,4.8l-2.6,4.9l-4.4,1.4l0.3,2.7
		l-3.6,5l3.5,3.3l-2.1,1.3l2.9,4.8l6.2,0.7l2.2-0.5l2.2,1.2l3-0.5l3.6,4.5l-5.4,5.7l-0.3,9.3l-3.2,1.8l-3.1,7.3l0.5,2.1l-1.3,4.6
		l3.2,4.5l-0.8,5.5l1,0.8l15.7-1.1l3.4-2h4.3l-0.1,5.7l12.7,6.7l1.1,2.9l4.9,3.3l3.2-1.2l3.1,1.3l4.7,0.1l1.5-5.3l-2-6.5l1.8-0.7
		v-2.8l3.3-0.8l2.9-12.9l2-2l-1-3.4l0.1-4.3l-1-3.1l10.8-0.1l3.2,2.3l4.1-0.5l-0.2-4.1l4.6-6.7l0.5,0.3l-0.2-2.3l1.9-1l-3.5-11.8
		l-2.2-0.5l3-3.6l0.3-3.6l2.2-5.5v-4l4.1-7.8l-0.8-6.1l0.8-7.3l2.7-4.7l-12.3-3.5l0.8-3.4l1.5-3.4l0.4-2l2.1-4.3l-0.3-5.3l-9.3-8.4
		l-3.8,5.9l-3.2,1l-0.8,2.5l-3-0.8l-15.6,3l-13.4-4l-3.5-7.1l-0.8-5.8l-9.3-2.7l0.2,7.1l-4.7,8.8l-10.3-1.1l-2.8,1.5L130.1,33.5z" data-municipality-id="49" data-title="Bragança"><title>Bragança</title></path>
	<path id="vinhais" d="M65.4,79.4l-1,10.8l-1.7,0.5l3,4.4l3.7-0.1l6.6,6.1l2.6-3l5.4,4l0.6-1.1l4.6,2.7l4.7-0.4l2.8,6.7l5.2,0.3
		l5-9.5l12.9,5.9l0.3,1.8l3.2,0.2l2.2-6.7l4.7,1.1l4.3-0.9l4.8-5.1l-2.6-3.2l-2.8,0.4l-2.1-1.1l-2.1,0.4l-6.9-0.8l-3.7-6.1l1.8-1.2
		l-3.1-3l3.9-5.4l-0.4-3.2l4.9-1.5l1.9-3.7l-5.3-4.1l-6.7-1.7l0.7-3.8l13.2-0.3l0.1-3.2l4-10.7l-4.8-7.2l-0.3-4.4l0.1-0.2l4.3-8.5
		l-9.6-2.3l-3.3,0.5l-3.6-8.3l-6.2-1.6l-7.1,9.1L95,19.7L87.8,21l-2.3-7.6l-11.8-5h-3.8l-2.5,4.1l-4.5-1.3L60.8,15l0.8,3.8l-1.3,5
		l3.5,7l-1,1.6l-3.5,11.2l-2.2,0.1l2.5,4.5l-3.3,7.6v5.3l-0.5,3.7l4.8,11.3L65.4,79.4z" data-municipality-id="59" data-title="Vinhais"><title>Vinhais</title></path>
	<path id="alfandegadafe" d="M140.2,197.4l-6.2-4.3l-2.8-2.6v-2.3l-0.9-1.8l-0.1-2.8l-5.8-3.5l-0.6-1.2l-4-2L105.1,189l-0.3,4.1
		l-8.2,2.8l-2.8-1.4l-2.1,0.5l0.6,2.4l2.2,0.5l1.9,2.7l-1.3,3l0.7,2.6l2.5,1l0.8,2.5l-4.1,4v3.1l-2.1,0.7v4.4l0.9,1.8l-3.4,4.1
		l2.8,1.4H95l11.4,14.6l11.3,4l5.4-0.5l1.5,2.4l3.1-1.2l-1.1-3.6l3-0.7l2.9,1.7l2.4-1.7l-0.5-4.1l7.5-13l4.2,0.7l2-4.8l-0.7-1.6
		l2.1-5l-1.5-1.1l-5.1,2.8l-8.2-6.9l1.9-5.8l-0.3-2.2l4.1-3.1L140.2,197.4z" data-municipality-id="48" data-title="Alfândega da Fé"><title>Alfândega da Fé</title></path>
	<path id="vilaflor" d="M89.2,227.3h0.2l3.1-3.8l-0.7-1.3v-5.5L94,216v-2.8l3.8-3.8l-0.4-1.4l-2.4-1l-1.1-3.5l1.2-2.7l-1.3-2
		l-2.3-0.4l-0.8-3.2l-6.8,1.7l-4.3-1.6l-2.1,1l1.1,4.9l-3.8,2.5l-2,4.2l-6.4,0.5l-1.9-4.2l-6.8-1l-4.9,2.4l-0.6,3.9l-2.8-0.3
		l-2.9,3.3l-0.5,2.8l-5.6-0.6l-1.2,2.4l-1.4,0.3L36,219l5.1,0.8l-1.4,6.9l-2.4,0.8l-2,4l2.6,2.5l3.3-2.3l2.1,2.1l6.7-1l-2.3,9.1
		l1,0.5l-0.5,3.2l2.2,2.6l0.7,4.8l3.2,0.1l1.9-2.5l3.3,1.5l-0.1,0.3l4.3-5.7l2.9-1.7l1.9,0.8l3.3-1.7l5.3,2.3l6.3,4.1l1.3-7
		l-0.6-5.1l2.5-3.2L89.2,227.3z" data-municipality-id="57" data-title="Vila Flor"><title>Vila Flor</title></path>
	<path id="vimioso" d="M215.1,106.9l-0.2-2.1l-4,5.8l0.3,4.7l-5.6,0.8l-3.3-2.4l-8.9,0.1l0.6,1.9l-0.1,4.3l1.2,3.8l-2.3,2.3l-3,13.2
		l-3.1,0.8v2.6l-1.6,0.7l1.8,5.7l-1.6,5.9l1.5,3.7l-1.6,1.3v3.6l3.7,5.5l-0.9,6l-2,4.2l0.2,0.7l5.1-1.5l5.6-1.7l4.6,2.2l-0.4,1.6
		l4.2,0.4l2.5-1.7l2,3.1l3.3,0.9l2-1.3l4.4,0.5l0.4-3l1.7,0.8l6.6-1.4l1.7-2l-0.6-2.1l2.4-1.4l-0.5-5.6l-3.8-3.8l0.2-3.7l3.7,0.2
		l0.8-7.9l3-2.5l2.6,2.8l5.5,1.3l0.2,3l3.7,6.7v2.8l6.4,2.1l4.9-5.4l-1.4-6.5l-6.2-1.3l0.1-2.9l-3.6-2.2l1.6-4.9l3.1-1.7l1.4-7.2
		l3.7-4.6l-1.9-3.9l-0.7-8.1l-1.3-2.2l2-7.5l-6-2.2l-5.6,0.4l-4.2-1.5l-1.8,6.1l-2.8-0.6l-6.1,3.8l-5.3-2l-1.5-2.5L215.1,106.9z" data-municipality-id="58" data-title="Vimioso"><title>Vimioso</title></path>
	<path id="macedodecavaleiros" d="M187.8,169.4l-3.7-5.4v-4.5l1.4-1.2l-1.1-2.8l-5.1-0.1l-2.8-1.2l-3.3,1.3l-5.7-3.7l-1.1-2.9
		l-12.9-6.9l0.1-5.2h-2.9l-3.4,1.9l-16.3,1.2l-1.9-1.5l0.8-5.6l-3.2-4.7l1.4-4.7l-0.6-2.2l3.5-8l2.9-1.6l0.3-8.3l-4.1,0.9l-3.9-0.9
		l-2.1,6.6l-4.9-0.4l-0.4-2.1l-11.4-5.2l-4.9,9.3l-6.6-0.4l-2.7-6.6l-4.2,0.3l-4-2.3l-0.7,1.2l-5.5-4.1l-2.3,2.5l0.3,4.7l-1.2,2.6
		l7,4.3l0.3,2.4l-1.6,3l0.6,2.5l-1,4.4l1.9,2.2l3.7,0.4l-0.9,8.7l3.9,3.6l3.8-1.9l5.8,2.1l-2.5,1.9l0.1,9l1.2,2.5l-5.1,7.2l-2.9,5.1
		l2.5,3l6.1,3.1l1.5,5.5l-3.1,1.9l2.2,6.7l-3.8,3.5l-0.8,3.1l2.2,1.1l7.1-2.4l0.2-3.8l15.7-12.9l4.9,2.5l0.7,1.2l5.9,3.7l0.2,3.1
		l0.9,1.8v2.1l2.4,2.3l6,4.1l8.1-6.5l3.5-0.4l1,3.8l1.3,0.9l-0.5,1.7l2,0.7l6.7-2.8l1.5-3.3l4.8-0.9l3.4-2.8l4,0.5l8.9-6.4l-0.5-1.7
		l2-4.4L187.8,169.4z" data-municipality-id="52" data-title="Macedo de Cavaleiros"><title>Macedo de Cavaleiros</title></path>
	<path id="mogadouro" d="M246.7,217.2l-3.2-2.6l-2.1-0.6v-2.7l-7.4-5l-0.4-6.9l-6.5-2.8l-1.9-5.9l-5.5-7.1l-4.3-0.5l-2.1,1.4
		l-4.2-1.1l-1.6-2.6l-1.9,1.3l-5.8-0.5l0.5-2l-3.5-1.7l-5.2,1.7l-5,1.5v0.2l-9.8,7.1l-3.9-0.4l-3.4,2.6l-4.4,0.9l-1.5,3.1l-7.5,3.2
		l-3.2-1.3l0.4-1.9l-0.9-0.7l-0.9-3.2l-2.3,0.3l-7.9,6.3l0.2,3.3l-4,3.1l0.2,1.8l-1.7,5.3l7.1,6l5-2.7l2.7,1.9l-2.2,5.4l0.6,1.7
		l-2.5,5.9l-4.2-0.7l-6.9,12l0.4,4.5l-3.4,2.4l-3.2-1.8l-1.4,0.3l1,3.5l-2.6,1l1.4,3.7l14.1,1l2.4,4.6l2.2,0.7l0.4,1.9l4.8,1.6
		l-0.1-0.3l7.3-1.1l1.3-6.6l2.2-2.1l0.2-2.2l7-4.5l7.2,10.2l4.5,4.2l-0.2-0.6l7.3-8.1h2.3l1.1-4.3l7.8-1l2.9,2.6l2.4-4.3l1.9,5
		l8.6-2.2l0.3-3.5l6.7-5.8l3.4,4l6.3-4.1l-2.4-2.7l1.5-3l10.7-3l1-5.3l3.7-2.6l-1.7-1.2L246.7,217.2z" data-municipality-id="55" data-title="Mogadouro"><title>Mogadouro</title></path>
	<path id="freixodeespadaacinta" d="M176,257.8L176,257.8l-6.7-9.4l-5.7,3.6l-0.2,2.1l-2.2,2.2l-1.4,7l-7.8,1.1l-1.1,3.9l4.6,7.1
		v3.1l-2.1,0.7c0.2,0.8,0.1,1.6-0.3,2.4c-0.1,0.2-0.3,0.3-0.5,0.3c-1.1-0.2-2.2-0.4-3.2-0.7l-7.1,6.1l-2.3-0.5l-4.9,4l-2.4,2.7
		l-2-0.2l-1.6,1.5l-2.8-1.2l-4.3,0.9l-2.9-0.5l-7-0.9l-2.2,1.4l2.4,1.4l1.2,2.7l-0.7,1.1l2,9.9l-2.1,1.8l-1.9,3.8l-3.1,1.7l1.5,1.9
		l4.3-2.3l9,1.3l4-2.5l2.8,1l16.1,2.2l7-3l0.3-2.8l3.5-2l9.4-15.6l-4.6-9.8l8.8-6.6l6.8-7.1l6-6.6l-0.5-1.3L176,257.8z" data-municipality-id="51" data-title="Freixo de Espada à Cinta"><title>Freixo de Espada à Cinta</title></path>
	<path id="mirandadodouro" d="M298.7,135.5l-7-2.4l-5.8-10.1l-9.8-7.6l-14.6-5.8l-4.6,1.5l-0.7-0.3l-1.8,6.9l1.2,2.1l0.7,8.1
		l2.1,4.4l-4,4.9l-1.5,7.4l-3.1,1.8l-1.2,3.6l3.4,2.1l-0.1,2.6l6,1.3l1.7,7.7l-5.7,6.4l-7.8-2.6v-3.3l-3.8-6.7l-0.2-2.4l-4.9-1.2
		l-2.2-2.3l-1.9,1.5l-0.8,8.6l-3.7-0.2l-0.1,2.1l3.7,3.7l0.6,6.7l-2.3,1.4l0.6,1.7l-2.3,2.8l-7.3,1.5l-0.7-0.3l-0.3,1.9l5.7,7.2
		l1.8,5.6l6.6,2.8l0.4,7.1l7.5,5v2.5l1.5,0.4l3.2,2.6l0.4-1h6.4l2.7-4.8l-2.8-0.5l-0.9-5.4l6.2-3.2l4.1,4.2l8.2-2l-0.4-4.2l-4.8-2.6
		l2-3h3.5l4.6-6.8l-2.6-3.8l5.1-5l0.2-4.3l5.3-3.7l-0.3-3l2.6-0.3l-1.5-5.5l9.8-6.9l1.7-6.8l6.3-5.8L298.7,135.5z" data-municipality-id="53" data-title="Miranda do Douro"><title>Miranda do Douro</title></path>
	<path id="carrazedadeansiaes" d="M54,278.9l1.3-9.9l4.8-2.6l0.3-4.1l-3.2-2.3l1-6l0.7-0.9l-2.4-1.1l-1.7,2.2l-4.7-0.1l-0.7-5.4
		l-2.3-2.8l0.4-2.9l-1-0.6l2-8.3l-5.6,0.8l-1.9-1.8l-3.3,2.3l-3.9-3.6l2.7-5.1l2.2-0.8l1.1-5.2L35,220l-0.2,0.1l-7.1-1.4l-7.6,2
		l-4,5l2.6,2.6l-3.6,5.5l-3.5,1.1l1,6.5l-1.5,2.1l0.2,2.8l1.8,3.5l-7.6-1.3l-1,8.5l-2,2.2l9.6,5.5l3.3,7.3v5l3.3,0.7l2.7,3.1
		l7.3,0.5l3-1l1.5,2.1l5,1.3l8.1-3.1l5.2,2.2C52,281.9,53.6,279.5,54,278.9z" data-municipality-id="50" data-title="Carrazeda de Ansiães"><title>Carrazeda de Ansiães</title></path>
	<path id="mirandela" d="M19.8,205.3l1.7,2.8l-2.2,1.2l2,4.1l9,4.7h-0.2l4.4,0.9l2.8-2.7l1.2-0.2l1.3-2.5l5.3,0.5l0.4-2.1l3.4-4
		l2.4,0.3l0.5-3.4l5.7-2.8l7.7,1.2l1.9,3.9l5-0.3l1.9-4l3.4-2.2l-1.1-5l3.3-1.6l4.3,1.6l9.5-2.2l1-3.6l3.4-3.2l-2.1-6.9l3-1.9
		l-1.2-4.2l-5.8-3l-3.2-3.8l3.4-5.8l4.8-6.7l-1.1-2.2l-0.1-9.7l1.4-1.1l-3.5-1.3l-4.1,2.1l-4.9-4.5l0.9-8.2l-3-0.3l-2.6-2.9l1-4.7
		l-0.5-2.7l1.6-3l-0.2-1.5l-7.4-4.5l1.5-3.3l-0.3-4.6L69,96.1l-3.9,0.1L61.6,91l-2.1,0.7L58.6,96l-2.3,1.5l-1,11.3L47,123.2l-1,6.9
		l-1,10l-1.1,4l2.5,7.6l3.9,4.8l-1,4l-12.1,1.7l-2.6,5.1l-1.3,8.6l1.3,2.5l-8.3,1.4l-0.5,2.6l-2.7-0.7l-4.6,4l0.8,2.3l-0.8,11.2
		L19.8,205.3z" data-municipality-id="54" data-title="Mirandela"><title>Mirandela</title></path>
	<path id="torredemoncorvo" d="M106.9,316.1l3.1-1.7l1.9-3.7l1.8-1.5l-2-9.7l0.6-1l-0.8-1.8l-3.7-2.2l4.1-2.5l7.4,0.9l2.7,0.4
		l4.5-0.9l2.4,1.1l1.5-1.4l1.9,0.2l2.1-2.3l5.3-4.4l2.2,0.5l7.1-6.1l0.3,0.1c1.1,0.3,2.4,0.6,3,0.7c0-0.6,0-1.2-0.1-1.8l-0.1-0.5
		l2.2-0.7v-2l-4.7-7.3l1-3.9l-4.9-1.6l-0.3-1.9l-2-0.6l-2.3-4.4l-14.1-1l-1.7-4.4l-1.2,0.5l-1.6-2.6l-5,0.4l-11.8-4.2l-11.3-14.5
		h-1.6l-3.1-1.5l-2.3,7l-2.3,3l0.6,4.8l-1.6,8.8l-7.5-4.9l-4.8-2l-3.2,1.5l-1.9-0.8l-2.3,1.3l-5.1,6.9l-0.8,5.1l3.1,2.4l-0.4,5.3
		l-4.9,2.6l-1.2,9.5l-0.1,0.1c-0.6,0.8-2,3-2.4,3.8l6.1,2.5l8.5,0.8l3.3-9.5l5-1.8l0.8-5.5l2.8-0.5L78.9,280l-3,1.2l-0.5,2.3l8,0.3
		l3,2.3l-5.6,8.3l-0.2,6.3l13.3,7.8v3l6.1,4.5l3.1-1.3L106.9,316.1z" data-municipality-id="56" data-title="Torre de Moncorvo"><title>Torre de Moncorvo</title></path>
</g>
</svg>