<svg xmlns="http://www.w3.org/2000/svg" viewBox="0 0 347.8 279.3" class="map-svg map-municipalities" data-id="5" data-district="castelobranco">
<g data-title="castelobranco" data-district-id="5">
	<g id="map-bg" class="map-bg">
		<path d="M122.3,114l1.2,3.1l-1.3,1.9l0.3,2.8l-1.2,1l1.8,4l7.5-0.4l4.5,3.6l1.5-2.7l5.4,1.3l2.8-3.3l4.5-3l5.4-9.5L167,109l10.8,4
			l9.5-2.5l2.5-0.5l0.6,3l4,3.8v2.7l1.3,1.6l-0.8,4.3l1.5,3l-0.4,4.2l1.9,2.3h5.6l2.4-4.3l11.5-0.8l3.9,3.5v5.7l1.7,2.8l3.2-1.1
			l0.3-6l0.9-2.4l-0.6-2.9l2-4.7l5-5.4l1.9-0.4l2.2-6.4l-1.3-3.2l3.1-7.4l3-2.3l0.3-6.2l-1.1-3V84l2.3-2.9l1.6-3.8l5.1-4.9l-4.7-2.9
			l2.1-4.6l-2.5-11l-2.1-0.7l-2.3-1.7l-3.9,5.9L232,60l-4,1.3l-1.5-0.6l-2.2,3.6h-3l-5.6,3.3h-0.1l-18.1,3.9l-5.7-1l-8.4,7.2h-4.6
			l-2,0.8h-2l0.6,3.3l2,1.8l-5,6.2l-7.3-1.5l-1.9-2.9l-3.9,1.4l-3-1.4l-0.9,2.6l-3,2.9v2.6l-3.2-2l-1.6,4.6l-3-1.4l-2.3,1.2
			l-4.6-2.1l-2.1,1.9l2.7,1.8c0,0,0.2,6.2,0.6,6.2l-3.6,1.1l1,2.9l-6.9,7.5l-4.3-2.9l0.4-3.9l-2.6-0.1l-1.6,2.2l-2.1,0.3v1.9h3.2
			L122.3,114z"></path>
		<path d="M123.4,86.2l5.3,1.5l-0.3,3.3l6.4,4.3l2.8-2.5l4.7,2.2l2.3-1.3l2.4,1.1l1.7-4.7l2.7,1.8v-1.2l3.2-3.1l1.1-3.4l3.7,1.6
			l4.3-1.6l2.1,3.2l6.3,1.3l3.9-5l-1.5-1.4l-0.9-4.9h3l2-0.8h4.4l8.5-7.2l5.9,1l17.9-3.8l5.6-3.4h2.8l1.8-2.9l-4.8-2.8l0.2-12.6
			l-1-3.8l1.3-2.7l-0.3-6.8l-3.8-1.2l3.7-2.6l3.7-1.9l0.5-2.2l3.6-1.8v-4.4l-1.4-1.7l-2.6-0.3l-4,3l-5.3,0.7l-4.8-4.1l-2.6,1.7
			l-2.9,0.1l-2.8-4.2l-6.6,1.8l-1,3.4l-2.3,0.8l-3.1,4.3v2.6l-3.4,9.5l-1.8,3.5l-7.3-1.1l-2.2,1.9l-2.6-2.6h-5V43l-12.2,9.5h-4.9
			l-11.4,11.1l-7.8-0.9l-2.7,1.7l-1.2,7.4l-5.8,7.9l2.5,1.6L123.4,86.2L123.4,86.2z"></path>
		<path d="M339.5,133.1l2.6-2.3l-2.6-1.2l-1.7-4.2v-2.9l-4.1-2.9l0.8-2.7l-5.2-1.8l-0.7-4.8l-2.9-4.7l-2.4,1.2l-4.8-2l-2.9,4.1
			l-2.1,0.7l-3.2,3.6l-6-2.3l-4.6,2.6l-6.6-4.1l-6.5,5.1l-4.3-2.5l-1.1-3.2l-1.3-0.4l-2.8,3.2h-5.7v-2.9l-3.6-0.7l-6.7,12H257
			l-8.2-8.8l1-1.8l-0.8-0.5l-1.2,1.7l-4,1.4l-4.4,6.9l-3,1v0.1l-2.2,0.4l-4.7,5l-1.8,4.3l0.6,2.8l-1,2.5l-0.3,6.5l2.8,0.5l1.4,8.1
			l3.2,2.3l0.4,9l3.3,4.7l-3.7,7.3v2.1l-5.7,10.8l0.9,0.5l5.8-1.7l6.6,1.8l2.2,4.7l9.9,4.8l14.2,0.5v4.6l-1.2,1.7l-0.3,1.8l-4.2,6.1
			L257,220l1.1,5.4l-9.4,8.9l2.3,2.4l6,1.7l4.7-0.7l12.9,3.5l5.2-2.9l5.4-0.7l6.7,2.1l14.6-3.8l2.2-9.5l4.4-8.3l-2-0.9L313,206
			l2.4-2.1l-2.9-5.7l0.7-7.3l7.4-2.8l3.9-2.9l1.8-4.9l5.1-3l1.3-13.3l-1-5.8l5.4-5.4l-1.1-6.9l2.3-1.8l-1.5-2.2l2.8-4.3L339.5,133.1
			z"></path>
		<path d="M57.1,152.3l3.5,5.8h4.6l2.2,6h7.7l3.5,1.5l2.9,6.4l15.2,6.1l-1.2,12.7l3.1,0.7v-2.6l6.4,0.7l5.4-4.3l-0.8-8.8l2.5-2.6
			l1.6-6.6l4.7,2.5l3.6-1.7l2.2,3.7l2.7-1.1l2.2,2.7l2.1,1.1l3.8-0.2l1.8-1.1l0.3-5.8l-2-1.9l2.1-6.8h7.8l1.7-5.1l-4.3-1.5l-1.3-4.5
			l2.7-1.5l-1.9-8.6l3.9-0.8l2.3-6.1l-3.6-3.6l-2.2,2.6l-5.2-1.3l-1.7,3.1l-5.2-4l-7.7,0.4l-2.3-5.1l-3-2.7l-5.5-0.6l-1.8-1.7
			l-13.6,6.6l2.5,9l-3.4,2.2l-8-0.9l-3.1,6.6l-3.4-2.5l-1.7-0.2l-1.2,3.3l-4.3-2.9l0.9,4.9l-1.9-0.1l-3.4-1.9l-1.6,5l-3.2-0.9
			l-4,3.6l-3.9-2.2l0.5,4.9V152.3z"></path>
		<path d="M247.6,69.1l5,3.1l-5.8,5.7l-1.6,3.8l-2.2,2.7v5.8l1.1,3l-0.3,6.9l-3.2,2.5l-2.9,6.8l1.3,3.2l-2.1,6.1l1.9-0.7l4.3-6.8
			l4-1.4l1.6-2.3l2.4,1.5l-1,2l7.4,8h3.1l6.8-12.2l5.1,1.1v2.7h4.2l3-3.4l2.3,0.7l1.1,3.3l3.4,2l6.5-5.1l6.7,4.1l4.5-2.6l5.7,2.3
			l3-3.2l2-0.7l3.2-4.5l5.1,2.1l1.9-0.9l-1.9-3.1c0,0-13.9-3.9-14.2-3.9s-3.6-7-3.6-7l0.9-1.8l-2.1-5.6l1-2.9l-2.2-4l2.1-2.9
			l3.8-9.9l8.6-1l3.4-6l-1-2.1l-12.2-8.4l-2.7,0.4l-1.9,3.4L293,50.8l-4.5-3l1.2-2.3l-2.9-5.4V38l-2.9-1.6l-3.3,1.8l-1.7,9.6
			l-7.3,5.2L260,47.9l-6.2,8.7l-7-2.2l2.4,10.8L247.6,69.1z"></path>
		<path d="M225.3,26.6l-4,2.1l-1.9,1.4l2.5,0.8l0.3,7.7l-1.2,2.6l0.9,3.6l-0.2,12.1l3.7,2.2l2.6,1.1l3.7-1.2l5.2-2.2l3.7-5.7l-8.4-6
			l4.8-2.5l9-12.2l-0.9-8.5l1.7-11.3l-4.7-2.3l-3.7,2.9L235,9.1l-4.2,2.8l-1.2,4.5v6.2l-3.7,1.8L225.3,26.6z"></path>
		<path d="M257,225.1l-1.1-5.3l5.8-9.3l4.2-5.9l0.3-1.8l1.1-1.6v-3.3l-13.5-0.5l-10.4-5l-2.2-4.6l-5.8-1.6l-5.9,1.7l-2.2-1.1
			l6.1-11.6v-2.1l3.5-6.9l-3.1-4.5l-0.4-8.7l-3.1-2.3l-1.3-7.8l-2.9-0.6l0.1-0.5l-3.8,1.3l-2.3-3.8v-5.6l-3.3-2.9l-10.6,0.7
			l-2.4,4.4h-6.6l-2.5-3l0.4-4.4l-1.5-3l0.8-4.1l-1.3-1.6v-2.7l-3.9-3.7l-0.4-2.3l-1.5,0.3l-9.7,2.6l-10.8-4.1l-11.6,3.6l-5.3,9.4
			l-4.5,3l-0.3,0.3l4.2,4.1l-2.8,7.3l-3.4,0.7l1.8,8.3l-2.6,1.5l0.9,3.2l4.8,1.7l-2.3,6.7H138l-1.7,5.5l1.8,1.8l-0.3,6.8l-2.5,1.5
			l-4.3,0.3l-2.6-1.4l-1.9-2.2l-2.7,1.1l-2.2-3.7l-3.2,1.5l-4-2.1l-1.6,6.6l10.5,0.9l1.7-1.5l4.1,0.7l0.8,2.6l1.7,2.3v3.9l2.3,1.6
			l0.3,8.4l-1.3,1.4v5.9l5.2,10.8l-0.9,2.5l2.6,0.8l2.3-1.6l2.7,1.7l9.3-6v-3l8.7-9.8h2.9l3.2,6.1l-0.9,3.8l1.4,5.3l12.6,0.5
			l2.1,1.5h10.6l2.6,5.2l-1.5,2.2l1,3.3l-2,7.2l-3.7,2.5v2.6l14.7,0.7l4.2,3.8l5.6,1l3.3-1.3l12.4,2.9l18.6-7.3l-2.6-2.8L257,225.1z
			"></path>
		<path d="M195.7,224.9l-1-3.5l1.4-2.1l-2-4.1h-10.4l-2.1-1.5l-13-0.5L167,207l0.8-3.7l-2.7-5.3h-1.8l-8.2,9.1v3.3l-10.3,6.6
			l-2.7-1.7l-2.1,1.5l-4.1-1.2l-5.1,2.1l0.7,2.9l-1.2,2.1l1.2,1l0.3,3.9l-1.6,0.5v1.7l-4.5,9.6v4l-1,1.8l2.4,2l-2.6,7l-2.3,0.7
			l0.7,3.4l3.2,4.9l-0.7,3.1l-4.3,0.4l0.1,0.1l-3,1.7l-1.3,6.9l6.5-1.6l6.4-6.1l3.5-6.8l7.6-1.7l3-5.3l-1.1-5.1l10.7-6.9l5.3,8.3
			l11.6-4.9l0.2-2.7l3.7-3.3h6.7l4-2.4l5.1,0.2v-3l3.8-2.7L195.7,224.9z"></path>
		<path d="M71.3,209.8v-2.2l2.3-2.9l6.2,0.5l5.3-3.6l0.5-3.2l2.7-3.9l2,1.4L93,194l-1-2.7l2.5-1.1l1.1-11.4l-14.9-6l-2.9-6.4
			l-2.9-1.3h-8.2l-2.2-6H60l-3.9-6.5l-2.8,0.9l-3.7-2.1l-1.3,4.4l-1.6,1l-2.4,11.8l-7.7,4.6l-3.1-2.3l-1,3.5l-2.9,1.3l0.3,3.4
			l-2.3,2.2l-3.7-2.2l-1.8,2.7l-10.6,1.7l2.1,6l-5.7,3.3v2.3l1.7,1.5l1.3,5.4l3.6,3l3.1-1.7l3.2-0.2l2.6,10l-2.6,3.4l0.1,0.4
			l3.5,0.5l2.7-2.2v-2.6h1.5l4.9-3.6l4.6-0.6l4.7,3.4l3.8,0.4l0.9,2.2l4.6,2.5l2.6-1.2l5.7,0.4l2-1.2l1.9,0.6l2.8-2.4l0.1,0.1
			l1.2-1.5L71.3,209.8z"></path>
		<path d="M120.5,265.7l4.1-0.4l0.4-1.9l-3.1-4.7l-0.9-4.5l2.7-0.8l2.2-5.9l-2.5-2.1l1.3-2.3v-3.9l4.5-9.7v-2.1l1.6-0.5l-0.3-2.7
			l-1.4-1.2l1.4-2.5l-0.9-3.4l6.7-2.8l0.7-1.9l-5.1-10.6v-6.5l1.3-1.4l-0.3-7.5l-2.3-1.6v-4.1l-1.6-2.1l-0.7-2.2l-3-0.5l-1.7,1.5
			l-12.1-1.1l0.1-0.5l-0.9,1l0.8,9l-6.2,4.9l-5.7-0.7v2.7l-5.2-1.1v-0.3l-1.1,0.5l1,2.6l-4,2.7l-1.7-1.2l-2,2.9l-0.6,3.4l-6,4
			l-6-0.5l-1.7,2.3v2.3l-3.2,2.2l-0.7,0.8l7.2,0.8l1.6,2.4l2.4,1l3.8-4.1l3.6,0.7l0.9,16.9l-1.6,7.2l3.8,0.6l5.8-2.5l4,2.1l2.5,4.2
			l6,2.7l1.4,3.6l2.3,0.4v3.3L120.5,265.7z"></path>
		<path d="M63.6,216.3l-1.1-0.3l-1.8,1.1l-5.9-0.4l-2.7,1.3l-5.4-2.9l-0.8-1.9l-3.5-0.4l-4.6-3.4l-3.9,0.6l-4.9,3.6h-0.9v2.1
			l-3.4,2.8l-3.2-0.5l0.7,1.2l-0.9,5.4l2.7,1.1l-0.6,2.5v9.4l-2.6,5.9l2.6-0.6l16.5,6.4l3.9,3.3l10.8,0.5l5.6-2.4l4.3,0.5l-5.7-11.3
			l0.7-3.6l3.1-1l0.6-3.2l-0.6-3.3l2.3-9.6L63.6,216.3z"></path>
	</g>
	<g id="bg-white" class="bg-white">
		<path d="M120.9,82.6l5.3,1.5l-0.4,3.2l7,4.6l2.9-2.5l4.6,2.1l2.3-1.2l2.7,1.2l1.6-4.6l3,1.9v-1.9l3.1-3l1-3l3.4,1.5l4.1-1.5l2,3
			l6.8,1.4l4.4-5.6l-1.7-1.6l-0.8-4.2h2.4l2.1-0.8h4.5l8.4-7.2l5.7,1h0.1l18-3.9l5.7-3.3h2.9l2.1-3.6l-4.9-2.9l0.2-12.3l-0.9-3.7
			l1.2-2.7l-0.3-7.2l-3.2-1l2.9-2.1l3.8-2l0.6-2.1l3.6-1.9v-4.9l-1.6-2l-3-0.3l-4.1,3l-4.9,0.7l-5-4.3l-2.8,1.9l-2.4,0.1l-2.8-4.3
			l-7.3,2l-1,3.4l-2.2,0.8l-3.3,4.6v2.6l-3.3,9.3l-1.7,3.2l-7.1-1l-2.1,1.7l-2.4-2.4h-5.7v6.5L152.5,48h-4.9l-11.4,11l-7.7-0.8
			l-3,1.9l-1.3,7.5l-6,8.2l2.7,1.8C120.9,77.6,120.9,82.6,120.9,82.6z"></path>
		<path d="M338,129.3l3-2.6l-3.1-1.4l-1.6-4v-3l-3.9-2.8l0.9-2.8l-5.4-1.8l-0.7-4.5l-3.2-5.2l-2.6,1.3l-4.9-2l-3.1,4.3l-2,0.7
			l-3.1,3.4l-5.9-2.3l-4.6,2.6l-6.6-4.1l-6.5,5.1l-3.9-2.3l-1.1-3.2l-1.8-0.6l-2.9,3.3h-5v-2.8l-4.3-0.9l-6.7,12.1h-3.6l-7.8-8.4
			l1-1.9l-1.6-1l-1.4,2l-4,1.4l-4.3,6.8l-2.9,1h-0.1l3-1l4.3-6.8l4-1.4l1.4-2l1.6,1l-1,1.9l7.8,8.4h3.6l6.7-12.1l4.4,0.9v2.8h5
			l2.9-3.3l1.8,0.6l1.1,3.2l3.9,2.3l6.5-5.1l6.6,4.1l4.6-2.6l5.9,2.3l3.1-3.4l2-0.7l3.1-4.3l4.9,2l2.6-1.2l-2.3-3.7l-0.2-0.1
			c-8.2-2.3-13-3.6-14.1-3.9c-0.4-0.6-1.9-3.7-3.3-6.6l0.8-2l-2.1-5.6l1-2.9l-2.1-3.9l1.9-2.6l3.8-9.7l8.5-1l3.7-6.4l-1.2-2.4
			L306.1,42l-3.1,0.5l-1.9,3.4l-9.7,0.9l-4-2.6l1.1-2.1l-2.9-5.5V34l-3.4-1.9l-3.8,2.1l-1.7,9.6l-6.9,5L258,43.6l-6.3,8.7l-7.4-2.3
			l2.6,11.3l-2,4.3l4.9,3l-5.4,5.2l-1.7,3.9l-2.3,2.8v6l1.1,3.1l-0.3,6.5l-3.1,2.4l-3,7.1l1.3,3.2l-2.4,7l0,0l2.4-6.9l-1.3-3.2
			l3-7.1l3.1-2.4l0.3-6.5l-1.1-3v-6.1l2.2-2.8l1.6-3.9l5.5-5.3l-4.9-3l2-4.3l-2.6-11.4l-2.3-0.7l-2.7-1.9l-4.1,6.2l-5.3,2.3
			l-3.9,1.2l-1.7-0.7l-2.3,3.7H219l-5.6,3.3l-18,3.9l-5.8-1l-8.4,7.2h-4.4l-2,0.8h-2.5L173,78l1.8,1.6l-4.5,5.6l-6.8-1.4l-2-3
			l-4.1,1.5l-3.3-1.5l-1,3l-3.1,3v1.9l-3-1.9l-1.6,4.6l-2.7-1.2l-2.3,1.2l-4.6-2.2l-2.9,2.5l3.1,2c0,1.9,0.2,3.7,0.4,5.6l-3.1,1
			l-0.5,0.2l1.1,3.1l-6.4,7l-3.7-2.5l0.4-4.1l-3.4-0.1l-1.6,2.2l-2.3,0.3v2.8h3l-0.2,0.8l1.1,3l-1.2,1.8l0.3,2.7l-1.3,1.1l2.1,4.6
			l7.6-0.4l4.8,3.8l1.6-2.9l5.3,1.3l2.9-3.5l4.5-3l5.3-9.4l11.9-3.7l10.8,4l9.6-2.5l2-0.4l0.5,2.6l3.9,3.8v2.7l1.3,1.6l-0.8,4.2
			l1.5,3l-0.4,4.3l2.2,2.6h6.1l2.4-4.3l11-0.8l3.6,3.2v5.7l2,3.3l4-1.3l0.3-6.3l1-2.4l-0.6-2.9l1.9-4.5l4.9-5.2l0.9-0.2l-0.9,0.2
			l-4.8,5.1l-1.9,4.5l0.6,2.9l-0.9,2.3l-0.3,6.4l-4,1.3l-2-3.3v-5.7l-3.6-3.2l-11,0.8l-2.4,4.3h-6.1l-2.2-2.6l0.4-4.3l-1.5-3
			l0.8-4.2l-1.3-1.6v-2.7l-3.9-3.8l-0.5-2.6l-2,0.4l-9.6,2.5l-10.8-4l-11.9,3.7l-5.3,9.4l-4.5,3l-0.7,0.8l4.3,4.2l-2.6,6.7l-3.6,0.7
			l1.8,8.5l-2.6,1.5l1.1,3.8l4.5,1.6l-2,5.9h-7.7l-1.9,6.1l1.9,1.9l-0.3,6.3l-2.2,1.3l-4,0.2l-2.4-1.2l-2-2.5l-2.8,1.1l-2.2-3.7
			l-3.4,1.6l-4.3-2.3l-1.9,7.8l11.3,1l1.8-1.5l3.6,0.6l0.7,2.3l1.6,2.3v4l2.3,1.6l0.3,7.9l-1.3,1.4v6.1l5.1,10.8l-1,2.8l3.4,1
			l2.2-1.5l2.7,1.7l9.8-6.3v-3.2l8.4-9.5h2.3l3,5.7l-0.9,3.7l1.5,5.8l12.8,0.5l2.1,1.5h10.5l2.3,4.6l-1.5,2.2l1,3.4l-1.9,6.8
			l-3.7,2.6v3.3l15,0.7l4.1,3.8l6,1.1l3.3-1.3l12.4,2.9l19.4-7.6l-2.8-2.9l9.5-9l-1.1-5.4l5.7-9.1l4.1-5.9l0.4-1.9l1.1-1.6v-4
			l-13.8-0.5l-10.1-4.9l-2.2-4.6l-6.2-1.7l-5.8,1.7l-1.6-0.8l6-11.2V169l3.6-7.1l-3.2-4.6l-0.4-8.8l-3.1-2.3l-1.4-7.9l-2.7-0.5l0,0
			l2.8,0.5l1.4,7.9l3.2,2.3l0.4,8.8l3.2,4.6l-3.6,7.1v2.1l-6,11.2l1.6,0.8l5.8-1.7l6.2,1.7l2.2,4.6l10,4.9l13.9,0.5v4l-1,1.5
			l-0.4,1.9l-4.2,6l-5.7,9.1l1.1,5.4l-9.5,9l2.7,2.9l6.2,1.8l4.7-0.7l13,3.5l5.3-2.9l5.2-0.7l6.7,2.2l15.1-3.9l2.2-9.7l4.6-8.8
			l-2.2-1l1.9-10.6l2.5-2.2l-3-5.9l0.7-6.9l7.1-2.7l4-3l1.8-4.9l5.1-3l1.4-13.6l0,0l-1-5.6l5.5-5.5l-1.1-6.9l2.4-1.9l-1.5-2.3
			l2.7-4.2L338,129.3z"></path>
		<path d="M54.3,148l4,6.6h4.6l2.2,6H73l3.2,1.4l2.9,6.4l15,6l-1.2,12.8l4.2,0.9v-2.6l6,0.7l5.8-4.6l-0.8-9l2.5-2.5l1.5-6.1l4.3,2.3
			l3.4-1.6l2.2,3.7l2.7-1.1l2,2.5l2.4,1.2l4-0.2l2.2-1.3l0.3-6.3l-1.9-1.9l1.9-6.1h7.7l2-5.9l-4.5-1.6l-1.1-3.8l2.6-1.5l-1.8-8.5
			l3.6-0.7l2.6-6.7l-4.3-4.2l-2.3,2.8l-5.3-1.3l-1.6,2.9l-4.8-3.8l-7.6,0.4l-2.2-4.8l-3.1-3l-5.5-0.6l-2-1.8L93.7,120l2.5,9.1
			l-3,1.9l-8.1-0.9l-3,6.4l-3-2.2l-2.3-0.3l-1,3l-4.8-3.2l1,5.5l-1.2-0.1l-3.8-2.1l-1.6,5.1l-3-0.9l-3.9,3.6l-4.5-2.5l0.6,5.5
			L54.3,148z"></path>
		<path d="M222.9,22.3l-3.9,2l-2.7,2l3.1,1l0.3,7.2l-1.2,2.7l0.9,3.7l-0.2,12.3l4,2.3l2.8,1.2l3.9-1.2l5.3-2.3l4.1-6.3l-8.1-5.8
			l4-2.1l9.2-12.3l0.1-0.1l-0.9-8.7l1.7-11.5L240,3.7l-3.6,2.9L233,4.5l-4.7,3.1l-1.2,4.6v6l-3.6,1.9L222.9,22.3z"></path>
		<path d="M194.2,220.9l-1-3.4l1.5-2.2l-2.3-4.6h-10.5l-2.1-1.5l-12.8-0.5l-1.5-5.8l0.9-3.7l-3-5.7h-2.3l-8.5,9.4v3.2l-9.8,6.3
			l-2.7-1.7l-2.2,1.5l-4-1.2l-5.7,2.4l0.8,3.1l-1.3,2.3l1.3,1.1l0.3,3.3l-1.6,0.6v1.8l-4.5,9.6v4.1l-1.1,2l2.4,2.1l-2.4,6.4
			l-2.5,0.8l0.8,3.8l3.2,4.9l-0.6,2.5l-4.8,0.4l0.3,0.5l-2.7,1.5l-1.6,7.9l7.5-1.9l6.4-6.2l3.5-6.7l7.6-1.6l3.2-5.8l-1.1-4.9l10-6.4
			l5.3,8.3l12.3-5.3l0.2-2.7l3.4-3.1h6.6l4-2.4l5.5,0.2v-3.2l3.7-2.6L194.2,220.9z"></path>
		<path d="M69.8,206v-2.2l2-2.6l6.1,0.5l5.6-3.8l0.6-3.3l2.3-3.4l1.9,1.3l3.3-2.3l-1-2.6l2.4-1.1l1.1-12l-15-6.1l-2.9-6.4l-3.1-1.3
			l-8-0.1l-2.2-6h-4.6l-4-6.6l-2.9,0.9l-4.1-2.2l-1.5,4.7l-1.5,1.1l-2.4,11.8l-7.2,4.3l-3.5-2.5l-1.1,3.9l-3,1.4l0.3,3.5l-1.9,1.8
			l-3.7-2.2l-2,2.9l-11,1.7l2.2,6.1l-5.6,3.3v2.9l1.8,1.4l1.2,5.5l4,3.3l3.4-1.8l2.6-0.1l2.4,9.3l-2.7,3.5l0.5,0.8l4,0.6l3-2.5v-2.3
			h1.2l4.9-3.6l4.2-0.6l4.7,3.4l3.6,0.4l0.9,2l5,2.7l2.7-1.2l5.8,0.4l1.9-1.2l1.9,0.6l2.8-2.3h0.2l1.4-1.6L69.8,206z"></path>
		<path d="M118.2,262.2l4.8-0.4l0.6-2.5l-3.2-4.8l-0.8-3.9l2.5-0.8l2.4-6.4l-2.4-2.1l1.1-2v-4l4.4-9.5l0.1-2.1l1.6-0.5l-0.3-3.3
			l-1.3-1.1l1.3-2.3l-0.8-3.1l6.5-2.7l0.8-2.3l-5.1-10.7v-6.2l1.3-1.4l-0.3-7.9l-2.3-1.6v-4l-1.6-2.2l-0.8-2.4l-3.5-0.6l-1.8,1.5
			l-11.3-1l0.5-1.7l-2.4,2.4l0.8,9l-5.9,4.6l-6-0.7v2.6l-4.2-0.9l0.1-0.7l-2.4,1.1l1.1,2.6l-3.4,2.3l-1.9-1.3l-2.2,3.3l-0.7,3.4
			l-5.6,3.8l-6.1-0.5l-2,2.6v2.2l-3,2.1l-1.4,1.6l7.9,0.9l1.6,2.3l2.8,1.2l3.9-4.2l2.9,0.6l0.9,16.4l-1.7,7.7l4.5,0.7l5.7-2.4
			l3.6,1.9l2.5,4.2l6.1,2.7l1.3,3.7l2.2,0.3v3.1L118.2,262.2z"></path>
		<path d="M61.9,211.9l-1.4-0.5l-1.9,1.2l-5.8-0.4l-2.7,1.2l-5-2.7l-0.9-2l-3.6-0.4l-4.7-3.4l-4.2,0.6l-4.9,3.6h-1.2v2.3l-3,2.5
			l-4-0.6l1.1,1.9l-1,5.7l2.7,1.1l-0.5,2.1v9.4l-3,6.6l3.4-0.6l16.4,6.3l3.9,3.3l11.2,0.5l5.5-2.4l5.1,0.6l-6.1-11.9l0.6-3.2l3.1-1
			l0.7-3.6l-0.6-3.3l2.3-9.7L61.9,211.9z"></path>
	</g>
	<path id="fundao" d="M120.3,110l1.2,3.1l-1.3,1.9l0.3,2.8l-1.2,1l1.8,4l7.5-0.4l4.5,3.6l1.5-2.7l5.4,1.3l2.8-3.3l4.5-3l5.4-9.5
		L165,105l10.8,4l9.5-2.5l2.5-0.5l0.6,3l4,3.9v2.7l1.3,1.6l-0.8,4.3l1.5,3l-0.4,4.2l1.9,2.3h5.6l2.4-4.3l11.5-0.8l3.9,3.5v5.7
		l1.7,2.8l3.2-1.1l0.3-6l0.9-2.4l-0.6-2.9l2-4.7l5-5.4l1.9-0.4l2.2-6.4l-1.3-3.2l3.1-7.4l3-2.3l0.3-6.2l-1.1-3V80l2.3-2.9l1.6-3.8
		l5.1-4.9l-4.7-2.9l2.1-4.6l-2.5-11l-2.1-0.7l-2.3-1.7l-3.9,5.9L230,56l-4,1.3l-1.5-0.6l-2.2,3.6h-3l-5.6,3.3h-0.1l-18.1,3.9l-5.7-1
		l-8.4,7.2h-4.6l-2,0.8h-2l0.6,3.3l2,1.8l-5,6.2l-7.3-1.5l-1.9-2.9l-3.9,1.4l-3-1.4l-0.9,2.6l-3,2.9v2.6l-3.2-2l-1.6,4.6l-3-1.4
		l-2.3,1.2l-4.6-2.1l-2.1,1.9l2.7,1.8c0,0,0.2,6.2,0.6,6.2l-3.6,1.1l1,2.9l-6.9,7.5l-4.3-2.9l0.4-3.9l-2.6-0.1l-1.6,2.2l-2.1,0.3
		v1.9h3.2L120.3,110z" data-municipality-id="63" data-title="Fundão"><title>Fundão</title></path>
	<path id="covilha" d="M121.4,82.2l5.3,1.5l-0.3,3.3l6.4,4.3l2.8-2.5l4.7,2.2l2.3-1.3l2.4,1.1l1.7-4.7l2.7,1.8v-1.2l3.2-3.1l1.1-3.4
		l3.7,1.6l4.3-1.6l2.1,3.2l6.3,1.3l3.9-5l-1.5-1.4l-0.9-4.9h3l2-0.8h4.4l8.5-7.2l5.9,1l17.9-3.8l5.6-3.4h2.8l1.8-2.9l-4.8-2.8
		l0.2-12.6l-1-3.8l1.3-2.7l-0.3-6.8l-3.8-1.2l3.7-2.6l3.7-1.9l0.5-2.2l3.6-1.8v-4.4l-1.4-1.7l-2.6-0.3l-4,3l-5.3,0.7l-4.8-4.1
		l-2.6,1.7l-2.9,0.1l-2.8-4.2l-6.6,1.8l-1,3.4l-2.3,0.8l-3.1,4.3v2.6l-3.4,9.5l-1.8,3.5l-7.3-1.1l-2.2,1.9l-2.6-2.6h-5V39l-12.2,9.5
		h-4.9l-11.4,11.1l-7.8-0.9l-2.7,1.7l-1.2,7.4l-5.8,7.9l2.5,1.6L121.4,82.2L121.4,82.2z" data-municipality-id="62" data-title="Covilhã"><title>Covilhã</title></path>
	<path id="idanhaanova" d="M337.5,129.1l2.6-2.3l-2.6-1.2l-1.7-4.2v-2.9l-4.1-2.9l0.8-2.7l-5.2-1.8l-0.7-4.8l-2.9-4.7l-2.4,1.2
		l-4.8-2l-2.9,4.1l-2.1,0.7l-3.2,3.6l-6-2.3l-4.6,2.6l-6.6-4.1l-6.5,5.1l-4.3-2.5l-1.1-3.2l-1.3-0.4l-2.8,3.2h-5.7v-2.9l-3.6-0.7
		l-6.7,12H255l-8.2-8.8l1-1.8l-0.8-0.5l-1.2,1.7l-4,1.4l-4.4,6.9l-3,1v0.1l-2.2,0.4l-4.7,5l-1.8,4.3l0.6,2.8l-1,2.5l-0.3,6.5
		l2.8,0.5l1.4,8.1l3.2,2.3l0.4,9l3.3,4.7l-3.7,7.3v2.1l-5.7,10.8l0.9,0.5l5.8-1.7l6.6,1.8l2.2,4.7l9.9,4.8l14.2,0.5v4.6l-1.2,1.7
		l-0.3,1.8l-4.2,6.1L255,216l1.1,5.4l-9.4,8.9l2.3,2.4l6,1.7l4.7-0.7l12.9,3.5l5.2-2.9l5.4-0.7l6.7,2.1l14.6-3.8l2.2-9.5l4.4-8.3
		l-2-0.9L311,202l2.4-2.1l-2.9-5.7l0.7-7.3l7.4-2.8l3.9-2.9l1.8-4.9l5.1-3l1.3-13.3l-1-5.8l5.4-5.4l-1.1-6.9l2.3-1.8l-1.5-2.2
		l2.8-4.3L337.5,129.1z" data-municipality-id="64" data-title="Idanha-a-Nova"><title>Idanha-a-Nova</title></path>
	<path id="oleiros" d="M55.1,148.3l3.5,5.8h4.6l2.2,6h7.7l3.5,1.5l2.9,6.4l15.2,6.1l-1.2,12.7l3.1,0.7v-2.6l6.4,0.7l5.4-4.3
		l-0.8-8.8l2.5-2.6l1.6-6.6l4.7,2.5l3.6-1.7l2.2,3.7l2.7-1.1l2.2,2.7l2.1,1.1l3.8-0.2l1.8-1.1l0.3-5.8l-2-1.9l2.1-6.8h7.8l1.7-5.1
		l-4.3-1.5l-1.3-4.5l2.7-1.5l-1.9-8.6l3.9-0.8l2.3-6.1l-3.7-3.6l-2.1,2.6l-5.2-1.3l-1.7,3.1l-5.2-4l-7.7,0.4l-2.3-5.1l-3-2.7
		l-5.5-0.6l-1.8-1.7l-13.6,6.6l2.5,9l-3.4,2.2l-8-0.9l-3.1,6.6l-3.4-2.5l-1.7-0.2l-1.2,3.3l-4.3-2.9l0.9,4.9l-1.9-0.1l-3.4-1.9
		l-1.6,5l-3.2-0.9l-4,3.6l-3.9-2.2l0.5,4.9C55.1,148.2,55.1,148.3,55.1,148.3z" data-municipality-id="65" data-title="Oleiros"><title>Oleiros</title></path>
	<path id="belmonte" d="M227.6,18.6l-3.7,1.8l-0.6,2.2l-4,2.1l-1.9,1.4l2.5,0.8l0.3,7.7l-1.2,2.6l0.9,3.6l-0.2,12.1l3.7,2.2l2.6,1.1
		l3.7-1.2l5.2-2.2l3.7-5.7l-8.4-6l4.8-2.5l9-12.2l-0.9-8.5l1.7-11.3l-4.7-2.3l-3.7,2.9L233,5.1l-4.2,2.8l-1.2,4.5V18.6z" data-municipality-id="60" data-title="Belmonte"><title>Belmonte</title></path>
	<path id="castelobranco" d="M245.3,230.2l9.7-9.1l-1.1-5.3l5.8-9.3l4.2-5.9l0.3-1.8l1.1-1.6v-3.3l-13.5-0.5l-10.4-5l-2.2-4.6
		l-5.8-1.6l-5.9,1.7l-2.2-1.1l6.1-11.6v-2.1l3.5-6.9l-3.1-4.5l-0.4-8.7l-3.1-2.3l-1.3-7.8l-2.9-0.6l0.1-0.5l-3.8,1.3l-2.3-3.8v-5.6
		l-3.3-2.9l-10.6,0.7l-2.4,4.4h-6.6l-2.5-3l0.4-4.4l-1.5-3l0.8-4.1l-1.3-1.6v-2.7l-3.9-3.7l-0.4-2.3l-1.5,0.3l-9.7,2.5l-10.8-4
		l-11.6,3.7l-5.3,9.3l-4.5,3l-0.3,0.3l4.2,4.1l-2.8,7.3l-3.4,0.7l1.8,8.3l-2.6,1.5l0.9,3.2l4.8,1.7l-2.3,6.7H136l-1.7,5.5l1.8,1.8
		l-0.3,6.8l-2.5,1.5l-4.3,0.3l-2.6-1.4l-1.9-2.2l-2.7,1.1l-2.2-3.7l-3.2,1.5l-4-2.1l-1.6,6.6l10.5,0.9l1.7-1.5l4.1,0.7l0.8,2.6
		l1.7,2.3v3.9l2.3,1.6l0.3,8.4l-1.3,1.4v5.9l5.2,10.8l-0.9,2.5l2.6,0.8l2.3-1.6l2.7,1.7l9.3-6v-3l8.7-9.8h2.9l3.2,6.1l-0.9,3.8
		l1.4,5.3l12.6,0.5l2.1,1.5h10.6l2.6,5.2l-1.5,2.2l1,3.3l-2,7.2l-3.7,2.5v2.6l14.7,0.7l4.2,3.8l5.6,1l3.3-1.3l12.4,2.9l18.6-7.3
		L245.3,230.2z" data-municipality-id="61" data-title="Castelo Branco"><title>Castelo Branco</title></path>
	<path id="vilavelhaderodao" d="M188.1,230.1l3.8-2.7l1.8-6.5l-1-3.5l1.4-2.1l-2-4.1h-10.4l-2.1-1.5l-13-0.5L165,203l0.8-3.7
		l-2.7-5.3h-1.8l-8.2,9.1v3.3l-10.3,6.6l-2.7-1.7l-2.1,1.5l-4.1-1.2l-5.1,2.1l0.7,2.9l-1.2,2.1l1.2,1l0.3,3.9l-1.6,0.5v1.7l-4.5,9.6
		v4l-1,1.8l2.4,2l-2.6,7l-2.3,0.7l0.7,3.4l3.2,4.9l-0.7,3.1l-4.3,0.4l0.1,0.1l-3,1.7l-1.3,6.9l6.5-1.6l6.4-6.1l3.5-6.8l7.6-1.7
		l3-5.3l-1.1-5.1l10.7-6.9l5.3,8.3l11.6-4.9l0.2-2.7l3.7-3.3h6.7l4-2.4l5.1,0.2L188.1,230.1L188.1,230.1z" data-municipality-id="70" data-title="Vila Velha de Ródão"><title>Vila Velha de Ródão</title></path>
	<path id="serta" d="M18.8,199.1l2.6,10l-2.6,3.4l0.1,0.4l3.5,0.5l2.7-2.2v-2.6h1.5l4.9-3.6l4.6-0.6l4.7,3.4l3.8,0.4l0.9,2.2
		l4.6,2.5l2.6-1.2l5.7,0.4l2-1.2l1.9,0.6l2.8-2.4l0.1,0.1l1.2-1.5l2.9-1.9v-2.2l2.3-2.9l6.2,0.5l5.3-3.6l0.5-3.2l2.7-3.9l2,1.4
		L91,190l-1-2.7l2.5-1.1l1.1-11.4l-14.9-6l-2.9-6.4l-2.9-1.3h-8.2l-2.2-6H58l-3.9-6.5l-2.8,0.9l-3.7-2.1l-1.3,4.4l-1.6,1l-2.4,11.8
		l-7.7,4.6l-3.1-2.3l-1,3.5l-2.9,1.3l0.3,3.4l-2.3,2.2l-3.7-2.2l-1.8,2.7l-10.6,1.7l2.1,6l-5.7,3.3v2.3l1.7,1.5l1.3,5.4l3.6,3
		l3.1-1.7L18.8,199.1z" data-municipality-id="68" data-title="Sertã"><title>Sertã</title></path>
	<path id="proencaanova" d="M118.5,261.7l4.1-0.4l0.4-1.9l-3.1-4.7l-0.9-4.5l2.7-0.8l2.2-5.9l-2.5-2.1l1.3-2.3v-3.9l4.5-9.7v-2.1
		l1.6-0.5l-0.3-2.7l-1.4-1.2l1.4-2.5l-0.9-3.4l6.7-2.8l0.7-1.9l-5.1-10.6v-6.5l1.3-1.4l-0.3-7.5l-2.3-1.6v-4.1l-1.6-2.1l-0.7-2.2
		l-3-0.5l-1.7,1.5l-12.1-1.1l0.1-0.5l-0.9,1l0.8,9l-6.2,4.9l-5.7-0.7v2.7l-5.2-1.1v-0.3l-1.1,0.5l1,2.6l-4,2.7l-1.7-1.2l-2,2.9
		l-0.6,3.4l-6,4l-6-0.5l-1.7,2.3v2.3l-3.2,2.2l-0.7,0.8l7.2,0.8l1.6,2.4l2.4,1l3.8-4.1l3.6,0.7l0.9,16.9l-1.6,7.2l3.8,0.6l5.8-2.5
		l4,2.1l2.5,4.2l6,2.7l1.4,3.6l2.3,0.4v3.3L118.5,261.7z" data-municipality-id="67" data-title="Proença-a-Nova"><title>Proença-a-Nova</title></path>
	<path id="viladerei" d="M61.6,212.3l-1.1-0.3l-1.8,1.1l-5.9-0.4l-2.7,1.3l-5.4-2.9l-0.8-1.9l-3.5-0.4l-4.6-3.4l-3.9,0.6l-4.9,3.6
		h-0.9v2.1l-3.4,2.8l-3.2-0.5l0.7,1.2l-0.9,5.4l2.7,1.1l-0.6,2.5v9.4l-2.6,5.9l2.6-0.6l16.5,6.4l3.9,3.3l10.8,0.5l5.6-2.4l4.3,0.5
		l-5.7-11.3l0.7-3.6l3.1-1l0.6-3.2l-0.6-3.3l2.3-9.6L61.6,212.3z" data-municipality-id="69" data-title="Vila de Rei"><title>Vila de Rei</title></path>
	<path id="penamacor" d="M247.5,61.1l-1.9,4.1l5,3.1l-5.8,5.7l-1.6,3.8l-2.2,2.7v5.8l1.1,3l-0.3,6.9l-3.2,2.5l-2.9,6.8l1.3,3.2
		l-2.1,6.1l1.9-0.7l4.3-6.8l4-1.4l1.6-2.3l2.4,1.5l-1,2l7.4,8h3.1l6.8-12.2l5.1,1.1v2.7h4.2l3-3.4l2.3,0.7l1.1,3.3l3.4,2l6.5-5.1
		l6.7,4.1l4.5-2.6l5.7,2.3l3-3.2l2-0.7l3.2-4.5l5.1,2.1l1.9-0.9l-1.9-3.1c0,0-13.9-3.9-14.2-3.9s-3.6-7-3.6-7l0.9-1.8l-2.1-5.6
		l1-2.9l-2.2-4l2.1-2.9l3.8-9.9l8.6-1l3.4-6l-1-2.1l-12.2-8.4l-2.7,0.4l-1.9,3.4L291,46.9l-4.5-3l1.2-2.3l-2.9-5.4V34l-2.9-1.6
		l-3.3,1.8l-1.7,9.6l-7.3,5.2L258,43.9l-6.2,8.6l-7-2.2L247.5,61.1z" data-municipality-id="66" data-title="Penamacor"><title>Penamacor</title></path>
</g>
</svg>