<svg xmlns="http://www.w3.org/2000/svg" viewBox="0 0 292.8 201.3" class="map-svg map-municipalities" data-id="6" data-district="coimbra">
<g data-title="coimbra" data-district-id="6">
	<g id="map-bg" class="map-bg">
		<path d="M44.9,80.7c-0.1-0.6-0.3-1.5-0.5-2.3c-0.7-3.5-0.5-3.9-0.3-4.1c0.1-0.1,0.3-0.2,0.5-0.2c2.3,0.6,4.6,1.4,6.8,2.3l15.1,2.9
			l2.2-2.1h4v4l4.2,2.1l-0.2,2.8l2.1,0.1l3.1-2.9l0,0l4.9-4.2l1.5,1.2l3,12.3l1.9,1.6L98,92l4.8,2.1l1.9-7l-3.3-4.5v-2.1l-4.1-0.4
			l-0.2-7l10.9-0.7l-2.1-7.5l1.2-14.9l-6.3-4.5l0.5-3.2l-0.5-2.3l-14.2,7l-2.3-4.4l0.9-9.6l1-3.5l-2.8-8.1L78,21.6l-1.6-1.2L75,20.7
			l-2.3,4.2l-1,12.1l-3.5,2L64,36.9l-3.6-3.5v5l-2.2,1l1.2,6l-2,1.9l-3.2,8.4l-16.5-0.9h-0.1L26,51.2l-5.4,16.5l14.9,11.7L44.9,80.7
			z"></path>
		<path d="M135.5,69.3v2.9l-4.7,2.3l0.5,3.6l-0.7,4.3l1,1.7l2.7-0.2l3.8,3.6l-0.6,3.6l-0.3,6.4l4.9,5.6c0.4-0.6,0.9-1.3,1.4-2.1
			s1.2-1.6,1.6-2.1c0.6-0.8,1-1.1,1.4-1c1.7-0.5,3.4-1.2,5-2.1l0.1-0.1l2.9,0.3l1.5-1.6l3.3,1.1l2.6-0.6l-0.4-3.5l11.3,0.4l2.6-1
			l5-0.5l3.3-4.1l0.9-3.9l4.9-0.9l1.6-2.3l4.7-1.2l-0.6-4.2v-4.1l-4.4-1.7l-0.8-1.3l-7.3-1.9l-3.1,2.3l-2.3-1.8l-2.1,1l-2-1.2
			l-5.3,2.1l-0.2,3.1l-4.6-0.2l-9.3-7.5l-1-2.6l-6.8-1.4l-1.8,2.3l-3.3-5.4h-2.1l-1.4,8.2l-3.2,1.9l0.4,1.6L135.5,69.3z"></path>
		<path d="M90.3,123.8l-0.3-3.5l-2-4.6l1.9-6.3l2.9-1.3l-1.5-2.9l-3.2,0.5l-3.7-4.1l1.1-3.6l-3.7-8.1l1.2-2.5L81.7,85l-2.5,2.3
			l-3.5-0.2l0.2-3.1l-4.2-2.1v-3.7H69l-2.3,2.1l-15.7-3l0,0c-2.5-1-5.2-1.9-6.2-2.2c0.2,2,0.6,3.9,1.1,5.8l0.6,0.1l1.8,13.7l3.7,4.8
			l-0.4,4.5l2.4,8.3l0.9,2.2l-1.3,6.8l-13.4,9.3l-2,4.6l2.3-0.9v0.1l3.4-0.7l2.5,1.8l12,0.3l3.7-2.6h3.1l1.7-1.6l-6.7-5.5l2.8-9
			l3.6-1l1.7,2.2l10.4,2.4l10.9,6.4l0.3-1.7l-0.1-0.3L90,125L90.3,123.8z"></path>
		<path d="M240.1,45.3l4.7,3.1l-2.4,5.8l4.2,2.5v3.1l1.9,2.5l-3.1,3.8v4.6l-2.9,0.8l-6.4-1.9l-7.2,1.5l-1.1,1.8l3.3,3.2l0.2,1.2
			l2.1,1.7l1.8-1l2.2,2.6l-0.6,1.8l5.5-1.8l1,1.6l3.9,1.2l3.6-0.8l3,1.9l6.3,5.3l2.4-0.3l3.2-0.8l1.1-1.9l-1-3.3l2.8-1.9l1.2-5.6
			l5.4-3.2l3.9-0.5l1.6-5.8l-4.2-0.4l-3.2-3.3l-3.8-0.4l0.3-1.7l1.6-1.1L271,45.3l-5.4,0.7l-4.4-2.3l-2.4-6l5.9-3.5l4.4-0.7l2.5-4.9
			l-6.9-8.8l-0.7-3.5l-4.5,0.2l-9.2,7.7l-10.8,14.2l-4.5,1l4.2,1.3L240.1,45.3z"></path>
		<path d="M195.9,69.1v4.7l0.8,5l0,0l0.3,4.3l1,0.9v3.7l4.3,1.7L205,85l5.2,10l2.8,0.9l3.5-6.1l2.8,0.9l3.7-4.1l0.4-5.5l4.3,1.4
			l2.7-5.1l-0.1-0.9l-3.7-3.5l1.7-2.7l7.9-1.7l6.3,1.9l1.9-0.5v-4.2l2.9-3.5l-1.6-2.1v-2.9l-4.6-2.7l2.5-5.8l-4.4-2.9l-0.8-4.5
			l-5-1.5l-2.5,3.3l-12.8,7.3l-6.3,0.4l-2.1,4l-3,0.7l-2.3,3.3l-3,0.6l-7.3,6.3l-2.3-0.9l-1.2,1.3l0.6,1.1L195.9,69.1z"></path>
		<path d="M53.5,54.8l3.1-8.1l1.8-1.6l-1.3-6.2l2.4-1.1v-5.4L36.1,9.5l-9.7,40.3l-0.1,0.5l11.5,3.6L53.5,54.8z"></path>
		<path d="M182.1,106.1l4-0.5l9.4,5.4l5.3-2l5.5,8.9l1.1,0.8l0.8-1.2l3,0.9l2.8-1.2h6.5l3.6-4.7l3.4,4.9l-2,10.8h2.9l3.9-3.6h2
			l2.9-6.2l6.2-0.1l2.8-6.8l4.7-5.8l3,1.3l0.6,4.6h4.2l2.5,1.4l2.1-4.6l4.5,2.6l2.3,1.5l4.8-5.4l0.5-6.8l-4.7-8.4l-4.2-0.4l-1.6-1.5
			l0.1-0.1l-2.3,0.5l-2.9,0.4l-6.6-5.5l-2.6-1.7l-3.4,0.7l-4.5-1.3l-0.8-1.2l-6.5,2.1l0.9-3.1l-1.3-1.6l-1.7,1l-2.3-1.9l-2.9,5.4
			l-3.8-1.3L224,87l-4.4,4.8l-2.7-0.9l-3.5,6.1l-3.9-1.2l-4.6-8.9l-2.2,3.7l-5.6-2.2v-4l-1-0.9l-0.4-4.5l-4.2,1l-1.5,2.3l-4.7,0.9
			l-0.8,3.5l-3.7,4.6l-5.2,0.5l-0.6,0.3l2,1.6l3.9,0.2l2.6,1.5l-3.7,5.2l1.7,2.1L182.1,106.1z"></path>
		<path d="M156.2,95.6l-1.4,1.5l-3.1-0.4c-0.3,0.2-1.3,0.6-2.3,1.1c-0.9,0.5-2,0.8-3,1c-1.4,1.6-2.6,3.2-3.7,5l0.1,0.1l4.9,2.5
			l0.4,4.9l3,4.3l2.2-0.8l0.6-2.6l7.6,0.8l2.4,3.2l4-1.1l13.5-7.5l-0.8-4.5l-2.1-2.5l3.6-5l-1.5-0.9l-3.9-0.2l-2.8-2.1l-1,0.4
			l-10.4-0.3l0.3,3.2l-3.7,0.8L156.2,95.6z"></path>
		<path d="M197.1,182.8l1-0.3l-0.2-2l3.6-1.8l0.7-4.5l2.8-0.3V170l3.4-1.4l2.4-2.5l4-0.6l0.7-8.6l-3.3-5.8l0.3-3.1l-3.9-3.9l1.2-4.7
			l12.7-4.4l10.4,4.2l1.9-3.9l-3.7-1.5l-2.8-4.6h-3.9l2.1-11.6l-2.5-3.5l-3,4h-6.9l-2.8,1.3l-2.7-0.8l-0.9,1.5l-2.1-1.6l0,0
			l-5.2-8.3l-5,1.9l-9.5-5.5l-3.6,0.5l0.2,1l-0.7,0.4l1.9,5.7l-1,3.1l4.9,8.3l-1.7,2l-3,9.4l-2.2,3.9l0.5,3.7l0.1-0.1l4.5,4.7
			l3.5-0.7l-3.7,13.9l2.5,5.1l5.3,8.4L197.1,182.8z"></path>
		<path d="M182,136.6l3-9.5l1.5-1.6l-4.9-8.1l1.1-3.2l-1.8-5.2l-12.6,7l-4.8,1.4l-2.5-3.5l-6.4-0.6l-0.5,2.3l-2.4,0.9l3.1,4.3
			l-1.6,3.9l0.7,2.1l-3.7,8.7l2.3,3.8v2.6l3.1,0.8l1.7,1.7l2.5,0.2l2.4,4l3.5,3.2l0.7-1.2l6.1,4.2l7.9-9.3l-0.7-4.8L182,136.6z"></path>
		<path d="M286.6,138.9l-0.8-4.9l-7.8-6l-1.5-5.1l-4.8-1.4l-1.2-4.5l-1.6-3.2l0.6-0.6l-2.2-1.4l-3.6-2l-2.1,4.5l-3.1-1.8h-4.9
			l-0.5-4.8l-1.9-0.8l-4.1,5.1l-3.1,7.2l-6.1,0.2l-3,6.1h-2.3l-3.4,3.3l2.5,4.3l4.4,1.7l-2.7,5.6l-10.9-4.3l-11.9,4l-0.9,3.7
			l3.8,3.8l-0.4,3.3l3.4,5.8l-0.8,9.6l-4.4,0.7l-2.4,2.5l-3,1.1v4.1l-2.8,0.4l-0.7,4.3l-3.4,1.7l0.1,2.1l-2.2,0.7l-2.7,2.5L192,192
			l2.1,1.1l1.2-4.8l7.3,1.8l1.1-6.3l4.4,1.6l1.6-2.5l5.6,0.5l0.2-6.5l3.1,3.5l2.8-0.7l-1.2-4.5l4.4,4l1.4-3.3l2.8-0.7l3.1,3.5l3.4-7
			l7.7,0.7l1.2-2.5l2.1,1.1l-2.1-8.3l1.1-3.1l11.2-6l9.1,3.2l2.8,2.4l2.5-1.4l-1.4-2.8l1-1l-1.2-5.5l-2.3-0.3l6.1-3.5l3.4,7.2
			l1.4-2.1l6.6-6.2l-1.2-3L286.6,138.9z"></path>
		<path d="M43.2,149.8v-4.4l1.2-1.7l-2.9-2.1l-1.5-5.9l-3.4,1.2l3-6.9l13.3-9.3l1.1-6.1l-0.8-2.1l-2.5-8.5l0.3-4.2l-3.6-4.7
			l-1.7-13.3L35,80.3l-0.1-0.1L20.2,68.6L5.4,113.5l9.5,7.5l2.4,9.5L10,159l4.5,1.6l0.9,4.4h4.9l1.9-2.1l9.9,4.7l3.5-7.3l6.3-0.7
			l4.9,2.3h0.5L45,151.4L43.2,149.8z"></path>
		<path d="M110.3,164.9l-1.9-2.8l-3.4-1.3l-1.4-4.2l-8.3,0.7l-6.5-11.5l-3.7-0.3l-3.4-3.8l1.3-6.8l2.2-1l-1.5-3.1l5.4-2.8l-10.6-6.2
			l-10.6-2.5l-1.5-1.9l-2.4,0.7l-2.5,7.8l7.1,5.8l-2.9,2.6h-3.1l-3.7,2.6l-12.6-0.3l-2.4-1.8l-3,0.6l1.4,5.7l3.4,2.4l-1.6,2.2v3.7
			l1.7,1.5l2.5,11.1l14.3,1.1l6.6,6.7l-0.1,5.6l7-0.4l5.6-11.4l8.9,1.1l1.1,11.7l1.9,2.1l-2.6,4.7l3.5,4.1l1.9-1.6l2.5-9.3l6.6,0.4
			l9.1-8.5l-1.2-2.7L110.3,164.9z"></path>
		<path d="M151.8,167.8l2.3-4.2l-2-1.3l-3.2-0.7l-2.8-2.1l-4.4-0.4l-5.4-3.8l-2.2-2.9h-2.6l-0.1-0.2c-1.2-1.6-2.6-3-4-4.4l-3.6-0.5
			l-3.4,2.2l-2.8-1.9l-2.7-0.7l0.5,2.3l6.4,6l-1,4.9l-7.3-0.6l-2.4-0.8l-0.7,2.2c-0.1-0.3-0.4-0.5-0.8-0.5h-0.1l0.9-2.9l3.2,1
			l6.4,0.5l0.7-3.5l-6.2-5.9l-0.9-4l4.3,1.1l2.4,1.6l3.2-2l3.2,0.5l-1.1-5.7l-0.7-5l-1.8-3.5h-2.8l-1.2,1.9l-8.8,1.1l-4.1-2.8h-2.7
			l0.8-8.4l2.3-0.7l0.1-2.3l-1-1l-4,2.1L95,118l-1.5-1v1.9l-1.1,6.3l-1.7,0.7l-0.3,1.9l0.5,0.3l-6.1,3.2l1.6,3.2l-2.7,1.2l-1.1,5.8
			l2.9,3.2l3.8,0.4l6.5,11.4l8.5-0.7l1.5,4.5l3.1,1.1c-0.1,0.2-0.1,0.4-0.1,0.6c0,0.7,0.4,1.3,1,1.3c0.2,0,0.4-0.1,0.5-0.2l0.8,1.1
			l3.2,0.7l1.2,2.9l0.4-0.3l4.4,4.6l1.2-1.4l-2.1-3.5l3-3.2l4.6,6.8l0.4,7.4l6,8.2l-2.6,0.2l-2.4,5.6l-2.6,1.2l1.2,2.1h7.7l-1-1.6
			l12.1-11.9l2.8-7l2.6,5.4l5.3,3.5l2.3-7.5l-3.1-1L151.8,167.8z"></path>
		<path d="M102.5,82.5l3.4,4.6l-2.3,8.5l-5.4-2.4l-5,2.3l-2.6-2.2l-3-12.3L87,80.5l-4.5,3.9l1.5,3l-1.2,2.5l3.7,8l-1,3.4l3,3.3
			l3.4-0.5l2.3,4.4l-3.4,1.6l-1.7,5.5l1.9,4.5l0.4,3.8l-0.2,1l0.7-0.3l1-5.7v-3.7l3,2.1l6.2,4.2l4.1-2.1l1.8,1.8l-0.2,3.4l-2.3,0.7
			l-0.6,6.7h1.9l4,2.8l8-1l1.2-2h3.9l2.1,4.2l0.5,3.6l0.7-0.4l0,0l0,0l5.3-2.6l3.1-1.1l1.3-5.4l-4.5-3.3v-3.9l4-1.9l2,2.8l1-1.4
			l-3.9-3.7v-3.8l4.3-0.4l0.7-3.4h6.7l-0.3-4l-4.6-2.4l-0.2-0.3l-0.6-0.4l0.1-0.2l-5.3-6.1l0.4-6.9l0.5-3.1l-3.2-3l-3,0.3l-1.5-2.5
			l0.7-4.5l-0.6-4.1l4.8-2.3v-2l-1-1.9l-0.5-1.8l-6.5-4l-1.6,5.5l0.5,4.2l-8.9,0.9l-1.8,12.1l-2.5,0.2l-1.6-3.1l-8.3-0.8L102.5,82.5
			z"></path>
		<path d="M159.2,145.5l-2.4-0.2l-1.8-1.8l-3.6-0.9v-3l-2.3-4l3.7-8.8l-0.7-2.1l1.5-3.8l-3.2-4.4l-3.2-4.5H141l-0.7,3.3l-4.1,0.4
			v2.5l4.2,4l-2.2,3.2l-2.3-3.2l-2.7,1.3v2.8l4.6,3.4l-1.5,6.5l-3.5,1.3l-6.3,3.2l0.1,0.5l1.2,6c0.9,0.7,1.7,1.5,2.4,2.4
			c0.8,0.9,1.5,1.8,1.8,2.1h2.6l2.4,3.1l5.1,3.6l4.4,0.4l2.8,2.1l3.1,0.7l2.1,1.4l4.1-7.4l5.3-0.5l1.3-2.2l-3.7-3.5L159.2,145.5z"></path>
	</g>
	<g id="bg-white" class="bg-white">
		<path d="M42.9,76.7c-0.1-0.6-0.3-1.5-0.5-2.3c-0.7-3.6-0.5-3.9-0.3-4.1c0.1-0.1,0.3-0.2,0.5-0.2c2.3,0.6,4.6,1.4,6.8,2.3l15.1,2.9
			l2.2-2.1h4v4l4.2,2.1l-0.2,2.8l2.1,0.1l3.1-2.9l0,0l4.9-4.2l1.5,1.2l3,12.3l1.9,1.6L96,88l4.8,2.1l1.9-7l-3.3-4.5v-2.1l-4.1-0.4
			l-0.2-7l10.9-0.7l-2.1-7.5l1.2-14.9L99,41.6l0.5-3.2L99,36.2l-14.2,7l-2.3-4.4l0.9-9.6l1-3.5l-2.8-8.1l-5.4,0.2l-1.6-1.2L73,16.7
			l-2.3,4.2l-1,12.1l-3.5,2L62,32.9l-3.6-3.5v5l-2.2,1l1.2,6l-2,1.9l-3.2,8.4l-16.5-0.9h-0.1L24,47.2l-5.4,16.5l14.9,11.7L42.9,76.7
			z"></path>
		<path d="M101.3,90.9l-5.1-2.3l-4.9,2.3L89,89l-3-12.3l-1-0.9l-5.1,4.4l-2.8,2.6l-2.8-0.2l0.2-3l-4.2-2.1v-3.9H67l-2.3,2.1l-15.4-3
			c-2.2-0.9-4.4-1.7-6.7-2.3c-0.2,0.2-0.2,0.8,0.3,3.7c0.2,0.9,0.4,1.7,0.5,2.3l0.2,0.7l-10.3-1.5L18,63.8l5.7-17.3l12,3.8l16.1,0.9
			L55,43l1.9-1.8l-1.2-6.1L58,34v-5.9l4.4,4.3l3.9,1.9l3-1.7l1.1-12l2.4-4.4l2-0.2l1.6,1.2L82,17l3,8.6l-1.1,3.6L83,38.7l2,3.8
			l14.3-7.1l0.7,3l-0.5,2.9l6.3,4.5L104.6,61l2.2,8.1l-11,0.7l0.1,6.1l4.1,0.4v2.4l3.3,4.6L101.3,90.9z M89.9,88.4l1.6,1.3l4.7-2.2
			l4.5,2l1.7-6.1L99,78.9v-1.8l-4.1-0.4l-0.2-7.9l10.7-0.7l-2-7V61l1.2-14.6l-6.3-4.6l0.6-3.4l-0.4-1.6l-14.1,7l-2.6-5l0.9-9.9
			l1-3.4l-2.6-7.6l-5.2,0.2L74.4,17l-1.1,0.1L71.1,21L70,33.2l-4,2.2l-4.6-2.3l-2.7-2.7v4.1l-2.1,1l1.2,5.9l-2.2,2l-3.3,8.7l-17-0.9
			l-11.1-3.5L19,63.5l14.5,11.4l8.6,1.2c-0.1-0.5-0.2-1.1-0.4-1.6C41,71,41.2,70.4,41.5,70c0.2-0.3,0.5-0.4,0.9-0.4
			c2.4,0.6,4.7,1.4,7,2.3l14.8,2.9l2.2-2h4.7V77l4.2,2.1l-0.1,2.6l1.4,0.1l3.4-3.2l0,0l4.8-4.1l1.9,1.6L89.9,88.4z"></path>
		<path d="M133.5,65.3v2.9l-4.7,2.3l0.5,3.6l-0.7,4.3l1,1.7l2.7-0.2l3.8,3.6l-0.6,3.6l-0.3,6.4l4.9,5.6c0.4-0.6,0.9-1.3,1.4-2.1
			s1.2-1.6,1.6-2.1c0.6-0.8,1-1.1,1.4-1c1.7-0.5,3.4-1.2,5-2.1l0.1-0.1l2.9,0.3l1.5-1.6l3.3,1.1l2.6-0.6l-0.4-3.5l11.3,0.4l2.6-1
			l5-0.5l3.3-4.1l0.9-3.9l4.9-0.9l1.6-2.3l4.7-1.2l-0.6-4.2v-4.1l-4.4-1.7l-0.8-1.3l-7.3-1.9l-3.1,2.3l-2.3-1.8l-2.1,1l-2-1.2
			l-5.3,2.1l-0.2,3.1l-4.6-0.2l-9.3-7.5l-1-2.6l-6.8-1.4l-1.8,2.3l-3.3-5.4h-2.1l-1.4,8.2l-3.2,1.9l0.4,1.6L133.5,65.3z"></path>
		<path d="M140.1,99.9l-5.4-6.2l0.4-6.6l0.5-3.4l-3.5-3.3l-2.8,0.2l-1.2-2.1l0.7-4.4l-0.5-3.9l4.8-2.3v-2.4l-1.1-2l-0.5-1.9l3.4-2
			l1.4-8.4h2.8l3.1,5l1.5-1.9l7.4,1.5l1.1,2.8l9.1,7.4l3.9,0.1l0.2-3l5.8-2.3l1.9,1.2l2.1-1.1l2.2,1.7l3-2.2l7.7,2l0.8,1.4l4.6,1.8
			V70l0.7,4.5l-4.9,1.2l-1.6,2.3l-4.7,0.9l-1,3.8l-3.4,4.3l-5.1,0.5l-2.6,1L160,88.1l0.4,3.3l-3.2,0.7L154,91l-1.4,1.6l-3-0.4
			c-1.6,0.8-3.4,1.5-5.1,2.1h-0.1c-0.1,0-0.3,0.1-0.9,0.9c-0.4,0.5-0.9,1.2-1.5,2.1s-1,1.5-1.4,2.1L140.1,99.9z M135.7,93.3l4.3,5
			c0.3-0.5,0.7-1,1.1-1.5c0.6-0.9,1.2-1.6,1.6-2.1c0.6-0.7,1.1-1.3,1.8-1.2c1.6-0.6,3.2-1.2,4.7-2l0.3-0.1l2.8,0.3l1.5-1.7l3.5,1.2
			l2-0.5l-0.4-3.6l11.8,0.4l2.6-1L178,86l3.1-3.9l1-4.1l5-0.9l1.5-2.2l4.4-1.1l-0.6-3.8v-3.8l-4.2-1.6l-0.8-1.3l-6.9-1.8l-3.3,2.4
			L175,62l-2.1,1l-1.9-1.2l-4.7,1.9l-0.2,3.3l-5.2-0.2l-9.5-7.7l-1-2.5l-6.3-1.3l-2,2.6l-3.6-5.8h-1.4l-1.4,8l-3.2,1.9l0.3,1.1
			l1.1,2v3.3l-4.6,2.2l0.5,3.3l-0.7,4.2l0.8,1.3l2.6-0.2l4.2,4l-0.6,3.8L135.7,93.3z"></path>
		<path d="M88.3,119.8l-0.3-3.5l-2-4.6l1.9-6.3l2.9-1.3l-1.5-2.9l-3.2,0.5l-3.7-4.1l1.1-3.6l-3.7-8.1l1.2-2.5L79.7,81l-2.5,2.3
			l-3.5-0.2l0.2-3.1l-4.2-2.1v-3.7H67l-2.3,2.1l-15.7-3l0,0c-2.5-1-5.2-1.9-6.2-2.2c0.2,2,0.6,3.9,1.1,5.8l0.6,0.1l1.8,13.7l3.7,4.8
			l-0.4,4.5l2.4,8.3l0.9,2.2l-1.3,6.8l-13.4,9.3l-2,4.6l2.3-0.9v0.1l3.4-0.7l2.5,1.8l12,0.3l3.7-2.6h3.1l1.7-1.6l-6.7-5.5l2.8-9
			l3.6-1l1.7,2.2l10.4,2.4l10.9,6.4l0.3-1.7l-0.1-0.3L88,121L88.3,119.8z"></path>
		<path d="M56.7,132.5l-12.3-0.4l-2.4-1.8l-3.7,0.7l-2.9,1.1l2.5-5.8l13.3-9.3l1.2-6.5l-0.9-2.1L49,99.9l0.4-4.4l-3.7-4.7l-1.8-13.5
			l-0.6-0.1l0.1-0.2c-0.5-1.9-0.9-3.9-1.1-5.9v-0.6l0.6,0.2c1.1,0.3,4,1.3,6.2,2.2l15.4,3l2.3-2.1h3.4v3.9l4.2,2.1l-0.2,3L77,83
			l2.8-2.6l1.6,3.2l-1.2,2.5l3.7,8.1l-1,3.5l3.3,3.7l3.3-0.5l2,3.7l-3.2,1.4l-1.8,5.9l1.9,4.6l0.3,3.6l-0.7,4.2l-11.4-6.7L66.2,115
			l-1.6-2.1l-3,0.9l-2.7,8.3l6.9,5.6l-2.3,2.1h-3.1L56.7,132.5z M44.8,131.1l11.6,0.3l3.7-2.6h3.1l1.2-1.1l-6.5-5.3l3-9.5l4.1-1.2
			l1.8,2.4l10.4,2.5l10.2,6l0.1-0.8l-0.2-0.6l0.4-0.1l0.2-1.1l-0.3-3.4l-2-4.7l2-6.7l2.6-1.2l-1.1-2.2l-3.2,0.5l-4.1-4.5l1.1-3.7
			L79.2,86l1.2-2.4l-0.8-1.5l-2.2,2l-4.2-0.3l0.2-3.3l-4.2-2.1v-3.5h-2l-2.4,2.2L48.7,74c-2.2-0.8-4.3-1.6-5.4-2
			c0.1,1,0.5,2.8,0.9,4.7l0.7,0.1l1.8,14l3.8,4.8l-0.4,4.6l2.4,8.2l1,2.3l-1.4,7.2l-13.4,9.4l-1.4,3.4l1.7-0.6v0.2l3.2-0.6
			L44.8,131.1z"></path>
		<path d="M238.1,41.3l4.7,3.1l-2.4,5.8l4.2,2.5v3.1l1.9,2.5l-3.1,3.8v4.6l-2.9,0.8l-6.4-1.9l-7.2,1.5l-1.1,1.8l3.3,3.2l0.2,1.2
			l2.1,1.7l1.8-1l2.2,2.6l-0.6,1.8l5.5-1.8l1,1.6l3.9,1.2l3.6-0.8l3,1.9l6.3,5.3l2.4-0.3l3.2-0.8l1.1-1.9l-1-3.3l2.8-1.9l1.2-5.7
			l5.4-3.1l3.9-0.5l1.6-5.8l-4.2-0.4l-3.2-3.3l-3.8-0.4l0.3-1.7l1.6-1.1L269,41.3l-5.4,0.7l-4.4-2.3l-2.4-6l5.9-3.5l4.4-0.7l2.5-4.9
			l-6.9-8.8l-0.7-3.5l-4.5,0.2l-9.2,7.7l-10.8,14.2l-4.5,1l4.2,1.3L238.1,41.3z"></path>
		<path d="M258,86.4l-6.5-5.4l-2.8-1.8l-3.5,0.7l-4.2-1.2l-0.9-1.4l-6,1.9l0.7-2.5l-1.7-2.1l-1.8,1l-2.5-2.1l-0.2-1.2l-3.5-3.3
			l1.4-2.3l7.5-1.6l6.3,1.9l2.4-0.7V62l3-3.7l-1.8-2.3v-3l-4.4-2.6l2.5-5.8l-4.5-3l-0.9-4.6l-5.7-1.8l6.2-1.3l10.9-14l9.2-7.8
			l5.1-0.2l0.8,3.8l7,8.9l-2.7,5.4l-4.5,0.7l-5.5,3.2l2.2,5.4l4.1,2.1l5.8-0.8l0.4,15.2l-1.6,1.1l-0.2,1l3.5,0.3l3.2,3.3l4.6,0.4
			l-1.8,6.7l-4.1,0.6l-5.2,3l-1.2,5.6l-2.7,1.8l1,3.2l-1.3,2.2l-3.4,0.9L258,86.4z M248.9,78.1l3.2,2l6.2,5.2l2.2-0.3l2.9-0.8
			l0.9-1.5l-1.1-3.5l3-2l1.2-5.6l5.8-3.3l3.5-0.5l1.3-4.9l-3.8-0.3l-3.1-3.3l-4.2-0.4l0.5-2.5l1.5-1l-0.3-13.6l-5,0.6l-4.7-2.4
			l-2.7-6.5l6.5-3.8l4.1-0.7l2.2-4.4l-6.7-8.6l-0.6-3.2l-4,0.2l-8.9,7.6l-11,14.3l-2.8,0.6l2.7,0.8l0.9,4.7l4.9,3.2L241,50l4.1,2.5
			v3.2l2,2.6l-3.2,4v4.8l-3.4,1l-6.4-1.9l-6.9,1.4l-0.8,1.2l3.2,3l0.2,1.2l1.6,1.4l1.9-1.1l2.6,3.1l-0.3,1.2l5-1.6l1.1,1.7l3.6,1
			L248.9,78.1z"></path>
		<path d="M193.9,65.1v4.7l0.8,5l0,0l0.3,4.3l1,0.9v3.7l4.3,1.7L203,81l5.2,10l2.8,0.9l3.5-6.1l2.8,0.9l3.7-4.1l0.4-5.5l4.3,1.4
			l2.7-5.1l-0.1-0.9l-3.7-3.4l1.7-2.8l7.9-1.7l6.3,1.9l1.9-0.5v-4.2l2.9-3.5l-1.6-2.1v-2.9l-4.6-2.7l2.5-5.8l-4.4-2.9l-0.8-4.5
			l-5-1.5l-2.5,3.3l-12.8,7.3l-6.3,0.4l-2.1,4l-3,0.7l-2.3,3.3l-3,0.6l-7.3,6.3l-2.3-0.9l-1.2,1.3l0.6,1.1L193.9,65.1z"></path>
		<path d="M211.2,92.5l-3.4-1.1l-4.9-9.4l-2.4,4l-4.9-1.9v-3.8l-1-0.9l-0.4-4.9l-0.7-4.5v-4.4l-4.5-1.8l-0.9-1.6l1.7-1.9l2.3,0.9
			l7.2-6.2l2.9-0.5l2.3-3.3l3-0.7l2.1-4.1L216,46l12.6-7.2l2.6-3.5l5.6,1.8l0.9,4.6l4.6,3l-2.5,5.8l4.4,2.6v3l1.8,2.3l-3,3.7v4.4
			l-2.5,0.7l-6.3-1.9l-7.5,1.6l-1.4,2.3l3.5,3.3l0.2,1.2l-3,5.6l-4-1.4l-0.4,5.1l-4,4.4l-2.8-0.9L211.2,92.5z M208.5,90.6l2.2,0.7
			l3.5-6.1l3,0.9l3.4-3.7l0.4-6l4.5,1.5l2.4-4.6l-0.1-0.6L224,69l2-3.3l8.2-1.7l6.3,1.9l1.5-0.4v-4l2.7-3.4l-1.5-1.9v-2.8l-4.6-2.8
			L241,45l-4.2-2.8l-0.9-4.4l-4.4-1.4l-2.4,3.2L216.2,47l-6.1,0.3l-2.1,4l-3,0.7l-2.3,3.4l-3,0.5l-7.5,6.4l-2.2-0.9l-0.7,0.8
			l0.4,0.6l4.9,1.9v5l0.8,5.3h-0.1l0.3,3.7l1.1,0.9v3.6l3.5,1.4L203,80L208.5,90.6z"></path>
		<path d="M51.5,50.8l3.1-8.1l1.8-1.6l-1.3-6.2l2.4-1.1v-5.4L34.1,5.5l-9.7,40.3l-0.1,0.5l11.5,3.6L51.5,50.8z"></path>
		<path d="M51.8,51.3l-16.2-0.9l-11.9-3.8l0.3-0.9l9.8-41.2L58,28.2v5.9l-2.3,1l1.2,6.1L55,43L51.8,51.3z M35.8,49.4l15.3,0.8l3-7.8
			l1.7-1.5l-1.3-6.4l2.4-1.1v-4.8L34.4,6.5L24.9,46L35.8,49.4z"></path>
		<path d="M180.1,102.1l4-0.5l9.4,5.4l5.3-2l5.5,8.9l1.1,0.8l0.8-1.2l3,0.9l2.8-1.2h6.5l3.6-4.7l3.4,4.9l-2,10.8h2.9l3.9-3.6h2
			l2.9-6.2l6.2-0.1l2.8-6.8l4.7-5.8l3,1.3l0.6,4.6h4.2l2.5,1.4l2.1-4.6l4.5,2.6l2.3,1.5l4.8-5.4l0.5-6.8l-4.7-8.4l-4.2-0.4l-1.6-1.5
			l0.1-0.1l-2.3,0.5l-2.9,0.4l-6.6-5.5l-2.6-1.7l-3.4,0.7l-4.5-1.3l-0.8-1.2l-6.5,2.1l0.9-3.1l-1.3-1.6l-1.7,1l-2.3-1.9l-2.9,5.4
			l-3.8-1.3L222,83l-4.4,4.8l-2.7-0.9l-3.5,6.1l-3.9-1.2l-4.6-8.9l-2.2,3.7l-5.6-2.2v-4l-1-0.9l-0.4-4.5l-4.2,1l-1.5,2.3l-4.7,0.9
			l-0.8,3.5l-3.7,4.6l-5.2,0.5l-0.6,0.3l2,1.6l3.9,0.2l2.6,1.5l-3.7,5.2l1.7,2.1L180.1,102.1z"></path>
		<path d="M226.6,124.7h-3.7l2.1-11.2l-3-4.2l-3.3,4.4H212l-2.8,1.2l-2.8-0.9l-0.9,1.4l-1.6-1.3l-5.4-8.5l-5.1,1.9l-9.4-5.4
			l-4.3,0.5l-0.7-3.7l-1.9-2.3l3.7-5.1l-2.1-1.2l-3.9-0.2l-2.9-2.2l1.6-0.6l5-0.5l3.5-4.4l0.9-3.7l4.7-0.9l1.6-2.3l5-1.2l0.4,4.9
			l1,0.9V84l4.9,1.9l2.5-4l4.9,9.5l3.3,1l3.5-6.1l2.8,0.9l4-4.4l0.4-5.1l4,1.4l3-5.6l2.5,2.1l1.8-1l1.8,2.1l-0.7,2.4l5.9-1.9
			l0.9,1.4l4.2,1.2l3.5-0.7l2.8,1.7l6.6,5.5l2.6-0.4l3.4-0.9l-0.5,0.8l1.2,1.2l4.3,0.4l4.9,8.8l-0.5,7.2l-5.1,5.8l-2.7-1.7l-4-2.3
			l-2.1,4.5l-2.8-1.6H252l-0.5-4.7l-2.4-1l-4.4,5.4l-3,7l-6.1,0.2l-3,6.1h-2.1L226.6,124.7z M224.1,123.7h2.1l3.9-3.7h1.9l3-6.1
			l6.1-0.2l2.8-6.6l4.9-6.1l3.7,1.6l0.5,4.4h3.9l2.1,1.2l2.1-4.6l5,2.8l2,1.3l4.3-4.8l0.5-6.5l-4.5-8l-4.1-0.3l-1.6-1.6l-1.8,0.5
			l-3.1,0.4l-6.8-5.7l-2.4-1.5l-3.4,0.7l-4.8-1.4l-0.7-1.1l-7,2.3l1.1-3.7l-0.9-1.1l-1.6,1l-2.1-1.8l-2.8,5.3l-3.6-1.2l-0.3,4.1
			l-4.7,5.1l-2.6-0.8l-3.5,6.1l-4.5-1.4l-4.3-8.3l-2,3.2l-6.3-2.5v-4.1l-1-0.9l-0.3-4.2l-3.4,0.9l-1.6,2.3l-4.5,0.8l-0.8,3.3
			l-3.8,4.8l-5,0.5l1.2,0.9l3.8,0.2l3.2,1.9l-3.9,5.3l1.6,1.9l0.5,3l3.6-0.5l9.4,5.4l5.4-2l5.8,9.1l0.6,0.5l0.7-1.1l3.2,1l2.8-1.2
			h6.3l3.8-5.1l4,5.6L224.1,123.7z"></path>
		<path d="M154.2,91.6l-1.4,1.5l-3.1-0.4c-0.3,0.2-1.3,0.6-2.3,1.1c-0.9,0.5-2,0.8-3,1c-1.4,1.6-2.6,3.2-3.7,5l0.1,0.1l4.9,2.5
			l0.4,4.9l3,4.3l2.2-0.8l0.6-2.6l7.6,0.8l2.4,3.2l4-1.1l13.5-7.5l-0.8-4.5l-2.1-2.5l3.6-5l-1.5-0.9l-3.9-0.2l-2.8-2.1l-1,0.4
			l-10.4-0.3l0.3,3.2l-3.7,0.8L154.2,91.6z"></path>
		<path d="M161.7,112.8l-2.5-3.3l-7-0.7l-0.5,2.5l-2.8,1.1l-3.3-4.8l-0.4-4.7l-4.8-2.5L140,100l0.2-0.3c1.1-1.8,2.4-3.5,3.8-5.1
			l0.1-0.1h0.2c1-0.2,1.9-0.5,2.8-1c1-0.4,2-0.9,2.3-1.1l0.1-0.1l3,0.4L154,91l3.2,1l3.1-0.7l-0.4-3.3l10.9,0.4l1.2-0.5l2.9,2.2
			l3.9,0.2l2.1,1.2l-3.7,5.1l1.9,2.3l0.9,4.9l-13.9,7.7L161.7,112.8z M151.5,107.7l8.3,0.8l2.3,3.1l3.6-1l13.1-7.3l-0.7-4l-2.2-2.7
			l3.5-4.8l-1-0.6l-3.9-0.2l-2.7-2.1l-0.8,0.3l-10-0.3l0.3,3.1l-4.3,1l-2.8-0.9l-1.3,1.5l-3.2-0.4c-0.4,0.2-1.3,0.6-2.2,1
			c-1,0.5-2,0.8-3,1.1c-1.2,1.4-2.2,2.8-3.2,4.3l4.8,2.5l0.4,5l2.7,3.9l1.6-0.6L151.5,107.7z"></path>
		<path d="M195.1,178.8l1-0.3l-0.2-2l3.6-1.8l0.7-4.5l2.8-0.3V166l3.4-1.4l2.4-2.5l4-0.6l0.7-8.6l-3.3-5.8l0.3-3.1l-3.9-3.9l1.2-4.7
			l12.7-4.4l10.4,4.2l1.9-3.9l-3.7-1.5l-2.8-4.6h-3.9l2.1-11.6l-2.5-3.5l-3,4h-6.9l-2.8,1.3l-2.7-0.8l-0.9,1.5l-2.1-1.6l0,0
			l-5.2-8.3l-5,1.9l-9.5-5.5l-3.6,0.5l0.2,1l-0.7,0.4l1.9,5.7l-1,3.1l4.9,8.3l-1.7,2l-3,9.4l-2.2,3.9l0.5,3.7l0.1-0.1l4.5,4.7
			l3.5-0.7l-3.7,13.9l2.5,5.1l5.3,8.4L195.1,178.8z"></path>
		<path d="M194.8,179.4l-3.9-7.3l-5.2-8.4l-2.6-5.3l3.5-13.2l-3,0.6l-4.4-4.5l-0.4,0.4l-0.2-1l-0.5-3.8l2.3-4l3-9.5l1.5-1.7
			l-4.9-8.2l1-3.2l-2-5.9l0.8-0.4l-0.2-1.2l4.3-0.6l9.5,5.4l5.1-1.9l5.5,8.6l1.5,1.2l0.9-1.4l2.8,0.9l2.9-1.2h6.5l3.4-4.4l3,4.2
			l-2,11.1h3.7l2.8,4.7l4,1.6l-2.3,4.8l-10.7-4.2l-12.3,4.2l-1,4.2l3.9,3.9l-0.4,3.2l3.3,5.8v0.1l-0.7,9l-4.2,0.7l-2.5,2.5l-3,1.2v4
			l-2.8,0.4l-0.7,4.4l-3.5,1.8l0.2,2.1L194.8,179.4z M184.2,158.3l2.4,4.9l5.2,8.4l3.5,6.6l0.2-0.1l-0.2-2l3.6-1.8l0.7-4.6l2.7-0.3
			v-3.8l3.6-1.4l2.5-2.5l3.8-0.6l0.6-8l-3.3-5.8l0.3-3l-3.9-3.9l1.3-5.3l13.1-4.5l10.2,4l1.4-3l-3.4-1.3l-2.7-4.5h-4.3l2.2-12
			l-2-2.8l-2.8,3.7h-7l-3,1.3l-2.4-0.8l-1,1.7l-2.6-2.1l-5.1-8l-4.8,1.8l-9.6-5.5l-2.9,0.4l0.2,0.9l-0.7,0.4l1.9,5.4l-1,3l5,8.5
			l-1.9,2.1l-3,9.4l-2.1,3.9l0.5,3.2l4.3,4.5l4-0.8L184.2,158.3z"></path>
		<path d="M180,132.6l3-9.5l1.5-1.6l-4.9-8.1l1.1-3.2l-1.8-5.2l-12.6,7l-4.8,1.4l-2.5-3.5l-6.4-0.6l-0.5,2.3l-2.4,0.9l3.1,4.3
			l-1.6,3.9l0.7,2.1l-3.7,8.7l2.3,3.8v2.6l3.1,0.8l1.7,1.7l2.5,0.2l2.4,4l3.5,3.2l0.7-1.2l6.1,4.2l7.9-9.3l-0.7-4.8L180,132.6z"></path>
		<path d="M170.6,151.5l-6.1-4.2l-0.7,1.3l-4-3.8l-2.2-3.8l-2.5-0.2l-1.8-1.8l-3.3-0.9v-2.8l-2.3-3.9l3.7-8.8l-0.7-2.1l1.6-3.9
			L149,112l2.8-1.1l0.5-2.5l7,0.7l2.5,3.3l4.4-1.2l13.1-7.3l2,5.9l-1,3.1l4.9,8.2l-1.6,1.8l-3,9.5l-2.2,4l0.7,4.9L170.6,151.5z
			 M164.2,145.9l6.2,4.2l7.5-8.8l-0.7-4.8l2.4-4.2l3.1-9.6l1.2-1.3l-4.8-8l1.1-3.3l-1.5-4.5l-12.2,6.8l-5.1,1.4l-2.6-3.5l-5.7-0.6
			l-0.5,2.1l-2.1,0.8l2.9,4l-1.6,4l0.7,2.1l-3.6,8.6l2.2,3.7v2.3l2.9,0.8l1.7,1.7l2.6,0.2l2.5,4.2l3,2.8L164.2,145.9z"></path>
		<path d="M284.6,134.9l-0.8-4.9l-7.8-6l-1.5-5.1l-4.8-1.4l-1.2-4.5l-1.6-3.2l0.6-0.6l-2.2-1.4l-3.6-2l-2.1,4.5l-3.1-1.8h-4.9
			l-0.5-4.8l-1.9-0.8l-4.1,5.1l-3.1,7.2l-6.1,0.2l-3,6.1h-2.3l-3.4,3.3l2.5,4.3l4.4,1.7l-2.7,5.6l-10.9-4.3l-11.9,4l-0.9,3.7
			l3.8,3.8l-0.4,3.3l3.4,5.8l-0.8,9.6l-4.4,0.7l-2.4,2.5l-3,1.1v4.1l-2.8,0.4l-0.7,4.3l-3.4,1.7l0.1,2.1l-2.2,0.7l-2.7,2.5L190,188
			l2.1,1.1l1.2-4.8l7.3,1.8l1.1-6.3l4.4,1.6l1.6-2.5l5.6,0.5l0.2-6.5l3.1,3.5l2.8-0.7l-1.2-4.5l4.4,4l1.4-3.3l2.8-0.7l3.1,3.5l3.4-7
			l7.7,0.7l1.2-2.5l2.1,1.1l-2.1-8.3l1.1-3.1l11.2-6l9.1,3.2l2.8,2.4l2.5-1.4l-1.4-2.8l1-1l-1.2-5.5l-2.3-0.3l6.1-3.5l3.4,7.2
			l1.4-2.1l6.6-6.2l-1.2-3L284.6,134.9z"></path>
		<path d="M192.4,189.8l-3.1-1.5l2.6-6.2l2.8-2.6l1.9-0.5l-0.2-2.1l3.5-1.8l0.7-4.4l2.8-0.4v-4l3.2-1.3l2.5-2.5l4.2-0.7l0.7-9.1
			l-3.3-5.8l0.4-3.1l-3.9-3.9l1.1-4.2l12.3-4.2l10.7,4.2l2.3-4.7l-4-1.6l-2.8-4.8l3.9-3.7h2.1l3-6.1l6.1-0.2l3-7l4.4-5.4l2.5,1.1
			l0.5,4.7h4.5l2.8,1.6l2.1-4.6l4,2.3l2.7,1.7l-0.7,0.8l1.5,2.9l1.1,4.3l4.7,1.4l1.6,5.2l7.8,6l1,5.5l-3.2,1.7l1.2,2.9l-6.9,6.3
			l-1.9,2.8l-3.5-7.5l-4.4,2.5l1.2,0.2l1.4,6l-1,1l1.5,2.9l-3.2,1.8l-3-2.6l-8.8-3l-10.9,5.8l-0.9,2.8l2.3,9.2l-2.6-1.3l-1.2,2.3
			l-7.7-0.7l-3.5,7.4l-3.5-3.8l-2.3,0.6l-1.6,3.8l-3.6-3.3l0.9,3.4l-3.6,0.9l-2.5-2.8l-0.2,5.8l-5.8-0.5l-1.6,2.6l-4.2-1.5l-1,6.2
			l-7.4-1.8L192.4,189.8z M190.6,187.8l1.1,0.6l1.2-4.6l7.3,1.7l1.1-6.4l4.6,1.6l1.5-2.4l5.4,0.5l0.2-7.2l3.8,4.2l2-0.5l-1.5-5.7
			l5.1,4.7l1.2-2.9l3.3-0.8l2.9,3.2l3.2-6.6l7.7,0.7l1.3-2.6l1.6,0.8l-1.9-7.3l1.2-3.5l11.6-6.2l9.5,3.3l2.5,2.2l1.7-1l-1.4-2.7
			l1.1-1.1l-1.1-4.8l-3.4-0.5l7.9-4.5l3.2,6.9l1-1.5l6.4-5.9l-1.3-3.1l3.4-1.8l-0.8-4.4l-7.7-5.9l-1.5-5l-4.8-1.4l-1.3-4.8l-1.7-3.4
			l0.4-0.5l-1.7-1.1l-3.1-1.7l-2.1,4.5l-3.5-2H251l-0.6-5l-1.2-0.5l-3.8,4.8l-3.2,7.5l-6.2,0.2l-3,6.1h-2.3l-3,2.9l2.2,3.8l4.7,1.8
			l-3.1,6.5l-11.2-4.4l-11.4,3.9l-0.8,3.1l3.8,3.8l-0.4,3.3l3.3,5.8v0.1l-0.8,10l-4.6,0.8l-2.5,2.4l-2.6,1v4.2l-2.9,0.4l-0.7,4.2
			l-3.4,1.7l0.2,2.2l-2.5,0.7l-2.5,2.4L190.6,187.8z"></path>
		<path d="M41.2,145.8v-4.4l1.2-1.7l-2.9-2.1l-1.5-5.9l-3.4,1.2l3-6.9l13.3-9.3l1.1-6.1l-0.8-2.1l-2.5-8.5l0.3-4.2l-3.6-4.7
			l-1.7-13.3L33,76.3l-0.1-0.1L18.2,64.6L3.4,109.5l9.5,7.5l2.4,9.5L8,155l4.5,1.6l0.9,4.4h4.9l1.9-2.1l9.9,4.7l3.5-7.3l6.3-0.7
			l4.9,2.3h0.5L43,147.4L41.2,145.8z"></path>
		<path d="M30.3,164.3l-9.9-4.8l-1.8,2H13l-0.9-4.5l-4.7-1.6l7.4-28.9l-2.4-9.2l-9.6-7.6L18,63.8l15.2,12l10.9,1.6l1.8,13.5l3.7,4.7
			l-0.4,4.4l2.4,8.4l0.9,2.1l-1.2,6.5L38,126.3l-2.5,5.7l2.8-1l1.6,6.3l3.2,2.3l-1.4,1.9v4l1.8,1.6l2.5,11.3l-1.3-0.1l-4.8-2.2
			l-5.9,0.6L30.3,164.3z M20.1,158.3l9.7,4.7l3.4-7.2l6.7-0.8l4.6,2.2l-2.1-9.5l-1.8-1.7v-4.8l1-1.4l-2.7-1.9l-1.4-5.6l-3.9,1.5
			l3.4-8.1l13.2-9.2l1.1-5.8l-0.8-1.9l-2.5-8.6l0.3-4.2l-3.6-4.6l-1.7-13l-10.4-1.5l-0.2-0.2L18.5,65.5L4,109.3l9.3,7.4l2.5,9.8
			l-7.3,28.3l4.4,1.5l0.9,4.3h4.3L20.1,158.3z"></path>
		<path d="M108.3,160.9l-1.9-2.8l-3.4-1.3l-1.4-4.2l-8.3,0.7l-6.5-11.5l-3.7-0.3l-3.4-3.8l1.3-6.8l2.2-1l-1.5-3.1l5.4-2.8l-10.6-6.2
			l-10.6-2.5l-1.5-1.9l-2.4,0.7l-2.5,7.8l7.1,5.8l-2.9,2.6h-3.1l-3.7,2.6l-12.6-0.3l-2.4-1.8l-3,0.6l1.4,5.7l3.4,2.4l-1.6,2.2v3.7
			l1.7,1.5l2.5,11.1l14.3,1.1l6.6,6.7l-0.1,5.6l7-0.4l5.6-11.4l8.9,1.1l1.1,11.7l1.9,2.1l-2.6,4.7l3.5,4.1l1.9-1.6l2.5-9.3l6.6,0.4
			l9.1-8.5l-1.2-2.7L108.3,160.9z"></path>
		<path d="M92.4,184l-4-4.7l2.6-4.7l-1.8-2l-1-11.5l-8.2-1l-5.6,11.3l-7.9,0.4l0.2-5.9l-6.4-6.4l-14.5-1.1l-2.5-11.3l-1.8-1.6v-4
			l1.4-1.9l-3.1-2.3l-1.6-6.4l3.7-0.7l2.5,1.8l12.3,0.4l3.7-2.6h3.1l2.2-2.1l-6.8-5.6l2.6-8.4l3-0.9l1.6,2.1l10.6,2.5l11.4,6.6
			l-5.8,3l1.6,3.2l-2.5,1l-1.2,6.3l3.1,3.5l3.7,0.4l6.5,11.4l8.4-0.7l1.4,4.4l3.3,1.2l1.9,2.8l3.2,0.7l1.4,3.3l-9.5,8.8l-6.5-0.3
			l-2.4,9.1L92.4,184z M89.6,179.2l3,3.4l1.4-1.2l2.5-9.5l6.9,0.4l8.7-8.1l-0.9-2.1l-3-0.7l-2-2.9l-3.5-1.3l-1.3-4.1l-8.3,0.7
			l-6.5-11.5L83,142l-3.7-4.1l1.4-7.3l2-0.8l-1.5-3.1l5.1-2.6l-9.7-5.7l-10.7-2.5l-1.4-1.8l-1.8,0.5l-2.3,7.3l7.2,5.9l-3.4,3.1H61
			l-3.7,2.6l-12.9-0.4l-2.4-1.7l-2.3,0.4l1.2,5l3.7,2.6l-1.8,2.5v3.3l1.7,1.5l2.4,10.9l14.1,1.1l7,6.9l-0.2,5.3l6.2-0.3l5.6-11.5
			l9.7,1.1l1.1,12l2.1,2.2L89.6,179.2z"></path>
		<path d="M149.8,163.8l2.3-4.2l-2-1.3l-3.2-0.7l-2.8-2.1l-4.4-0.4l-5.4-3.8l-2.2-2.9h-2.6l-0.1-0.2c-1.2-1.6-2.6-3-4-4.4l-3.6-0.5
			l-3.4,2.2l-2.8-1.9l-2.7-0.7l0.5,2.3l6.4,6l-1,4.9l-7.3-0.6l-2.4-0.8l-0.7,2.2c-0.1-0.3-0.4-0.5-0.8-0.5h-0.1l0.9-2.9l3.2,1
			l6.4,0.5l0.7-3.5l-6.2-5.9l-0.9-4l4.3,1.1l2.4,1.6l3.2-2l3.2,0.5l-1.1-5.7l-0.7-5l-1.8-3.5h-2.8l-1.2,1.9l-8.8,1.1l-4.1-2.8h-2.7
			l0.8-8.4l2.3-0.7l0.1-2.3l-1-1l-4,2.1L93,114l-1.5-1v1.9l-1.1,6.3l-1.7,0.7l-0.3,1.9l0.5,0.3l-6.1,3.2l1.6,3.2l-2.7,1.2l-1.1,5.8
			l2.9,3.2l3.8,0.4l6.5,11.4l8.5-0.7l1.5,4.5l3.1,1.1c-0.1,0.2-0.1,0.4-0.1,0.6c0,0.7,0.4,1.3,1,1.3c0.2,0,0.4-0.1,0.5-0.2l0.8,1.1
			l3.2,0.7l1.2,2.9l0.4-0.3l4.4,4.6l1.2-1.4l-2.1-3.5l3-3.2l4.6,6.8l0.4,7.4l6,8.2l-2.6,0.2l-2.4,5.6l-2.6,1.2l1.2,2.1h7.7l-1-1.6
			l12.1-11.9l2.8-7l2.6,5.4l5.3,3.5l2.3-7.5l-3.1-1L149.8,163.8z"></path>
		<path d="M133.4,191.8h-8.9l-1.7-2.8l3-1.4l2.3-5.7l2-0.1l-5.5-7.6l-0.4-7.4l-4.1-6.2l-2.2,2.4l2.1,3.5l-1.8,2.1l-4.4-4.6l-0.5,0.5
			l-1.4-3.2l-3.2-0.7l-0.6-0.9c-0.1,0-0.2,0.1-0.3,0c-0.9-0.1-1.5-0.9-1.5-1.8l0,0c0-0.1,0-0.2,0-0.3l-2.9-1.1l-1.4-4.4l-8.4,0.7
			L87,141.4l-3.7-0.4l-3.2-3.5l1.2-6.3l2.4-1l-1.6-3.1l5.8-3l0.4-2.5l1.7-0.7l1.1-6V112l2.3,1.6l6.4,4.4l4-2.1l1.4,1.4l-0.2,2.8
			l-2.3,0.7l-0.7,7.5h2.3l4,2.8l8.4-1l1.2-1.9h3.4l2,4l0.7,5l1.2,6.3l0.3,0.1c1.5,1.4,2.8,2.9,4.1,4.5h2.6l2.3,3l5.2,3.7l4.4,0.4
			l2.8,2.1l3.2,0.8l2.4,1.5l-2.4,4.4l3.3,6.9l3.4,1.1l-2.6,8.6l-5.9-4l-2.2-4.5l-2.5,6.1L132,189.8L133.4,191.8z M125,190.8h6.5
			l-0.8-1.1l12.3-12.1l3.2-8l3.1,6.3l4.6,3.1l1.9-6.4l-2.9-1l-3.7-7.8l2.2-4l-1.5-1l-3.3-0.8l-2.7-2l-4.4-0.4l-5.6-4l-2-2.6h-2.6
			l-0.3-0.4c-1.2-1.5-2.4-2.9-3.8-4.2L122,144l-3.6,2.2l-3-2l-1.8-0.5l0.3,1.3l6.5,6.1l-1.2,5.6l-7.9-0.6l-1.9-0.6l-0.9,2.9l-0.6-1
			c-0.1-0.1-0.2-0.2-0.3-0.3h-0.2l-0.1,0.3c-0.1,0.1-0.1,0.3-0.1,0.4c0,0.4,0.2,0.8,0.5,0.8c0.1,0,0.1,0,0.2-0.1l0.4-0.3l1,1.4
			l3.3,0.7l1.1,2.4l0.2-0.2l4.4,4.5l0.6-0.7l-2.1-3.5l3.7-3.9l5,7.5l0.4,7.4l6.4,8.9l-3.2,0.2l-2.2,5.5l-2.3,1.1L125,190.8z
			 M104.1,155.7l2.9,1.1l1.1-3.6l3.6,1.1l5.9,0.5l0.6-2.8l-6.1-5.8l-1.1-5l5.3,1.4l2.2,1.4l3.1-2l2.7,0.4l-1-5l-0.7-5l-1.5-3.2h-2.2
			l-1.2,1.9l-9.2,1.1l-4.1-2.8h-3l0.9-9.3l2.3-0.7l0.1-1.7l-0.6-0.6l-3.9,2l-7.8-5.1v1l-1.2,6.6l-1.7,0.7l-0.2,1.3l1,0.5l-6.5,3.4
			l1.6,3.2l-2.9,1.3l-1,5.3l2.6,2.9l3.8,0.4l6.4,11.3l8.6-0.7L104.1,155.7z"></path>
		<path d="M100.5,78.5l3.4,4.6l-2.3,8.5l-5.4-2.4l-5,2.3l-2.6-2.2l-3-12.3L85,76.5l-4.5,3.9l1.5,3l-1.2,2.5l3.7,8l-1,3.4l3,3.3
			l3.4-0.5l2.3,4.4l-3.4,1.6l-1.7,5.5l1.9,4.5l0.4,3.8l-0.2,1l0.7-0.3l1-5.7v-3.7l3,2.1l6.2,4.2l4.1-2.1l1.8,1.8l-0.2,3.4l-2.3,0.7
			l-0.6,6.7h1.9l4,2.8l8-1l1.2-2h3.9l2.1,4.2l0.5,3.6l0.7-0.4l0,0l0,0l5.3-2.6l3.1-1.1l1.3-5.4l-4.5-3.3v-3.9l4-1.9l2,2.8l1-1.4
			l-3.9-3.7v-3.8l4.3-0.4l0.7-3.4h6.7l-0.3-4l-4.6-2.4l-0.2-0.3l-0.6-0.4l0.1-0.2l-5.3-6.1l0.4-6.9l0.5-3.1l-3.2-3l-3,0.3l-1.5-2.5
			l0.7-4.5l-0.6-4.1l4.8-2.3v-2l-1-1.9l-0.5-1.8l-6.5-4l-1.6,5.5l0.5,4.2l-8.9,0.9l-1.8,12.1l-2.5,0.2l-1.6-3.1l-8.3-0.8L100.5,78.5
			z"></path>
		<path d="M124.1,136.3l-0.6-4.2l-1.9-3.8h-3.3l-1.3,1.9l-8.4,1l-4-2.8h-2.3l0.7-7.6l2.3-0.7l0.2-2.8L104,116l-4,2.1l-8.7-5.9v2.7
			l-1.1,6l-1.7,0.7l0.3-1.8l-0.4-3.7l-1.9-4.6l1.8-6l3.1-1.4l-1.9-3.6l-3.3,0.5l-3.4-3.7l1.1-3.5l-3.7-8.1l1.2-2.5L79.8,80l5.1-4.4
			l1.1,0.9l3,12.3l2.3,1.9l4.9-2.3l5.1,2.3l2.1-7.7l-3.4-4.5v-2.4l9.1,0.8l1.5,3.1l1.7-0.1l1.7-12.1l8.8-0.9l-0.5-3.8l1.8-6.2
			l7.2,4.4l0.5,2l1,1.9V68l-4.7,2.3l0.5,3.8l-0.7,4.4l1.2,2.1l2.8-0.2l3.5,3.4l-0.5,3.3l-0.4,6.6l5.4,6.2v0.1l0.2,0.2l0.2,0.2
			l4.7,2.5l0.4,4.8h-6.9l-0.7,3.3l-4.2,0.4v3.1l4,3.9l-1.6,2.3l-2.1-3l-3.3,1.6v3.3l4.6,3.3l-1.4,6l-3.4,1.2L124.1,136.3z
			 M117.7,127.2h4.5l2.3,4.6l0.4,2.9l0.5-0.3l0,0l4.9-2.4l2.9-1.1l1.1-4.8l-4.4-3.2v-4.5l4.6-2.2l-1.6-1.5v-4.5l4.4-0.4l0.7-3.4h6.6
			l-0.2-3.1l-4.5-2.4l-0.2-0.2l-0.9-0.6l0.1-0.3l-5.2-6l0.4-7.1l0.5-2.9l-2.8-2.7l-3,0.2l-1.7-2.9l0.7-4.6l-0.6-4.4l4.8-2.3v-1.6
			l-1-1.9l-0.4-1.6l-5.7-3.5l-1.4,4.7l0.6,4.6l-9.1,0.9L113.2,81l-3.2,0.2l-1.6-3.2l-7.5-0.7v1l3.4,4.7l-2.5,9.3l-5.7-2.6l-5,2.3
			l-3-2.5l-3-12.3L84.9,77L81,80.4l1.4,2.9l-1.2,2.5l3.6,8l-1,3.3l2.6,2.9l3.5-0.5l2.7,5.2l-3.7,1.6l-1.5,5.2l1.9,4.5l0.2,2.4
			l0.6-3.6v-4.5l3.8,2.6l6,4l4.1-2.2l2.2,2.2l-0.2,3.9l-2.3,0.7l-0.5,5.8h1.5l4,2.8l7.6-1L117.7,127.2z M134.7,116.5l1.6,2.3
			l0.3-0.5L134.7,116.5z"></path>
		<path d="M157.2,141.5l-2.4-0.2l-1.8-1.8l-3.6-0.9v-3l-2.3-4l3.7-8.8l-0.7-2.1l1.5-3.8l-3.2-4.4l-3.2-4.5H139l-0.7,3.3l-4.1,0.4
			v2.5l4.2,4l-2.2,3.2l-2.3-3.2l-2.7,1.3v2.8l4.6,3.4l-1.5,6.5l-3.5,1.3l-6.3,3.2l0.1,0.5l1.2,6c0.9,0.7,1.7,1.5,2.4,2.4
			c0.8,0.9,1.5,1.8,1.8,2.1h2.6l2.4,3.1l5.1,3.6l4.4,0.4l2.8,2.1l3.1,0.7l2.1,1.4l4.1-7.4l5.3-0.5l1.3-2.2l-3.7-3.5L157.2,141.5z"></path>
		<path d="M152.8,159.5l-2.4-1.6l-3.2-0.8l-2.7-2l-4.4-0.4l-5.3-3.8l-2.2-2.9H130l-0.1-0.2c-0.3-0.4-1-1.2-1.8-2.1
			c-0.7-0.8-1.4-1.6-2.3-2.3l-0.2-0.1l-1.3-7.1l6.6-3.4l3.4-1.2l1.4-5.9l-4.6-3.3V119l3.4-1.6l2.1,3l1.5-2.2l-4-3.9v-3.2l4.2-0.4
			l0.7-3.3h6.9l3.4,4.8l3.3,4.6l-1.6,3.9l0.7,2.1l-3.7,8.8l2.3,3.9v2.8l3.3,0.9l1.8,1.8l2.5,0.2l2.3,3.9l4,3.7l-1.6,2.7l-5.2,0.5
			L152.8,159.5z M147.6,156.2l3.2,0.7l1.6,1l3.9-7.1l5.3-0.5l0.9-1.6l-3.5-3.3l-2.1-3.4l-2.3-0.2l-1.8-1.8l-3.8-1v-3.3l-2.4-4
			l3.7-8.9l-0.7-2.1l1.5-3.7l-3-4.1l-3.1-4.3h-5.5l-0.7,3.3l-4,0.3v1.9l4.3,4.1l-2.9,4.1l-2.4-3.5l-2,1v2.2l4.7,3.4l-1.7,7.1
			l-3.8,1.4l-5.9,3v0.1l1.1,5.8c0.8,0.7,1.6,1.5,2.3,2.3c0.7,0.8,1.3,1.5,1.7,2h2.7l2.5,3.2l4.9,3.4l4.4,0.4L147.6,156.2z"></path>
	</g>
	<path id="cantanhede" d="M58.4,34.4l-2.2,1l1.2,6l-2,1.9l-3.2,8.4l-16.5-0.9h-0.1L24,47.2l-5.4,16.5l14.9,11.7l9.5,1.4
		c-0.1-0.6-0.3-1.5-0.5-2.3c-0.7-3.6-0.5-3.9-0.3-4.1c0.1-0.1,0.3-0.2,0.5-0.2c2.3,0.6,4.6,1.4,6.8,2.3l15.1,2.9l2.2-2.1h4v4
		l4.2,2.1l-0.2,2.8l2.1,0.1l3.1-2.9l0,0l4.9-4.2l1.5,1.2l3,12.3l1.9,1.6l4.8-2.2l4.8,2.1l1.9-7l-3.3-4.5v-2.1l-4.1-0.4l-0.2-7
		l10.9-0.7L104,61l1.2-14.9L99,41.6l0.5-3.2L99,36.2l-14.2,7l-2.3-4.4l0.9-9.6l1.1-3.5l-2.8-8.1l-5.4,0.2l-1.6-1.2L73,16.7l-2.3,4.2
		l-1,12.1l-3.5,2L62,32.9l-3.6-3.5V34.4z" data-municipality-id="72" data-title="Cantanhede"><title>Cantanhede</title></path>
	<path id="penacova" d="M132.4,63.4l1.1,2v2.9l-4.7,2.3l0.5,3.6l-0.7,4.3l1,1.7l2.7-0.2l3.8,3.6l-0.6,3.6l-0.3,6.4l4.9,5.6
		c0.4-0.6,0.9-1.3,1.4-2.1s1.2-1.6,1.6-2.1c0.6-0.8,1-1.1,1.4-1c1.7-0.5,3.4-1.2,5-2.1l0.1-0.1l2.9,0.3l1.5-1.6l3.3,1.1l2.6-0.6
		l-0.4-3.5l11.3,0.4l2.6-1l5-0.5l3.3-4.1l0.9-3.9l4.9-0.9l1.6-2.3l4.7-1.2l-0.6-4.2v-4.1l-4.4-1.7l-0.8-1.3l-7.3-1.9l-3.1,2.3
		l-2.3-1.8l-2.1,1l-2-1.3l-5.3,2.1l-0.2,3.1l-4.6-0.2l-9.3-7.5l-1-2.6l-6.8-1.4l-1.8,2.3l-3.3-5.4h-2.1l-1.4,8.2l-3.2,1.9
		L132.4,63.4z" data-municipality-id="83" data-title="Penacova"><title>Penacova</title></path>
	<path id="montemorovelho" d="M88.3,119.8l-0.3-3.5l-2-4.6l1.9-6.3l2.9-1.3l-1.5-2.9l-3.2,0.5l-3.7-4.1l1.1-3.6l-3.7-8.1l1.2-2.5
		L79.7,81l-2.5,2.3l-3.5-0.2l0.2-3.1l-4.2-2.1v-3.7H67l-2.3,2.1l-15.7-3l0,0c-2.5-1-5.2-1.9-6.2-2.2c0.2,2,0.6,3.9,1.1,5.8l0.6,0.1
		l1.8,13.7l3.7,4.8l-0.4,4.5l2.4,8.3l0.9,2.2l-1.3,6.8l-13.4,9.3l-2,4.6l2.3-0.9v0.1l3.4-0.7l2.5,1.8l12,0.3l3.7-2.6h3.1l1.7-1.6
		l-6.7-5.5l2.8-9l3.6-1l1.7,2.2l10.4,2.4l10.9,6.4l0.3-1.7l-0.1-0.3L88,121L88.3,119.8z" data-municipality-id="80" data-title="Montemor-o-Velho"><title>Montemor-o-Velho</title></path>
	<path id="oliveiradohospital" d="M237.2,36.7l0.9,4.6l4.7,3.1l-2.4,5.8l4.2,2.5v3.1l1.9,2.5l-3.1,3.8v4.6l-2.9,0.8l-6.4-1.9
		l-7.2,1.5l-1.1,1.8l3.3,3.2l0.2,1.2l2.1,1.7l1.8-1l2.2,2.6l-0.6,1.8l5.5-1.8l1,1.6l3.9,1.2l3.6-0.8l3,1.9l6.3,5.3l2.4-0.3l3.2-0.8
		l1.1-1.9l-1-3.3l2.8-1.9l1.2-5.7l5.4-3.1l3.9-0.5l1.6-5.8l-4.2-0.4l-3.2-3.3l-3.8-0.4l0.3-1.7l1.6-1.1L269,41.3l-5.4,0.7l-4.4-2.3
		l-2.4-6l5.9-3.5l4.4-0.7l2.5-4.9l-6.9-8.8l-0.7-3.5l-4.5,0.2l-9.2,7.7l-10.8,14.2l-4.5,1L237.2,36.7z" data-municipality-id="81" data-title="Oliveira do Hospital"><title>Oliveira do Hospital</title></path>
	<path id="tabua" d="M189.2,63.3l4.7,1.8v4.7l0.8,5l0,0l0.3,4.3l1,0.9v3.7l4.3,1.7L203,81l5.2,10l2.8,0.9l3.5-6.1l2.8,0.9l3.7-4.1
		l0.4-5.5l4.3,1.4l2.7-5.1l-0.1-0.9l-3.7-3.4l1.7-2.8l7.9-1.7l6.3,1.9l1.9-0.5v-4.2l2.9-3.5l-1.6-2.1v-2.9l-4.6-2.7l2.5-5.8
		l-4.4-2.9l-0.8-4.5l-5-1.5l-2.5,3.3l-12.8,7.3l-6.3,0.4l-2.1,4l-3,0.7l-2.3,3.3l-3,0.6l-7.3,6.3l-2.3-0.9l-1.2,1.3L189.2,63.3z" data-municipality-id="86" data-title="Tábua"><title>Tábua</title></path>
	<path id="mira" d="M35.8,49.9l15.7,0.9l3.1-8.1l1.8-1.6l-1.3-6.2l2.4-1.1v-5.4L34.1,5.5l-9.7,40.3l-0.1,0.5L35.8,49.9z" data-municipality-id="78" data-title="Mira"><title>Mira</title></path>
	<path id="arganil" d="M273.4,96.3l-4.7-8.4l-4.2-0.4l-1.6-1.5l0.1-0.1l-2.3,0.5l-2.9,0.4l-6.6-5.5l-2.6-1.7l-3.4,0.7l-4.5-1.3
		l-0.8-1.2l-6.5,2.1l0.9-3.1l-1.3-1.6l-1.7,1l-2.3-1.9l-2.9,5.4l-3.8-1.3L222,83l-4.4,4.8l-2.7-0.9l-3.5,6.1l-3.9-1.2l-4.6-8.9
		l-2.2,3.7l-5.6-2.2v-4l-1-0.9l-0.4-4.5l-4.2,1l-1.5,2.3l-4.7,0.9l-0.8,3.5l-3.7,4.6l-5.2,0.5l-0.6,0.3l2,1.6l3.9,0.2l2.6,1.5
		l-3.7,5.2l1.7,2.1l0.6,3.4l4-0.5l9.4,5.4l5.3-2l5.5,8.9l1.1,0.8l0.8-1.2l3,0.9l2.8-1.2h6.5l3.6-4.7l3.4,4.9l-2,10.8h2.9l3.9-3.6h2
		l2.9-6.2l6.2-0.1l2.8-6.8l4.7-5.8l3,1.3l0.6,4.6h4.2l2.5,1.4l2.1-4.6l4.5,2.6l2.3,1.5l4.8-5.4L273.4,96.3z" data-municipality-id="71" data-title="Arganil"><title>Arganil</title></path>
	<path id="vilanovadepoiares" d="M154.2,91.6l-1.4,1.5l-3.1-0.4c-0.3,0.2-1.3,0.6-2.3,1.1c-0.9,0.5-2,0.8-3,1
		c-1.4,1.6-2.6,3.2-3.7,5l0.1,0.1l4.9,2.5l0.4,4.9l3,4.3l2.2-0.8l0.6-2.6l7.6,0.8l2.4,3.2l4-1.1l13.5-7.5l-0.8-4.5l-2.1-2.5l3.6-5
		l-1.5-0.9l-3.9-0.2l-2.8-2.1l-1,0.4l-10.4-0.3l0.3,3.2l-3.7,0.8L154.2,91.6z" data-municipality-id="87" data-title="Vila Nova de Poiares"><title>Vila Nova de Poiares</title></path>
	<path id="gois" d="M195.1,178.8l1-0.3l-0.2-2l3.6-1.8l0.7-4.5l2.8-0.3V166l3.4-1.4l2.4-2.5l4-0.6l0.7-8.6l-3.3-5.8l0.3-3.1
		l-3.9-3.9l1.2-4.7l12.7-4.4l10.4,4.2l1.9-3.9l-3.7-1.5l-2.8-4.6h-3.9l2.1-11.6l-2.5-3.5l-3,4h-6.9l-2.8,1.3l-2.7-0.8l-0.9,1.5
		l-2.1-1.6l0,0l-5.2-8.3l-5,1.9l-9.5-5.5l-3.6,0.5l0.2,1l-0.7,0.4l1.9,5.7l-1,3.1l4.9,8.3l-1.7,2l-3,9.4l-2.2,3.9l0.5,3.7l0.1-0.1
		l4.5,4.7l3.5-0.7l-3.7,13.9l2.5,5.1l5.3,8.4L195.1,178.8z" data-municipality-id="76" data-title="Góis"><title>Góis</title></path>
	<path id="lousa" d="M177.7,136.7l2.3-4.1l3-9.5l1.5-1.6l-4.9-8.1l1.1-3.2l-1.8-5.2l-12.6,7l-4.8,1.4l-2.5-3.5l-6.4-0.6l-0.5,2.3
		l-2.4,0.9l3.1,4.3l-1.6,3.9l0.7,2.1l-3.7,8.7l2.3,3.8v2.6l3.1,0.8l1.7,1.7l2.5,0.2l2.4,4l3.5,3.2l0.7-1.2l6.1,4.2l7.9-9.3
		L177.7,136.7z" data-municipality-id="77" data-title="Lousã"><title>Lousã</title></path>
	<path id="pampilhosadaserra" d="M284.6,134.9l-0.8-4.9l-7.8-6l-1.5-5.1l-4.8-1.4l-1.2-4.5l-1.6-3.2l0.6-0.6l-2.2-1.4l-3.6-2
		l-2.1,4.5l-3.1-1.8h-4.9l-0.5-4.8l-1.9-0.8l-4.1,5.1l-3.1,7.2l-6.1,0.2l-3,6.1h-2.3l-3.4,3.3l2.5,4.3l4.4,1.7l-2.7,5.6l-10.9-4.3
		l-11.9,4l-0.9,3.7l3.8,3.8l-0.4,3.3l3.4,5.8l-0.8,9.6l-4.4,0.7l-2.4,2.5l-3,1.1v4.1l-2.8,0.4l-0.7,4.3l-3.4,1.7l0.1,2.1l-2.2,0.7
		l-2.7,2.5L190,188l2.1,1.1l1.2-4.8l7.3,1.8l1.1-6.3l4.4,1.6l1.6-2.5l5.6,0.5l0.2-6.5l3.1,3.5l2.8-0.7l-1.2-4.5l4.4,4l1.4-3.3
		l2.8-0.7l3.1,3.5l3.4-7l7.7,0.7l1.2-2.5l2.1,1.1l-2.1-8.3l1.1-3.1l11.2-6l9.1,3.2l2.8,2.4l2.5-1.4l-1.4-2.8l1-1l-1.2-5.5l-2.3-0.3
		l6.1-3.5l3.4,7.2l1.4-2.1l6.6-6.2l-1.2-3L284.6,134.9z" data-municipality-id="82" data-title="Pampilhosa da Serra"><title>Pampilhosa da Serra</title></path>
	<path id="figueiradafoz" d="M43,147.4l-1.8-1.6v-4.4l1.2-1.7l-2.9-2.1l-1.5-5.9l-3.4,1.2l3-6.9l13.3-9.3l1.1-6.1l-0.8-2.1l-2.5-8.5
		l0.3-4.2l-3.6-4.7l-1.7-13.3L33,76.3l-0.1-0.1L18.2,64.6L3.4,109.5l9.5,7.5l2.4,9.5L8,155l4.5,1.6l0.9,4.4h4.9l1.9-2.1l9.9,4.7
		l3.5-7.3l6.3-0.7l4.9,2.3h0.5L43,147.4z" data-municipality-id="75" data-title="Figueira da Foz"><title>Figueira da Foz</title></path>
	<path id="soure" d="M111.4,161.6l-3.1-0.7l-1.9-2.8l-3.4-1.3l-1.4-4.2l-8.3,0.7l-6.5-11.5l-3.7-0.3l-3.4-3.8l1.3-6.8l2.2-1
		l-1.5-3.1l5.4-2.8l-10.6-6.2l-10.6-2.5l-1.5-1.9l-2.4,0.7l-2.5,7.8l7.1,5.8l-2.9,2.6h-3.1l-3.7,2.6l-12.6-0.3l-2.4-1.8l-3,0.6
		l1.4,5.7l3.4,2.4l-1.6,2.2v3.7l1.7,1.5l2.5,11.1l14.3,1.1l6.6,6.7l-0.1,5.6l7-0.4l5.6-11.4l8.9,1.1l1.1,11.7l1.9,2.1l-2.6,4.7
		l3.5,4.1l1.9-1.6l2.5-9.3l6.6,0.4l9.1-8.5L111.4,161.6z" data-municipality-id="85" data-title="Soure"><title>Soure</title></path>
	<path id="condeixaanova" d="M107.2,157.6l0.2-0.6l1.1-3.2l3.2,1l6.3,0.4l0.8-3.5l-6.2-5.9l-0.9-4l4.3,1.1l2.4,1.6l3.2-2l3.3,0.4
		l-1.2-5.7l-0.7-5l-1.7-3.5h-2.8l-1.2,1.9l-8.8,1.1l-4.1-2.8h-2.6l0.7-8.4l2.3-0.7l0.2-2.3l-1-1l-4,2.1l-6.7-4.5l-1.6-1.1v1.9
		l-1.1,6.3l-1.7,0.7l-0.3,1.9l0.5,0.2l-6.2,3.2l1.6,3.2l-2.6,1.1l-1.2,5.9l2.9,3.2l3.7,0.3l6.5,11.4l8.5-0.7l1.4,4.5l3.3,1.2
		L107.2,157.6z" data-municipality-id="74" data-title="Condeixa-a-Nova"><title>Condeixa-a-Nova</title></path>
	<path id="penela" d="M153.3,171.2l-3.5-7.4l2.3-4.2l-2-1.3l-3.2-0.7l-2.8-2.1l-4.4-0.4l-5.4-3.8l-2.2-2.9h-2.6l-0.1-0.2
		c-1.2-1.6-2.6-3-4-4.4l-3.6-0.5l-3.4,2.2l-2.8-1.9l-2.7-0.7l0.5,2.3l6.4,6l-1,4.9l-7.3-0.6l-2.4-0.8l-0.7,2.3l0,0v0.1l-0.1,0.5l0,0
		l-0.3,0.8l1,1.4l3.2,0.7l1.2,2.9l0.4-0.3l4.4,4.6l1.2-1.4l-2.1-3.5l3-3.2l4.6,6.8l0.4,7.4l6,8.2l-2.6,0.2l-2.4,5.6l-2.6,1.2
		l1.2,2.1h7.7l-1-1.6l12.1-11.9l2.8-7l2.6,5.4l5.3,3.5l2.3-7.5L153.3,171.2z" data-municipality-id="84" data-title="Penela"><title>Penela</title></path>
	<path id="coimbra" d="M124.5,135.5l0.7-0.4l0,0l0,0l5.3-2.6l3.1-1.1l1.3-5.4l-4.5-3.3v-3.9l4-1.9l2,2.8l1-1.4l-3.9-3.7v-3.8
		l4.3-0.4l0.7-3.4h6.7l-0.3-4l-4.6-2.4l-0.2-0.3l-0.6-0.4l0.1-0.2l-5.3-6.1l0.4-6.9l0.5-3.1l-3.2-3l-3,0.4l-1.5-2.5l0.7-4.5
		l-0.6-4.1l4.8-2.3v-2l-1-1.9l-0.5-1.8l-6.5-4l-1.6,5.5l0.5,4.2l-8.9,0.9l-1.8,12.1l-2.5,0.2l-1.6-3.1l-8.3-0.8v1.7l3.4,4.6
		l-2.3,8.5l-5.4-2.4l-5,2.3l-2.6-2.2l-3-12.3l-0.6-0.5l-4.5,3.9l1.5,3L80.5,86l3.7,8l-1,3.4l3,3.3l3.4-0.5l2.3,4.4l-3.4,1.6
		l-1.7,5.5l1.9,4.5l0.4,3.8l-0.2,1l0.7-0.3l1-5.7v-3.7l3,2.1l6.2,4.2l4.1-2.1l1.8,1.8l-0.2,3.4l-2.3,0.7l-0.6,6.7h1.9l4,2.8l8-1
		l1.2-2h3.9l2.1,4.2L124.5,135.5z" data-municipality-id="73" data-title="Coimbra"><title>Coimbra</title></path>
	<path id="mirandadocorvo" d="M159.4,145.2l-2.2-3.7l-2.4-0.2l-1.8-1.8l-3.6-0.9v-3l-2.3-4l3.7-8.8l-0.7-2.1l1.5-3.8l-3.2-4.4
		l-3.2-4.5H139l-0.7,3.3l-4.1,0.4v2.5l4.2,4l-2.2,3.2l-2.3-3.2l-2.7,1.3v2.8l4.6,3.4l-1.5,6.5l-3.5,1.3l-6.3,3.2l0.1,0.5l1.2,6
		c0.9,0.7,1.7,1.5,2.4,2.4c0.8,0.9,1.5,1.8,1.8,2.1h2.6l2.4,3.1l5.1,3.6l4.4,0.4l2.8,2.1l3.1,0.7l2.1,1.4l4.1-7.4l5.3-0.5l1.3-2.2
		L159.4,145.2z" data-municipality-id="79" data-title="Miranda do Corvo"><title>Miranda do Corvo</title></path>
</g>
</svg>