<svg xmlns="http://www.w3.org/2000/svg" viewBox="0 0 386.8 282.3" class="map-svg map-municipalities" data-id="7" data-district="evora">
<g data-title="evora" data-district-id="7">
	<g id="map-bg" class="map-bg">
		<path d="M226.6,53.6l2.5,0.3l2.1,1.7l-1.3,2.4l0.3,0.1l3.7-1.2l3,1.7l2.4-0.1l1.1,5.2l-2.1,2.5l1.8,2.2l1.4-0.1l2.7,3.2l-1.7,2
			l2,1l-0.2,8.4l-6.5,0.2l-2.3,2.1l-1.9-3.2l-3.4,2.4l-1.7-0.7l-3,4.9l-3.1-3.6l-3.7-0.1l-3.1-2.8l-1,0.4l0.9,5.7l2.6,3.9l2.5-0.3
			l1.4,2.5l-0.6,4l2.5,3.5l1.6-0.1l7.6,11.7l3-1.6l0.3-3.2l2.6,0.6l0.3-5.5l2.4-1.7l1.2,2.1l1.8-1l0.9,1.1l6.1-3.8l1.7-2.4l4.8,0.9
			l1.7-2.8l4.2,3.2l2.3-1.9l8.4,1.8l0.7-0.9l-5.9-8.9l8.4-4l1.5-3.8l-1-2l2.5-2.9l1.6,0.9l0.4-1l1.1-2.7l2.7-2.1h5.3l-0.4-2.2
			l1.7-2.4l-1.9-3.4l-2.3,0.6l-2.2-6.5l1.6-0.8l0.5-3.2l-2.5-1.8l4.5-5.9l-0.5-3l2.2-3.4l2.1-0.1l2.6-3.5l-1.2-0.3l-0.4-4.6l0.9-3.7
			l-7.4-3.3v-3.5l-5.1,0.1l-5.5-5.3h-2.1l-0.9,3.6l-2.4,0.1l2.8,3.2l0.3,3.7l-4.7,2.7l-1.1,2.6l-8.6-1.2l-4.6,6.1l-4,1.6l3.3,3.5
			l-4.2-0.1l-0.2,2.6l-2.6-0.4l-8.3-4.5l-2.9,5.6l-8.9-9.2l-2.2,4.4v3.7l-6.3,3.4l-3.7-1.2l-1.8,2.1h0.1L226.6,53.6z"></path>
		<path d="M295.9,40.8l-2.4,0.1l-1.6,2.6l0.5,3.1l-4.2,5.3l2.2,1.5l-0.7,4.5l-1.3,0.6L290,63l2-0.6l2.8,4.9l-1.8,2.6l0.5,3.1h-6.3
			l-2.2,1.6l-0.9,2.4l-0.9,2.2l-2-1l-1.3,1.6l0.9,1.8l-1.9,4.7l-7.6,3.6l3.1,4.6l-0.4-1l2.5-1L278,94l-0.1,1.7l7,7.2l3.3,1.8
			l0.1-0.1v-0.1h0.3l-0.1-0.8l4.6-5.5l-3.6-0.7l5.9-7.2l-1-2.6l1-1.1l2.9,0.7l1.8-1.3v-3.1l11.3-4.6l0.3-0.4l-1.2-5.5l-4.4-7.8
			l2.1-2.3l0.9-2.8l-4.7-3.2l0.8-8.8L295.9,40.8z"></path>
		<path d="M187.4,47.8l-3.4-0.4l-0.8,2.6l-4.2,1.4l-3.1,0.2l2.6,6.3l-2.8,2.6l-1.4-1.1l-1.1,0.7V63l-2.8,3.7l-13,4.7l-5.9-5h-3
			l-0.7-2.2l-7.6,5.2l-2.1,5.8l-3.4,2.3L135,78l-3.7,4.9l-0.5,4.9L129,87l0.5,1.3l2.5,5.8l9.7,8.2l2.3,5.5l2.9-1l1.7,4.7l-3.9,0.4
			v0.6l3.5-0.4l3.3,1.2l8.3-0.2l1.2,4.8l1.1,0.2l-0.3-3l1.1-0.3l-0.5-2.8h2.8l0.6,2.5l4.5-0.9l2.4-4.9l5,2.1l2.3,4.6h2l1.9,3
			l-0.3,2.9l0.9,0.1l2.6-0.5v2.2l-0.9,1.3l-0.1,2.1l0.8-0.1l1.9-1.5l2.4,0.2l-1,5.1l1.3,1.2l0.3-0.7l-0.6-1.6l3.9-2.6l4.6,0.7
			l2.1-2.7l-0.5-3.4l3.4-5.7l-0.9-2.5l-3.3-2l2.6-4l1.1,0.2c-0.6-1.1-1.1-2.2-1.4-2.5c-0.1-0.1-0.2-0.3-0.2-0.5v-0.5l0.2-0.1
			c0.2-0.3,0.5-1.1,0.8-1.7l0.8-3.6l6.8,0.9l2.2-1.4l0.5-3.5l-0.3-0.8l-1.7,1l0.1-3.5l2-2.3l-0.2-0.3l0.1-0.1l-1-6.4l2.5-1.1l3.4,3
			l3.7,0.2l2.4,2.7l2.7-4.4l2,0.9l3.9-2.8l1.8,3l1.5-1.4l5.9-0.2l0.2-6.5l-2.8-1.3l2.1-2.5l-1.7-1.9l-1.5,0.1l-2.8-3.4l2.4-2.8
			l-0.8-3.7l-1.8,0.1l-2.8-1.7l-3.5,1.1l-2.1-0.5l1.5-2.8L228,55l-2.4-0.2l-0.1-0.1l-11.3-6l-0.3-0.9l-18.1-4l-1.3-4l-1.1-0.2
			l-1.6,4.3L187.4,47.8z"></path>
		<path d="M301.3,86.6l-2.7,2l-2.8-0.7V88l0.9,2.5l-5.1,6.2l3.7,0.8l-5.6,6.6l0.3,1.5h-0.6l-0.4,3.3l-1.8,0.7l1.2,2.9l2-0.6l2.6,4.5
			l-0.3,2l3.8-1.5l0.2-2.3l0.1-1.9l-2.4-0.6l0.3-5.9l4.2,0.9l2.5-2.4l6.7-0.6l3.6,2.7l5.8-0.9l-2.7-6.9l8.9-6.2l4.9,6.4l0.9-0.3
			l-0.2-2.1l2.1-0.9l3.2,2.8l3.6-3.5l-0.1-2.3l4.7-5.7h5.1l1.2,2.3l5.1,0.6l-1.4-1.5l0.5-2.7l-1.9-0.1V84l4.6-6.5l-0.4-4.3l0.2-5.1
			l-3.2,1.6l-3.3-4.9l-3.4-1.6l-1,3.3l-5.8,3.7l-4.3-3.3l-6.1,4.2l1.4,6l-7.9,2.1l0.3-2.1l-4.7,1.4l0.1-2.8l-4.7,2l-1,1.6l-10.9,4.4
			V86.6z"></path>
		<path d="M345.1,101.4l8.1-2.4l4.4-5.1l-2.2-2.5l-7-0.8l-1.2-2.3h-3.9l-4,5l0.1,2.4l-4.7,4.6l-3.5-3l-0.6,0.3l0.2,2.2l-2.7,0.7
			l-4.7-6.1l-7.2,5.1l2.9,7.3l-7.7,1.3l-3.7-2.8l-5.8,0.5l-2.6,2.6l-3.5-0.7l-0.2,3.5l2.4,0.6l-0.2,2.9l-0.2,3l-6.4,2.6l0.6-3.7
			l-1.9-3.3l-2.1,0.7l-0.6-1.4l-0.1,0.3l-1.4-0.1l-0.6,6l-2,1l-1.6,1.9l4.5,23.1l-2.5,0.2l-1.5,0.4l-1,3.1l-2.1-0.5l-2,1.2l-0.8,1.4
			l-1.9,1.1l-1.8,5.5l9.5,6.6l10.6-0.1l0.9,5l4.4,0.2l2.9,3l3.2-1.7l3.5,1.3l3.1-3.2l4.1-0.9l5.2,2.3l5.3,5.2l-1.7,5.5l1.4,0.7
			l0.9,10.2l0.7-0.2l0.3-1.7l5.2-2.2v-3.8l2.1-0.8l1.5-4.5l-1.9-1.1l-2.5,2.8l-2.8-1.2l3.4-11.6l3-1.1V158l4.4-10.1l2.1,0.2l4-11.4
			l2.3-4.1l-5.8-1.7l0.9-13.6L345.1,101.4z"></path>
		<path d="M273.3,175.5v-0.1l4.3-3.9l3.5-6.9l-10.1-6.9l2.2-6.8l2.1-1.2l0.7-1.3l2.7-1.6l1.5,0.3l0.8-2.6l2.3-0.6l1.3-0.2l-4.3-22.3
			l2.1-2.5l1.6-0.8l0.6-6.6l2.2,0.2l-1.2-2.7l2.3-0.9l0.3-2.2H288l-3.8-2l-0.1-0.1l-7.4-7.7l0.1-1.6l-0.6-0.6l-1.7,0.7l2.4,3.7
			l-1.7,2.2l-8.5-1.9l-2.5,2.2l-4-2.9l-1.4,2.3l-4.9-0.9l-1.3,2l-7.3,4.5l-0.9-1.2l-1.9,1.1l-1.2-2l-0.9,0.6l-0.3,6.3l-2.7-0.6
			l-0.1,2.5l-3.9,2l-0.5,1.8l4,2.5v2.2l2.5,2.1v1.5h1.5l3.6,2.5l-0.5,2.8l1.8,1.4l0.2,7.5l-5.6,2.3l3.1,5.1l-1.1,1.9l2.6-0.8
			l1.9,3.9l-3.2,0.9l-1,3.1l4.3,2.2l1.9-0.2l7.1-6.2l5.4,5.9l-2.4,5.2l-7.3,1.7l-0.7,1.7l3.6,1.8l-1,3.9l1.9,3.4l3.9-0.2l0.6,2.1
			l10.4,2.7L273.3,175.5z"></path>
		<path d="M231.3,193.6l1.9,0.5l1.6-2.1l1.6,1l4.1-3.2l1.5,2.2l2.6,0.3l0.8,7l1.1,2.4l6.6,2.1l1.9,2.3l3.7,0.9l0.6-7.2l3.3-3.5
			l4-10.4l1.7-0.2l-1.3-3l1.8-2.8l-9.7-2.6l-0.5-1.8l-3.8,0.2l-2.5-4.5l0.9-3.4l-3.9-1.9l1.4-3.2l7.3-1.7l1.9-4l-4-4.4l-6.6,5.6
			l-2.6,0.3l-5.4-2.9l1.4-4.6l2.5-0.7l-0.9-1.8l-4.5,1.4l2.3-3.9l-3.4-5.7l6.1-2.5l-0.2-6.2l-1.9-1.4l0.6-2.8l-2.7-1.8h-2.4v-2.1
			l-2.5-2.2v-2l-4.1-2.6l0.6-2.6l-7.4-11.3l-1.5,0.1l-3.2-4.4l0.7-4.1l-0.9-1.5l-2.4,0.3l-2.6-3.7l-1.5,1.7v1l1-0.6l0.9,2.3
			l-0.6,4.4l-3.1,1.9l-6.2-0.8l-0.6,2.7v0.1c0,0-0.2,0.5-0.5,1l-0.4,0.7l0,0c0.1,0.1,0.1,0.2,0.2,0.3c0.2,0.3,0.4,0.8,0.7,1.3l1,1.9
			l0.5,1l-2.6-0.4l-1.5,2.3l2.6,1.6l1.3,3.4l-3.5,5.9l0.5,3.5l-2.9,3.7l-4.8-0.7l-2.8,1.8l0.5,1.2l-1.1,2.7l-3.2-2.7l0.9-4.5
			l-0.7-0.1l-1.8,1.4l-2.5,0.4l0.2-3.9l0.9-1.2v-0.4l-1.4,0.3l-2.2-0.3l0.3-3.6l-1.4-2.1H179l-2.4-4.9l-3.6-1.5l-2.2,4.4l-6.2,1.3
			l-0.6-2.7h-0.5l0.4,2.5l-1.2,0.3l0.4,3.6l-3.3-0.7l-1.1-4.6l-4.4,0.1h0.1l-3.5,0.6l0.8,6.4l1.9,0.1l0.9,3.7l2.9-1l-0.5,4.7
			l2.2,10.4l-4.5-0.1l-0.8,2.6l-2.5-0.5l-2.2-2.8l-0.6,3.5l-3.9-1.6l-3.1,1.9L141,136l-10.6-1.7l-2.2-1.6l-1.5,1.9l3,4.1l-3.4,4
			l2.2,9.3l3.4,0.1l2.1,3.7h2.5v2.5l1.8,1.3l1.1-1.3l2.3-1.1l2.6,2.6l3,0.1v13.5l-2.6,2.4l0.7,3.5l-5.3,2.4l-0.8-2.3l0.3,3.2
			l-1.9,0.3l1,2.7l0.7,3.7l2.2-0.4l2.3,7.2l-2.4,0.3l1.9,6.7l8.3,1l0.1,5.7l-0.9,2.9l0.5,0.1l4-5.3l5.1-1.8l5.7-4.9l4.3,0.2l1.6-2.1
			l11.5,0.4l-0.6,5.8l2.5,1.3l-1.9,4.4l-2.4,0.2l-0.3,3.8l-0.8,1.4l0.8,0.8l2-1.3l1.6,0.2l2.8-1.7l0.6-2.3l5.8-1.3l2.2,2.6l1.7-1
			l3.3,2l0.2,4.7l3.6,1.2l0.9-4.4l1.8-0.7l-1.4-3l3.7-0.5l4.5-7l2.4-0.6l0.7-3.7l5.8,1.8l0.3-2.2l3.2-2l0.8-2.8l-1.3-2.1l1.7-2
			L231.3,193.6z"></path>
		<path d="M302.9,231.3l2.8-1.6l0.5-4.8l-3.9-7.1l9.2-5.5l2.1,0.8l1.8-1.7l-3-3.4l1.3-6l3.5-2.4l0.9-3.8l5.8-2.6l0.7-1.3l-0.9-10
			L322,181l1.8-5.8l-4.6-4.6l-4.7-2l-3.4,0.8l-3.5,3.5l-3.6-1.4l-3.5,1.8l-3.2-3.3l-4.9-0.2l-0.9-5l-9.2,0.1l-3.8,7.3l-4.3,4.1
			l-3.3,4.3l-0.9-0.3l-1.7,2.6l1.8,3.8l-2.6,0.3l-3.9,10l-3.2,3.3l-0.6,7.4l0.8,3.7l5.5,3l0.6,2.7l1.7,0.2l1.1,4l3.3,1.9l0.3,4.3
			l-1.2,1.1l1.4,2l-0.1,2.5l3.7-1v3.4l3,1.7v4h3.4l3,2.6l-0.1,4l2.2,0.9l8.6,6.1l0.2-0.5l5.4-3.7l0.3-5l5.6-0.7l1-3.6l-6.2-5.6
			L302.9,231.3z"></path>
		<path d="M381.2,265.8l-6.7-11.3l-2.7-7.7l-1-5.3l-5.7-2.1l-8.8-17.6l-3.5-1.8l-12.7-17.8l-0.5-5.8l-9.7-4.9l-1.8,0.3l-2.5,0.7
			l-0.8,1.6l-5.7,2.6l-0.9,3.7l-3.5,2.3l-1.1,5l3.5,3.7l-3.2,3.1l-2.3-0.9l-7.7,4.6l3.5,6.5l-0.6,5.7l-2.6,1.5l0.2,3.3l5.4,4.9
			l1.3-4.6l-0.7-1.4l3.5-1.4l7.8,1.2l4.4-7.3l3.5,2.1l2.9-2.6l8-2.1l7,21.4l14.1,4.2l-2.1,7.8l10.5,19.7l1.7-4.9l2.3,1.2l2.4-1.9
			l0.9-2.8h4.5L381.2,265.8z"></path>
		<path d="M285,248.6l0.1-4.2l-2.2-2h-4.1v-4.5l-3.1-1.7v-2.6l-3.8,1l0.2-3.6l-1.8-2.7l1.6-1.3l-0.2-3.1l-3.2-1.9l-1-3.6l-1.7-0.3
			l-0.8-3l-5.5-2.9l-0.8-4l-4.3-1l-1.9-2.4l-6.8-2.2l-1.4-2.9l-0.7-6.4l-2.3-0.2l-1.1-1.6l-3.7,2.9l-1.4-0.8l-1.4,1.8l-2.9-0.7
			l-3.2-2.4l-0.4,0.6l1.1,1.8l-1,3.7l-3.2,2l-0.4,3l-5.8-1.8l-0.7,3.2l-2.7,0.7l-4.5,7l-2.7,0.4l1.2,2.6l-2.2,1l-1.1,5.1l-5.6-1.8
			l-0.2-4.9l-2.2-1.3l-2,1.1l-2.3-2.8l-4.5,1l-0.5,2l-2.4,1.5l0.5,1h2.5l-2.9,10.1l0.5,1.8l-4.6,4.7l3.4,1.8l2.6,3h3.8l13.8,8.7h3.8
			l2.1,2.8l5-3.3l4.9,2.6l25.6,15.1l6.3-3.6l12,1.9l4,4.5l3.3-1.7l12,1.4l3.7,0.8l-1.4-4.5l3.1-2.6l5.6-1.4l1.5-3.6l-8.8-6.2
			L285,248.6z"></path>
		<path d="M184.4,227.5l2.5-8.9h-1.7l-0.7-1.5l-1.7-0.2l-2.4,1.6l-2.1-2.1l1.1-1.9l0.4-4.5l2.7-0.3l1.2-2.7l-2.2-1.2l0.6-5.3
			l-9.7-0.3l-1.6,2.1l-4.4-0.2l-5.5,4.7l-4.9,1.7l-4.3,5.7l-2.4-0.6l1.1-4l-0.1-4.5l-8-1l-2.5-8.7l2.3-0.3l-1.5-4.9l-2.3,0.5
			l-0.9-4.8l-2.5-6.5l-1.7,0.4l-0.3-1.2l-3.7,3.2l-6,1.9l-0.7-2l1.7-2.5l0.2-1.1l-12.2,1.6l-4.4,3.1l-3.7-3.1l-7.6,7v4.4l-0.8,0.8
			l0.2,3.2l-4.2,1.2l4.4,2.8l-7,12.2l9.4-0.4l2.6,6.1l14.8,3.3l9.9,7.5l0.9-2.6l2.8-0.2l2.8,4l15.3-2.2l6.3-1.6l5.9,7.5l5.2,0.7
			l5.1-5.4l10.3,5.4l4.4-4.4L184.4,227.5z"></path>
		<path d="M114.8,56l6.9-1.6l5.3,4.7l-6.9,4.3l1,5.3l4.1,0.8l2.6,7.3l3.7-3.9l2.4,3.5l3.2-2.1l2.1-5.8l9.2-6.4l1,2.9h2.6l5.7,4.9
			l12-4.3l2.3-3.2v-3.1l2.4-1.5l1.2,1l1.5-1.3l-3-7l4.6-0.3l3.5-1.1l0.9-3l3.9,0.4l4.2-3.4l1.4-3.7l-0.6-0.2l-7.3-14.1l-4.7,1.3
			h-2.7l-4,5.8l-13.1,3.2l2.3-5.8l-1.2-2.3l0.2-4.8l-5.5-2.6l-1-5h-3.4l-1.6-2.3l-4.5,0.2l-1.8,11.8l-4.4,2l-3.4-9.5l2.5-4.1h3.7
			l-1.4-3.4h-6.3l-0.6,3.2l-1.9-0.3l-3.4-5.3l-2.6,4.4l-1.8-1.4l-5.6,3.3l-2.8,5.8l-2.8,3.9l-2.9-1.4l-2.6,3l1.6,1.8l-1.8,8.6
			L100,45.6l14.6,7.2L114.8,56z"></path>
		<path d="M39.4,130.1h3.2l2.1-5l3.7,3.7l4,2.8l3.1-4.4l2.8,0.4l2.7-1l2.8,3.4h4.5l-0.2-3.4l4-3.7l1.7,1.4l-0.9-6.9l0.8-2.7l-1-1.3
			l0.5-2.5l-1.2-2.4l-1.9,0.2l-11.8-6.5l0.6-5.1l-2.6-0.2l-3.2-1.5l-9.9,0.3l-0.8,4.5l2.5,1.1l-0.6,4.7l-4,0.9l-3.4,6.2L26,118
			l-1.2,4.2l-7.2,5.7l-11.1,9.3l5.2,19h6.6l5.1,2.1l2.8-0.3l0.2-0.5L23.6,143L39.4,130.1z"></path>
		<path d="M95.4,190.6v-4.4l8.7-8l3.8,3.1l3.9-2.7l14.1-1.9l-0.6,2.9l-1.5,2.2l0.2,0.4l4.7-1.4l5-4.4l0.4,2l1.6-0.4l1.4,3.7l1-0.1
			l-0.3-3.7h2.1l0.7,2.1l3.2-1.4l-0.7-3.2l2.8-2.5V161l-2.4-0.1l-2.3-2.3l-1.3,0.6l-1.6,2l-3.1-2.2v-2h-2l-2.1-3.7l-3.7-0.1
			l-2.5-10.8l3.2-3.7l-3-4.1l2.7-3.5l2.9,2.1l11.3,1.9l0.4,5.4l2-1.2l3,1.2l0.8-4.7l3.6,4.6l1.1,0.2l0.7-2.5l4,0.1l-1.9-9.1l0.3-3.1
			l-2.4,0.9l-0.9-4.1l-2-0.2l-1-8.5h0.3l-1.9-0.8l-4.6,0.6v-3.1l3.5-0.3l-0.8-2.2l-2.9,1l-2.6-6.3l-9.7-8.2l-2.6-6.1l-0.9-2.4
			l-4.4-2.1l-0.2-5.5l-1.6-0.5l-2.3,2.1l-2.3-1.4l1.1-3.9l-5.3-4.4l-6.2,3.5l-6.5-4.2l1.8-4.2l-6.9-3l-2.6-3.9l-2.3,5.3l-1.9-3
			l-4.3,5.3l-3.3-0.2L76.2,62l-3.5,0.9l0.5,4l-8.3,4.2L63,66.7l-6.2,9.9l-5.4,4v-2.1l-6.5-2.1L32.9,90l13.5,0.3l0.9,2.3l-2.8,1.9
			l8.9-0.3l3.2,1.5l3.6,0.3l-0.6,5.6l10.7,5.9l2.3-0.2l1.9,3.4l-0.6,2.4l1,1.4l-0.8,2.9l1.2,9.8l-3.2-2.8l-2.8,2.7l0.3,4h-6.4
			l-2.6-3.1l-2.2,0.8l-2.3-0.3l-3.4,4.8l-5.1-3.6l-2.5-2.6l-1.7,4.1h-3.6l-14.9,12.3l2.7,14.1l-0.6,1.5l1.1,2.8l8.7,1.6l1.7,4.2
			l5.3-1.6l-3-7.9l5.3-0.7l1.2,5.2h3.4l0.1,4.1l6.2-2.7l8.5,0.6l4-5.1l7.8-1.1l13,25.4l-3,2.1l0.9,4.9l7-0.1L95.4,190.6z"></path>
	</g>
	<g id="bg-white" class="bg-white">
		<path d="M224.3,50.1l2.6,0.3l1.7,1.4l-1.4,2.5l1,0.3l3.7-1.2l2.9,1.7l2.1-0.1l1,4.6l-2.3,2.6l2.2,2.7h1.5l2.3,2.6l-1.9,2.2
			l2.3,1.1l-0.2,7.6l-6.2,0.2l-2,1.8l-1.8-3.1l-3.6,2.5l-1.9-0.7l-2.9,4.6l-2.8-3.2l-3.7-0.1l-3.2-2.9l-1.7,0.7l1,6.1l2.8,4.4
			l2.5-0.3l1.2,2l-0.7,4.1l2.8,3.8l1.6-0.1l7.7,11.8l3.7-1.9l0.2-2.9l2.7,0.6l0.3-5.9l1.7-1.2l1.2,2.1l1.9-1l0.9,1.1l6.5-4.1
			l1.6-2.2l4.8,0.9l1.6-2.6l4.2,3l2.3-2l8.5,1.9l1.1-1.5l-5.8-8.7l8.1-3.8l1.6-4.2l-0.9-1.9l2-2.4l1.7,1l1.7-4.1l2.5-1.9h5.7
			l-0.5-2.6l1.8-2.4l-2.3-4.1l-2.2,0.6l-1.9-5.6l1.5-0.7l0.6-3.8l-2.4-1.7l4.3-5.6l-0.5-3.1l2-3l2-0.1l3.2-4.2l-1.6-0.5l-0.3-4.1
			l1-4.1l-7.5-3.4v-3.7l-5.4,0.2l-5.5-5.3h-2.7l-0.9,3.6l-3.1,0.2l3.4,3.8l0.3,3.2l-4.6,2.6l-1,2.4l-8.5-1.2l-4.7,6.3l-4.6,1.8
			l3,3.2l-3.5-0.2l-0.2,2.6l-2-0.2l-8.6-4.8l-2.8,5.5l-9-9.2l-2.4,5l-0.1,3.7l-5.8,3.1l-3.8-1.3l-2.2,2.6l0.2,0.5L224.3,50.1z"></path>
		<path d="M294,36.3l-2.8,0.2l-1.9,2.9l0.5,3l-4.3,5.6l2.4,1.6l-0.6,4l-1.5,0.6l1.8,5.4l2.2-0.6l2.4,4.3l-1.8,2.5l0.5,2.7H285
			l-2.4,1.8l-1,2.6l-0.7,1.6l-1.8-1l-1.8,2.2l0.9,1.9l-1.7,4.3l-7.9,3.7l3.4,5.2l0,0l2.3,3.5L273,96l-8.4-1.9l-2.4,2.1l-4.1-3.1
			l-1.6,2.6l-4.8-0.9l-1.5,2.1l-6.8,4.2l-0.9-1.1l-1.8,1l-1.2-2.1l-1.6,1.1l-0.3,6l-2.6-0.6l-0.2,2.8l-3.9,2l-0.5,2.3l4,2.6v2.1
			l2.5,2.2v1.7h1.9l3.2,2.2l-0.6,2.8l1.8,1.4l0.3,7l-5.8,2.4l3.2,5.3l-1.6,2.7l3.4-1l1.5,3l-2.9,0.8l-1.2,3.7l4.8,2.6l2.2-0.3l6.9-6
			l4.8,5.3l-2.2,4.7l-7.3,1.6l-1,2.4l3.7,1.8l-1,3.7l2.2,3.9l3.8-0.2l0.6,2l11,2.9l3.1-4l0,0l4.2-4l3.9-7.3l-10.3-7l2.1-6.3l2-1.1
			l0.8-1.4l2.4-1.4l1.7,0.4l0.9-2.8l1.9-0.5l1.9-0.2l-4.4-22.7l1.9-2.2l1.8-0.9l0.6-6.3l1.6,0.1v0.2l-1.5-0.1l-0.6,6.2l-1.7,0.9
			l-1.9,2.1l4.4,22.8l-2,0.3l-1.8,0.4l-0.9,2.9l-1.8-0.4l-2.4,1.4l-0.7,1.3l-2,1.1l-2,6.1l10,6.9l10.3-0.1l0.9,5l4.6,0.2l3,3.1
			l3.3-1.7l3.6,1.3l3.3-3.3l3.8-0.9l5,2.2l4.9,5l-1.7,5.5l1.5,0.8l1,10.5l1.6-0.4l0.3-1.8l5.2-2.1v-3.9l2-0.7l1.8-5.2l-2.7-1.4
			l-2.5,2.8l-2.1-0.9l3.2-10.9l3.1-1.1v-8.2l4.2-9.6l2.1,0.1l4.2-11.7l2.6-4.6l-6.1-1.8l0.9-13.1l2.4-15.6l8-2.4l4.7-5.5l-2.6-2.9
			l-6.9-0.9l-1.2-2.3h-4.4l-4.3,5.3l0.1,2.4l-4.2,4.1l-3.4-2.9l-1.3,0.5l0.2,2.2l-1.9,0.6l-4.8-6.3l-7.9,5.6l2.9,7.1l-7,1.1
			l-3.6-2.7l-6.2,0.6l-2.6,2.4l-3.7-0.8l-0.3,4.6l2.3,0.6l-0.1,2.4l-0.2,2.7l-5.3,2.2l0.5-3l-2.2-3.8l-2.1,0.7l-0.4-1.1l0,0l-1.3-3
			l2.1-0.8l0.3-3.3l-0.6,0.2l0,0l-3.6-1.9l-7.3-7.5l0.1-1.7l-0.9-1l-1.7,0.6l-0.1-0.1l1.8-0.7l1.1,1.1l-0.1,1.7l7.1,7.4l3.5,1.8
			l0.2,0.1l0.6-0.1l0,0h0.4l-0.2-1.2l5-6l-3.6-0.8l5.6-6.7l-1-2.6l0.5-0.7l2.9,0.8l2.2-1.7v-2.9l11.2-4.6l0.4-0.7l-1.2-5.7l-4.3-7.6
			l1.9-2l1.1-3.4l-4.8-3.2l0.9-8.8L294,36.3z"></path>
		<path d="M185.2,43.2l-3.6-0.4l-0.9,2.8l-3.9,1.3l-3.8,0.2l2.8,6.6l-2.2,2l-1.3-1.1l-1.6,1v3l-2.6,3.5l-12.5,4.5l-5.8-5H147
			l-0.9-2.5l-8.3,5.7l-2.1,5.8l-3.7,2.5l0.5,0.8l-3.6,4.8l-0.5,4.4l-2.3-1l0.9,2.5l2.6,5.9l9.7,8.2l2.4,5.9l2.9-1l1.3,3.6l-3.7,0.3
			v1.6l3.9-0.4l3.2,1.2l8-0.2l1.2,4.7l2,0.4l-0.3-3.2l1.2-0.3l-0.5-2.7h1.8l0.6,2.6l5.2-1.1l2.3-4.7l4.4,1.9l2.3,4.8h2l1.7,2.6
			l-0.3,3.1l1.5,0.2l2.1-0.4v1.5l-0.9,1.3l-0.1,2.8l1.5-0.2l1.9-1.4l1.7,0.2l-0.9,4.8l2.1,1.9l0.6-1.6l-0.6-1.4l3.5-2.2l4.7,0.7
			l2.4-3.1l-0.5-3.4l3.4-5.8l-1.1-2.9l-3-1.8l2.1-3.3l1.8,0.3l-0.5-0.9c-0.7-1.3-1.2-2.2-1.4-2.5l-0.1-0.1l-0.1-0.1V100h0.1l0.1-0.2
			c0.2-0.4,0.5-1.1,0.8-1.7l0.7-3.2l6.6,0.9l2.6-1.6l0.5-3.9l-0.6-1.5l-1.4,0.8l0.1-2.5l2.2-2.4l-0.1-0.2l-1-6.4l1.8-0.8l3.3,2.9
			l3.7,0.1l2.7,3.1l2.9-4.6l1.9,0.8l3.7-2.6l1.8,3.1l1.8-1.7l6.1-0.2l0.2-7.3l-2.5-1.2l2-2.3l-2.1-2.5l-1.5,0.1l-2.3-2.9l2.3-2.7
			l-0.9-4.4l-2.1,0.1l-2.9-1.7l-3.6,1.2l-1.3-0.4l1.4-2.6l-1.5-1.3l-2.5-0.2l-11.2-5.9l-0.4-1l-18.1-4l-1.4-4.1l-1.9-0.3l-1.7,4.5
			L185.2,43.2z"></path>
		<path d="M298.8,79.4v2.9l-2.3,1.7l-2.6-0.6h-0.3l-0.4,0.5l1,2.5l-5.5,6.6l3.7,0.8l-5.2,6.1l0.2,1.2l-0.5,0.1l-0.3,3.4l-2.1,0.8
			l1.6,3.7l2.1-0.6l2.3,4l-0.5,2.7l5-2l0.2-2.6l0.1-2.3l-2.4-0.6l0.3-4.9l3.9,0.8l2.5-2.4l6.3-0.6l3.6,2.8l6.7-1.1l-2.8-7.1l8.2-5.8
			l4.8,6.4l1.6-0.5l-0.1-2.2l1.4-0.6l3.4,2.8l4-3.9l-0.1-2.4l4.4-5.3h4.6l1.2,2.2l6.6,0.9l-2-2.4l0.5-2.9l-2-0.2v-1.2l4.6-6.5
			l-0.4-4.3l0.2-6l-3.5,1.8l-3.2-4.7l-4-1.9l-1.1,3.7l-5.4,3.4l-4.2-3.3l-6.8,4.6l1.4,5.9l-6.7,1.7l0.3-2.1l-4.8,1.5l0.2-3l-5.6,2.4
			l-1,1.6L298.8,79.4z"></path>
		<path d="M301.5,227.5l2.6-1.5l0.6-5.2L301,214l8.5-5.1l2.3,0.8l2.3-2.3l-3.2-3.5l1.2-5.6l3.6-2.4l0.8-3.7l5.8-2.6l0.8-1.6l-1-10.5
			l-1.6-0.8l1.8-5.6l-4.8-4.8l-4.9-2.2l-3.7,0.9l-3.4,3.3l-3.5-1.4l-3.4,1.8l-3.1-3.2l-4.6-0.1l-0.9-5.1l-10,0.1l-3.9,7.5l-4.3,4.1
			l-3.1,4l-0.9-0.2l-2.1,3.1l1.6,3.4l-2.2,0.3l-3.9,10.1l-3.3,3.4l-0.6,7.6v0.1l0.8,4l5.5,2.9l0.7,2.8l1.7,0.2l1.1,3.9l3.2,1.9
			l0.3,3.8l-1.4,1.2l1.6,2.3l-0.2,3l3.8-1v3l3,1.7v4.3h3.7l2.7,2.3l-0.1,4.1l2.4,0.9l9.2,6.5l0.3-1l5.5-3.8l0.3-4.7l5.5-0.7l1.2-4.2
			l-6.3-5.7L301.5,227.5z"></path>
		<path d="M379.7,261.7l-6.8-11.4l-2.6-7.6l-1.1-5.6l-5.7-2.1l-8.8-17.6l-3.6-1.8L338.6,198l-0.5-5.9l-10.1-5.2l-2,0.4l-2.7,0.8
			l-0.9,1.7l-5.7,2.5l-0.9,3.7l-3.5,2.4l-1.2,5.4l3.3,3.6l-2.6,2.5l-2.3-0.8l-8.3,4.9l3.7,6.8l-0.6,5.3l-2.7,1.5l0.3,3.8l6.2,5.6
			l1.5-5.5l-0.5-1.1l2.9-1.2l7.9,1.2l4.4-7.1l3.4,2l3-2.7l7.4-2l7,21.2L359,246l-2.1,7.4l11.3,21l1.8-5.5l2.1,1l2.7-2.1l0.9-2.6h4.7
			L379.7,261.7z"></path>
		<path d="M283.5,244.3l0.1-4.2l-2.6-2.2h-3.8v-4.3l-3-1.7V229l-3.8,1l0.2-3.2l-1.7-2.4l1.6-1.2l-0.3-3.6l-3.3-1.9l-1.1-3.8
			l-1.6-0.2l-0.7-2.9l-5.5-2.9l-0.8-4.1l-4.5-1l-1.9-2.4l-6.7-2.2l-1.3-2.7l-0.8-6.6l-2.4-0.3l-1.3-1.8l-3.9,3l-1.4-0.9l-1.5,2
			l-2.5-0.6l-3.4-2.7l-1,1.2l1.1,2l-0.9,3.3l-3.1,1.9l-0.4,2.8l-5.8-1.8l-0.7,3.4l-2.6,0.7l-4.5,7l-3.1,0.4l1.3,2.8l-2,0.9l-1,4.8
			l-4.8-1.5l-0.2-4.9l-2.7-1.6l-1.9,1.1l-2.2-2.8l-5.1,1.2l-0.6,2.1l-2.5,1.6l0.7,1.7h2.2l-2.7,9.6l0.5,1.7l-4.9,4.9l3.9,2.1
			l2.7,3.1h3.8L203,244h3.6l2.3,3l5.1-3.4l4.6,2.5l25.9,15.1l6.4-3.5l11.7,1.8l4.1,4.6l3.5-1.7l11.8,1.3l4.6,0.9l-1.6-5l2.7-2.2
			l5.8-1.5l1.7-4.2l-9.1-6.4L283.5,244.3z"></path>
		<path d="M182.9,223.5l2.7-9.4h-2.1l-0.6-1.5l-2.2-0.2l-2.3,1.5l-1.5-1.6l1-1.7l0.4-4.2l2.6-0.2l1.5-3.4l-2.3-1.3l0.5-5.5
			l-10.5-0.3l-1.5,2.1l-4.4-0.2l-5.5,4.8l-5.1,1.7l-4.1,5.5l-1.6-0.4l1-3.5l-0.1-5l-8.1-1l-2.3-7.9l2.4-0.3l-1.9-5.9l-2.2,0.5
			l-0.8-4.4l-2.7-6.9l-1.6,0.4l-0.4-1.5l-4.2,3.7l-5.5,1.7l-0.4-1.4l1.5-2.3l0.4-1.9l-13,1.8l-4.1,2.9l-3.8-3.1l-8.1,7.4v4.4
			l-0.8,0.8l0.2,3.1l-4.9,1.3l5,3.2l-7.3,12.6l10-0.5l2.5,6l15,3.3l10.3,7.9l1-2.9l2.3-0.2l2.8,4l15.6-2.2l6-1.5l5.8,7.4l5.7,0.8
			l5-5.4l10.4,5.4l4.8-4.9L182.9,223.5z"></path>
		<path d="M97.3,41.8l14.8,7.3l0.2,3.5l7.2-1.7l4.6,4.2l-6.6,4l1.2,6l4.1,0.9l2.8,7.7l3.9-4l2.3,3.4l3.7-2.5l2.1-5.8l8.5-5.9
			l0.9,2.6h2.8l5.8,5L168,62l2.5-3.4v-3l1.8-1.2l1.3,1.1l2-1.8l-2.8-6.8l4-0.2l3.8-1.3l0.9-2.8l3.7,0.5l4.4-3.7l1.7-4.4l-1-0.2
			L183,20.6l-5.1,1.3h-2.8l-4.1,5.9l-11.9,2.9l2-5.2l-1.3-2.4l0.2-4.9l-5.5-2.7l-1.1-5.1h-3.5l-1.6-2.3L143,8.3l-1.8,12l-3.6,1.6
			l-3.1-8.8l2.2-3.6h4.2L139,5.1h-7.1l-0.5,3.1L130.2,8l-3.7-5.8l-2.7,4.6l-1.6-1.2l-6.1,3.6l-2.8,5.8l-2.6,3.6l-2.8-1.4l-3.2,3.6
			l1.7,1.9l-1.6,8.3L97.3,41.8z"></path>
		<path d="M24.9,153.5l-2.8-14.3l15.5-12.6h3.3l1.9-4.7l3.3,3.3l4.4,3.1l3.3-4.5l2.5,0.3l2.5-0.9l2.7,3.3h5.4l-0.3-3.7l3.5-3.3
			l2.3,2l-1-8.1l0.8-2.8l-1-1.3l0.6-2.5l-1.6-2.8l-2,0.2l-11.4-6.3l0.7-5.3l-3.1-0.2l-3.2-1.5l-10.4,0.3l-1,5.3l2.5,1.1l-0.4,4
			l-4,0.9l-3.3,6.2l-11,4.9l-1.3,4.3l-7.1,5.6L3.9,133l5.5,19.7h6.8l5.1,2.2l3.3-0.4L24.9,153.5z"></path>
		<path d="M93.9,186.8v-4.5l8.2-7.5l3.8,3.1l4.1-2.9l13.3-1.8l-0.5,2.1l-1.5,2.3l0.4,1.1l5.1-1.6l4.6-3.9l0.4,1.6l1.7-0.3l1.4,3.7
			l1.9-0.3l-0.3-3.6h0.2l0.3,3.7l-2,0.3l1.2,3.2l0.8,4.2l2.2-0.5l1.9,6.2l-2.3,0.3l2.2,7.5l8.2,1l0.1,5.2l-1,3.4l1.3,0.3l4.1-5.4
			l4.9-1.8l5.7-4.8l4.3,0.2l1.6-2.1l10.7,0.3l-0.6,5.6l2.4,1.2l-1.6,3.7l-2.5,0.2l-0.3,4.1l-1,1.6l1.4,1.4l2.2-1.4l1.6,0.1l3.1-1.9
			l0.6-2.2l5.2-1.2l2.3,2.7l1.9-1.1l2.8,1.7l0.2,4.8l4.5,1.4l1-4.7l1.9-0.9l-1.3-2.9l3.2-0.4l4.5-7l2.5-0.7l0.7-3.5l5.8,1.8l0.4-2.6
			l3.2-2l0.9-3.2l-1.2-2l1.2-1.4l3.5,2.7l2.4,0.6l1.5-2l1.5,0.9l4-3.1l1.3,1.9l2.5,0.3l0.8,6.7l1.3,2.7l6.7,2.2l1.9,2.4l4.4,1
			l0.6-7.6l3.2-3.4l4-10.2l2.1-0.3l-1.5-3.3l2.1-3.1l-10.1-2.6l-0.6-2l-3.8,0.2l-2.2-4l1-3.6l-3.8-1.9l1.1-2.6l7.3-1.7l2.1-4.5
			l-4.6-5l-6.9,5.9l-2.3,0.3l-4.9-2.6l1.2-4l2.8-0.8l-1.3-2.7l-3.7,1.1l1.8-3l-3.3-5.5l5.9-2.4l-0.2-6.8l-1.9-1.4l0.6-2.9l-3.1-2.1
			h-2v-1.8l-2.5-2.2v-2.1l-4-2.6l0.6-2.5l-7.6-11.7l-1.6,0.1l-2.9-4l0.7-4l-1.1-1.9l-2.5,0.3l-2.7-4l-2.1,2.3v2.1l1.3-0.8l0.7,1.7
			l-0.5,4l-2.7,1.7l-6.4-0.9l-0.7,3.1c0,0-0.2,0.5-0.5,1l-0.4,0.7l-0.1,0.2l0.3,0.5c0.2,0.3,0.4,0.8,0.7,1.3l1,1.9l0.1,0.1l-2-0.3
			l-2,3l2.9,1.8l1.1,3l-3.4,5.8l0.5,3.5l-2.6,3.3l-4.7-0.7l-3.3,2.1l0.5,1.4l-0.8,1.9l-2.3-2.2l0.9-4.7l-1.4-0.1l-1.9,1.4l-1.8,0.2
			l0.2-3.1l0.9-1.2v-1.2l-2,0.4l-1.7-0.2l0.3-3.3l-1.6-2.4h-2l-2.4-4.8l-4.2-1.7l-2.2,4.6l-5.4,1.1l-0.6-2.6h-1.5l0.5,2.6l-1.2,0.3
			l0.3,3.3l-2.4-0.5l-1.2-4.7l-7.4,0.2l0.7,0.3l-2.1,0.4l0.9,7.3l1.9,0.1l0.9,3.9l2.7-0.9l-0.5,4l2,9.8l-4.3-0.1l-0.8,2.6l-1.9-0.4
			l-2.8-3.5l-0.7,4l-3.5-1.4l-2.6,1.6l-0.5-6l-10.9-1.8l-3-1.1l-2,2.6l3,4.1l-3.4,3.9l2.3,9.9l3.6,0.1l2.1,3.7h2.3v2.3l2.4,1.7
			l1.3-1.6l1.9-0.9l2.5,2.5l2.7,0.1v12.8l-2.7,2.5l0.7,3.4l-4.4,2l-0.9-2.5h0.2l0.8,2.3l4.1-1.8l-0.7-3.3l2.7-2.5v-12.6l-2.6-0.1
			l-2.5-2.4l-1.6,0.8l-1.5,1.8l-2.6-1.9v-2.2h-2.2l-2.1-3.7l-3.6-0.1l-2.4-10.1l3.3-3.9l-3-4.1l2.2-2.8l2.6,1.9l11,1.8l0.4,5.8
			l2.5-1.5l3.4,1.4l0.7-4.2l3,3.8l1.7,0.3l0.8-2.5l4.2,0.1l-2-9.6l0.4-3.8l-2.6,0.9l-0.9-3.9l-1.9-0.1l-0.9-7.6l1.7-0.3l-3.8-1.4
			l-4.1,0.5v-2l3.6-0.3l-1.2-3.3l-2.9,1l-2.5-6l-9.7-8.2l-2.6-5.9l-1-2.6l-4.3-2.1l-0.2-5.5l-2.2-0.7l-2.2,2.1l-1.6-1l1-3.8
			l-5.8-4.8l-6.2,3.5l-5.9-3.8l1.8-4.3L93,58.3l-3-4.5L87.7,59l-1.8-2.8l-4.5,5.6l-2.9-0.1l-4.1-4.3l-4.2,1.1l0.5,4.1l-7.5,3.8
			l-2.1-4.8l-6.6,10.6l-4.6,3.4v-1.5l-7.2-2.3L29.8,86.5l14.3,0.4l0.6,1.6l-4,2.6l10.6-0.4l3.2,1.5l3.3,0.3L57,97.8l11.2,6.2
			l2.2-0.2l1.6,3l-0.6,2.5l1,1.3l-0.8,2.8l1,8.6l-2.6-2.2l-3.3,3.1l0.2,3.7h-5.6l-2.7-3.2l-2.4,0.9l-2.5-0.3l-3.3,4.6l-4.6-3.3
			l-3.1-3.1l-1.9,4.5h-3.3l-15.3,12.5l2.8,14.2l-0.7,1.6l1.3,3.2l8.6,1.6l1.8,4.4l6.2-1.9l-3-7.8l4.2-0.6l1.2,5.2h3.3l0.2,4.3
			l6.7-2.9l8.6,0.5l4.1-5.2l7.2-1l12.7,24.7l-2.9,2l1,5.7l7.6-0.2L93.9,186.8z"></path>
	</g>
	<path id="estremoz" d="M213.8,43.9l10.8,5.7l2.5,0.3l2.1,1.7l-1.3,2.4l0.3,0.1l3.7-1.2l3,1.7l2.4-0.1l1.1,5.2l-2.1,2.5l1.8,2.2
		l1.4-0.1l2.7,3.2l-1.7,2l2,1l-0.2,8.4l-6.5,0.2l-2.3,2.1l-1.9-3.2l-3.4,2.4l-1.7-0.7l-3,4.9l-3.1-3.6l-3.7-0.1l-3.1-2.8l-1,0.4
		l0.9,5.7l2.6,3.9l2.5-0.3l1.4,2.5l-0.6,4l2.5,3.5l1.6-0.1l7.6,11.7l3-1.6l0.3-3.2l2.6,0.6l0.3-5.5l2.4-1.7l1.2,2.1l1.8-1l0.9,1.1
		l6.1-3.8l1.7-2.4l4.8,0.9l1.7-2.8l4.2,3.2l2.3-1.9l8.4,1.8l0.7-0.9l-5.9-8.9l8.4-4l1.5-3.8l-1-2l2.5-2.9l1.6,0.9l0.4-1l1.1-2.7
		l2.7-2.1h5.3l-0.4-2.2l1.7-2.4l-1.9-3.4l-2.3,0.6l-2.2-6.5l1.6-0.8l0.5-3.2l-2.5-1.8l4.5-5.9l-0.5-3l2.2-3.4l2.1-0.1l2.6-3.5
		l-1.2-0.3l-0.4-4.6l0.9-3.7l-7.4-3.3v-3.5l-5.1,0.1l-5.5-5.3h-2.1l-0.9,3.6l-2.4,0.1l2.8,3.2l0.3,3.7l-4.7,2.7l-1.1,2.6l-8.6-1.2
		l-4.6,6.1l-4,1.6l3.3,3.5l-4.2-0.1l-0.2,2.6l-2.6-0.4l-8.3-4.5l-2.9,5.6l-8.9-9.2l-2.2,4.4v3.7l-6.3,3.4l-3.7-1.2l-1.8,2.1H213.8z" data-municipality-id="91" data-title="Estremoz"><title>Estremoz</title></path>
	<path id="borba" d="M293.9,36.8l-2.4,0.1l-1.6,2.6l0.5,3.1l-4.2,5.3l2.2,1.5l-0.7,4.5l-1.3,0.6L288,59l2-0.6l2.8,4.9l-1.8,2.6
		l0.5,3.1h-6.3l-2.2,1.6l-0.9,2.4l-0.9,2.2l-2-1l-1.3,1.6l0.9,1.8l-1.9,4.7l-7.6,3.6l3.1,4.6l-0.4-1l2.5-1L276,90l-0.1,1.7l7,7.2
		l3.3,1.8l0.1-0.1v-0.1h0.3l-0.1-0.8l4.6-5.5l-3.6-0.7l5.9-7.2l-1-2.6l1-1.1l2.9,0.7l1.8-1.3v-3.1l11.3-4.6l0.3-0.4l-1.2-5.5
		l-4.4-7.8l2.1-2.3l0.9-2.8l-4.7-3.2l0.8-8.8L293.9,36.8z" data-municipality-id="90" data-title="Borba"><title>Borba</title></path>
	<path id="arraiolos" d="M191.8,35.6l-1.6,4.3l-4.8,3.9l-3.4-0.4l-0.8,2.6l-4.2,1.4l-3.1,0.2l2.6,6.3l-2.8,2.6l-1.4-1.1l-1.1,0.7V59
		l-2.8,3.7l-13,4.7l-5.9-5h-3l-0.7-2.2l-7.6,5.2l-2.1,5.8l-3.4,2.3L133,74l-3.7,4.9l-0.5,4.9L127,83l0.5,1.3l2.5,5.8l9.7,8.2
		l2.3,5.5l2.9-1l1.7,4.7l-3.9,0.4v0.6l3.5-0.4l3.3,1.2l8.3-0.2l1.2,4.8l1.1,0.2l-0.3-3l1.1-0.3l-0.5-2.8h2.8l0.6,2.5l4.5-0.9
		l2.4-4.9l5,2.1l2.3,4.6h2l1.9,2.9l-0.3,2.9l0.9,0.1l2.6-0.5v2.2l-0.9,1.3l-0.1,2.1l0.8-0.1l1.9-1.5l2.4,0.2l-1,5.1l1.3,1.2l0.3-0.7
		l-0.6-1.6l3.9-2.6l4.6,0.7l2.1-2.7l-0.5-3.4l3.4-5.7l-0.9-2.5l-3.3-2l2.6-4l1.1,0.2c-0.6-1.1-1.1-2.2-1.4-2.5
		c-0.1-0.1-0.2-0.3-0.2-0.5v-0.5l0.2-0.1c0.2-0.3,0.5-1.1,0.8-1.7l0.8-3.6l6.8,0.9l2.2-1.4l0.5-3.5l-0.3-0.8l-1.7,1l0.1-3.5l2-2.3
		l-0.2-0.3l0.1-0.1l-1-6.4l2.5-1.1l3.4,3l3.7,0.2l2.4,2.7l2.7-4.4l2,0.9l3.9-2.8l1.8,3l1.5-1.4l5.9-0.2l0.2-6.5l-2.8-1.3l2.1-2.5
		l-1.7-1.9l-1.5,0.1l-2.8-3.4l2.4-2.8l-0.8-3.7l-1.8,0.1l-2.8-1.7l-3.5,1.1l-2.1-0.5l1.5-2.8l-1.1-0.9l-2.4-0.2l-0.1-0.1l-11.3-6
		l-0.3-0.9l-18.1-4l-1.3-4L191.8,35.6z" data-municipality-id="89" data-title="Arraiolos"><title>Arraiolos</title></path>
	<path id="vilavicosa" d="M311.2,73.7l-1,1.6l-10.9,4.4v2.9l-2.7,2l-2.8-0.7V84l0.9,2.5l-5.1,6.2l3.7,0.8l-5.6,6.6l0.3,1.5h-0.6
		l-0.4,3.3l-1.8,0.7l1.2,2.9l2-0.6l2.6,4.5l-0.3,2l3.8-1.5l0.2-2.3l0.1-1.9l-2.4-0.6l0.3-5.9l4.2,0.9l2.5-2.4l6.7-0.6l3.6,2.7
		l5.8-0.9l-2.7-6.9l8.9-6.2l4.9,6.4l0.9-0.3l-0.2-2.1l2.1-0.9l3.2,2.8l3.6-3.5l-0.1-2.3l4.7-5.7h5.1l1.2,2.3l5.1,0.6l-1.4-1.5
		l0.5-2.7l-1.9-0.1V80l4.6-6.5l-0.4-4.3l0.2-5.1l-3.2,1.6l-3.3-4.9l-3.4-1.6l-1,3.3l-5.8,3.7l-4.3-3.3l-6.1,4.2l1.4,6l-7.9,2.1
		l0.3-2.1l-4.7,1.4l0.1-2.8L311.2,73.7z" data-municipality-id="101" data-title="Vila Viçosa"><title>Vila Viçosa</title></path>
	<path id="alandroal" d="M343.1,97.4l8.1-2.4l4.4-5.1l-2.2-2.5l-7-0.8l-1.2-2.3h-3.9l-4,5l0.1,2.4l-4.7,4.6l-3.5-3l-0.6,0.3l0.2,2.2
		l-2.7,0.7l-4.7-6.1l-7.2,5.1l2.9,7.3l-7.7,1.3l-3.7-2.8l-5.8,0.5l-2.6,2.6l-3.5-0.7l-0.2,3.5l2.4,0.6l-0.2,2.9l-0.2,3l-6.4,2.6
		l0.6-3.7l-1.9-3.3l-2.1,0.7l-0.6-1.4l-0.1,0.3l-1.4-0.1l-0.6,6l-2,1l-1.6,1.9l4.5,23.1l-2.5,0.2l-1.5,0.4l-1,3.1l-2.1-0.5l-2,1.2
		l-0.8,1.4l-1.9,1.1l-1.8,5.5l9.5,6.6l10.6-0.1l0.9,5l4.4,0.2l2.9,3l3.2-1.7l3.5,1.3l3.1-3.2l4.1-0.9l5.2,2.3l5.3,5.2l-1.7,5.5
		l1.4,0.7l0.9,10.2l0.7-0.2l0.3-1.7l5.2-2.2v-3.8l2.1-0.8l1.5-4.5l-1.9-1.1l-2.5,2.8l-2.8-1.2l3.4-11.6l3-1.1V154l4.4-10.1l2.1,0.2
		l4-11.4l2.3-4.1l-5.8-1.7l0.9-13.6L343.1,97.4z" data-municipality-id="88" data-title="Alandroal"><title>Alandroal</title></path>
	<path id="redondo" d="M271.3,171.5v-0.1l4.3-3.9l3.5-6.9l-10.1-6.9l2.2-6.8l2.1-1.2l0.7-1.3l2.7-1.6l1.5,0.3l0.8-2.6l2.3-0.6
		l1.3-0.2l-4.3-22.3l2.1-2.5l1.6-0.8l0.6-6.6l2.2,0.2l-1.2-2.7l2.3-0.9l0.3-2.2H286l-3.8-2l-0.1-0.1l-7.4-7.7l0.1-1.6l-0.6-0.6
		l-1.7,0.7l2.4,3.7l-1.7,2.2l-8.5-1.9l-2.5,2.2l-4-2.9l-1.4,2.3l-4.9-0.9l-1.3,2l-7.3,4.5l-0.9-1.2l-1.9,1.1l-1.2-2l-0.9,0.6
		l-0.3,6.3l-2.7-0.6l-0.1,2.5l-3.9,2l-0.5,1.8l4,2.5v2.2l2.5,2.1v1.5h1.5l3.6,2.5l-0.5,2.8l1.8,1.4l0.2,7.5l-5.6,2.3l3.1,5.1
		l-1.1,1.9l2.6-0.8l1.9,3.9l-3.2,0.9l-1,3.1l4.3,2.2l1.9-0.2l7.1-6.2l5.4,5.9l-2.4,5.2l-7.3,1.7l-0.7,1.7l3.6,1.8l-1,3.9l1.9,3.4
		l3.9-0.2l0.6,2.1l10.4,2.7L271.3,171.5z" data-municipality-id="97" data-title="Redondo"><title>Redondo</title></path>
	<path id="evora" d="M229.3,189.6l1.9,0.5l1.6-2.1l1.6,1l4.1-3.2l1.5,2.2l2.6,0.3l0.8,7l1.1,2.4l6.6,2.1l1.9,2.3l3.7,0.9l0.6-7.2
		l3.3-3.5l4-10.4l1.7-0.2l-1.3-3l1.8-2.8l-9.7-2.6l-0.5-1.8l-3.8,0.2l-2.5-4.5l0.9-3.4l-3.9-1.9l1.4-3.2l7.3-1.7l1.9-4l-4-4.4
		l-6.6,5.6l-2.6,0.3l-5.4-2.9l1.4-4.6l2.5-0.7l-0.9-1.8l-4.5,1.4l2.3-3.9l-3.4-5.7l6.1-2.5l-0.2-6.2l-1.9-1.4l0.6-2.8l-2.7-1.8h-2.4
		v-2.1l-2.5-2.2v-2l-4.1-2.6l0.6-2.6l-7.4-11.3l-1.5,0.1l-3.2-4.4l0.7-4.1l-0.9-1.5l-2.4,0.3l-2.6-3.7l-1.5,1.7v1l1-0.6l0.9,2.3
		l-0.6,4.4l-3.1,1.9l-6.2-0.8l-0.6,2.7v0.1c0,0-0.2,0.5-0.5,1l-0.4,0.7l0,0c0.1,0.1,0.1,0.2,0.2,0.3c0.2,0.3,0.4,0.8,0.7,1.3l1,1.9
		l0.5,1l-2.6-0.4l-1.5,2.3l2.6,1.6l1.3,3.4l-3.5,5.9l0.5,3.5l-2.9,3.7l-4.8-0.7l-2.8,1.8l0.5,1.2l-1.1,2.7l-3.2-2.7l0.9-4.5
		l-0.7-0.1l-1.8,1.4l-2.5,0.4l0.2-3.9l0.9-1.2v-0.4l-1.4,0.3l-2.2-0.3l0.3-3.6l-1.4-2.1H177l-2.4-4.9l-3.6-1.5l-2.2,4.4l-6.2,1.3
		l-0.6-2.7h-0.5l0.4,2.5l-1.2,0.3l0.4,3.6l-3.3-0.7l-1.1-4.6l-4.4,0.1h0.1l-3.5,0.6l0.8,6.4l1.9,0.1l0.9,3.7l2.9-1l-0.5,4.7
		l2.2,10.4l-4.5-0.1l-0.8,2.6l-2.5-0.5l-2.2-2.8l-0.6,3.5l-3.9-1.6l-3.1,1.9L139,132l-10.6-1.7l-2.2-1.6l-1.5,1.9l3,4.1l-3.4,4
		l2.2,9.3l3.4,0.1l2.1,3.7h2.5v2.5l1.8,1.3l1.1-1.3l2.3-1.1l2.6,2.6l3,0.1v13.5l-2.6,2.4l0.7,3.5l-5.3,2.4l-0.8-2.3l0.3,3.2
		l-1.9,0.3l1,2.7l0.7,3.7l2.2-0.4l2.3,7.2l-2.4,0.3l1.9,6.7l8.3,1l0.1,5.7l-0.9,2.9l0.5,0.1l4-5.3l5.1-1.8l5.7-4.9l4.3,0.2l1.6-2.1
		l11.5,0.4l-0.6,5.8l2.5,1.3l-1.9,4.4l-2.4,0.2l-0.3,3.8l-0.8,1.4l0.8,0.8l2-1.3l1.6,0.2l2.8-1.7l0.6-2.3l5.8-1.3l2.2,2.6l1.7-1
		l3.3,2l0.2,4.7l3.6,1.2l0.9-4.4l1.8-0.7l-1.4-3l3.7-0.5l4.5-7l2.4-0.6l0.7-3.7l5.8,1.8l0.3-2.2l3.2-2l0.8-2.8l-1.3-2.1l1.7-2
		L229.3,189.6z" data-municipality-id="92" data-title="Évora"><title>Évora</title></path>
	<path id="reguengosdemonsaraz" d="M301.3,231.7l-0.4-4.4l2.8-1.6l0.5-4.8l-3.9-7.1l9.2-5.5l2.1,0.8l1.8-1.7l-3-3.4l1.3-6l3.5-2.4
		l0.9-3.8l5.8-2.6l0.7-1.3l-0.9-10L320,177l1.8-5.8l-4.6-4.6l-4.7-2l-3.4,0.8l-3.5,3.5l-3.6-1.4l-3.5,1.8l-3.2-3.3l-4.9-0.2l-0.9-5
		l-9.2,0.1l-3.8,7.3l-4.3,4.1l-3.3,4.3l-0.9-0.3l-1.7,2.6l1.8,3.8l-2.6,0.3l-3.9,10l-3.2,3.3l-0.6,7.4l0.8,3.7l5.5,3l0.6,2.7
		l1.7,0.2l1.1,4l3.3,1.9l0.3,4.3l-1.2,1.1l1.4,2l-0.1,2.5l3.7-1v3.4l3,1.7v4h3.4l3,2.6l-0.1,4l2.2,0.9l8.6,6.1l0.2-0.5l5.4-3.7
		l0.3-5l5.6-0.7l1-3.6L301.3,231.7z" data-municipality-id="98" data-title="Reguengos de Monsaraz"><title>Reguengos de Monsaraz</title></path>
	<path id="mourao" d="M379.2,261.8l-6.7-11.3l-2.7-7.7l-1-5.3l-5.7-2.1l-8.8-17.6l-3.5-1.8l-12.7-17.8l-0.5-5.8l-9.7-4.9l-1.8,0.3
		l-2.5,0.7l-0.8,1.6l-5.7,2.6l-0.9,3.7l-3.5,2.3l-1.1,5l3.5,3.7l-3.2,3.1l-2.3-0.9l-7.7,4.6l3.5,6.5l-0.6,5.7l-2.6,1.5l0.2,3.3
		l5.4,4.9l1.3-4.6l-0.7-1.4l3.5-1.4l7.8,1.2l4.4-7.3l3.5,2.1l2.9-2.6l8-2.1l7,21.4l14.1,4.2l-2.1,7.8l10.5,19.7l1.7-4.9l2.3,1.2
		l2.4-1.9l0.9-2.8h4.5L379.2,261.8z" data-municipality-id="95" data-title="Mourão"><title>Mourão</title></path>
	<path id="portel" d="M285.8,245.7l-2.8-1.1l0.1-4.2l-2.2-2h-4.1v-4.5l-3.1-1.7v-2.6l-3.8,1l0.2-3.6l-1.8-2.7l1.6-1.3l-0.2-3.1
		l-3.2-1.9l-1-3.6l-1.7-0.3l-0.8-3l-5.5-2.9l-0.8-4l-4.3-1l-1.9-2.4l-6.8-2.2l-1.4-2.9l-0.7-6.4l-2.3-0.2l-1.1-1.6l-3.7,2.9
		l-1.4-0.8l-1.4,1.8l-2.9-0.7l-3.2-2.4l-0.4,0.6l1.1,1.8l-1,3.7l-3.2,2l-0.4,3l-5.8-1.8l-0.7,3.2l-2.7,0.7l-4.5,7l-2.7,0.4l1.2,2.6
		l-2.2,1l-1.1,5.1l-5.6-1.8l-0.2-4.9l-2.2-1.3l-2,1.1l-2.3-2.8l-4.5,1l-0.5,2l-2.4,1.5l0.5,1h2.5l-2.9,10.1l0.5,1.8l-4.6,4.7
		l3.4,1.8l2.6,3h3.8l13.8,8.7h3.8l2.1,2.8l5-3.3l4.9,2.6l25.6,15.1l6.3-3.6l12,1.9l4,4.5l3.3-1.7l12,1.4l3.7,0.8l-1.4-4.5l3.1-2.6
		l5.6-1.4l1.5-3.6L285.8,245.7z" data-municipality-id="96" data-title="Portel"><title>Portel</title></path>
	<path id="vianadoalentejo" d="M182.8,225l-0.4-1.5l2.5-8.9h-1.7l-0.7-1.5l-1.7-0.2l-2.4,1.6l-2.1-2.1l1.1-1.9l0.4-4.5l2.7-0.3
		l1.2-2.7l-2.2-1.2l0.6-5.3l-9.7-0.3l-1.6,2.1l-4.4-0.2l-5.5,4.7l-4.9,1.7l-4.3,5.7l-2.4-0.6l1.1-4l-0.1-4.5l-8-1l-2.5-8.7l2.3-0.3
		l-1.5-4.9l-2.3,0.5l-0.9-4.8l-2.5-6.5l-1.7,0.4l-0.3-1.2l-3.7,3.2l-6,1.9l-0.7-2l1.7-2.5l0.2-1.1l-12.2,1.6l-4.4,3.1l-3.7-3.1
		l-7.6,7v4.4l-0.8,0.8l0.2,3.2l-4.2,1.2l4.4,2.8l-7,12.2l9.4-0.4l2.6,6.1l14.8,3.3l9.9,7.5l0.9-2.6l2.8-0.2l2.8,4l15.3-2.2l6.3-1.6
		l5.9,7.5l5.2,0.7l5.1-5.4l10.3,5.4L182.8,225z" data-municipality-id="100" data-title="Viana do Alentejo"><title>Viana do Alentejo</title></path>
	<path id="mora" d="M112.8,52l6.9-1.6l5.3,4.7l-6.9,4.3l1,5.3l4.1,0.8l2.6,7.3l3.7-3.9l2.4,3.5l3.2-2.1l2.1-5.8l9.2-6.4l1,2.9h2.6
		l5.7,4.9l12-4.3l2.3-3.2v-3.1l2.4-1.5l1.2,1l1.5-1.3l-3-7l4.6-0.3l3.5-1.1l0.9-3l3.9,0.4l4.2-3.4l1.4-3.7l-0.6-0.2l-7.3-14.1
		l-4.7,1.3h-2.7l-4,5.8l-13.1,3.2l2.3-5.8l-1.2-2.3l0.2-4.8l-5.5-2.6l-1-5h-3.4L148,8.6l-4.5,0.2l-1.8,11.8l-4.4,2l-3.4-9.5l2.5-4.1
		h3.7l-1.4-3.4h-6.3l-0.6,3.2l-1.9-0.3l-3.4-5.3l-2.6,4.4l-1.8-1.4l-5.6,3.3l-2.8,5.8l-2.8,3.9l-2.9-1.4l-2.6,3l1.6,1.8l-1.8,8.6
		L98,41.6l14.6,7.2L112.8,52z" data-municipality-id="94" data-title="Mora"><title>Mora</title></path>
	<path id="vendasnovas" d="M24.2,154l0.2-0.5L21.6,139l15.8-12.9h3.2l2.1-5l3.7,3.7l4,2.8l3.1-4.4l2.8,0.4l2.7-1l2.8,3.4h4.5
		l-0.2-3.4l4-3.7l1.7,1.4l-0.9-6.9l0.8-2.7l-1-1.3l0.5-2.5l-1.2-2.4l-1.9,0.2l-11.8-6.5l0.6-5.1l-2.6-0.2l-3.2-1.5l-9.9,0.3
		l-0.8,4.5l2.5,1.1l-0.6,4.7l-4,0.9l-3.4,6.2L24,114l-1.2,4.2l-7.2,5.7l-11.1,9.3l5.2,19h6.6l5.1,2.1L24.2,154z" data-municipality-id="99" data-title="Vendas Novas"><title>Vendas Novas</title></path>
	<path id="montemoronovo" d="M93.4,186.6v-4.4l8.7-8l3.8,3.1l3.9-2.7l14.1-1.9l-0.6,2.9l-1.5,2.2l0.2,0.4l4.7-1.4l5-4.4l0.4,2
		l1.6-0.4l1.4,3.7l1-0.1l-0.3-3.7h2.1l0.7,2.1l3.2-1.4l-0.7-3.2l2.8-2.5V157l-2.4-0.1l-2.3-2.3l-1.3,0.6l-1.6,2l-3.1-2.2v-2h-2
		l-2.1-3.7l-3.7-0.1l-2.5-10.8l3.2-3.7l-3-4.1l2.7-3.5l2.9,2.1l11.3,1.9l0.4,5.4l2-1.2l3,1.2l0.8-4.7l3.6,4.6l1.1,0.2l0.7-2.5l4,0.1
		l-1.9-9.1l0.3-3.1l-2.4,0.9l-0.9-4.1l-2-0.2l-1-8.5h0.3l-1.9-0.8l-4.6,0.6v-3.1l3.5-0.3l-0.8-2.2l-2.9,1l-2.6-6.3l-9.7-8.2
		l-2.6-6.1l-0.9-2.4l-4.4-2.1l-0.2-5.5l-1.6-0.5l-2.3,2.1l-2.3-1.4l1.1-3.9l-5.3-4.4l-6.2,3.5l-6.5-4.2l1.8-4.2l-6.9-3l-2.6-3.9
		l-2.3,5.3l-1.9-3l-4.3,5.3l-3.3-0.2L74.2,58l-3.5,0.9l0.5,4l-8.3,4.2L61,62.7l-6.2,9.9l-5.4,4v-2.1l-6.5-2.1L30.9,86l13.5,0.3
		l0.9,2.3l-2.8,1.9l8.9-0.3l3.2,1.5l3.6,0.3l-0.6,5.6l10.7,5.9l2.3-0.2l1.9,3.4l-0.6,2.4l1,1.4l-0.8,2.9l1.2,9.8l-3.2-2.8l-2.8,2.7
		l0.3,4h-6.4l-2.6-3.1l-2.2,0.8l-2.3-0.3l-3.4,4.8l-5.1-3.6l-2.5-2.6l-1.7,4.1h-3.6l-14.9,12.3l2.7,14.1l-0.6,1.5l1.1,2.8l8.7,1.6
		l1.7,4.2l5.3-1.6l-3-7.9l5.3-0.7l1.2,5.2h3.4l0.1,4.1l6.2-2.7l8.5,0.6l4-5.1l7.8-1.1l13,25.4l-3,2.1l0.9,4.9l7-0.1L93.4,186.6z" data-municipality-id="93" data-title="Montemor-o-Novo"><title>Montemor-o-Novo</title></path>
</g>
</svg>