<svg xmlns="http://www.w3.org/2000/svg" viewBox="0 0 375.8 172.3" class="map-svg map-municipalities" data-id="8" data-district="faro">
<g data-title="faro" data-district-id="8">
	<g id="map-bg" class="map-bg">
		<path class="st0" d="M90.1,115.7l-1-2.4l-0.9-0.5l-1.5-2.2l-1.4-6.5h-1.8l-1.9-2.1l-1.5-0.1l-2.3-3.6l-2.7-0.1l0.8-3.9l-1.7-1.5
			l-3.9-0.5c0,0.2,0,0.5,0.1,0.7l0.1,0.4L68,93.8L67.6,96L66,95.8l-1.9-0.1l-1.7-1.5L57,97.4l0.8,1.9l-2,1l0.7,1.1l-0.5,2.8l-3,2.1
			l-4.3,0.5L48,108l-2.5,1.3l-2.2,2.2h0.1l-2.3,3l0.5,1.3l2.1,0.1l1.6,2.5l2.7-0.8l1.4,4.3l1.7,0.5l1.6-2.1l1.2,4.4l3,2.2l0.7,2.8
			l1.1,0.8l-1.6,1.5l1,7.1l11.5-4.7l11.9,1.9l0.3-7.9l6.7-4l0.2-1.3l3.4-2l-0.2-3.3L90.1,115.7z"></path>
		<path d="M57.1,130.5l-0.5-0.4l-0.7-2.7l-3-2.2l-0.8-3.1l-0.9,1.3l-2.7-0.9l-1.2-4l-2.5,0.8l-1.7-2.7l-2.3-0.1l-0.8-2.2l1.9-2.4
			l-0.8-0.2l-2.5,2.6l-4.6,0.3l-0.6,2.1l-2.7-0.2l-1.2-1.1l-2.9-0.4l-11.4,18l-0.9,6.5l-3.3,3v4.1l-4.2,6l6.9-1l2.6,2.9l1.2,5.5
			l2.4-2l2.8-0.5l0.4-4.4l4.2-1l3-5.9l4.9-1.7l2.2,0.2l2.7-3.3l13.6-0.7l3.3-1.4l-1.1-7.7L57.1,130.5z"></path>
		<path d="M112.1,120.3l1.7-2.8l2.4-0.1l1.7-1.3l0.5-4.4l3.7-0.9l0.7-2.7l-0.4-1.6l-1.2-2.3h-3.9l-2.8-3.6v-2.2l0.6-2.9l-0.6-2.5
			l-1.1,0.7h-1.5l-0.5-2.8l1.1-1.4V88l-1.9-0.2l-2.2,0.9l-2.3-1.2l-1.1,1.7l-5.9-3.9l0.2-3l-1.1-2.4l-1.4,3.6L95,81.3l-2,1.1
			L92.5,80l-0.3,0.1L92.1,83l-2,2l0.1,4.8l-1.4,1.6l-1.9,1.9l-1.5-0.9l-0.7-3l-1.5-1l-0.5,0.7l-0.6,2.3l-0.2,2.5l-3.2,1.4l-0.1,2.5
			l2,3.3H82l1.9,2.2h2l1.5,7l1.4,1.9l0.9,0.5l1.1,2.6l1.7,2l0.2,3.2h2.8l2.2-3.9l2.9-0.5l-2.2,4.2l-1,2.1l2.5,1.8l12.3,0.2l1,2.3
			l0.1-0.7l-0.1-3.1L112.1,120.3z"></path>
		<path d="M145.5,126.7l-0.4-2.3l1.7-1v-2.3l-1.2-4.9l-6,2.3l-1.8-1.1l-3.3,1l-0.8-1.7l-5.1-0.9l1.8-2.8l-3.3-4.9l-1.6,0.6l-1.9-0.2
			l-0.7,3l-3.7,0.9l-0.5,4.2l-2.2,1.6l-2.2,0.2l-1.2,2l1,2.3v3.4l0,0l-0.3,1.9l19.6,6l14.8-3.4l-0.1-2.2L145.5,126.7z"></path>
		<path class="st0" d="M80.1,54.5L76.3,54c0.5,2.8,0.4,3,0.4,3.1s-0.1,0.2-0.2,0.3c-0.2,0.1-0.5,0.1-2.1-0.6l-1-0.5l-0.1,0.6
			l2.5,2.9l-1.1,1.9H73l-1,0.6v3.6h-2.8l-0.4,2.9l-3.5,2.3l1.3,3.6v5L65.4,85l-2.2,1.2L63,93.4l1.6,1.4l1.6,0.1L67,95l0.3-2l2.3-0.3
			c-0.1-0.4,0-0.8,0.1-1.1c0.1-0.1,0.2-0.2,0.4-0.2c0.2,0,3.2,0.4,4.5,0.5h0.1l2.2,2l-0.7,3.3h1.5l0.2-2.7l3.2-1.4l0.2-2l0.6-2.5
			l1-1.6l2.5,1.7l0.6,2.9l0.6,0.4l1.4-1.5l1.2-1.3l-0.1-4.8l2-2.1l0.1-3.1l1.7-0.7l0.5,2.2l1.6-0.9l1.3,1.6l1.7-4.1l1.9,4.4
			l-0.1,2.7l4.7,3.2l1.1-1.7l2.6,1.4l2-0.9l2,0.2v-0.1h0.2l1.8-1.8l3.7,1.4l-0.2,1.8l1.6,0.1l0.3-2.1l2.2-0.4l3.1-4.1l-1.7-1.4
			l3.7-2.8l4.1-1.7l2.1,0.8l0.9-3.8l-2.4-2.1l1.6-3.5l2.1-0.3l0.1-1l-1.5-1l3-3.7l-0.9-1.6l1.1-2.2l-1-1.9l-6.1-3.8l-0.1,0.2
			l-12.4-3l-1.2,1.9l-12.9-9.2l-1.9,2.6h-8.9l-5.2,7.3l-4-7.3l-4.8,0.5l1.3,5L80.1,54.5z"></path>
		<path d="M359.6,102.8l0.9-3.2l3.3,1.3l0.3-3.1l2.8-0.4l-1.2-6.6l-3.2-1.6v-4l2.1-5.2l-2.4-1.9l-2.7-17l1.5-4.8l-0.1-3.2l-8.9,1
			l-1.7-1.8l-2.5-2.2L346,53l-1.5-3.3l-3-0.5l-3.9-1.6l-1.8-0.7l-1,1.9l-1.9-0.3l-0.6-1.1l-1.4,2.2l-2-0.5l-0.6,1.9l-6.6,0.1v1.5
			l1.1,2l-1.4,4.4l-2.6,2.7l0.9,2.5h-2l-0.5,2l-1.2,0.7l2.1,9.5l3.1,0.7l2.4,4.1l4,2.8l3.5,0.8l0.4,1.7l8.1-2.4L339,94l1.4,7.2
			l1,2.6l3.5,2.5l0.1,0.1l1.5,4.1l6.4-1.1l0.6-5.9l3.8,0.4L359.6,102.8z"></path>
		<path class="st0" d="M340.7,104.4l-1.1-3l-1.5-7.3l0.5-8.8l-6.7,2c-0.1,2.6-0.8,21.6-1,29.3l14.8-5.9l-1.5-3.8L340.7,104.4z"></path>
		<path class="st0" d="M261.3,42.3l-1.8,2.7l1.7,2.7l0.1,1.6c4.8,0.7,11.6,1.7,12,1.8L278,51l2.8-2.7l2.7,0.9l0.5,1.4h1.9l1.9,0.5
			l3.3,7.1l1.2,3.3l1.7,2.9l1.2-0.2l0.8,8.1l2.8,1.6l7-0.2l0.2,4.4l2.6,1.1l2.1-1.1l2.2,1l2.6-0.7l1.9-1.6L315,66.4l1.5-0.8l0.6-2.2
			h1.5l-0.7-1.9l2.9-3l1.2-3.8l-1-1.9l-0.1-2.6l6.9-0.1l0.6-2.1l2.2,0.6l1.8-3l1.1,2.1l0.9,0.1l1.1-2.1l2.5,1l3.9,1.6l3.4,0.6l1,2.2
			l1.5-2.4l3.2,2.9l1.4,1.5l8.5-0.9l-0.3-5.4l-4.7-5.2V40l2.9-0.5l1-2l-2.4-1.5l-2-8.4l-0.5-5.7l1-2.4l-5.9-3.9l-0.8-5.9l-5-1.7
			l-2.4-0.2l-2.5,1.5L334,9.2l-2.9-1.5l-3.2,4l-2.5,0.2l-1.4,3.4l-2.5,0.8l-2,2.4l-3.4-2.4l-2.9,1l-2.7-2.2l-17.1,3.9l-3.5,2.7H287
			l-10.3,6.4l-2.9,0.2l-1.2,2.5l-7.2,0.3l-0.3,3l-3.2,1.2l-3.7-0.5l-0.7,1.7l1,4L261.3,42.3z"></path>
		<path class="st0" d="M27.1,114.2l2.8,0.4l1.2,1.2l1.7,0.1l0.6-2l4.9-0.3l2.6-2.7l1.4,0.4l2.7-2.6l2.4-1.3l0.9-1.4l4.5-0.5l2.5-1.8
			l0.4-2.1l-1-1.6l2.1-1.1L56,97l6.1-3.6l0.3-7.7l2.3-1.2l1-4.9v-4.8l-1.4-4l3.7-2.5l0.5-3.2h2.7v-3.2l1.6-1h1.4l0.6-1l-2.4-2.8
			l0.5-2l0.5,0.2c0.9,0.4,1.9,0.9,2.5,1.1c-0.1-0.6-0.3-1.9-0.5-2.9L75.2,53l4,0.6l-0.1-3.8l-1.3-5.1l-11.5,1.2l-1.2-5.7h-1.5
			l-1.2-4.7h-9.1l-2.4-3.9l-1.3,10.6l-13.3,23l-2.9,1.3l0.2,7.1l2.7,0.8l1.7,6.7l-9.8,19.5l-3.3,1.3l3.5,9.8L27.1,114.2z"></path>
		<path class="st0" d="M330.9,87.3l-0.5-1.8l-3.1-0.7l-4.3-3l-2.3-3.9l-2.4-0.6l-2.4,2l-3.1,0.9l-2.1-1l-2.1,1.1l-3.4-1.5l-0.2-4.1
			l-6.4,0.2l-3.4-1.9l-0.7-7.6l-0.9,0.1l-2-3.5l-1.2-3.4l-3.1-6.7l-1.5-0.4l-2.4-0.1l-0.5-1.5l-1.8-0.6l-2.6,2.5h-0.2l-5,0.1
			c-0.3,0-8.8-1.3-12.1-1.8l-0.4,3.3l-4.1,4.3l0.8,3.2L256,62l-0.5,5.2l-2.1,0.7l0.1,2.6l3.2,3.4l3.1,2.7l-0.2,3.7l-3,0.8l-0.2,1.1
			l1.4,2.1l3,0.5l2.1-2.1l3.8-0.1l2.8,1.7l4.7-0.2l1.4,0.7l2.5-0.5l4.6,0.7l-1.2,3l-1.7,3.4l-0.1,1.3l-1.5,0.9l-1.3,3l-3.8,0.2
			l-0.5,1.8l1.4-0.1l-0.2,2.6l1.8,2l-1.2,1.3l-3.9-0.7l-1.1,3.6l3.2,1.9l0.1,7l-1.3,0.9l0.6,1.6l2.8,2.4l-0.1,0.3
			c-0.1,0.4-0.3,0.8-0.4,1.1l12.9-1.2h0.4l2.3,7.9l1.8,8.6l4.9,4.1l23-17.1l9.4-7.4l1-0.4c0.3-7.4,1-26.7,1.1-29.7H330.9z"></path>
		<path class="st0" d="M274.8,144.3l1.7,5.8l1.9,4.2l2.5-0.7l15.1-11.2l-5-4.2l-1.9-8.9l-2.1-7.2c-3.4,0.3-12.9,1.2-13.1,1.2
			c-0.1,0-0.3-0.1-0.4-0.2c0-0.1-0.1-0.1-0.1-0.2l-3.1,0.4l-0.1,2.6l-0.8,1.3l0.2,1.8l3.4,1.5l-0.8,3.6l-4,3l-1.7,0.2l-0.5,1.4
			l-2.7,1.2l-3.2-1.1l-0.9,0.9l0.8,3.8l-0.9,4.3l0.6,4.8"></path>
		<path d="M367,98.2l-2.1,0.4l-0.3,3.5l-3.5-1.4l-0.8,2.6l-2.8,1.5l-3.3-0.4l-0.5,4.9l7.3-1.2l8.1,2.1L367,98.2z"></path>
		<path d="M161.2,124.7l1.3-6.7l7.9-1.3l2.1,1l5.6-1.9l-1.5-5.7l1.3-6.7l2.2-7.1l0.9-0.1l0.3-6.8l6.8-13.4l4-0.2l1-2l-3.4-3.2
			l-0.2-2l-2.2-1.9l1.2-1.2l1.9-1.6l0.1-3.1l0.2-1l-1.2-0.3l-13.1-11.1l-5.4-0.2l-0.1-4.4l2.3-1.8l-2.7-0.9l-0.8-5.7l-6.2-0.1
			l-1.7-1.4l-3.2,3.2l-1-1.7l-2.7,1.9l-2.7-1.5l-13.1,2.8l-1.5,5.6l-2.2,4.8H132l-1.2,2l6.3,3.9l1.3,2.5l-1.2,2.2l0.9,1.8l-2.7,3.4
			l1.2,0.8l-0.3,2.2l-2.3,0.3l-1.1,2.6l2.2,2.1l-1.2,5.2l-2.7-1l-3.7,1.6l-2.7,2l1.5,1.3l-3.8,5l-2,0.3l-0.3,2.3l-3.3-0.3l0.3-2
			l-2.5-0.9l-1.4,1.3v2.2l-1,1.3l0.3,1.7h0.5l1.9-1.1l1,3.8l-0.7,3l0.1,1.9l2.3,3l4-0.1l1.5,2.9l0.4,1.5l1.8,0.2l2-0.8l4,5.9
			l-1.4,2.2l4.2,0.8l0.7,1.4l3-0.9l1.7,1l6.6-2.5l1.5,6v2.9l-1.6,1l0.2,1.3l2.6,1.7l0.1,2.5l2.9-0.6l5.9,3.1l1.1-5L161.2,124.7z"></path>
		<path class="st0" d="M197,130.6l1-2.1l-7.1-0.5v-2.4h-2.6l0.2-3.5l3,0.5l1-2l-1.1-0.3l-0.3-1.7l3-1.9l0.2-2.2l1.1-1.1l2.2-8.2
			l-1.4-0.5l-0.9-2.6c-1.3,0-2.7,0-2.9,0s-0.3,0-1.9-0.8c-0.8-0.4-1.9-1-3.3-1.8l-4.6-2.6l-1.9,0.1l-2,6.6l-1.2,6.4l1.7,6.3
			l-6.8,2.2l-2.1-1l-7.1,1.1L162,125l-2.2,3.2l-1.2,5.1l3.7,2l5.6,2.7l8.4-3.5l4.9,0.3l7.7-1.9l14.4,3.2v-0.2L197,130.6z"></path>
		<path class="st0" d="M276.4,95.7l1.2-2.7l1.4-0.8l0.1-1.1l1.8-3.5l0.8-1.9l-3.4-0.5l-2.6,0.5l-1.5-0.7l-4.8,0.2l-2.8-1.7l-3.2,0.1
			l-2.2,2.2l-3.4-0.5l-1.1,0.8l-2.9,0.6l-0.9,1.6l2,2.7l-1,8.5l-2.8-1.5l-1.5-3.3l-5.1,2.1l0.1,4.1l-2.9-0.1l0.2,2.4l2.6,3.4
			l-0.7,4.2l2.4,0.9l0.3,5.6l1,0.2l0.5,2.1l4.2,0.6l2.1,2l4.6,0.5l5.3-2.8l4.4,3l5-0.7c0-0.1,0-0.1,0.1-0.2s0.1-0.4,0.2-0.5
			l-2.5-2.2l-0.9-2.4l1.5-1l-0.1-6.1l-3.4-2l1.5-5l4.2,0.8l0.3-0.4l-1.5-1.7l0.2-2l-1.6,0.1l1.1-3.5L276.4,95.7z"></path>
		<path class="st0" d="M235.4,142.3l2.3,0.8l-0.5-2.7l2.5-1.2l2.4,1.8l3-3.2l-6.1-3.4l-0.4-1.5l-3.7,0.1l-0.6-2.8l-2.1-2.4l0.4-3
			l13.2-7.3l-0.3-5.1l-2.5-0.9l0.7-4.5l-2.5-3.3l-0.3-3.6l3,0.1l-0.1-3.8l6.4-2.6l1.7,3.8l1.4,0.8l0.9-6.9l-2.2-2.9l1.4-2.4l3.1-0.7
			l0.8-0.5l-1.5-2.2l0.4-1.9l2.9-0.7l0.1-2.7l-2.8-2.5l0,0l-3.5-3.7l-0.2-3.6l2.2-0.8l0.5-5.1l1.3-1l-0.7-3.1l4.2-4.5l0.5-3.4
			l-0.1-1.7l-1.8-3l1.7-2.4l-2.3-1.8l-4.1,1.8l-2-0.7l-3.6,1.2l-5.4-0.7l-4,0.7l-2,3.2l-3.7-0.8l-1,6l2.5,1.5l0.3,3.2l-5.7,0.7
			l-11.4,10.4l-2.4-1.7l-10.6-1.4l-13.3-4.1l-0.2,0.8l-0.1,3.5l-2.3,1.8l-0.5,0.6l1.8,1.5l0.2,2.1l3.7,3.4l-1.5,3l-4,0.1l-6.5,12.9
			l-0.3,6.5l0.9-0.1l0.1,0.1c3.3,1.9,8.8,4.9,9.5,5.1c0.5,0,2,0,3.2,0h0.3l1,2.8l1.8,0.6l-2.5,9.2l-1,1l-0.2,2.3l-2.9,1.8l0.1,0.6
			l1.6,0.4l-1.8,3.5l-2.7-0.4l-0.1,1.6l2.5-0.1v2.4l7.5,0.6l-1.3,2.7l6,5.2v0.8l22.6,14.6l6.6,3.8l1.5-1.5L235.4,142.3z"></path>
	</g>
	
	<g id="bg-white" class="bg-white">
		<path d="M262.7,155.6l-0.9-1.4l-1.7,0.8l-0.6,1.2l0.7,1.2l2.3,0.5L262.7,155.6z"></path>
		<path d="M273.5,147.6l-2.1,0.1l-7.1,4v2.2l9.9-3L273.5,147.6z"></path>
		<path d="M270.3,154l-8.8,6.6l4-0.3l8-4.8l1-1.3l-3.3,0.8L270.3,154z"></path>
		<path d="M253.2,164.8l-0.5-0.6l3.8-1.3l-3.1-4.5l-2.6-2.6l-2.3,2.1l-2.4-1.2l-1.1-2.8l-5.6,0.1l-0.3,2.2l11,7.6l0.6,0.4l-0.1,0.1
			l1.9,1.5l1-0.1l3.6,0.9l3-1.1l-3-1.2L253.2,164.8z"></path>
		<path class="st1" d="M88.1,111.7l-1-2.4l-0.9-0.5l-1.5-2.2l-1.4-6.5h-1.8L79.6,98l-1.5-0.1l-2.3-3.6l-2.7-0.1l0.8-3.9l-1.7-1.5
			l-3.9-0.5c0,0.2,0,0.5,0.1,0.7l0.1,0.4L66,89.8L65.6,92L64,91.8l-1.9-0.1l-1.7-1.5L55,93.4l0.8,1.9l-2,1l0.7,1.1l-0.5,2.8l-3,2.1
			l-4.3,0.5L46,104l-2.5,1.3l-2.2,2.2h0.1l-2.3,3l0.5,1.3l2.1,0.1l1.6,2.5l2.7-0.8l1.4,4.3l1.7,0.5l1.6-2.1l1.2,4.4l3,2.2l0.7,2.8
			l1.1,0.8l-1.6,1.5l1,7.1l11.5-4.7l11.9,1.9l0.3-7.9l6.7-4l0.2-1.3l3.4-2l-0.2-3.3L88.1,111.7z"></path>
		<path d="M55.1,126.5l-0.5-0.4l-0.7-2.7l-3-2.2l-0.8-3.1l-0.9,1.3l-2.7-0.9l-1.2-4l-2.5,0.8l-1.7-2.7l-2.3-0.1l-0.8-2.2l1.9-2.4
			l-0.8-0.2l-2.5,2.6l-4.6,0.3l-0.6,2.1l-2.7-0.2l-1.2-1.1l-2.9-0.4l-11.4,18l-0.9,6.5l-3.3,3v4.1l-4.2,6l6.9-1l2.6,2.9l1.2,5.5
			l2.4-2l2.8-0.5l0.4-4.4l4.2-1l3-5.9l4.9-1.7l2.2,0.2l2.7-3.3l13.6-0.7l3.3-1.4l-1.1-7.7L55.1,126.5z"></path>
		<path d="M110.1,116.3l1.7-2.8l2.4-0.1l1.7-1.3l0.5-4.4l3.7-0.9l0.7-2.7l-0.4-1.6l-1.2-2.3h-3.9l-2.8-3.6v-2.2l0.6-2.9l-0.6-2.5
			l-1.1,0.7h-1.5l-0.5-2.8l1.1-1.4V84l-1.9-0.2l-2.2,0.9l-2.3-1.2l-1.1,1.7l-5.9-3.9l0.2-3l-1.1-2.4l-1.4,3.6L93,77.3l-2,1.1
			L90.5,76l-0.3,0.1L90.1,79l-2,2l0.1,4.8l-1.4,1.6l-1.9,1.9l-1.5-0.9l-0.7-3l-1.5-1l-0.5,0.7l-0.6,2.3l-0.2,2.5l-3.2,1.4l-0.1,2.5
			l2,3.3H80l1.9,2.2h2l1.5,7l1.4,1.9l0.9,0.5l1.1,2.6l1.7,2l0.2,3.2h2.8l2.2-3.9l2.9-0.5l-2.2,4.2l-1,2.1l2.5,1.8l12.3,0.2l1,2.3
			l0.1-0.7l-0.1-3.1L110.1,116.3z"></path>
		<path d="M143.5,122.7l-0.4-2.3l1.7-1v-2.3l-1.2-4.9l-6,2.3l-1.8-1.1l-3.3,1l-0.8-1.7l-5.1-0.9l1.8-2.8l-3.3-4.9l-1.6,0.6l-1.9-0.2
			l-0.7,3l-3.7,0.9l-0.5,4.2l-2.2,1.6l-2.2,0.2l-1.2,2l1,2.3v3.4l0,0l-0.3,1.9l19.6,6l14.8-3.4l-0.1-2.2L143.5,122.7z"></path>
		<path class="st1" d="M78.1,50.5L74.3,50c0.5,2.8,0.4,3,0.4,3.1s-0.1,0.2-0.2,0.3c-0.2,0.1-0.5,0.1-2.1-0.6l-1-0.5l-0.1,0.6
			l2.5,2.9l-1.1,1.9H71l-1,0.6v3.6h-2.8l-0.4,2.9l-3.5,2.3l1.3,3.6v5L63.4,81l-2.2,1.2L61,89.4l1.6,1.4l1.6,0.1L65,91l0.3-2l2.3-0.3
			c-0.1-0.4,0-0.8,0.1-1.1c0.1-0.1,0.2-0.2,0.4-0.2c0.2,0,3.2,0.4,4.5,0.5h0.1l2.2,2l-0.7,3.3h1.5l0.2-2.7l3.2-1.4l0.2-2l0.6-2.5
			l1-1.6l2.5,1.7l0.6,2.9l0.6,0.4l1.4-1.5l1.2-1.3l-0.1-4.8l2-2.1l0.1-3.1l1.7-0.7l0.5,2.2l1.6-0.9l1.3,1.6l1.7-4.1l1.9,4.4l0.1,3.1
			l4.7,3.2l1.1-1.7l2.6,1.4l2-0.9l2,0.2v-0.1h0.2l1.8-1.8l3.7,1.4l-0.2,1.8l1.6,0.1l0.3-2.1l2.2-0.4l3.1-4.1l-1.7-1.4l3.7-2.8
			l4.1-1.7l2.1,0.8l0.9-3.8l-2.4-2.1l1.6-3.5l2.1-0.3l0.1-1l-1.5-1l3-3.7l-0.9-1.6l1.1-2.2l-1-1.9l-6.1-3.8l-0.1,0.2l-12.4-3
			l-1.2,1.9l-12.9-9.2l-1.9,2.6h-8.9l-5.2,7.3l-4-7.3l-4.8,0.5l1.3,5L78.1,50.5z"></path>
		<path d="M357.6,98.8l0.9-3.2l3.3,1.3l0.3-3.1l2.8-0.4l-1.2-6.6l-3.2-1.6v-4l2.1-5.2l-2.4-1.9l-2.7-17l1.5-4.8l-0.1-3.2l-8.9,1
			l-1.7-1.8l-2.5-2.2L344,49l-1.5-3.3l-3-0.5l-3.9-1.6l-1.8-0.7l-1,1.9l-1.9-0.3l-0.6-1.1l-1.4,2.2l-2-0.5l-0.6,1.9l-6.6,0.1v1.5
			l1.1,2l-1.4,4.4l-2.6,2.7l0.9,2.5h-2l-0.5,2l-1.2,0.7l2.1,9.5l3.1,0.7l2.4,4.1l4,2.8l3.5,0.8l0.4,1.7l8.1-2.4L337,90l1.4,7.2
			l1,2.6l3.5,2.5l0.1,0.1l1.5,4.1l6.4-1.1l0.6-5.9l3.8,0.4L357.6,98.8z"></path>
		<path class="st1" d="M338.7,100.4l-1.1-3l-1.5-7.3l0.5-8.8l-6.7,2c-0.1,2.6-0.8,21.6-1,29.3l14.8-5.9l-1.5-3.8L338.7,100.4z"></path>
		<path class="st1" d="M259.3,38.3l-1.8,2.7l1.7,2.7l0.1,1.6c4.8,0.7,11.6,1.7,12,1.8L276,47l2.8-2.7l2.7,0.9l0.5,1.4h1.9l1.9,0.5
			l3.3,7.1l1.2,3.3l1.7,2.9l1.2-0.2l0.8,8.1l2.8,1.6l7-0.2l0.2,4.4l2.6,1.1l2.1-1.1l2.2,1l2.6-0.7l1.9-1.6L313,62.4l1.5-0.8l0.6-2.2
			h1.5l-0.7-1.9l2.9-3l1.2-3.8l-1-1.9l-0.1-2.6l6.9-0.1l0.6-2.1l2.2,0.6l1.8-3l1.1,2.1l0.9,0.1l1.1-2.1l2.5,1l3.9,1.6l3.4,0.6l1,2.2
			l1.5-2.4l3.2,2.9l1.4,1.5l8.5-0.9l-0.3-5.4l-4.7-5.2V36l2.9-0.5l1-2l-2.4-1.5l-2-8.4l-0.5-5.7l1-2.4l-5.9-3.9l-0.8-5.9l-5-1.7
			l-2.4-0.2l-2.5,1.5L332,5.2l-2.9-1.5l-3.2,4l-2.5,0.2l-1.4,3.4l-2.5,0.8l-2,2.4l-3.4-2.4l-2.9,1l-2.7-2.2l-17.1,3.9l-3.5,2.7H285
			l-10.3,6.4l-2.9,0.2l-1.2,2.5l-7.2,0.3l-0.3,3l-3.2,1.2l-3.7-0.5l-0.7,1.7l1,4L259.3,38.3z"></path>
		<path class="st1" d="M25.1,110.2l2.8,0.4l1.2,1.2l1.7,0.1l0.6-2l4.9-0.3l2.6-2.7l1.4,0.4l2.7-2.6l2.4-1.3l0.9-1.4l4.5-0.5l2.5-1.8
			l0.4-2.1l-1-1.6l2.1-1.1L54,93l6.1-3.6l0.3-7.7l2.3-1.2l1-4.9v-4.8l-1.4-4l3.7-2.5l0.5-3.2h2.7v-3.2l1.6-1h1.4l0.6-1l-2.4-2.8
			l0.5-2l0.5,0.2c0.9,0.4,1.9,0.9,2.5,1.1c-0.1-0.6-0.3-1.9-0.5-2.9L73.2,49l4,0.6l-0.1-3.8l-1.3-5.1l-11.5,1.2l-1.2-5.7h-1.5
			l-1.2-4.7h-9.1l-2.4-3.9l-1.3,10.6l-13.3,23l-2.9,1.3l0.2,7.1l2.7,0.8l1.7,6.7l-9.8,19.5L23.1,98l3.5,9.8L25.1,110.2z"></path>
		<path class="st1" d="M328.9,83.3l-0.5-1.8l-3.1-0.7l-4.3-3l-2.3-3.9l-2.4-0.6l-2.4,2l-3.1,0.9l-2.1-1l-2.1,1.1l-3.4-1.5l-0.2-4.1
			l-6.4,0.2l-3.4-1.9l-0.7-7.6l-0.9,0.1l-2-3.5l-1.2-3.4l-3.1-6.7l-1.5-0.4l-2.4-0.1l-0.5-1.5l-1.8-0.6l-2.6,2.5h-0.2l-5,0.1
			c-0.3,0-8.8-1.3-12.1-1.8l-0.4,3.3l-4.1,4.3l0.8,3.2L254,58l-0.5,5.2l-2.1,0.7l0.1,2.6l3.2,3.4l3.1,2.7l-0.2,3.7l-3,0.8l-0.2,1.1
			l1.4,2.1l3,0.5l2.1-2.1l3.8-0.1l2.8,1.7l4.7-0.2l1.4,0.7l2.5-0.5l4.6,0.7l-1.2,3l-1.7,3.4l-0.1,1.3l-1.5,0.9l-1.3,3l-3.8,0.2
			l-0.5,1.8l1.4-0.1l-0.2,2.6l1.8,2l-1.2,1.3l-3.9-0.7l-1.1,3.6l3.2,1.9l0.1,7l-1.3,0.9l0.6,1.6l2.8,2.4l-0.1,0.3
			c-0.1,0.4-0.3,0.8-0.4,1.1l12.9-1.2h0.4l2.3,7.9l1.8,8.6l4.9,4.1l23-17.1l9.4-7.4l1-0.4c0.3-7.4,1-26.7,1.1-29.7L328.9,83.3z"></path>
		<path class="st1" d="M287.1,125.3l-2.1-7.2c-3.4,0.3-12.9,1.2-13.1,1.2c-0.1,0-0.3-0.1-0.4-0.2c0-0.1-0.1-0.1-0.1-0.2l-3.1,0.4
			l-0.1,2.6l-0.8,1.3l0.2,1.8l3.4,1.5l-0.8,3.6l-4,3l-1.7,0.2l-0.5,1.4l-2.7,1.2l-3.2-1.1l-0.9,0.9l0.8,3.8l-0.9,4.3l0.6,4.8l4,3.3
			l7.8-4.6l4.9-1.2l1.9,4.2l2.5-0.7l15.1-11.2l-5-4.2L287.1,125.3z"></path>
		<path d="M365,94.2l-2.1,0.4l-0.3,3.5l-3.5-1.4l-0.8,2.6l-2.8,1.5l-3.3-0.4l-0.5,4.9l7.3-1.2l8.1,2.1L365,94.2z"></path>
		<path d="M159.2,120.7l1.3-6.7l7.9-1.3l2.1,1l5.6-1.9l-1.5-5.7l1.3-6.7l2.2-7.1l0.9-0.1l0.3-6.8l6.8-13.4l4-0.2l1-2l-3.4-3.2
			l-0.2-2l-2.2-1.9l1.2-1.2l1.9-1.6l0.1-3.1l0.2-1l-1.2-0.3l-13.1-11.1l-5.4-0.2l-0.1-4.4l2.3-1.8l-2.7-0.9l-0.8-5.7l-6.2-0.1
			l-1.7-1.4l-3.2,3.2l-1-1.7l-2.7,1.9l-2.7-1.5l-13.1,2.8l-1.5,5.6l-2.2,4.8H130l-1.2,2l6.3,3.9l1.3,2.5l-1.2,2.2l0.9,1.8l-2.7,3.4
			l1.2,0.8l-0.3,2.2l-2.3,0.3l-1.1,2.6l2.2,2.1l-1.2,5.2l-2.7-1l-3.7,1.6l-2.7,2l1.5,1.3l-3.8,5l-2,0.3l-0.3,2.3l-3.3-0.3l0.3-2
			l-2.5-0.9l-1.4,1.3v2.2l-1,1.3l0.3,1.7h0.5l1.9-1.1l1,3.8l-0.7,3l0.1,1.9l2.3,3l4-0.1l1.5,2.9l0.4,1.5l1.8,0.2l2-0.8l4,5.9
			l-1.4,2.2l4.2,0.8l0.7,1.4l3-0.9l1.7,1l6.6-2.5l1.5,6v2.9l-1.6,1l0.2,1.3l2.6,1.7l0.1,2.5l2.9-0.6l5.9,3.1l1.1-5L159.2,120.7z"></path>
		<path d="M245.9,151.8l2.2,2.2l2.8-0.5l4.1,2.9l2.6,3.1l2.4-0.5l-2.2-2l1.2-3.5l2-1.2l-4.1-3.3l-0.7-5.2l0.9-4.3l-0.8-4l1.6-1.6
			l3.4,1.2l2-1l0.5-1.5l2.1-0.3l3.6-2.7l0.5-2.6l-3.1-1.4l-0.4-2.6l0.9-1.3v-2.2l-1,0.1l-4.2-2.8l-5,2.7l-5.2-0.6l-2.1-2l-4.5-0.7
			l-0.5-2.1l-0.6-0.1l-12.9,7.1l-0.3,2.3l1.9,2.2l0.5,2.4l3.8-0.1l0.4,1.9l6.7,3.7l-4.2,4.5l-2.6-1.9l-1.5,0.7l0.7,3.5l-2.6-0.9
			l-0.6,10.2l-1.6,1.6l3.5,2l8.5-1.2L245.9,151.8z"></path>
		<path class="st1" d="M195,126.6l1-2.1l-7.1-0.5v-2.4h-2.6l0.2-3.5l3,0.5l1-2l-1.1-0.3l-0.3-1.7l3-1.9l0.2-2.2l1.1-1.1l2.2-8.2
			l-1.4-0.5l-0.9-2.6c-1.3,0-2.7,0-2.9,0s-0.3,0-1.9-0.8c-0.8-0.4-1.9-1-3.3-1.8l-4.6-2.6l-1.9,0.1l-2,6.6l-1.2,6.4l1.7,6.3
			l-6.8,2.2l-2.1-1l-7.1,1.1L160,121l-2.2,3.2l-1.2,5.1l3.7,2l5.6,2.7l8.4-3.5l4.9,0.3l7.7-1.9l14.4,3.2v-0.2L195,126.6z"></path>
		<path class="st1" d="M274.4,91.7l1.2-2.7l1.4-0.8l0.1-1.1l1.8-3.5l0.8-1.9l-3.4-0.5l-2.6,0.5l-1.5-0.7l-4.8,0.2l-2.8-1.7l-3.2,0.1
			l-2.2,2.2l-3.4-0.5l-1.1,0.8l-2.9,0.6l-0.9,1.6l2,2.7l-1,8.5l-2.8-1.5l-1.5-3.3l-5.1,2.1l0.1,4.1l-2.9-0.1l0.2,2.4l2.6,3.4
			l-0.7,4.2l2.4,0.9l0.3,5.6l1,0.2l0.5,2.1l4.2,0.6l2.1,2l4.6,0.5l5.3-2.8l4.4,3l5-0.7c0-0.1,0-0.1,0.1-0.2s0.1-0.4,0.2-0.5
			l-2.5-2.2l-0.9-2.4l1.5-1l-0.1-6.1l-3.4-2l1.5-5l4.2,0.8l0.3-0.4l-1.5-1.7l0.2-2l-1.6,0.1l1.1-3.5L274.4,91.7z"></path>
		<path class="st1" d="M233.4,138.3l2.3,0.8l-0.5-2.7l2.5-1.2l2.4,1.8l3-3.2l-6.1-3.4l-0.4-1.5l-3.7,0.1l-0.6-2.8l-2.1-2.4l0.4-3
			l13.2-7.3l-0.3-5.1l-2.5-0.9l0.7-4.5l-2.5-3.3l-0.3-3.6l3,0.1l-0.1-3.8l6.4-2.6l1.7,3.8l1.4,0.8l0.9-6.9l-2.2-2.9l1.4-2.4l3.1-0.7
			l0.8-0.5l-1.5-2.2l0.4-1.9l2.9-0.7l0.1-2.7l-2.8-2.5l0,0l-3.5-3.7l-0.2-3.6l2.2-0.8l0.5-5.1l1.3-1l-0.7-3.1l4.2-4.5l0.5-3.4
			l-0.1-1.7l-1.8-3l1.7-2.4l-2.3-1.8l-4.1,1.8l-2-0.7l-3.6,1.2l-5.4-0.7l-4,0.7l-2,3.2l-3.7-0.8l-1,6l2.5,1.5l0.3,3.2l-5.7,0.7
			l-11.4,10.4l-2.4-1.7l-10.6-1.4l-13.3-4.1l-0.2,0.8l-0.1,3.5l-2.3,1.8l-0.5,0.6l1.8,1.5l0.2,2.1l3.7,3.4l-1.5,3l-4,0.1l-6.5,12.9
			l-0.3,6.5l0.9-0.1l0.1,0.1c3.3,1.9,8.8,4.9,9.5,5.1c0.5,0,2,0,3.2,0h0.3l1,2.8l1.8,0.6l-2.5,9.2l-1,1l-0.2,2.3l-2.9,1.8l0.1,0.6
			l1.6,0.4l-1.8,3.5l-2.7-0.4l-0.1,1.6l2.5-0.1v2.4l7.5,0.6l-1.3,2.7l6,5.2v0.8l22.6,14.6l6.6,3.8l1.5-1.5L233.4,138.3z"></path>
	</g><path id="lagos" class="st2" d="M89.7,113.6l-1.6-1.9l-1-2.4l-0.9-0.5l-1.5-2.2l-1.4-6.5h-1.8L79.6,98l-1.5-0.1l-2.3-3.6l-2.7-0.1
		l0.8-3.9l-1.7-1.5l-3.9-0.5c0,0.2,0,0.5,0.1,0.7l0.1,0.4L66,89.8L65.6,92L64,91.8l-1.9-0.1l-1.7-1.5L55,93.4l0.8,1.9l-2,1l0.7,1.1
		l-0.5,2.8l-3,2.1l-4.3,0.5L46,104l-2.5,1.3l-2.2,2.2h0.1l-2.3,3l0.5,1.3l2.1,0.1l1.6,2.5l2.7-0.8l1.4,4.3l1.7,0.5l1.6-2.1l1.2,4.4
		l3,2.2l0.7,2.8l1.1,0.8l-1.6,1.5l1,7.1l11.5-4.7l11.9,1.9l0.3-7.9l6.7-4l0.2-1.3l3.4-2L89.7,113.6z" data-municipality-id="108" data-title="Lagos"><title>Lagos</title></path>
	<path id="viladobispo" d="M53.9,127.6l1.2-1.1l-0.5-0.4l-0.7-2.7l-3-2.2l-0.8-3.1l-0.9,1.3l-2.7-0.9l-1.2-4l-2.5,0.8l-1.7-2.7
		l-2.3-0.1l-0.8-2.2l1.9-2.4l-0.8-0.2l-2.5,2.6l-4.6,0.3l-0.6,2.1l-2.7-0.2l-1.2-1.1l-2.9-0.4l-11.4,18l-0.9,6.5l-3.3,3v4.1l-4.2,6
		l6.9-1l2.6,2.9l1.2,5.5l2.4-2l2.8-0.5l0.4-4.4l4.2-1l3-5.9l4.9-1.7l2.2,0.2l2.7-3.3l13.6-0.7l3.3-1.4L53.9,127.6z" data-municipality-id="116" data-title="Vila do Bispo"><title>Vila do Bispo</title></path>
	<path id="portimao" d="M111.3,122l-0.1-3.1l-1.1-2.6l1.7-2.8l2.4-0.1l1.7-1.3l0.5-4.4l3.7-0.9l0.7-2.7l-0.4-1.6l-1.2-2.3h-3.9
		l-2.8-3.6v-2.2l0.6-2.9l-0.6-2.5l-1.1,0.7h-1.5l-0.5-2.8l1.1-1.4V84l-1.9-0.2l-2.2,0.9l-2.3-1.2l-1.1,1.7l-5.9-3.9l0.2-3l-1.1-2.4
		l-1.4,3.6L93,77.3l-2,1.1L90.5,76l-0.3,0.1L90.1,79l-2,2l0.1,4.8l-1.4,1.6l-1.9,1.9l-1.5-0.9l-0.7-3l-1.5-1l-0.5,0.7l-0.6,2.3
		l-0.2,2.5l-3.2,1.4l-0.1,2.5l2,3.3H80l1.9,2.2h2l1.5,7l1.4,1.9l0.9,0.5l1.1,2.6l1.7,2l0.2,3.2h2.8l2.2-3.9l2.9-0.5l-2.2,4.2l-1,2.1
		l2.5,1.8l12.3,0.2l1,2.3L111.3,122z" data-municipality-id="112" data-title="Portimão"><title>Portimão</title></path>
	<path id="lagoa" d="M146.1,124.4l-2.6-1.7l-0.4-2.3l1.7-1v-2.3l-1.2-4.9l-6,2.3l-1.8-1.1l-3.3,1l-0.8-1.7l-5.1-0.9l1.8-2.8
		l-3.3-4.9l-1.6,0.6l-1.9-0.2l-0.7,3l-3.7,0.9l-0.5,4.2l-2.2,1.6l-2.2,0.2l-1.2,2l1,2.3v3.4l0,0l-0.3,1.9l19.6,6l14.8-3.4
		L146.1,124.4z" data-municipality-id="107" data-title="Lagoa"><title>Lagoa</title></path>
	<path id="monchique" class="st2" d="M78.1,45.6l0.1,4.9L74.3,50c0.5,2.8,0.4,3,0.4,3.1s-0.1,0.2-0.2,0.3c-0.2,0.1-0.5,0.1-2.1-0.6
		l-1-0.5l-0.1,0.6l2.5,2.9l-1.1,1.9H71l-1,0.6v3.6h-2.8l-0.4,2.9l-3.5,2.3l1.3,3.6v5L63.4,81l-2.2,1.2L61,89.4l1.6,1.4l1.6,0.1
		L65,91l0.3-2l2.3-0.3c-0.1-0.4-0.1-0.8,0.1-1.1c0.1-0.1,0.2-0.2,0.4-0.2c0.2,0,3.2,0.4,4.5,0.5h0.1l2.2,2l-0.7,3.3h1.5l0.2-2.7
		l3.2-1.4l0.2-2l0.6-2.5l1-1.6l2.5,1.7l0.6,2.9l0.6,0.4l1.4-1.5l1.2-1.3l-0.1-4.8l2-2.1l0.1-3.1l1.7-0.7l0.5,2.2l1.6-0.9l1.3,1.6
		l1.7-4.1l1.9,4.4l0.1,3.1l4.7,3.2l1.1-1.7l2.6,1.4l2-0.9l2,0.2v-0.1h0.2l1.8-1.8l3.7,1.4l-0.2,1.8l1.6,0.1l0.3-2.1l2.2-0.4l3.1-4.1
		l-1.7-1.4l3.7-2.8l4.1-1.7l2.1,0.8l0.9-3.8l-2.4-2.1l1.6-3.5l2.1-0.3l0.1-1l-1.5-1l3-3.7l-0.9-1.6l1.1-2.2l-1-1.9l-6.1-3.8
		l-0.1,0.2l-12.4-3l-1.2,1.9l-12.9-9.2l-1.9,2.6h-8.9l-5.2,7.3l-4-7.3l-4.8,0.5L78.1,45.6z" data-municipality-id="110" data-title="Monchique"><title>Monchique</title></path>
	<path id="castromarim" d="M357.6,98.8l0.9-3.2l3.3,1.3l0.3-3.1l2.8-0.4l-1.2-6.6l-3.2-1.6v-4l2.1-5.2l-2.4-1.9l-2.7-17l1.5-4.8
		l-0.1-3.2l-8.9,1l-1.7-1.8l-2.5-2.2L344,49l-1.5-3.3l-3-0.5l-3.9-1.6l-1.8-0.7l-1,1.9l-1.9-0.3l-0.6-1.1l-1.4,2.2l-2-0.5l-0.6,1.9
		l-6.6,0.1v1.5l1.1,2l-1.4,4.4l-2.6,2.7l0.9,2.5h-2l-0.5,2l-1.2,0.7l2.1,9.5l3.1,0.7l2.4,4.1l4,2.8l3.5,0.8l0.4,1.7l8.1-2.4L337,90
		l1.4,7.2l1,2.6l3.5,2.5l0.1,0.1l1.5,4.1l6.4-1.1l0.6-5.9l3.8,0.4L357.6,98.8z" data-municipality-id="105" data-title="Castro Marim"><title>Castro Marim</title></path>
	<path id="alcoutim" class="st2" d="M259.3,38.3l-1.8,2.7l1.7,2.7l0.1,1.6c4.8,0.7,11.6,1.7,12,1.8L276,47l2.8-2.7l2.7,0.9l0.5,1.4
		h1.9l1.9,0.5l3.3,7.1l1.2,3.3l1.7,2.9l1.2-0.2l0.8,8.1l2.8,1.6l7-0.2l0.2,4.4l2.6,1.1l2.1-1.1l2.2,1l2.6-0.7l1.9-1.6L313,62.4
		l1.5-0.8l0.6-2.2h1.5l-0.7-1.9l2.9-3l1.2-3.8l-1-1.9l-0.1-2.6l6.9-0.1l0.6-2.1l2.2,0.6l1.8-3l1.1,2.1l0.9,0.1l1.1-2.1l2.5,1
		l3.9,1.6l3.4,0.6l1,2.2l1.5-2.4l3.2,2.9l1.4,1.5l8.5-0.9l-0.3-5.4l-4.7-5.2V36l2.9-0.5l1-2l-2.4-1.5l-2-8.4l-0.5-5.7l1-2.4
		l-5.9-3.9l-0.8-5.9l-5-1.7l-2.4-0.2l-2.5,1.5L332,5.2l-2.9-1.5l-3.2,4l-2.5,0.2l-1.4,3.4l-2.5,0.8l-2,2.4l-3.4-2.4l-2.9,1l-2.7-2.2
		l-17.1,3.9l-3.5,2.7H285l-10.3,6.4l-2.9,0.2l-1.2,2.5l-7.2,0.3l-0.3,3l-3.2,1.2l-3.7-0.5l-0.7,1.7l1,4L259.3,38.3z" data-municipality-id="103" data-title="Alcoutim"><title>Alcoutim</title></path>
	<path id="aljezur" class="st2" d="M25.1,110.2l2.8,0.4l1.2,1.2l1.7,0.1l0.6-2l4.9-0.3l2.6-2.7l1.4,0.4l2.7-2.6l2.4-1.3l0.9-1.4
		l4.5-0.5l2.5-1.8l0.4-2.1l-1-1.6l2.1-1.1L54,93l6.1-3.6l0.3-7.7l2.3-1.2l1-4.9v-4.8l-1.4-4l3.7-2.5l0.5-3.2h2.7v-3.2l1.6-1h1.4
		l0.6-1l-2.4-2.8l0.5-2l0.5,0.2c0.9,0.4,1.9,0.9,2.5,1.1c-0.1-0.6-0.3-1.9-0.5-2.9l-0.1-0.6l4,0.5l-0.1-3.8l-1.3-5.1l-11.5,1.2
		L63.2,36h-1.5l-1.2-4.7h-9.1L49,27.4L47.7,38L34.4,61l-2.9,1.3l0.2,7.1l2.7,0.8l1.7,6.7l-9.8,19.5L23.1,98l3.5,9.8L25.1,110.2z" data-municipality-id="104" data-title="Aljezur"><title>Aljezur</title></path>
	<path id="tavira" class="st2" d="M329.1,83.2l-0.3,0.1l-0.5-1.8l-3.1-0.7l-4.3-3l-2.3-3.9l-2.4-0.6l-2.4,2l-3.1,0.9l-2.1-1
		l-2.1,1.1l-3.4-1.5l-0.2-4.1l-6.4,0.2l-3.4-1.9l-0.7-7.6l-0.9,0.1l-2-3.5l-1.2-3.4l-3.1-6.7l-1.5-0.4l-2.4-0.1l-0.5-1.5l-1.8-0.6
		l-2.6,2.5h-0.2l-5,0.1c-0.3,0-8.8-1.3-12.1-1.8l-0.4,3.3l-4.1,4.3l0.8,3.2L254,58l-0.5,5.2l-2.1,0.7l0.1,2.6l3.2,3.4l3.1,2.7
		l-0.2,3.7l-3,0.8l-0.2,1.1l1.4,2.1l3,0.5l2.1-2.1l3.8-0.1l2.8,1.7l4.7-0.2l1.4,0.7l2.5-0.5l4.6,0.7l-1.2,3l-1.7,3.4l-0.1,1.3
		l-1.5,0.9l-1.3,3l-3.8,0.2l-0.5,1.8l1.4-0.1l-0.2,2.6l1.8,2l-1.2,1.3l-3.9-0.7l-1.1,3.6l3.2,1.9l0.1,7l-1.3,0.9l0.6,1.6l2.8,2.4
		l-0.1,0.3c-0.1,0.4-0.3,0.8-0.4,1.1l12.9-1.2h0.4l2.3,7.9l1.8,8.6l4.9,4.1l23-17.1l9.4-7.4l1-0.4C328.3,105.5,329,86.2,329.1,83.2z
		" data-municipality-id="115" data-title="Tavira"><title>Tavira</title></path>
	<g id="olhao" data-municipality-id="111" data-title="Olhão">
		<path d="M264.3,151.7v2.2l9.9-3l-0.7-3.3l-2.1,0.1L264.3,151.7z"></path>
		<path class="st2" d="M288.9,134.2l-1.9-8.9l-2.1-7.2c-3.4,0.3-12.9,1.2-13.1,1.2c-0.1,0-0.3-0.1-0.4-0.2c0-0.1-0.1-0.1-0.1-0.2
			l-3.1,0.4l-0.1,2.6l-0.8,1.3l0.2,1.8l3.4,1.5l-0.8,3.6l-4,3l-1.7,0.2l-0.5,1.4l-2.7,1.2l-3.2-1.1l-0.9,0.9l0.8,3.8l-0.9,4.3
			l0.6,4.8l4,3.3l7.8-4.6l4.9-1.2l1.9,4.2l2.5-0.7l15.1-11.2L288.9,134.2z"></path>
	<title>Olhão</title></g>
	<g id="vilarealdesantoantonio" data-municipality-id="117" data-title="Vila Real de Santo António">
		<path class="st2" d="M330,83.2c-0.1,2.6-0.8,21.6-1,29.3l14.8-5.9l-1.5-3.8l-3.5-2.5l-1.1-3l-1.5-7.3l0.5-8.8L330,83.2z"></path>
		<path d="M362.9,94.6l-0.3,3.5l-3.5-1.4l-0.8,2.6l-2.8,1.5l-3.3-0.4l-0.5,4.9l7.3-1.2l8.1,2.1l-2.1-12L362.9,94.6z"></path>
	<title>Vila Real de Santo António</title></g>
	<path id="silves" d="M156.9,123.9l2.3-3.2l1.3-6.7l7.9-1.3l2.1,1l5.6-1.9l-1.5-5.7l1.3-6.7l2.2-7.1l0.9-0.1l0.3-6.8l6.8-13.4l4-0.2
		l1-2l-3.4-3.2l-0.2-2l-2.2-1.9l1.2-1.2l1.9-1.6l0.1-3.1l0.2-1l-1.2-0.3l-13.1-11.1l-5.4-0.2l-0.1-4.4l2.3-1.8l-2.7-0.9l-0.8-5.7
		l-6.2-0.1l-1.7-1.4l-3.2,3.2l-1-1.7l-2.7,1.9l-2.7-1.5l-13.1,2.8l-1.5,5.6l-2.2,4.8H130l-1.2,2l6.3,3.9l1.3,2.5l-1.2,2.2l0.9,1.8
		l-2.7,3.4l1.2,0.8l-0.3,2.2l-2.3,0.3l-1.1,2.6l2.2,2.1l-1.2,5.2l-2.7-1l-3.7,1.6l-2.7,2l1.5,1.3l-3.8,5l-2,0.3l-0.3,2.3l-3.3-0.3
		l0.3-2l-2.5-0.9l-1.4,1.3v2.2l-1,1.3l0.3,1.7h0.5l1.9-1.1l1,3.8l-0.7,3l0.1,1.9l2.3,3l4-0.1l1.5,2.9l0.4,1.5l1.8,0.2l2-0.8l4,5.9
		l-1.4,2.2l4.2,0.8l0.7,1.4l3-0.9l1.7,1l6.6-2.5l1.5,6v2.9l-1.6,1l0.2,1.3l2.6,1.7l0.1,2.5l2.9-0.6l5.9,3.1L156.9,123.9z" data-municipality-id="114" data-title="Silves"><title>Silves</title></path>
	<g id="faro" data-municipality-id="106" data-title="Faro">
		<path d="M270.3,154l-8.8,6.6l4-0.3l8-4.8l1-1.3l-3.3,0.8L270.3,154z"></path>
		<path d="M257.1,164.3l-3.9,0.5l-0.5-0.6l3.8-1.3l-3.1-4.5l-2.6-2.6l-2.3,2.1l-2.4-1.2l-1.1-2.8l-5.6,0.1l-0.3,2.2l11,7.6l0.6,0.4
			l-0.1,0.1l1.9,1.5l1-0.1l3.6,0.9l3-1.1L257.1,164.3z"></path>
		<path d="M259,153.5l2-1.2l-4.1-3.3l-0.7-5.2l0.9-4.3l-0.8-4l1.6-1.6l3.4,1.2l2-1l0.5-1.5l2.1-0.3l3.6-2.7l0.5-2.6l-3.1-1.4
			l-0.4-2.6l0.9-1.3v-2.2l-1,0.1l-4.2-2.8l-5,2.7l-5.2-0.6l-2.1-2l-4.5-0.7l-0.5-2.1l-0.6-0.1l-12.9,7.1l-0.3,2.3l1.9,2.2l0.5,2.4
			l3.8-0.1l0.4,1.9l6.7,3.7l-4.2,4.5l-2.6-1.9l-1.5,0.7l0.7,3.5l-2.6-0.9l-0.6,10.2l-1.6,1.6l3.5,2l8.5-1.2l1.9-0.2l2.2,2.2l2.8-0.5
			l4.1,2.9l2.6,3.1l2.4-0.5l-2.2-2L259,153.5z"></path>
		<path d="M259.5,156.2l0.7,1.2l2.3,0.5l0.2-2.3l-0.9-1.4l-1.7,0.8L259.5,156.2z"></path>
	<title>Faro</title></g>
	<path id="albufeira" class="st2" d="M201.2,131.9l-6.2-5.4l1-2.1l-7.1-0.5v-2.4h-2.6l0.2-3.5l3,0.5l1-2l-1.1-0.3l-0.3-1.7l3-1.9
		l0.2-2.2l1.1-1.1l2.2-8.2l-1.4-0.5l-0.9-2.6c-1.3,0-2.7,0-2.9,0s-0.3,0-1.9-0.8c-0.8-0.4-1.9-1-3.3-1.8l-4.6-2.6l-1.9,0.1l-2,6.6
		l-1.2,6.4l1.7,6.3l-6.8,2.2l-2.1-1l-7.1,1.1L160,121l-2.2,3.2l-1.2,5.1l3.7,2l5.6,2.7l8.4-3.5l4.9,0.3l7.7-1.9l14.4,3.2
		L201.2,131.9z" data-municipality-id="102" data-title="Albufeira"><title>Albufeira</title></path>
	<path id="saobrasdealportel" class="st2" d="M274.4,91.7l1.2-2.7l1.4-0.8l0.1-1.1l1.8-3.5l0.8-1.9l-3.4-0.5l-2.6,0.5l-1.5-0.7
		l-4.8,0.2l-2.8-1.7l-3.2,0.1l-2.2,2.2l-3.4-0.5l-1.1,0.8l-2.9,0.6l-0.9,1.6l2,2.7l-1,8.5l-2.8-1.5l-1.5-3.3l-5.1,2.1l0.1,4.1
		l-2.9-0.1l0.2,2.4l2.6,3.4l-0.7,4.2l2.4,0.9l0.3,5.6l1,0.2l0.5,2.1l4.2,0.6l2.1,2l4.6,0.5l5.3-2.8l4.4,3l5-0.7c0-0.1,0-0.1,0.1-0.2
		s0.1-0.4,0.2-0.5l-2.5-2.2l-0.9-2.4l1.5-1l-0.1-6.1l-3.4-2l1.5-5l4.2,0.8l0.3-0.4l-1.5-1.7l0.2-2l-1.6,0.1l1.1-3.5L274.4,91.7z" data-municipality-id="113" data-title="São Brás de Alportel"><title>São Brás de Alportel</title></path>
	<path id="loule" class="st2" d="M232.8,149.2l0.6-11l2.3,0.8l-0.5-2.7l2.5-1.2l2.4,1.8l3-3.2l-6.1-3.3l-0.4-1.5l-3.7,0.1l-0.6-2.8
		l-2.1-2.4l0.4-3l13.2-7.3l-0.3-5.1l-2.5-0.9l0.7-4.5l-2.5-3.3l-0.3-3.6l3,0.1l-0.1-3.8l6.4-2.6l1.7,3.8l1.4,0.8l0.9-6.9l-2.2-2.9
		l1.4-2.4l3.1-0.7l0.8-0.5l-1.5-2.2l0.4-1.9l2.9-0.7l0.1-2.7l-2.8-2.5l0,0l-3.5-3.7l-0.2-3.6l2.2-0.8l0.5-5.1l1.3-1l-0.7-3.1
		l4.2-4.5l0.5-3.4l-0.1-1.7l-1.8-3l1.7-2.4l-2.3-1.8l-4.1,1.8l-2-0.7l-3.6,1.2l-5.4-0.7l-4,0.7l-2,3.2l-3.7-0.8l-1,6l2.5,1.5
		l0.3,3.2l-5.7,0.7l-11.4,10.4l-2.4-1.7l-10.6-1.4l-13.3-4.1l-0.2,0.8l-0.1,3.5l-2.3,1.8l-0.5,0.6l1.8,1.5l0.2,2.1l3.7,3.4l-1.5,3
		l-4,0.1l-6.5,12.9l-0.3,6.5l0.9-0.1l0.1,0.1c3.3,1.9,8.8,4.9,9.5,5.1c0.5,0,2,0,3.2,0h0.3l1,2.8l1.8,0.6l-2.5,9.2l-1,1l-0.2,2.3
		l-2.9,1.8l0.1,0.6l1.6,0.4l-1.8,3.5l-2.7-0.4l-0.1,1.6l2.5-0.1v2.4l7.5,0.6l-1.3,2.7l6,5.2v0.8l22.6,14.6l6.6,3.8L232.8,149.2z" data-municipality-id="109" data-title="Loulé"><title>Loulé</title></path>
</g>
</svg>