<svg xmlns="http://www.w3.org/2000/svg" viewBox="0 0 266.8 317.3" class="map-svg map-municipalities" data-id="9" data-district="guarda">
<g data-title="guarda" data-district-id="9">
	<g id="map-bg" class="map-bg">
		<path d="M111.8,102l3.4-4l1.4-3.5l-5.5-1.9l-1.9-3.6l-2.2,1.1l-2,5v4.7l5.2,2.2H111.8z"></path>
		<path d="M72,182.6l-5,17.3l1.4-0.5l2.8-2l0.7-3.2l9.1-4.3l1.5,4.6l-2,5.7l-1.3,1.8l5.5,4l0.2,0.1l3.5-3.9l-1.5-1.4v-7.2l2.2-2.7
			l3.3,2.2l3.2-2.4l-3.2-5.8l2.4-2.2l2.3-0.5l6.1-7.1l0.9-4.3l2.5-6.6l-1.3-0.9h-2.5l-0.8-2.9l-4.9-4.8l8.8-10.8v-1.3l-4.3,3.5h-4.8
			l-2.1,4.2h-1.4l2.6,6.4l-6.8,4.8h-6.7l-3,2l0.1,0.3l-2.7,1.2l-1.4,5.2l2,2.8l-5.1,4.3L72,182.6z"></path>
		<path class="st0" d="M96.6,129.3l4.2,4.4l6.6,4.5l-0.4,3.1v3.9l-8.4,10.3l4.4,4.3l0.6,2.3h2l1.8,1.2h0.8l0.7-1.8l3.2-2.8l7.9,1.3
			l1.7-1.8l8.9,1.1l6.4-1.8l3.6,0.9l0.1,3.2l3.8-1.2l1.8,1.2l1.9-7.3l1.9-1.2l-0.8-4.8l1.9-1.7l6.5,1.1v2.4l2.2,0.7l3.9-7.2
			l-1.6-3.2l-6.8-3.4l0.2-7.8l1.9-1.2l0.4-2.8l1.4,1.4l0.7-1.7l0.9-1.5l-0.5-1.8l-3.5-2h-2.5L135.1,104l-5,5.1l-4.8-2.2l1.7-10.6
			l-8.8-1.1v1.9l-1.8,4.8l1.3,3.4l-1.3,1.9l-2.7-3.3h-2.6l-0.6,2.4c0,0-5,8.8-5.1,8.4c-0.3,1.3-0.6,2.6-0.7,3.9l-5,4.6l-1,4l-2.4,1
			L96.6,129.3z"></path>
		<path d="M134,59.3l12.9-1.1l2.7,3.1l2.2-1.7v-3.4l5.2-4.3h5.2l4.8,3.6l2.6,6.5l-3.3,0.6l-1,3.1l0.9,4.4l3.3,2.7l-2.6,11.6l-1,0.8
			l3.3,1.7l1.8-1l5,3.3l4.5-11.8l5.3-5.4l11.5,3.2l9.9-4l2.3-1.1l4.7-10.5l-0.9-2.5l-0.2,0.1l-2.1-1.6l-0.8-2.2l-3.9-2.1l-2.4,1.4
			l-7-3.5v-3.5l-11.8-6.4l-1.1-5.8l5.4-8.3l-1-3.5l-10.3-0.4l0.2-2.5l4-2.6l-0.4-9.1h-2.2l-3,6.2l-2.1,0.9l-3.4,2.8l-1.3,6.9
			l-7.2-0.3l-14.2-5.8l-9,3.3l-4.7-1.4l-1.8,5.5l-2,1.2l-5.4,22.8l2.9,7.7L134,59.3z"></path>
		<path d="M119.3,67.8l11,5.7l-2.2,9.2l0.7,2.8h-1.1l-4.9,1.1l-4.4,6v1.6l10.1,1.3l-1.7,10.9l3.2,1.5l5.1-5.4l19.8,16.1h2.4l3.5,2
			l1.5-2.2l-0.6-1.7l2.6-5.4l1.5-0.5l-0.8-1.2l4.1-11l5.5-4.4l1.2-1.5v-2.2l-4.8-3.3l-1.7,1l-5.5-2.8l2.1-1.6l2.3-10.5l-3-2.5
			l-1.1-5.2l1.4-4l2.5-0.5l-1.9-4.9l-4.3-3.2h-4.4l-4.4,3.7v3.5l-3.5,2.6l-3.1-3.4l-12.6,1.1l-5.6-2.4l-0.7,2.1h-10.4l0.8,4.7
			l-1.3,2.9H119.3z"></path>
		<path d="M210.3,70.9l-2.6,1.3l-10.4,4.2l-11.2-3.1l-1.4,1.4l0.6,5.9l1.9,1.8l-0.8,9l-1.7,1.6v4.9l0.6,2l-4.2,5.8v2l2.2,1.9
			l0.8,4.9l1.6,1.5l3.5,5.3l1.6-1.2l2.7,2.4h8.8v1.9l2.7,2.5l1.1,5.2l6.8,1.5l0.8,5.7l2.3,0.4l0.8,4.1l2.2,0.6l2.9-1.5l1.1-3.2
			l1.7-0.6l1.8-3.8l3.3,3.8l9.4-3.3h0.1l12.9-2l1.4-6.9l-1.3-4.1l0.1-7.9l5-1.4l-1.3-10.4l-3-0.1l-6.8-6.5l0.5-6.7l-2.4-6.4
			l-13-18.7l-2.6-0.4l-3-8.1l-6.6-1.6l-2.2-1l-2.9,2.6l1.4,3.5L210.3,70.9z"></path>
		<path d="M259,173.2l-1.6-2.9l-2.5-11.1l0.1-3.1l-2.8-4.3l-1.4-6.7l0.9-8.9l0.3-1.3l-12.5,2l-10,3.5l-2.7-3l-1.3,2.6l-1.6,0.6
			l-1.1,3.1l-3,1.6l1.4,2.3l-10.6,9.1l-3.1,0.8v0.3l1.1,0.8l-1.1,8.7l1.9,1.3l-4,8.8l0.4,3.2l-2.9,3.6v3.5l-1,1.7l0.8,4.6l-1.7,2.6
			l-0.5,0.4l1.4,5.7l-2.1,4.7l-2.4,0.7v4.6l4.4,3.9l0.4,1.9l1.8,2.7v0.1l2.1,8.4l2,1.4l6.1-4.6l1.9-3.7l1.9-2.4l1.6,2.3l2.4-4
			l5.8,2.7v3.4l17.2,3.9l0.1,0.1l5.5,3.4l0.9-1.5l3.8-7.7l3.7-2.5l-2.4-7l0.4-5.3l-10.1-4.7l2.1-5.9l-0.2-2.4l4.2-3.9L259,173.2z"></path>
		<path d="M165.2,191.5l0.5-0.5l3.5,0.7l1-3V182l4.1,1l7-4.4l5.5,3l-3.5,6.5l0.3,3.8l3.8,1.4l3.1,2.4h1.2l4.1-2.6l2.1,1.9l1.9,1.1
			l0.4-0.2l1.3-2.2l-0.8-4.6l1.1-1.7v-3.6l2.8-3.5l-0.4-3.1l3.8-8.2l-1.7-1.2l1.1-8.7l-1-0.7v-1.8l3.7-0.9l9.7-8.3l-1.1-1.9
			l-2.8-0.9l-0.9-3.9l-2.3-0.5l-0.9-5.7l-6.7-1.4l-1.1-5.7l-2.9-2.5v-1.3h-8l-2.3-2L189,123l-4.1-6.3l-1.9-1.6l-0.8-4.9l-2.3-2v-2.9
			l4.1-5.7l-0.4-1.5v-5.7l1.7-1.5l0.7-8.1l-1.8-1.6l-0.5-5.4l-2.2,2.2L177,89.7v3.4l-1.6,1.9l-5.3,4.3l-3.8,10.1l1.2,2l-2.3,0.8
			l-2.3,4.6l0.7,1.8l-2,2.9l0.6,2.2l-1.1,1.8l-1.4,3.3l-0.9-1l-0.1,1l-1.8,1.1l-0.2,6.5l6.5,3.2l2,4.1l-4.6,8.5l-3.9-1.2v-2.3
			l-5-0.8l-1,0.9l0.8,4.9l-2.2,1.4l-2,7.6l-0.7,3l4,0.3l2.6,1.8h1.2l3.6-4.8l2.4-3l1.5,2.4l-0.5,8.4l3.8,2.1l-0.8,5.6l1.4,1.6
			l0.7,2.7l-1.8,2.4l0.5,3.2l-0.9,2.3L165.2,191.5z"></path>
		<path d="M134.4,255.5l3.7-3.5l5.3,2.2l1.6-0.5v-3.8h3.8l4.7,2.9l3.2-1.6l0.8-6.5h10.2l3.3,3.1l-1.9,2.2l2.9,0.6l1,1.1l8.1-4.3
			l2-4.1l2.4-0.9l1.4,0.7l1.1-2.8l5.2-3.4l1.9-0.6l0.5-4.7l-2.9-3.3l0.1-5.6l1.5-4.7l-3.6-5.9l2.9-4.4l3.1-0.6l2.3-0.6l1.7-3.9
			l-1.3-5.4l-2.2-1.3l-1.5-1.3l-3.6,2.3h-2l-3.3-2.5l-4.2-1.7l-0.5-4.9l3.1-5.7l-3.9-2.2l-6.8,4.3l-3.2-0.8v5.5l-1.4,4.1l-3.8-0.8
			l-0.9,0.9l-2.2-2l1-2.9l-0.5-3.4l1.8-2.2l-0.5-1.9l-1.6-1.9l0.8-5.3l-3.8-2.1l0.6-8.7l-0.5-0.7l-1.4,1.7L155,169h-2.2l-2.6-1.9
			l-3.8-0.3l-0.7,3.1l-2.5,11.1h-5.9l-5.9,10.9l-2.4,8.3l-3.7,3.9l-1.7,3.1l-5.7,6.6l-10.2-1.2l-0.8-2.3l-1.8-0.7L99.8,220h-2.1
			l-0.7,2l1.7,0.7l2.9,13.6l2.8,0.7v2l3.5,6.6l-1.8,6.2l0.9,1l0.4,3.5l-1.6,1.3v2.1l0.8-0.2l2.5,2.6l6.7,0.5l3.6-2.1l3.3-1l2.8,2.6
			l0.6-4.9l5.2-4.8L134.4,255.5z"></path>
		<path d="M105.9,253.3l-1.1-1.2l1.9-6.4l-3.1-5.6l-2.1,2.1l-4.4,1.1l-5.2-0.4l-2.8-2.4l-3.3,1l-1.3,2.9l-4.3-0.5v3.2l-8.2,2.3
			l0.7,2.2l-4.8,9.6l-2.4,7.7l0.2,4.6l-3.8,7.6l0.1,0.6l3.4,0.3l3.6,3.5l1.2-2.1l9.2-0.6l4.9-15.6l9.8-9.2l3.1-0.8l3.2,3.8l4.3-1
			v-2.9l1.5-1.3L105.9,253.3z"></path>
		<path d="M261.8,268l-6.3-5.4l-0.1-2.1l-4-2.4l-5.4-18.5l4-6.5l-5.4-3.3l-18-4.1v-3.5l-4.1-2l-2.8,4.6l-1.7-2.5l-0.9,1.1l-2.1,3.8
			l-6.8,5.3l-3.1-2.1l-2.2-8.7l-1.7-2.7l-0.5-1.8l-4.4-4v-4.8l-2,0.4l-2.3,3.3l3.6,5.7l-1.7,5.1v5l2.9,3.3l-0.6,6l-2.5,0.7l-4.7,3.2
			l-1.5,3.6l-2.1-1.1l-1.4,0.6l-2,4l-9.2,4.9l-1.4-1.5l-4.4-0.8l2.5-2.9l-2.3-2h-8.7l-0.8,6.1l-4.3,2.1l-4.9-3.1h-2.4v3.6l-2.1,0.6
			v5.8l-2.4,4.4l1.1,9.4l-7.9,12.8l-6.6,2.3l3,5.2l5.5,3.1l10.3,1.2l4.4,2.1l3.2-5.4l4.9-3l9.9,6.4l7.1-5.6l1.5-7.4l2.1-4.9l3-1
			l2.3,3.9l2.7,6l-1.1,2.2l1.1,2.2l3.1,0.1l3.1,1.2l1.9-1h6.8l1.1-3.1h2.3l14.5,9.8h17l4-2.3l1.2-10.6l9.2-7.6l6-0.5l1.8-2.2
			l-0.7-6.1L261.8,268z"></path>
		<path d="M70.4,145.5l-5.4,5.2l-0.4,4.3l8.3,7.2l6.2,0.7v0.3l3-1.9h6.6l5.8-4.1l-2.9-7.1H94l2.1-4.2h5.1l4.6-3.7l0.4-3.5l-6.1-4.1
			v-0.1l-4.6-4.8v-2.1l2.6-1l0.7-2.9l-2.7-4.1l-1-0.3l-6.7-8.1l-3.7-1.3l-1.1-3.7l-11.2-0.8l-6.2,7.6v5.9l-8.6,16.8l8.8,3.3
			L70.4,145.5z"></path>
		<path d="M64.6,273.3l-0.3-4.5l2.4-7.8L63,249.8l-6.9,0.8l-4-11.4h-3.5l-2.3-3.4V234l-7.1-5h-7l-4.1-1.8l3.7-3.2l1.1-5.4l1.1-4.7
			l-8.9,2.7l-5.4,6.3L9.8,222l-1,4l-0.2,4.7l7,7.6l-2.8,5.9L9.3,244l-4.8,3.7v4l4,3.8l7.1,0.4l0.1,12.6l-2,4.5l3.9,0.3l1.4,2.1
			l6.1,2.2l-1.8,5.8l-3.2-0.8l-2.6,2.7l-3.4,1.4l-4,12.4L8,300l0.9,3l5-0.3l5.1,8l2.2-1.1h8.6l2.1-2.6l10-8.8l7.4-0.6l9.1-8.9
			l1.4-7.2l1,0.1l-0.1-0.6L64.6,273.3z"></path>
		<path d="M93.6,207.7l2.9,8.2l1.1,3h1.5l5.4-10.7l3.3,1.2l0.7,2.1l9,1.1l5.1-6l1.8-3.2l3.6-3.8l2.3-8.2l0,0l6.4-11.6h5.6l2.3-10.2
			l1.5-6.8l-1.7-1.2l-4.7,1.6l-0.1-3.9l-2.5-0.6l-6.3,1.8l-8.6-1l-1.7,1.8l-7.9-1.3l-2.6,2.2l-0.9,2.2l-1.4,0.1l-2.5,6.6l-1,4.5
			l-6.5,7.6l-2.3,0.6l-1.5,1.3L97,191l-4.5,3.6l-3.1-2.2L88,194v6.3l2.1,1.8l-4.1,4.5l2.2,1.1H93.6z"></path>
		<path d="M30.2,226.9l2.2,1h7.2l7.8,5.5v2.1l1.8,2.5h3.7l3.9,11.4l7-0.8l3.6,10.9l4.1-8l-1-2.9l8.6-2.4v-3.7l4.7,0.7l1.1-2.7
			l4.5-1.2l2.9,2.5l4.7,0.3l4-0.9l2.2-2.3l0.1-1l-2.6-0.7l-3-13.7l-2.1-0.9l1-3.1l-1.2-3.3l-2.6-7.4H88l-2.8-1.3l-0.1,0.2l-7.4-5.5
			l1.8-2.6l1.8-5.1l-1-3l-7.4,3.5l-0.6,3l-3.4,2.4l-1.7,0.6l0.8,1.1l-9.4,2.1l-3-0.7l-7.4,2.5l-1.7,2l-9.3,2.5l-1.9,2.8l-1.3,5.6
			l-1.2,5.7L30.2,226.9z"></path>
	</g>
	<g id="bg-white" class="bg-white">
		<path d="M109.8,98l3.4-4l1.4-3.5l-5.5-1.9l-1.9-3.6l-2.2,1.1l-2,5v4.7l5.2,2.2H109.8z"></path>
		<path class="st1" d="M110,98.5h-1.9l-5.5-2.3V91l2-5.3l2.8-1.3l2.1,3.8l5.8,2l-1.6,4.2L110,98.5z M108.4,97.5h1.2l3.2-3.7l1.2-3
			l-5.1-1.8l-1.8-3.3l-1.6,0.7l-1.9,4.8v4.2L108.4,97.5z"></path>
		<path d="M70,178.6l-5,17.3l1.4-0.5l2.8-2l0.7-3.2l9.1-4.3l1.5,4.6l-2,5.7l-1.3,1.8l5.5,4l0.2,0.1l3.5-3.9l-1.5-1.4v-7.2l2.2-2.7
			l3.3,2.2l3.2-2.4l-3.2-5.8l2.4-2.2l2.3-0.5l6.1-7.1l0.9-4.3l2.5-6.6l-1.3-0.9h-2.5l-0.8-2.9l-4.9-4.8l8.8-10.8v-1.3l-4.3,3.5h-4.8
			l-2.1,4.2h-1.4l2.6,6.4l-6.8,4.8h-6.7l-3,2l0.1,0.3l-2.7,1.2l-1.4,5.2l2,2.8l-5.1,4.3L70,178.6z"></path>
		<path class="st1" d="M83.1,202.7l-0.5-0.3l-6-4.4l1.5-2.2l1.9-5.5l-1.3-3.9l-8.4,4l-0.6,3.1l-3.2,2.2l-2.3,0.8l5.3-18.2l0.3-4.6
			l4.9-4.1l-1.9-2.6l1.6-5.6l2.5-1.2l-0.1-0.2l3.5-2.2h6.6l6.3-4.5l-2.7-6.7h1.9l2.1-4.2h4.9l4.9-4v2.4l-8.6,10.6l4.7,4.5l0.7,2.6
			h2.3l1.8,1.2l-2.7,7l-0.9,4.4l-6.2,7.3l-2.3,0.6l-2,1.8l3.1,5.8l-3.7,3l-3.2-2.2l-1.9,2.3v6.8l1.8,1.5L83.1,202.7z M77.9,197.9
			l4.9,3.6l2.9-3.2l-1.4-1.2v-7.6l2.7-3.3l3.4,2.3l2.5-2l-3.1-5.8l2.7-2.5l2.3-0.5l5.9-6.9l0.9-4.2l2.4-6.3l-0.8-0.6h-2.8l-0.8-3.1
			l-5.2-5l9-11.1l-3.6,2.9h-4.7l-2.1,4.2h-1l2.4,6.1l-7.2,5.1h-6.6l-2.6,1.7l0.1,0.4l-2.9,1.3l-1.3,4.7l2.1,3l-5.2,4.5l-0.3,4.4
			l-4.8,16.3l0.4-0.1l2.7-1.9l0.6-3.2l9.8-4.7l1.8,5.3l-2.1,6L77.9,197.9z"></path>
		<path class="st1" d="M94.6,125.3l4.2,4.4l6.6,4.5l-0.4,3.1v3.9l-8.4,10.3l4.4,4.3l0.6,2.3h2l1.8,1.2h0.8l0.7-1.8l3.2-2.8l7.9,1.3
			l1.7-1.8l8.9,1.1l6.4-1.8l3.6,0.9l0.1,3.2l3.8-1.2l1.8,1.2l1.9-7.3l1.9-1.2l-0.8-4.8l1.9-1.7l6.5,1.1v2.4l2.2,0.7l3.9-7.2
			l-1.6-3.2l-6.8-3.4l0.2-7.8l1.9-1.2l0.4-2.8l1.4,1.4l0.7-1.7l0.9-1.5l-0.5-1.8l-3.5-2h-2.5L133.1,100l-5,5.1l-4.8-2.2l1.7-10.6
			l-8.8-1.1v1.9l-1.8,4.8l1.3,3.4l-1.3,1.9l-2.7-3.3h-2.6l-0.6,2.4c0,0-5,8.8-5.1,8.4c-0.3,1.3-0.6,2.6-0.7,3.9l-5,4.6l-1,4l-2.4,1
			L94.6,125.3z"></path>
		<path class="st1" d="M105.4,159.9l-1.8-1.2h-2.2l-0.7-2.6l-4.7-4.5l8.6-10.5v-3.8l0.4-2.9l-6.4-4.4l-4.4-4.6V124l2.5-1l1-3.9
			l5-4.6c0.5-3.7,0.6-4.1,1-4.2c0.6-0.9,3.2-5.3,4.8-8.1l0.6-2.7h3.2l2.4,2.9l0.8-1.1L114,98l1.9-4.9v-2.3l9.9,1.3l-1.7,10.7
			l4.1,1.9l5-5.2l19.5,15.8h2.5l3.9,2.1l0.6,2.2l-1,1.7l-1,2.4l-1.2-1.2l-0.3,2l-1.8,1.1l-0.2,7.2l6.6,3.3l1.8,3.6l-4.2,7.8l-2.9-1
			v-2.4l-5.8-1l-1.5,1.4l0.8,4.9l-2,1.3l-2.1,7.8l-2.2-1.5l-4.2,1.4l-0.1-3.5l-3.1-0.8l-6.4,1.8l-8.7-1.1l-1.7,1.8l-7.9-1.3
			l-2.9,2.6l-0.8,2L105.4,159.9z M102.1,157.7h1.8l1.8,1.2h0.4l0.6-1.6l3.4-3l7.9,1.3l1.7-1.8l9.1,1.1l6.4-1.8l4.1,1l0.1,2.9
			l3.4-1.1l1.4,1l1.8-6.8l1.8-1.1l-0.8-4.8l2.3-2l7.1,1.2v2.5l1.5,0.5l3.6-6.6l-1.4-2.9l-6.9-3.4l0.2-8.4l1.9-1.2l0.5-3.6l1.5,1.6
			l0.4-1l0.9-1.4l-0.4-1.4l-3.2-1.8h-2.6l-19.1-15.4l-4.9,5.1l-5.4-2.5l1.7-10.4l-7.7-1v1.5l-1.9,4.6l1.3,3.4l-1.8,2.7l-2.9-3.6
			h-1.9l-0.5,2.1c-3.5,6.2-4.6,8-5.1,8.5c-0.1,0.5-0.4,2.2-0.6,3.7v0.2l-5,4.7l-1,4.1l-2.4,1v0.3l4.1,4.2l6.8,4.7l-0.4,3.4v4
			l-8.2,10.1l4.2,4L102.1,157.7z"></path>
		<path d="M132,55.3l12.9-1.1l2.7,3.1l2.2-1.7v-3.4l5.2-4.3h5.2l4.8,3.6l2.6,6.5l-3.3,0.6l-1,3.1l0.9,4.4l3.3,2.7l-2.6,11.6l-1,0.8
			l3.3,1.7l1.8-1l5,3.3l4.5-11.8l5.3-5.4l11.5,3.2l9.9-4l2.3-1.1l4.7-10.5l-0.9-2.5l-0.2,0.1l-2.1-1.6l-0.8-2.2l-3.9-2.1l-2.4,1.4
			l-7-3.5v-3.5l-11.8-6.4l-1.1-5.8l5.4-8.3l-1-3.5l-10.3-0.4l0.2-2.5l4-2.6l-0.4-9.1h-2.2l-3,6.2l-2.1,0.9l-3.4,2.8l-1.3,6.9
			l-7.2-0.3l-14.2-5.8l-9,3.3l-4.7-1.4l-1.8,5.5l-2,1.2l-5.4,22.8l2.9,7.7L132,55.3z"></path>
		<path class="st1" d="M174.2,86l-5.2-3.6l-1.7,1.1l-4.3-2.2l1.5-1.2l2.4-11.1l-3.1-2.6l-1-4.7l1.2-3.5l3-0.5l-2.3-5.9l-4.7-3.4
			h-4.8l-4.8,4v3.5l-2.8,2.1l-2.9-3.3L132,55.8l-5.9-2.5l-3-8.1l5.5-23.1l2-1.2l1.9-5.8l5,1.4l9-3.3l14.3,5.9l6.7,0.2l1.3-6.6l3.6-3
			l2-0.8l3.1-6.4h2.9l0.5,10l-4.1,2.6l-0.2,1.7l10.1,0.4l1.2,4l-5.4,8.3l1,5.4l11.8,6.4v3.4l6.5,3.2l2.5-1.4l4.3,2.2l0.8,2.3
			l1.7,1.2l0.3-0.3l1.3,3.4l-4.9,10.8l-2.4,1.1l-10.2,4.1L184,68.6l-5,5.1L174.2,86z M169.1,81.3l4.7,3.2l4.5-11.4l5.5-5.6l11.6,3.2
			l9.8-4l2-1l4.6-10.1l-0.8-2l-2.3-1.7l-0.8-2.2l-3.5-1.8l-2.5,1.4l-7.5-3.7V42l-11.7-6.4l-1.2-6.3l5.4-8.3l-0.9-2.9l-10.5-0.4
			l0.3-3.2l4-2.6l-0.4-8.4H178l-3,6.2l-2.2,1l-3.2,2.6l-1.4,7.1l-7.8-0.3l-14.1-5.8l-8.9,3.2l-4.4-1.2l-1.7,5.2l-2,1.2L124,45.2
			l2.7,7.4l5.3,2.2l13-1.2l2.6,3l1.6-1.2V52l5.5-4.6h5.5l5.1,3.8l2.9,7.2l-3.6,0.6l-0.9,2.7l0.9,4.1l3.4,2.8l-2.7,12l-0.6,0.5
			l2.4,1.2L169.1,81.3z"></path>
		<path d="M117.3,63.8l11,5.7l-2.2,9.2l0.7,2.8h-1.1l-4.9,1.1l-4.4,6v1.6l10.1,1.3l-1.7,10.9l3.2,1.5l5.1-5.4l19.8,16.1h2.4l3.5,2
			l1.5-2.2l-0.6-1.7l2.6-5.4l1.5-0.5l-0.8-1.2l4.1-11l5.5-4.4l1.2-1.5v-2.2l-4.8-3.3l-1.7,1l-5.5-2.8l2.1-1.6l2.3-10.5l-3-2.5
			l-1.1-5.2l1.4-4l2.5-0.5l-1.9-4.9l-4.3-3.2h-4.4l-4.4,3.7v3.5l-3.5,2.6l-3.1-3.4l-12.6,1.1l-5.6-2.4l-0.7,2.1h-10.4l0.8,4.7
			l-1.3,2.9H117.3z"></path>
		<path class="st1" d="M159,117.3l-3.8-2.2h-2.5l-19.6-15.9l-5,5.2l-3.9-1.8L126,92l-10-1.3v-2.2l4.6-6.3l5.2-1.1h0.5l-0.6-2.3
			l2.2-9l-10.5-5.4h-3.5l1.5-3.5l-0.9-5.2h10.7l0.7-2.3l6,2.6l12.7-1.1l2.9,3.3l3-2.2v-3.5l4.7-4h4.8l4.6,3.4l2.2,5.6l-2.9,0.5
			l-1.2,3.6l1.1,4.8l3.1,2.6l-2.4,11l-1.6,1.3l4.6,2.3l1.7-1l5.3,3.6v2.6l-1.4,1.8l-5.4,4.3l-4,10.6l1,1.5l-1.9,0.7l-2.5,5l0.6,1.8
			L159,117.3z M153.1,114.1h2.4l3.2,1.9l1-1.6l-0.6-1.7l2.8-5.7l1-0.4l-0.6-0.9l4.3-11.3l5.5-4.5l1.1-1.4v-1.7l-4.4-3l-1.7,1
			l-6.5-3.2l2.6-2.1l2.2-10l-2.9-2.4l-1.2-5.4l1.5-4.5l2.3-0.4l-1.7-4.2l-4.1-3h-4l-4.1,3.4v3.5l-4.1,3.1l-3.2-3.6l-12.1,1l-5.3-2.3
			l-0.6,1.9h-10.2l0.7,4.3l-1,2.3h2.1l11.4,5.9l-2.3,9.5l0.9,3.3h-1.7l-4.7,1l-4.2,5.8v1l10.2,1.3l-1.8,11l2.6,1.2l5.2-5.4
			L153.1,114.1z"></path>
		<path d="M208.3,66.9l-2.6,1.3l-10.4,4.2l-11.2-3.1l-1.4,1.4l0.6,5.9l1.9,1.8l-0.8,9l-1.7,1.6v4.9l0.6,2l-4.2,5.8v2l2.2,1.9
			l0.8,4.9l1.6,1.5l3.5,5.3l1.6-1.2l2.7,2.4h8.8v1.9l2.7,2.5l1.1,5.2l6.8,1.5l0.8,5.7l2.3,0.4l0.8,4.1l2.2,0.6l2.9-1.5l1.1-3.2
			l1.7-0.6l1.8-3.8l3.3,3.8l9.4-3.3h0.1l12.9-2l1.4-6.9l-1.3-4.1l0.1-7.9l5-1.4l-1.3-10.4l-3-0.1l-6.8-6.5l0.5-6.7l-2.4-6.4
			l-13-18.7l-2.6-0.4l-3-8.1l-6.6-1.6l-2.2-1l-2.9,2.6l1.4,3.5L208.3,66.9z"></path>
		<path class="st1" d="M217,141l-2.6-0.8l-0.9-4l-2.3-0.4l-0.8-5.8l-6.7-1.4l-1.1-5.4l-2.8-2.5V119h-8.4l-2.5-2.3l-1.6,1.4l-3.8-5.8
			l-1.7-1.6l-0.8-4.9l-2.3-2v-2.4l4.2-5.8l-0.5-1.8v-5.2l1.8-1.6l0.7-8.6l-1.8-1.7l-0.6-6.3l1.8-1.8l11.3,3.2l10.2-4.1l2.5-1.2
			l5-10.9l-1.4-3.6l3.3-3.1l2.5,1.1l6.8,1.6l2.9,8.2l2.6,0.3l13.2,19l2.4,6.5l-0.4,6.6l6.4,6.2l3.3,0.1l1.4,11.1l-5.1,1.5l-0.1,7.4
			l1.4,4.2L251,130l-13.3,2.1l-9.7,3.4l-3.1-3.5l-1.5,3.3l-1.7,0.6l-1.1,3.2L217,141z M215.2,139.4l1.7,0.5l2.5-1.4l1.2-3.2l1.7-0.6
			l2-4.3l3.7,4.1l9.2-3.3l12.6-1.9l1.3-6.4l-1.3-4.1l0.1-8.3l5-1.4l-1.2-9.5l-2.8-0.1l-7-6.8l0.5-6.9l-2.3-6.3l-12.9-18.4l-2.8-0.4
			l-2.9-8.2l-6.4-1.5l-2-0.9l-2.3,2.2l1.3,3.3l-5.3,11.6l-2.8,1.3l-10.5,4.3l-11-3.1l-1,1.1l0.5,5.5l1.9,1.8l-0.8,9.5l-1.7,1.5v4.7
			l0.6,2.1l-4.3,5.9v1.6l2.2,1.9l0.8,4.9l1.6,1.5l3.2,4.9l1.4-1.2l2.9,2.6h9.1v2.2l2.7,2.4l1,5.1l6.8,1.4l0.9,5.7l2.2,0.4
			L215.2,139.4z"></path>
		<path d="M257,169.2l-1.6-2.9l-2.5-11.1l0.1-3.1l-2.8-4.3l-1.4-6.7l0.9-8.9l0.3-1.3l-12.5,2l-10,3.5l-2.7-3l-1.3,2.6l-1.6,0.6
			l-1.1,3.1l-3,1.6l1.4,2.3l-10.6,9.1l-3.1,0.8v0.3l1.1,0.8l-1.1,8.7l1.9,1.3l-4,8.8l0.4,3.2l-2.9,3.6v3.5l-1,1.7l0.8,4.6l-1.7,2.6
			l-0.5,0.4l1.4,5.7l-2.1,4.7l-2.4,0.7v4.6l4.4,3.9l0.4,1.9l1.8,2.7v0.1l2.1,8.4l2,1.4l6.1-4.6l1.9-3.7l1.9-2.4l1.6,2.3l2.4-4
			l5.8,2.7v3.4l17.2,3.9l0.1,0.1l5.5,3.4l0.9-1.5l3.8-7.7l3.7-2.5l-2.4-7l0.4-5.3l-10.1-4.7l2.1-5.9l-0.2-2.4l4.2-3.9L257,169.2z"></path>
		<path class="st1" d="M248.7,228.9l-5.9-3.7l-17.5-4v-3.5l-5.1-2.4l-2.6,4.2l-1.6-2.3l-1.5,1.9l-2,3.8l-6.3,4.9l-2.5-1.7l-2.1-8.6
			l-1.8-2.8l-0.4-1.8l-4.4-4v-5.1l2.5-0.8l1.9-4.3l-1.3-5.8l0.7-0.6l1.5-2.4l-0.8-4.6l1.1-1.7V180l2.9-3.5l-0.4-3.2l3.9-8.5
			l-1.8-1.3l1-8.7l-1-0.7v-1l3.4-0.9l10.2-8.7l-1.5-2.5l3.3-1.8l1.1-3.1l1.6-0.6l1.4-3.1l3,3.4l9.7-3.4l13.2-2.1l-0.4,2l-0.9,8.7
			l1.3,6.6l2.8,4.3l-0.1,3.2l2.5,11l1.6,3.1l-6.2,18.4l-4.1,3.9l0.2,2.3l-2,5.6l10,4.7l-0.4,5.6l2.5,7.2l-3.9,2.7l-3.7,7.5
			L248.7,228.9z M226.3,220.4l17,3.9l5.1,3.2l0.7-1.1l3.9-7.8l3.5-2.4l-2.3-6.7l0.3-5.1l-10.2-4.8l2.2-6.2l-0.2-2.5l4.2-4l6-17.7
			l-1.5-2.9l-2.6-11.1l0.1-3l-2.8-4.3l-1.4-6.8l0.9-8.9l0.1-0.6l-11.7,1.8l-10.3,3.6l-2.4-2.8l-1,2.1l-1.6,0.6l-1.1,3.1l-2.7,1.4
			l1.4,2.3l-11,9.4l-2.5,0.6l0.8,0.5l-1.1,8.7l1.9,1.5l-4.1,8.9l0.4,3.4l-2.9,3.5v3.5l-1,1.6l0.8,4.6l-1.9,3l-0.3,0.2l1.3,5.5
			l-2.2,5l-2.2,0.7v4l4.3,3.9l0.5,2l1.8,2.8l2.1,8.3l1.6,1.1l5.6-4.4l1.9-3.6l2.4-3l1.5,2.2l2.3-3.7l6.4,3V220.4z"></path>
		<path d="M163.2,187.5l0.5-0.5l3.5,0.7l1-3V178l4.1,1l7-4.4l5.5,3l-3.5,6.5l0.3,3.8l3.8,1.4l3.1,2.4h1.2l4.1-2.6l2.1,1.9l1.9,1.1
			l0.4-0.2l1.3-2.2l-0.8-4.6l1.1-1.7v-3.6l2.8-3.5l-0.4-3.1l3.8-8.2l-1.7-1.2l1.1-8.7l-1-0.7v-1.8l3.7-0.9l9.7-8.3l-1.1-1.9
			l-2.8-0.9l-0.9-3.9l-2.3-0.5l-0.9-5.7l-6.7-1.4l-1.1-5.7l-2.9-2.5v-1.3h-8l-2.3-2L187,119l-4.1-6.3l-1.9-1.6l-0.8-4.9l-2.3-2v-2.9
			l4.1-5.7l-0.4-1.5v-5.7l1.7-1.5l0.7-8.1l-1.8-1.6l-0.5-5.4l-2.2,2.2L175,85.7v3.4l-1.6,1.9l-5.3,4.3l-3.8,10.1l1.2,2l-2.3,0.8
			l-2.3,4.6l0.7,1.8l-2,2.9l0.6,2.2l-1.1,1.8l-1.4,3.3l-0.9-1l-0.1,1l-1.8,1.1l-0.2,6.5l6.5,3.2l2,4.1l-4.6,8.5l-3.9-1.2v-2.3
			l-5-0.8l-1,0.9l0.8,4.9l-2.2,1.4l-2,7.6l-0.7,3l4,0.3l2.6,1.8h1.2l3.6-4.8l2.4-3l1.5,2.4l-0.5,8.4l3.8,2.1l-0.8,5.6l1.4,1.6
			l0.7,2.7l-1.8,2.4l0.5,3.2l-0.9,2.3L163.2,187.5z"></path>
		<path class="st1" d="M197.9,192.8l-2.3-1.3l-1.9-1.6l-3.9,2.5h-1.5l-3.2-2.5l-4-1.5l-0.4-4.3l3.3-6.1l-4.8-2.7l-6.9,4.4l-3.7-0.9
			v6.2l-1.2,3.4l-3.6-0.7l-0.7,0.6l-1.5-1.3l0.9-2.6l-0.5-3.3l1.8-2.3l-0.6-2.4l-1.5-1.7l0.8-5.5l-3.7-2.1l0.5-8.5l-1.1-1.6l-2,2.4
			l-3.7,5H151l-2.6-1.8l-4.4-0.4l0.8-3.5l2.1-7.8l2-1.3l-0.8-4.9l1.4-1.3l5.6,1v2.3l3.1,1l4.3-8l-1.9-3.7l-6.6-3.3l0.2-7.1l1.8-1.1
			l0.2-1.8l1.1,1.2l1.1-2.6l1.1-1.7l-0.6-2.2l1.9-2.8l-0.6-1.8l2.4-4.9l2-0.7l-1.1-1.6l4-10.5l5.4-4.3l1.4-1.8v-3.4l4.6-11.9l2.9-3
			l0.6,6.3l1.8,1.7l-0.7,8.5l-1.8,1.6V94l0.5,1.7l-4.2,5.7v2.6l2.3,2l0.8,4.9l1.8,1.6l3.8,5.8l1.7-1.4l2.5,2.2h8.4v1.5l2.8,2.5
			l1.1,5.5l6.7,1.4l0.9,5.7l2.3,0.4l0.9,4l2.7,0.8l1.4,2.4l-10.1,8.6l-3.4,0.9v1.1l1,0.7l-1,8.6l1.7,1.3l-3.9,8.4l0.4,3.2l-2.9,3.5
			v3.6l-1.1,1.7l0.8,4.6l-1.5,2.4L197.9,192.8z M193.8,188.5l2.4,2.1l1.5,0.9l1.2-1.9l-0.8-4.6l1.1-1.8v-3.6l2.8-3.4l-0.4-3.1
			l3.7-7.9l-1.5-1.2l1-8.6l-1-0.7v-2.4l4-1l9.3-8l-0.8-1.3l-2.9-0.9l-0.9-3.9l-2.3-0.4l-0.9-5.8l-6.7-1.4l-1.2-5.8l-2.9-2.6v-1h-7.7
			l-2.1-1.9l-1.9,1.5l-4.4-6.7l-1.9-1.7l-0.8-4.9l-2.3-2.1v-3.3l4.1-5.6L181,94v-5.9l1.8-1.6l0.6-7.6l-1.7-1.6l-0.4-4.5l-1.4,1.4
			l-4.5,11.5v3.4l-1.7,2.2l-5.2,4.2l-3.7,9.7l1.5,2.2l-2.8,1l-2.1,4.2l0.6,1.9l-1.9,2.8l0.6,2.2l-1.3,2l-1.6,3.9l-0.7-0.8v0.2
			l-1.8,1.1l-0.1,5.9l6.3,3.1l2.2,4.5l-5,9.1l-4.6-1.5v-2l-4.3-0.7l-0.7,0.6l0.8,5l-2.2,1.5l-2,7.4l-0.5,2.4l3.5,0.3l2.6,1.8h0.8
			l3.4-4.6l2.8-3.5l2,3l-0.5,8.2l3.8,2.1l-0.8,5.7l1.4,1.7l0.8,3l-1.9,2.4l0.5,3.1l-0.8,2.2l0.3,0.3l0.4-0.4l3.3,0.6l0.9-2.5v-7.3
			l4.5,1.1l7-4.5l6.2,3.4l-3.7,6.7l0.3,3.4l3.6,1.4l3,2.3h0.9L193.8,188.5z"></path>
		<path d="M132.4,251.5l3.7-3.5l5.3,2.2l1.6-0.5v-3.8h3.8l4.7,2.9l3.2-1.6l0.8-6.5h10.2l3.3,3.1l-1.9,2.2l2.9,0.6l1,1.1l8.1-4.3
			l2-4.1l2.4-0.9l1.4,0.7l1.1-2.8l5.2-3.4l1.9-0.6l0.5-4.7l-2.9-3.3l0.1-5.6l1.5-4.7l-3.6-5.9l2.9-4.4l3.1-0.6l2.3-0.6l1.7-3.9
			l-1.3-5.4l-2.2-1.3l-1.5-1.3l-3.6,2.3h-2l-3.3-2.5l-4.2-1.7l-0.5-4.9l3.1-5.7l-3.9-2.2l-6.8,4.3l-3.2-0.8v5.5l-1.4,4.1l-3.8-0.8
			l-0.9,0.9l-2.2-2l1-2.9l-0.5-3.4l1.8-2.2l-0.5-1.9l-1.6-1.9l0.8-5.3l-3.8-2.1l0.6-8.7l-0.5-0.7l-1.4,1.7L153,165h-2.2l-2.6-1.9
			l-3.8-0.3l-0.7,3.1l-2.5,11.1h-5.9l-5.9,10.9l-2.4,8.3l-3.7,3.9l-1.7,3.1l-5.7,6.6l-10.2-1.2l-0.8-2.3l-1.8-0.7L97.8,216h-2.1
			l-0.7,2l1.7,0.7l2.9,13.6l2.8,0.7v2l3.5,6.6l-1.8,6.2l0.9,1l0.4,3.5l-1.6,1.3v2.1l0.8-0.2l2.5,2.6l6.7,0.5l3.6-2.1l3.3-1l2.8,2.6
			l0.6-4.9l5.2-4.8L132.4,251.5z"></path>
		<path class="st1" d="M123.8,259.1l-3.3-3l-2.9,0.9l-3.6,2.1l-7.1-0.5l-2.4-2.5l-1.1,0.3v-3l1.6-1.3l-0.4-3.1l-1-1l1.9-6.3
			l-3.6-6.5l0.1-1.7l-2.7-0.7L96.4,219l-1.9-0.8l0.9-2.8h2.2l5.4-10.5l2.4,0.9l0.8,2.2l9.6,1.1l5.4-6.3l1.8-3.2l3.6-3.8l2.4-8.3
			l6-11.1h5.8l3.2-14.2l4.4,0.4l2.6,1.8h1.8l3.7-5.1l1.9-2.3l1,1.5l-0.5,8.5l3.7,2.1l-0.8,5.5l1.5,1.9l0.6,2.1L162,181l0.5,3.3
			l-1,2.6l1.6,1.5l0.7-0.7l3.7,0.7l1.2-3.6v-6l3.6,0.9l6.9-4.4l4.6,2.6l-3.3,6.1l0.4,4.4l4.1,1.6l3.2,2.4h1.6l3.8-2.4l1.8,1.6
			l2.3,1.3l1.3,5.8l-1.9,4.2l-2.5,0.8l-2.9,0.5l-2.6,3.9l3.6,5.8l-1.6,4.9l-0.1,5.3l3,3.3l-0.6,5.3l-2.1,0.6l-5,3.3l-1.3,3.2
			l-1.7-0.9l-2,0.7l-2,4.1l-8.5,4.6l-1.2-1.3l-3.6-0.7l2.1-2.6l-2.9-2.6h-9.6l-0.8,6.3l-3.7,1.8l-4.8-3h-3.2v3.8l-2,0.6l-5.2-2.1
			l-3.8,3.6L129,249l-4.7,4.4L123.8,259.1z M107.3,257.6l6.4,0.5l3.6-2l3.5-1.1l2.3,2.1l0.6-4.2l5.6-5.3l3.1,3.1l3.6-3.4l5.4,2.2
			l1-0.3v-4h4.5l4.5,2.9l2.7-1.3l0.8-6.7h10.8l3.9,3.5l-1.7,2l2.2,0.4l0.9,1l7.6-4.1l2-4.2l2.8-1l1.1,0.6l1-2.5l5.5-3.6l1.6-0.4
			l0.5-4.2l-2.9-3.3l0.1-5.9l1.4-4.5l-3.7-6l3.2-4.8l3.3-0.6l2-0.6l1.5-3.5l-1.2-5l-2-1.2l-1.3-1.2l-3.4,2.2H188l-3.4-2.6l-4.5-1.7
			l-0.5-5.3l3-5.5l-3.2-1.8l-6.7,4.3l-2.8-0.7v5l-1.5,4.5l-4-0.7l-1,1l-2.9-2.6l1.1-3l-0.5-3.5l1.8-2.2l-0.4-1.6l-1.7-2l0.8-5.2
			l-3.7-2.1l0.5-8.8v-0.1l-1,1.2l-4,5.5h-2.6l-2.7-1.9l-3.2-0.3l-0.6,2.7l-2.6,11.5h-6l-5.8,10.6l-2.4,8.4l-3.7,3.9l-1.8,3.2
			l-5.8,6.7l-10.8-1.3l-0.8-2.4l-1.2-0.4L98,216.5h-2l-0.4,1.2l1.5,0.6l2.9,13.6l2.9,0.8l-0.1,2.2l3.6,6.6l-1.9,6.2l0.9,0.9l0.5,4
			l-1.6,1.4v1.2l0.5-0.1L107.3,257.6z"></path>
		<path d="M103.9,249.3l-1.1-1.2l1.9-6.4l-3.1-5.6l-2.1,2.1l-4.4,1.1l-5.2-0.4l-2.8-2.4l-3.3,1l-1.3,2.9l-4.3-0.5v3.2l-8.2,2.3
			l0.7,2.2l-4.8,9.6l-2.4,7.7l0.2,4.6l-3.8,7.6l0.1,0.6l3.4,0.3l3.6,3.5l1.2-2.1l9.2-0.6l4.9-15.6l9.8-9.2l3.1-0.8l3.2,3.8l4.3-1
			v-2.9l1.5-1.3L103.9,249.3z"></path>
		<path class="st1" d="M67.1,282.2l-3.9-3.8l-3.6-0.3l-0.2-1.1l3.8-7.7l-0.3-4.5l2.4-7.9l4.8-9.5l-0.9-2.5l8.4-2.3v-3.5l4.4,0.6
			l1.2-2.8l3.9-1.1l2.9,2.4l5,0.4l4.2-1l2.5-2.6l3.5,6.4l-1.9,6.4l1.1,1.1l0.3,3l-1.6,1.3v3.1l-5,1.2l-3.2-3.9l-2.7,0.7l-9.6,9
			l-5,15.8l-9.3,0.6L67.1,282.2z M60.4,277.2l3.1,0.2l3.3,3.2l1-1.8l9.1-0.6l4.9-15.4l9.9-9.4l3.6-0.9l3.1,3.9l3.6-0.9v-2.7l1.5-1.2
			l-0.2-2.1l-1.2-1.2l2-6.5l-2.6-4.9l-1.7,1.8l-4.6,1.1l-5.5-0.4l-2.7-2.3l-2.9,0.8l-1.3,3.1l-4-0.5v3.1l-8.1,2.3l0.6,1.9l-5,9.8
			L64,265l0.3,4.6L60.4,277.2L60.4,277.2z"></path>
		<path d="M259.8,264l-6.3-5.4l-0.1-2.1l-4-2.4l-5.4-18.5l4-6.5l-5.4-3.3l-18-4.1v-3.5l-4.1-2l-2.8,4.6l-1.7-2.5l-0.9,1.1l-2.1,3.8
			l-6.8,5.3l-3.1-2.1l-2.2-8.7l-1.7-2.7l-0.5-1.8l-4.4-4v-4.8l-2,0.4l-2.3,3.3l3.6,5.7l-1.7,5.1v5l2.9,3.3l-0.6,6l-2.5,0.7l-4.7,3.2
			l-1.5,3.6l-2.1-1.1l-1.4,0.6l-2,4l-9.2,4.9l-1.4-1.5l-4.4-0.8l2.5-2.9l-2.3-2h-8.7l-0.8,6.1l-4.3,2.1l-4.9-3.1h-2.4v3.6l-2.1,0.6
			v5.8l-2.4,4.4l1.1,9.4l-7.9,12.8l-6.6,2.3l3,5.2l5.5,3.1l10.3,1.2l4.4,2.1l3.2-5.4l4.9-3l9.9,6.4l7.1-5.6l1.5-7.4l2.1-4.9l3-1
			l2.3,3.9l2.7,6l-1.1,2.2l1.1,2.2l3.1,0.1l3.1,1.2l1.9-1h6.8l1.1-3.1h2.3l14.5,9.8h17l4-2.3l1.2-10.6l9.2-7.6l6-0.5l1.8-2.2
			l-0.7-6.1L259.8,264z"></path>
		<path class="st1" d="M236.1,298.4h-17.3l-14.5-9.8h-1.9l-1.1,3.1h-7l-2,1.1l-3.3-1.3l-3.2-0.1l-1.4-2.6l1.1-2.2l-2.7-5.8l-2-3.5
			l-2.4,0.8l-2,4.6l-1.5,7.5l-7.5,5.9l-10-6.4l-4.5,2.8l-3.4,5.7l-4.7-2.3l-10.4-1.2l-5.6-3.1l-3.4-5.8l7-2.5l7.8-12.5l-1.1-9.4
			l2.4-4.4v-6.1l2.1-0.6v-3.7h3l4.8,3l3.8-1.9l0.8-6.3h9.4l2.7,2.5l-2.2,2.7l3.8,0.7l1.2,1.3l8.7-4.6l2-4.1l1.9-0.7l1.8,0.9l1.3-3.3
			l5-3.3l2.1-0.6l0.6-5.5l-3-3.3l0.1-5.3l1.5-4.9l-3.6-5.8l2.6-3.8l2.8-0.5v5.2l4.4,4l0.4,1.8l1.8,2.8l2.1,8.5l2.6,1.8l6.5-5l2-3.7
			l1.4-1.7l1.7,2.4l2.6-4.3l4.9,2.3v3.5l17.7,4l5.8,3.6l-4.1,6.7l5.3,18.1l4.1,2.5l0.1,2.1l6.4,5.5l-2.6,4.8l0.8,6.2l-2.1,2.5
			l-6.1,0.6l-8.9,7.4l-1.2,10.6L236.1,298.4z M219.1,297.4h16.8l3.6-2.2l1.2-10.5l9.5-7.9l6-0.6l1.5-1.8l-0.8-6.1l2.4-4.4l-6.1-5.2
			l-0.1-2l-4-2.4l-5.5-18.9l3.8-6.2l-4.9-3l-18.2-4.1v-3.7l-3.5-1.6l-3,4.8l-1.8-2.5l-0.5,0.6l-2.1,3.9l-7.1,5.5l-3.5-2.4l-2.2-8.9
			l-1.8-2.8l-0.4-1.6l-4.5-4.1V205l-1.2,0.2l-2,2.9l3.5,5.6l-1.6,5.2l-0.1,4.7l3,3.4l-0.8,6.6l-2.7,0.8l-4.5,3l-1.6,4l-2.4-1.2
			l-1.1,0.4l-2,4l-9.6,5.2l-1.5-1.6l-5.1-1l2.7-3.2l-1.7-1.5h-8.1l-0.7,6l-4.8,2.4l-5-3.2h-1.7v3.5l-2.1,0.6v5.6l-2.3,4.3l1.1,9.4
			l-8.2,13.1l-6.2,2.2l2.6,4.5l5.3,3l10.4,1.2l4,2l3.1-5.1l5.2-3.3l9.9,6.4l6.6-5.3l1.5-7.3l2.2-5l3.6-1.2l2.5,4.2l2.9,6.3l-1.1,2.2
			l0.9,1.6l2.9,0.1l2.9,1.1l1.8-1h6.5l1.1-3.1h2.9L219.1,297.4z"></path>
		<path d="M68.4,141.5l-5.4,5.2l-0.4,4.3l8.3,7.2l6.2,0.7v0.3l3-1.9h6.6l5.8-4.1l-2.9-7.1H92l2.1-4.2h5.1l4.6-3.7l0.4-3.5l-6.1-4.1
			v-0.1l-4.6-4.8v-2.1l2.6-1l0.7-2.9l-2.7-4.1l-1-0.3l-6.7-8.1l-3.7-1.3l-1.1-3.7l-11.2-0.8l-6.2,7.6v5.9l-8.6,16.8l8.8,3.3
			L68.4,141.5z"></path>
		<path class="st1" d="M76.8,160l-0.2-0.6l-6-0.7l-8.6-7.4l0.5-4.8l5.2-5l-3.7-6l-9.1-3.4l8.7-17.2v-6l6.6-8l11.8,0.9l1,3.8l3.6,1.3
			l6.7,8.1l1,0.3l2.9,4.4l-0.8,3.3l-2.4,1v1.6l4.5,4.6l6.3,4.3l-0.5,3.9l-4.8,4h-5l-2.1,4.2h-2l2.7,6.8l-6.2,4.4h-6.6L76.8,160z
			 M71.1,157.7l6.3,0.8l2.6-1.7h6.6l5.3-3.8l-3-7.5h2.8l2.1-4.2H99l4.2-3.5l0.4-2.9l-5.9-4.1l-4.8-5v-2.6l2.7-1.1l0.6-2.4l-2.4-3.7
			l-1-0.3l-6.7-8.1l-3.8-1.4l-1-3.6l-10.6-0.8l-6,7.3v5.9v0.1l-8.3,16.3l8.4,3.2l4.3,7l-5.5,5.3l-0.4,3.9L71.1,157.7z"></path>
		<path d="M62.6,269.3l-0.3-4.5l2.4-7.8L61,245.8l-6.9,0.8l-4-11.4h-3.5l-2.3-3.4V230l-7.1-5h-7l-4.1-1.8l3.7-3.2l1.1-5.4l1.1-4.7
			l-8.9,2.7l-5.4,6.3L7.8,218l-1,4l-0.2,4.7l7,7.6l-2.8,5.9L7.3,240l-4.8,3.7v4l4,3.8l7.1,0.4l0.1,12.6l-2,4.5l3.9,0.3l1.4,2.1
			l6.1,2.2l-1.8,5.8l-3.2-0.8l-2.6,2.7l-3.4,1.4l-4,12.4L6,296l0.9,3l5-0.3l5.1,8l2.2-1.1h8.6l2.1-2.6l10-8.8l7.4-0.6l9.1-8.9
			l1.4-7.2l1,0.1l-0.1-0.6L62.6,269.3z"></path>
		<path class="st1" d="M16.8,307.3l-5.1-8.1l-5.2,0.4l-1.1-3.8l2.3-1l4-12.5l3.5-1.4l2.7-2.8l3.1,0.7l1.5-4.9l-5.9-2.1l-1.3-2
			l-4.4-0.4l2.3-5.1l-0.1-12L6.3,252L2,247.9v-4.5l5.2-4l3.3,0.2l2.5-5.2l-6.9-7.5l0.1-5l1.1-4.5l10.2,0.9l5.3-6.2l9.8-3l-2.5,11.1
			L27,223l3.3,1.5h7.1l7.4,5.2v1.9l2.1,3h3.6l3.9,11.4l7-0.8l3.9,11.8l-2.4,7.9l0.3,4.5l-3.8,7.6l0.2,1.1l-1.3-0.1l-1.3,7l-9.3,9
			l-7.4,0.6l-10,8.7L28,306h-8.8L16.8,307.3z M12.2,298.2l5,7.8l1.9-1h8.5l1.9-2.4l10.3-9l7.4-0.6l8.8-8.6l1.4-7.5l0.9,0.1v-0.2
			l3.9-7.7l-0.2-4.4l2.3-7.7l-3.5-10.6l-6.9,0.8L50,235.7h-3.4l-2.5-3.7v-1.7l-6.8-4.7l-7.1-0.1l-4.8-2.2l4.1-3.6l2-9.1l-7.9,2.4
			l-5.4,6.3l-9.8-0.9L7.5,222l-0.1,4.4l7,7.8l-3.1,6.5l-3.6-0.2L3,243.9v3.6l3.8,3.5l7.4,0.4l0.1,13.2l-1.8,4l3.5,0.3l1.4,2.1
			l6.5,2.4l-2.1,6.7l-3.4-0.8l-2.6,2.6l-3.1,1.3l-4,12.4l-1.9,0.8l0.7,2.2L12.2,298.2z"></path>
		<path d="M91.6,203.7l2.9,8.2l1.1,3h1.5l5.4-10.7l3.3,1.2l0.7,2.1l9,1.1l5.1-6l1.8-3.2l3.6-3.8l2.3-8.2l0,0l6.4-11.6h5.6l2.3-10.2
			l1.5-6.8l-1.7-1.2l-4.7,1.6l-0.1-3.9l-2.5-0.6l-6.3,1.8l-8.6-1l-1.7,1.8l-7.9-1.3l-2.6,2.2l-0.9,2.2l-1.4,0.1l-2.5,6.6l-1,4.5
			l-6.5,7.6l-2.3,0.6l-1.5,1.3L95,187l-4.5,3.6l-3.1-2.2L86,190v6.3l2.1,1.8l-4.1,4.5l2.2,1.1H91.6z"></path>
		<path class="st1" d="M97.4,215.4h-2.1L94,212l-2.7-7.9H86l-2.8-1.3l4.2-4.7l-1.9-1.6v-6.7l1.8-2.1l3.2,2.2l3.9-3.1l-3.1-5.8
			l1.9-1.7l2.4-0.6l6.3-7.4l0.9-4.4l2.7-7l1.4-0.1l0.8-2l2.8-2.5l7.9,1.3l1.7-1.8l8.7,1.1l6.3-1.8l3,0.7l0.1,3.6l4.3-1.4l2.2,1.5
			l-1.6,7.2l-2.4,10.6H135l-6.2,11.3l-2.3,8.3l-3.6,3.8l-1.8,3.3l-5.3,6.2l-9.5-1.1l-0.8-2.2l-2.6-1L97.4,215.4z M96,214.4h0.8
			l5.5-10.8l3.9,1.5l0.7,2l8.3,1l4.9-5.8l1.8-3.3l3.5-3.7l2.3-8.2l6.5-11.9h5.5l2.2-9.8l1.4-6.5l-1.2-0.9l-5.1,1.7l-0.1-4.1l-2-0.5
			l-6.3,1.8l-8.4-1l-1.7,1.8l-8-1.3l-2.3,2l-0.9,2.4l-1.4,0.1l-2.4,6.3l-1,4.6l-6.6,7.8l-2.4,0.6l-1.1,1l3.2,5.9l-5.2,4.1l-3.1-2.1
			l-1,1.2v5.9l2.3,1.9l-3.9,4.4l1.5,0.7H92l2.9,8.5L96,214.4z"></path>
		<path d="M28.2,222.9l2.2,1h7.2l7.8,5.5v2.1l1.8,2.5h3.7l3.9,11.4l7-0.8l3.6,10.9l4.1-8l-1-2.9l8.6-2.4v-3.7l4.7,0.7l1.1-2.7
			l4.5-1.2l2.9,2.5l4.7,0.3l4-0.9l2.2-2.3l0.1-1l-2.6-0.7l-3-13.7l-2.1-0.9l1-3.1l-1.2-3.3l-2.6-7.4H86l-2.8-1.3l-0.1,0.2l-7.4-5.5
			l1.8-2.6l1.8-5.1l-1-3l-7.4,3.5l-0.6,3l-3.4,2.4l-1.7,0.6l0.8,1.1l-9.4,2.1l-3-0.7l-7.4,2.5l-1.7,2l-9.3,2.5l-1.9,2.8l-1.3,5.6
			l-1.2,5.7L28.2,222.9z"></path>
		<path class="st1" d="M65.3,256.8l-3.9-11.6l-7,0.8l-3.9-11.4h-3.6l-2-2.9v-1.9l-7.5-5.3h-7.2l-3-1.4l3.1-2.6l2.7-11.4l2-2.9
			l9.3-2.6l1.6-2l7.7-2.6l3.1,0.7l8.5-1.9l-0.6-1l2.2-0.8l3.2-2.2l0.6-3.1l8.2-3.9l1.3,3.7l-1.9,5.5l-1.6,2.2L83,203l0.1-0.1l3,1.4
			h5.1l2.7,7.8l1.3,3.4l-1,2.9l1.9,0.8l3,13.7l2.7,0.7l-0.1,1.6l-2.5,2.6l-4.1,1l-4.9-0.4l-2.9-2.4l-4,1.1l-1.2,2.8l-4.5-0.6v3.5
			l-8.5,2.4l0.9,2.6L65.3,256.8z M62.1,244l3.4,10.1l3.4-6.7l-1.1-3.2l8.8-2.4V238l4.9,0.7l1.1-2.5l5-1.4l3,2.6l4.4,0.3l3.7-0.9
			l2-2.1v-0.4l-2.5-0.6l-3-13.8l-2.3-0.9l1.1-3.5l-1.2-3.1l-2.5-7.1h-4.7l-2.4-1.1l-0.2,0.2l-8.2-6l2.1-2.9l1.7-4.9l-0.8-2.3
			l-6.7,3.2l-0.6,3L67,197l-1.1,0.4l0.8,1.2l-10.1,2.2l-3-0.7l-7.2,2.4l-1.6,2l-9.2,2.6l-1.8,2.5L31.3,221l-2.1,1.8l1.4,0.7h7.2
			l8.2,5.8v2.1l1.5,2.2h3.8l3.9,11.3L62.1,244z"></path>
	</g>
	<path id="fornosdealgodres" d="M70,178.6l-5,17.3l1.4-0.5l2.8-2l0.7-3.2l9.1-4.3l1.5,4.6l-2,5.7l-1.3,1.8l5.5,4l0.2,0.1l3.5-3.9
		l-1.5-1.4v-7.2l2.2-2.7l3.3,2.2l3.2-2.4l-3.2-5.8l2.4-2.2l2.3-0.5l6.1-7.1l0.9-4.3l2.5-6.6l-1.3-0.9h-2.5l-0.8-2.9l-4.9-4.8
		l8.8-10.8v-1.3l-4.3,3.5h-4.8l-2.1,4.2h-1.4l2.6,6.4l-6.8,4.8h-6.7l-3,2l0.1,0.3l-2.7,1.2l-1.4,5.2l2,2.8l-5.1,4.3L70,178.6z" data-municipality-id="122" data-title="Fornos de Algodres"><title>Fornos de Algodres</title></path>
	<g id="trancoso" data-municipality-id="130" data-title="Trancoso">
		<path d="M109.8,98L113.2 94 114.6 90.5 109.1 88.6 107.2 85 105 86.1 103 91.1 103 95.8 108.2 98 z"></path>
		<path class="st2" d="M160.2,136.4l-6.8-3.4l0.2-7.8l1.9-1.2l0.4-2.8l1.4,1.4l0.7-1.7l0.9-1.5l-0.5-1.8l-3.5-2h-2.5L133.1,100
			l-5,5.1l-4.8-2.2l1.7-10.6l-8.8-1.1v1.9l-1.8,4.8l1.3,3.4l-1.3,1.9l-2.7-3.3h-2.6l-0.6,2.4c0,0-5,8.8-5.1,8.4
			c-0.3,1.3-0.6,2.6-0.7,3.9l-5,4.6l-0.7,4.2l-2.4,1v0.9l4.2,4.4l6.6,4.5l-0.4,3.1v3.9l-8.4,10.3l4.4,4.3l0.6,2.3h2l1.8,1.2h0.8
			l0.7-1.8l3.2-2.8l7.9,1.3l1.7-1.8l8.9,1.1l6.4-1.8l3.6,0.9l0.1,3.2l3.8-1.2l1.8,1.2l1.9-7.3l1.9-1.2l-0.8-4.8l1.9-1.7l6.5,1.1v2.4
			l2.2,0.7l3.9-7.2L160.2,136.4z"></path>
	<title>Trancoso</title></g>
	<path id="vilanovadefozcoa" d="M132,55.3l12.9-1.1l2.7,3.1l2.2-1.7v-3.4l5.2-4.3h5.2l4.8,3.6l2.6,6.5l-3.3,0.6l-1,3.1l0.9,4.4
		l3.3,2.7l-2.6,11.6l-1,0.8l3.3,1.7l1.8-1l5,3.3l4.5-11.8l5.3-5.4l11.5,3.2l9.9-4l2.3-1.1l4.7-10.5l-0.9-2.5l-0.2,0.1l-2.1-1.6
		l-0.8-2.2l-3.9-2.1l-2.4,1.4l-7-3.5v-3.5l-11.8-6.4l-1.1-5.8l5.4-8.3l-1-3.5l-10.3-0.4l0.2-2.5l4-2.6l-0.4-9.1h-2.2l-3,6.2
		l-2.1,0.9l-3.4,2.8l-1.3,6.9l-7.2-0.3l-14.2-5.8l-9,3.3l-4.7-1.4l-1.8,5.5l-2,1.2l-5.4,22.8l2.9,7.7L132,55.3z" data-municipality-id="131" data-title="Vila Nova de Foz Côa"><title>Vila Nova de Foz Côa</title></path>
	<path id="meda" d="M117.3,63.8l11,5.7l-2.2,9.2l0.7,2.8h-1.1l-4.9,1.1l-4.4,6v1.6l10.1,1.3l-1.7,10.9l3.2,1.5l5.1-5.4l19.8,16.1
		h2.4l3.5,2l1.5-2.2l-0.6-1.7l2.6-5.4l1.5-0.5l-0.8-1.2l4.1-11l5.5-4.4l1.2-1.5v-2.2l-4.8-3.3l-1.7,1l-5.5-2.8l2.1-1.6l2.3-10.5
		l-3-2.5l-1.1-5.2l1.4-4l2.5-0.5l-1.9-4.9l-4.3-3.2h-4.4l-4.4,3.7v3.5l-3.5,2.6l-3.1-3.4l-12.6,1.1l-5.6-2.4l-0.7,2.1h-10.4l0.8,4.7
		l-1.3,2.9H117.3z" data-municipality-id="126" data-title="Mêda"><title>Mêda</title></path>
	<path id="figueiradecastelorodrigo" d="M213.5,55.7l-5.2,11.2l-2.6,1.3l-10.4,4.2l-11.2-3.1l-1.4,1.4l0.6,5.9l1.9,1.8l-0.8,9
		l-1.7,1.6v4.9l0.6,2l-4.2,5.8v2l2.2,1.9l0.8,4.9l1.6,1.5l3.5,5.3l1.6-1.2l2.7,2.4h8.8v1.9l2.7,2.5l1.1,5.2l6.8,1.5l0.8,5.7l2.3,0.4
		l0.8,4.1l2.2,0.6l2.9-1.5l1.1-3.2l1.7-0.6l1.8-3.8l3.3,3.8l9.4-3.3h0.1l12.9-2l1.4-6.9l-1.3-4.1l0.1-7.9l5-1.4l-1.3-10.4l-3-0.1
		l-6.8-6.5l0.5-6.7l-2.4-6.4l-13-18.7l-2.6-0.3l-3-8.2l-6.6-1.6l-2.2-1l-2.9,2.6L213.5,55.7z" data-municipality-id="121" data-title="Figueira de Castelo Rodrigo"><title>Figueira de Castelo Rodrigo</title></path>
	<path id="almeida" d="M257,169.2l-1.6-2.9l-2.5-11.1l0.1-3.1l-2.8-4.3l-1.4-6.7l0.9-8.9l0.3-1.3l-12.5,2l-10,3.5l-2.7-3l-1.3,2.6
		l-1.6,0.6l-1.1,3.1l-3,1.6l1.4,2.3l-10.6,9.1l-3.1,0.8v0.3l1.1,0.8l-1.1,8.7l1.9,1.3l-4,8.8l0.4,3.2l-2.9,3.6v3.5l-1,1.7l0.8,4.6
		l-1.7,2.6l-0.5,0.4l1.4,5.7l-2.1,4.7l-2.4,0.7v4.6l4.4,3.9l0.4,1.9l1.8,2.7v0.1l2.1,8.4l2,1.4l6.1-4.6l1.9-3.7l1.9-2.4l1.6,2.3
		l2.4-4l5.8,2.7v3.4l17.2,3.9l0.1,0.1l5.5,3.4l0.9-1.5l3.8-7.7l3.7-2.5l-2.4-7l0.4-5.3l-10.1-4.7l2.1-5.9l-0.2-2.4l4.2-3.9
		L257,169.2z" data-municipality-id="119" data-title="Almeida"><title>Almeida</title></path>
	<path id="pinhel" d="M163.2,187.5l0.5-0.5l3.5,0.7l1-3V178l4.1,1l7-4.4l5.5,3l-3.5,6.5l0.3,3.8l3.8,1.4l3.1,2.4h1.2l4.1-2.6
		l2.1,1.9l1.9,1.1l0.3-0.2l1.4-2.2l-0.8-4.6l1.1-1.7v-3.6l2.8-3.5l-0.4-3.1l3.8-8.2l-1.7-1.2l1.1-8.7l-1-0.7v-1.8l3.7-0.9l9.7-8.3
		l-1.1-1.9l-2.8-0.9l-0.9-3.9l-2.3-0.5l-0.9-5.7l-6.7-1.4l-1.1-5.7l-2.9-2.5v-1.3h-8l-2.3-2L187,119l-4.1-6.3l-1.9-1.6l-0.8-4.9
		l-2.3-2v-2.9l4.1-5.7l-0.4-1.5v-5.7l1.7-1.5l0.7-8.1l-1.8-1.6l-0.5-5.4l-2.2,2.2L175,85.7v3.4l-1.6,1.9l-5.3,4.3l-3.8,10.1l1.2,2
		l-2.3,0.8l-2.3,4.6l0.7,1.8l-2,2.9l0.6,2.2l-1.1,1.8l-1.4,3.3l-0.9-1l-0.1,1l-1.8,1.1l-0.2,6.5l6.5,3.2l2,4.1l-4.6,8.5l-3.9-1.2
		v-2.3l-5-0.8l-1,0.9l0.8,4.9l-2.2,1.4l-2,7.6l-0.7,3l4,0.3l2.6,1.8h1.2l3.6-4.8l2.4-3l1.5,2.4l-0.5,8.4l3.8,2.1l-0.8,5.6l1.4,1.6
		l0.7,2.7l-1.8,2.4l0.5,3.2l-0.9,2.3L163.2,187.5z" data-municipality-id="127" data-title="Pinhel"><title>Pinhel</title></path>
	<path id="guarda" d="M132.4,251.5l3.7-3.5l5.3,2.2l1.6-0.5v-3.8h3.8l4.7,2.9l3.2-1.6l0.8-6.5h10.2l3.3,3.1l-1.9,2.2l2.9,0.6l1,1.1
		l8.1-4.3l2-4.1l2.4-0.9l1.4,0.7l1.1-2.8l5.2-3.4l1.9-0.6l0.5-4.7l-2.9-3.3l0.1-5.6l1.5-4.7l-3.6-5.9l2.9-4.4l3.1-0.6l2.3-0.6
		l1.7-3.9l-1.3-5.4l-2.2-1.3l-1.5-1.3l-3.6,2.3h-2l-3.3-2.5l-4.2-1.7l-0.5-4.9l3.1-5.7l-3.9-2.2l-6.8,4.3l-3.2-0.8v5.5l-1.4,4.1
		l-3.8-0.8l-0.9,0.9l-2.2-2l1-2.9l-0.5-3.4l1.8-2.2l-0.5-1.9l-1.6-1.9l0.8-5.3l-3.8-2.1l0.6-8.7l-0.5-0.7l-1.4,1.7L153,165h-2.2
		l-2.6-1.9l-3.8-0.3l-0.7,3.1l-2.5,11.1h-5.9l-5.9,10.9l-2.4,8.3l-3.7,3.9l-1.7,3.1l-5.7,6.6l-10.2-1.2l-0.8-2.3l-1.8-0.7L97.8,216
		h-2.1l-0.7,2l1.7,0.7l2.9,13.6l2.8,0.7v2l3.5,6.6l-1.8,6.2l0.9,1l0.4,3.5l-1.6,1.3v2.1l0.8-0.2l2.5,2.6l6.7,0.5l3.6-2.1l3.3-1
		l2.8,2.6l0.6-4.9l5.2-4.8L132.4,251.5z" data-municipality-id="124" data-title="Guarda"><title>Guarda</title></path>
	<path id="manteigas" d="M102.7,253.1l1.5-1.3l-0.3-2.5l-1.1-1.2l1.9-6.4l-3.1-5.6l-2.1,2.1l-4.4,1.1l-5.2-0.4l-2.8-2.4l-3.3,1
		l-1.3,2.9l-4.3-0.5v3.2l-8.2,2.3l0.7,2.2l-4.8,9.6l-2.4,7.7l0.2,4.6l-3.8,7.6l0.1,0.6l3.4,0.3l3.6,3.5l1.2-2.1l9.2-0.6l4.9-15.6
		l9.8-9.2l3.1-0.8l3.2,3.8l4.3-1V253.1z" data-municipality-id="125" data-title="Manteigas"><title>Manteigas</title></path>
	<path id="sabugal" d="M259.8,264l-6.3-5.4l-0.1-2.1l-4-2.4l-5.4-18.5l4-6.5l-5.4-3.3l-18-4.1v-3.5l-4.1-2l-2.8,4.6l-1.7-2.5
		l-0.9,1.1l-2.1,3.8l-6.8,5.3l-3.1-2.1l-2.2-8.7l-1.7-2.7l-0.5-1.8l-4.4-4v-4.8l-2,0.4l-2.3,3.3l3.6,5.7l-1.7,5.1v5l2.9,3.3l-0.6,6
		l-2.5,0.7l-4.7,3.2l-1.5,3.6l-2.1-1.1l-1.4,0.6l-2,4l-9.2,4.9l-1.4-1.5l-4.4-0.8l2.5-2.9l-2.3-2h-8.7l-0.8,6.1l-4.3,2.1l-4.9-3.1
		h-2.4v3.6l-2.1,0.6v5.8l-2.4,4.4l1.1,9.4l-7.9,12.8l-6.6,2.3l3,5.2l5.5,3.1l10.3,1.2l4.4,2.1l3.2-5.4l4.9-3l9.9,6.4l7.1-5.6
		l1.5-7.4l2.1-4.9l3-1l2.3,3.9l2.7,6l-1.1,2.2l1.1,2.2l3.1,0.1l3.1,1.2l1.9-1h6.8l1.1-3.1h2.3l14.5,9.8h17l4-2.3l1.2-10.6l9.2-7.6
		l6-0.5l1.8-2.2l-0.7-6.1L259.8,264z" data-municipality-id="128" data-title="Sabugal"><title>Sabugal</title></path>
	<path id="aguiardabeira" d="M68.4,141.5l-5.4,5.2l-0.4,4.3l8.3,7.2l6.2,0.7v0.3l3-1.9h6.6l5.8-4.1l-2.9-7.1H92l2.1-4.2h5.1l4.6-3.7
		l0.4-3.5l-6.1-4.1v-0.1l-4.6-4.8v-2.1l2.6-1l0.7-2.9l-2.7-4.1l-1-0.3l-6.7-8.1l-3.7-1.3l-1.1-3.7l-11.2-0.8l-6.2,7.6v5.9l-8.6,16.8
		l8.8,3.3L68.4,141.5z" data-municipality-id="118" data-title="Aguiar da Beira"><title>Aguiar da Beira</title></path>
	<path id="seia" d="M58.7,277l3.9-7.7l-0.3-4.5l2.4-7.8L61,245.8l-6.9,0.8l-4-11.4h-3.5l-2.3-3.4V230l-7.1-5h-7l-4.1-1.8l3.7-3.2
		l1.1-5.4l1.1-4.7l-8.9,2.7l-5.4,6.3L7.8,218l-1,4l-0.2,4.7l7,7.6l-2.8,5.9L7.3,240l-4.8,3.7v4l4,3.8l7.1,0.4l0.1,12.6l-2,4.5
		l3.9,0.3l1.4,2.1l6.1,2.2l-1.8,5.8l-3.2-0.8l-2.6,2.7l-3.4,1.4l-4,12.4L6,296l0.9,3l5-0.3l5.1,8l2.2-1.1h8.6l2.1-2.6l10-8.8
		l7.4-0.6l9.1-8.9l1.4-7.2l1,0.1L58.7,277z" data-municipality-id="129" data-title="Seia"><title>Seia</title></path>
	<path id="celoricodabeira" d="M91.6,203.7l2.9,8.2l1.1,3h1.5l5.4-10.7l3.3,1.2l0.7,2.1l9,1.1l5.1-6l1.8-3.2l3.6-3.8l2.3-8.2l0,0
		l6.4-11.6h5.6l2.3-10.2l1.5-6.8l-1.7-1.2l-4.7,1.6l-0.1-3.9l-2.5-0.6l-6.3,1.8l-8.6-1l-1.7,1.8l-7.9-1.3l-2.6,2.2l-0.9,2.2
		l-1.4,0.1l-2.5,6.6l-1,4.5l-6.5,7.6l-2.3,0.6l-1.5,1.3L95,187l-4.5,3.6l-3.1-2.2L86,190v6.3l2.1,1.8l-4.1,4.5l2.2,1.1H91.6z" data-municipality-id="120" data-title="Celorico da Beira"><title>Celorico da Beira</title></path>
	<path id="gouveia" d="M32,214.9l-1.2,5.7l-2.6,2.3l2.2,1h7.2l7.8,5.5v2.1l1.8,2.5h3.7l3.9,11.4l7-0.8l3.6,10.9l4.1-8l-1-2.9
		l8.6-2.4v-3.7l4.7,0.7l1.1-2.7l4.5-1.2l2.9,2.5l4.7,0.3l4-0.9l2.2-2.3l0.1-1l-2.6-0.7l-3-13.7l-2.1-0.9l1-3.1l-1.2-3.3l-2.6-7.4H86
		l-2.8-1.3l-0.1,0.2l-7.4-5.5l1.8-2.6l1.8-5.1l-1-3l-7.4,3.5l-0.6,3l-3.4,2.4l-1.7,0.6l0.8,1.1l-9.4,2.1l-3-0.7l-7.4,2.5l-1.7,2
		l-9.3,2.5l-1.9,2.8L32,214.9z" data-municipality-id="123" data-title="Gouveia"><title>Gouveia</title></path>
</g>
</svg>