<?xml version="1.0" encoding="utf-8"?>
<svg xmlns:svg="http://www.w3.org/2000/svg"
	 xmlns="http://www.w3.org/2000/svg" 
	 viewBox="0 0 402.8 560.9" 
	 class="map-svg map-districts">
<g id="districts">
	<g id="madeira_bg" class="map-bg">
		<path id="path34" d="M10.8,505.6l3.9-3.8h1.7l1.3,1.4l0.8,1.5l1.3,0.4l1.1,0.6H22l1.7,0.8l0.7-0.6h1.3l2-1.4l2.8,0.4l2.6-0.6
			l1.6,1.9l1,0.2l-0.2,0.7l3.8,2.5l0.8-0.1l0.6,0.4l3.6,1.1l1.7-0.2l1,0.1l-0.1,0.4l-2.7,0.3l-1.7,0.7l-1.7,2.9l-0.6,0.1l-1.5,2.5
			l-0.8,0.3l-0.3,0.6h-1.3l-0.3-0.6l-3.7,0.3l-2,1.1l-2.9-1.6L26,518l-4.8-2.4h-1.1l-6.2-3.9l-2.3-3l-0.2-1.2l-1-1.3L10.8,505.6z"></path>
		<path d="M60.4,530.3L58.8 527.9 58.8 526.7 59.1 526.5 59.7 529 60.5 530.3 z"></path>
		<path d="M59.1,525.1L57.7 522.4 57.3 520.9 56.6 520.3 55.6 517.7 55.9 517.3 58.3 521.6 59 522.6 59.4 524.2 59.3 525.1 59.2 525.2 z"></path>
		<path d="M58.5,491.7L59 491.3 59.1 494 56.1 495.5 54.7 497 53.2 497.9 52.1 497 53.2 494.6 53.4 493 57 490.9 z"></path>
	</g>
	<g id="madeira"  data-id="14" data-title="Madeira">
	<path class="hide-map-shape hotspot" d="M11.2,496.9L59.1 487.6 62.2 495.5 63.8 533.8 36 525.2 15.4 518.2 6.7 505.3 "></path>
		<path d="M59.4,529.3L57.8 526.9 57.8 525.7 58.1 525.5 58.7 528 59.5 529.3 z"></path>
		<path d="M58.1,524.1L56.7 521.4 56.3 519.9 55.6 519.3 54.6 516.7 54.9 516.3 57.3 520.6 58 521.6 58.4 523.2 58.3 524.1 58.2 524.2 z"></path>
		<path d="M57.5,490.7L58 490.3 58.1 493 55.1 494.5 53.7 496 52.2 496.9 51.1 496 52.2 493.6 52.4 492 56 489.9 z"></path>
		<path id="path94" d="M9.2,504.4l3.9-3.8l1.7-0.1l1.4,1.4l0.8,1.5l1.3,0.4l1,0.7l1.1-0.1l1.8,0.8l0.6-0.6h1.4l1.9-1.4l2.8,0.5
			l2.6-0.6l1.7,1.8l0.9,0.2l-0.1,0.7l3.8,2.6l0.7-0.2l0.7,0.5l3.5,1.1l1.7-0.3l1.1,0.2l-0.2,0.4l-2.6,0.2l-1.8,0.7l-1.6,2.9
			l-0.7,0.2l-1.5,2.5l-0.7,0.3l-0.3,0.6h-1.4l-0.3-0.6l-3.6,0.2l-2,1.1l-3-1.6l-1.3,0.1l-4.8-2.3h-1.1l-6.3-4l-2.3-3l-0.2-1.2
			l-0.9-1.3L9.2,504.4z">
		</path>
		<title>Madeira</title>
	</g>
	<g id="acores_bg" class="map-bg">
		<path id="path6" d="M14.6,428l0.7,0.1l0.8,1.7l0.9-0.4l1.1,2.2l-0.8,1.1l-0.5,2.1l-0.9,0.6l-1.8,0.1l-1-0.3l-0.4-1.3l0.3-0.4
			l-0.1-0.6l-0.1-0.8l0.7-2.7l0.6-0.4l0.2-0.9L14.6,428z"/>
		<path id="path8" d="M18.6,423.2l0.3-3h0.5l0.3,0.5l0.1-0.5l0.6,1l-0.1,1.2l-0.9,0.7l-0.6,0.3L18.6,423.2z"/>
		<path id="path10" d="M52.9,422.2l0.7-0.4V421l2.3-0.1l0.7,1.6l1,0.4l0.1,1.1l-0.8,0.7l-1.4-0.3l-1.3-0.2l-1-1.5L52.9,422.2z"/>
		<path id="path12" d="M57.1,422l0.1,0.5l0.3,0.1l0.3-0.5L57.1,422z"/>
		<path id="path14" d="M58,424.1l-0.1,0.3l0.5,0.3l0.1-0.3l-0.2-0.3H58z"/>
		<path id="path16" d="M29.2,441l2.1-0.2l0.9-1.3h0.7l2,1.7h0.8l0.3,0.5l-0.2,2.4l-0.5,0.2l0.1,0.7l-0.2,0.4l-0.5-0.4l-1.1,0.1
			l-2.5-0.1l-0.4-1.7l-0.6-0.3l-1.6-0.9l0.3-0.8L29.2,441z"/>
		<path id="path18" d="M39.3,445l0.6-0.9l1.1-0.3l0.7,0.4l0.4-0.3l2.3,0.2l0.8,0.4l0.7,0.1l1,1.5l0.6-0.1l0.4,0.4l0.9,0.2l0.3,0.5
			l0.9,0.2l1.1,0.9l2.2,0.3l1.3,0.4l0.8,1.1l-0.4,0.3l-1.8,0.3l-2.3-0.4l-2.5,1.1l-0.6-1l-3.7-0.4l-2-0.2l-1.5-0.9l-1.2-0.6
			l-0.7-2.5l0.1-0.7H39.3z"/>
		<path id="path20" d="M46,435.2l7.7,3.1l0.4-0.4l1.4,0.6l3,2.1l1.1-0.1l4.2,2.5l-0.1,0.3l-2.4,0.7l-2.1-1.3l-2.4-1.1h-1.1l-1.8-1
			l-4-1.7l-0.5-0.4l-0.7-0.2l-0.3-0.7l-0.9-0.6l-1.6-1.5L46,435.2z"/>
		<path id="path22" d="M71.6,432h3.3l0.7,0.1l0.7-0.2l1.1,0.8h2.1l1.5,1l0.5,1.8l-0.3,0.3l0.5,0.5l0.2,0.4l-1.1,0.9l-0.3,1.3h-0.7
			l-0.2,0.1l-0.6-0.2h-0.7l-0.5-0.3H76l-0.4,0.5l-0.8-0.4l-1.7-0.1l-0.7-0.7l-1.6-1l-0.5-1.9v-1.7L71.6,432z"/>
		<path id="path24" d="M82.2,453.2l2.3-1.2l2.7,1.6v1.4l3.2,0.8h2.1l1.5-1.1l0.9,0.9H97l2.1-1.6l6.2,0.4l0.5,2.2l-0.4,0.4v1.3
			l-1,0.9l-3.2-0.2l-0.8,0.6l-5.2,0.9l-2.2-0.1l-2.3-1.5l-3.6,0.7l-1.7-1.6l-3.6-2.9L82.2,453.2z"/>
		<path id="path26" d="M99.4,472.8l0.5-0.5l0.5,0.2l0.2-0.6l0.3-0.2l0.7,0.3l0.3-0.1c0.1-0.2,0.2-0.4,0.3-0.6h1.6l0.6,0.4l-0.2,0.8
			l0.7,0.6h0.3l0.5,1.1l0.1,0.8l-1.8,0.3l-0.9-0.9h-0.8l-1,0.4l-1-0.1l-0.2-1.1l-0.6-0.6L99.4,472.8z"/>
		<path id="path42" d="M55.6,420.8v0.4l0.4,0.1l0.2-0.5H55.6z"/>
		<path id="path44" d="M56.4,422.8v0.4l0.4,0.2l0.2-0.3l-0.2-0.3L56.4,422.8L56.4,422.8z"/>
		<path id="path72" d="M55.6,420.8v0.4l0.4,0.1l0.2-0.5H55.6z"/>
		<path id="path74" d="M56.4,422.8v0.4l0.4,0.2l0.2-0.3l-0.2-0.3L56.4,422.8L56.4,422.8z"/>
	</g>
	<g id="acores" data-id="15" data-title="Açores">
	<path id="hide-map-shape-1" class="hide-map-shape hotspot" d="M10.4,437.8L47,455l19.1-3l15.7,5.5l7.1,7.1l11.4,10.1l9,3.1l7.3-9.9l-7.3-12.9L83,446.2l1.3-7.2l1.6-4.7
			l-13.7-7.5l-10-6.6l-12.5-4.1c0,0-12,3.1-17.5,3.6S22,418.1,22,418.1l-8.1-0.5l-4.9,6.5"/>
		<path id="path28" d="M111,464.6l-0.1,0.7h0.4l0.5-0.3L111,464.6z"/>
		<path id="path30" d="M112.1,466v0.5l0.2,0.1l0.5-0.3l-0.2-0.4l-0.2-0.1L112.1,466z"/>
		<path id="path32" d="M112.8,467.8l0.1,0.3l0.3,0.3l0.3-0.2v-0.5l-0.3-0.2L112.8,467.8z"/>
		<path id="path58" d="M109.5,463.3l-0.2,0.7h0.5l0.4-0.3L109.5,463.3z"/>
		<path id="path60" d="M110.5,464.8l0.1,0.5l0.2,0.1l0.4-0.3l-0.1-0.3l-0.3-0.2L110.5,464.8z"/>
		<path id="path62" d="M111.3,466.5l0.1,0.3l0.3,0.3l0.3-0.2l-0.1-0.4l-0.2-0.2L111.3,466.5z"/>
		<path id="path66" d="M13,426.8h0.8l0.8,1.8l0.9-0.5l1,2.2l-0.7,1.1l-0.5,2.1l-0.9,0.6l-1.9,0.2l-0.9-0.4l-0.4-1.3l0.3-0.3
			l-0.2-0.7v-0.8l0.7-2.7l0.6-0.4l0.1-0.9L13,426.8L13,426.8z"/>
		<path id="path68" d="M18.3,423l0.3-3h0.5l0.3,0.5l0.1-0.5l0.6,1l-0.1,1.2l-1,0.7l-0.6,0.3L18.3,423z"/>
		<path id="path70" d="M51.4,421l0.6-0.3v-1h2.4l0.6,1.5l1,0.4l0.1,1.1l-0.7,0.8L54,423l-1.4-0.2l-1-1.5L51.4,421z"/>
		<path id="path76" d="M27.7,439.8l2-0.2l0.9-1.4l0.7,0.1l2,1.7l0.8-0.1l0.4,0.6l-0.2,2.4l-0.5,0.1l0.1,0.7l-0.3,0.4l-0.5-0.3H32
			l-2.4-0.1l-0.4-1.7l-0.6-0.3l-1.6-0.9l0.3-0.8L27.7,439.8z"/>
		<path id="path78" d="M37.8,443.6l0.6-0.9l1.1-0.3l0.7,0.5l0.3-0.4l2.3,0.2l0.9,0.4l0.6,0.1l1.1,1.6l0.5-0.1l0.4,0.3l0.9,0.2
			l0.4,0.5l0.9,0.2l1,0.9l2.2,0.3l1.4,0.4l0.8,1.1l-0.5,0.3l-1.8,0.4l-2.3-0.5l-2.4,1.1l-0.6-0.9l-3.8-0.5l-2-0.2l-1.4-0.9l-1.2-0.6
			l-0.7-2.5l0.1-0.7H37.8z"/>
		<path id="path80" d="M44.5,434l7.7,3.1l0.4-0.4l1.3,0.6l3.1,2.1l1-0.1l4.2,2.5l-0.1,0.4l-2.4,0.6l-2-1.3l-2.4-1.1h-1.1l-1.8-1
			l-4-1.7l-0.6-0.4l-0.7-0.2l-0.2-0.6l-1-0.6l-1.5-1.5L44.5,434z"/>
		<path id="path82" d="M70,430.8l3.4-0.1l0.7,0.1l0.7-0.2l1.1,0.8h2l1.6,1.1l0.5,1.8l-0.4,0.2l0.6,0.6l0.1,0.3l-1.1,0.9l-0.3,1.4
			h-0.6l-0.3,0.1l-0.5-0.3l-0.7,0.1l-0.5-0.3l-1.8-0.1l-0.5,0.5l-0.7-0.4l-1.8-0.1l-0.7-0.7l-1.5-1l-0.6-1.9l0.1-1.7L70,430.8z"/>
		<path id="path84" d="M80.7,452l2.2-1.2l2.7,1.7v1.3l3.3,0.9h2l1.5-1.2l1,0.9h2l2.1-1.5l6.3,0.3l0.4,2.2l-0.3,0.4v1.4l-1.1,0.9
			l-3.1-0.2l-0.8,0.6l-5.3,0.8h-2.1l-2.3-1.6l-3.7,0.7l-1.6-1.6l-3.6-2.9L80.7,452z"/>
		<path id="path86" d="M97.8,471.5l0.5-0.5l0.5,0.2l0.3-0.6l0.3-0.2l0.7,0.3l0.3-0.1c0.1-0.2,0.2-0.4,0.3-0.6h1.6l0.6,0.4l-0.2,0.8
			l0.7,0.6h0.3l0.5,1.1l0.1,0.8l-1.9,0.3l-0.9-0.9h-0.8l-1,0.4l-1-0.1l-0.2-1.1l-0.6-0.6L97.8,471.5z"/>
		<path id="path88" d="M109.5,463.3l-0.2,0.7h0.5l0.4-0.3L109.5,463.3z"/>
		<path id="path90" d="M110.5,464.8l0.1,0.5l0.2,0.1l0.4-0.3l-0.1-0.3l-0.3-0.2L110.5,464.8z"/>
		<path id="path92" d="M111.3,466.5l0.1,0.3l0.3,0.3l0.3-0.2l-0.1-0.4l-0.2-0.2L111.3,466.5z"/>
		<title>Açores</title>
	</g>
	<path id="continente_bg" class="map-bg" d="M398.6,71.1l-1.1-1.6l-3.5-3.6l-3.7-2.4l-4-1.5l-6.6-1.4h-1.1l-0.6,0.5l-0.5,0.7l-1.2,0.7l-1.2,0.7
		l-0.8,0.2l-2.3-0.9l-1.2-1.7l-0.4-2.1l-0.2-2.1l-0.4-1l-0.5-0.9l-0.3-1l0.5-1l0.6-0.9l0.3-1.1l2-8.9l1-2.1l-2.1-0.7l-1.5-0.2
		l-0.6-0.8l0.6-4.7l-0.3-1.8l-1.1-1.3l-2-0.9l-1.1,2.4l-2.8,0.8l-5.8,0.3l-2.5-0.7l-2.9-4.7l-2.5-0.4l-0.6,3.3l-1.9,1.2l-5.1,0.4
		l-2.3-0.5l-2-1.6l-1.1-0.5l-0.7-0.4l-2,1.4l-2.9,1.3l-2.6-1.2l-2.4-2.2l-2.7-1.6l-1.1,0.2l-1.5,0.8l-1.2,0.9l-0.6,0.7l-0.2,1.5
		l0.5,3.6l-0.2,1.7l-0.9,1.3l-0.8,1.2l-2.7,1.6l-5.8,2l-1.5,0.3l-2.9-0.1l-1.3,0.2l-1.1,0.8l-1.9,2.2l-1.1,1l-0.4-1.8l-0.8-1.9
		l-1-1.4l-1.1-0.4l-0.8-0.1l-1.3-0.9h-0.6l-0.6,0.5l-0.2,0.7l-0.1,0.7l-0.4,0.8l-1.2,0.9l-1.7,0.6l-1.7,0.3l-1.5-0.2l-1.3-0.7
		l-0.1-1l1.3-3.5l-4.4-0.2l-1.4-0.7l-2.3-1.6l-1.3-0.3l-2.3,1.1l-5.1,1.3l-2.2-0.2l-0.8,0.3l-0.4,0.6l-0.3,0.7l-0.6,0.7H261
		l-0.5-3.2l-0.3-2.9l-1.6,0.6l-0.4,1.2l-0.3,1.9l-0.8,1.4h-1.5l-1.4-0.2l-1.1,0.6l-1,1l-0.8,1.3l-2.7,2.8l-0.2,0.1l-3.5,1l-7-0.4
		v-0.2l0.3-2.7l-0.1-1.4l-0.7-0.9l-2.9-1.1l-0.9-2l0.1-2l0.8-2l3.1-4.7l2.4-2.3l2.4-1.6l1.3-1.1l0.9-1.4l0.2-1.9l-0.7-1.6l-1.2-1.2
		l-1.6-0.7l-1.7,0.2l-1.5,0.6l-1.2,0.4l-1-0.8l-0.3-1.8l0.2-4.8l-0.7-1.6l-0.7-1.1l-2.5,1.8l-1.5,0.6l-1.4,0.1l-0.6,0.1l-0.8,0.5
		l-2.1,1.9l-1.3,0.7l-12.7,2.1l-1.5,0.6l-2.8,1.9l-1.5,0.6l-3,0.1l-1.5,0.3l-1.4,1l-0.7,1.2l-0.8,2.3l-0.7,1.1l-1.6,1.1l-2.1,0.7
		l-1.9,0.9l-0.9,0.7l-0.9,4.1l-2.8,3.1l-5.8,4.9l-0.6,1l-0.3,1.2l-0.3,3.9l-0.3,1.3l-0.5,1.1l-0.5,0.4l-0.3,1.3l0.9,2.8l1.9,4.2
		l2,0.6l1.1,0.2l1.9-0.3l9-2.7l-1.1,1.1l-1.3,0.9l-1.4,0.7l-5.1,0.9l-1.8,0.7l-1,0.9l-0.3,2.6l0.8,2.2l0.8,1.3l0.3,0.7l0.6,1.8
		l0.3,2.4l1.6,3.7l0.4,1.8h-0.6l-0.3-0.4l-0.2-0.1l-0.2-0.1l-0.4-0.3v0.9l1,1.8l0.5,2.7v1.5l0.1,6.7l0.1,1.3l0.5,1.6l1.2,2l0.3,1.1
		l-0.4,1.4h1.3l0.4,1.1l-0.1,3.3l0.4,1.4l0.5,1.2l0.1,1.2l-0.3,1.4l1.5,3.1l1.1,3.7l1.6,3l3,0.7v0.7l-1.4,1.5l-0.1,3.8l1,7.2v1.5
		v2.5l-7.9,36.7l1-1.2l1.7-1.5l1.3-2.3l0.4-2.4l0.5-2.9l0.1-2.8l1-3l0.2-2.3l0.4,1.4l0.6-0.4l0.5-1.5l0.2-1.7l0.8,2.3l-3.2,4.3
		l0.7,3l0.6,0.9l1.9,0.8h0.4l0.3-0.2l1.8-0.4l2.1-1l1.3-0.1l-1.3,1.2l-1.2,0.9l-1.5,0.6l-1.9,0.2l-1.5,0.5l-0.2,1.2l0.7,1.2l1.3,0.8
		l-1,1.8l-0.7,0.8l-0.8,0.3l-0.4-0.3l-0.3-0.5l-0.5-0.3l-0.8,0.4l-0.2,0.6l0.2,0.7l0.3,0.6l0.2,0.3v0.7h-0.5l-1.1-0.7l-1.2,0.9
		l-1.7,2.8l0.1-0.7l-0.1-2.3l-0.4,0.3l-0.2,0.3l-2.1,4.7l-0.8,4.2l-0.3,3.4l-0.6,5.6l-5.4,21.3l-2.5,5l-1.1,3l0.2,2.3l0.8,1.5
		l1.4,0.9l3.8,0.5l1.4,0.6l1.2,0.9l1.4,1.2v0.8l-3.3-0.1l-1.4-0.6l-0.9-1.5l-1.3,1.6l-2.8,8.2l-7.4,21.8l-8.6,19.7l-0.6,2.1
		l-0.2,2.4l0.1,1.6l-0.1,1l-0.5,1.4l-1.7,3.5l-0.7,1.1l-1.1,1.2l-1.2,1l-1.2,0.4l-1.1,0.8l-2.5,3.8l-1.2,1.2v0.7l1.2,0.7l1.4,1.3
		l0.6,1.3l-1,1l-0.8-0.2l-0.5-1l-0.7-1.1l-1.6-0.6l-1.4,0.7l-4,4.4l-5.7,0.8l-1,0.3l0.7,1l2.9,3.1l1,2.1l0.2,2.5l0,0l0.2,1.8l-0.4,4
		l-1,3.6l-1.3,3.2l-1.8,3.1l-0.7,1.6l-1.4,8.8L135,344l0.9,3.9l-0.7,4.5l-3.4,10.3l-0.3,2.1l-1.1,1.2l-0.4,1v2.3l1.1,4.5l-0.6,1.8
		v2.1l1.6,0.5l3.5-0.5l2,0.4l3.6,1.5l2,0.3l2.3-1.2l1-0.2l5.9-0.1l6.5-1.8l1.2-0.8l1-1.3l0.3-2.2l0.3-3.9l1.2-1.4l2.5-1.4l1.1-1.9
		l2-4.2l2-8l2.2-3.2l0.3,0.6l-2.5,6.6l-0.4,3l-0.3,2.6l2.1,1.8l1.9-0.2l0.5,1.8v0.5l1.2,1.5l-0.9,2l0.8,1.4v0.7l-0.3,0.1l-0.5,0.4
		l-0.3,0.2l-0.5-0.7l-0.9,0.5l-3.9,1.5l-1.8,1.7l-1,1.3l-0.4,1.4l0.6,1.5v0.6l-1.2,0.2l-2.6,0.7l-1.2,0.6l0.5,2.2h-0.5l-0.8-1.3
		l-4.3-3l-1.9,0.9l-7.1,1.2v0.7l2.6,3.4l2.5,4.2l1.8,4.8l0.5,5.4l-0.3,1.3l-1.7,4.2l-0.6,0.9l-0.3,0.3l-0.2,0.7v0.7l0.3,0.6h0.3
		l0.9-0.6l0.4-0.2l0.9-0.3l1.9-1.2l9.9-2.2l9.3-4.7l2.9-0.6l3.2,1.1l2.9,1.6l1.6,0.4l2,0.2l0.7-0.8l-0.1-1.7l-0.8-1.5l-1.8-0.3v-0.6
		l1.6-0.6l1.6-3.3l1.3,0.2l-0.5,1.2l0.2,1.5l0.8,1.2l1.2,0.4v0.8l-0.7,0.5l-0.5,1l-0.1,1.3l0.1,1.5l0.5,1.4l0.8,0.9l6,2.8l2.1,0.4
		l2.4,0.2l-4.1,1.3l-8.2-2.2l-3.4,0.1l-0.1-1.3l-1.8-1l-3.7-1.3l-3-2.6l-1.9-0.8l-1.3,1.3l2.3,0.9l3,2.4l2.6,3.1l1.1,2.5L187,424
		l0.4,9.5l-0.5,1.6l-0.6,1.5l-1.1,4.4l-0.5,3l-3.1,10l-0.7,0.6l-0.6,0.3l-0.6,0.4l-0.3,0.9l3.3,2.1l1.7,1.5l1.2,1.9l0.4,2.2l0.2,2.7
		l-0.1,1.7l-0.4,9.8l0.7,1.8l2,0.3l1.8-0.8l0.8-0.7v0.4l-0.4,2.4l-2.1-0.5l-1.3,1.5l-0.8,2.6l-0.3,2.8l-1.2,4.6l0.2,1.3l0.8,1.9
		l0.2,1l0.3,9.6l-0.2,1.5l-0.4,3.4l-1.4,3.4l-1.6,2.1l-1.2,2.3l-0.8,2.8l-0.5,5.9l-0.7,2.4l-1,2.1l-1.5,1.4l0.7,3l-1.1,2.5l-1.6,2
		l-2.8,5.8l-0.4,0.6l-0.4,1.4l-0.6,2.9l1.2-0.5l0.9,0.5l0.9,0.9l1.3,0.5l0.8-0.3l1.6-1.4l0.9-0.3l0.7-0.5l2.2-2.4l0.8-0.7l1.2-0.2
		l2.6,0.3l1.2-0.1l1.1-0.5l2.1-1.3l1-0.3h5l2.6-2.8l1.1-0.7l1.2-0.4l3.8-0.3l3.5,0.7l5.8,2.5l10.1,0.3l1.3,0.3l2.8,1l12-0.1l3.3,0.9
		l5.8,3.3l3,2.5l1.8,2.7l-0.1-0.9l-0.3-0.7l-0.8-1.2l0.8,0.4l1.1,0.6l0.8,0.1l0.7-1.1l1.4,0.5l5.1,0.1l1.7,0.4l1.3,0.5h1.2l2.7-2.4
		l12.4-8.5l0.6-0.8l4.8-3.1l1.4-0.5l3.3-2.3l1.8-0.7l1.7-0.2h1.9l1.7,0.5l1.4,1.1l0.6-0.8v-0.6l-0.5-0.2l-0.2-0.4l-0.2-0.4l-0.3-0.5
		l-1.2-4.5l-0.4-2.3l0.5-1.6l-0.8-3.4l-0.6-8.1l-1.4-3.2l0.2-1.1l-0.3-2.3l-0.5-2.5l-0.5-1.9l-0.5-0.7l-1.4-1.1l-0.6-0.7l-0.7-1
		l-0.1-0.1l-0.1-0.6l-0.1-0.7l-0.5-1.4h-0.3l-0.1-0.2v-1l0.2-0.4l0.9-1l0.1-0.6l0.2-0.4V493l-0.2-0.6l0.8-0.6l2.2-2.3l0.5-0.8
		l0.4-1.6l0.8-4.9l1.1-3.1l1.4-2.1l7.5-6.3l2.3-4.1l0.9-3.5l1.8-4.8l0.4-1.8v-1.1l-0.3-1v-0.8l0.6-0.6l2.6-0.5l0.8-0.6h1.1l1,0.4
		l1.1,0.1l1-0.5l1.1-0.3l0.6-0.4l0.8-1.2l0.8-2.1l0.7-0.8l1.5,0.1l4.6,1.9l2.1-0.2l0.6-2.5l0.8-1.3l0.7-3.2l1.5-3.1l1.1-3.5l0.7-1.5
		l0.8-2.9l-1.3-1l-2.3,0.2l-2.2,0.6h-0.2l-0.4-0.2l-1,1.4l-2,0.9l-2.1,0.5l-1.2-0.1l-1.1-1l-0.9-0.8l-3.3-8.4l-0.4-0.4l-1.4-1.1
		l-0.5-0.6l-0.4-0.6l-0.5-1.4l-0.4-0.6l-8.6-11.1l-2.4-1.7l-1.1-0.6l1.2-1.2l0.8-1.2l0.1-1.2l-1-1.4l0.8-1.2l1.5-5.2l3.4-5l0.5-1.5
		l-0.3-0.8l-0.4-0.3l-0.6-0.3l-0.4-0.7l-0.1-0.8V383l0.1-2.4l0.6-3.5l0.2-0.8l0.7-1.4l0.2-0.4l3.6-3l1.2-0.9l1.3-0.5l1.3-1.2
		l1.1-1.3l0.5-1l0.8-0.6l3.7-0.9l1.4-0.6l1-1l1-0.9l0.6-0.4l-0.1-1.5l0.4-1.6L329,357l1.8-1.4l1.8-2.6l2.8-5.3l0.8-1.1l0.4-1l-0.1-1
		l-1-0.7l0.6-1.8l-0.5-2.1l-1.1-1.8l-1.4-1.3l-1.9-1.3l-2.1-0.6l-2.1,0.2l-2,1.2l-1,0.4l-1.2-0.2l-1.2-0.6l-0.9-0.9l-0.1-0.9l0.9-2
		l0.2-1.1l-1-2l-1.9-0.9l-2.3-0.6l-2.1-1.1l-1.1-1.7l-0.6-2.1l0.1-2.2l1.1-1.9l-4.1-5l-1.5-1.2l-0.6-1.3l-0.4-2.2l-0.1-2.3l0.5-1.5
		l0.6-1.6l0.5-2.4v-2.2l-0.6-1.1l-3.5-0.9l-1.7-0.8l-1.3-1l-0.7-2.4l-0.8-0.9l-2.7-1.4l-1.4-1.3l-2.4-3.3l-1.5-1.3l-2.7-7.4
		l-0.6-1.4l-0.1-0.3l17.7,0.8l1.1-0.3l1.3-0.6l1.6-0.3l3.2,0.1l1.4-0.4l1.8,1l2.6,0.2l12-1.5l1.2-0.5l0.9-2.3v-0.8l-0.3-0.7v-1
		l0.4-1l1-1.7l0.3-1l-0.1-0.9l-0.4-1l-0.1-1.2l0.6-1.4l0.6-0.5l1.9-0.8l0.8-0.5l2.1-3.1l0.2-1l0.1-1.8l0.1-0.9l0.1-0.5l-0.3-1.1
		l-0.1-0.6l0.3-0.5l0.8-0.6l0.2-0.4l0.5-2.6l0.3-1l-0.1-1.1l0.4-1.2l1.4-2.3l-3.3-6l-1.8-2.2l-1.2-1.8l-0.8-0.8l-0.9-0.3l-2.2-0.3
		l-1-0.3l-0.9-1.5l-0.6-3.6l-0.7-1.6l0.7-1.2l0.8-2.5l0.7-1l1.5-0.6l3.5-2.4l1.1-0.1l0.5-0.1l1.6,0.1l1.6-0.1l1.5-1l0.2-0.7l0.1-0.8
		l0.1-0.9l0.3-0.9l0.5-0.5l3.5-2.7l0.7-0.7l1.5-2.6l-2.8-2.6l-1.9-3.1l-0.5-3.5l1.5-3.7l1.9-2.7l0.3-1.3l-0.5-1.9l-0.8-1.4l-1-1
		l-0.6-1.1l-0.2-1.9l0.5-1.7l1.9-3.4l0.5-1.9v-1.3l-0.1-1.9l-0.7-3.6l-1-3.5l-0.2-1.5v-2.1l0.2-1.1l0.2-0.6l0.1-0.6l-0.3-1.1
		l-0.1-0.7l0.1-2.7l1.3-0.5l0.4-1.3l-0.4-1.5l-0.9-0.6l-1.2-0.3l-0.7-0.9l-0.7-2.3l-1.8-4.4l-1.1-1.9l-2.6-2.7l-0.8-1.3l-0.2-1.3
		l0.9-1.4l0.3-2.1l1.8-0.9l5,0.5l2.2-0.2l1.2-1.2l3.2-4.8l0.7-1.9l-0.2-2.7l0.3-0.8l1-1.3l2.9-2.5l0.5-0.9l0.6-1.6l2.9-4.4l1-1.1
		l1.4-0.2l5.4-0.1l0.7-0.5l4.8-2.1l2.7-2.1l2.6-2.7l2.6-4.2l0.3-0.1l1,0.2l0.4-0.1l0.2-0.6v-0.8v-0.7l-0.2-0.1l1-0.8l1.2-0.5
		l2.5-0.2v-0.9l3.1-5l0.1-0.7l-0.2-0.7l-0.1-0.9l0.5-1.1l2.1-2.2l3.9-5.8L398.6,71.1z"/>
	<g id="continente">
		<path data-id="11" data-title="Lisboa" id="d-11" d="M150.2,309.4l-0.6,0.5l-3.5,2h-3.2l-1,0.1l0.2,1.8l-0.4,3.9l-1,3.6l-1.3,3.3l-1.8,3.1l-0.7,1.5l-1.4,8.8
			l-0.6,1.6l0.9,4l-0.7,4.5l-3.4,10.3l-0.3,2.1l-1,1.1l-0.5,1.1v2.2l1.1,4.5l-0.6,1.8v2.1l1.6,0.5l3.5-0.4l2,0.3l3.6,1.5l2,0.4
			l2.3-1.2l1-0.3l5.9-0.1l6.5-1.8l1.2-0.8l1-1.3l0.3-2.1l0.3-4l1.2-1.3l2.5-1.5l1.1-1.9l2-4.2l2-8l2.2-3.1l0.3,0.5l-2.5,6.7l-0.4,3
			l-0.3,2.6l2.1,1.7l1.9-0.1l0.5,1.8v-0.8l1.2-1.3l0.7-0.8l1.1-2.3l2.9-7.6l0.8-1.8l0.8-1.1l0.4-1.1l1.6-2.4l-0.9-0.6l-0.2-1l3-0.8
			l1.7-2l0.5-0.4l0.1-0.3l-0.2-1.8l-0.7-1.5l-0.3-0.5l-0.4-0.4l-0.5-0.4l-1.7-0.7l-0.5-0.4l-2.4-2.2l-0.4-0.6l-0.6-1.4l-0.6-0.4
			l-0.6-0.4l-0.4-0.5V324l1.2-0.8l1-0.3l2.4,0.1l1.3-0.3l1.2-1.1l-4.1-4.1l-0.7-1.5l-3.3,1l-5.7-1.6l0.2-1.6l-1-2.5l-2.3-0.5
			l-1.5-0.8l-1.2-0.2l-0.9,0.1l-0.6,0.3l-0.8,0.6l-1.8,2l-1.9,3.3l-1.6,2l-1.7,1.4l-1.3-1.3l-1.9-6.4l-0.7-1.2l-0.6-0.8l-0.6-0.4
			l-0.4,0.2L150.2,309.4z"><title>Lisboa</title></path>
		<path data-id="1" data-title="Aveiro" id="path100" d="M223.8,197.3l-0.7,0.8l0.1,0.9l-1,1.3l-1.8-0.1l-0.6,0.2l-0.7,0.7l-0.4,0.9l-1.9,2.4l-0.4,1l-0.7,0.7
			l-0.6,0.5l-4.8-0.5l-0.6-0.7l-0.1-0.7v-0.9l0.3-1.2l0.6-1.6l0.5-0.7l0.4-0.4l0.3-0.2l0.3-0.3l0.2-0.3l0.4-1.6l0.1-0.6l-0.2-0.8
			l-0.9-1.8l-0.4-2.1l-1,0.1l-1.3,0.5l-1.3,0.9l-0.7,0.3l-0.7-0.1l-0.6-0.8l-0.2-1.9l-0.1-1.1l0.5-2.6l-3.2-2.2l-1.7,2.8l-0.3,1.7
			l-0.7,1.1l-2.7-0.3l-9-9.2l-0.5-0.6l0.3-3.4l0.8-4.3l2.1-4.6l0.2-0.3l0.5-0.4v2.3v0.7l1.6-2.7l1.2-1l1.1,0.7h0.5v-0.6l-0.2-0.3
			l-0.3-0.6l-0.2-0.7l0.2-0.6l0.8-0.5l0.5,0.3l0.3,0.6l0.4,0.3l0.8-0.3l0.7-0.8l1-1.8l-1.3-0.8l-0.7-1.3l0.2-1.2l1.5-0.5l1.9-0.2
			l1.5-0.5l1.3-0.9l1.2-1.3l-1.4,0.1l-2,1.1l-1.7,0.3l-0.4,0.2h-0.4l-1.9-0.8l-0.6-0.9l-0.7-2.9l3.2-4.4l-0.8-2.3l-0.2,1.8l-0.5,1.4
			l-0.6,0.5l-0.4-1.5L197,151l-1,3.1l-0.1,2.8l-0.5,2.9l-0.4,2.3l-1.3,2.4l-1.6,1.4l-1,1.3l7.8-36.7V128l0.7-0.2l3.6-0.5l1.4,0.9
			l2.6-1l1.2-0.9h1l0.8,0.4l0.7,0.7l1.1,0.6l0.9-0.1l0.6-0.4l0.5-1.5l0.4-0.6l1.4-1.6l1.7,1.7l0.4,0.7l0.6,1.2l1.4,1.1h0.7l0.3-0.5
			l-0.1-0.7l-0.4-0.6l-0.1-0.6l0.1-0.6l2.1-1l1.7,0.5l3.9-2.7l0.3-0.3l0.4-1.2l4.9,3.2l0.3,0.6l0.3,1.1l-0.1,0.7l-0.1,2.4l6.2,2.9h1
			l1.1-0.2l0.5-1.2l0.2-0.4l0.3-0.3l1.1-1l0.5,0.1l0.3,0.4l0.1,0.4v0.3l-0.1,0.2l-0.1,0.5l-2.6,3.8l-0.4,1.1l-0.2,1.3v0.7l0.4,1.5
			l0.4,2.7l0.7,2v1.3l-0.4,0.7l-0.7,0.2l-0.8-0.1l-0.7-0.3l-0.6-0.4l-0.7-0.3h-1l-1.4,0.7l-1,0.2l-1-0.2l-0.6-0.2l-2.5,0.2l0.9,3.3
			l-0.1,0.6l-0.8,1.3l-1.6,3.5l-1.9,2.2l-1.9,1.5l-0.8,1.4v0.5v0.5l0.1,0.6l0.4,0.7l1.1,1.2l0.5,0.9l0.2,0.8l0.1,3l0.6,1.4l0.4,0.3
			l1.5,0.6l1.3,1.1l-3.3,1.4l-0.6,0.5l-0.4,0.8v0.8l0.9,2.3l0.6,2l0.4,0.6l0.6,0.6l0.5,0.6l1,1.7l-4.5,1.8l-1.9,1.4l-0.2,0.6
			l0.2,0.7l0.8,1.5v1.4l-0.3,0.9l-2.4,3.6L223.8,197.3"><title>Aveiro</title></path>
		<path data-id="10" data-title="Leiria" id="path102" d="M242.2,245.4l-1.6,3.2l-0.8,0.7l-0.8,0.6l-0.7,0.1l-0.8,0.4l-0.7,0.8l-0.7,0.9l-0.4,0.4l-0.8-0.1l-3.7,1.1
			l-0.4,0.5l-0.4,0.6v0.6v0.6l-0.6,0.4l-0.6,1v0.5l0.4,1.2l-3.4-0.4l-0.6-0.2l-0.1,0.5l0.2,0.7l0.3,2.1l-0.4,0.3l-1.6-0.3l-1.8,0.8
			l-1.1,0.3l-3.4,1.2l-1.5,0.5l-0.1-0.5l-0.1-0.6l-0.2-0.8l-0.5-2.6l-0.2-1.1l-1.1-4.5l-1.3,0.4l-1.1,0.9h-0.8l-1.1,0.4l-4,2.9
			l-1.5,0.8l-1,0.2l-1.4-0.4l-3.8,1.6l-0.4,0.7l-0.5,0.9v0.9l0.2,1.8v1.3l0.3,0.8l0.5,0.6l0.7,0.5l0.6,0.8l0.4,1.7l-0.3,1l-0.7,0.6
			l-0.6,0.5l-0.8,0.5l-1.8,1.4l0.8,3.3l0.1,2l1,2.8l-0.6,0.8l-2.1,2.7l-0.6,0.2h-0.8l-0.7-0.3h-0.6l-0.4,0.5v0.7l0.1,0.9l0.5,1.1
			l0.2,0.3v0.1l-0.1,0.4l-0.2,0.8l-1.2,0.8l-4-0.4l-5.3,0.5l-2.4,0.9l-1.1,1.1l-2.6,5.5l-0.8,1l-0.7,0.5l-1.6,0.4l-1.8,3l-0.3,1.3
			l0.5,1.8l0.2,3.5l-2.3-0.6l-1.5-0.7l-1.2-0.2l-1,0.1l-0.5,0.3l-0.8,0.6l-1.8,2l-1.9,3.3l-1.6,2l-1.7,1.4l-1.4-1.3l-1.8-6.4
			l-0.7-1.2l-0.6-0.8l-0.6-0.3l-0.4,0.1l-1.1-0.2l-0.6,0.5l-3.5,2h-3.2l-1,0.1l-0.2-2.5l-1-2.1l-2.9-3.1l-0.7-1.1l1-0.3l5.7-0.7
			l4-4.5l1.4-0.6l1.6,0.5l0.7,1.1l0.5,1l0.8,0.3l1-1l-0.6-1.4l-1.4-1.3l-1.2-0.7v-0.7l1.2-1.2l2.5-3.7l1.1-0.9l1.2-0.3l1.2-1
			l1.1-1.2l0.7-1.1l1.7-3.6l0.5-1.4l0.1-0.9l-0.1-1.7l0.3-2.4l0.5-2l8.6-19.8l7.4-21.7l0.5,0.2l2.1,1l0.8,0.5l1.1,0.5l2.7,0.6
			l0.8-0.1l0.9-0.7l2.1-0.9l4.1,0.4l1.7,0.1l1.7,0.5l0.9,0.6l1.5,1.2l0.7,1.1l0.2,0.2l0.6,0.2h0.9l0.4-0.2l0.2-0.3l1.3-2.1l0.6-0.4
			l0.6-0.3l0.6-0.1l0.5,0.1l0.5,0.2l0.6,0.6l0.5,2.4l0.1,1v1.7l0.2,0.8l0.3,0.5l0.4,0.4l0.5-0.5l1.6-1.8l2.1-1.3l2.7-2.4l1.6,0.2
			l0.2-0.6l0.7,0.1l0.6,0.5l1.1,2.3l0.8,2.1l0.4,1.4l-0.2,0.9l-0.4,0.7l-0.7,0.4l-0.3,0.3l0.5,0.2h0.7l3.3-1.3l2.9-3.2l0.8-0.1
			l1.4,0.5h0.6l0.5-0.5l0.2-0.9l-0.3-0.6l-1-1l-0.3-0.3l-0.1-0.8l-0.1-0.7l1.3-1.9l3.5-3.2l2.4,1l2.5-3.4l1.1,0.7l0.5,0.4l0.5,0.8
			l0.3,0.7l-0.6,3l0.3,1.8l3.4,5.5l-1,0.8l-0.3,0.4L242,243l0.2,0.5l0.2,0.5v0.1L242.2,245.4"><title>Leiria</title></path>
		<path data-id="18" data-title="Viana do Castelo" id="d-18"  d="M235.8,13.2l1,0.8l1.2-0.3l1.5-0.7l1.7-0.2l1.6,0.7l1.2,1.2l0.7,1.7l-0.2,1.9
			l-0.9,1.4l-1.3,1.1l-2.3,1.5l-2.5,2.3l-3.1,4.7l-0.8,2l-0.1,2l0.9,2l3,1.1l0.6,0.9l0.1,1.5l-0.3,2.6l0,0l-0.3,0.2h-1l-7.8,4.2
			l-2,0.7l-7.2,0.4l-1.2,0.2l-1.1,0.5l-0.6,0.4l-1.5,1.2l-1.4,0.6h-0.6l-0.7-0.2l-0.7,0.2l-0.4,0.2l-0.7,0.8l-0.2,0.8l-0.2,0.8
			l-0.1,1.7l-0.2,0.8l-0.2,0.7l-0.8,0.8l-0.4,0.7l-0.1,0.6l0.4,1.2l-1.5,2.6l-0.5-0.1l-0.8-0.2l-0.9-0.5l-1.6-0.3l-2.5-0.8l-0.6-0.5
			l-0.4,0.3l-0.3,0.5l-0.6,0.5l-0.7,0.2l-4.3,0.1l-5.9,2.2l-0.8,0.1l-1.6-0.2l-0.7-0.1l-0.7-1.3l-0.9-2.3l0.3-2.6l1-0.9l1.8-0.7
			l5.1-0.8l1.4-0.7l1.3-1l1.1-1.1l-9,2.8l-1.9,0.2l-1.1-0.1l-2-0.6l-1.9-4.3l-0.9-2.8l0.3-1.2l0.6-0.4l0.4-1.1l0.3-1.4l0.3-3.9
			l0.3-1.1l0.6-1.1l5.8-4.8l2.8-3.2l1-4l0.8-0.7l1.9-1l2.1-0.6l1.7-1.1l0.6-1.1l0.8-2.4l0.8-1.1l1.3-1.1l1.5-0.2l3-0.1l1.5-0.6
			l2.8-2l1.5-0.6l12.7-2l1.4-0.8l2.1-1.9l0.7-0.4l0.6-0.2l1.4-0.1l1.5-0.6l2.5-1.7l0.7,1l0.7,1.7l-0.2,4.7L235.8,13.2"><title>Viana do Castelo</title></path>
		<path data-id="2" data-title="Beja" id="path106" d="M324.8,427.9l1.1,1h1.2l2.1-0.4l2-0.9l1-1.4l0.4,0.1l0.3,0.1l2.1-0.7l2.3-0.2l1.3,1l-0.8,2.9l-0.6,1.6
			l-1.1,3.4l-1.6,3.2l-0.7,3.1L333,442l-0.6,2.5l-2.1,0.3l-4.6-1.9l-1.5-0.2l-0.7,0.8l-0.8,2.2l-0.8,1.1l-0.6,0.4l-1.1,0.3l-1,0.5
			l-1-0.1l-1.1-0.3l-1.1-0.1l-0.8,0.6l-2.6,0.5l-0.6,0.6l0.1,0.9l0.2,1v1l-0.4,1.9l-1.8,4.8l-0.9,3.5l-2.2,4l-7.6,6.3l-1.4,2.1
			l-1.1,3.1l-0.7,5l-0.5,1.5l-0.5,0.9l-2.2,2.3l-0.8,0.5l0.2,0.6v0.5l-0.2,0.5l-0.1,0.5l-0.9,1l-0.2,0.4v1.1l0.1,0.1h0.4l0.4,1.4
			l0.1,0.7l0.1,0.6l0.1,0.1l-2,0.4h-2.4l-1.7,1l-1.6,1.5l-0.9,0.6l-0.7,0.2l-0.5-0.3l-1.2-0.2l-0.4-0.2l-4.3-0.1l-6.5,2.7l-1.4,1
			l-0.6,0.4l-0.4,0.3h-0.5l-1.5,0.8l-0.7,0.2l-0.5,0.3l-0.1,0.7l-1.2,0.1l-1.4,0.9l-0.2,0.6l-0.5,0.7l-1,0.7l-2.3,0.4h-1.1l-2.7,0.4
			l-1,0.7l-0.4,0.7l-0.1,0.7l0.2,0.4l0.7,0.9v0.4l-0.6,0.3l-2.9,1.5l-1.8,1.5l-1.3,0.5l-0.8,0.1l-3.1-0.4h-1.7l-2.6-0.7l-5.7-4.3
			l-1.3-0.6l-1-1.2l-0.2-0.6l-0.2-1.5l-0.6-1.2l-2-0.6l-1.5,0.2l-0.7,0.5l-0.8-0.2l-1,0.1l-1.7,0.4l-3.2,1.1l-0.3,0.3l-0.5,0.7
			l-0.2,0.8l-0.4,0.9l-1.4,0.6l-1.4,0.6l-3.6-0.5l-1.2-0.6l-3.1-1.8l-1-0.2l-3.2,0.5l-0.6,0.3l-0.4,0.6l-0.5,0.5l-0.4,0.4l-0.8-0.1
			l-0.5-0.5l-2.2-1l-3.3-0.1l-0.6-0.4l-0.8-0.7l-0.7-0.8l-1.3-1.1l-1.3-0.4l-1.5-0.9l-1.3-0.9l0.2-1.5l-0.3-9.7l-0.2-1l-0.8-1.8
			l-0.1-1.4l1.1-4.5l0.3-2.8l0.8-2.7l1.3-1.5l2.1,0.6l0.4-2.5v-0.4l-0.8,0.7l-1.8,0.8l-2-0.3l-0.7-1.8l0.4-9.8l1.7,1.7l0.4,0.6
			l0.5,0.3l0.6,0.1l0.5-0.4l0.7-0.3l0.6-0.2l1.4,0.5l0.6,0.7l0.3,0.6l2.1,2.5l0.7,1.4l0.4,0.5h0.5l0.3-0.5l0.3-0.5l0.5-0.3l0.7,0.1
			l0.6,0.4l0.6,0.5l1.5,0.6l0.9,0.1l1.3-0.5l0.5-0.7l0.2-0.8v-0.8l0.8-2.3l0.4-0.8l1.4-1.4l0.4-0.8l0.2-0.7l0.8-0.7l1.4-0.7l7.3-1.4
			l3.6,0.6h2.2l0.3,0.1l2.4,1.3l1.1-2.8l0.4-0.8l0.9-2.8l0.5-4.5v-3l-0.8-2.2l-0.5-1l-1.1-0.9l-1.1-0.1l-0.9-0.2l-1.1-0.5l-1.2-1.5
			l-1.6-1.2l-0.3-1l-0.2-0.6l-0.1-0.6l0.3-0.6l0.1-0.7l0.3-0.6l0.2-0.7l0.4-1h0.6l0.4,0.2l0.5,0.2h0.4l0.3-0.5l0.2-0.3l0.4-1
			l0.1-0.5V433v-0.5l0.2-0.4l0.6-0.3l0.5-0.4l0.5-0.2l0.9,0.4l0.6,0.4l0.6,0.3l0.6-0.4l0.5-1.8l0.1-0.8l0.3-0.7l0.6-0.4l2.9,0.1
			l0.6-0.8l0.3-1.1l0.7-0.4l2.8-0.7l1.4-0.7l2.9-0.8l0.4-1.2v-0.7l0.1-1l-0.7-2.6l-2-4.3l0.3-1l6.1,0.1l1.8-0.2l1.2,0.2l0.4,0.2
			l1,1.1l0.9,0.6l0.7,0.2l0.7,0.1l1.8-1l0.9,0.1l0.8,0.2l2.3,0.9l1.9,2.3l6.9,3.1l4.1,0.4l2.2,0.8l5.2,2.9l1.2,0.4l5.4,0.1l1.5,0.4
			l1.9,0.6l3.6,0.1l0.9-0.2l0.2-0.7l1.1-1.8l1.3-1.4l2.4-1.2l0.1-0.4l1.3-0.7l0.3-0.4l0.9-0.7l0.5-0.9l0.4-1l0.1-0.7l0.1-0.7
			l2.6-0.7l2.6-1.4l0.7-0.3h0.5l2.1-0.9h0.7l0.6,0.1l0.2,0.4l0.1,0.3l0.1,0.5l0.1,0.4l0.3,0.5l0.5,0.5l0.3,0.7l0.2,0.8l0.2,0.8
			l0.3,0.7l1.7,1.7l2.1,1l0.5,0.5l0.2,0.7l0.1,0.7l1,2.2l0.2,0.7l0.7,1.5l0.7,0.7l1,0.7l1.2,0.1l0.8-0.3l0.5-0.3L324.8,427.9"><title>Beja</title></path>
		<path data-id="7" data-title="Évora" id="path108" d="M243.9,344.4l0.6,0.6l0.5-0.1l0.2-0.6v-0.7l0.1-0.6l0.1-0.2l0.1-0.1l0,0l1-0.4l1.2-0.2l0.8,0.2l0.4,0.2
			l0.1,0.2l1.8,1.9l0.2,0.9v1.5v1.2l0.3,0.2l2,0.3l0.7-0.2l0.6-0.3l0.6-0.5l0.5-0.6l1.3-0.9l1.8-0.4l0.9,0.8l3.7,5l2.3,1.6l0.9,0.1
			h0.9l0.7-0.1l1.7,0.1l2.7-1l0.8-0.8l1.2-1.6l0.8,0.1l1.2,0.7l0.6,0.2l0.9-0.4l0.7-0.1l0.9,0.2l1.8,0.7l0.6-0.1l0.5-0.2l0.3-0.4
			l0.4-0.7l0.6-0.8l1.2-1l1.1-0.4l1.7-0.4l1.3-0.5l0.8-0.5l0.3-0.7v-0.7l-0.3-0.6l-0.6-0.8l1.1-0.8h0.4h0.2h0.1l0.4,1l3.3,1.3
			l1.3,1.3l0.5,1l0.3,1.9l0.1,0.6l0.1,1.1l1.8,1.6l0.6,2.1l0.2,1.4l1.2,1.7l-0.5,1.6l0.6,0.8l1.1,2l0.7,0.7l1.2,0.7h1.5l0.4,0.2
			l1.2-0.4l1.6-1.8l1.8-1.5l2.4-0.8l1.5-0.1l1,0.5l1,0.7l0.3,0.7v1.4l-0.1,0.7l-1.2,1.9l-0.2,0.5l-0.1,1l0.7,0.7l0,0l-3.7,3
			l-0.2,0.4l-0.6,1.4l-0.3,0.7l-0.6,3.6l-0.1,2.4v1l0.1,0.8l0.4,0.7l0.6,0.3l0.4,0.4l0.3,0.8l-0.4,1.4l-3.5,5l-1.5,5.2l-0.8,1.3
			l1,1.3l-0.1,1.2l-0.8,1.2l-1.2,1.2l1.1,0.6l2.4,1.7l8.6,11.1l0.4,0.6l0.5,1.4l0.4,0.7l0.5,0.6l1.4,1l0.4,0.5l3.4,8.4l0.8,0.8
			l-0.4,0.2l-0.5,0.3l-0.8,0.3l-1.2-0.1l-1-0.7l-0.7-0.7l-0.7-1.5l-0.2-0.7l-1-2.2l-0.1-0.7l-0.2-0.7l-0.5-0.5l-2.1-1l-1.7-1.7
			l-0.3-0.7l-0.2-0.8l-0.2-0.8l-0.3-0.7l-0.5-0.5l-0.3-0.5l-0.1-0.4l-0.1-0.5l-0.1-0.3l-0.2-0.4l-0.6-0.1h-0.7l-2.1,0.9h-0.5
			l-0.7,0.3l-2.6,1.4l-2.6,0.7l-0.1,0.7l-0.1,0.7l-0.4,1l-0.5,0.9l-0.9,0.7l-0.3,0.4l-1.3,0.7l-0.1,0.4l-2.4,1.2l-1.3,1.4l-1.1,1.8
			l-0.2,0.7l-0.9,0.2l-3.6-0.1l-1.9-0.6l-1.5-0.4l-5.4-0.1l-1.2-0.4l-5.2-2.9l-2.2-0.8l-4.1-0.4l-6.9-3.1l-1.9-2.3l-2.3-0.9
			l-0.8-0.2l-0.9-0.1l-1.8,1l-0.7-0.1l-0.7-0.2l-0.9-0.6l-1-1.1l-0.4-0.2l-1.2-0.2l-1.8,0.2l-6.1-0.1l-0.3,1l-3.1-2.4l-1.5-0.6h-0.7
			l-0.8-0.1l-0.7-0.2l-1.7-1l-1.2-0.9l-1.7-0.7l-0.5-0.3V407l1.3-2.4l0.3-1.8l-0.4-0.8l-0.6-0.5l-1.2-0.5l-0.4-0.6v-0.5l0.3-0.4
			l0.1-0.6l-1.1-2.9l-0.1-0.6l-0.1-0.3V395v-0.1l-0.4-0.6l-1.1-1.1l-1.6-1.9l-0.7-0.4l-1.5,0.4l-1.9,1.2l-1.2,0.4l-2.3,0.1l-1-0.4
			l-0.8-0.5l-0.4-0.5l-0.3-0.6l-0.6-0.4h-0.7l-0.4,0.4l0.2,0.5l0.1,0.6l-0.1,0.6l-0.5,0.3l-2-0.7l-2.4-0.3l-3.1-1.9l-2.4-0.4
			l-0.5-2.5l-0.3-0.8l-0.3-0.7l-0.1-1l0.1-0.8l2.9-3.7l6.9-4.8l1.3-1.6l0.6-1l0.2-1.3l-0.1-0.7l0.9-1.7l-0.2-1l-0.5-0.3l-3.4-0.7
			l3.9-3.3l3.6-0.7l0.8-0.6l1.7-1.7l0.9-0.3l0.9,0.1l0.6-0.1l0.5-0.3l0.4-0.4l0.3-0.5l0.2-0.6l0.2-0.5l0.5-0.1l1.5,0.6l1,0.1l1-0.4
			l0.8-0.1l0.4,0.2l0.5-0.3l0.2-0.5l0.3-0.5h0.5l0.6,0.5l2.2,2.3l0.7,0.5l2.6,0.6l0.9,0.3l0.5,0.5l0.3,0.7l0.1,0.6l0.3,0.4l0.4,0.1
			l0.4-0.2l0.5,0.3l0.4,1.3l0.4,0.5l1.3,0.7l1.4-1.3l0.5-1.5l-0.2-0.9l-0.5-0.6l-0.7-0.2l-0.6-0.2l-1.4-1.4l-0.5-0.9v-0.8l0.5-1.8
			l-0.4-0.8l-0.3-0.3l-1-0.2l-4.3-1.9l-0.6-0.4l-0.6-0.5l-0.2-0.9l0.3-0.6l0.5-0.6l0.4-0.7l0.4-0.9l0.2-1.1v-1.7l0.3-1l0.4-0.6
			l0.4-0.1l1-0.1l0.5-0.4l0.8-1.3l1.6-1.4l1.4-0.6l0.6-0.4l0.6-0.2l2.2-0.1l1.3,0.5v0.6l-0.2,0.6l-0.3,1.4L243.9,344.4"><title>Évora</title></path>
		<path data-id="8" data-title="Faro" id="path110" d="M292.9,496.6l0.6,0.6l1.4,1.2l0.5,0.6l0.6,1.9l0.4,2.5l0.3,2.3l-0.2,1.2l1.4,3.1l0.6,8.2l0.8,3.4l-0.5,1.5
			l0.4,2.3l1.3,4.5l0.2,0.5l0.2,0.5l0.2,0.3l0.5,0.2v0.6l-0.6,0.8l-1.4-1l-1.7-0.5l-1.9-0.1l-1.7,0.2l-1.8,0.7l-3.3,2.3l-1.4,0.5
			L283,538l-0.6,0.9l-12.4,8.4l-2.7,2.5h-1.2l-1.3-0.6l-1.7-0.4H258l-1.4-0.6l-0.6,1.2l-0.9-0.1l-1.1-0.7l-0.8-0.4l0.8,1.3l0.3,0.6
			l0.1,0.9l-1.8-2.7l-3-2.5l-5.8-3.2l-3.3-0.9h-12l-2.8-1l-1.3-0.2l-10.1-0.3l-5.8-2.6L205,537l-3.8,0.3l-1.2,0.3l-1.1,0.8l-2.6,2.8
			h-5l-1,0.3l-2.1,1.3l-1.1,0.5l-1.2,0.1l-2.6-0.3l-1.2,0.2l-0.8,0.6l-2.2,2.4l-0.7,0.5l-0.8,0.3l-1.7,1.4l-0.8,0.3l-1.3-0.4
			l-0.9-0.9l-0.8-0.6l-1.3,0.6l0.6-2.9l0.4-1.4l0.4-0.6l2.8-5.8l1.6-2.1l1.1-2.4l-0.7-3.1l1.5-1.3l1-2.1l0.7-2.5l0.5-5.8l0.8-2.8
			l1.2-2.4l1.6-2l1.4-3.4l0.4-3.4l1.3,0.9l1.5,0.9l1.3,0.4l1.3,1.1l0.7,0.8l0.8,0.7l0.6,0.4l3.3,0.1l2.2,1l0.5,0.5l0.8,0.1l0.4-0.4
			l0.5-0.5l0.4-0.6l0.6-0.3l3.2-0.5l1,0.2l3.1,1.8l1.2,0.6l3.6,0.5l1.4-0.6l1.4-0.6l0.4-0.9l0.2-0.8l0.5-0.7l0.3-0.3l3.2-1.1
			l1.7-0.4l1-0.1l0.8,0.2l0.7-0.5l1.5-0.2l2,0.6l0.6,1.2l0.2,1.5l0.2,0.6l1,1.2l1.3,0.6l5.7,4.3l2.6,0.7h1.7l3.1,0.4l0.8-0.1
			l1.3-0.5l1.8-1.5l2.9-1.5l0.6-0.3V512l-0.7-0.9l-0.2-0.4l0.1-0.7l0.4-0.7l1-0.7l2.7-0.4h1.1l2.3-0.4l1-0.7l0.5-0.7l0.2-0.6
			l1.4-0.9l1.2-0.1l0.1-0.7l0.5-0.3l0.7-0.2l1.5-0.8h0.5l0.4-0.3l0.6-0.4l1.4-1l6.5-2.7l4.3,0.1l0.4,0.2l1.2,0.2l0.5,0.3l0.7-0.2
			l0.9-0.6l1.6-1.5l1.7-1h2.4l2-0.4L292.9,496.6"><title>Faro</title></path>
		<path data-id="17" data-title="Setúbal" id="path112" d="M175.7,362.5l0.3,0.4l0.3,0.7l0.6,2.4l-0.1,1.3l0.4,1.6l0.7,0.7l0.8,0.3l0.9-0.1l1.7-0.7l0.9-0.5l1.4-0.3
			l0.9,0.1l0.6,0.3l0.8,1l2.3,0.9h0.5l1.4-0.5l1.3-1.6l0.2-0.8l1-2.9l2.3-4.7l0.6-0.2l0.6,0.3l0.5,0.4l0.9,0.6l2.3,0.9l1.6-1
			l1.3-0.6l0.5,0.2v0.5l-0.1,0.8l-0.1,0.8l-0.1,0.8v0.9l0.1,0.9l0.9,1.2l1,0.2h0.7l2.2,0.3l3.4,0.7l0.5,0.3l0.2,1l-0.9,1.7l0.1,0.7
			l-0.2,1.3l-0.6,1l-1.3,1.6l-6.9,4.8l-2.9,3.7l-0.1,0.8l0.1,1l0.3,0.7l0.3,0.8l0.5,2.5l2.4,0.4l3.1,1.9l2.4,0.3l2,0.7l0.5-0.3
			l0.1-0.6l-0.1-0.6l-0.2-0.5l0.4-0.4h0.7l0.6,0.4l0.3,0.6l0.4,0.5l0.8,0.5l1,0.4l2.3-0.1l1.2-0.4l1.9-1.2l1.5-0.4l0.7,0.4l1.6,1.9
			l1.1,1.1l0.4,0.6v0.1v0.1l0.1,0.3l0.1,0.6l1.1,2.9l-0.1,0.6l-0.3,0.4v0.5l0.4,0.6l1.2,0.5l0.6,0.5l0.4,0.8l-0.3,1.8l-1.3,2.4v0.8
			l0.5,0.3l1.7,0.7l1.2,0.9l1.7,1l0.7,0.2l0.8,0.1h0.7l1.5,0.6l3.1,2.4l2,4.3l0.7,2.6l-0.1,1v0.7l-0.4,1.2l-2.9,0.8l-1.4,0.7
			l-2.8,0.7l-0.7,0.4l-0.3,1.1l-0.6,0.8l-2.9-0.1l-0.6,0.4l-0.3,0.7l-0.1,0.8l-0.5,1.8l-0.6,0.4l-0.6-0.3l-0.6-0.4l-0.9-0.4
			l-0.5,0.2l-0.5,0.4l-0.6,0.3l-0.2,0.4v0.5v0.5l-0.1,0.5l-0.4,1l-0.2,0.3l-0.3,0.5h-0.4l-0.5-0.2l-0.4-0.2h-0.6l-0.4,1l-0.2,0.7
			l-0.3,0.6l-0.1,0.7l-0.3,0.6l0.1,0.6l0.2,0.6l0.3,1l1.6,1.2l1.2,1.5l1.1,0.5l0.9,0.2l1.1,0.1l1.1,0.9l0.5,1l0.8,2.2v3l-0.5,4.5
			l-0.9,2.8l-0.4,0.8l-1.1,2.8l-2.4-1.3l-0.3-0.1h-2.2l-3.6-0.6l-7.3,1.4l-1.4,0.7l-0.8,0.7l-0.2,0.7L207,465l-1.4,1.4l-0.4,0.8
			l-0.8,2.3v0.8l-0.2,0.8l-0.5,0.7l-1.3,0.5l-0.9-0.1l-1.5-0.6l-0.6-0.5l-0.6-0.4l-0.7-0.1l-0.5,0.3l-0.3,0.5l-0.3,0.5h-0.5
			l-0.4-0.5l-0.7-1.4l-2.1-2.5l-0.3-0.6l-0.6-0.7l-1.4-0.5l-0.6,0.2l-0.7,0.3l-0.5,0.4l-0.6-0.1l-0.5-0.3l-0.4-0.6l-1.7-1.7l0.1-1.6
			l-0.2-2.8l-0.4-2.1l-1.2-1.9l-1.7-1.6l-3.3-2.1l0.3-0.9l0.6-0.3l0.7-0.3l0.6-0.7l3.1-9.9l0.5-3l1.1-4.5l0.7-1.4l0.4-1.7l-0.4-9.4
			l-2.6-13.8l-1.1-2.6l-2.6-3l-3-2.5l-2.2-0.9l1.2-1.3l1.9,0.8l3,2.7l3.7,1.2l1.8,1l0.1,1.4l3.4-0.2l8.2,2.3l4.1-1.3l-2.4-0.2
			l-2.1-0.5l-6.1-2.8l-0.7-0.9l-0.4-1.4l-0.2-1.5l0.1-1.3l0.5-1l0.7-0.5v-0.7l-1.2-0.5l-0.8-1.2l-0.2-1.4l0.5-1.2l-1.3-0.2l-1.6,3.3
			L186,392v0.7l1.8,0.2l0.8,1.5l0.1,1.7l-0.7,0.8l-2-0.1l-1.6-0.5l-2.9-1.5l-3.1-1.1l-3,0.6l-9.3,4.6l-9.9,2.3l-1.8,1.2l-1,0.3
			l-0.4,0.2l-0.9,0.6h-0.3l-0.3-0.6v-0.8l0.2-0.6l0.4-0.3l0.5-0.9l1.7-4.2l0.3-1.3l-0.5-5.5l-1.8-4.8l-2.5-4.1l-2.6-3.4v-0.7
			l7.1-1.2l1.9-1l4.3,3.1l0.8,1.2h0.5l-0.5-2.1l1.3-0.7l2.5-0.7l1.3-0.1v-0.7l-0.7-1.4l0.4-1.5l1-1.3l1.8-1.7l4-1.4l0.8-0.6l0.5,0.8
			l0.3-0.2l0.5-0.4l0.4-0.2v-0.6l-0.9-1.4l0.9-2.1"><title>Setúbal</title></path>
		<path data-id="12" data-title="Portalegre" id="path114" d="M289.5,272.8l2.6,7.3l1.5,1.4l2.4,3.2l1.4,1.3l2.7,1.5l0.8,0.9l0.7,2.3l1.3,1l1.7,0.9l3.5,0.9l0.6,1v2.3
			l-0.5,2.4l-0.6,1.5l-0.4,1.5v2.3l0.4,2.3l0.6,1.2l1.5,1.3l4.1,4.9l-1.1,2l-0.1,2.2l0.6,2.1l1.2,1.6l2,1.2l2.2,0.6l2,0.9l1,2
			l-0.2,1l-0.9,2.1l0.1,0.9l0.9,0.8l1.2,0.6l1.2,0.2l1-0.3l2-1.2l2.1-0.3l2.2,0.6l1.8,1.3l1.4,1.3l1.1,1.9l0.5,2l-0.5,1.8l0.9,0.8
			l0.1,0.9l-0.4,1.1l-0.8,1l-2.8,5.4l-1.8,2.5l-1.8,1.5l1.2,2l-0.5,1.7l0.2,1.5l-0.7,0.4l-1,0.8l-1,1l-1.3,0.7l-3.8,0.8l-0.8,0.7
			l-0.5,1l-1.1,1.3l-1.4,1.1l-1.2,0.5l-1.1,1l0,0l-0.7-0.7l0.1-1l0.2-0.5l1.2-1.9l0.1-0.7V361l-0.3-0.7l-1-0.7l-1-0.5l-1.5,0.1
			l-2.4,0.8l-1.8,1.5l-1.6,1.8l-1.2,0.4l-0.4-0.2h-1.5l-1.2-0.7l-0.7-0.7l-1.1-2l-0.6-0.8l0.5-1.6l-1.2-1.7l-0.2-1.4l-0.6-2.1
			l-1.8-1.6l-0.1-1.1l-0.1-0.6l-0.3-1.9l-0.5-1l-1.3-1.3l-3.3-1.3l-0.4-1h-0.1h-0.2h-0.4l-1.1,0.8l0.6,0.8l0.3,0.6v0.7l-0.3,0.7
			l-0.8,0.5l-1.3,0.5l-1.7,0.4l-1.1,0.4l-1.2,1l-0.6,0.8l-0.4,0.7l-0.3,0.4l-0.5,0.2l-0.6,0.1l-1.8-0.7l-0.9-0.2l-0.7,0.1l-0.9,0.4
			l-0.6-0.2l-1.2-0.7l-0.8-0.1l-1.2,1.6l-0.8,0.8l-2.7,1l-1.7-0.1l-0.7,0.1h-0.9l-0.9-0.1l-2.3-1.6l-3.7-5l-0.9-0.8l-1.8,0.4
			l-1.3,0.9l-0.5,0.6l-0.6,0.5l-0.6,0.3l-0.7,0.2l-2-0.3l-0.3-0.2V347v-1.5l-0.2-0.9l-1.8-1.9l-0.1-0.2l-0.4-0.2l-0.8-0.2l-1.2,0.2
			l-1,0.4l0,0l-0.1,0.1l-0.1,0.2l-0.1,0.6v0.7l-0.2,0.6l-0.5,0.1l-0.6-0.6l-0.3-1.4l0.3-1.4l0.2-0.6v-0.6l-1.3-0.5l-2.2,0.1
			l-0.6,0.2l-0.6,0.4l-1.4,0.6l-1.6,1.4l-3.7-1.2l-1.1-0.9l-0.1-0.8l-0.3-0.8l-0.6-1.1l-0.8-0.8l-0.6-0.8l-0.2-0.8l-0.3-1l-0.8-0.8
			l-0.8-0.6l-2-0.9l0.1-1.7l2.4-3.7l1.1-1.2l4.5-3.2l4.8-4.5l2-1.6l0.9-2.2l1-1l0.8-0.3l1.7,0.3l1.1-0.3l0.6-0.5l0.4-0.4l0.3-0.6
			l1.9-2.3l1.2-1.8l0.4-0.8l0.2-1.4l0.6-0.6l3.9-2.6l1.7-2.6l-0.1-0.7l-0.4-0.7l-1.3-1l-3.2-3.3l1.7-4.6l1.7-2.6l1.5-1.4l1.1-0.4
			l1.5,0.4l3.4,1.9l1.1,1l0.1,0.2l0.4-0.2l0.4-0.3l1.6-1.9l0.5-0.4l1.8-1.1l1.2-1.2l1.2-1.7l1.3-1.4l1.6-0.7l0.5-0.7l0.8-1.6l1-1.8
			l1.3-1l1.9,0.2l1.4,0.7l1.4,0.2l1.8-1.4l1.1-1.1l1.4-0.9l1.6-0.6l0.8,0.3l0,0L289.5,272.8"><title>Portalegre</title></path>
		<path data-id="16" data-title="Santarém" id="path116" d="M229.6,258.9l0.5,1.6l0.8,0.5l1.1,0.3l1,0.4l0.5,0.6l0.3,0.6l0.1,0.5v0.6l-0.1,0.5l0.2,2l-0.6,0.9v2l0.4,3.8
			l0.7,1.4l4.5,1.8l2.1,1.4l1.8,0.1l2.8-0.3l1.8-0.7l-0.1-0.5l-0.1-0.7l-0.6-1.7v-1.1l0.4-1.4l0.6-1l1-5.5l0.4-0.8l1.7-0.3l2.6,1h2
			l0.4,0.5l0.3,0.6l0.1,0.8l0.1,0.8l0.1,0.8l0.1,1.6l-0.1,1.6l0.2,0.9l0.5,0.3l0.9,0.2l1,0.2l1.7,0.6l1.2,1l1.5,0.9l1.7,2l1.7,2.7
			l0.3,0.7l0.6,1.9l0.8,1l-1.8,1.1l-0.5,0.4l-1.6,1.9l-0.4,0.3l-0.4,0.2l-0.1-0.2l-1.1-1l-3.4-1.9l-1.5-0.4l-1.1,0.4l-1.5,1.4
			l-1.7,2.6l-1.7,4.6l3.2,3.3l1.3,1l0.4,0.7l0.1,0.7l-1.7,2.6l-3.9,2.6l-0.6,0.6l-0.2,1.4l-0.4,0.8l-1.2,1.8l-1.9,2.3l-0.3,0.6
			l-0.4,0.4l-0.6,0.5l-1.1,0.3l-1.7-0.3l-0.8,0.3l-1,1l-0.9,2.2l-2,1.6l-4.8,4.5l-4.5,3.2l-1.1,1.2l-2.4,3.7l-0.1,1.7l2,0.9l0.8,0.6
			l0.8,0.8l0.3,1l0.2,0.8l0.6,0.8l0.8,0.8l0.6,1.1l0.3,0.8l0.1,0.8l1.1,0.9l3.7,1.2l-0.8,1.3l-0.5,0.4l-1,0.1l-0.4,0.1l-0.4,0.6
			l-0.3,1v1.7l-0.2,1.1l-0.4,0.9l-0.4,0.7l-0.5,0.6l-0.3,0.6l0.2,0.9l0.6,0.5l0.6,0.4l4.3,1.9l1,0.2l0.3,0.3l0.4,0.8l-0.5,1.8v0.8
			l0.5,0.9l1.4,1.4l0.6,0.2l0.7,0.2l0.5,0.6l0.2,0.9l-0.5,1.5l-1.4,1.3l-1.3-0.7l-0.4-0.5l-0.4-1.3l-0.5-0.3l-0.4,0.2l-0.4-0.1
			l-0.3-0.4l-0.1-0.6l-0.3-0.7l-0.5-0.5l-0.9-0.3l-2.6-0.6l-0.7-0.5l-2.2-2.3l-0.6-0.5H228l-0.3,0.5l-0.2,0.5l-0.5,0.3l-0.4-0.2
			l-0.8,0.1l-1,0.4l-1-0.1l-1.5-0.6l-0.5,0.1l-0.2,0.5l-0.2,0.6l-0.3,0.5l-0.4,0.4l-0.5,0.3l-0.6,0.1l-0.9-0.1l-0.9,0.3l-1.7,1.7
			l-0.8,0.6l-3.6,0.7l-3.9,3.3l-2.2-0.3h-0.7l-1-0.2l-0.9-1.2l-0.1-0.9v-0.9l0.1-0.8l0.1-0.8l0.1-0.8v-0.5l-0.5-0.2l-1.3,0.6l-1.6,1
			l-2.3-0.9l-0.9-0.6l-0.5-0.4l-0.6-0.3l-0.6,0.2l-2.3,4.7l-1,2.9l-0.2,0.8l-1.3,1.6l-1.4,0.5h-0.5l-2.3-0.9l-0.8-1l-0.6-0.3
			l-0.9-0.1l-1.4,0.3l-0.9,0.5l-1.7,0.7l-0.9,0.1l-0.8-0.3l-0.7-0.7l-0.4-1.6l0.1-1.3l-0.6-2.4l-0.3-0.7l-0.3-0.4l-1.5-1.8l0.1-1.3
			l1.2-1.3l0.5-0.8l1.3-2.3l2.8-7.7l0.8-1.7l0.8-1.1l0.4-1.1l1.6-2.4l-0.9-0.7l-0.2-0.9l3-0.8l1.7-2l0.5-0.3l0.1-0.4l-0.2-1.8
			l-0.7-1.5l-0.3-0.5l-0.4-0.4l-0.5-0.4l-1.7-0.7l-0.5-0.4l-2.4-2.2l-0.4-0.6l-0.6-1.4l-0.5-0.4l-0.7-0.4l-0.4-0.5V324l1.2-0.8
			l1-0.3l2.4,0.1l1.3-0.3l1.1-1.1l-4-4.1l-0.7-1.5l-3.3,1l-5.7-1.7l0.2-1.5l-1-2.5l-0.2-3.5l-0.5-1.8l0.3-1.3l1.8-3l1.6-0.4l0.7-0.5
			l0.8-1l2.6-5.5l1.1-1.1l2.4-0.9l5.3-0.5l4,0.4l1.2-0.8l0.2-0.8l0.1-0.4v-0.1l-0.2-0.3l-0.5-1.1l-0.1-0.9v-0.7l0.4-0.5h0.6l0.7,0.3
			h0.8l0.6-0.2l2.1-2.7l0.6-0.8l-1-2.8l-0.1-2l-0.8-3.3l1.8-1.4l0.8-0.5l0.6-0.5l0.7-0.6l0.3-1l-0.4-1.7l-0.6-0.8l-0.7-0.5l-0.5-0.6
			l-0.3-0.8v-1.3l-0.2-1.8v-0.9l0.5-0.9l0.4-0.7l3.8-1.6l1.4,0.4l1-0.2l1.5-0.8l4-2.9l1.1-0.4h0.8l1.1-0.9l1.3-0.4l1.1,4.5l0.2,1.1
			l0.5,2.6l0.2,0.8l0.1,0.6l0.1,0.5l1.5-0.5l3.4-1.2l1.1-0.3l1.8-0.8l1.6,0.3l0.4-0.3l-0.3-2.1l-0.2-0.7l0.1-0.5l0.6,0.2
			L229.6,258.9"><title>Santarém</title></path>
		<path data-id="3" data-title="Braga" id="d-3" d="M248.6,41.8l-0.1,0.7l-0.5,0.6l-0.4,0.8L247,47l-0.7,1.4l-0.7,2.3l-0.5,1
			l-0.4,0.7l-1.9,2.2h1.2l1-0.2l0.5-0.2l0.6-0.1l0.6,0.1l0.8,0.1l0.6-0.1l1.5-0.7h0.6l0.5,0.3l2.1,1.3l0.5,0.4l0.2,0.6l-0.4,1.4
			l-0.2,1.1l-0.3,4.8l1.7,0.8l0.9,0.1l0.8,0.5l0.8,0.3l3.2,0.6l1,0.1l2.4-0.7l1.7-2l0.9,0.5l0.4,0.5l1.4,2.5l-0.2,1.2l-3.3,5l-1,1
			l-1.5,0.8l-0.3,0.3l-0.4,1.3l-0.9,0.8l-0.6-0.2l-0.4,0.1l-0.4,0.2l-0.8,1.1l-0.7,2.6l0.3,0.8l-0.1,0.5l-0.2,0.8l-1.2,2l-0.3,0.8
			l-0.3,0.3l-0.3,0.1l-0.2,0.3l0.2,0.8v0.6l-0.7,1.9l-0.3,1.1l-0.1,0.4l-0.3,0.5l-0.4,0.5l-0.4,0.2l-0.6,0.5l-0.4,0.4l-0.4,0.5
			l-0.6,0.5l-0.6,0.3h-0.9l-0.9-0.8l-1.7-1L246,93l-2.6-1.1l-3-2.2l0.2-1l-0.3-0.6l-1.7-1.8l-4.1-1.5l-1.2,1.9l-1.6,1.2l-2.5,1.2
			l-0.6,0.2l-1.9,0.7h-0.6l-1.1-0.8l-0.7-0.2l-3.3,0.5l-2.5,0.6l-2.1-0.3l-0.5-0.4l-0.7-0.4h-1l-1.4,0.4l-1.5,0.9l-0.7,0.5l-0.6,0.6
			l-0.6,0.1l-0.7,0.2h-4.6l-0.8,0.2H203l-0.6-0.3l-0.4-0.8l-0.3-1.4l-0.2-0.9l0.6-0.8l0.9-0.2l0.4-0.3l0.3-0.6l-0.3-0.6l-0.8-0.8
			l-1-0.2l-1.1-0.7l-1.4-1.4l-0.5-0.6l-0.7-0.7l-0.8-0.3H195l-2.1-1l-1.9-1.2h-2.3l-0.6-0.1v-1.4l-0.5-2.8l-1-1.8v-0.8l0.4,0.3
			l0.2,0.1l0.2,0.1l0.3,0.3h0.6l-0.4-1.7l-1.6-3.7l-0.3-2.5l-0.6-1.7l-0.3-0.7l0.7,0.1l1.6,0.2l0.8-0.1l5.9-2.2l4.3-0.1l0.7-0.2
			l0.6-0.5l0.3-0.5l0.4-0.3l0.6,0.5l2.5,0.8l1.6,0.3l0.9,0.5l0.8,0.2l0.5,0.1l1.5-2.6l-0.4-1.2l0.1-0.6l0.4-0.7l0.8-0.8l0.2-0.7
			l0.2-0.8l0.1-1.7l0.2-0.8l0.2-0.8l0.7-0.8l0.4-0.2l0.7-0.2l0.7,0.2h0.6l1.4-0.6l1.5-1.2l0.6-0.4l1.1-0.5l1.2-0.2l7.2-0.4l2-0.7
			l7.8-4.2h1l0.3-0.2l0,0v0.2l7,0.4l3.5-1l0.3,0.3V41.8"><title>Braga</title></path>
		<path data-id="4" data-title="Bragança" id="path120" d="M327.6,26l2.5,1.2l2.9-1.3l2-1.4l0.7,0.4l1.1,0.6l2,1.6l2.3,0.4l5.1-0.4l1.9-1.2l0.6-3.3l2.5,0.5l2.9,4.6
			l2.5,0.7l5.8-0.2l2.8-0.9l1.1-2.3l2,0.8l1.1,1.3l0.3,1.9l-0.6,4.7l0.6,0.8l1.5,0.2l2.1,0.7l-1,2.1l-1.9,8.9l-0.4,1l-0.6,0.9
			l-0.5,1.1l0.3,0.9l0.5,0.9l0.4,1.1l0.2,2l0.4,2.1l1.2,1.8l2.3,0.9l0.8-0.3l1.2-0.6l1.2-0.8l0.5-0.7l0.6-0.4h1.1l6.6,1.4l4,1.4
			l3.7,2.4l3.5,3.7l1.1,1.6l0.8,1.1l-3.9,5.7l-2.1,2.2l-0.5,1.1l0.1,0.9l0.2,0.7l-0.1,0.8l-3.1,5v0.9l-2.5,0.2l-1.2,0.4l-1,0.9h0.2
			l0.1,0.7l-0.1,0.8l-0.2,0.6l-0.4,0.1l-1-0.2l-0.3,0.1l-2.6,4.2l-2.6,2.7l-2.7,2.1l-4.8,2.1l-0.7,0.5l-5.4,0.1l-1.4,0.3l-1,1
			l-2.9,4.4l-0.6,1.6l-0.5,0.9l-2.9,2.5l-1,1.4l-0.3,0.7l0.2,2.7l-0.7,2l-3.2,4.8l-1.2,1.1l-2.2,0.2l-5-0.4l-1.8,0.9l-1.3-0.3
			l-3.5-0.2l-7.2-3.7l-0.9-1.1l-0.6-1.5l-0.4-1.4l0.1-1l0.3-1l0.1-0.7l-0.8-0.3l-0.6-0.2l-0.5-0.3l-0.5-0.4L324,112l0.4-0.7l0.7-2.3
			l-0.8,0.4l-3.1,2.2l-0.8,1.1l-1.6,0.1l-2.6-0.8l-6.4,0.5l-2.1,0.2l-2.8-0.9l-1-0.9l-2.5-3.6l-1.2-0.9H299l0.5-1.4l0.1-0.6l0.4-0.6
			l0.8-0.3l1.1-0.2l0.3-0.2l-0.1-0.6l-0.1-0.7l0.1-0.9l0.3-1.4l0.7-1l0.9-0.9l0.1-0.4l-0.1-0.7l0.1-1.1l1.5-1.5l2.8-1l-1.9-1.1
			l-0.7-0.9l-0.6-1.5l-0.5-2.2v-5.3l2.7-2.1l0.7-0.2l0.7-0.5l0.7-0.9l0.7-1.7l0.9-1.9l0.8-0.9l0.8-0.3l0.7-0.1l0.8-0.2l0.6-0.3
			l0.2-0.5l-0.1-0.7l-0.3-0.8l-0.5-0.7l-0.3-0.7l-0.3-0.9l-0.1-1.4l0.3-2.9l2.7-9.1l2-4.3l0.7-0.7l0.5-0.3l0.4-0.6l0.2-0.6v-1.5
			l-0.1-0.9l-1.5-2.1l-0.7-2l-0.2-1.1l-0.2-1.9l0.2-2.2l0.2-1.2l-0.5-2.1l-0.2-0.6l0,0l0.9-1.3l0.2-1.8l-0.5-3.5l0.2-1.6l0.6-0.6
			l1.2-1l1.4-0.8l1.2-0.2l2.7,1.7L327.6,26"><title>Bragança</title></path>
		<path data-id="5" data-title="Castelo Branco" id="path122" d="M312.2,193.3l-0.7,6.3l-1.1,2.8l-0.6,0.9l-0.7,0.7l-0.8,1.2l-0.2,0.8v0.6l0.3,0.3l0.6,0.3l0.5,0.1l0.9,0.4
			l1.7,0.4l2.1,0.4l3.7-1.3h3.9l1-0.4l0.6-0.6l0.2-0.8l0.4-0.8l0.5-0.8l0.9-0.8l0.5,0.1l0.5,0.6l0.3,0.7l0.8,1.4l0.7,0.7l1.9,0.4
			l1.8-0.1l1.4-0.4l0.8,0.1l0.5,0.1l2,1l1.3,0.9l0.8,0.9l0.4,0.4L338,210l-3.5,2.3L333,213l-0.7,1l-0.8,2.4l-0.7,1.3l0.7,1.5
			l0.6,3.7l0.9,1.4l1,0.3l2.2,0.3l0.9,0.3l0.9,0.8l1.1,1.8l1.8,2.3l3.3,5.9l-1.4,2.4l-0.4,1.1l0.1,1.2l-0.3,0.9l-0.5,2.6l-0.2,0.5
			l-0.8,0.6l-0.2,0.4v0.6l0.3,1.1l-0.1,0.5l-0.1,1l-0.1,1.8l-0.2,1l-2.1,3.1l-0.8,0.4l-1.9,0.8l-0.6,0.6l-0.6,1.4l0.1,1.1l0.4,1
			l0.1,0.9l-0.3,1l-1,1.7l-0.4,1v1l0.3,0.8v0.7l-0.9,2.3l-1.2,0.5l-12,1.5l-2.6-0.1l-1.8-1.1l-1.4,0.4l-3.2-0.1l-1.6,0.4l-1.3,0.5
			l-1.1,0.3l-17.7-0.8l0.1,0.3l0,0L288,271l-1.6,0.6l-1.4,0.9l-1.1,1.1l-1.8,1.4l-1.4-0.2l-1.4-0.7l-1.9-0.2l-1.3,1l-1,1.8l-0.8,1.6
			l-0.5,0.7l-1.6,0.7l-1.3,1.4l-1.2,1.7l-1.2,1.2l-0.8-1l-0.6-1.9l-0.3-0.7l-1.7-2.7l-1.7-2l-1.5-0.9l-1.2-1l-1.7-0.6l-1-0.2
			l-0.9-0.2l-0.5-0.3l-0.2-0.9l0.1-1.6l-0.1-1.6l-0.1-0.8l-0.1-0.8l-0.1-0.8l-0.3-0.6l-0.4-0.5h-2l-2.6-1l-1.7,0.3l-0.4,0.8l-1,5.5
			l-0.6,1l-0.4,1.4v1.1l0.6,1.7l0.1,0.7l0.1,0.5l-1.8,0.7l-2.8,0.3l-1.8-0.1l-2.1-1.4l-4.5-1.8l-0.7-1.4l-0.4-3.8v-2l0.6-0.9l-0.2-2
			l0.1-0.5v-0.6l-0.1-0.5l-0.3-0.6l-0.5-0.6l-1-0.4l-1.1-0.3l-0.8-0.5l-0.5-1.6l-0.4-1.2v-0.5l0.6-1l0.6-0.4v-0.6v-0.6l0.4-0.6
			l0.4-0.5l3.7-1.1l0.8,0.1l0.4-0.4l0.7-0.9l0.7-0.8l0.8-0.4l0.7-0.1l0.8-0.6l0.8-0.7l1.6-3.2l1.3-1.3l0.2-0.6l0.5-0.5l0.4-0.1
			l1.2-0.2l0.8-1.1l1.9-0.4h1.4l0.2-0.4l0.2-0.5l0.1-0.6l0.4-0.2l1.2-0.1l0.5-0.5l0.4-0.2l0.7-0.2l0.5,0.1l0.5,0.2l0.4,0.2l0.4-0.3
			l1.1-1.6l0.6-0.4l0.6-0.1h1.6l0.8-0.6l0.1-0.5l-0.4-1.5l0.3-0.9l1-1l1.9-1l1.2-0.2l1-0.1l0.7,0.3l0.8,0.3l1.6,1.3l0.2-2.1
			l-0.1-1.8l0.4-0.6l0.4-0.3l0.4,0.1l0.1,0.3l0.3,0.4l0.6,0.2l0.8-0.1l1.7-1.1l0.7-0.7l0.3-0.6v-0.6v-0.6l-0.1-0.7l-0.4-1.1
			l-2.2-1.6l-1.4-1.7l-0.8-0.7l-0.5-0.8l-0.4-1.3l0.3-0.8l1.7-4.2l1.6-0.7l1.4-0.1l1-0.5l3.1-2.3l2.2-0.9l2.1-1.4l1.8-1.8l1.6-2.4
			l2,0.8l2.8-0.6l0.8-0.7l0.5-0.7l0.7-1.5l0.1-0.7l1.1-2l4.1-3.9l3.3,2.7l1.9,0.6l0.9-0.1l2.6-0.8l1.8-2l0.7-0.1l0.8-0.3l1.4-0.1
			h0.6L312.2,193.3"><title>Castelo Branco</title></path>
		<path data-id="6" data-title="Coimbra" id="path124" d="M223.8,197.3l1,0.4l0.8,0.7l2.5,0.7l1.9,1.3l1.3,1.2l1.3,0.6l0.6,0.6h0.5l0.3-0.3l0.1-0.4l0.1-0.5l0.2-0.5
			l0.4-0.3l3.4-0.7l4.8,0.8l6.2-4.6l4.4-1.9l3.6-2.5l1.5-0.8l1.9-3.1l2.8-2.1l0.9-1l0.9-0.6l1.7-0.5l0.8,2.5l0.5,0.4l0.5,0.8
			l0.1,0.7l-0.3,1l-0.5,0.7l-0.7,0.4l-0.7,0.3l-0.6,0.5l-0.2,0.7l0.6,1.1l0.7,0.4l1.4,0.3l0.5,0.5l-0.1,1l0.6,3.8l0.6,0.9l1.2,1
			l0.2,0.6l-0.2,0.7l-1.8,1.3l-0.7,0.9l-0.6,1.1l-0.4,1.7l-0.9,2.1l2.2,1.2l1.2,1.9l-1.7,4.2l-0.3,0.8l0.4,1.3l0.5,0.8l0.8,0.7
			l1.4,1.7l2.2,1.6l0.4,1.1l0.1,0.7v0.6v0.6l-0.3,0.6l-0.7,0.7l-1.7,1.1l-0.8,0.1l-0.6-0.2l-0.3-0.4l-0.1-0.3l-0.4-0.1l-0.4,0.3
			l-0.4,0.6l0.1,1.8l-0.2,2.1l-1.6-1.3l-0.8-0.3l-0.7-0.3l-1,0.1l-1.2,0.2l-1.9,1l-1,1l-0.3,0.9l0.4,1.5l-0.1,0.5l-0.8,0.6h-1.6
			l-0.6,0.1l-0.6,0.4l-1.1,1.6L255,239l-0.4-0.2l-0.5-0.2l-0.5-0.1l-0.7,0.2l-0.4,0.2l-0.5,0.5l-1.2,0.1l-0.4,0.2l-0.1,0.6l-0.2,0.5
			l-0.2,0.4h-1.4l-1.9,0.4l-0.8,1.1l-1.2,0.2l-0.4,0.1l-0.5,0.5l-0.2,0.6l-1.3,1.3l0.2-1.3V244l-0.2-0.5L242,243l0.4-1.1l0.3-0.4
			l1-0.8l-3.4-5.5l-0.3-1.8l0.6-3l-0.3-0.7l-0.5-0.8l-0.5-0.4l-1.1-0.7l-2.5,3.4l-2.4-1l-3.5,3.2l-1.3,1.9l0.1,0.7l0.1,0.8l0.3,0.3
			l1,1l0.3,0.6l-0.2,0.9l-0.5,0.5H229l-1.4-0.5l-0.8,0.1l-2.9,3.2l-3.3,1.3h-0.7l-0.5-0.2l0.3-0.3l0.7-0.4l0.4-0.7l0.2-0.9l-0.4-1.4
			l-0.8-2.1l-1.1-2.3l-0.6-0.5l-0.7-0.1l-0.2,0.6l-1.6-0.2l-2.7,2.4l-2.1,1.3l-1.6,1.8l-0.5,0.5l-0.4-0.4l-0.3-0.5l-0.2-0.8v-1.7
			l-0.1-1l-0.5-2.4l-0.6-0.6l-0.5-0.2l-0.5-0.1l-0.6,0.1l-0.6,0.3l-0.6,0.4l-1.3,2.1l-0.2,0.3l-0.4,0.2H201l-0.6-0.2l-0.2-0.2
			l-0.7-1.1l-1.5-1.2l-0.9-0.6l-1.7-0.5l-1.7-0.1l-4.1-0.4l-2.1,0.9l-0.9,0.7l-0.8,0.1l-2.7-0.6l-1.1-0.5l-0.8-0.5l-2.1-1l-0.5-0.2
			l2.8-8.3l1.3-1.5l0.9,1.4l1.4,0.6l3.3,0.2v-0.8l-1.4-1.3l-1.2-0.9l-1.4-0.5l-3.8-0.5l-1.4-0.9l-0.8-1.6l-0.2-2.3l1.1-3l2.5-5
			l5.4-21.2l0.6-5.6l0.5,0.6l9,9.2l2.7,0.3l0.7-1.1l0.3-1.7l1.7-2.8l3.2,2.2l-0.5,2.6l0.1,1.1l0.2,1.9l0.6,0.8l0.7,0.1l0.7-0.3
			l1.3-0.9l1.3-0.5l1-0.1l0.4,2.1l0.9,1.8l0.2,0.8l-0.1,0.6l-0.4,1.6l-0.2,0.3l-0.3,0.3l-0.3,0.2l-0.4,0.4l-0.5,0.7l-0.6,1.6
			l-0.3,1.2v0.9l0.1,0.7l0.6,0.7l4.8,0.5l0.6-0.5l0.7-0.7l0.4-1l1.9-2.4l0.4-0.9l0.7-0.7l0.6-0.2l1.8,0.1l1-1.3l-0.1-0.9
			L223.8,197.3"><title>Coimbra</title></path>
		<path data-id="9" data-title="Guarda" id="path126" d="M324.4,112.5l0.5,0.4l0.5,0.3l0.6,0.2l0.8,0.3l-0.1,0.7l-0.3,1l-0.1,1l0.4,1.4l0.6,1.5l0.9,1.1l7.2,3.7
			l3.5,0.2l1.3,0.3l-0.3,2L339,128l0.2,1.4l0.8,1.2l2.6,2.7l1.1,2l1.8,4.4l0.7,2.2l0.7,0.9l1.2,0.3l0.9,0.7l0.4,1.4l-0.4,1.4
			l-1.3,0.4l-0.1,2.7l0.1,0.7l0.3,1.2l-0.1,0.6l-0.2,0.6l-0.2,1v2.1l0.2,1.5l1,3.6l0.7,3.6l0.1,1.9v1.3l-0.5,1.8l-1.9,3.5l-0.5,1.7
			l0.2,1.8l0.7,1.1l0.9,1l0.8,1.5l0.5,1.8l-0.2,1.3l-2,2.7l-1.5,3.8l0.5,3.5l1.9,3.1l2.8,2.6l-1.5,2.5l-0.7,0.8l-3.5,2.6l-0.5,0.6
			l-0.3,0.8l-0.1,0.9v0.9l-0.3,0.6l-1.5,1.1l-1.6,0.1l-1.6-0.2l-0.5,0.1l-0.4-0.4l-0.8-0.9l-1.3-0.9l-2-1l-0.5-0.1l-0.8-0.1
			l-1.4,0.4l-1.8,0.1l-1.9-0.4l-0.7-0.7l-0.8-1.4l-0.3-0.7l-0.5-0.6l-0.5-0.1l-0.9,0.8l-0.5,0.8l-0.4,0.8l-0.2,0.8l-0.6,0.6l-1,0.4
			h-3.9l-3.7,1.3l-2.1-0.4l-1.7-0.4l-0.9-0.4l-0.5-0.1l-0.6-0.3l-0.3-0.3V206l0.2-0.8l0.8-1.2l0.7-0.7l0.6-0.9l1.1-2.8l0.7-6.3
			l-1-0.5h-0.6l-1.4,0.1l-0.8,0.3l-0.7,0.1l-1.8,2l-2.6,0.8l-0.9,0.1l-1.9-0.6l-3.3-2.7l-4.1,3.9l-1.1,2l-0.1,0.7l-0.7,1.5l-0.5,0.7
			l-0.8,0.7l-2.8,0.6l-2-0.8l-1.6,2.4l-1.8,1.8l-2.1,1.4l-2.2,0.9l-3.1,2.3l-1,0.5l-1.4,0.1l-1.6,0.7l-1.2-1.9l-2.2-1.2l0.9-2.1
			l0.4-1.7l0.6-1.1l0.7-0.9l1.8-1.3l0.2-0.7l-0.2-0.6l-1.2-1l-0.6-0.9l-0.6-3.8l0.1-1l-0.5-0.5l-1.4-0.3l-0.7-0.4l-0.6-1.1l0.2-0.7
			l0.6-0.5l0.7-0.3l0.7-0.4l0.5-0.7l0.3-1l-0.1-0.7l-0.5-0.8l-0.5-0.4l-0.8-2.5l0.8-0.8l2.4-0.3l0.9-0.3l2.2-1.6l2.4-0.8l2.5-1.9
			l3.5-1.3l5.5-0.9l-0.3-2.2l1.9-6l1.1-1.3l0.4-2.7l-1.4-1.9l-1.8-1.2l-0.9-1.6l0.9-1.1l0.2-0.6v-0.8l-0.2-0.7l-0.4-0.7l-2.1-1.6
			l-0.7-0.8l-0.1-0.8l0.3-0.7l0.9-1.3l0.9-1.7l1-3l0.3-0.4l0.7-0.7l0.9-0.4l2,0.1l0.9,0.3l1.2,1l2.7,3l0.5,0.4l0.6,0.7l1.3,0.1
			l0.8-1.2l1.9-4.3l0.1-1.2l-0.3-1.1l-0.3-0.6l-0.4-2.2l1-0.5l3.1,0.7l2.6-2.4l0.7-1.9l0.1-1.1l-0.2-0.8l-0.4-0.7l-0.7-0.3l-0.8-0.5
			l-0.7-0.6l-0.5-1.2l-0.1-0.6l0.2-0.5l2,0.1l1.1-0.8l-0.4-2.8l0.2-2.1l0.8-3.1l2.1-7.1l6.4-0.5l2.6,0.8l1.6-0.1l0.8-1.1l3.1-2.2
			l0.8-0.4l-0.7,2.3L324,112L324.4,112.5"><title>Guarda</title></path>
		<path data-id="13" data-title="Porto" id="path128" d="M254.5,89.7l1.4,1.7l-0.1,1l0.1,0.9l0.6,0.9l1.2,0.7l2.2,1.7l-0.3,1.4l0.3,1.6l1.4,2.5l1,0.8l0.4,0.2
			l-1.1,4.3l-0.2,2.6l-0.4,2.6l-3.6,2.3l-10,3.4l-2.3,0.3l-8.2-0.6l-2.7,0.6l-5.4,2.2l-0.4,1.2l-0.3,0.3l-3.9,2.7l-1.7-0.5l-2.1,1
			l-0.1,0.6l0.1,0.6l0.4,0.6l0.1,0.7l-0.3,0.5h-0.7l-1.4-1.1l-0.6-1.2l-0.4-0.7l-1.7-1.7l-1.4,1.6L214,126l-0.5,1.5l-0.6,0.4
			L212,128l-1.1-0.6l-0.7-0.7l-0.8-0.4h-1l-1.2,0.9l-2.6,1l-1.4-0.9l-3.6,0.5l-0.7,0.2v-1.5l-1-7.3l0.1-3.8l1.4-1.5v-0.7l-3-0.7
			l-1.6-2.9l-1.1-3.8l-1.5-3l0.4-1.5l-0.2-1.2l-0.5-1.2l-0.3-1.3v-3.4l-0.4-1l-1.3-0.1l0.4-1.3l-0.3-1.2l-1.2-1.9l-0.4-1.6l-0.2-1.4
			l-0.1-6.7l0.6,0.1h2.3l1.9,1.2l2.1,1h2.1l0.8,0.3l0.7,0.7l0.5,0.6l1.4,1.4l1.1,0.7l1,0.2l0.8,0.8l0.3,0.6l-0.3,0.6l-0.4,0.3
			l-0.9,0.2l-0.6,0.8l0.2,0.9l0.3,1.4l0.4,0.8l0.6,0.3h0.3l0.8-0.2h4.6l0.7-0.2l0.6-0.1l0.6-0.6l0.7-0.5l1.5-0.9l1.4-0.4h1l0.7,0.4
			l0.5,0.4l2.1,0.3l2.5-0.6l3.3-0.5l0.7,0.2l1.1,0.8h0.6l1.9-0.7l0.6-0.2l2.5-1.2l1.6-1.2l1.2-1.9l4.1,1.5l1.7,1.8l0.3,0.6l-0.2,1
			l3,2.2L246,93l0.9-0.2l1.7,1l0.9,0.8h0.9l0.6-0.3l0.6-0.5l0.4-0.5l0.4-0.4l0.6-0.5l0.4-0.2l0.4-0.5l0.3-0.5l0.1-0.4L254.5,89.7"><title>Porto</title></path>
		<path data-id="20" data-title="Viseu" id="path130" d="M309.8,112.5l-2.1,7.1l-0.8,3.1l-0.2,2.1l0.4,2.8l-1.1,0.8l-2-0.1l-0.2,0.5l0.1,0.6l0.5,1.2l0.7,0.6l0.8,0.5
			l0.7,0.3l0.4,0.7l0.2,0.8l-0.1,1.1l-0.7,1.9l-2.6,2.4l-3.1-0.7l-1,0.5l0.4,2.2l0.3,0.6l0.3,1.1l-0.1,1.2l-1.9,4.3l-0.8,1.2
			l-1.3-0.1l-0.6-0.7l-0.5-0.4l-2.7-3l-1.2-1l-0.9-0.3l-2-0.1l-0.9,0.4l-0.7,0.7l-0.3,0.4l-1,3l-0.9,1.7l-0.9,1.3l-0.3,0.7l0.1,0.8
			l0.7,0.8l2.1,1.6l0.4,0.7l0.2,0.7v0.8l-0.2,0.6l-0.9,1.1l0.9,1.6l1.8,1.2l1.4,1.9l-0.4,2.7l-1.1,1.3l-1.9,6l0.3,2.2l-5.5,0.9
			l-3.5,1.3l-2.5,1.9l-2.4,0.8l-2.2,1.6l-0.9,0.3l-2.4,0.3l-0.8,0.8l-1.7,0.5l-0.9,0.6l-0.9,1l-2.8,2.1l-1.9,3.1l-1.5,0.8l-3.6,2.5
			l-4.4,1.9l-6.2,4.6l-4.8-0.8l-3.4,0.7l-0.4,0.3l-0.2,0.5l-0.1,0.5l-0.1,0.4l-0.3,0.3h-0.5l-0.6-0.6l-1.3-0.6l-1.3-1.2l-1.9-1.3
			l-2.5-0.7l-0.8-0.7l-1-0.4l-0.3-3.3l2.4-3.6l0.3-0.9v-1.4l-0.8-1.5l-0.2-0.7l0.2-0.6l1.9-1.4l4.5-1.8l-1-1.7l-0.5-0.6l-0.6-0.6
			l-0.4-0.6l-0.6-2l-0.9-2.3v-0.8l0.4-0.8l0.6-0.5l3.3-1.4l-1.3-1.1l-1.5-0.6l-0.4-0.3l-0.6-1.4l-0.1-3l-0.2-0.8l-0.5-0.9l-1.1-1.2
			l-0.4-0.7l-0.1-0.6v-0.5v-0.5l0.8-1.4l1.9-1.5l1.9-2.2l1.6-3.5l0.8-1.3l0.1-0.6l-0.9-3.3l2.5-0.2l0.6,0.2l1,0.2l1-0.2l1.4-0.7h1
			l0.7,0.3l0.6,0.4l0.7,0.3l0.8,0.1l0.7-0.2l0.4-0.7v-1.3l-0.7-2l-0.4-2.7l-0.4-1.5v-0.7l0.2-1.3l0.4-1.1l2.6-3.8l0.1-0.5l0.1-0.2
			v-0.3l-0.1-0.4l-0.3-0.4l-0.5-0.1l-1.1,1l-0.3,0.3l-0.2,0.4l-0.5,1.2l-1.1,0.2h-1l-6.2-2.9l0.1-2.4l0.1-0.7l-0.3-1.1l-0.3-0.6
			l-4.9-3.2l5.4-2.2l2.7-0.6l8.2,0.6l2.3-0.3l10-3.4l3.6-2.3l4.3-2.8l1.7-0.2l1.1,0.5l1.9,1.9l1,0.8l1.4,0.4l1.6,0.1l1.5-0.3
			l1.4-0.5l2.3-1.6l1.3-0.6l1.4-0.1h0.2l3.4,0.3l3.8-0.5l9.7-3.6h1.2l1.2,0.9l2.5,3.6l1,0.9l2.8,0.9L309.8,112.5"><title>Viseu</title></path>
		<path data-id="19" data-title="Vila Real" id="path132" d="M260.4,33.3l0.5,3.1h2.6l0.6-0.6l0.3-0.7l0.4-0.6l0.8-0.3l2.3,0.1l5-1.2l2.3-1.2l1.3,0.3l2.3,1.7l1.4,0.7
			l4.4,0.1l-1.2,3.5v1l1.3,0.8l1.5,0.1l1.7-0.2l1.7-0.6l1.2-0.9l0.4-0.8l0.1-0.8l0.2-0.6l0.6-0.6l0.6,0.1l1.3,0.8l0.8,0.1l1.1,0.4
			l1.1,1.5l0.7,1.9l0.4,1.7l1.1-0.9l1.9-2.3l1.1-0.7l1.3-0.3l3,0.1l1.4-0.2l5.9-2l2.6-1.7l0.8-1.1l0,0l0.2,0.6l0.5,2.1l-0.2,1.2
			l-0.2,2.2l0.2,1.9l0.2,1.1l0.7,2l1.5,2.1l0.1,0.9v1.5l-0.2,0.6l-0.4,0.6l-0.5,0.3l-0.7,0.7l-2,4.3l-2.7,9.1l-0.3,2.9l0.1,1.4
			l0.3,0.9l0.3,0.7l0.5,0.7l0.3,0.8l0.1,0.7l-0.2,0.5l-0.6,0.3l-0.8,0.2l-0.7,0.1l-0.8,0.3l-0.8,0.9l-0.9,1.9l-0.7,1.7l-0.7,0.9
			l-0.7,0.5l-0.7,0.2l-2.7,2.1v5.3l0.5,2.2l0.6,1.5l0.7,0.9l1.9,1.1l-2.8,1l-1.5,1.5l-0.1,1.1l0.1,0.7l-0.1,0.4l-0.9,0.9l-0.7,1
			l-0.3,1.4l-0.1,0.9l0.1,0.7l0.1,0.6l-0.3,0.2l-1.1,0.2l-0.8,0.3l-0.4,0.6l-0.1,0.6l-0.5,1.4l-9.7,3.6l-3.8,0.5l-3.4-0.3h-0.2
			l-1.4,0.1l-1.3,0.6l-2.3,1.6l-1.4,0.5l-1.5,0.3l-1.6-0.1l-1.4-0.4l-1-0.8l-1.9-1.9l-1.1-0.5l-1.7,0.2l-4.3,2.8l0.4-2.6l0.2-2.6
			l1.1-4.3l-0.4-0.2l-1-0.8l-1.4-2.5l-0.3-1.6l0.3-1.4l-2.2-1.7l-1.2-0.7l-0.6-0.9l-0.1-0.9l0.1-1l-1.4-1.7l0.7-1.9v-0.6l-0.2-0.8
			l0.2-0.3l0.3-0.1l0.3-0.3l0.3-0.8l1.2-2l0.2-0.8l0.1-0.5l-0.3-0.8l0.7-2.6l0.8-1.1l0.4-0.2l0.4-0.1l0.6,0.2l0.9-0.8l0.4-1.3
			l0.3-0.3l1.5-0.8l1-1l3.3-5l0.2-1.2l-1.4-2.5l-0.4-0.5l-0.9-0.5l-1.7,2l-2.4,0.7l-1-0.1l-3.2-0.6l-0.8-0.3l-0.8-0.5l-0.9-0.1
			l-1.7-0.8l0.3-4.8l0.2-1.1l0.4-1.4l-0.2-0.6l-0.5-0.4l-2.1-1.3l-0.5-0.3h-0.6l-1.5,0.7l-0.6,0.1l-0.8-0.1l-0.6-0.1l-0.6,0.1
			l-0.5,0.2l-1,0.2h-1.2l1.9-2.2l0.4-0.7l0.5-1l0.7-2.3L247,47l0.6-3.1l0.4-0.8l0.5-0.6l0.1-0.7v-0.5l-0.3-0.3h0.2l2.7-2.8l0.8-1.3
			l1-1.1l1.1-0.5l1.4,0.2l1.5-0.1l0.8-1.4l0.3-1.8l0.4-1.3l1.6-0.6L260.4,33.3"><title>Vila Real</title></path>
	</g>
</g>
</svg>
