<?xml version="1.0" encoding="utf-8"?>
<!-- Generator: Adobe Illustrator 22.0.0, SVG Export Plug-In . SVG Version: 6.00 Build 0)  -->
<svg version="1.1" id="Layer_1" xmlns="http://www.w3.org/2000/svg" xmlns:xlink="http://www.w3.org/1999/xlink" x="0px" y="0px"
	 width="291px" height="100px" viewBox="0 0 291 100" style="enable-background:new 0 0 291 100;" xml:space="preserve">
<style type="text/css">
	.st0{fill:#453D40;}
	.st1{fill:#59504F;}
	.st2{fill:#2B8527;}
	.st3{fill:#FB9E01;}
	.st4{fill:#F7D607;}
	.st5{fill:#FFFFFF;}
	.st6{fill:#36CC68;}
	.st7{fill:#FCFCFC;}
</style>
<path class="st0" d="M32.9,13.2c0.4,0,0.8,0.1,1.1,0.4c0.6,0.6,0.6,1.5,0,2.1L23.3,26.4c-0.6,0.6-1.5,0.6-2.1,0l-4.2-4.2
	c-0.6-0.6-0.6-1.5,0-2.1c0.6-0.6,1.5-0.6,2.1,0l3.2,3.2l9.6-9.6C32.1,13.4,32.5,13.2,32.9,13.2L32.9,13.2z"/>
<path class="st0" d="M58.2,13.6c0.6-0.6,1.5-0.6,2.1,0l4.2,4.2l4.2-4.2c0.6-0.6,1.5-0.6,2.1,0c0.6,0.6,0.6,1.5,0,2.1L66.7,20
	l4.2,4.2c0.6,0.6,0.6,1.5,0,2.1c-0.6,0.6-1.5,0.6-2.1,0l-4.2-4.2l-4.2,4.2c-0.6,0.6-1.5,0.6-2.1,0c-0.6-0.6-0.6-1.5,0-2.1l4.2-4.2
	l-4.2-4.2C57.6,15.2,57.6,14.2,58.2,13.6L58.2,13.6z"/>
<g>
	<path class="st1" d="M112.6,17.9c0.6-0.3,0.8-0.8,0.8-1.4c0-0.5-0.2-0.9-0.5-1.1c-0.3-0.3-0.8-0.4-1.4-0.4c-0.6,0-1.1,0.1-1.6,0.4
		c-0.5,0.2-1,0.6-1.5,1.1l-1.9-2.1c0.6-0.7,1.3-1.2,2.2-1.6c0.8-0.4,1.8-0.6,3-0.6c0.8,0,1.4,0.1,2.1,0.3s1.2,0.5,1.6,0.8
		c0.4,0.4,0.8,0.8,1,1.4c0.2,0.5,0.4,1.2,0.4,1.9c0,0.7-0.1,1.2-0.3,1.7c-0.2,0.5-0.5,0.9-0.9,1.2c-0.4,0.3-0.8,0.6-1.3,0.8
		c-0.5,0.2-1,0.4-1.6,0.5l-0.2,1.3l-2.1,0l-0.5-3.4l0.1-0.1C111.1,18.4,112.1,18.2,112.6,17.9z M109.4,27l0-3.4l3.4,0l0,3.4
		L109.4,27z"/>
</g>
<path class="st2" d="M108.5,58.1c-6.1,0-11,4.9-11,11c0,6.1,4.9,11,11,11c6.1,0,11-4.9,11-11C119.5,63,114.6,58.1,108.5,58.1z
	 M108.5,78.4c-5.1,0-9.3-4.1-9.3-9.3c0-5.1,4.1-9.3,9.3-9.3c5.1,0,9.3,4.1,9.3,9.3C117.8,74.2,113.6,78.4,108.5,78.4z M106.1,67.3
	c0-1-0.8-1.8-1.8-1.8c-1,0-1.8,0.8-1.8,1.8c0,1,0.8,1.8,1.8,1.8C105.3,69.2,106.1,68.3,106.1,67.3z M112.7,65.5
	c-1,0-1.8,0.8-1.8,1.8c0,1,0.8,1.8,1.8,1.8c1,0,1.8-0.8,1.8-1.8C114.6,66.3,113.8,65.5,112.7,65.5z M108.5,76.1
	c2.6,0,4.6-2.1,4.6-4.6l-9.3,0C103.9,74,106,76.1,108.5,76.1z"/>
<path class="st3" d="M26.4,65.5c-1,0-1.8,0.8-1.8,1.8c0,1,0.8,1.8,1.8,1.8c1,0,1.8-0.8,1.8-1.8C28.2,66.3,27.4,65.5,26.4,65.5z
	 M19.8,67.3c0-1-0.8-1.8-1.8-1.8c-1,0-1.8,0.8-1.8,1.8c0,1,0.8,1.8,1.8,1.8C19,69.2,19.8,68.3,19.8,67.3z M22.2,58.1
	c-6.1,0-11,4.9-11,11c0,6.1,4.9,11,11,11c6.1,0,11-4.9,11-11C33.2,63,28.3,58.1,22.2,58.1z M22.2,78.4c-5.1,0-9.3-4.1-9.3-9.3
	c0-5.1,4.1-9.3,9.3-9.3c5.1,0,9.3,4.1,9.3,9.3C31.4,74.2,27.3,78.4,22.2,78.4z M22.2,71.8L22.2,71.8c-1.6,0-3.1,0.7-4.1,2.1
	c-0.3,0.4-0.2,0.9,0.2,1.2c0.4,0.3,0.9,0.2,1.2-0.2c0.6-0.9,1.7-1.4,2.8-1.4c1.1,0,2.1,0.5,2.7,1.4c0.3,0.4,0.8,0.5,1.2,0.2
	c0.4-0.3,0.5-0.8,0.2-1.2C25.3,72.5,23.7,71.8,22.2,71.8z"/>
<path class="st4" d="M65.6,59c-6.1,0-11,4.9-11,11c0,6.1,4.9,11,11,11c6.1,0,11-4.9,11-11C76.6,63.9,71.7,59,65.6,59z M65.6,79.3
	c-5.1,0-9.3-4.1-9.3-9.3c0-5.1,4.1-9.3,9.3-9.3c5.1,0,9.3,4.1,9.3,9.3C74.9,75.1,70.8,79.3,65.6,79.3z M69.9,66.4
	c-1,0-1.8,0.8-1.8,1.8c0,1,0.8,1.8,1.8,1.8c1,0,1.8-0.8,1.8-1.8C71.7,67.2,70.9,66.4,69.9,66.4z M63.3,68.2c0-1-0.8-1.8-1.8-1.8
	c-1,0-1.8,0.8-1.8,1.8c0,1,0.8,1.8,1.8,1.8C62.4,70,63.3,69.2,63.3,68.2z M68,73.2l-4.7,0c-0.5,0-0.8,0.4-0.8,0.8
	c0,0.5,0.4,0.8,0.8,0.8l4.7,0c0.5,0,0.8-0.4,0.8-0.8C68.8,73.6,68.5,73.2,68,73.2z"/>
<polygon class="st5" points="157.4,7.5 160.2,13.2 166.5,14.1 162,18.5 163.1,24.8 157.4,21.8 151.8,24.8 152.9,18.5 148.3,14.1 
	154.6,13.2 "/>
<polygon class="st6" points="245.7,7.5 248.5,13.2 254.8,14.1 250.3,18.5 251.4,24.8 245.7,21.8 240.1,24.8 241.2,18.5 236.6,14.1 
	242.9,13.2 "/>
<path class="st7" d="M195.3,25.5l1.2-6.8l-4.9-4.8l6.8-1l3.1-6.2l3.1,6.2l6.8,1l-4.9,4.8l1.2,6.8l-6.1-3.2L195.3,25.5z M201.5,21.4
	l5.1,2.7l-1-5.7l4.2-4.1l-5.7-0.8l-2.6-5.2l-2.6,5.2l-5.7,0.8l4.2,4.1l-1,5.7L201.5,21.4z"/>
</svg>
