<svg xmlns="http://www.w3.org/2000/svg" xmlns:xlink="http://www.w3.org/1999/xlink" width="37.8" height="36.4" xmlns:v="https://vecta.io/nano"><linearGradient  gradientUnits="userSpaceOnUse" x1="-269.447" y1="-174.347" x2="-268.74" y2="-173.64"><stop offset="0" stop-color="#e6e6eb"/><stop offset=".174" stop-color="#e2e2e6"/><stop offset=".352" stop-color="#d5d4d8"/><stop offset=".532" stop-color="#c0bfc2"/><stop offset=".714" stop-color="#a4a2a4"/><stop offset=".895" stop-color="#828282"/><stop offset="1" stop-color="#6b6e6e"/></linearGradient><g fill="#9b9594"><path d="M3.7 9.4c.2-.2.2-.6.3-.9.7-1.9 2.4-3.1 4.4-3.1h1.4c.2 0 .2 0 .2-.2v-1c0-.7.5-1.2 1.1-1.2.7 0 1.2.5 1.2 1.2v1c0 .1 0 .2.2.2h5c.1 0 .2 0 .2-.2v-1c0-.7.5-1.2 1.2-1.2.6 0 1.1.5 1.1 1.2v.9c0 .1 0 .2.2.2h5c.1 0 .2 0 .2-.2v-1c.1-.6.6-1.1 1.2-1.1.7 0 1.2.5 1.2 1.2v.9c0 .2 0 .3.3.3h2c2 .3 3.7 2 4 4 0 .3.1.6.1.9v6.5c0 .5-.2.9-.6 1.1s-.8.2-1.2 0c-.4-.3-.6-.6-.6-1.1v-6.5c0-.6-.1-1.1-.5-1.6-.5-.6-1.1-.9-1.9-1H28c-.1 0-.2 0-.2.2v1c0 .7-.5 1.2-1.2 1.2s-1.2-.5-1.2-1.2v-1c0-.1 0-.2-.2-.2h-5.1c-.1 0-.2 0-.2.2v1c0 .7-.5 1.2-1.2 1.2s-1.2-.5-1.2-1.2v-1c0-.1 0-.2-.2-.2h-5c-.1 0-.2 0-.2.2v.9c0 .7-.5 1.3-1.2 1.3s-1.2-.5-1.2-1.3v-1c0-.1 0-.2-.1-.2-.7 0-1.3-.1-2 .1-.8.4-1.5 1.3-1.5 2.5V12v16.5c0 1.2.6 2.1 1.8 2.4.2.1.5.1.7.1h8.8c.5 0 .9.2 1.2.6.4.7 0 1.5-.7 1.7 0 0-.1 0-.1.1h-10c0-.1-.1-.1-.2-.1-1.8-.4-3-1.4-3.6-3.2-.1-.3-.1-.6-.2-.9V9.4zm22.5 24c-.3-.1-.6-.1-.9-.2-2.9-.8-4.6-2.6-5.3-5.5-.7-2.8.7-6 3.1-7.5 2.7-1.7 5.9-1.6 8.4.5 2.1 1.7 3 4 2.6 6.7-.5 2.9-2.1 4.7-4.9 5.7-.5.2-.9.3-1.4.3-.1 0-.1 0-.2.1h-1.4zm5.5-7.2c0-2.6-2.2-4.8-4.8-4.8s-4.8 2.2-4.8 4.8 2.2 4.8 4.8 4.8c2.7 0 4.8-2.1 4.8-4.8"/><use xlink:href="#C"/><path d="M17.5 15.4c0 .7-.5 1.2-1.2 1.2s-1.2-.5-1.2-1.2c0-.6.5-1.2 1.2-1.2s1.2.6 1.2 1.2m3.9-1.1c.7 0 1.2.5 1.2 1.2s-.5 1.2-1.2 1.2-1.2-.5-1.2-1.2c.1-.7.6-1.2 1.2-1.2"/><use xlink:href="#C" x="15.5"/><path d="M12.3 20.6c0 .7-.5 1.2-1.2 1.2s-1.2-.5-1.2-1.2.5-1.2 1.2-1.2 1.2.6 1.2 1.2m4-1.2c.7 0 1.2.5 1.2 1.2s-.5 1.2-1.2 1.2-1.2-.5-1.2-1.2c0-.6.6-1.2 1.2-1.2"/><use xlink:href="#C" y="10.3"/><path d="M17.5 25.8c0 .7-.5 1.2-1.2 1.2s-1.2-.5-1.2-1.2.5-1.2 1.2-1.2c.6 0 1.2.5 1.2 1.2m8.2-.8v-1.2c0-.7.5-1.2 1.2-1.2s1.2.5 1.2 1.2v1c0 .1 0 .2.2.2h.6c.6.2.9.7.9 1.2a1.11 1.11 0 0 1-1.1 1.1h-1.9c-.6 0-1.1-.5-1.1-1.2V25"/></g><defs ><path id="C" d="M12.3 15.5c0 .7-.5 1.2-1.2 1.2s-1.2-.5-1.2-1.2.5-1.2 1.2-1.2 1.2.5 1.2 1.2"/></defs></svg>