<?xml version="1.0" encoding="UTF-8"?>
<svg xmlns="http://www.w3.org/2000/svg" xmlns:v="https://vecta.io/nano" width="37.8" height="36.4">
  <linearGradient gradientUnits="userSpaceOnUse" x1="-269.447" y1="-174.347" x2="-268.74" y2="-173.64">
    <stop offset="0" stop-color="#e6e6eb"></stop>
    <stop offset=".174" stop-color="#e2e2e6"></stop>
    <stop offset=".352" stop-color="#d5d4d8"></stop>
    <stop offset=".532" stop-color="#c0bfc2"></stop>
    <stop offset=".714" stop-color="#a4a2a4"></stop>
    <stop offset=".895" stop-color="#828282"></stop>
    <stop offset="1" stop-color="#6b6e6e"></stop>
  </linearGradient>
  <g fill="#9b9594">
    <path d="M17.5 1.3h2.6c0 .1.1.1.1.1 1.6.1 3.1.4 4.5 1 6.1 2.5 9.7 6.9 10.8 13.4.1.4 0 .8.2 1.1v2.6c-.1 0-.1.1-.1.2-.1.4-.1.8-.1 1.2-.6 3.5-2.1 6.6-4.6 9-4.6 4.6-10.2 6.2-16.5 4.5C5.6 32.1.4 23.3 2.3 14.5c1.6-6.8 7.3-12.1 14.2-13 .3-.1.7-.1 1-.2m1.4 31.1a14.3 14.3 0 0 0 14.3-14.3c0-7.9-6.4-14.2-14.3-14.3a14.3 14.3 0 1 0 0 28.6m1.3-18.5v-3.4c0-.3-.1-.6-.2-.9-.3-.5-.9-.7-1.4-.5-.6.2-1 .7-1 1.3v7.7c0 .5.2.9.6 1.2l2.7 2 2.5 1.8c.8.6 1.8.2 2.1-.7.1-.6-.1-1.1-.6-1.4l-4.4-3.3c-.1-.1-.2-.2-.2-.4-.1-1.1-.1-2.2-.1-3.4"></path>
    <path d="M20.2 13.9v3.4c0 .2.1.3.2.4l4.4 3.3c.5.4.7.8.6 1.4-.2.9-1.3 1.3-2.1.7l-2.5-1.8-2.7-2c-.4-.3-.6-.7-.6-1.2v-7.7c0-.7.4-1.2 1-1.3.5-.2 1.1 0 1.4.5.2.3.2.6.2.9.1 1.2.1 2.3.1 3.4"></path>
  </g>
</svg>
