<svg xmlns="http://www.w3.org/2000/svg" width="37.8" height="36.4" xmlns:v="https://vecta.io/nano"><linearGradient  gradientUnits="userSpaceOnUse" x1="-269.447" y1="-174.347" x2="-268.74" y2="-173.64"><stop offset="0" stop-color="#e6e6eb"/><stop offset=".174" stop-color="#e2e2e6"/><stop offset=".352" stop-color="#d5d4d8"/><stop offset=".532" stop-color="#c0bfc2"/><stop offset=".714" stop-color="#a4a2a4"/><stop offset=".895" stop-color="#828282"/><stop offset="1" stop-color="#6b6e6e"/></linearGradient><path d="M33.4 13.2c-.8-1.9-1.9-3.5-3.3-5-1.4-1.4-3.1-2.6-5-3.4-1.7-.7-3.4-1.1-5.2-1.2l1.4-.8c.4-.2.5-.7.3-1-.2-.4-.7-.5-1-.3l-4.9 2.8 4.8 2.8c.1.1.2.1.4.1.3 0 .5-.1.6-.4.2-.4.1-.8-.3-1L20 5.1c1.6.1 3.1.5 4.5 1.1C26.2 7 27.7 8 29 9.3s2.3 2.8 3 4.5 1.1 3.6 1.1 5.5-.4 3.8-1.1 5.5-1.8 3.2-3.1 4.5-2.8 2.3-4.5 3-3.6 1.1-5.5 1.1-3.8-.4-5.5-1.1-3.2-1.8-4.5-3.1-2.3-2.8-3-4.5-1.1-3.6-1.1-5.5.4-3.8 1.1-5.5S7.7 10.5 9 9.2c.3-.3.3-.8 0-1.1s-.8-.3-1.1 0c-1.4 1.4-2.6 3.1-3.4 5s-1.3 4-1.3 6.1.4 4.2 1.2 6.1 1.9 3.5 3.3 5c1.4 1.4 3.1 2.6 5 3.4s4 1.3 6.1 1.3 4.2-.4 6.1-1.2 3.5-1.9 5-3.3c1.4-1.4 2.6-3.1 3.4-5s1.3-4 1.3-6.1c0-2.2-.4-4.2-1.2-6.2" fill="#9b9594"/><path d="M33.4 13.2c-.8-1.9-1.9-3.5-3.3-5-1.4-1.4-3.1-2.6-5-3.4-1.7-.7-3.4-1.1-5.2-1.2l1.4-.8c.4-.2.5-.7.3-1-.2-.4-.7-.5-1-.3l-4.9 2.8 4.8 2.8c.1.1.2.1.4.1.3 0 .5-.1.6-.4.2-.4.1-.8-.3-1L20 5.1c1.6.1 3.1.5 4.5 1.1C26.2 7 27.7 8 29 9.3s2.3 2.8 3 4.5 1.1 3.6 1.1 5.5-.4 3.8-1.1 5.5-1.8 3.2-3.1 4.5-2.8 2.3-4.5 3-3.6 1.1-5.5 1.1-3.8-.4-5.5-1.1-3.2-1.8-4.5-3.1-2.3-2.8-3-4.5-1.1-3.6-1.1-5.5.4-3.8 1.1-5.5S7.7 10.5 9 9.2c.3-.3.3-.8 0-1.1s-.8-.3-1.1 0c-1.4 1.4-2.6 3.1-3.4 5s-1.3 4-1.3 6.1.4 4.2 1.2 6.1 1.9 3.5 3.3 5c1.4 1.4 3.1 2.6 5 3.4s4 1.3 6.1 1.3 4.2-.4 6.1-1.2 3.5-1.9 5-3.3c1.4-1.4 2.6-3.1 3.4-5s1.3-4 1.3-6.1c0-2.2-.4-4.2-1.2-6.2z" fill="none" stroke="#9b9594" stroke-width=".859" stroke-miterlimit="10"/></svg>