<?xml version="1.0" encoding="UTF-8"?>
<svg xmlns="http://www.w3.org/2000/svg" xmlns:v="https://vecta.io/nano" width="37.8" height="36.4">
  <style>.H{fill:#9b9594}.I{fill:none}.J{stroke:#9b9594}.K{stroke-width:.5}.L{stroke-miterlimit:10}</style>
  <linearGradient gradientUnits="userSpaceOnUse" x1="-269.447" y1="-174.347" x2="-268.74" y2="-173.64">
    <stop offset="0" stop-color="#e6e6eb"></stop>
    <stop offset=".174" stop-color="#e2e2e6"></stop>
    <stop offset=".352" stop-color="#d5d4d8"></stop>
    <stop offset=".532" stop-color="#c0bfc2"></stop>
    <stop offset=".714" stop-color="#a4a2a4"></stop>
    <stop offset=".895" stop-color="#828282"></stop>
    <stop offset="1" stop-color="#6b6e6e"></stop>
  </linearGradient>
  <path d="M20.1 2.2h-2.4a.68.68 0 0 1-.7-.7.68.68 0 0 1 .7-.7h2.4a.68.68 0 0 1 .7.7c-.1.4-.4.7-.7.7" class="H"></path>
  <path d="M20.1 2.2h-2.4a.68.68 0 0 1-.7-.7.68.68 0 0 1 .7-.7h2.4a.68.68 0 0 1 .7.7c-.1.4-.4.7-.7.7z" class="I J K L"></path>
  <path d="M18.8 4.6a.68.68 0 0 1-.7-.7V1.5a.68.68 0 0 1 .7-.7.68.68 0 0 1 .7.7v2.4a.68.68 0 0 1-.7.7" class="H"></path>
  <path d="M18.8 4.6a.68.68 0 0 1-.7-.7V1.5a.68.68 0 0 1 .7-.7.68.68 0 0 1 .7.7v2.4a.68.68 0 0 1-.7.7z" class="I J K L"></path>
  <path d="M29.9 5.9c-.1 0-.3 0-.4-.1l-2-1.3c-.3-.2-.4-.6-.2-.9s.6-.4.9-.2l2 1.3c.3.2.4.6.2.9a.55.55 0 0 1-.5.3" class="H"></path>
  <path d="M29.9 5.9c-.1 0-.3 0-.4-.1l-2-1.3c-.3-.2-.4-.6-.2-.9s.6-.4.9-.2l2 1.3c.3.2.4.6.2.9a.55.55 0 0 1-.5.3z" class="I J K L"></path>
  <path d="M27.6 7.2c-.1 0-.3 0-.4-.1-.3-.2-.4-.6-.2-.9l1.3-2c.2-.3.6-.4.9-.2s.4.6.2.9l-1.3 2a.55.55 0 0 1-.5.3" class="H"></path>
  <path d="M27.6 7.2c-.1 0-.3 0-.4-.1-.3-.2-.4-.6-.2-.9l1.3-2c.2-.3.6-.4.9-.2s.4.6.2.9l-1.3 2a.55.55 0 0 1-.5.3z" class="I J K L"></path>
  <path d="M7.9 5.9c-.2 0-.4-.1-.6-.3-.2-.3-.1-.7.2-.9l2-1.3c.3-.2.7-.1.9.2s.1.7-.2.9l-2 1.3c-.1.1-.2.1-.3.1" class="H"></path>
  <path d="M7.9 5.9c-.2 0-.4-.1-.6-.3-.2-.3-.1-.7.2-.9l2-1.3c.3-.2.7-.1.9.2s.1.7-.2.9l-2 1.3c-.1.1-.2.1-.3.1z" class="I J K L"></path>
  <path d="M10.2 7.3c-.2 0-.4-.1-.6-.3L8.3 5c-.2-.4-.1-.8.2-1s.7-.1.9.2l1.3 2c.3.4.2.8-.1 1-.1 0-.3.1-.4.1" class="H"></path>
  <path d="M10.2 7.3c-.2 0-.4-.1-.6-.3L8.3 5c-.2-.4-.1-.8.2-1s.7-.1.9.2l1.3 2c.3.4.2.8-.1 1-.1 0-.3.1-.4.1z" class="I J K L"></path>
  <path d="M18.9 35.5c-8.9 0-16.1-7.2-16.1-16.1S10 3.3 18.9 3.3 35 10.5 35 19.4s-7.2 16.1-16.1 16.1m0-30.9A14.77 14.77 0 0 0 4.1 19.4a14.77 14.77 0 0 0 14.8 14.8 14.77 14.77 0 0 0 14.8-14.8A14.77 14.77 0 0 0 18.9 4.6" class="H"></path>
  <path d="M18.9 35.5c-8.9 0-16.1-7.2-16.1-16.1S10 3.3 18.9 3.3 35 10.5 35 19.4s-7.2 16.1-16.1 16.1zm0-30.9A14.77 14.77 0 0 0 4.1 19.4a14.77 14.77 0 0 0 14.8 14.8 14.77 14.77 0 0 0 14.8-14.8A14.77 14.77 0 0 0 18.9 4.6z" class="I J K L"></path>
  <path d="M18.9 31.9c-6.9 0-12.5-5.6-12.5-12.5S12 6.9 18.9 6.9s12.5 5.6 12.5 12.5-5.6 12.5-12.5 12.5m0-23.7c-6.1 0-11.1 5-11.1 11.1s5 11.1 11.1 11.1S30 25.4 30 19.3c.1-6.1-4.9-11.1-11.1-11.1" class="H"></path>
  <path d="M18.9 31.9c-6.9 0-12.5-5.6-12.5-12.5S12 6.9 18.9 6.9s12.5 5.6 12.5 12.5-5.6 12.5-12.5 12.5zm0-23.7c-6.1 0-11.1 5-11.1 11.1s5 11.1 11.1 11.1S30 25.4 30 19.3c.1-6.1-4.9-11.1-11.1-11.1z" class="I J K L"></path>
  <path d="M19.4 17v3.4c0 .2.1.3.2.4l4.4 3.3c.5.4.7.8.6 1.4-.2.9-1.3 1.3-2.1.7L20 24.4l-2.7-2c-.4-.3-.6-.7-.6-1.2v-7.7c0-.7.4-1.2 1-1.3.5-.2 1.1 0 1.4.5.2.3.2.6.2.9.1 1.2.1 2.3.1 3.4" class="H"></path>
</svg>
