<?xml version="1.0" encoding="UTF-8"?>
<svg xmlns="http://www.w3.org/2000/svg" xmlns:v="https://vecta.io/nano" width="2692.2" height="1080">
  <path d="M0 0h2692.2v1080H0z" fill="#fff"></path>
  <path d="M457.7 227.3c16.9 7.6 29.9 18.5 39 32.6s13.7 30.7 13.7 50c0 19-4.6 35.6-13.7 49.8s-22.1 25-39 32.6c-16.9 7.5-36.8 11.3-59.8 11.3h-52.2V475h-59.9V216H398c22.9-.2 42.8 3.7 59.7 11.3zm-22 115.6c9.4-7.8 14.1-18.8 14.1-33.1 0-14.6-4.7-25.7-14.1-33.5s-23.1-11.7-41.1-11.7h-48.8v89.9h48.8c18 .1 31.7-3.8 41.1-11.6zM718 474.8l-50-72.2h-3-52.2v72.2H553v-259h112.1c22.9 0 42.9 3.8 59.8 11.5 16.9 7.6 29.9 18.5 39 32.6s13.7 30.7 13.7 50c0 19.2-4.6 35.8-13.9 49.8-9.3 13.9-22.4 24.6-39.4 32l58.1 83.3H718zm-15.2-198.5c-9.4-7.8-23.1-11.7-41.1-11.7h-48.8v90.3h48.8c18 0 31.7-3.9 41.1-11.8s14.1-19 14.1-33.3c0-14.5-4.7-25.7-14.1-33.5zm174.9 185.6c-21.6-11.6-38.5-27.6-50.7-47.9s-18.3-43.2-18.3-68.6 6.1-48.3 18.3-68.6c12.2-20.4 29.1-36.3 50.7-47.9s45.8-17.4 72.7-17.4 51.1 5.8 72.5 17.4c21.5 11.6 38.4 27.6 50.7 47.9s18.5 43.2 18.5 68.6-6.2 48.3-18.5 68.6c-12.3 20.4-29.2 36.3-50.7 47.9s-45.6 17.4-72.5 17.4-51.2-5.8-72.7-17.4zm114.1-44.2c12.3-7 22-16.8 29-29.4s10.5-26.9 10.5-42.9-3.5-30.3-10.5-42.9-16.7-22.4-29-29.4-26.1-10.5-41.4-10.5-29.1 3.5-41.4 10.5-22 16.8-29 29.4-10.5 26.9-10.5 42.9 3.5 30.3 10.5 42.9 16.7 22.4 29 29.4 26.1 10.5 41.4 10.5 29.1-3.5 41.4-10.5zm195.4-153h-82.9v-48.8H1330v48.8h-82.9v210.2h-59.9V264.7zm375.5 162v48.1h-200.5v-259h195.7v48.1h-136.2v56.2H1542v46.6h-120.3v59.9h141zm99.4 35.4c-21.3-11.5-38.1-27.4-50.3-47.7s-18.3-43.3-18.3-69 6.1-48.7 18.3-69c12.2-20.4 29-36.3 50.3-47.7 21.3-11.5 45.3-17.2 72-17.2 22.4 0 42.7 3.9 60.9 11.8 18.1 7.9 33.4 19.2 45.7 34l-38.5 35.5c-17.5-20.2-39.2-30.3-65.1-30.3-16 0-30.3 3.5-42.9 10.5s-22.4 16.8-29.4 29.4-10.5 26.9-10.5 42.9 3.5 30.3 10.5 42.9 16.8 22.4 29.4 29.4 26.9 10.5 42.9 10.5c25.9 0 47.6-10.2 65.1-30.7l38.5 35.5c-12.3 15-27.6 26.5-45.9 34.4s-38.6 11.8-61 11.8c-26.5.2-50.4-5.6-71.7-17zm32.7 96.5c-6.2-1.4-11.3-3.3-15.5-5.7l8.9-24.8c7.9 3.7 15.9 5.5 24 5.5 12.8 0 19.2-3.9 19.2-11.8 0-7.2-6-10.7-18.1-10.7h-12.6l9.6-39.2h30.7l-5.2 21.5c10.9 1.2 18.9 4.6 24.2 10.2 5.3 5.5 8 12.4 8 20.5 0 11.3-4.9 20.3-14.8 26.8s-23.1 9.8-39.6 9.8c-6.3 0-12.6-.7-18.8-2.1zm351.5-139.3H1926l-22.9 55.5h-61.4l115.4-259h59.2l115.8 259h-62.9l-22.9-55.5zM1996.9 192c-5.1-2.6-10.7-6.1-16.8-10.5-3.9-3-7.2-5.2-9.8-6.7s-5.1-2.2-7.6-2.2c-5.2 0-9.4 1.8-12.6 5.4s-4.9 8.7-5.2 15.4h-29.2c.5-16.5 4.6-29.7 12.4-39.4s18.1-14.6 30.9-14.6c6.4 0 12.1 1.3 17.2 3.9s10.8 6.2 17.2 10.9c3.9 3 7.2 5.2 9.8 6.7s5.1 2.2 7.6 2.2c4.9 0 9.1-1.8 12.4-5.4s5.1-8.4 5.4-14.6h29.2c-.5 16-4.6 28.9-12.4 38.5s-18.1 14.4-30.9 14.4c-6.7-.2-12.5-1.5-17.6-4zm30.5 181.8l-41.1-99.2-41.1 99.2h82.2zm180.8 88.1c-21.6-11.6-38.5-27.6-50.7-47.9s-18.3-43.2-18.3-68.6 6.1-48.3 18.3-68.6c12.2-20.4 29.1-36.3 50.7-47.9s45.8-17.4 72.7-17.4 51.1 5.8 72.5 17.4c21.5 11.6 38.4 27.6 50.7 47.9s18.5 43.2 18.5 68.6-6.2 48.3-18.5 68.6c-12.3 20.4-29.2 36.3-50.7 47.9s-45.6 17.4-72.5 17.4-51.1-5.8-72.7-17.4zm114.1-44.2c12.3-7 22-16.8 29-29.4s10.5-26.9 10.5-42.9-3.5-30.3-10.5-42.9-16.7-22.4-29-29.4-26.1-10.5-41.4-10.5-29.1 3.5-41.4 10.5-22 16.8-29 29.4-10.5 26.9-10.5 42.9 3.5 30.3 10.5 42.9 16.7 22.4 29 29.4 26.1 10.5 41.4 10.5 29.1-3.5 41.4-10.5z" fill="#009d3d"></path>
  <g fill="#e30613">
    <path d="M320.7 638.6v93.5h123.1v21.8H320.7v101h-25.2v-238h163.2v21.8h-138zm190-21.8h25.2v238h-25.2v-238z"></path>
    <use href="#B"></use>
    <path d="M1039.1 791.2H906.5l-28.6 63.6h-26.2l108.8-238h24.8l108.8 238h-26.5l-28.5-63.6zm-9.2-20.4L972.8 643l-57.1 127.8h114.2z"></path>
    <use href="#B" x="520.2"></use>
    <path d="M1449.6 841.2c-18.9-10.4-33.8-24.9-44.5-43.4-10.8-18.5-16.2-39.2-16.2-62 0-22.9 5.4-43.6 16.2-62 10.8-18.5 25.7-32.9 44.7-43.4 19-10.4 40.3-15.6 63.9-15.6 17.7 0 34 2.9 49 8.8s27.7 14.5 38.1 25.8l-16 16c-18.6-18.8-42-28.2-70.4-28.2-18.8 0-35.9 4.3-51.3 12.9s-27.5 20.4-36.2 35.4-13.1 31.7-13.1 50.3 4.4 35.4 13.1 50.3c8.7 15 20.8 26.7 36.2 35.4 15.4 8.6 32.5 12.9 51.3 12.9 28.6 0 52-9.5 70.4-28.6l16 16c-10.4 11.3-23.2 20-38.3 26s-31.5 9-49.1 9c-23.6.1-44.9-5.1-63.8-15.6zm373.2-8.1v21.8h-168.3v-238h163.2v21.8h-138v84.7h123.1v21.4h-123.1v88.4h143.1zm59.1-216.3h25.2v238h-25.2v-238zm265.2 238l-54.4-76.5c-6.1.7-12.5 1-19 1h-63.9v75.5h-25.2v-238h89.1c30.4 0 54.2 7.3 71.4 21.8s25.8 34.5 25.8 59.8c0 18.6-4.7 34.3-14.1 47.1s-22.8 22-40.3 27.7l58.1 81.6h-27.5zM2127 742.3c12.5-10.4 18.7-25 18.7-43.9 0-19.3-6.2-34.1-18.7-44.4s-30.5-15.5-54.1-15.5h-63.2v119.3h63.2c23.7.1 41.7-5.1 54.1-15.5zm252.7 48.9h-132.6l-28.6 63.6h-26.2l108.8-238h24.8l108.8 238h-26.5l-28.5-63.6zm-9.2-20.4L2313.4 643l-57.1 127.8h114.2z"></path>
  </g>
  <defs>
    <path id="B" d="M812.3 616.8v238h-20.7l-153-193.1v193.1h-25.2v-238h20.7l153.3 193.1V616.8h24.9z"></path>
  </defs>
</svg>
