<svg xmlns="http://www.w3.org/2000/svg" width="69.8" height="69.8" viewBox="0 0 69.8 69.8">
  <g id="Layer_2" data-name="Layer 2">
    <g id="Layer_1-2" data-name="Layer 1">
      <g>
        <path d="M42,33.67a19.14,19.14,0,0,0-4.39-1.88C36,31.22,35.07,30.63,35,30c0,0,.14-.51.51-.63a7.08,7.08,0,0,1,2.11-.28,15.36,15.36,0,0,1,4.85.85,10,10,0,0,0,.17-1.71c0-.27,0-1.66-.11-4.17l-3.88-1.31-.51-3.42c-.8-.12-5.27-.09-5.27-.09l-.44,4a16.72,16.72,0,0,0-4.91,2.62,6.6,6.6,0,0,0-2.05,5q0,2.75,3,4.51c.3.16,2.84,1,5.36,2.23.46.22.52,1-.4,1.59a3.43,3.43,0,0,1-1.83.35,21.11,21.11,0,0,1-5.25-1.43l.18,6.79a12.79,12.79,0,0,0,5.7,1.66c0,.71.24,3.79.24,4l5.52,0,.52-3.93a21.4,21.4,0,0,0,4.16-3.26,7.2,7.2,0,0,0,1.77-5A5.39,5.39,0,0,0,42,33.67" style="fill: #fff"/>
        <path d="M69.77,33.43A2,2,0,0,0,68.62,32l-4.38-1.54a5.26,5.26,0,0,1-3-3.26A27.38,27.38,0,0,0,60,23.87c-.09-.2-.18-.39-.28-.58-.55-1.13.43-2.88.74-3.38l2.44-4a2,2,0,0,0,0-1.85c-.64-.87-1.31-1.69-2-2.45a29.93,29.93,0,0,0-2.4-2.38A2.06,2.06,0,0,0,56.62,9l-4.24,2A5.44,5.44,0,0,1,48,10.87c-.88-.47-1.76-.88-2.61-1.23A5.27,5.27,0,0,1,42.4,6.31L41.28,1.7A2,2,0,0,0,40,.39,30.6,30.6,0,0,0,36.59.05a27.79,27.79,0,0,0-3.16,0A2,2,0,0,0,32,1.19L30.37,5.7a5.26,5.26,0,0,1-3.26,3c-1,.29-1.86.61-2.72,1A5.41,5.41,0,0,1,20,9.39L15.88,6.91A2,2,0,0,0,14,7c-.82.6-1.64,1.27-2.45,2a33.67,33.67,0,0,0-2.37,2.4A2,2,0,0,0,9,13.19l2,4.24a5.24,5.24,0,0,1-.18,4.44,27.3,27.3,0,0,0-1.28,2.66,5.35,5.35,0,0,1-3.33,2.92L1.65,28.56a1.94,1.94,0,0,0-1,.7l-.07.1a.6.6,0,0,0-.09.13l-.06.15a1,1,0,0,0-.1.27C.2,31,.09,32,0,33a31.52,31.52,0,0,0,0,3.37,2,2,0,0,0,1.16,1.48l4.32,1.52a5.19,5.19,0,0,1,3,3.26,24.88,24.88,0,0,0,1.29,3.55,3.1,3.1,0,0,0,.21.45c.51,1-.26,2.52-.77,3.34L6.91,53.9a2,2,0,0,0,0,1.86,31.65,31.65,0,0,0,2.13,2.63c.69.76,1.44,1.52,2.23,2.24a2,2,0,0,0,1.84.22l4.07-2a4.63,4.63,0,0,1,2-.4,5.11,5.11,0,0,1,2.48.6,27.46,27.46,0,0,0,2.91,1.38,5.23,5.23,0,0,1,2.94,3.34l1.05,4.34a2,2,0,0,0,1.34,1.29c1.07.15,2.13.26,3.15.31a31.55,31.55,0,0,0,3.37,0,2,2,0,0,0,1.47-1.16l1.47-4.17a5.23,5.23,0,0,1,3.26-3,26.14,26.14,0,0,0,3-1.09,5.37,5.37,0,0,1,4.44.27l3.78,2.31a1.84,1.84,0,0,0,.92.22,1.67,1.67,0,0,0,1-.25,29.4,29.4,0,0,0,2.62-2.12c.78-.71,1.53-1.46,2.24-2.23a2,2,0,0,0,.23-1.85l-2-4.09A5.25,5.25,0,0,1,59,48.16a26.46,26.46,0,0,0,1.35-2.86,5.23,5.23,0,0,1,3.32-2.94l4.39-1.07a2,2,0,0,0,1.17-1l.11-.24s0-.07,0-.14c0-.24.07-.5.1-.76.13-.94.21-1.78.26-2.6,0-1,0-2.09,0-3.16M49.18,50.84A21.19,21.19,0,0,1,35,56.33l-1.13,0a21.13,21.13,0,0,1-14.71-7,21.29,21.29,0,1,1,30.06,1.53" style="fill: #fff"/>
      </g>
    </g>
  </g>
</svg>
