<svg xmlns="http://www.w3.org/2000/svg" width="75.06" height="76.5" viewBox="0 0 75.06 76.5">
  <g id="Layer_2" data-name="Layer 2">
    <g id="Layer_1-2" data-name="Layer 1">
      <g>
        <path d="M10.85,76.5h-.3c-3,0-4.78-.8-5.55-2.37a3.47,3.47,0,0,1,.5-3.76l4.11-5.49a6.26,6.26,0,0,0,.88-1.31,37.7,37.7,0,1,1,15.19,9.56,1.52,1.52,0,0,0-.34.12A38,38,0,0,1,21.09,75c-.49.16-.95.28-1.41.4l-.63.17a31.46,31.46,0,0,1-8.2,1" style="fill: #fff"/>
        <g>
          <path d="M33.25,21.66A5.76,5.76,0,0,1,39,15.89a5.68,5.68,0,0,1,5.72,5.75,5.75,5.75,0,0,1-5.62,5.8,5.84,5.84,0,0,1-5.8-5.78" style="fill: #0c723c"/>
          <path d="M47.16,54.46a2.79,2.79,0,0,1-.72,1.35,10.71,10.71,0,0,1-7.63,3.47,17.08,17.08,0,0,1-4.05-.22A6,6,0,0,1,29.92,52c.66-4.16,1.4-8.27,2.11-12.4.22-1.25.48-2.49.64-3.74a3.92,3.92,0,0,0-.05-1.37,1.48,1.48,0,0,0-1.41-1.35A11.11,11.11,0,0,1,29.89,33a4.83,4.83,0,0,1-1.56-.66,1.15,1.15,0,0,1,.26-2A3.32,3.32,0,0,1,30,30c1.88,0,3.79,0,5.64,0H41.3a2,2,0,0,1,2.23,2A12.13,12.13,0,0,1,43,35.94c-.69,3.89-1.43,7.76-2.12,11.63-.24,1.32-.48,2.65-.69,4a7.33,7.33,0,0,0,0,1.24c.24,1.72,1.22,2.36,2.86,1.94a7.75,7.75,0,0,0,1.43-.67c.45-.21.9-.5,1.38-.68a.9.9,0,0,1,1.3,1.06" style="fill: #0c723c"/>
        </g>
      </g>
    </g>
  </g>
</svg>
