<?xml version="1.0" encoding="UTF-8"?>
<svg xmlns="http://www.w3.org/2000/svg" width="76.96" height="50.49" viewBox="0 0 76.96 50.49">
  <g id="Layer_2" data-name="Layer 2">
    <g id="Layer_1-2" data-name="Layer 1">
      <path d="M76.18,4.15l-.23.1c.06.79.1,1.56.09,2.3A9.66,9.66,0,0,1,76,7.64c0,.35-.08.7-.15,1a8.52,8.52,0,0,1-1.57,3.43l-.28.36-.14.16-.08.11,0,0,0,0a5.65,5.65,0,0,1-.56.54,3.35,3.35,0,0,1-1.21.63,3,3,0,0,1-1.35.13,15.22,15.22,0,0,0,.84-2.63,9.21,9.21,0,0,0,.15-1.19A2.94,2.94,0,0,0,71.36,9a3.15,3.15,0,0,0-1.62-1.58,3.4,3.4,0,0,0-3.9,1.18,3.93,3.93,0,0,0-.79,2.29,5.66,5.66,0,0,0,.52,2.36,6,6,0,0,0,1.86,2.38,7.49,7.49,0,0,1-2.86,2.87C62.05,8,50.07,0,35.65,0A36.53,36.53,0,0,0,22.24,2.49c-5.12-2.24-12-3.74-16-1.05C10.3,2.73,13,3.87,14.55,6.88A21.56,21.56,0,0,0,6.86,18c-2.07,0-4.18.19-4.89.85-2.35,2.18-2.8,10.68-.23,12.62,1,.76,4.47.69,7.13.51a25.62,25.62,0,0,0,10.45,9.48c-.38,3-.52,6.67.78,7.88,1.53,1.43,7.33,1.57,8.7,0,.72-.84.94-2.6.92-4.53a38.29,38.29,0,0,0,5.93.46,37.55,37.55,0,0,0,7.74-.8c-.07,2.11.15,4,1,4.87,1.54,1.43,7.33,1.57,8.7,0s1-5.74.58-8.85C60.55,36.41,65,30,65.05,22.84a14,14,0,0,0,2.18-2.4,25.87,25.87,0,0,0,2.14-3.84,4.88,4.88,0,0,0,3.32-.29A5.94,5.94,0,0,0,74.43,15a9.21,9.21,0,0,0,1.29-1.84A9.77,9.77,0,0,0,77,8.73a13,13,0,0,0-.77-4.58M15.49,19.9c-1.36,0-2.47-1.59-2.47-3.56s1.11-3.57,2.47-3.57S18,14.37,18,16.34s-1.11,3.56-2.48,3.56m37.86-9.47A38.55,38.55,0,0,0,47.69,8,56,56,0,0,0,42,6.49a44.43,44.43,0,0,0-5.76-.85,27.6,27.6,0,0,0-6.1.23l-.11-.19a14.16,14.16,0,0,1,6.08-1.77,23.27,23.27,0,0,1,6.34.44,24.81,24.81,0,0,1,6,2.11,16.07,16.07,0,0,1,5,3.82Zm15.91.46a11.6,11.6,0,0,1-.49,1.8c0,.15-.11.3-.17.45L68.46,13a2.57,2.57,0,0,1-.38-.49.75.75,0,0,1-.07-.12l-.07-.13c0-.1-.11-.22-.15-.32a2.7,2.7,0,0,1-.22-.95.7.7,0,0,1,.12-.44,1.32,1.32,0,0,1,.57-.43,1.53,1.53,0,0,1,.71-.07.57.57,0,0,1,.24.08l.1.08h0a3.63,3.63,0,0,1-.07.67" style="fill: #fff"></path>
    </g>
  </g>
</svg>
